<?xml version="1.0" standalone="no"?>
 <!DOCTYPE svg PUBLIC "-//W3C//DTD SVG 1.1//EN" 
 "http://www.w3.org/Graphics/SVG/1.1/DTD/svg11.dtd"> 
<svg xmlns="http://www.w3.org/2000/svg" version="1.1" 
    width="29.7002cm" height="21.0007cm" viewBox="0 0 116930 82680 ">
<title>SVG Picture created as layout-brd.svg date 2019/11/21 21:18:57 </title>
  <desc>Picture generated by PCBNEW </desc>
<g style="fill:#000000; fill-opacity:1;stroke:#000000; stroke-opacity:1;
stroke-linecap:round; stroke-linejoin:round; "
 transform="translate(0 0) scale(1 1)">
</g>
<g style="fill:#000000; fill-opacity:0.0; 
stroke:#000000; stroke-width:-0.000393701; stroke-opacity:1; 
stroke-linecap:round; stroke-linejoin:round;">
</g>
<g style="fill:#000000; fill-opacity:0.0; 
stroke:#000000; stroke-width:39.3701; stroke-opacity:1; 
stroke-linecap:round; stroke-linejoin:round;">
</g>
<g style="fill:#000000; fill-opacity:0.0; 
stroke:#000000; stroke-width:59.0551; stroke-opacity:1; 
stroke-linecap:round; stroke-linejoin:round;">
<rect x="69685.9" y="65357.2" width="42519.7" height="12598.4" rx="0" />
</g>
<g style="fill:#000000; fill-opacity:0.0; 
stroke:#000000; stroke-width:39.3701; stroke-opacity:1; 
stroke-linecap:round; stroke-linejoin:round;">
</g>
<g style="fill:#000000; fill-opacity:0.0; 
stroke:#000000; stroke-width:59.0551; stroke-opacity:1; 
stroke-linecap:round; stroke-linejoin:round;">
<rect x="3937.01" y="3937.01" width="109056" height="74806" rx="0" />
</g>
<g style="fill:#000000; fill-opacity:0.0; 
stroke:#000000; stroke-width:39.3701; stroke-opacity:1; 
stroke-linecap:round; stroke-linejoin:round;">
</g>
<g style="fill:#000000; fill-opacity:0.0; 
stroke:#000000; stroke-width:59.0551; stroke-opacity:1; 
stroke-linecap:round; stroke-linejoin:round;">
<rect x="4724.41" y="4724.41" width="107481" height="73231.2" rx="0" />
</g>
<g style="fill:#000000; fill-opacity:0.0; 
stroke:#000000; stroke-width:39.3701; stroke-opacity:1; 
stroke-linecap:round; stroke-linejoin:round;">
</g>
<g style="fill:#000000; fill-opacity:0.0; 
stroke:#000000; stroke-width:59.0551; stroke-opacity:1; 
stroke-linecap:round; stroke-linejoin:round;">
<path d="M23622 4724
L23622 3937
" />
</g>
<g style="fill:#000000; fill-opacity:0.0; 
stroke:#000000; stroke-width:39.3701; stroke-opacity:1; 
stroke-linecap:round; stroke-linejoin:round;">
</g>
<g style="fill:#000000; fill-opacity:0.0; 
stroke:#000000; stroke-width:59.0551; stroke-opacity:1; 
stroke-linecap:round; stroke-linejoin:round;">
<path d="M43307 4724
L43307 3937
" />
</g>
<g style="fill:#000000; fill-opacity:0.0; 
stroke:#000000; stroke-width:39.3701; stroke-opacity:1; 
stroke-linecap:round; stroke-linejoin:round;">
</g>
<g style="fill:#000000; fill-opacity:0.0; 
stroke:#000000; stroke-width:59.0551; stroke-opacity:1; 
stroke-linecap:round; stroke-linejoin:round;">
<path d="M62992 4724
L62992 3937
" />
</g>
<g style="fill:#000000; fill-opacity:0.0; 
stroke:#000000; stroke-width:39.3701; stroke-opacity:1; 
stroke-linecap:round; stroke-linejoin:round;">
</g>
<g style="fill:#000000; fill-opacity:0.0; 
stroke:#000000; stroke-width:59.0551; stroke-opacity:1; 
stroke-linecap:round; stroke-linejoin:round;">
<path d="M82677 4724
L82677 3937
" />
</g>
<g style="fill:#000000; fill-opacity:0.0; 
stroke:#000000; stroke-width:39.3701; stroke-opacity:1; 
stroke-linecap:round; stroke-linejoin:round;">
</g>
<g style="fill:#000000; fill-opacity:0.0; 
stroke:#000000; stroke-width:59.0551; stroke-opacity:1; 
stroke-linecap:round; stroke-linejoin:round;">
<path d="M102362 4724
L102362 3937
" />
</g>
<g style="fill:#000000; fill-opacity:0.0; 
stroke:#000000; stroke-width:39.3701; stroke-opacity:1; 
stroke-linecap:round; stroke-linejoin:round;">
</g>
<g style="fill:#000000; fill-opacity:0.0; 
stroke:#000000; stroke-width:59.0551; stroke-opacity:1; 
stroke-linecap:round; stroke-linejoin:round;">
<path d="M14199 4562
L13906 4562
" />
<path d="M14052 4562
L14052 4050
L14004 4123
L13955 4172
L13906 4196
" />
</g>
<g style="fill:#000000; fill-opacity:0.0; 
stroke:#000000; stroke-width:39.3701; stroke-opacity:1; 
stroke-linecap:round; stroke-linejoin:round;">
</g>
<g style="fill:#000000; fill-opacity:0.0; 
stroke:#000000; stroke-width:59.0551; stroke-opacity:1; 
stroke-linecap:round; stroke-linejoin:round;">
<path d="M33591 4099
L33615 4074
L33664 4050
L33786 4050
L33835 4074
L33859 4099
L33884 4147
L33884 4196
L33859 4269
L33567 4562
L33884 4562
" />
</g>
<g style="fill:#000000; fill-opacity:0.0; 
stroke:#000000; stroke-width:39.3701; stroke-opacity:1; 
stroke-linecap:round; stroke-linejoin:round;">
</g>
<g style="fill:#000000; fill-opacity:0.0; 
stroke:#000000; stroke-width:59.0551; stroke-opacity:1; 
stroke-linecap:round; stroke-linejoin:round;">
<path d="M53252 4050
L53569 4050
L53398 4245
L53471 4245
L53520 4269
L53544 4294
L53569 4342
L53569 4464
L53544 4513
L53520 4537
L53471 4562
L53325 4562
L53276 4537
L53252 4513
" />
</g>
<g style="fill:#000000; fill-opacity:0.0; 
stroke:#000000; stroke-width:39.3701; stroke-opacity:1; 
stroke-linecap:round; stroke-linejoin:round;">
</g>
<g style="fill:#000000; fill-opacity:0.0; 
stroke:#000000; stroke-width:59.0551; stroke-opacity:1; 
stroke-linecap:round; stroke-linejoin:round;">
<path d="M73205 4221
L73205 4562
" />
<path d="M73083 4026
L72961 4391
L73278 4391
" />
</g>
<g style="fill:#000000; fill-opacity:0.0; 
stroke:#000000; stroke-width:39.3701; stroke-opacity:1; 
stroke-linecap:round; stroke-linejoin:round;">
</g>
<g style="fill:#000000; fill-opacity:0.0; 
stroke:#000000; stroke-width:59.0551; stroke-opacity:1; 
stroke-linecap:round; stroke-linejoin:round;">
<path d="M92914 4050
L92671 4050
L92646 4294
L92671 4269
L92719 4245
L92841 4245
L92890 4269
L92914 4294
L92939 4342
L92939 4464
L92914 4513
L92890 4537
L92841 4562
L92719 4562
L92671 4537
L92646 4513
" />
</g>
<g style="fill:#000000; fill-opacity:0.0; 
stroke:#000000; stroke-width:39.3701; stroke-opacity:1; 
stroke-linecap:round; stroke-linejoin:round;">
</g>
<g style="fill:#000000; fill-opacity:0.0; 
stroke:#000000; stroke-width:59.0551; stroke-opacity:1; 
stroke-linecap:round; stroke-linejoin:round;">
<path d="M112575 4050
L112477 4050
L112429 4074
L112404 4099
L112356 4172
L112331 4269
L112331 4464
L112356 4513
L112380 4537
L112429 4562
L112526 4562
L112575 4537
L112599 4513
L112624 4464
L112624 4342
L112599 4294
L112575 4269
L112526 4245
L112429 4245
L112380 4269
L112356 4294
L112331 4342
" />
</g>
<g style="fill:#000000; fill-opacity:0.0; 
stroke:#000000; stroke-width:39.3701; stroke-opacity:1; 
stroke-linecap:round; stroke-linejoin:round;">
</g>
<g style="fill:#000000; fill-opacity:0.0; 
stroke:#000000; stroke-width:59.0551; stroke-opacity:1; 
stroke-linecap:round; stroke-linejoin:round;">
<path d="M23622 77955
L23622 78742
" />
</g>
<g style="fill:#000000; fill-opacity:0.0; 
stroke:#000000; stroke-width:39.3701; stroke-opacity:1; 
stroke-linecap:round; stroke-linejoin:round;">
</g>
<g style="fill:#000000; fill-opacity:0.0; 
stroke:#000000; stroke-width:59.0551; stroke-opacity:1; 
stroke-linecap:round; stroke-linejoin:round;">
<path d="M43307 77955
L43307 78742
" />
</g>
<g style="fill:#000000; fill-opacity:0.0; 
stroke:#000000; stroke-width:39.3701; stroke-opacity:1; 
stroke-linecap:round; stroke-linejoin:round;">
</g>
<g style="fill:#000000; fill-opacity:0.0; 
stroke:#000000; stroke-width:59.0551; stroke-opacity:1; 
stroke-linecap:round; stroke-linejoin:round;">
<path d="M62992 77955
L62992 78742
" />
</g>
<g style="fill:#000000; fill-opacity:0.0; 
stroke:#000000; stroke-width:39.3701; stroke-opacity:1; 
stroke-linecap:round; stroke-linejoin:round;">
</g>
<g style="fill:#000000; fill-opacity:0.0; 
stroke:#000000; stroke-width:59.0551; stroke-opacity:1; 
stroke-linecap:round; stroke-linejoin:round;">
<path d="M82677 77955
L82677 78742
" />
</g>
<g style="fill:#000000; fill-opacity:0.0; 
stroke:#000000; stroke-width:39.3701; stroke-opacity:1; 
stroke-linecap:round; stroke-linejoin:round;">
</g>
<g style="fill:#000000; fill-opacity:0.0; 
stroke:#000000; stroke-width:59.0551; stroke-opacity:1; 
stroke-linecap:round; stroke-linejoin:round;">
<path d="M102362 77955
L102362 78742
" />
</g>
<g style="fill:#000000; fill-opacity:0.0; 
stroke:#000000; stroke-width:39.3701; stroke-opacity:1; 
stroke-linecap:round; stroke-linejoin:round;">
</g>
<g style="fill:#000000; fill-opacity:0.0; 
stroke:#000000; stroke-width:59.0551; stroke-opacity:1; 
stroke-linecap:round; stroke-linejoin:round;">
<path d="M14199 78580
L13906 78580
" />
<path d="M14052 78580
L14052 78069
L14004 78142
L13955 78190
L13906 78215
" />
</g>
<g style="fill:#000000; fill-opacity:0.0; 
stroke:#000000; stroke-width:39.3701; stroke-opacity:1; 
stroke-linecap:round; stroke-linejoin:round;">
</g>
<g style="fill:#000000; fill-opacity:0.0; 
stroke:#000000; stroke-width:59.0551; stroke-opacity:1; 
stroke-linecap:round; stroke-linejoin:round;">
<path d="M33591 78117
L33615 78093
L33664 78069
L33786 78069
L33835 78093
L33859 78117
L33884 78166
L33884 78215
L33859 78288
L33567 78580
L33884 78580
" />
</g>
<g style="fill:#000000; fill-opacity:0.0; 
stroke:#000000; stroke-width:39.3701; stroke-opacity:1; 
stroke-linecap:round; stroke-linejoin:round;">
</g>
<g style="fill:#000000; fill-opacity:0.0; 
stroke:#000000; stroke-width:59.0551; stroke-opacity:1; 
stroke-linecap:round; stroke-linejoin:round;">
<path d="M53252 78069
L53569 78069
L53398 78263
L53471 78263
L53520 78288
L53544 78312
L53569 78361
L53569 78483
L53544 78532
L53520 78556
L53471 78580
L53325 78580
L53276 78556
L53252 78532
" />
</g>
<g style="fill:#000000; fill-opacity:0.0; 
stroke:#000000; stroke-width:39.3701; stroke-opacity:1; 
stroke-linecap:round; stroke-linejoin:round;">
</g>
<g style="fill:#000000; fill-opacity:0.0; 
stroke:#000000; stroke-width:59.0551; stroke-opacity:1; 
stroke-linecap:round; stroke-linejoin:round;">
<path d="M73205 78239
L73205 78580
" />
<path d="M73083 78044
L72961 78410
L73278 78410
" />
</g>
<g style="fill:#000000; fill-opacity:0.0; 
stroke:#000000; stroke-width:39.3701; stroke-opacity:1; 
stroke-linecap:round; stroke-linejoin:round;">
</g>
<g style="fill:#000000; fill-opacity:0.0; 
stroke:#000000; stroke-width:59.0551; stroke-opacity:1; 
stroke-linecap:round; stroke-linejoin:round;">
<path d="M92914 78069
L92671 78069
L92646 78312
L92671 78288
L92719 78263
L92841 78263
L92890 78288
L92914 78312
L92939 78361
L92939 78483
L92914 78532
L92890 78556
L92841 78580
L92719 78580
L92671 78556
L92646 78532
" />
</g>
<g style="fill:#000000; fill-opacity:0.0; 
stroke:#000000; stroke-width:39.3701; stroke-opacity:1; 
stroke-linecap:round; stroke-linejoin:round;">
</g>
<g style="fill:#000000; fill-opacity:0.0; 
stroke:#000000; stroke-width:59.0551; stroke-opacity:1; 
stroke-linecap:round; stroke-linejoin:round;">
<path d="M112575 78069
L112477 78069
L112429 78093
L112404 78117
L112356 78190
L112331 78288
L112331 78483
L112356 78532
L112380 78556
L112429 78580
L112526 78580
L112575 78556
L112599 78532
L112624 78483
L112624 78361
L112599 78312
L112575 78288
L112526 78263
L112429 78263
L112380 78288
L112356 78312
L112331 78361
" />
</g>
<g style="fill:#000000; fill-opacity:0.0; 
stroke:#000000; stroke-width:39.3701; stroke-opacity:1; 
stroke-linecap:round; stroke-linejoin:round;">
</g>
<g style="fill:#000000; fill-opacity:0.0; 
stroke:#000000; stroke-width:59.0551; stroke-opacity:1; 
stroke-linecap:round; stroke-linejoin:round;">
<path d="M3937 23622
L4724 23622
" />
</g>
<g style="fill:#000000; fill-opacity:0.0; 
stroke:#000000; stroke-width:39.3701; stroke-opacity:1; 
stroke-linecap:round; stroke-linejoin:round;">
</g>
<g style="fill:#000000; fill-opacity:0.0; 
stroke:#000000; stroke-width:59.0551; stroke-opacity:1; 
stroke-linecap:round; stroke-linejoin:round;">
<path d="M3937 43307
L4724 43307
" />
</g>
<g style="fill:#000000; fill-opacity:0.0; 
stroke:#000000; stroke-width:39.3701; stroke-opacity:1; 
stroke-linecap:round; stroke-linejoin:round;">
</g>
<g style="fill:#000000; fill-opacity:0.0; 
stroke:#000000; stroke-width:59.0551; stroke-opacity:1; 
stroke-linecap:round; stroke-linejoin:round;">
<path d="M3937 62992
L4724 62992
" />
</g>
<g style="fill:#000000; fill-opacity:0.0; 
stroke:#000000; stroke-width:39.3701; stroke-opacity:1; 
stroke-linecap:round; stroke-linejoin:round;">
</g>
<g style="fill:#000000; fill-opacity:0.0; 
stroke:#000000; stroke-width:59.0551; stroke-opacity:1; 
stroke-linecap:round; stroke-linejoin:round;">
<path d="M4208 13864
L4452 13864
" />
<path d="M4160 14011
L4330 13499
L4501 14011
" />
</g>
<g style="fill:#000000; fill-opacity:0.0; 
stroke:#000000; stroke-width:39.3701; stroke-opacity:1; 
stroke-linecap:round; stroke-linejoin:round;">
</g>
<g style="fill:#000000; fill-opacity:0.0; 
stroke:#000000; stroke-width:59.0551; stroke-opacity:1; 
stroke-linecap:round; stroke-linejoin:round;">
<path d="M4367 33428
L4440 33452
L4464 33476
L4489 33525
L4489 33598
L4464 33647
L4440 33671
L4391 33696
L4196 33696
L4196 33184
L4367 33184
L4416 33208
L4440 33233
L4464 33281
L4464 33330
L4440 33379
L4416 33403
L4367 33428
L4196 33428
" />
</g>
<g style="fill:#000000; fill-opacity:0.0; 
stroke:#000000; stroke-width:39.3701; stroke-opacity:1; 
stroke-linecap:round; stroke-linejoin:round;">
</g>
<g style="fill:#000000; fill-opacity:0.0; 
stroke:#000000; stroke-width:59.0551; stroke-opacity:1; 
stroke-linecap:round; stroke-linejoin:round;">
<path d="M4489 53332
L4464 53356
L4391 53381
L4342 53381
L4269 53356
L4221 53308
L4196 53259
L4172 53161
L4172 53088
L4196 52991
L4221 52942
L4269 52893
L4342 52869
L4391 52869
L4464 52893
L4489 52918
" />
</g>
<g style="fill:#000000; fill-opacity:0.0; 
stroke:#000000; stroke-width:39.3701; stroke-opacity:1; 
stroke-linecap:round; stroke-linejoin:round;">
</g>
<g style="fill:#000000; fill-opacity:0.0; 
stroke:#000000; stroke-width:59.0551; stroke-opacity:1; 
stroke-linecap:round; stroke-linejoin:round;">
<path d="M4196 73066
L4196 72554
L4318 72554
L4391 72578
L4440 72627
L4464 72676
L4489 72773
L4489 72846
L4464 72944
L4440 72993
L4391 73041
L4318 73066
L4196 73066
" />
</g>
<g style="fill:#000000; fill-opacity:0.0; 
stroke:#000000; stroke-width:39.3701; stroke-opacity:1; 
stroke-linecap:round; stroke-linejoin:round;">
</g>
<g style="fill:#000000; fill-opacity:0.0; 
stroke:#000000; stroke-width:59.0551; stroke-opacity:1; 
stroke-linecap:round; stroke-linejoin:round;">
<path d="M112992 23622
L112205 23622
" />
</g>
<g style="fill:#000000; fill-opacity:0.0; 
stroke:#000000; stroke-width:39.3701; stroke-opacity:1; 
stroke-linecap:round; stroke-linejoin:round;">
</g>
<g style="fill:#000000; fill-opacity:0.0; 
stroke:#000000; stroke-width:59.0551; stroke-opacity:1; 
stroke-linecap:round; stroke-linejoin:round;">
<path d="M112992 43307
L112205 43307
" />
</g>
<g style="fill:#000000; fill-opacity:0.0; 
stroke:#000000; stroke-width:39.3701; stroke-opacity:1; 
stroke-linecap:round; stroke-linejoin:round;">
</g>
<g style="fill:#000000; fill-opacity:0.0; 
stroke:#000000; stroke-width:59.0551; stroke-opacity:1; 
stroke-linecap:round; stroke-linejoin:round;">
<path d="M112992 62992
L112205 62992
" />
</g>
<g style="fill:#000000; fill-opacity:0.0; 
stroke:#000000; stroke-width:39.3701; stroke-opacity:1; 
stroke-linecap:round; stroke-linejoin:round;">
</g>
<g style="fill:#000000; fill-opacity:0.0; 
stroke:#000000; stroke-width:59.0551; stroke-opacity:1; 
stroke-linecap:round; stroke-linejoin:round;">
<path d="M112477 13864
L112721 13864
" />
<path d="M112428 14011
L112599 13499
L112769 14011
" />
</g>
<g style="fill:#000000; fill-opacity:0.0; 
stroke:#000000; stroke-width:39.3701; stroke-opacity:1; 
stroke-linecap:round; stroke-linejoin:round;">
</g>
<g style="fill:#000000; fill-opacity:0.0; 
stroke:#000000; stroke-width:59.0551; stroke-opacity:1; 
stroke-linecap:round; stroke-linejoin:round;">
<path d="M112635 33428
L112708 33452
L112733 33476
L112757 33525
L112757 33598
L112733 33647
L112708 33671
L112660 33696
L112465 33696
L112465 33184
L112635 33184
L112684 33208
L112708 33233
L112733 33281
L112733 33330
L112708 33379
L112684 33403
L112635 33428
L112465 33428
" />
</g>
<g style="fill:#000000; fill-opacity:0.0; 
stroke:#000000; stroke-width:39.3701; stroke-opacity:1; 
stroke-linecap:round; stroke-linejoin:round;">
</g>
<g style="fill:#000000; fill-opacity:0.0; 
stroke:#000000; stroke-width:59.0551; stroke-opacity:1; 
stroke-linecap:round; stroke-linejoin:round;">
<path d="M112757 53332
L112733 53356
L112660 53381
L112611 53381
L112538 53356
L112489 53308
L112465 53259
L112440 53161
L112440 53088
L112465 52991
L112489 52942
L112538 52893
L112611 52869
L112660 52869
L112733 52893
L112757 52918
" />
</g>
<g style="fill:#000000; fill-opacity:0.0; 
stroke:#000000; stroke-width:39.3701; stroke-opacity:1; 
stroke-linecap:round; stroke-linejoin:round;">
</g>
<g style="fill:#000000; fill-opacity:0.0; 
stroke:#000000; stroke-width:59.0551; stroke-opacity:1; 
stroke-linecap:round; stroke-linejoin:round;">
<path d="M112465 73066
L112465 72554
L112587 72554
L112660 72578
L112708 72627
L112733 72676
L112757 72773
L112757 72846
L112733 72944
L112708 72993
L112660 73041
L112587 73066
L112465 73066
" />
</g>
<g style="fill:#000000; fill-opacity:0.0; 
stroke:#000000; stroke-width:39.3701; stroke-opacity:1; 
stroke-linecap:round; stroke-linejoin:round;">
</g>
<g style="fill:#000000; fill-opacity:0.0; 
stroke:#000000; stroke-width:59.0551; stroke-opacity:1; 
stroke-linecap:round; stroke-linejoin:round;">
<path d="M78911 76293
L78911 75703
L79051 75703
L79136 75731
L79192 75787
L79220 75843
L79248 75956
L79248 76040
L79220 76153
L79192 76209
L79136 76265
L79051 76293
L78911 76293
" />
<path d="M79754 76293
L79754 75984
L79726 75928
L79670 75899
L79557 75899
L79501 75928
" />
<path d="M79754 76265
L79698 76293
L79557 76293
L79501 76265
L79473 76209
L79473 76153
L79501 76096
L79557 76068
L79698 76068
L79754 76040
" />
<path d="M79951 75899
L80176 75899
" />
<path d="M80036 75703
L80036 76209
L80064 76265
L80120 76293
L80176 76293
" />
<path d="M80598 76265
L80542 76293
L80429 76293
L80373 76265
L80345 76209
L80345 75984
L80373 75928
L80429 75899
L80542 75899
L80598 75928
L80626 75984
L80626 76040
L80345 76096
" />
<path d="M80879 76237
L80907 76265
L80879 76293
L80851 76265
L80879 76237
L80879 76293
" />
<path d="M80879 75928
L80907 75956
L80879 75984
L80851 75956
L80879 75928
L80879 75984
" />
</g>
<g style="fill:#000000; fill-opacity:0.0; 
stroke:#000000; stroke-width:39.3701; stroke-opacity:1; 
stroke-linecap:round; stroke-linejoin:round;">
</g>
<g style="fill:#000000; fill-opacity:0.0; 
stroke:#000000; stroke-width:59.0551; stroke-opacity:1; 
stroke-linecap:round; stroke-linejoin:round;">
<path d="M69685 76577
L112205 76577
" />
</g>
<g style="fill:#000000; fill-opacity:0.0; 
stroke:#000000; stroke-width:39.3701; stroke-opacity:1; 
stroke-linecap:round; stroke-linejoin:round;">
</g>
<g style="fill:#000000; fill-opacity:0.0; 
stroke:#000000; stroke-width:59.0551; stroke-opacity:1; 
stroke-linecap:round; stroke-linejoin:round;">
<path d="M70249 77395
L70249 76805
" />
<path d="M70587 77395
L70334 77058
" />
<path d="M70587 76805
L70249 77142
" />
<path d="M70840 77395
L70840 77002
" />
<path d="M70840 76805
L70812 76833
L70840 76861
L70868 76833
L70840 76805
L70840 76861
" />
<path d="M71458 77339
L71430 77367
L71346 77395
L71290 77395
L71205 77367
L71149 77311
L71121 77255
L71093 77142
L71093 77058
L71121 76946
L71149 76889
L71205 76833
L71290 76805
L71346 76805
L71430 76833
L71458 76861
" />
<path d="M71965 77395
L71965 77086
L71937 77030
L71880 77002
L71768 77002
L71712 77030
" />
<path d="M71965 77367
L71908 77395
L71768 77395
L71712 77367
L71683 77311
L71683 77255
L71712 77199
L71768 77171
L71908 77171
L71965 77142
" />
<path d="M72499 77395
L72499 76805
" />
<path d="M72499 77367
L72443 77395
L72330 77395
L72274 77367
L72246 77339
L72218 77283
L72218 77114
L72246 77058
L72274 77030
L72330 77002
L72443 77002
L72499 77030
" />
<path d="M73230 77086
L73427 77086
" />
<path d="M73511 77395
L73230 77395
L73230 76805
L73511 76805
" />
<path d="M73764 77339
L73793 77367
L73764 77395
L73736 77367
L73764 77339
L73764 77395
" />
<path d="M74046 77395
L74046 76805
L74186 76805
L74271 76833
L74327 76889
L74355 76946
L74383 77058
L74383 77142
L74355 77255
L74327 77311
L74271 77367
L74186 77395
L74046 77395
" />
<path d="M74636 77339
L74664 77367
L74636 77395
L74608 77367
L74636 77339
L74636 77395
" />
<path d="M74889 77227
L75171 77227
" />
<path d="M74833 77395
L75030 76805
L75227 77395
" />
<path d="M75424 77339
L75452 77367
L75424 77395
L75395 77367
L75424 77339
L75424 77395
" />
<path d="M76605 77002
L76605 77592
" />
<path d="M76605 77030
L76661 77002
L76773 77002
L76830 77030
L76858 77058
L76886 77114
L76886 77283
L76858 77339
L76830 77367
L76773 77395
L76661 77395
L76605 77367
" />
<path d="M77392 77367
L77336 77395
L77223 77395
L77167 77367
L77139 77339
L77111 77283
L77111 77114
L77139 77058
L77167 77030
L77223 77002
L77336 77002
L77392 77030
" />
<path d="M77645 77395
L77645 76805
" />
<path d="M77645 77030
L77701 77002
L77814 77002
L77870 77030
L77898 77058
L77926 77114
L77926 77283
L77898 77339
L77870 77367
L77814 77395
L77701 77395
L77645 77367
" />
<path d="M78180 77002
L78180 77395
" />
<path d="M78180 77058
L78208 77030
L78264 77002
L78348 77002
L78404 77030
L78433 77086
L78433 77395
" />
<path d="M78939 77367
L78883 77395
L78770 77395
L78714 77367
L78686 77311
L78686 77086
L78714 77030
L78770 77002
L78883 77002
L78939 77030
L78967 77086
L78967 77142
L78686 77199
" />
<path d="M79164 77002
L79276 77395
L79389 77114
L79501 77395
L79614 77002
" />
<path d="M80457 77620
L80429 77592
L80373 77508
L80345 77452
L80317 77367
L80289 77227
L80289 77114
L80317 76974
L80345 76889
L80373 76833
L80429 76749
L80457 76721
" />
<path d="M80964 76805
L80682 76805
L80654 77086
L80682 77058
L80739 77030
L80879 77030
L80935 77058
L80964 77086
L80992 77142
L80992 77283
L80964 77339
L80935 77367
L80879 77395
L80739 77395
L80682 77367
L80654 77339
" />
<path d="M81245 77339
L81273 77367
L81245 77395
L81217 77367
L81245 77339
L81245 77395
" />
<path d="M81638 76805
L81695 76805
L81751 76833
L81779 76861
L81807 76917
L81835 77030
L81835 77171
L81807 77283
L81779 77339
L81751 77367
L81695 77395
L81638 77395
L81582 77367
L81554 77339
L81526 77283
L81498 77171
L81498 77030
L81526 76917
L81554 76861
L81582 76833
L81638 76805
" />
<path d="M82088 77339
L82117 77367
L82088 77395
L82060 77367
L82088 77339
L82088 77395
" />
<path d="M82341 76861
L82370 76833
L82426 76805
L82566 76805
L82623 76833
L82651 76861
L82679 76917
L82679 76974
L82651 77058
L82313 77395
L82679 77395
" />
<path d="M82876 77620
L82904 77592
L82960 77508
L82988 77452
L83016 77367
L83045 77227
L83045 77114
L83016 76974
L82988 76889
L82960 76833
L82904 76749
L82876 76721
" />
<path d="M83326 77171
L83776 77171
" />
<path d="M84366 77395
L84029 77395
" />
<path d="M84197 77395
L84197 76805
L84141 76889
L84085 76946
L84029 76974
" />
</g>
<g style="fill:#000000; fill-opacity:0.0; 
stroke:#000000; stroke-width:39.3701; stroke-opacity:1; 
stroke-linecap:round; stroke-linejoin:round;">
</g>
<g style="fill:#000000; fill-opacity:0.0; 
stroke:#000000; stroke-width:59.0551; stroke-opacity:1; 
stroke-linecap:round; stroke-linejoin:round;">
<path d="M69685 75396
L112205 75396
" />
</g>
<g style="fill:#000000; fill-opacity:0.0; 
stroke:#000000; stroke-width:39.3701; stroke-opacity:1; 
stroke-linecap:round; stroke-linejoin:round;">
</g>
<g style="fill:#000000; fill-opacity:0.0; 
stroke:#000000; stroke-width:118.11; stroke-opacity:1; 
stroke-linecap:round; stroke-linejoin:round;">
<path d="M104099 76293
L103902 76012
" />
<path d="M103761 76293
L103761 75703
L103986 75703
L104042 75731
L104070 75759
L104099 75815
L104099 75899
L104070 75956
L104042 75984
L103986 76012
L103761 76012
" />
<path d="M104577 76265
L104520 76293
L104408 76293
L104352 76265
L104323 76209
L104323 75984
L104352 75928
L104408 75899
L104520 75899
L104577 75928
L104605 75984
L104605 76040
L104323 76096
" />
<path d="M104802 75899
L104942 76293
L105083 75899
" />
<path d="M105308 76237
L105336 76265
L105308 76293
L105280 76265
L105308 76237
L105308 76293
" />
<path d="M105308 75928
L105336 75956
L105308 75984
L105280 75956
L105308 75928
L105308 75984
" />
</g>
<g style="fill:#000000; fill-opacity:0.0; 
stroke:#000000; stroke-width:39.3701; stroke-opacity:1; 
stroke-linecap:round; stroke-linejoin:round;">
</g>
<g style="fill:#000000; fill-opacity:0.0; 
stroke:#000000; stroke-width:59.0551; stroke-opacity:1; 
stroke-linecap:round; stroke-linejoin:round;">
<path d="M70221 76265
L70305 76293
L70446 76293
L70502 76265
L70530 76237
L70559 76181
L70559 76124
L70530 76068
L70502 76040
L70446 76012
L70334 75984
L70277 75956
L70249 75928
L70221 75871
L70221 75815
L70249 75759
L70277 75731
L70334 75703
L70474 75703
L70559 75731
" />
<path d="M70812 76293
L70812 75899
" />
<path d="M70812 75703
L70784 75731
L70812 75759
L70840 75731
L70812 75703
L70812 75759
" />
<path d="M71037 75899
L71346 75899
L71037 76293
L71346 76293
" />
<path d="M71796 76265
L71740 76293
L71627 76293
L71571 76265
L71543 76209
L71543 75984
L71571 75928
L71627 75899
L71740 75899
L71796 75928
L71824 75984
L71824 76040
L71543 76096
" />
<path d="M72077 76237
L72105 76265
L72077 76293
L72049 76265
L72077 76237
L72077 76293
" />
<path d="M72077 75928
L72105 75956
L72077 75984
L72049 75956
L72077 75928
L72077 75984
" />
<path d="M72780 76124
L73061 76124
" />
<path d="M72724 76293
L72921 75703
L73118 76293
" />
<path d="M73568 75899
L73568 76293
" />
<path d="M73427 75674
L73286 76096
L73652 76096
" />
</g>
<g style="fill:#000000; fill-opacity:0.0; 
stroke:#000000; stroke-width:39.3701; stroke-opacity:1; 
stroke-linecap:round; stroke-linejoin:round;">
</g>
<g style="fill:#000000; fill-opacity:0.0; 
stroke:#000000; stroke-width:59.0551; stroke-opacity:1; 
stroke-linecap:round; stroke-linejoin:round;">
<path d="M103714 77395
L103714 76805
" />
<path d="M104248 77395
L104248 76805
" />
<path d="M104248 77367
L104192 77395
L104079 77395
L104023 77367
L103995 77339
L103967 77283
L103967 77114
L103995 77058
L104023 77030
L104079 77002
L104192 77002
L104248 77030
" />
<path d="M104529 77339
L104557 77367
L104529 77395
L104501 77367
L104529 77339
L104529 77395
" />
<path d="M104529 77030
L104557 77058
L104529 77086
L104501 77058
L104529 77030
L104529 77086
" />
<path d="M105570 77395
L105232 77395
" />
<path d="M105401 77395
L105401 76805
L105345 76889
L105289 76946
L105232 76974
" />
<path d="M106245 76777
L105739 77536
" />
<path d="M106751 77395
L106413 77395
" />
<path d="M106582 77395
L106582 76805
L106526 76889
L106470 76946
L106413 76974
" />
</g>
<g style="fill:#000000; fill-opacity:0.0; 
stroke:#000000; stroke-width:39.3701; stroke-opacity:1; 
stroke-linecap:round; stroke-linejoin:round;">
</g>
<g style="fill:#000000; fill-opacity:0.0; 
stroke:#000000; stroke-width:59.0551; stroke-opacity:1; 
stroke-linecap:round; stroke-linejoin:round;">
<path d="M69685 73821
L112205 73821
" />
</g>
<g style="fill:#000000; fill-opacity:0.0; 
stroke:#000000; stroke-width:39.3701; stroke-opacity:1; 
stroke-linecap:round; stroke-linejoin:round;">
</g>
<g style="fill:#000000; fill-opacity:0.0; 
stroke:#000000; stroke-width:157.48; stroke-opacity:1; 
stroke-linecap:round; stroke-linejoin:round;">
<path d="M70360 74099
L70810 74099
" />
<path d="M70486 74886
L70585 74099
" />
<path d="M70974 74886
L71039 74361
" />
<path d="M71072 74099
L71030 74136
L71063 74174
L71105 74136
L71072 74099
L71063 74174
" />
<path d="M71302 74361
L71602 74361
" />
<path d="M71447 74099
L71363 74774
L71391 74849
L71461 74886
L71536 74886
" />
<path d="M71911 74886
L71841 74849
L71813 74774
L71897 74099
" />
<path d="M72516 74849
L72436 74886
L72286 74886
L72216 74849
L72187 74774
L72225 74474
L72272 74399
L72352 74361
L72501 74361
L72572 74399
L72600 74474
L72591 74549
L72206 74624
" />
<path d="M72895 74811
L72928 74849
L72886 74886
L72853 74849
L72895 74811
L72886 74886
" />
<path d="M72947 74399
L72980 74436
L72937 74474
L72905 74436
L72947 74399
L72937 74474
" />
</g>
<g style="fill:#000000; fill-opacity:0.0; 
stroke:#000000; stroke-width:39.3701; stroke-opacity:1; 
stroke-linecap:round; stroke-linejoin:round;">
</g>
<g style="fill:#000000; fill-opacity:0.0; 
stroke:#000000; stroke-width:59.0551; stroke-opacity:1; 
stroke-linecap:round; stroke-linejoin:round;">
<path d="M70446 73070
L70249 73070
" />
<path d="M70249 73380
L70249 72789
L70530 72789
" />
<path d="M70755 73380
L70755 72986
" />
<path d="M70755 72789
L70727 72817
L70755 72845
L70784 72817
L70755 72789
L70755 72845
" />
<path d="M71121 73380
L71065 73352
L71037 73295
L71037 72789
" />
<path d="M71571 73352
L71515 73380
L71402 73380
L71346 73352
L71318 73295
L71318 73070
L71346 73014
L71402 72986
L71515 72986
L71571 73014
L71599 73070
L71599 73127
L71318 73183
" />
<path d="M71852 73323
L71880 73352
L71852 73380
L71824 73352
L71852 73323
L71852 73380
" />
<path d="M71852 73014
L71880 73042
L71852 73070
L71824 73042
L71852 73014
L71852 73070
" />
<path d="M72668 73380
L72611 73352
L72583 73295
L72583 72789
" />
<path d="M73146 73380
L73146 73070
L73118 73014
L73061 72986
L72949 72986
L72893 73014
" />
<path d="M73146 73352
L73090 73380
L72949 73380
L72893 73352
L72865 73295
L72865 73239
L72893 73183
L72949 73155
L73090 73155
L73146 73127
" />
<path d="M73371 72986
L73511 73380
" />
<path d="M73652 72986
L73511 73380
L73455 73520
L73427 73548
L73371 73577
" />
<path d="M73961 73380
L73905 73352
L73877 73323
L73849 73267
L73849 73099
L73877 73042
L73905 73014
L73961 72986
L74046 72986
L74102 73014
L74130 73042
L74158 73099
L74158 73267
L74130 73323
L74102 73352
L74046 73380
L73961 73380
" />
<path d="M74664 72986
L74664 73380
" />
<path d="M74411 72986
L74411 73295
L74439 73352
L74496 73380
L74580 73380
L74636 73352
L74664 73323
" />
<path d="M74861 72986
L75086 72986
" />
<path d="M74946 72789
L74946 73295
L74974 73352
L75030 73380
L75086 73380
" />
<path d="M75283 73323
L75311 73352
L75283 73380
L75255 73352
L75283 73323
L75283 73380
" />
<path d="M75564 73380
L75564 72789
" />
<path d="M75620 73155
L75789 73380
" />
<path d="M75789 72986
L75564 73211
" />
<path d="M76042 73380
L76042 72986
" />
<path d="M76042 72789
L76014 72817
L76042 72845
L76070 72817
L76042 72789
L76042 72845
" />
<path d="M76577 73352
L76520 73380
L76408 73380
L76352 73352
L76323 73323
L76295 73267
L76295 73099
L76323 73042
L76352 73014
L76408 72986
L76520 72986
L76577 73014
" />
<path d="M77083 73380
L77083 73070
L77055 73014
L76998 72986
L76886 72986
L76830 73014
" />
<path d="M77083 73352
L77027 73380
L76886 73380
L76830 73352
L76802 73295
L76802 73239
L76830 73183
L76886 73155
L77027 73155
L77083 73127
" />
<path d="M77617 73380
L77617 72789
" />
<path d="M77617 73352
L77561 73380
L77448 73380
L77392 73352
L77364 73323
L77336 73267
L77336 73099
L77364 73042
L77392 73014
L77448 72986
L77561 72986
L77617 73014
" />
<path d="M77758 73436
L78208 73436
" />
<path d="M78348 72986
L78348 73577
" />
<path d="M78348 73014
L78404 72986
L78517 72986
L78573 73014
L78601 73042
L78629 73099
L78629 73267
L78601 73323
L78573 73352
L78517 73380
L78404 73380
L78348 73352
" />
<path d="M79136 73352
L79079 73380
L78967 73380
L78911 73352
L78883 73323
L78854 73267
L78854 73099
L78883 73042
L78911 73014
L78967 72986
L79079 72986
L79136 73014
" />
<path d="M79389 73380
L79389 72789
" />
<path d="M79389 73014
L79445 72986
L79557 72986
L79614 73014
L79642 73042
L79670 73099
L79670 73267
L79642 73323
L79614 73352
L79557 73380
L79445 73380
L79389 73352
" />
</g>
<g style="fill:#000000; fill-opacity:0.0; 
stroke:#000000; stroke-width:39.3701; stroke-opacity:1; 
stroke-linecap:round; stroke-linejoin:round;">
</g>
<g style="fill:#000000; fill-opacity:0.0; 
stroke:#000000; stroke-width:59.0551; stroke-opacity:1; 
stroke-linecap:round; stroke-linejoin:round;">
<path d="M69685 71459
L112205 71459
" />
</g>
<g style="fill:#000000; fill-opacity:0.0; 
stroke:#000000; stroke-width:39.3701; stroke-opacity:1; 
stroke-linecap:round; stroke-linejoin:round;">
</g>
<g style="fill:#000000; fill-opacity:0.0; 
stroke:#000000; stroke-width:59.0551; stroke-opacity:1; 
stroke-linecap:round; stroke-linejoin:round;">
<path d="M70221 72289
L70305 72317
L70446 72317
L70502 72289
L70530 72260
L70559 72204
L70559 72148
L70530 72092
L70502 72064
L70446 72036
L70334 72007
L70277 71979
L70249 71951
L70221 71895
L70221 71839
L70249 71782
L70277 71754
L70334 71726
L70474 71726
L70559 71754
" />
<path d="M70812 72317
L70812 71726
" />
<path d="M71065 72317
L71065 72007
L71037 71951
L70980 71923
L70896 71923
L70840 71951
L70812 71979
" />
<path d="M71571 72289
L71515 72317
L71402 72317
L71346 72289
L71318 72232
L71318 72007
L71346 71951
L71402 71923
L71515 71923
L71571 71951
L71599 72007
L71599 72064
L71318 72120
" />
<path d="M72077 72289
L72021 72317
L71908 72317
L71852 72289
L71824 72232
L71824 72007
L71852 71951
L71908 71923
L72021 71923
L72077 71951
L72105 72007
L72105 72064
L71824 72120
" />
<path d="M72274 71923
L72499 71923
" />
<path d="M72358 71726
L72358 72232
L72386 72289
L72443 72317
L72499 72317
" />
<path d="M72696 72260
L72724 72289
L72696 72317
L72668 72289
L72696 72260
L72696 72317
" />
<path d="M72696 71951
L72724 71979
L72696 72007
L72668 71979
L72696 71951
L72696 72007
" />
</g>
<g style="fill:#000000; fill-opacity:0.0; 
stroke:#000000; stroke-width:39.3701; stroke-opacity:1; 
stroke-linecap:round; stroke-linejoin:round;">
</g>
<g style="fill:#000000; fill-opacity:0.0; 
stroke:#000000; stroke-width:59.0551; stroke-opacity:1; 
stroke-linecap:round; stroke-linejoin:round;">
<path d="M77559 75396
L77559 76577
" />
</g>
<g style="fill:#000000; fill-opacity:0.0; 
stroke:#000000; stroke-width:39.3701; stroke-opacity:1; 
stroke-linecap:round; stroke-linejoin:round;">
</g>
<g style="fill:#000000; fill-opacity:0.0; 
stroke:#000000; stroke-width:59.0551; stroke-opacity:1; 
stroke-linecap:round; stroke-linejoin:round;">
<path d="M102756 75396
L102756 77955
" />
</g>
<g style="fill:#000000; fill-opacity:0.0; 
stroke:#000000; stroke-width:118.11; stroke-opacity:1; 
stroke-linecap:round; stroke-linejoin:round;">
<path d="M46109 36893
L45772 36893
" />
<path d="M45940 36893
L45940 36303
L45884 36387
L45828 36443
L45772 36472
" />
<path d="M46447 36556
L46390 36528
L46362 36500
L46334 36443
L46334 36415
L46362 36359
L46390 36331
L46447 36303
L46559 36303
L46615 36331
L46643 36359
L46672 36415
L46672 36443
L46643 36500
L46615 36528
L46559 36556
L46447 36556
L46390 36584
L46362 36612
L46334 36668
L46334 36781
L46362 36837
L46390 36865
L46447 36893
L46559 36893
L46615 36865
L46643 36837
L46672 36781
L46672 36668
L46643 36612
L46615 36584
L46559 36556
" />
<path d="M46953 36865
L46953 36893
L46925 36950
L46897 36978
" />
<path d="M47318 36303
L47375 36303
L47431 36331
L47459 36359
L47487 36415
L47515 36528
L47515 36668
L47487 36781
L47459 36837
L47431 36865
L47375 36893
L47318 36893
L47262 36865
L47234 36837
L47206 36781
L47178 36668
L47178 36528
L47206 36415
L47234 36359
L47262 36331
L47318 36303
" />
<path d="M47712 36303
L48078 36303
L47881 36528
L47965 36528
L48021 36556
L48050 36584
L48078 36640
L48078 36781
L48050 36837
L48021 36865
L47965 36893
L47796 36893
L47740 36865
L47712 36837
" />
<path d="M48584 36500
L48584 36893
" />
<path d="M48443 36275
L48303 36697
L48668 36697
" />
<path d="M49343 36893
L49343 36500
L49512 36809
L49681 36500
L49681 36893
" />
<path d="M49962 36893
L49962 36500
L50130 36809
L50299 36500
L50299 36893
" />
<path d="M44500 35800
L51600 35800
" />
<path d="M44500 35800
L44500 36030
" />
<path d="M51600 35800
L51600 36030
" />
<path d="M51600 35800
L51156 36030
" />
<path d="M51600 35800
L51156 35569
" />
<path d="M44500 35800
L44943 36030
" />
<path d="M44500 35800
L44943 35569
" />
</g>
<g style="fill:#000000; fill-opacity:0.0; 
stroke:#000000; stroke-width:47.2441; stroke-opacity:1; 
stroke-linecap:round; stroke-linejoin:round;">
<path d="M51462 32906
L51462 33693
" />
<path d="M59187 45748
L59187 25851
" />
<path d="M51612 45748
L59187 45748
" />
<path d="M51612 25851
L51612 45748
" />
<path d="M51612 25851
L59187 25851
" />
<circle cx="69447.2" cy="35715.7" r="1181.1" /> 
<path d="M68659 38038
L67045 38038
" />
<path d="M67045 33392
L68659 33392
" />
<path d="M70234 33392
L71848 33392
" />
<path d="M70234 38038
L71848 38038
" />
<path d="M71848 38038
L71848 33392
" />
<path d="M72400 37211
L72518 37329
" />
<path d="M72518 37329
L72281 37329
" />
<path d="M72281 37329
L72400 37211
" />
<path d="M67045 38038
L67045 37093
" />
<path d="M67045 36227
L67045 35203
" />
<path d="M67045 34337
L67045 33392
" />
<path d="M69447 35912
L69447 35518
" />
<path d="M69644 35715
L69250 35715
" />
<path d="M78565 39538
L78565 43492
" />
<path d="M73746 42842
L73746 43492
" />
<path d="M73746 41858
L73746 42157
" />
<path d="M73746 40874
L73746 41173
" />
<path d="M73746 39538
L73746 40188
" />
<path d="M77015 43492
L78565 43492
" />
<path d="M73746 43492
L75296 43492
" />
<path d="M77015 39538
L78565 39538
" />
<path d="M73746 39538
L75296 39538
" />
<path d="M76257 31281
L76257 30690
" />
<path d="M75765 29706
L73993 29706
" />
<path d="M73501 30690
L73501 31281
" />
<path d="M73993 32265
L75765 32265
" />
<path d="M76257 28281
L76257 27690
" />
<path d="M75765 26706
L73993 26706
" />
<path d="M73501 27690
L73501 28281
" />
<path d="M73993 29265
L75765 29265
" />
<path d="M43891 40207
L45108 40207
" />
<circle cx="44500" cy="39200" r="984.252" /> 
<path d="M45108.2 40207.9 A1177.17 1177.17 0.0 0 0 44499.8 38022.8 " />
<path d="M44500.2 38022.8 A1177.17 1177.17 0.0 0 0 43891.8 40207.9 " />
<path d="M43891 36807
L45108 36807
" />
<circle cx="44500" cy="35800" r="984.252" /> 
<path d="M45108.2 36807.9 A1177.17 1177.17 0.0 0 0 44499.8 34622.8 " />
<path d="M44500.2 34622.8 A1177.17 1177.17 0.0 0 0 43891.8 36807.9 " />
<path d="M43891 33407
L45108 33407
" />
<circle cx="44500" cy="32400" r="984.252" /> 
<path d="M45108.2 33407.9 A1177.17 1177.17 0.0 0 0 44499.8 31222.8 " />
<path d="M44500.2 31222.8 A1177.17 1177.17 0.0 0 0 43891.8 33407.9 " />
</g>
<g style="fill:#000000; fill-opacity:0.0; 
stroke:#000000; stroke-width:59.0551; stroke-opacity:1; 
stroke-linecap:round; stroke-linejoin:round;">
<path d="M51875 25604
L51743 25416
" />
<path d="M51650 25604
L51650 25210
L51800 25210
L51837 25229
L51856 25247
L51875 25285
L51875 25341
L51856 25379
L51837 25397
L51800 25416
L51650 25416
" />
<path d="M52043 25397
L52175 25397
" />
<path d="M52231 25604
L52043 25604
L52043 25210
L52231 25210
" />
<path d="M52531 25397
L52400 25397
" />
<path d="M52400 25604
L52400 25210
L52587 25210
" />
<path d="M52793 25210
L52793 25304
" />
<path d="M52699 25266
L52793 25304
L52887 25266
" />
<path d="M52737 25379
L52793 25304
L52849 25379
" />
<path d="M53093 25210
L53093 25304
" />
<path d="M52999 25266
L53093 25304
L53187 25266
" />
<path d="M53037 25379
L53093 25304
L53149 25379
" />
<path d="M70772 38728
L70641 38541
" />
<path d="M70547 38728
L70547 38334
L70697 38334
L70735 38353
L70753 38372
L70772 38409
L70772 38466
L70753 38503
L70735 38522
L70697 38541
L70547 38541
" />
<path d="M70941 38522
L71072 38522
" />
<path d="M71128 38728
L70941 38728
L70941 38334
L71128 38334
" />
<path d="M71428 38522
L71297 38522
" />
<path d="M71297 38728
L71297 38334
L71485 38334
" />
<path d="M71691 38334
L71691 38428
" />
<path d="M71597 38391
L71691 38428
L71785 38391
" />
<path d="M71635 38503
L71691 38428
L71747 38503
" />
<path d="M71991 38334
L71991 38428
" />
<path d="M71897 38391
L71991 38428
L72085 38391
" />
<path d="M71935 38503
L71991 38428
L72047 38503
" />
<path d="M75256 38682
L75125 38494
" />
<path d="M75031 38682
L75031 38288
L75181 38288
L75219 38307
L75238 38325
L75256 38363
L75256 38419
L75238 38457
L75219 38475
L75181 38494
L75031 38494
" />
<path d="M75425 38475
L75556 38475
" />
<path d="M75613 38682
L75425 38682
L75425 38288
L75613 38288
" />
<path d="M75913 38475
L75781 38475
" />
<path d="M75781 38682
L75781 38288
L75969 38288
" />
<path d="M76175 38288
L76175 38382
" />
<path d="M76081 38344
L76175 38382
L76269 38344
" />
<path d="M76119 38457
L76175 38382
L76231 38457
" />
<path d="M76475 38288
L76475 38382
" />
<path d="M76381 38344
L76475 38382
L76569 38344
" />
<path d="M76419 38457
L76475 38382
L76531 38457
" />
<path d="M74354 29490
L74223 29303
" />
<path d="M74129 29490
L74129 29097
L74279 29097
L74317 29115
L74335 29134
L74354 29171
L74354 29228
L74335 29265
L74317 29284
L74279 29303
L74129 29303
" />
<path d="M74523 29284
L74654 29284
" />
<path d="M74710 29490
L74523 29490
L74523 29097
L74710 29097
" />
<path d="M75010 29284
L74879 29284
" />
<path d="M74879 29490
L74879 29097
L75067 29097
" />
<path d="M75273 29097
L75273 29190
" />
<path d="M75179 29153
L75273 29190
L75366 29153
" />
<path d="M75216 29265
L75273 29190
L75329 29265
" />
<path d="M75573 29097
L75573 29190
" />
<path d="M75479 29153
L75573 29190
L75666 29153
" />
<path d="M75516 29265
L75573 29190
L75629 29265
" />
<path d="M74354 26490
L74223 26303
" />
<path d="M74129 26490
L74129 26097
L74279 26097
L74317 26115
L74335 26134
L74354 26171
L74354 26228
L74335 26265
L74317 26284
L74279 26303
L74129 26303
" />
<path d="M74523 26284
L74654 26284
" />
<path d="M74710 26490
L74523 26490
L74523 26097
L74710 26097
" />
<path d="M75010 26284
L74879 26284
" />
<path d="M74879 26490
L74879 26097
L75067 26097
" />
<path d="M75273 26097
L75273 26190
" />
<path d="M75179 26153
L75273 26190
L75366 26153
" />
<path d="M75216 26265
L75273 26190
L75329 26265
" />
<path d="M75573 26097
L75573 26190
" />
<path d="M75479 26153
L75573 26190
L75666 26153
" />
<path d="M75516 26265
L75573 26190
L75629 26265
" />
<path d="M43119 39724
L42931 39856
" />
<path d="M43119 39949
L42725 39949
L42725 39799
L42744 39762
L42762 39743
L42800 39724
L42856 39724
L42894 39743
L42912 39762
L42931 39799
L42931 39949
" />
<path d="M42912 39556
L42912 39424
" />
<path d="M43119 39368
L43119 39556
L42725 39556
L42725 39368
" />
<path d="M42912 39068
L42912 39200
" />
<path d="M43119 39200
L42725 39200
L42725 39012
" />
<path d="M42725 38806
L42819 38806
" />
<path d="M42781 38900
L42819 38806
L42781 38712
" />
<path d="M42894 38862
L42819 38806
L42894 38750
" />
<path d="M42725 38506
L42819 38506
" />
<path d="M42781 38600
L42819 38506
L42781 38412
" />
<path d="M42894 38562
L42819 38506
L42894 38450
" />
<path d="M43119 36324
L42931 36456
" />
<path d="M43119 36549
L42725 36549
L42725 36399
L42744 36362
L42762 36343
L42800 36324
L42856 36324
L42894 36343
L42912 36362
L42931 36399
L42931 36549
" />
<path d="M42912 36156
L42912 36024
" />
<path d="M43119 35968
L43119 36156
L42725 36156
L42725 35968
" />
<path d="M42912 35668
L42912 35800
" />
<path d="M43119 35800
L42725 35800
L42725 35612
" />
<path d="M42725 35406
L42819 35406
" />
<path d="M42781 35500
L42819 35406
L42781 35312
" />
<path d="M42894 35462
L42819 35406
L42894 35350
" />
<path d="M42725 35106
L42819 35106
" />
<path d="M42781 35200
L42819 35106
L42781 35012
" />
<path d="M42894 35162
L42819 35106
L42894 35050
" />
<path d="M43119 32924
L42931 33056
" />
<path d="M43119 33149
L42725 33149
L42725 32999
L42744 32962
L42762 32943
L42800 32924
L42856 32924
L42894 32943
L42912 32962
L42931 32999
L42931 33149
" />
<path d="M42912 32756
L42912 32624
" />
<path d="M43119 32568
L43119 32756
L42725 32756
L42725 32568
" />
<path d="M42912 32268
L42912 32400
" />
<path d="M43119 32400
L42725 32400
L42725 32212
" />
<path d="M42725 32006
L42819 32006
" />
<path d="M42781 32100
L42819 32006
L42781 31912
" />
<path d="M42894 32062
L42819 32006
L42894 31950
" />
<path d="M42725 31706
L42819 31706
" />
<path d="M42781 31800
L42819 31706
L42781 31612
" />
<path d="M42894 31762
L42819 31706
L42894 31650
" />
</g>
<g style="fill:#000000; fill-opacity:0.0; 
stroke:#000000; stroke-width:39.3701; stroke-opacity:1; 
stroke-linecap:round; stroke-linejoin:round;">
<path d="M51659 33693
L51659 45701
" />
<path d="M51659 45701
L59140 45701
" />
<path d="M59140 25898
L59140 45701
" />
<path d="M51659 25898
L59140 25898
" />
<path d="M51659 32906
L51659 25898
" />
<path d="M52053 33300
L51659 32906
" />
<path d="M51659 33693
L52053 33300
" />
</g>
<g style="fill:#000000; fill-opacity:0.0; 
stroke:#000000; stroke-width:47.2441; stroke-opacity:1; 
stroke-linecap:round; stroke-linejoin:round;">
<circle cx="69447.2" cy="35715.7" r="1181.1" /> 
<path d="M71415 37999
L67085 37999
" />
<path d="M67085 37999
L67085 33432
" />
<path d="M67085 33432
L71809 33432
" />
<path d="M71809 33432
L71809 37566
" />
<path d="M71809 37566
L71415 37999
" />
<path d="M69447 36896
L69447 34534
" />
<path d="M70628 35715
L68266 35715
" />
</g>
<g style="fill:#000000; fill-opacity:0.0; 
stroke:#000000; stroke-width:39.3701; stroke-opacity:1; 
stroke-linecap:round; stroke-linejoin:round;">
<path d="M78518 39586
L73793 39586
" />
<path d="M78518 43444
L78518 39586
" />
<path d="M73793 43444
L78518 43444
" />
<path d="M73793 39586
L73793 43444
" />
<circle cx="76352.8" cy="41515.7" r="1181.1" /> 
<circle cx="74879.5" cy="30985.8" r="793.529" /> 
<path d="M73698 29804
L74879 29804
" />
<path d="M73698 32166
L73698 29804
" />
<path d="M76060 32166
L73698 32166
" />
<path d="M76060 29804
L76060 32166
" />
<path d="M74879 29804
L76060 29804
" />
<circle cx="74879.5" cy="27985.8" r="793.529" /> 
<path d="M73698 26804
L74879 26804
" />
<path d="M73698 29166
L73698 26804
" />
<path d="M76060 29166
L73698 29166
" />
<path d="M76060 26804
L76060 29166
" />
<path d="M74879 26804
L76060 26804
" />
<path d="M43921 40184
L45078 40184
" />
<circle cx="44500" cy="39200" r="984.252" /> 
<path d="M45078.6 40184.3 A1141.73 1141.73 0.0 1 0 43921.4 40184.3 " />
<path d="M43921 36784
L45078 36784
" />
<circle cx="44500" cy="35800" r="984.252" /> 
<path d="M45078.6 36784.3 A1141.73 1141.73 0.0 1 0 43921.4 36784.3 " />
<path d="M43921 33384
L45078 33384
" />
<circle cx="44500" cy="32400" r="984.252" /> 
<path d="M45078.6 33384.3 A1141.73 1141.73 0.0 1 0 43921.4 33384.3 " />
</g>
<g style="fill:#000000; fill-opacity:0.0; 
stroke:#000000; stroke-width:59.0551; stroke-opacity:1; 
stroke-linecap:round; stroke-linejoin:round;">
<path d="M83140 30040
L83122 30059
L83065 30078
L83028 30078
L82972 30059
L82934 30021
L82915 29984
L82897 29909
L82897 29853
L82915 29778
L82934 29740
L82972 29703
L83028 29684
L83065 29684
L83122 29703
L83140 29721
" />
<path d="M83534 30040
L83515 30059
L83459 30078
L83422 30078
L83365 30059
L83328 30021
L83309 29984
L83290 29909
L83290 29853
L83309 29778
L83328 29740
L83365 29703
L83422 29684
L83459 29684
L83515 29703
L83534 29721
" />
<path d="M83890 29684
L83703 29684
L83684 29871
L83703 29853
L83740 29834
L83834 29834
L83871 29853
L83890 29871
L83909 29909
L83909 30003
L83890 30040
L83871 30059
L83834 30078
L83740 30078
L83703 30059
L83684 30040
" />
<path d="M84246 29684
L84171 29684
L84134 29703
L84115 29721
L84078 29778
L84059 29853
L84059 30003
L84078 30040
L84096 30059
L84134 30078
L84209 30078
L84246 30059
L84265 30040
L84284 30003
L84284 29909
L84265 29871
L84246 29853
L84209 29834
L84134 29834
L84096 29853
L84078 29871
L84059 29909
" />
<path d="M84453 29928
L84753 29928
" />
<path d="M85146 30078
L84921 30078
" />
<path d="M85034 30078
L85034 29684
L84996 29740
L84959 29778
L84921 29796
" />
<path d="M85296 29721
L85315 29703
L85353 29684
L85446 29684
L85484 29703
L85503 29721
L85521 29759
L85521 29796
L85503 29853
L85278 30078
L85521 30078
" />
<path d="M85896 29703
L85859 29684
L85802 29684
L85746 29703
L85709 29740
L85690 29778
L85671 29853
L85671 29909
L85690 29984
L85709 30021
L85746 30059
L85802 30078
L85840 30078
L85896 30059
L85915 30040
L85915 29909
L85840 29909
" />
<path d="M86046 29684
L86140 30078
L86215 29796
L86290 30078
L86384 29684
" />
<path d="M86515 29965
L86702 29965
" />
<path d="M86477 30078
L86609 29684
L86740 30078
" />
<path d="M55075 36078
L54943 35890
" />
<path d="M54850 36078
L54850 35684
L55000 35684
L55037 35703
L55056 35721
L55075 35759
L55075 35815
L55056 35853
L55037 35871
L55000 35890
L54850 35890
" />
<path d="M55243 35871
L55375 35871
" />
<path d="M55431 36078
L55243 36078
L55243 35684
L55431 35684
" />
<path d="M55731 35871
L55600 35871
" />
<path d="M55600 36078
L55600 35684
L55787 35684
" />
<path d="M55993 35684
L55993 35778
" />
<path d="M55899 35740
L55993 35778
L56087 35740
" />
<path d="M55937 35853
L55993 35778
L56049 35853
" />
<path d="M56293 35684
L56293 35778
" />
<path d="M56199 35740
L56293 35778
L56387 35740
" />
<path d="M56237 35853
L56293 35778
L56349 35853
" />
<path d="M71710 24178
L71579 23990
" />
<path d="M71485 24178
L71485 23784
L71635 23784
L71673 23803
L71691 23821
L71710 23859
L71710 23915
L71691 23953
L71673 23971
L71635 23990
L71485 23990
" />
<path d="M71935 24178
L71898 24159
L71879 24140
L71860 24103
L71860 23990
L71879 23953
L71898 23934
L71935 23915
L71991 23915
L72029 23934
L72048 23953
L72066 23990
L72066 24103
L72048 24140
L72029 24159
L71991 24178
L71935 24178
" />
<path d="M72179 23915
L72329 23915
" />
<path d="M72235 23784
L72235 24121
L72254 24159
L72291 24178
L72329 24178
" />
<path d="M72629 24178
L72629 23971
L72610 23934
L72573 23915
L72498 23915
L72460 23934
" />
<path d="M72629 24159
L72591 24178
L72498 24178
L72460 24159
L72441 24121
L72441 24084
L72460 24046
L72498 24028
L72591 24028
L72629 24009
" />
<path d="M72816 24178
L72816 23915
" />
<path d="M72816 23990
L72835 23953
L72854 23934
L72891 23915
L72929 23915
" />
<path d="M73023 23915
L73116 24178
" />
<path d="M73210 23915
L73116 24178
L73079 24271
L73060 24290
L73023 24309
" />
<path d="M73360 23971
L73491 23971
" />
<path d="M73547 24178
L73360 24178
L73360 23784
L73547 23784
" />
<path d="M73716 23915
L73716 24178
" />
<path d="M73716 23953
L73735 23934
L73772 23915
L73829 23915
L73866 23934
L73885 23971
L73885 24178
" />
<path d="M74241 24159
L74204 24178
L74129 24178
L74091 24159
L74072 24140
L74054 24103
L74054 23990
L74072 23953
L74091 23934
L74129 23915
L74204 23915
L74241 23934
" />
<path d="M74466 24178
L74429 24159
L74410 24140
L74391 24103
L74391 23990
L74410 23953
L74429 23934
L74466 23915
L74522 23915
L74560 23934
L74579 23953
L74597 23990
L74597 24103
L74579 24140
L74560 24159
L74522 24178
L74466 24178
" />
<path d="M74935 24178
L74935 23784
" />
<path d="M74935 24159
L74897 24178
L74822 24178
L74785 24159
L74766 24140
L74747 24103
L74747 23990
L74766 23953
L74785 23934
L74822 23915
L74897 23915
L74935 23934
" />
<path d="M75272 24159
L75235 24178
L75160 24178
L75122 24159
L75104 24121
L75104 23971
L75122 23934
L75160 23915
L75235 23915
L75272 23934
L75291 23971
L75291 24009
L75104 24046
" />
<path d="M75460 24178
L75460 23915
" />
<path d="M75460 23990
L75479 23953
L75497 23934
L75535 23915
L75572 23915
" />
<path d="M75610 24215
L75910 24215
" />
<path d="M75985 24065
L76172 24065
" />
<path d="M75947 24178
L76078 23784
L76210 24178
" />
<path d="M76397 24178
L76360 24159
L76341 24121
L76341 23784
" />
<path d="M76547 23915
L76547 24309
" />
<path d="M76547 23934
L76585 23915
L76660 23915
L76697 23934
L76716 23953
L76735 23990
L76735 24103
L76716 24140
L76697 24159
L76660 24178
L76585 24178
L76547 24159
" />
<path d="M76885 24159
L76922 24178
L76997 24178
L77035 24159
L77053 24121
L77053 24103
L77035 24065
L76997 24046
L76941 24046
L76903 24028
L76885 23990
L76885 23971
L76903 23934
L76941 23915
L76997 23915
L77035 23934
" />
<path d="M77128 24215
L77428 24215
" />
<path d="M77522 23971
L77653 23971
" />
<path d="M77709 24178
L77522 24178
L77522 23784
L77709 23784
" />
<path d="M78103 24140
L78084 24159
L78028 24178
L77991 24178
L77934 24159
L77897 24121
L77878 24084
L77859 24009
L77859 23953
L77878 23878
L77897 23840
L77934 23803
L77991 23784
L78028 23784
L78084 23803
L78103 23821
" />
<path d="M78478 24178
L78253 24178
" />
<path d="M78366 24178
L78366 23784
L78328 23840
L78291 23878
L78253 23896
" />
<path d="M78853 24178
L78628 24178
" />
<path d="M78741 24178
L78741 23784
L78703 23840
L78666 23878
L78628 23896
" />
<path d="M79022 23971
L79153 23971
" />
<path d="M79209 24178
L79022 24178
L79022 23784
L79209 23784
" />
<path d="M79378 24028
L79678 24028
" />
<path d="M79847 24159
L79903 24178
L79997 24178
L80034 24159
L80053 24140
L80072 24103
L80072 24065
L80053 24028
L80034 24009
L79997 23990
L79922 23971
L79884 23953
L79865 23934
L79847 23896
L79847 23859
L79865 23821
L79884 23803
L79922 23784
L80015 23784
L80072 23803
" />
<path d="M80203 23915
L80278 24178
L80353 23990
L80428 24178
L80503 23915
" />
<path d="M80653 24178
L80653 23915
" />
<path d="M80653 23784
L80634 23803
L80653 23821
L80672 23803
L80653 23784
L80653 23821
" />
<path d="M80784 23915
L80934 23915
" />
<path d="M80840 23784
L80840 24121
L80859 24159
L80897 24178
L80934 24178
" />
<path d="M81234 24159
L81197 24178
L81122 24178
L81084 24159
L81065 24140
L81047 24103
L81047 23990
L81065 23953
L81084 23934
L81122 23915
L81197 23915
L81234 23934
" />
<path d="M81403 24178
L81403 23784
" />
<path d="M81571 24178
L81571 23971
L81553 23934
L81515 23915
L81459 23915
L81422 23934
L81403 23953
" />
<path d="M81665 24215
L81965 24215
" />
<path d="M82003 23784
L82134 24178
L82265 23784
" />
<path d="M82546 24159
L82509 24178
L82434 24178
L82396 24159
L82378 24121
L82378 23971
L82396 23934
L82434 23915
L82509 23915
L82546 23934
L82565 23971
L82565 24009
L82378 24046
" />
<path d="M82734 24178
L82734 23915
" />
<path d="M82734 23990
L82753 23953
L82771 23934
L82809 23915
L82846 23915
" />
<path d="M82921 23915
L83071 23915
" />
<path d="M82978 23784
L82978 24121
L82996 24159
L83034 24178
L83071 24178
" />
<path d="M83203 24178
L83203 23915
" />
<path d="M83203 23784
L83184 23803
L83203 23821
L83221 23803
L83203 23784
L83203 23821
" />
<path d="M83559 24159
L83521 24178
L83446 24178
L83409 24159
L83390 24140
L83371 24103
L83371 23990
L83390 23953
L83409 23934
L83446 23915
L83521 23915
L83559 23934
" />
<path d="M83896 24178
L83896 23971
L83877 23934
L83840 23915
L83765 23915
L83727 23934
" />
<path d="M83896 24159
L83859 24178
L83765 24178
L83727 24159
L83709 24121
L83709 24084
L83727 24046
L83765 24028
L83859 24028
L83896 24009
" />
<path d="M84140 24178
L84102 24159
L84084 24121
L84084 23784
" />
<path d="M84196 24215
L84496 24215
" />
<path d="M84590 24178
L84590 23784
" />
<path d="M84590 23971
L84815 23971
" />
<path d="M84815 24178
L84815 23784
" />
<path d="M84984 23821
L85002 23803
L85040 23784
L85134 23784
L85171 23803
L85190 23821
L85209 23859
L85209 23896
L85190 23953
L84965 24178
L85209 24178
" />
<path d="M85452 23784
L85490 23784
L85527 23803
L85546 23821
L85565 23859
L85583 23934
L85583 24028
L85565 24103
L85546 24140
L85527 24159
L85490 24178
L85452 24178
L85415 24159
L85396 24140
L85377 24103
L85359 24028
L85359 23934
L85377 23859
L85396 23821
L85415 23803
L85452 23784
" />
<path d="M85752 24178
L85752 23915
" />
<path d="M85752 23953
L85771 23934
L85808 23915
L85865 23915
L85902 23934
L85921 23971
L85921 24178
" />
<path d="M85921 23971
L85940 23934
L85977 23915
L86033 23915
L86071 23934
L86090 23971
L86090 24178
" />
<path d="M86277 24178
L86277 23915
" />
<path d="M86277 23953
L86296 23934
L86333 23915
L86390 23915
L86427 23934
L86446 23971
L86446 24178
" />
<path d="M86446 23971
L86465 23934
L86502 23915
L86558 23915
L86596 23934
L86615 23971
L86615 24178
" />
<path d="M86708 24215
L87008 24215
" />
<path d="M87327 24140
L87308 24159
L87252 24178
L87215 24178
L87158 24159
L87121 24121
L87102 24084
L87083 24009
L87083 23953
L87102 23878
L87121 23840
L87158 23803
L87215 23784
L87252 23784
L87308 23803
L87327 23821
" />
<path d="M87496 24178
L87496 23915
" />
<path d="M87496 23784
L87477 23803
L87496 23821
L87514 23803
L87496 23784
L87496 23821
" />
<path d="M87683 24178
L87683 23915
" />
<path d="M87683 23990
L87702 23953
L87721 23934
L87758 23915
L87796 23915
" />
<path d="M88096 24159
L88058 24178
L87983 24178
L87946 24159
L87927 24140
L87908 24103
L87908 23990
L87927 23953
L87946 23934
L87983 23915
L88058 23915
L88096 23934
" />
<path d="M88433 23915
L88433 24178
" />
<path d="M88264 23915
L88264 24121
L88283 24159
L88321 24178
L88377 24178
L88414 24159
L88433 24140
" />
<path d="M88677 24178
L88639 24159
L88621 24121
L88621 23784
" />
<path d="M88996 24178
L88996 23971
L88977 23934
L88939 23915
L88864 23915
L88827 23934
" />
<path d="M88996 24159
L88958 24178
L88864 24178
L88827 24159
L88808 24121
L88808 24084
L88827 24046
L88864 24028
L88958 24028
L88996 24009
" />
<path d="M89183 24178
L89183 23915
" />
<path d="M89183 23990
L89202 23953
L89221 23934
L89258 23915
L89296 23915
" />
<path d="M89427 24178
L89427 23784
L89558 24065
L89689 23784
L89689 24178
" />
<path d="M89933 24178
L89895 24159
L89877 24140
L89858 24103
L89858 23990
L89877 23953
L89895 23934
L89933 23915
L89989 23915
L90027 23934
L90045 23953
L90064 23990
L90064 24103
L90045 24140
L90027 24159
L89989 24178
L89933 24178
" />
<path d="M90402 23915
L90402 24178
" />
<path d="M90233 23915
L90233 24121
L90252 24159
L90289 24178
L90345 24178
L90383 24159
L90402 24140
" />
<path d="M90589 23915
L90589 24178
" />
<path d="M90589 23953
L90608 23934
L90645 23915
L90702 23915
L90739 23934
L90758 23971
L90758 24178
" />
<path d="M90889 23915
L91039 23915
" />
<path d="M90945 23784
L90945 24121
L90964 24159
L91002 24178
L91039 24178
" />
<path d="M91170 24178
L91170 23915
" />
<path d="M91170 23784
L91152 23803
L91170 23821
L91189 23803
L91170 23784
L91170 23821
" />
<path d="M91358 23915
L91358 24178
" />
<path d="M91358 23953
L91377 23934
L91414 23915
L91470 23915
L91508 23934
L91526 23971
L91526 24178
" />
<path d="M91883 23915
L91883 24234
L91864 24271
L91845 24290
L91808 24309
L91751 24309
L91714 24290
" />
<path d="M91883 24159
L91845 24178
L91770 24178
L91733 24159
L91714 24140
L91695 24103
L91695 23990
L91714 23953
L91733 23934
L91770 23915
L91845 23915
L91883 23934
" />
<path d="M92070 24178
L92070 23784
" />
<path d="M92070 23971
L92295 23971
" />
<path d="M92295 24178
L92295 23784
" />
<path d="M92539 24178
L92501 24159
L92483 24140
L92464 24103
L92464 23990
L92483 23953
L92501 23934
L92539 23915
L92595 23915
L92633 23934
L92651 23953
L92670 23990
L92670 24103
L92651 24140
L92633 24159
L92595 24178
L92539 24178
" />
<path d="M92895 24178
L92858 24159
L92839 24121
L92839 23784
" />
<path d="M93195 24159
L93158 24178
L93083 24178
L93045 24159
L93026 24121
L93026 23971
L93045 23934
L93083 23915
L93158 23915
L93195 23934
L93214 23971
L93214 24009
L93026 24046
" />
<path d="M93364 24159
L93401 24178
L93476 24178
L93514 24159
L93532 24121
L93532 24103
L93514 24065
L93476 24046
L93420 24046
L93383 24028
L93364 23990
L93364 23971
L93383 23934
L93420 23915
L93476 23915
L93514 23934
" />
<path d="M67504 34397
L67373 34210
" />
<path d="M67280 34397
L67280 34004
L67429 34004
L67467 34022
L67486 34041
L67504 34079
L67504 34135
L67486 34172
L67467 34191
L67429 34210
L67280 34210
" />
<path d="M67673 34191
L67804 34191
" />
<path d="M67861 34397
L67673 34397
L67673 34004
L67861 34004
" />
<path d="M68161 34191
L68029 34191
" />
<path d="M68029 34397
L68029 34004
L68217 34004
" />
<path d="M68423 34004
L68423 34097
" />
<path d="M68329 34060
L68423 34097
L68517 34060
" />
<path d="M68367 34172
L68423 34097
L68479 34172
" />
<path d="M68723 34004
L68723 34097
" />
<path d="M68629 34060
L68723 34097
L68817 34060
" />
<path d="M68667 34172
L68723 34097
L68779 34172
" />
<path d="M77941 28178
L77941 27784
L78091 27784
L78128 27803
L78147 27821
L78166 27859
L78166 27915
L78147 27953
L78128 27971
L78091 27990
L77941 27990
" />
<path d="M78391 28178
L78353 28159
L78335 28140
L78316 28103
L78316 27990
L78335 27953
L78353 27934
L78391 27915
L78447 27915
L78485 27934
L78503 27953
L78522 27990
L78522 28103
L78503 28140
L78485 28159
L78447 28178
L78391 28178
" />
<path d="M78635 27915
L78785 27915
" />
<path d="M78691 27784
L78691 28121
L78710 28159
L78747 28178
L78785 28178
" />
<path d="M79066 28159
L79028 28178
L78953 28178
L78916 28159
L78897 28121
L78897 27971
L78916 27934
L78953 27915
L79028 27915
L79066 27934
L79085 27971
L79085 28009
L78897 28046
" />
<path d="M79253 27915
L79253 28178
" />
<path d="M79253 27953
L79272 27934
L79309 27915
L79366 27915
L79403 27934
L79422 27971
L79422 28178
" />
<path d="M79553 27915
L79703 27915
" />
<path d="M79609 27784
L79609 28121
L79628 28159
L79666 28178
L79703 28178
" />
<path d="M79834 28178
L79834 27915
" />
<path d="M79834 27784
L79816 27803
L79834 27821
L79853 27803
L79834 27784
L79834 27821
" />
<path d="M80078 28178
L80041 28159
L80022 28140
L80003 28103
L80003 27990
L80022 27953
L80041 27934
L80078 27915
L80134 27915
L80172 27934
L80191 27953
L80209 27990
L80209 28103
L80191 28140
L80172 28159
L80134 28178
L80078 28178
" />
<path d="M80378 28178
L80378 27915
" />
<path d="M80378 27953
L80397 27934
L80434 27915
L80491 27915
L80528 27934
L80547 27971
L80547 28178
" />
<path d="M80547 27971
L80566 27934
L80603 27915
L80659 27915
L80697 27934
L80716 27971
L80716 28178
" />
<path d="M81053 28159
L81016 28178
L80941 28178
L80903 28159
L80884 28121
L80884 27971
L80903 27934
L80941 27915
L81016 27915
L81053 27934
L81072 27971
L81072 28009
L80884 28046
" />
<path d="M81184 27915
L81334 27915
" />
<path d="M81240 27784
L81240 28121
L81259 28159
L81297 28178
L81334 28178
" />
<path d="M81615 28159
L81578 28178
L81503 28178
L81465 28159
L81447 28121
L81447 27971
L81465 27934
L81503 27915
L81578 27915
L81615 27934
L81634 27971
L81634 28009
L81447 28046
" />
<path d="M81803 28178
L81803 27915
" />
<path d="M81803 27990
L81822 27953
L81840 27934
L81878 27915
L81915 27915
" />
<path d="M81953 28215
L82253 28215
" />
<path d="M82328 28065
L82515 28065
" />
<path d="M82290 28178
L82422 27784
L82553 28178
" />
<path d="M82740 28178
L82703 28159
L82684 28121
L82684 27784
" />
<path d="M82890 27915
L82890 28309
" />
<path d="M82890 27934
L82928 27915
L83003 27915
L83040 27934
L83059 27953
L83078 27990
L83078 28103
L83059 28140
L83040 28159
L83003 28178
L82928 28178
L82890 28159
" />
<path d="M83228 28159
L83265 28178
L83340 28178
L83378 28159
L83396 28121
L83396 28103
L83378 28065
L83340 28046
L83284 28046
L83246 28028
L83228 27990
L83228 27971
L83246 27934
L83284 27915
L83340 27915
L83378 27934
" />
<path d="M83471 28215
L83771 28215
" />
<path d="M84090 28178
L83959 27990
" />
<path d="M83865 28178
L83865 27784
L84015 27784
L84053 27803
L84071 27821
L84090 27859
L84090 27915
L84071 27953
L84053 27971
L84015 27990
L83865 27990
" />
<path d="M84259 28178
L84259 27784
" />
<path d="M84484 28178
L84315 27953
" />
<path d="M84484 27784
L84259 28009
" />
<path d="M84728 27784
L84765 27784
L84803 27803
L84821 27821
L84840 27859
L84859 27934
L84859 28028
L84840 28103
L84821 28140
L84803 28159
L84765 28178
L84728 28178
L84690 28159
L84671 28140
L84653 28103
L84634 28028
L84634 27934
L84653 27859
L84671 27821
L84690 27803
L84728 27784
" />
<path d="M85046 28178
L85121 28178
L85159 28159
L85177 28140
L85215 28084
L85234 28009
L85234 27859
L85215 27821
L85196 27803
L85159 27784
L85084 27784
L85046 27803
L85028 27821
L85009 27859
L85009 27953
L85028 27990
L85046 28009
L85084 28028
L85159 28028
L85196 28009
L85215 27990
L85234 27953
" />
<path d="M85402 28178
L85402 27784
" />
<path d="M85627 28178
L85459 27953
" />
<path d="M85627 27784
L85402 28009
" />
<path d="M85702 28215
L86002 28215
" />
<path d="M86077 28159
L86134 28178
L86227 28178
L86265 28159
L86284 28140
L86302 28103
L86302 28065
L86284 28028
L86265 28009
L86227 27990
L86152 27971
L86115 27953
L86096 27934
L86077 27896
L86077 27859
L86096 27821
L86115 27803
L86152 27784
L86246 27784
L86302 27803
" />
<path d="M86471 28178
L86471 27915
" />
<path d="M86471 27784
L86452 27803
L86471 27821
L86490 27803
L86471 27784
L86471 27821
" />
<path d="M86659 27915
L86659 28178
" />
<path d="M86659 27953
L86677 27934
L86715 27915
L86771 27915
L86809 27934
L86827 27971
L86827 28178
" />
<path d="M87183 27915
L87183 28234
L87165 28271
L87146 28290
L87108 28309
L87052 28309
L87015 28290
" />
<path d="M87183 28159
L87146 28178
L87071 28178
L87034 28159
L87015 28140
L86996 28103
L86996 27990
L87015 27953
L87034 27934
L87071 27915
L87146 27915
L87183 27934
" />
<path d="M87427 28178
L87390 28159
L87371 28121
L87371 27784
" />
<path d="M87727 28159
L87690 28178
L87615 28178
L87577 28159
L87558 28121
L87558 27971
L87577 27934
L87615 27915
L87690 27915
L87727 27934
L87746 27971
L87746 28009
L87558 28046
" />
<path d="M87821 28215
L88121 28215
" />
<path d="M88158 27784
L88290 28178
L88421 27784
" />
<path d="M88702 28159
L88665 28178
L88590 28178
L88552 28159
L88533 28121
L88533 27971
L88552 27934
L88590 27915
L88665 27915
L88702 27934
L88721 27971
L88721 28009
L88533 28046
" />
<path d="M88890 28178
L88890 27915
" />
<path d="M88890 27990
L88908 27953
L88927 27934
L88965 27915
L89002 27915
" />
<path d="M89077 27915
L89227 27915
" />
<path d="M89133 27784
L89133 28121
L89152 28159
L89189 28178
L89227 28178
" />
<path d="M89358 28178
L89358 27915
" />
<path d="M89358 27784
L89339 27803
L89358 27821
L89377 27803
L89358 27784
L89358 27821
" />
<path d="M89714 28159
L89677 28178
L89602 28178
L89564 28159
L89546 28140
L89527 28103
L89527 27990
L89546 27953
L89564 27934
L89602 27915
L89677 27915
L89714 27934
" />
<path d="M90052 28178
L90052 27971
L90033 27934
L89996 27915
L89921 27915
L89883 27934
" />
<path d="M90052 28159
L90014 28178
L89921 28178
L89883 28159
L89864 28121
L89864 28084
L89883 28046
L89921 28028
L90014 28028
L90052 28009
" />
<path d="M90296 28178
L90258 28159
L90239 28121
L90239 27784
" />
<path d="M74365 42040
L74178 42171
" />
<path d="M74365 42265
L73971 42265
L73971 42115
L73990 42078
L74009 42059
L74046 42040
L74103 42040
L74140 42059
L74159 42078
L74178 42115
L74178 42265
" />
<path d="M74159 41871
L74159 41740
" />
<path d="M74365 41684
L74365 41871
L73971 41871
L73971 41684
" />
<path d="M74159 41384
L74159 41515
" />
<path d="M74365 41515
L73971 41515
L73971 41328
" />
<path d="M73971 41122
L74065 41122
" />
<path d="M74028 41215
L74065 41122
L74028 41028
" />
<path d="M74140 41178
L74065 41122
L74140 41065
" />
<path d="M73971 40822
L74065 40822
" />
<path d="M74028 40915
L74065 40822
L74028 40728
" />
<path d="M74140 40878
L74065 40822
L74140 40765
" />
<path d="M80884 26559
L80941 26578
L81034 26578
L81072 26559
L81091 26540
L81109 26503
L81109 26465
L81091 26428
L81072 26409
L81034 26390
L80959 26371
L80922 26353
L80903 26334
L80884 26296
L80884 26259
L80903 26221
L80922 26203
L80959 26184
L81053 26184
L81109 26203
" />
<path d="M81240 26184
L81334 26578
L81409 26296
L81484 26578
L81578 26184
" />
<path d="M81634 26615
L81934 26615
" />
<path d="M82028 26578
L82028 26184
L82178 26184
L82215 26203
L82234 26221
L82253 26259
L82253 26315
L82234 26353
L82215 26371
L82178 26390
L82028 26390
" />
<path d="M82422 26184
L82422 26503
L82440 26540
L82459 26559
L82497 26578
L82572 26578
L82609 26559
L82628 26540
L82647 26503
L82647 26184
" />
<path d="M82815 26559
L82872 26578
L82965 26578
L83003 26559
L83022 26540
L83040 26503
L83040 26465
L83022 26428
L83003 26409
L82965 26390
L82890 26371
L82853 26353
L82834 26334
L82815 26296
L82815 26259
L82834 26221
L82853 26203
L82890 26184
L82984 26184
L83040 26203
" />
<path d="M83209 26578
L83209 26184
" />
<path d="M83209 26371
L83434 26371
" />
<path d="M83434 26578
L83434 26184
" />
<path d="M83528 26615
L83828 26615
" />
<path d="M84090 26184
L84015 26184
L83978 26203
L83959 26221
L83921 26278
L83903 26353
L83903 26503
L83921 26540
L83940 26559
L83978 26578
L84053 26578
L84090 26559
L84109 26540
L84128 26503
L84128 26409
L84109 26371
L84090 26353
L84053 26334
L83978 26334
L83940 26353
L83921 26371
L83903 26409
" />
<path d="M84296 26578
L84296 26315
" />
<path d="M84296 26353
L84315 26334
L84353 26315
L84409 26315
L84446 26334
L84465 26371
L84465 26578
" />
<path d="M84465 26371
L84484 26334
L84521 26315
L84578 26315
L84615 26334
L84634 26371
L84634 26578
" />
<path d="M84821 26578
L84821 26315
" />
<path d="M84821 26353
L84840 26334
L84878 26315
L84934 26315
L84971 26334
L84990 26371
L84990 26578
" />
<path d="M84990 26371
L85009 26334
L85046 26315
L85102 26315
L85140 26334
L85159 26371
L85159 26578
" />
<path d="M85252 26615
L85552 26615
" />
<path d="M85646 26578
L85646 26184
" />
<path d="M85646 26371
L85871 26371
" />
<path d="M85871 26578
L85871 26184
" />
<path d="M86246 26184
L86059 26184
L86040 26371
L86059 26353
L86096 26334
L86190 26334
L86227 26353
L86246 26371
L86265 26409
L86265 26503
L86246 26540
L86227 26559
L86190 26578
L86096 26578
L86059 26559
L86040 26540
" />
<path d="M86434 26578
L86434 26315
" />
<path d="M86434 26353
L86452 26334
L86490 26315
L86546 26315
L86584 26334
L86602 26371
L86602 26578
" />
<path d="M86602 26371
L86621 26334
L86659 26315
L86715 26315
L86752 26334
L86771 26371
L86771 26578
" />
<path d="M86959 26578
L86959 26315
" />
<path d="M86959 26353
L86977 26334
L87015 26315
L87071 26315
L87108 26334
L87127 26371
L87127 26578
" />
<path d="M87127 26371
L87146 26334
L87183 26315
L87240 26315
L87277 26334
L87296 26371
L87296 26578
" />
<path d="M74354 31163
L74223 30976
" />
<path d="M74129 31163
L74129 30770
L74279 30770
L74317 30788
L74335 30807
L74354 30845
L74354 30901
L74335 30938
L74317 30957
L74279 30976
L74129 30976
" />
<path d="M74523 30957
L74654 30957
" />
<path d="M74710 31163
L74523 31163
L74523 30770
L74710 30770
" />
<path d="M75010 30957
L74879 30957
" />
<path d="M74879 31163
L74879 30770
L75067 30770
" />
<path d="M75273 30770
L75273 30863
" />
<path d="M75179 30826
L75273 30863
L75366 30826
" />
<path d="M75216 30938
L75273 30863
L75329 30938
" />
<path d="M75573 30770
L75573 30863
" />
<path d="M75479 30826
L75573 30863
L75666 30826
" />
<path d="M75516 30938
L75573 30863
L75629 30938
" />
<path d="M80484 25359
L80541 25378
L80634 25378
L80672 25359
L80691 25340
L80709 25303
L80709 25265
L80691 25228
L80672 25209
L80634 25190
L80559 25171
L80522 25153
L80503 25134
L80484 25096
L80484 25059
L80503 25021
L80522 25003
L80559 24984
L80653 24984
L80709 25003
" />
<path d="M80840 24984
L80934 25378
L81009 25096
L81084 25378
L81178 24984
" />
<path d="M81234 25415
L81534 25415
" />
<path d="M81628 25378
L81628 24984
L81778 24984
L81815 25003
L81834 25021
L81853 25059
L81853 25115
L81834 25153
L81815 25171
L81778 25190
L81628 25190
" />
<path d="M82022 24984
L82022 25303
L82040 25340
L82059 25359
L82097 25378
L82172 25378
L82209 25359
L82228 25340
L82247 25303
L82247 24984
" />
<path d="M82415 25359
L82472 25378
L82565 25378
L82603 25359
L82622 25340
L82640 25303
L82640 25265
L82622 25228
L82603 25209
L82565 25190
L82490 25171
L82453 25153
L82434 25134
L82415 25096
L82415 25059
L82434 25021
L82453 25003
L82490 24984
L82584 24984
L82640 25003
" />
<path d="M82809 25378
L82809 24984
" />
<path d="M82809 25171
L83034 25171
" />
<path d="M83034 25378
L83034 24984
" />
<path d="M83128 25415
L83428 25415
" />
<path d="M83690 24984
L83615 24984
L83578 25003
L83559 25021
L83521 25078
L83503 25153
L83503 25303
L83521 25340
L83540 25359
L83578 25378
L83653 25378
L83690 25359
L83709 25340
L83728 25303
L83728 25209
L83709 25171
L83690 25153
L83653 25134
L83578 25134
L83540 25153
L83521 25171
L83503 25209
" />
<path d="M83896 25378
L83896 25115
" />
<path d="M83896 25153
L83915 25134
L83953 25115
L84009 25115
L84046 25134
L84065 25171
L84065 25378
" />
<path d="M84065 25171
L84084 25134
L84121 25115
L84178 25115
L84215 25134
L84234 25171
L84234 25378
" />
<path d="M84421 25378
L84421 25115
" />
<path d="M84421 25153
L84440 25134
L84478 25115
L84534 25115
L84571 25134
L84590 25171
L84590 25378
" />
<path d="M84590 25171
L84609 25134
L84646 25115
L84702 25115
L84740 25134
L84759 25171
L84759 25378
" />
<path d="M84852 25415
L85152 25415
" />
<path d="M85246 25378
L85246 24984
" />
<path d="M85246 25171
L85471 25171
" />
<path d="M85471 25378
L85471 24984
" />
<path d="M85846 24984
L85659 24984
L85640 25171
L85659 25153
L85696 25134
L85790 25134
L85827 25153
L85846 25171
L85865 25209
L85865 25303
L85846 25340
L85827 25359
L85790 25378
L85696 25378
L85659 25359
L85640 25340
" />
<path d="M86034 25378
L86034 25115
" />
<path d="M86034 25153
L86052 25134
L86090 25115
L86146 25115
L86184 25134
L86202 25171
L86202 25378
" />
<path d="M86202 25171
L86221 25134
L86259 25115
L86315 25115
L86352 25134
L86371 25171
L86371 25378
" />
<path d="M86559 25378
L86559 25115
" />
<path d="M86559 25153
L86577 25134
L86615 25115
L86671 25115
L86708 25134
L86727 25171
L86727 25378
" />
<path d="M86727 25171
L86746 25134
L86783 25115
L86840 25115
L86877 25134
L86896 25171
L86896 25378
" />
<path d="M74354 28163
L74223 27976
" />
<path d="M74129 28163
L74129 27770
L74279 27770
L74317 27788
L74335 27807
L74354 27845
L74354 27901
L74335 27938
L74317 27957
L74279 27976
L74129 27976
" />
<path d="M74523 27957
L74654 27957
" />
<path d="M74710 28163
L74523 28163
L74523 27770
L74710 27770
" />
<path d="M75010 27957
L74879 27957
" />
<path d="M74879 28163
L74879 27770
L75067 27770
" />
<path d="M75273 27770
L75273 27863
" />
<path d="M75179 27826
L75273 27863
L75366 27826
" />
<path d="M75216 27938
L75273 27863
L75329 27938
" />
<path d="M75573 27770
L75573 27863
" />
<path d="M75479 27826
L75573 27863
L75666 27826
" />
<path d="M75516 27938
L75573 27863
L75629 27938
" />
<path d="M91078 32193
L91078 32381
L90684 32381
" />
<path d="M90871 32062
L90871 31931
" />
<path d="M91078 31874
L91078 32062
L90684 32062
L90684 31874
" />
<path d="M91078 31706
L90684 31706
L90684 31612
L90703 31556
L90740 31518
L90778 31499
L90853 31481
L90909 31481
L90984 31499
L91021 31518
L91059 31556
L91078 31612
L91078 31706
" />
<path d="M91115 31406
L91115 31106
" />
<path d="M91078 31012
L90684 31012
L90684 30918
L90703 30862
L90740 30824
L90778 30806
L90853 30787
L90909 30787
L90984 30806
L91021 30824
L91059 30862
L91078 30918
L91078 31012
" />
<path d="M90684 30431
L90684 30618
L90871 30637
L90853 30618
L90834 30581
L90834 30487
L90853 30450
L90871 30431
L90909 30412
L91003 30412
L91040 30431
L91059 30450
L91078 30487
L91078 30581
L91059 30618
L91040 30637
" />
<path d="M91040 30243
L91059 30225
L91078 30243
L91059 30262
L91040 30243
L91078 30243
" />
<path d="M90684 29981
L90684 29943
L90703 29906
L90721 29887
L90759 29868
L90834 29850
L90928 29850
L91003 29868
L91040 29887
L91059 29906
L91078 29943
L91078 29981
L91059 30018
L91040 30037
L91003 30056
L90928 30075
L90834 30075
L90759 30056
L90721 30037
L90703 30018
L90684 29981
" />
<path d="M91078 29681
L90815 29681
" />
<path d="M90853 29681
L90834 29662
L90815 29625
L90815 29568
L90834 29531
L90871 29512
L91078 29512
" />
<path d="M90871 29512
L90834 29493
L90815 29456
L90815 29400
L90834 29362
L90871 29343
L91078 29343
" />
<path d="M91078 29156
L90815 29156
" />
<path d="M90853 29156
L90834 29137
L90815 29100
L90815 29043
L90834 29006
L90871 28987
L91078 28987
" />
<path d="M90871 28987
L90834 28968
L90815 28931
L90815 28875
L90834 28837
L90871 28818
L91078 28818
" />
</g>
<g style="fill:#000000; fill-opacity:0.0; 
stroke:#000000; stroke-width:78.7402; stroke-opacity:1; 
stroke-linecap:round; stroke-linejoin:round;">
<path d="M44642 39627
L44492 39732
" />
<path d="M44642 39807
L44327 39807
L44327 39687
L44342 39657
L44357 39642
L44387 39627
L44432 39627
L44462 39642
L44477 39657
L44492 39687
L44492 39807
" />
<path d="M44477 39492
L44477 39387
" />
<path d="M44642 39342
L44642 39492
L44327 39492
L44327 39342
" />
<path d="M44477 39102
L44477 39207
" />
<path d="M44642 39207
L44327 39207
L44327 39057
" />
<path d="M44327 38892
L44402 38892
" />
<path d="M44372 38967
L44402 38892
L44372 38817
" />
<path d="M44462 38937
L44402 38892
L44462 38847
" />
<path d="M44327 38652
L44402 38652
" />
<path d="M44372 38727
L44402 38652
L44372 38577
" />
<path d="M44462 38697
L44402 38652
L44462 38607
" />
</g>
<g style="fill:#000000; fill-opacity:0.0; 
stroke:#000000; stroke-width:59.0551; stroke-opacity:1; 
stroke-linecap:round; stroke-linejoin:round;">
<path d="M89978 32093
L89978 32281
L89584 32281
" />
<path d="M89771 31962
L89771 31831
" />
<path d="M89978 31774
L89978 31962
L89584 31962
L89584 31774
" />
<path d="M89978 31606
L89584 31606
L89584 31512
L89603 31456
L89640 31418
L89678 31399
L89753 31381
L89809 31381
L89884 31399
L89921 31418
L89959 31456
L89978 31512
L89978 31606
" />
<path d="M90015 31306
L90015 31006
" />
<path d="M89978 30912
L89584 30912
L89584 30818
L89603 30762
L89640 30724
L89678 30706
L89753 30687
L89809 30687
L89884 30706
L89921 30724
L89959 30762
L89978 30818
L89978 30912
" />
<path d="M89584 30331
L89584 30518
L89771 30537
L89753 30518
L89734 30481
L89734 30387
L89753 30350
L89771 30331
L89809 30312
L89903 30312
L89940 30331
L89959 30350
L89978 30387
L89978 30481
L89959 30518
L89940 30537
" />
<path d="M89940 30143
L89959 30125
L89978 30143
L89959 30162
L89940 30143
L89978 30143
" />
<path d="M89584 29881
L89584 29843
L89603 29806
L89621 29787
L89659 29768
L89734 29750
L89828 29750
L89903 29768
L89940 29787
L89959 29806
L89978 29843
L89978 29881
L89959 29918
L89940 29937
L89903 29956
L89828 29975
L89734 29975
L89659 29956
L89621 29937
L89603 29918
L89584 29881
" />
<path d="M89978 29581
L89715 29581
" />
<path d="M89753 29581
L89734 29562
L89715 29525
L89715 29468
L89734 29431
L89771 29412
L89978 29412
" />
<path d="M89771 29412
L89734 29393
L89715 29356
L89715 29300
L89734 29262
L89771 29243
L89978 29243
" />
<path d="M89978 29056
L89715 29056
" />
<path d="M89753 29056
L89734 29037
L89715 29000
L89715 28943
L89734 28906
L89771 28887
L89978 28887
" />
<path d="M89771 28887
L89734 28868
L89715 28831
L89715 28775
L89734 28737
L89771 28718
L89978 28718
" />
</g>
<g style="fill:#000000; fill-opacity:0.0; 
stroke:#000000; stroke-width:78.7402; stroke-opacity:1; 
stroke-linecap:round; stroke-linejoin:round;">
<path d="M44642 36227
L44492 36332
" />
<path d="M44642 36407
L44327 36407
L44327 36287
L44342 36257
L44357 36242
L44387 36227
L44432 36227
L44462 36242
L44477 36257
L44492 36287
L44492 36407
" />
<path d="M44477 36092
L44477 35987
" />
<path d="M44642 35942
L44642 36092
L44327 36092
L44327 35942
" />
<path d="M44477 35702
L44477 35807
" />
<path d="M44642 35807
L44327 35807
L44327 35657
" />
<path d="M44327 35492
L44402 35492
" />
<path d="M44372 35567
L44402 35492
L44372 35417
" />
<path d="M44462 35537
L44402 35492
L44462 35447
" />
<path d="M44327 35252
L44402 35252
" />
<path d="M44372 35327
L44402 35252
L44372 35177
" />
<path d="M44462 35297
L44402 35252
L44462 35207
" />
</g>
<g style="fill:#000000; fill-opacity:0.0; 
stroke:#000000; stroke-width:59.0551; stroke-opacity:1; 
stroke-linecap:round; stroke-linejoin:round;">
<path d="M89178 32093
L89178 32281
L88784 32281
" />
<path d="M88971 31962
L88971 31831
" />
<path d="M89178 31774
L89178 31962
L88784 31962
L88784 31774
" />
<path d="M89178 31606
L88784 31606
L88784 31512
L88803 31456
L88840 31418
L88878 31399
L88953 31381
L89009 31381
L89084 31399
L89121 31418
L89159 31456
L89178 31512
L89178 31606
" />
<path d="M89215 31306
L89215 31006
" />
<path d="M89178 30912
L88784 30912
L88784 30818
L88803 30762
L88840 30724
L88878 30706
L88953 30687
L89009 30687
L89084 30706
L89121 30724
L89159 30762
L89178 30818
L89178 30912
" />
<path d="M88784 30331
L88784 30518
L88971 30537
L88953 30518
L88934 30481
L88934 30387
L88953 30350
L88971 30331
L89009 30312
L89103 30312
L89140 30331
L89159 30350
L89178 30387
L89178 30481
L89159 30518
L89140 30537
" />
<path d="M89140 30143
L89159 30125
L89178 30143
L89159 30162
L89140 30143
L89178 30143
" />
<path d="M88784 29881
L88784 29843
L88803 29806
L88821 29787
L88859 29768
L88934 29750
L89028 29750
L89103 29768
L89140 29787
L89159 29806
L89178 29843
L89178 29881
L89159 29918
L89140 29937
L89103 29956
L89028 29975
L88934 29975
L88859 29956
L88821 29937
L88803 29918
L88784 29881
" />
<path d="M89178 29581
L88915 29581
" />
<path d="M88953 29581
L88934 29562
L88915 29525
L88915 29468
L88934 29431
L88971 29412
L89178 29412
" />
<path d="M88971 29412
L88934 29393
L88915 29356
L88915 29300
L88934 29262
L88971 29243
L89178 29243
" />
<path d="M89178 29056
L88915 29056
" />
<path d="M88953 29056
L88934 29037
L88915 29000
L88915 28943
L88934 28906
L88971 28887
L89178 28887
" />
<path d="M88971 28887
L88934 28868
L88915 28831
L88915 28775
L88934 28737
L88971 28718
L89178 28718
" />
</g>
<g style="fill:#000000; fill-opacity:0.0; 
stroke:#000000; stroke-width:78.7402; stroke-opacity:1; 
stroke-linecap:round; stroke-linejoin:round;">
<path d="M44642 32827
L44492 32932
" />
<path d="M44642 33007
L44327 33007
L44327 32887
L44342 32857
L44357 32842
L44387 32827
L44432 32827
L44462 32842
L44477 32857
L44492 32887
L44492 33007
" />
<path d="M44477 32692
L44477 32587
" />
<path d="M44642 32542
L44642 32692
L44327 32692
L44327 32542
" />
<path d="M44477 32302
L44477 32407
" />
<path d="M44642 32407
L44327 32407
L44327 32257
" />
<path d="M44327 32092
L44402 32092
" />
<path d="M44372 32167
L44402 32092
L44372 32017
" />
<path d="M44462 32137
L44402 32092
L44462 32047
" />
<path d="M44327 31852
L44402 31852
" />
<path d="M44372 31927
L44402 31852
L44372 31777
" />
<path d="M44462 31897
L44402 31852
L44462 31807
" />
</g>
<g style="fill:#000000; fill-opacity:0.0; 
stroke:#000000; stroke-width:39.3701; stroke-opacity:1; 
stroke-linecap:round; stroke-linejoin:round;">
<path d="M52400 22200
L52400 21900
" />
<path d="M92000 22200
L92000 21900
" />
<path d="M92000 49400
L92000 49100
" />
<path d="M52400 49400
L52400 49100
" />
<path d="M92000 22200
L92000 49100
" />
<path d="M52400 22200
L52400 49100
" />
<path d="M92000 49400
L52400 49400
" />
<path d="M52400 21900
L92000 21900
" />
</g> 
</svg>
