  0
SECTION
  2
HEADER
  9
$ANGBASE
  50
0.0
  9
$ANGDIR
  70
  1
  9
$MEASUREMENT
  70
0
  0
ENDSEC
  0
SECTION
  2
TABLES
  0
TABLE
  2
LTYPE
  70
4
  0
LTYPE
  5
40F
  2
CONTINUOUS
  70
0
  3
Solid line
  72
65
  73
0
  40
0.0
  0
LTYPE
  5
410
  2
DASHDOT
 70
0
  3
Dash Dot ____ _ ____ _
 72
65
 73
4
 40
2.0
 49
1.25
 49
-0.25
 49
0.25
 49
-0.25
  0
LTYPE
  5
411
  2
DASHED
 70
0
  3
Dashed __ __ __ __ __
 72
65
 73
2
 40
0.75
 49
0.5
 49
-0.25
  0
LTYPE
  5
43B
  2
DOTTED
 70
0
  3
Dotted .  .  .  .
 72
65
 73
2
 40
0.2
 49
0.0
 49
-0.2
  0
ENDTAB
  0
TABLE
  2
STYLE
  70
4
  0
STYLE
  2
KICAD
  70
0
  40
0
  41
1
  42
1
  50
0
  71
0
  3
isocp.shx
  0
STYLE
  2
KICADB
  70
0
  40
0
  41
1
  42
1
  50
0
  71
0
  3
isocp.shx
  0
STYLE
  2
KICADI
  70
0
  40
0
  41
1
  42
1
  50
15
  71
0
  3
isocp.shx
  0
STYLE
  2
KICADBI
  70
0
  40
0
  41
1
  42
1
  50
15
  71
0
  3
isocp.shx
  0
ENDTAB
  0
TABLE
  2
LAYER
  70
30
  0
LAYER
  2
BLACK
  70
0
  62
7
  6
CONTINUOUS
  0
LAYER
  2
GRAY1
  70
0
  62
251
  6
CONTINUOUS
  0
LAYER
  2
GRAY2
  70
0
  62
8
  6
CONTINUOUS
  0
LAYER
  2
GRAY3
  70
0
  62
9
  6
CONTINUOUS
  0
LAYER
  2
WHITE
  70
0
  62
7
  6
CONTINUOUS
  0
LAYER
  2
LYELLOW
  70
0
  62
51
  6
CONTINUOUS
  0
LAYER
  2
BLUE1
  70
0
  62
178
  6
CONTINUOUS
  0
LAYER
  2
GREEN1
  70
0
  62
98
  6
CONTINUOUS
  0
LAYER
  2
CYAN1
  70
0
  62
138
  6
CONTINUOUS
  0
LAYER
  2
RED1
  70
0
  62
18
  6
CONTINUOUS
  0
LAYER
  2
MAGENTA1
  70
0
  62
228
  6
CONTINUOUS
  0
LAYER
  2
BROWN1
  70
0
  62
58
  6
CONTINUOUS
  0
LAYER
  2
BLUE2
  70
0
  62
5
  6
CONTINUOUS
  0
LAYER
  2
GREEN2
  70
0
  62
3
  6
CONTINUOUS
  0
LAYER
  2
CYAN2
  70
0
  62
4
  6
CONTINUOUS
  0
LAYER
  2
RED2
  70
0
  62
1
  6
CONTINUOUS
  0
LAYER
  2
MAGENTA2
  70
0
  62
6
  6
CONTINUOUS
  0
LAYER
  2
BROWN2
  70
0
  62
54
  6
CONTINUOUS
  0
LAYER
  2
BLUE3
  70
0
  62
171
  6
CONTINUOUS
  0
LAYER
  2
GREEN3
  70
0
  62
91
  6
CONTINUOUS
  0
LAYER
  2
CYAN3
  70
0
  62
131
  6
CONTINUOUS
  0
LAYER
  2
RED3
  70
0
  62
11
  6
CONTINUOUS
  0
LAYER
  2
MAGENTA3
  70
0
  62
221
  6
CONTINUOUS
  0
LAYER
  2
YELLOW3
  70
0
  62
2
  6
CONTINUOUS
  0
LAYER
  2
BLUE4
  70
0
  62
5
  6
CONTINUOUS
  0
LAYER
  2
GREEN4
  70
0
  62
3
  6
CONTINUOUS
  0
LAYER
  2
CYAN4
  70
0
  62
4
  6
CONTINUOUS
  0
LAYER
  2
RED4
  70
0
  62
1
  6
CONTINUOUS
  0
LAYER
  2
MAGENTA4
  70
0
  62
6
  6
CONTINUOUS
  0
LAYER
  2
YELLOW4
  70
0
  62
2
  6
CONTINUOUS
  0
ENDTAB
  0
ENDSEC
  0
SECTION
  2
ENTITIES
0
LINE
8
BLACK
6
CONTINUOUS
10
233.728
20
-125.489
11
233.728
21
-125.493
0
LINE
8
BLACK
6
CONTINUOUS
10
233.728
20
-125.493
11
233.725
21
-125.497
0
LINE
8
BLACK
6
CONTINUOUS
10
233.725
20
-125.497
11
233.724
21
-125.501
0
LINE
8
BLACK
6
CONTINUOUS
10
233.724
20
-125.501
11
233.721
21
-125.505
0
LINE
8
BLACK
6
CONTINUOUS
10
233.721
20
-125.505
11
233.719
21
-125.509
0
LINE
8
BLACK
6
CONTINUOUS
10
233.719
20
-125.509
11
233.715
21
-125.511
0
LINE
8
BLACK
6
CONTINUOUS
10
233.715
20
-125.511
11
233.713
21
-125.515
0
LINE
8
BLACK
6
CONTINUOUS
10
233.713
20
-125.515
11
233.709
21
-125.517
0
LINE
8
BLACK
6
CONTINUOUS
10
233.709
20
-125.517
11
233.705
21
-125.52
0
LINE
8
BLACK
6
CONTINUOUS
10
233.705
20
-125.52
11
233.701
21
-125.521
0
LINE
8
BLACK
6
CONTINUOUS
10
233.701
20
-125.521
11
233.697
21
-125.524
0
LINE
8
BLACK
6
CONTINUOUS
10
233.697
20
-125.524
11
233.693
21
-125.524
0
LINE
8
BLACK
6
CONTINUOUS
10
233.693
20
-125.524
11
233.689
21
-125.526
0
LINE
8
BLACK
6
CONTINUOUS
10
233.689
20
-125.526
11
133.087
21
-125.526
0
LINE
8
BLACK
6
CONTINUOUS
10
133.087
20
-125.526
11
133.083
21
-125.524
0
LINE
8
BLACK
6
CONTINUOUS
10
133.083
20
-125.524
11
133.079
21
-125.524
0
LINE
8
BLACK
6
CONTINUOUS
10
133.079
20
-125.524
11
133.075
21
-125.521
0
LINE
8
BLACK
6
CONTINUOUS
10
133.075
20
-125.521
11
133.071
21
-125.52
0
LINE
8
BLACK
6
CONTINUOUS
10
133.071
20
-125.52
11
133.067
21
-125.517
0
LINE
8
BLACK
6
CONTINUOUS
10
133.067
20
-125.517
11
133.063
21
-125.515
0
LINE
8
BLACK
6
CONTINUOUS
10
133.063
20
-125.515
11
133.061
21
-125.511
0
LINE
8
BLACK
6
CONTINUOUS
10
133.061
20
-125.511
11
133.057
21
-125.509
0
LINE
8
BLACK
6
CONTINUOUS
10
133.057
20
-125.509
11
133.055
21
-125.505
0
LINE
8
BLACK
6
CONTINUOUS
10
133.055
20
-125.505
11
133.052
21
-125.501
0
LINE
8
BLACK
6
CONTINUOUS
10
133.052
20
-125.501
11
133.051
21
-125.497
0
LINE
8
BLACK
6
CONTINUOUS
10
133.051
20
-125.497
11
133.048
21
-125.493
0
LINE
8
BLACK
6
CONTINUOUS
10
133.048
20
-125.493
11
133.048
21
-125.489
0
LINE
8
BLACK
6
CONTINUOUS
10
133.048
20
-125.489
11
133.046
21
-125.485
0
LINE
8
BLACK
6
CONTINUOUS
10
133.046
20
-125.485
11
133.046
21
-125.467
0
LINE
8
BLACK
6
CONTINUOUS
10
133.046
20
-125.467
11
133.046
21
-124.71
0
LINE
8
BLACK
6
CONTINUOUS
10
133.046
20
-124.71
11
133.046
21
-56.3836
0
LINE
8
BLACK
6
CONTINUOUS
10
133.046
20
-56.3836
11
133.046
21
-56.3836
0
LINE
8
BLACK
6
CONTINUOUS
10
133.046
20
-56.3836
11
133.046
21
-55.6348
0
LINE
8
BLACK
6
CONTINUOUS
10
133.046
20
-55.6348
11
133.046
21
-55.6348
0
LINE
8
BLACK
6
CONTINUOUS
10
133.046
20
-55.6348
11
133.046
21
-55.6172
0
LINE
8
BLACK
6
CONTINUOUS
10
133.046
20
-55.6172
11
133.048
21
-55.613
0
LINE
8
BLACK
6
CONTINUOUS
10
133.048
20
-55.613
11
133.048
21
-55.6086
0
LINE
8
BLACK
6
CONTINUOUS
10
133.048
20
-55.6086
11
133.051
21
-55.6048
0
LINE
8
BLACK
6
CONTINUOUS
10
133.051
20
-55.6048
11
133.052
21
-55.6006
0
LINE
8
BLACK
6
CONTINUOUS
10
133.052
20
-55.6006
11
133.055
21
-55.5972
0
LINE
8
BLACK
6
CONTINUOUS
10
133.055
20
-55.5972
11
133.057
21
-55.5934
0
LINE
8
BLACK
6
CONTINUOUS
10
133.057
20
-55.5934
11
133.061
21
-55.5905
0
LINE
8
BLACK
6
CONTINUOUS
10
133.061
20
-55.5905
11
133.063
21
-55.5871
0
LINE
8
BLACK
6
CONTINUOUS
10
133.063
20
-55.5871
11
133.067
21
-55.5849
0
LINE
8
BLACK
6
CONTINUOUS
10
133.067
20
-55.5849
11
133.071
21
-55.582
0
LINE
8
BLACK
6
CONTINUOUS
10
133.071
20
-55.582
11
133.075
21
-55.5805
0
LINE
8
BLACK
6
CONTINUOUS
10
133.075
20
-55.5805
11
133.079
21
-55.5783
0
LINE
8
BLACK
6
CONTINUOUS
10
133.079
20
-55.5783
11
133.083
21
-55.5775
0
LINE
8
BLACK
6
CONTINUOUS
10
133.083
20
-55.5775
11
133.087
21
-55.576
0
LINE
8
BLACK
6
CONTINUOUS
10
133.087
20
-55.576
11
233.689
21
-55.576
0
LINE
8
BLACK
6
CONTINUOUS
10
233.689
20
-55.576
11
233.693
21
-55.5775
0
LINE
8
BLACK
6
CONTINUOUS
10
233.693
20
-55.5775
11
233.697
21
-55.5783
0
LINE
8
BLACK
6
CONTINUOUS
10
233.697
20
-55.5783
11
233.701
21
-55.5805
0
LINE
8
BLACK
6
CONTINUOUS
10
233.701
20
-55.5805
11
233.705
21
-55.582
0
LINE
8
BLACK
6
CONTINUOUS
10
233.705
20
-55.582
11
233.709
21
-55.5849
0
LINE
8
BLACK
6
CONTINUOUS
10
233.709
20
-55.5849
11
233.713
21
-55.5871
0
LINE
8
BLACK
6
CONTINUOUS
10
233.713
20
-55.5871
11
233.715
21
-55.5905
0
LINE
8
BLACK
6
CONTINUOUS
10
233.715
20
-55.5905
11
233.719
21
-55.5934
0
LINE
8
BLACK
6
CONTINUOUS
10
233.719
20
-55.5934
11
233.721
21
-55.5972
0
LINE
8
BLACK
6
CONTINUOUS
10
233.721
20
-55.5972
11
233.724
21
-55.6006
0
LINE
8
BLACK
6
CONTINUOUS
10
233.724
20
-55.6006
11
233.725
21
-55.6048
0
LINE
8
BLACK
6
CONTINUOUS
10
233.725
20
-55.6048
11
233.728
21
-55.6086
0
LINE
8
BLACK
6
CONTINUOUS
10
233.728
20
-55.6086
11
233.728
21
-55.613
0
LINE
8
BLACK
6
CONTINUOUS
10
233.728
20
-55.613
11
233.73
21
-55.6172
0
LINE
8
BLACK
6
CONTINUOUS
10
233.73
20
-55.6172
11
233.73
21
-125.485
0
LINE
8
BLACK
6
CONTINUOUS
10
233.73
20
-125.485
11
233.728
21
-125.489
0
LINE
8
BLACK
6
CONTINUOUS
10
233.63
20
-125.426
11
233.63
21
-124.71
0
LINE
8
BLACK
6
CONTINUOUS
10
233.63
20
-124.71
11
233.63
21
-56.3836
0
LINE
8
BLACK
6
CONTINUOUS
10
233.63
20
-56.3836
11
233.63
21
-56.3836
0
LINE
8
BLACK
6
CONTINUOUS
10
233.63
20
-56.3836
11
233.63
21
-55.676
0
LINE
8
BLACK
6
CONTINUOUS
10
233.63
20
-55.676
11
133.146
21
-55.676
0
LINE
8
BLACK
6
CONTINUOUS
10
133.146
20
-55.676
11
133.146
21
-125.426
0
LINE
8
BLACK
6
CONTINUOUS
10
133.146
20
-125.426
11
233.63
21
-125.426
  0
ENDSEC
  0
EOF
