  0
SECTION
  2
HEADER
  9
$ANGBASE
  50
0.0
  9
$ANGDIR
  70
  1
  9
$MEASUREMENT
  70
0
  0
ENDSEC
  0
SECTION
  2
TABLES
  0
TABLE
  2
LTYPE
  70
4
  0
LTYPE
  5
40F
  2
CONTINUOUS
  70
0
  3
Solid line
  72
65
  73
0
  40
0.0
  0
LTYPE
  5
410
  2
DASHDOT
 70
0
  3
Dash Dot ____ _ ____ _
 72
65
 73
4
 40
2.0
 49
1.25
 49
-0.25
 49
0.25
 49
-0.25
  0
LTYPE
  5
411
  2
DASHED
 70
0
  3
Dashed __ __ __ __ __
 72
65
 73
2
 40
0.75
 49
0.5
 49
-0.25
  0
LTYPE
  5
43B
  2
DOTTED
 70
0
  3
Dotted .  .  .  .
 72
65
 73
2
 40
0.2
 49
0.0
 49
-0.2
  0
ENDTAB
  0
TABLE
  2
STYLE
  70
4
  0
STYLE
  2
KICAD
  70
0
  40
0
  41
1
  42
1
  50
0
  71
0
  3
isocp.shx
  0
STYLE
  2
KICADB
  70
0
  40
0
  41
1
  42
1
  50
0
  71
0
  3
isocp.shx
  0
STYLE
  2
KICADI
  70
0
  40
0
  41
1
  42
1
  50
15
  71
0
  3
isocp.shx
  0
STYLE
  2
KICADBI
  70
0
  40
0
  41
1
  42
1
  50
15
  71
0
  3
isocp.shx
  0
ENDTAB
  0
TABLE
  2
LAYER
  70
30
  0
LAYER
  2
BLACK
  70
0
  62
7
  6
CONTINUOUS
  0
LAYER
  2
GRAY1
  70
0
  62
251
  6
CONTINUOUS
  0
LAYER
  2
GRAY2
  70
0
  62
8
  6
CONTINUOUS
  0
LAYER
  2
GRAY3
  70
0
  62
9
  6
CONTINUOUS
  0
LAYER
  2
WHITE
  70
0
  62
7
  6
CONTINUOUS
  0
LAYER
  2
LYELLOW
  70
0
  62
51
  6
CONTINUOUS
  0
LAYER
  2
BLUE1
  70
0
  62
178
  6
CONTINUOUS
  0
LAYER
  2
GREEN1
  70
0
  62
98
  6
CONTINUOUS
  0
LAYER
  2
CYAN1
  70
0
  62
138
  6
CONTINUOUS
  0
LAYER
  2
RED1
  70
0
  62
18
  6
CONTINUOUS
  0
LAYER
  2
MAGENTA1
  70
0
  62
228
  6
CONTINUOUS
  0
LAYER
  2
BROWN1
  70
0
  62
58
  6
CONTINUOUS
  0
LAYER
  2
BLUE2
  70
0
  62
5
  6
CONTINUOUS
  0
LAYER
  2
GREEN2
  70
0
  62
3
  6
CONTINUOUS
  0
LAYER
  2
CYAN2
  70
0
  62
4
  6
CONTINUOUS
  0
LAYER
  2
RED2
  70
0
  62
1
  6
CONTINUOUS
  0
LAYER
  2
MAGENTA2
  70
0
  62
6
  6
CONTINUOUS
  0
LAYER
  2
BROWN2
  70
0
  62
54
  6
CONTINUOUS
  0
LAYER
  2
BLUE3
  70
0
  62
171
  6
CONTINUOUS
  0
LAYER
  2
GREEN3
  70
0
  62
91
  6
CONTINUOUS
  0
LAYER
  2
CYAN3
  70
0
  62
131
  6
CONTINUOUS
  0
LAYER
  2
RED3
  70
0
  62
11
  6
CONTINUOUS
  0
LAYER
  2
MAGENTA3
  70
0
  62
221
  6
CONTINUOUS
  0
LAYER
  2
YELLOW3
  70
0
  62
2
  6
CONTINUOUS
  0
LAYER
  2
BLUE4
  70
0
  62
5
  6
CONTINUOUS
  0
LAYER
  2
GREEN4
  70
0
  62
3
  6
CONTINUOUS
  0
LAYER
  2
CYAN4
  70
0
  62
4
  6
CONTINUOUS
  0
LAYER
  2
RED4
  70
0
  62
1
  6
CONTINUOUS
  0
LAYER
  2
MAGENTA4
  70
0
  62
6
  6
CONTINUOUS
  0
LAYER
  2
YELLOW4
  70
0
  62
2
  6
CONTINUOUS
  0
ENDTAB
  0
ENDSEC
  0
SECTION
  2
ENTITIES
0
CIRCLE
8
BLACK
10
135.89
20
-120.396
40
1.36783
0
CIRCLE
8
BLACK
10
143.002
20
-85.598
40
1.27
0
CIRCLE
8
BLACK
10
230.886
20
-122.682
40
1.27
0
CIRCLE
8
BLACK
10
227.584
20
-75.692
40
1.27
0
CIRCLE
8
BLACK
10
230.886
20
-58.42
40
1.27
0
CIRCLE
8
BLACK
10
135.89
20
-58.42
40
1.27
0
LINE
8
BLACK
6
CONTINUOUS
10
194.019
20
-107.927
11
194.383
21
-108.078
0
LINE
8
BLACK
6
CONTINUOUS
10
194.383
20
-108.078
11
194.711
21
-108.297
0
LINE
8
BLACK
6
CONTINUOUS
10
194.711
20
-108.297
11
194.989
21
-108.575
0
LINE
8
BLACK
6
CONTINUOUS
10
194.989
20
-108.575
11
195.208
21
-108.903
0
LINE
8
BLACK
6
CONTINUOUS
10
195.208
20
-108.903
11
195.359
21
-109.267
0
LINE
8
BLACK
6
CONTINUOUS
10
195.359
20
-109.267
11
195.436
21
-109.653
0
LINE
8
BLACK
6
CONTINUOUS
10
195.436
20
-109.653
11
195.436
21
-110.047
0
LINE
8
BLACK
6
CONTINUOUS
10
195.436
20
-110.047
11
195.359
21
-110.433
0
LINE
8
BLACK
6
CONTINUOUS
10
195.359
20
-110.433
11
195.208
21
-110.797
0
LINE
8
BLACK
6
CONTINUOUS
10
195.208
20
-110.797
11
194.989
21
-111.125
0
LINE
8
BLACK
6
CONTINUOUS
10
194.989
20
-111.125
11
194.711
21
-111.403
0
LINE
8
BLACK
6
CONTINUOUS
10
194.711
20
-111.403
11
194.383
21
-111.622
0
LINE
8
BLACK
6
CONTINUOUS
10
194.383
20
-111.622
11
194.019
21
-111.773
0
LINE
8
BLACK
6
CONTINUOUS
10
194.019
20
-111.773
11
193.633
21
-111.85
0
LINE
8
BLACK
6
CONTINUOUS
10
193.633
20
-111.85
11
193.239
21
-111.85
0
LINE
8
BLACK
6
CONTINUOUS
10
193.239
20
-111.85
11
192.853
21
-111.773
0
LINE
8
BLACK
6
CONTINUOUS
10
192.853
20
-111.773
11
192.489
21
-111.622
0
LINE
8
BLACK
6
CONTINUOUS
10
192.489
20
-111.622
11
192.161
21
-111.403
0
LINE
8
BLACK
6
CONTINUOUS
10
192.161
20
-111.403
11
191.883
21
-111.125
0
LINE
8
BLACK
6
CONTINUOUS
10
191.883
20
-111.125
11
191.664
21
-110.797
0
LINE
8
BLACK
6
CONTINUOUS
10
191.664
20
-110.797
11
191.513
21
-110.433
0
LINE
8
BLACK
6
CONTINUOUS
10
191.513
20
-110.433
11
191.436
21
-110.047
0
LINE
8
BLACK
6
CONTINUOUS
10
191.436
20
-110.047
11
191.436
21
-109.653
0
LINE
8
BLACK
6
CONTINUOUS
10
191.436
20
-109.653
11
191.513
21
-109.267
0
LINE
8
BLACK
6
CONTINUOUS
10
191.513
20
-109.267
11
191.664
21
-108.903
0
LINE
8
BLACK
6
CONTINUOUS
10
191.664
20
-108.903
11
191.883
21
-108.575
0
LINE
8
BLACK
6
CONTINUOUS
10
191.883
20
-108.575
11
192.161
21
-108.297
0
LINE
8
BLACK
6
CONTINUOUS
10
192.161
20
-108.297
11
192.489
21
-108.078
0
LINE
8
BLACK
6
CONTINUOUS
10
192.489
20
-108.078
11
192.853
21
-107.927
0
LINE
8
BLACK
6
CONTINUOUS
10
192.853
20
-107.927
11
193.239
21
-107.85
0
LINE
8
BLACK
6
CONTINUOUS
10
193.239
20
-107.85
11
193.633
21
-107.85
0
LINE
8
BLACK
6
CONTINUOUS
10
193.633
20
-107.85
11
194.019
21
-107.927
0
LINE
8
BLACK
6
CONTINUOUS
10
186.699
20
-107.085
11
186.862
21
-107.152
0
LINE
8
BLACK
6
CONTINUOUS
10
186.862
20
-107.152
11
187.01
21
-107.251
0
LINE
8
BLACK
6
CONTINUOUS
10
187.01
20
-107.251
11
187.135
21
-107.376
0
LINE
8
BLACK
6
CONTINUOUS
10
187.135
20
-107.376
11
187.234
21
-107.524
0
LINE
8
BLACK
6
CONTINUOUS
10
187.234
20
-107.524
11
187.301
21
-107.687
0
LINE
8
BLACK
6
CONTINUOUS
10
187.301
20
-107.687
11
187.336
21
-107.861
0
LINE
8
BLACK
6
CONTINUOUS
10
187.336
20
-107.861
11
187.336
21
-108.039
0
LINE
8
BLACK
6
CONTINUOUS
10
187.336
20
-108.039
11
187.301
21
-108.213
0
LINE
8
BLACK
6
CONTINUOUS
10
187.301
20
-108.213
11
187.234
21
-108.376
0
LINE
8
BLACK
6
CONTINUOUS
10
187.234
20
-108.376
11
187.135
21
-108.524
0
LINE
8
BLACK
6
CONTINUOUS
10
187.135
20
-108.524
11
187.01
21
-108.649
0
LINE
8
BLACK
6
CONTINUOUS
10
187.01
20
-108.649
11
186.862
21
-108.748
0
LINE
8
BLACK
6
CONTINUOUS
10
186.862
20
-108.748
11
186.699
21
-108.815
0
LINE
8
BLACK
6
CONTINUOUS
10
186.699
20
-108.815
11
186.525
21
-108.85
0
LINE
8
BLACK
6
CONTINUOUS
10
186.525
20
-108.85
11
186.347
21
-108.85
0
LINE
8
BLACK
6
CONTINUOUS
10
186.347
20
-108.85
11
186.173
21
-108.815
0
LINE
8
BLACK
6
CONTINUOUS
10
186.173
20
-108.815
11
186.01
21
-108.748
0
LINE
8
BLACK
6
CONTINUOUS
10
186.01
20
-108.748
11
185.862
21
-108.649
0
LINE
8
BLACK
6
CONTINUOUS
10
185.862
20
-108.649
11
185.737
21
-108.524
0
LINE
8
BLACK
6
CONTINUOUS
10
185.737
20
-108.524
11
185.638
21
-108.376
0
LINE
8
BLACK
6
CONTINUOUS
10
185.638
20
-108.376
11
185.571
21
-108.213
0
LINE
8
BLACK
6
CONTINUOUS
10
185.571
20
-108.213
11
185.536
21
-108.039
0
LINE
8
BLACK
6
CONTINUOUS
10
185.536
20
-108.039
11
185.536
21
-107.861
0
LINE
8
BLACK
6
CONTINUOUS
10
185.536
20
-107.861
11
185.571
21
-107.687
0
LINE
8
BLACK
6
CONTINUOUS
10
185.571
20
-107.687
11
185.638
21
-107.524
0
LINE
8
BLACK
6
CONTINUOUS
10
185.638
20
-107.524
11
185.737
21
-107.376
0
LINE
8
BLACK
6
CONTINUOUS
10
185.737
20
-107.376
11
185.862
21
-107.251
0
LINE
8
BLACK
6
CONTINUOUS
10
185.862
20
-107.251
11
186.01
21
-107.152
0
LINE
8
BLACK
6
CONTINUOUS
10
186.01
20
-107.152
11
186.173
21
-107.085
0
LINE
8
BLACK
6
CONTINUOUS
10
186.173
20
-107.085
11
186.347
21
-107.05
0
LINE
8
BLACK
6
CONTINUOUS
10
186.347
20
-107.05
11
186.525
21
-107.05
0
LINE
8
BLACK
6
CONTINUOUS
10
186.525
20
-107.05
11
186.699
21
-107.085
0
LINE
8
BLACK
6
CONTINUOUS
10
186.699
20
-104.585
11
186.862
21
-104.652
0
LINE
8
BLACK
6
CONTINUOUS
10
186.862
20
-104.652
11
187.01
21
-104.751
0
LINE
8
BLACK
6
CONTINUOUS
10
187.01
20
-104.751
11
187.135
21
-104.876
0
LINE
8
BLACK
6
CONTINUOUS
10
187.135
20
-104.876
11
187.234
21
-105.024
0
LINE
8
BLACK
6
CONTINUOUS
10
187.234
20
-105.024
11
187.301
21
-105.187
0
LINE
8
BLACK
6
CONTINUOUS
10
187.301
20
-105.187
11
187.336
21
-105.361
0
LINE
8
BLACK
6
CONTINUOUS
10
187.336
20
-105.361
11
187.336
21
-105.539
0
LINE
8
BLACK
6
CONTINUOUS
10
187.336
20
-105.539
11
187.301
21
-105.713
0
LINE
8
BLACK
6
CONTINUOUS
10
187.301
20
-105.713
11
187.234
21
-105.876
0
LINE
8
BLACK
6
CONTINUOUS
10
187.234
20
-105.876
11
187.135
21
-106.024
0
LINE
8
BLACK
6
CONTINUOUS
10
187.135
20
-106.024
11
187.01
21
-106.149
0
LINE
8
BLACK
6
CONTINUOUS
10
187.01
20
-106.149
11
186.862
21
-106.248
0
LINE
8
BLACK
6
CONTINUOUS
10
186.862
20
-106.248
11
186.699
21
-106.315
0
LINE
8
BLACK
6
CONTINUOUS
10
186.699
20
-106.315
11
186.525
21
-106.35
0
LINE
8
BLACK
6
CONTINUOUS
10
186.525
20
-106.35
11
186.347
21
-106.35
0
LINE
8
BLACK
6
CONTINUOUS
10
186.347
20
-106.35
11
186.173
21
-106.315
0
LINE
8
BLACK
6
CONTINUOUS
10
186.173
20
-106.315
11
186.01
21
-106.248
0
LINE
8
BLACK
6
CONTINUOUS
10
186.01
20
-106.248
11
185.862
21
-106.149
0
LINE
8
BLACK
6
CONTINUOUS
10
185.862
20
-106.149
11
185.737
21
-106.024
0
LINE
8
BLACK
6
CONTINUOUS
10
185.737
20
-106.024
11
185.638
21
-105.876
0
LINE
8
BLACK
6
CONTINUOUS
10
185.638
20
-105.876
11
185.571
21
-105.713
0
LINE
8
BLACK
6
CONTINUOUS
10
185.571
20
-105.713
11
185.536
21
-105.539
0
LINE
8
BLACK
6
CONTINUOUS
10
185.536
20
-105.539
11
185.536
21
-105.361
0
LINE
8
BLACK
6
CONTINUOUS
10
185.536
20
-105.361
11
185.571
21
-105.187
0
LINE
8
BLACK
6
CONTINUOUS
10
185.571
20
-105.187
11
185.638
21
-105.024
0
LINE
8
BLACK
6
CONTINUOUS
10
185.638
20
-105.024
11
185.737
21
-104.876
0
LINE
8
BLACK
6
CONTINUOUS
10
185.737
20
-104.876
11
185.862
21
-104.751
0
LINE
8
BLACK
6
CONTINUOUS
10
185.862
20
-104.751
11
186.01
21
-104.652
0
LINE
8
BLACK
6
CONTINUOUS
10
186.01
20
-104.652
11
186.173
21
-104.585
0
LINE
8
BLACK
6
CONTINUOUS
10
186.173
20
-104.585
11
186.347
21
-104.55
0
LINE
8
BLACK
6
CONTINUOUS
10
186.347
20
-104.55
11
186.525
21
-104.55
0
LINE
8
BLACK
6
CONTINUOUS
10
186.525
20
-104.55
11
186.699
21
-104.585
0
LINE
8
BLACK
6
CONTINUOUS
10
186.699
20
-102.085
11
186.862
21
-102.152
0
LINE
8
BLACK
6
CONTINUOUS
10
186.862
20
-102.152
11
187.01
21
-102.251
0
LINE
8
BLACK
6
CONTINUOUS
10
187.01
20
-102.251
11
187.135
21
-102.376
0
LINE
8
BLACK
6
CONTINUOUS
10
187.135
20
-102.376
11
187.234
21
-102.524
0
LINE
8
BLACK
6
CONTINUOUS
10
187.234
20
-102.524
11
187.301
21
-102.687
0
LINE
8
BLACK
6
CONTINUOUS
10
187.301
20
-102.687
11
187.336
21
-102.861
0
LINE
8
BLACK
6
CONTINUOUS
10
187.336
20
-102.861
11
187.336
21
-103.039
0
LINE
8
BLACK
6
CONTINUOUS
10
187.336
20
-103.039
11
187.301
21
-103.213
0
LINE
8
BLACK
6
CONTINUOUS
10
187.301
20
-103.213
11
187.234
21
-103.376
0
LINE
8
BLACK
6
CONTINUOUS
10
187.234
20
-103.376
11
187.135
21
-103.524
0
LINE
8
BLACK
6
CONTINUOUS
10
187.135
20
-103.524
11
187.01
21
-103.649
0
LINE
8
BLACK
6
CONTINUOUS
10
187.01
20
-103.649
11
186.862
21
-103.748
0
LINE
8
BLACK
6
CONTINUOUS
10
186.862
20
-103.748
11
186.699
21
-103.815
0
LINE
8
BLACK
6
CONTINUOUS
10
186.699
20
-103.815
11
186.525
21
-103.85
0
LINE
8
BLACK
6
CONTINUOUS
10
186.525
20
-103.85
11
186.347
21
-103.85
0
LINE
8
BLACK
6
CONTINUOUS
10
186.347
20
-103.85
11
186.173
21
-103.815
0
LINE
8
BLACK
6
CONTINUOUS
10
186.173
20
-103.815
11
186.01
21
-103.748
0
LINE
8
BLACK
6
CONTINUOUS
10
186.01
20
-103.748
11
185.862
21
-103.649
0
LINE
8
BLACK
6
CONTINUOUS
10
185.862
20
-103.649
11
185.737
21
-103.524
0
LINE
8
BLACK
6
CONTINUOUS
10
185.737
20
-103.524
11
185.638
21
-103.376
0
LINE
8
BLACK
6
CONTINUOUS
10
185.638
20
-103.376
11
185.571
21
-103.213
0
LINE
8
BLACK
6
CONTINUOUS
10
185.571
20
-103.213
11
185.536
21
-103.039
0
LINE
8
BLACK
6
CONTINUOUS
10
185.536
20
-103.039
11
185.536
21
-102.861
0
LINE
8
BLACK
6
CONTINUOUS
10
185.536
20
-102.861
11
185.571
21
-102.687
0
LINE
8
BLACK
6
CONTINUOUS
10
185.571
20
-102.687
11
185.638
21
-102.524
0
LINE
8
BLACK
6
CONTINUOUS
10
185.638
20
-102.524
11
185.737
21
-102.376
0
LINE
8
BLACK
6
CONTINUOUS
10
185.737
20
-102.376
11
185.862
21
-102.251
0
LINE
8
BLACK
6
CONTINUOUS
10
185.862
20
-102.251
11
186.01
21
-102.152
0
LINE
8
BLACK
6
CONTINUOUS
10
186.01
20
-102.152
11
186.173
21
-102.085
0
LINE
8
BLACK
6
CONTINUOUS
10
186.173
20
-102.085
11
186.347
21
-102.05
0
LINE
8
BLACK
6
CONTINUOUS
10
186.347
20
-102.05
11
186.525
21
-102.05
0
LINE
8
BLACK
6
CONTINUOUS
10
186.525
20
-102.05
11
186.699
21
-102.085
0
LINE
8
BLACK
6
CONTINUOUS
10
194.019
20
-99.1269
11
194.383
21
-99.2776
0
LINE
8
BLACK
6
CONTINUOUS
10
194.383
20
-99.2776
11
194.711
21
-99.4965
0
LINE
8
BLACK
6
CONTINUOUS
10
194.711
20
-99.4965
11
194.989
21
-99.7751
0
LINE
8
BLACK
6
CONTINUOUS
10
194.989
20
-99.7751
11
195.208
21
-100.103
0
LINE
8
BLACK
6
CONTINUOUS
10
195.208
20
-100.103
11
195.359
21
-100.467
0
LINE
8
BLACK
6
CONTINUOUS
10
195.359
20
-100.467
11
195.436
21
-100.853
0
LINE
8
BLACK
6
CONTINUOUS
10
195.436
20
-100.853
11
195.436
21
-101.247
0
LINE
8
BLACK
6
CONTINUOUS
10
195.436
20
-101.247
11
195.359
21
-101.633
0
LINE
8
BLACK
6
CONTINUOUS
10
195.359
20
-101.633
11
195.208
21
-101.997
0
LINE
8
BLACK
6
CONTINUOUS
10
195.208
20
-101.997
11
194.989
21
-102.325
0
LINE
8
BLACK
6
CONTINUOUS
10
194.989
20
-102.325
11
194.711
21
-102.603
0
LINE
8
BLACK
6
CONTINUOUS
10
194.711
20
-102.603
11
194.383
21
-102.822
0
LINE
8
BLACK
6
CONTINUOUS
10
194.383
20
-102.822
11
194.019
21
-102.973
0
LINE
8
BLACK
6
CONTINUOUS
10
194.019
20
-102.973
11
193.633
21
-103.05
0
LINE
8
BLACK
6
CONTINUOUS
10
193.633
20
-103.05
11
193.239
21
-103.05
0
LINE
8
BLACK
6
CONTINUOUS
10
193.239
20
-103.05
11
192.853
21
-102.973
0
LINE
8
BLACK
6
CONTINUOUS
10
192.853
20
-102.973
11
192.489
21
-102.822
0
LINE
8
BLACK
6
CONTINUOUS
10
192.489
20
-102.822
11
192.161
21
-102.603
0
LINE
8
BLACK
6
CONTINUOUS
10
192.161
20
-102.603
11
191.883
21
-102.325
0
LINE
8
BLACK
6
CONTINUOUS
10
191.883
20
-102.325
11
191.664
21
-101.997
0
LINE
8
BLACK
6
CONTINUOUS
10
191.664
20
-101.997
11
191.513
21
-101.633
0
LINE
8
BLACK
6
CONTINUOUS
10
191.513
20
-101.633
11
191.436
21
-101.247
0
LINE
8
BLACK
6
CONTINUOUS
10
191.436
20
-101.247
11
191.436
21
-100.853
0
LINE
8
BLACK
6
CONTINUOUS
10
191.436
20
-100.853
11
191.513
21
-100.467
0
LINE
8
BLACK
6
CONTINUOUS
10
191.513
20
-100.467
11
191.664
21
-100.103
0
LINE
8
BLACK
6
CONTINUOUS
10
191.664
20
-100.103
11
191.883
21
-99.7751
0
LINE
8
BLACK
6
CONTINUOUS
10
191.883
20
-99.7751
11
192.161
21
-99.4965
0
LINE
8
BLACK
6
CONTINUOUS
10
192.161
20
-99.4965
11
192.489
21
-99.2776
0
LINE
8
BLACK
6
CONTINUOUS
10
192.489
20
-99.2776
11
192.853
21
-99.1269
0
LINE
8
BLACK
6
CONTINUOUS
10
192.853
20
-99.1269
11
193.239
21
-99.05
0
LINE
8
BLACK
6
CONTINUOUS
10
193.239
20
-99.05
11
193.633
21
-99.05
0
LINE
8
BLACK
6
CONTINUOUS
10
193.633
20
-99.05
11
194.019
21
-99.1269
0
LINE
8
BLACK
6
CONTINUOUS
10
113.93
20
-101.738
11
112.13
21
-101.738
0
LINE
8
BLACK
6
CONTINUOUS
10
112.13
20
-101.738
11
112.13
21
-99.938
0
LINE
8
BLACK
6
CONTINUOUS
10
112.13
20
-99.938
11
113.93
21
-99.938
0
LINE
8
BLACK
6
CONTINUOUS
10
113.93
20
-99.938
11
113.93
21
-101.738
0
LINE
8
BLACK
6
CONTINUOUS
10
113.293
20
-97.4326
11
113.456
21
-97.5004
0
LINE
8
BLACK
6
CONTINUOUS
10
113.456
20
-97.5004
11
113.604
21
-97.5989
0
LINE
8
BLACK
6
CONTINUOUS
10
113.604
20
-97.5989
11
113.729
21
-97.7243
0
LINE
8
BLACK
6
CONTINUOUS
10
113.729
20
-97.7243
11
113.828
21
-97.8717
0
LINE
8
BLACK
6
CONTINUOUS
10
113.828
20
-97.8717
11
113.895
21
-98.0355
0
LINE
8
BLACK
6
CONTINUOUS
10
113.895
20
-98.0355
11
113.93
21
-98.2094
0
LINE
8
BLACK
6
CONTINUOUS
10
113.93
20
-98.2094
11
113.93
21
-98.3866
0
LINE
8
BLACK
6
CONTINUOUS
10
113.93
20
-98.3866
11
113.895
21
-98.5605
0
LINE
8
BLACK
6
CONTINUOUS
10
113.895
20
-98.5605
11
113.828
21
-98.7243
0
LINE
8
BLACK
6
CONTINUOUS
10
113.828
20
-98.7243
11
113.729
21
-98.8717
0
LINE
8
BLACK
6
CONTINUOUS
10
113.729
20
-98.8717
11
113.604
21
-98.9971
0
LINE
8
BLACK
6
CONTINUOUS
10
113.604
20
-98.9971
11
113.456
21
-99.0956
0
LINE
8
BLACK
6
CONTINUOUS
10
113.456
20
-99.0956
11
113.293
21
-99.1634
0
LINE
8
BLACK
6
CONTINUOUS
10
113.293
20
-99.1634
11
113.119
21
-99.198
0
LINE
8
BLACK
6
CONTINUOUS
10
113.119
20
-99.198
11
112.941
21
-99.198
0
LINE
8
BLACK
6
CONTINUOUS
10
112.941
20
-99.198
11
112.767
21
-99.1634
0
LINE
8
BLACK
6
CONTINUOUS
10
112.767
20
-99.1634
11
112.604
21
-99.0956
0
LINE
8
BLACK
6
CONTINUOUS
10
112.604
20
-99.0956
11
112.456
21
-98.9971
0
LINE
8
BLACK
6
CONTINUOUS
10
112.456
20
-98.9971
11
112.331
21
-98.8717
0
LINE
8
BLACK
6
CONTINUOUS
10
112.331
20
-98.8717
11
112.232
21
-98.7243
0
LINE
8
BLACK
6
CONTINUOUS
10
112.232
20
-98.7243
11
112.165
21
-98.5605
0
LINE
8
BLACK
6
CONTINUOUS
10
112.165
20
-98.5605
11
112.13
21
-98.3866
0
LINE
8
BLACK
6
CONTINUOUS
10
112.13
20
-98.3866
11
112.13
21
-98.2094
0
LINE
8
BLACK
6
CONTINUOUS
10
112.13
20
-98.2094
11
112.165
21
-98.0355
0
LINE
8
BLACK
6
CONTINUOUS
10
112.165
20
-98.0355
11
112.232
21
-97.8717
0
LINE
8
BLACK
6
CONTINUOUS
10
112.232
20
-97.8717
11
112.331
21
-97.7243
0
LINE
8
BLACK
6
CONTINUOUS
10
112.331
20
-97.7243
11
112.456
21
-97.5989
0
LINE
8
BLACK
6
CONTINUOUS
10
112.456
20
-97.5989
11
112.604
21
-97.5004
0
LINE
8
BLACK
6
CONTINUOUS
10
112.604
20
-97.5004
11
112.767
21
-97.4326
0
LINE
8
BLACK
6
CONTINUOUS
10
112.767
20
-97.4326
11
112.941
21
-97.398
0
LINE
8
BLACK
6
CONTINUOUS
10
112.941
20
-97.398
11
113.119
21
-97.398
0
LINE
8
BLACK
6
CONTINUOUS
10
113.119
20
-97.398
11
113.293
21
-97.4326
0
LINE
8
BLACK
6
CONTINUOUS
10
133.242
20
-96.5464
11
133.315
21
-96.5608
0
LINE
8
BLACK
6
CONTINUOUS
10
133.315
20
-96.5608
11
133.371
21
-96.5842
0
LINE
8
BLACK
6
CONTINUOUS
10
133.371
20
-96.5842
11
133.451
21
-96.6174
0
LINE
8
BLACK
6
CONTINUOUS
10
133.451
20
-96.6174
11
133.574
21
-96.6994
0
LINE
8
BLACK
6
CONTINUOUS
10
133.574
20
-96.6994
11
133.679
21
-96.8039
0
LINE
8
BLACK
6
CONTINUOUS
10
133.679
20
-96.8039
11
133.761
21
-96.9267
0
LINE
8
BLACK
6
CONTINUOUS
10
133.761
20
-96.9267
11
133.817
21
-97.0632
0
LINE
8
BLACK
6
CONTINUOUS
10
133.817
20
-97.0632
11
133.846
21
-97.2081
0
LINE
8
BLACK
6
CONTINUOUS
10
133.846
20
-97.2081
11
133.846
21
-97.3559
0
LINE
8
BLACK
6
CONTINUOUS
10
133.846
20
-97.3559
11
133.817
21
-97.5008
0
LINE
8
BLACK
6
CONTINUOUS
10
133.817
20
-97.5008
11
133.761
21
-97.6373
0
LINE
8
BLACK
6
CONTINUOUS
10
133.761
20
-97.6373
11
133.679
21
-97.7601
0
LINE
8
BLACK
6
CONTINUOUS
10
133.679
20
-97.7601
11
133.574
21
-97.8646
0
LINE
8
BLACK
6
CONTINUOUS
10
133.574
20
-97.8646
11
133.451
21
-97.9466
0
LINE
8
BLACK
6
CONTINUOUS
10
133.451
20
-97.9466
11
133.371
21
-97.9798
0
LINE
8
BLACK
6
CONTINUOUS
10
133.371
20
-97.9798
11
133.315
21
-98.0032
0
LINE
8
BLACK
6
CONTINUOUS
10
133.315
20
-98.0032
11
133.242
21
-98.0176
0
LINE
8
BLACK
6
CONTINUOUS
10
133.242
20
-98.0176
11
133.17
21
-98.032
0
LINE
8
BLACK
6
CONTINUOUS
10
133.17
20
-98.032
11
133.022
21
-98.032
0
LINE
8
BLACK
6
CONTINUOUS
10
133.022
20
-98.032
11
132.95
21
-98.0176
0
LINE
8
BLACK
6
CONTINUOUS
10
132.95
20
-98.0176
11
132.877
21
-98.0032
0
LINE
8
BLACK
6
CONTINUOUS
10
132.877
20
-98.0032
11
132.821
21
-97.9798
0
LINE
8
BLACK
6
CONTINUOUS
10
132.821
20
-97.9798
11
132.741
21
-97.9466
0
LINE
8
BLACK
6
CONTINUOUS
10
132.741
20
-97.9466
11
132.618
21
-97.8646
0
LINE
8
BLACK
6
CONTINUOUS
10
132.618
20
-97.8646
11
132.513
21
-97.7601
0
LINE
8
BLACK
6
CONTINUOUS
10
132.513
20
-97.7601
11
132.431
21
-97.6373
0
LINE
8
BLACK
6
CONTINUOUS
10
132.431
20
-97.6373
11
132.375
21
-97.5008
0
LINE
8
BLACK
6
CONTINUOUS
10
132.375
20
-97.5008
11
132.346
21
-97.3559
0
LINE
8
BLACK
6
CONTINUOUS
10
132.346
20
-97.3559
11
132.346
21
-97.2081
0
LINE
8
BLACK
6
CONTINUOUS
10
132.346
20
-97.2081
11
132.375
21
-97.0632
0
LINE
8
BLACK
6
CONTINUOUS
10
132.375
20
-97.0632
11
132.431
21
-96.9267
0
LINE
8
BLACK
6
CONTINUOUS
10
132.431
20
-96.9267
11
132.513
21
-96.8039
0
LINE
8
BLACK
6
CONTINUOUS
10
132.513
20
-96.8039
11
132.618
21
-96.6994
0
LINE
8
BLACK
6
CONTINUOUS
10
132.618
20
-96.6994
11
132.741
21
-96.6174
0
LINE
8
BLACK
6
CONTINUOUS
10
132.741
20
-96.6174
11
132.821
21
-96.5842
0
LINE
8
BLACK
6
CONTINUOUS
10
132.821
20
-96.5842
11
132.877
21
-96.5608
0
LINE
8
BLACK
6
CONTINUOUS
10
132.877
20
-96.5608
11
132.95
21
-96.5464
0
LINE
8
BLACK
6
CONTINUOUS
10
132.95
20
-96.5464
11
133.022
21
-96.532
0
LINE
8
BLACK
6
CONTINUOUS
10
133.022
20
-96.532
11
133.17
21
-96.532
0
LINE
8
BLACK
6
CONTINUOUS
10
133.17
20
-96.532
11
133.242
21
-96.5464
0
LINE
8
BLACK
6
CONTINUOUS
10
148.482
20
-96.5464
11
148.555
21
-96.5608
0
LINE
8
BLACK
6
CONTINUOUS
10
148.555
20
-96.5608
11
148.611
21
-96.5842
0
LINE
8
BLACK
6
CONTINUOUS
10
148.611
20
-96.5842
11
148.691
21
-96.6174
0
LINE
8
BLACK
6
CONTINUOUS
10
148.691
20
-96.6174
11
148.814
21
-96.6994
0
LINE
8
BLACK
6
CONTINUOUS
10
148.814
20
-96.6994
11
148.919
21
-96.8039
0
LINE
8
BLACK
6
CONTINUOUS
10
148.919
20
-96.8039
11
149.001
21
-96.9267
0
LINE
8
BLACK
6
CONTINUOUS
10
149.001
20
-96.9267
11
149.057
21
-97.0632
0
LINE
8
BLACK
6
CONTINUOUS
10
149.057
20
-97.0632
11
149.086
21
-97.2081
0
LINE
8
BLACK
6
CONTINUOUS
10
149.086
20
-97.2081
11
149.086
21
-97.3559
0
LINE
8
BLACK
6
CONTINUOUS
10
149.086
20
-97.3559
11
149.057
21
-97.5008
0
LINE
8
BLACK
6
CONTINUOUS
10
149.057
20
-97.5008
11
149.001
21
-97.6373
0
LINE
8
BLACK
6
CONTINUOUS
10
149.001
20
-97.6373
11
148.919
21
-97.7601
0
LINE
8
BLACK
6
CONTINUOUS
10
148.919
20
-97.7601
11
148.814
21
-97.8646
0
LINE
8
BLACK
6
CONTINUOUS
10
148.814
20
-97.8646
11
148.691
21
-97.9466
0
LINE
8
BLACK
6
CONTINUOUS
10
148.691
20
-97.9466
11
148.611
21
-97.9798
0
LINE
8
BLACK
6
CONTINUOUS
10
148.611
20
-97.9798
11
148.555
21
-98.0032
0
LINE
8
BLACK
6
CONTINUOUS
10
148.555
20
-98.0032
11
148.482
21
-98.0176
0
LINE
8
BLACK
6
CONTINUOUS
10
148.482
20
-98.0176
11
148.41
21
-98.032
0
LINE
8
BLACK
6
CONTINUOUS
10
148.41
20
-98.032
11
148.262
21
-98.032
0
LINE
8
BLACK
6
CONTINUOUS
10
148.262
20
-98.032
11
148.19
21
-98.0176
0
LINE
8
BLACK
6
CONTINUOUS
10
148.19
20
-98.0176
11
148.117
21
-98.0032
0
LINE
8
BLACK
6
CONTINUOUS
10
148.117
20
-98.0032
11
148.061
21
-97.9798
0
LINE
8
BLACK
6
CONTINUOUS
10
148.061
20
-97.9798
11
147.981
21
-97.9466
0
LINE
8
BLACK
6
CONTINUOUS
10
147.981
20
-97.9466
11
147.858
21
-97.8646
0
LINE
8
BLACK
6
CONTINUOUS
10
147.858
20
-97.8646
11
147.753
21
-97.7601
0
LINE
8
BLACK
6
CONTINUOUS
10
147.753
20
-97.7601
11
147.671
21
-97.6373
0
LINE
8
BLACK
6
CONTINUOUS
10
147.671
20
-97.6373
11
147.615
21
-97.5008
0
LINE
8
BLACK
6
CONTINUOUS
10
147.615
20
-97.5008
11
147.586
21
-97.3559
0
LINE
8
BLACK
6
CONTINUOUS
10
147.586
20
-97.3559
11
147.586
21
-97.2081
0
LINE
8
BLACK
6
CONTINUOUS
10
147.586
20
-97.2081
11
147.615
21
-97.0632
0
LINE
8
BLACK
6
CONTINUOUS
10
147.615
20
-97.0632
11
147.671
21
-96.9267
0
LINE
8
BLACK
6
CONTINUOUS
10
147.671
20
-96.9267
11
147.753
21
-96.8039
0
LINE
8
BLACK
6
CONTINUOUS
10
147.753
20
-96.8039
11
147.858
21
-96.6994
0
LINE
8
BLACK
6
CONTINUOUS
10
147.858
20
-96.6994
11
147.981
21
-96.6174
0
LINE
8
BLACK
6
CONTINUOUS
10
147.981
20
-96.6174
11
148.061
21
-96.5842
0
LINE
8
BLACK
6
CONTINUOUS
10
148.061
20
-96.5842
11
148.117
21
-96.5608
0
LINE
8
BLACK
6
CONTINUOUS
10
148.117
20
-96.5608
11
148.19
21
-96.5464
0
LINE
8
BLACK
6
CONTINUOUS
10
148.19
20
-96.5464
11
148.262
21
-96.532
0
LINE
8
BLACK
6
CONTINUOUS
10
148.262
20
-96.532
11
148.41
21
-96.532
0
LINE
8
BLACK
6
CONTINUOUS
10
148.41
20
-96.532
11
148.482
21
-96.5464
0
LINE
8
BLACK
6
CONTINUOUS
10
176.863
20
-94.7795
11
177.154
21
-94.9001
0
LINE
8
BLACK
6
CONTINUOUS
10
177.154
20
-94.9001
11
177.416
21
-95.0752
0
LINE
8
BLACK
6
CONTINUOUS
10
177.416
20
-95.0752
11
177.639
21
-95.2981
0
LINE
8
BLACK
6
CONTINUOUS
10
177.639
20
-95.2981
11
177.814
21
-95.5601
0
LINE
8
BLACK
6
CONTINUOUS
10
177.814
20
-95.5601
11
177.935
21
-95.8513
0
LINE
8
BLACK
6
CONTINUOUS
10
177.935
20
-95.8513
11
177.996
21
-96.1604
0
LINE
8
BLACK
6
CONTINUOUS
10
177.996
20
-96.1604
11
177.996
21
-96.4756
0
LINE
8
BLACK
6
CONTINUOUS
10
177.996
20
-96.4756
11
177.935
21
-96.7847
0
LINE
8
BLACK
6
CONTINUOUS
10
177.935
20
-96.7847
11
177.814
21
-97.0759
0
LINE
8
BLACK
6
CONTINUOUS
10
177.814
20
-97.0759
11
177.639
21
-97.3379
0
LINE
8
BLACK
6
CONTINUOUS
10
177.639
20
-97.3379
11
177.416
21
-97.5608
0
LINE
8
BLACK
6
CONTINUOUS
10
177.416
20
-97.5608
11
177.154
21
-97.7359
0
LINE
8
BLACK
6
CONTINUOUS
10
177.154
20
-97.7359
11
176.863
21
-97.8565
0
LINE
8
BLACK
6
CONTINUOUS
10
176.863
20
-97.8565
11
176.554
21
-97.918
0
LINE
8
BLACK
6
CONTINUOUS
10
176.554
20
-97.918
11
176.238
21
-97.918
0
LINE
8
BLACK
6
CONTINUOUS
10
176.238
20
-97.918
11
175.929
21
-97.8565
0
LINE
8
BLACK
6
CONTINUOUS
10
175.929
20
-97.8565
11
175.638
21
-97.7359
0
LINE
8
BLACK
6
CONTINUOUS
10
175.638
20
-97.7359
11
175.376
21
-97.5608
0
LINE
8
BLACK
6
CONTINUOUS
10
175.376
20
-97.5608
11
175.153
21
-97.3379
0
LINE
8
BLACK
6
CONTINUOUS
10
175.153
20
-97.3379
11
174.978
21
-97.0759
0
LINE
8
BLACK
6
CONTINUOUS
10
174.978
20
-97.0759
11
174.857
21
-96.7847
0
LINE
8
BLACK
6
CONTINUOUS
10
174.857
20
-96.7847
11
174.796
21
-96.4756
0
LINE
8
BLACK
6
CONTINUOUS
10
174.796
20
-96.4756
11
174.796
21
-96.1604
0
LINE
8
BLACK
6
CONTINUOUS
10
174.796
20
-96.1604
11
174.857
21
-95.8513
0
LINE
8
BLACK
6
CONTINUOUS
10
174.857
20
-95.8513
11
174.978
21
-95.5601
0
LINE
8
BLACK
6
CONTINUOUS
10
174.978
20
-95.5601
11
175.153
21
-95.2981
0
LINE
8
BLACK
6
CONTINUOUS
10
175.153
20
-95.2981
11
175.376
21
-95.0752
0
LINE
8
BLACK
6
CONTINUOUS
10
175.376
20
-95.0752
11
175.638
21
-94.9001
0
LINE
8
BLACK
6
CONTINUOUS
10
175.638
20
-94.9001
11
175.929
21
-94.7795
0
LINE
8
BLACK
6
CONTINUOUS
10
175.929
20
-94.7795
11
176.238
21
-94.718
0
LINE
8
BLACK
6
CONTINUOUS
10
176.238
20
-94.718
11
176.554
21
-94.718
0
LINE
8
BLACK
6
CONTINUOUS
10
176.554
20
-94.718
11
176.863
21
-94.7795
0
LINE
8
BLACK
6
CONTINUOUS
10
148.482
20
-94.0064
11
148.555
21
-94.0208
0
LINE
8
BLACK
6
CONTINUOUS
10
148.555
20
-94.0208
11
148.611
21
-94.0442
0
LINE
8
BLACK
6
CONTINUOUS
10
148.611
20
-94.0442
11
148.691
21
-94.0774
0
LINE
8
BLACK
6
CONTINUOUS
10
148.691
20
-94.0774
11
148.814
21
-94.1594
0
LINE
8
BLACK
6
CONTINUOUS
10
148.814
20
-94.1594
11
148.919
21
-94.2639
0
LINE
8
BLACK
6
CONTINUOUS
10
148.919
20
-94.2639
11
149.001
21
-94.3867
0
LINE
8
BLACK
6
CONTINUOUS
10
149.001
20
-94.3867
11
149.057
21
-94.5232
0
LINE
8
BLACK
6
CONTINUOUS
10
149.057
20
-94.5232
11
149.086
21
-94.6681
0
LINE
8
BLACK
6
CONTINUOUS
10
149.086
20
-94.6681
11
149.086
21
-94.8159
0
LINE
8
BLACK
6
CONTINUOUS
10
149.086
20
-94.8159
11
149.057
21
-94.9608
0
LINE
8
BLACK
6
CONTINUOUS
10
149.057
20
-94.9608
11
149.001
21
-95.0973
0
LINE
8
BLACK
6
CONTINUOUS
10
149.001
20
-95.0973
11
148.919
21
-95.2201
0
LINE
8
BLACK
6
CONTINUOUS
10
148.919
20
-95.2201
11
148.814
21
-95.3246
0
LINE
8
BLACK
6
CONTINUOUS
10
148.814
20
-95.3246
11
148.691
21
-95.4066
0
LINE
8
BLACK
6
CONTINUOUS
10
148.691
20
-95.4066
11
148.611
21
-95.4398
0
LINE
8
BLACK
6
CONTINUOUS
10
148.611
20
-95.4398
11
148.555
21
-95.4632
0
LINE
8
BLACK
6
CONTINUOUS
10
148.555
20
-95.4632
11
148.482
21
-95.4776
0
LINE
8
BLACK
6
CONTINUOUS
10
148.482
20
-95.4776
11
148.41
21
-95.492
0
LINE
8
BLACK
6
CONTINUOUS
10
148.41
20
-95.492
11
148.262
21
-95.492
0
LINE
8
BLACK
6
CONTINUOUS
10
148.262
20
-95.492
11
148.19
21
-95.4776
0
LINE
8
BLACK
6
CONTINUOUS
10
148.19
20
-95.4776
11
148.117
21
-95.4632
0
LINE
8
BLACK
6
CONTINUOUS
10
148.117
20
-95.4632
11
148.061
21
-95.4398
0
LINE
8
BLACK
6
CONTINUOUS
10
148.061
20
-95.4398
11
147.981
21
-95.4066
0
LINE
8
BLACK
6
CONTINUOUS
10
147.981
20
-95.4066
11
147.858
21
-95.3246
0
LINE
8
BLACK
6
CONTINUOUS
10
147.858
20
-95.3246
11
147.753
21
-95.2201
0
LINE
8
BLACK
6
CONTINUOUS
10
147.753
20
-95.2201
11
147.671
21
-95.0973
0
LINE
8
BLACK
6
CONTINUOUS
10
147.671
20
-95.0973
11
147.615
21
-94.9608
0
LINE
8
BLACK
6
CONTINUOUS
10
147.615
20
-94.9608
11
147.586
21
-94.8159
0
LINE
8
BLACK
6
CONTINUOUS
10
147.586
20
-94.8159
11
147.586
21
-94.6681
0
LINE
8
BLACK
6
CONTINUOUS
10
147.586
20
-94.6681
11
147.615
21
-94.5232
0
LINE
8
BLACK
6
CONTINUOUS
10
147.615
20
-94.5232
11
147.671
21
-94.3867
0
LINE
8
BLACK
6
CONTINUOUS
10
147.671
20
-94.3867
11
147.753
21
-94.2639
0
LINE
8
BLACK
6
CONTINUOUS
10
147.753
20
-94.2639
11
147.858
21
-94.1594
0
LINE
8
BLACK
6
CONTINUOUS
10
147.858
20
-94.1594
11
147.981
21
-94.0774
0
LINE
8
BLACK
6
CONTINUOUS
10
147.981
20
-94.0774
11
148.061
21
-94.0442
0
LINE
8
BLACK
6
CONTINUOUS
10
148.061
20
-94.0442
11
148.117
21
-94.0208
0
LINE
8
BLACK
6
CONTINUOUS
10
148.117
20
-94.0208
11
148.19
21
-94.0064
0
LINE
8
BLACK
6
CONTINUOUS
10
148.19
20
-94.0064
11
148.262
21
-93.992
0
LINE
8
BLACK
6
CONTINUOUS
10
148.262
20
-93.992
11
148.41
21
-93.992
0
LINE
8
BLACK
6
CONTINUOUS
10
148.41
20
-93.992
11
148.482
21
-94.0064
0
LINE
8
BLACK
6
CONTINUOUS
10
133.242
20
-94.0064
11
133.315
21
-94.0208
0
LINE
8
BLACK
6
CONTINUOUS
10
133.315
20
-94.0208
11
133.371
21
-94.0442
0
LINE
8
BLACK
6
CONTINUOUS
10
133.371
20
-94.0442
11
133.451
21
-94.0774
0
LINE
8
BLACK
6
CONTINUOUS
10
133.451
20
-94.0774
11
133.574
21
-94.1594
0
LINE
8
BLACK
6
CONTINUOUS
10
133.574
20
-94.1594
11
133.679
21
-94.2639
0
LINE
8
BLACK
6
CONTINUOUS
10
133.679
20
-94.2639
11
133.761
21
-94.3867
0
LINE
8
BLACK
6
CONTINUOUS
10
133.761
20
-94.3867
11
133.817
21
-94.5232
0
LINE
8
BLACK
6
CONTINUOUS
10
133.817
20
-94.5232
11
133.846
21
-94.6681
0
LINE
8
BLACK
6
CONTINUOUS
10
133.846
20
-94.6681
11
133.846
21
-94.8159
0
LINE
8
BLACK
6
CONTINUOUS
10
133.846
20
-94.8159
11
133.817
21
-94.9608
0
LINE
8
BLACK
6
CONTINUOUS
10
133.817
20
-94.9608
11
133.761
21
-95.0973
0
LINE
8
BLACK
6
CONTINUOUS
10
133.761
20
-95.0973
11
133.679
21
-95.2201
0
LINE
8
BLACK
6
CONTINUOUS
10
133.679
20
-95.2201
11
133.574
21
-95.3246
0
LINE
8
BLACK
6
CONTINUOUS
10
133.574
20
-95.3246
11
133.451
21
-95.4066
0
LINE
8
BLACK
6
CONTINUOUS
10
133.451
20
-95.4066
11
133.371
21
-95.4398
0
LINE
8
BLACK
6
CONTINUOUS
10
133.371
20
-95.4398
11
133.315
21
-95.4632
0
LINE
8
BLACK
6
CONTINUOUS
10
133.315
20
-95.4632
11
133.242
21
-95.4776
0
LINE
8
BLACK
6
CONTINUOUS
10
133.242
20
-95.4776
11
133.17
21
-95.492
0
LINE
8
BLACK
6
CONTINUOUS
10
133.17
20
-95.492
11
133.022
21
-95.492
0
LINE
8
BLACK
6
CONTINUOUS
10
133.022
20
-95.492
11
132.95
21
-95.4776
0
LINE
8
BLACK
6
CONTINUOUS
10
132.95
20
-95.4776
11
132.877
21
-95.4632
0
LINE
8
BLACK
6
CONTINUOUS
10
132.877
20
-95.4632
11
132.821
21
-95.4398
0
LINE
8
BLACK
6
CONTINUOUS
10
132.821
20
-95.4398
11
132.741
21
-95.4066
0
LINE
8
BLACK
6
CONTINUOUS
10
132.741
20
-95.4066
11
132.618
21
-95.3246
0
LINE
8
BLACK
6
CONTINUOUS
10
132.618
20
-95.3246
11
132.513
21
-95.2201
0
LINE
8
BLACK
6
CONTINUOUS
10
132.513
20
-95.2201
11
132.431
21
-95.0973
0
LINE
8
BLACK
6
CONTINUOUS
10
132.431
20
-95.0973
11
132.375
21
-94.9608
0
LINE
8
BLACK
6
CONTINUOUS
10
132.375
20
-94.9608
11
132.346
21
-94.8159
0
LINE
8
BLACK
6
CONTINUOUS
10
132.346
20
-94.8159
11
132.346
21
-94.6681
0
LINE
8
BLACK
6
CONTINUOUS
10
132.346
20
-94.6681
11
132.375
21
-94.5232
0
LINE
8
BLACK
6
CONTINUOUS
10
132.375
20
-94.5232
11
132.431
21
-94.3867
0
LINE
8
BLACK
6
CONTINUOUS
10
132.431
20
-94.3867
11
132.513
21
-94.2639
0
LINE
8
BLACK
6
CONTINUOUS
10
132.513
20
-94.2639
11
132.618
21
-94.1594
0
LINE
8
BLACK
6
CONTINUOUS
10
132.618
20
-94.1594
11
132.741
21
-94.0774
0
LINE
8
BLACK
6
CONTINUOUS
10
132.741
20
-94.0774
11
132.821
21
-94.0442
0
LINE
8
BLACK
6
CONTINUOUS
10
132.821
20
-94.0442
11
132.877
21
-94.0208
0
LINE
8
BLACK
6
CONTINUOUS
10
132.877
20
-94.0208
11
132.95
21
-94.0064
0
LINE
8
BLACK
6
CONTINUOUS
10
132.95
20
-94.0064
11
133.022
21
-93.992
0
LINE
8
BLACK
6
CONTINUOUS
10
133.022
20
-93.992
11
133.17
21
-93.992
0
LINE
8
BLACK
6
CONTINUOUS
10
133.17
20
-93.992
11
133.242
21
-94.0064
0
LINE
8
BLACK
6
CONTINUOUS
10
184.896
20
-94.218
11
182.896
21
-94.218
0
LINE
8
BLACK
6
CONTINUOUS
10
182.896
20
-94.218
11
182.896
21
-92.218
0
LINE
8
BLACK
6
CONTINUOUS
10
182.896
20
-92.218
11
184.896
21
-92.218
0
LINE
8
BLACK
6
CONTINUOUS
10
184.896
20
-92.218
11
184.896
21
-94.218
0
LINE
8
BLACK
6
CONTINUOUS
10
169.572
20
-92.2334
11
169.688
21
-92.2564
0
LINE
8
BLACK
6
CONTINUOUS
10
169.688
20
-92.2564
11
169.87
21
-92.3318
0
LINE
8
BLACK
6
CONTINUOUS
10
169.87
20
-92.3318
11
170.033
21
-92.4412
0
LINE
8
BLACK
6
CONTINUOUS
10
170.033
20
-92.4412
11
170.173
21
-92.5805
0
LINE
8
BLACK
6
CONTINUOUS
10
170.173
20
-92.5805
11
170.282
21
-92.7443
0
LINE
8
BLACK
6
CONTINUOUS
10
170.282
20
-92.7443
11
170.358
21
-92.9263
0
LINE
8
BLACK
6
CONTINUOUS
10
170.358
20
-92.9263
11
170.381
21
-93.0422
0
LINE
8
BLACK
6
CONTINUOUS
10
170.381
20
-93.0422
11
170.393
21
-93.102
0
LINE
8
BLACK
6
CONTINUOUS
10
170.393
20
-93.102
11
170.396
21
-93.1195
0
LINE
8
BLACK
6
CONTINUOUS
10
170.396
20
-93.1195
11
170.396
21
-93.3165
0
LINE
8
BLACK
6
CONTINUOUS
10
170.396
20
-93.3165
11
170.358
21
-93.5097
0
LINE
8
BLACK
6
CONTINUOUS
10
170.358
20
-93.5097
11
170.282
21
-93.6917
0
LINE
8
BLACK
6
CONTINUOUS
10
170.282
20
-93.6917
11
170.173
21
-93.8555
0
LINE
8
BLACK
6
CONTINUOUS
10
170.173
20
-93.8555
11
170.033
21
-93.9948
0
LINE
8
BLACK
6
CONTINUOUS
10
170.033
20
-93.9948
11
169.87
21
-94.1042
0
LINE
8
BLACK
6
CONTINUOUS
10
169.87
20
-94.1042
11
169.688
21
-94.1796
0
LINE
8
BLACK
6
CONTINUOUS
10
169.688
20
-94.1796
11
169.572
21
-94.2026
0
LINE
8
BLACK
6
CONTINUOUS
10
169.572
20
-94.2026
11
169.494
21
-94.218
0
LINE
8
BLACK
6
CONTINUOUS
10
169.494
20
-94.218
11
169.298
21
-94.218
0
LINE
8
BLACK
6
CONTINUOUS
10
169.298
20
-94.218
11
169.22
21
-94.2026
0
LINE
8
BLACK
6
CONTINUOUS
10
169.22
20
-94.2026
11
169.104
21
-94.1796
0
LINE
8
BLACK
6
CONTINUOUS
10
169.104
20
-94.1796
11
168.922
21
-94.1042
0
LINE
8
BLACK
6
CONTINUOUS
10
168.922
20
-94.1042
11
168.759
21
-93.9948
0
LINE
8
BLACK
6
CONTINUOUS
10
168.759
20
-93.9948
11
168.619
21
-93.8555
0
LINE
8
BLACK
6
CONTINUOUS
10
168.619
20
-93.8555
11
168.51
21
-93.6917
0
LINE
8
BLACK
6
CONTINUOUS
10
168.51
20
-93.6917
11
168.434
21
-93.5097
0
LINE
8
BLACK
6
CONTINUOUS
10
168.434
20
-93.5097
11
168.396
21
-93.3165
0
LINE
8
BLACK
6
CONTINUOUS
10
168.396
20
-93.3165
11
168.396
21
-93.1195
0
LINE
8
BLACK
6
CONTINUOUS
10
168.396
20
-93.1195
11
168.399
21
-93.102
0
LINE
8
BLACK
6
CONTINUOUS
10
168.399
20
-93.102
11
168.411
21
-93.0422
0
LINE
8
BLACK
6
CONTINUOUS
10
168.411
20
-93.0422
11
168.434
21
-92.9263
0
LINE
8
BLACK
6
CONTINUOUS
10
168.434
20
-92.9263
11
168.51
21
-92.7443
0
LINE
8
BLACK
6
CONTINUOUS
10
168.51
20
-92.7443
11
168.619
21
-92.5805
0
LINE
8
BLACK
6
CONTINUOUS
10
168.619
20
-92.5805
11
168.759
21
-92.4412
0
LINE
8
BLACK
6
CONTINUOUS
10
168.759
20
-92.4412
11
168.922
21
-92.3318
0
LINE
8
BLACK
6
CONTINUOUS
10
168.922
20
-92.3318
11
169.104
21
-92.2564
0
LINE
8
BLACK
6
CONTINUOUS
10
169.104
20
-92.2564
11
169.22
21
-92.2334
0
LINE
8
BLACK
6
CONTINUOUS
10
169.22
20
-92.2334
11
169.298
21
-92.218
0
LINE
8
BLACK
6
CONTINUOUS
10
169.298
20
-92.218
11
169.494
21
-92.218
0
LINE
8
BLACK
6
CONTINUOUS
10
169.494
20
-92.218
11
169.572
21
-92.2334
0
LINE
8
BLACK
6
CONTINUOUS
10
113.93
20
-93.102
11
112.13
21
-93.102
0
LINE
8
BLACK
6
CONTINUOUS
10
112.13
20
-93.102
11
112.13
21
-91.302
0
LINE
8
BLACK
6
CONTINUOUS
10
112.13
20
-91.302
11
113.93
21
-91.302
0
LINE
8
BLACK
6
CONTINUOUS
10
113.93
20
-91.302
11
113.93
21
-93.102
0
LINE
8
BLACK
6
CONTINUOUS
10
148.482
20
-91.4664
11
148.555
21
-91.4808
0
LINE
8
BLACK
6
CONTINUOUS
10
148.555
20
-91.4808
11
148.588
21
-91.4948
0
LINE
8
BLACK
6
CONTINUOUS
10
148.588
20
-91.4948
11
148.691
21
-91.5374
0
LINE
8
BLACK
6
CONTINUOUS
10
148.691
20
-91.5374
11
148.814
21
-91.6194
0
LINE
8
BLACK
6
CONTINUOUS
10
148.814
20
-91.6194
11
148.919
21
-91.7239
0
LINE
8
BLACK
6
CONTINUOUS
10
148.919
20
-91.7239
11
149.001
21
-91.8467
0
LINE
8
BLACK
6
CONTINUOUS
10
149.001
20
-91.8467
11
149.057
21
-91.9832
0
LINE
8
BLACK
6
CONTINUOUS
10
149.057
20
-91.9832
11
149.086
21
-92.1281
0
LINE
8
BLACK
6
CONTINUOUS
10
149.086
20
-92.1281
11
149.086
21
-92.2759
0
LINE
8
BLACK
6
CONTINUOUS
10
149.086
20
-92.2759
11
149.057
21
-92.4208
0
LINE
8
BLACK
6
CONTINUOUS
10
149.057
20
-92.4208
11
149.001
21
-92.5573
0
LINE
8
BLACK
6
CONTINUOUS
10
149.001
20
-92.5573
11
148.919
21
-92.6801
0
LINE
8
BLACK
6
CONTINUOUS
10
148.919
20
-92.6801
11
148.814
21
-92.7846
0
LINE
8
BLACK
6
CONTINUOUS
10
148.814
20
-92.7846
11
148.691
21
-92.8666
0
LINE
8
BLACK
6
CONTINUOUS
10
148.691
20
-92.8666
11
148.611
21
-92.8998
0
LINE
8
BLACK
6
CONTINUOUS
10
148.611
20
-92.8998
11
148.555
21
-92.9232
0
LINE
8
BLACK
6
CONTINUOUS
10
148.555
20
-92.9232
11
148.482
21
-92.9376
0
LINE
8
BLACK
6
CONTINUOUS
10
148.482
20
-92.9376
11
148.41
21
-92.952
0
LINE
8
BLACK
6
CONTINUOUS
10
148.41
20
-92.952
11
148.262
21
-92.952
0
LINE
8
BLACK
6
CONTINUOUS
10
148.262
20
-92.952
11
148.19
21
-92.9376
0
LINE
8
BLACK
6
CONTINUOUS
10
148.19
20
-92.9376
11
148.117
21
-92.9232
0
LINE
8
BLACK
6
CONTINUOUS
10
148.117
20
-92.9232
11
148.061
21
-92.8998
0
LINE
8
BLACK
6
CONTINUOUS
10
148.061
20
-92.8998
11
147.981
21
-92.8666
0
LINE
8
BLACK
6
CONTINUOUS
10
147.981
20
-92.8666
11
147.858
21
-92.7846
0
LINE
8
BLACK
6
CONTINUOUS
10
147.858
20
-92.7846
11
147.753
21
-92.6801
0
LINE
8
BLACK
6
CONTINUOUS
10
147.753
20
-92.6801
11
147.671
21
-92.5573
0
LINE
8
BLACK
6
CONTINUOUS
10
147.671
20
-92.5573
11
147.615
21
-92.4208
0
LINE
8
BLACK
6
CONTINUOUS
10
147.615
20
-92.4208
11
147.586
21
-92.2759
0
LINE
8
BLACK
6
CONTINUOUS
10
147.586
20
-92.2759
11
147.586
21
-92.1281
0
LINE
8
BLACK
6
CONTINUOUS
10
147.586
20
-92.1281
11
147.615
21
-91.9832
0
LINE
8
BLACK
6
CONTINUOUS
10
147.615
20
-91.9832
11
147.671
21
-91.8467
0
LINE
8
BLACK
6
CONTINUOUS
10
147.671
20
-91.8467
11
147.753
21
-91.7239
0
LINE
8
BLACK
6
CONTINUOUS
10
147.753
20
-91.7239
11
147.858
21
-91.6194
0
LINE
8
BLACK
6
CONTINUOUS
10
147.858
20
-91.6194
11
147.981
21
-91.5374
0
LINE
8
BLACK
6
CONTINUOUS
10
147.981
20
-91.5374
11
148.084
21
-91.4948
0
LINE
8
BLACK
6
CONTINUOUS
10
148.084
20
-91.4948
11
148.117
21
-91.4808
0
LINE
8
BLACK
6
CONTINUOUS
10
148.117
20
-91.4808
11
148.19
21
-91.4664
0
LINE
8
BLACK
6
CONTINUOUS
10
148.19
20
-91.4664
11
148.262
21
-91.452
0
LINE
8
BLACK
6
CONTINUOUS
10
148.262
20
-91.452
11
148.41
21
-91.452
0
LINE
8
BLACK
6
CONTINUOUS
10
148.41
20
-91.452
11
148.482
21
-91.4664
0
LINE
8
BLACK
6
CONTINUOUS
10
133.242
20
-91.4664
11
133.315
21
-91.4808
0
LINE
8
BLACK
6
CONTINUOUS
10
133.315
20
-91.4808
11
133.348
21
-91.4948
0
LINE
8
BLACK
6
CONTINUOUS
10
133.348
20
-91.4948
11
133.451
21
-91.5374
0
LINE
8
BLACK
6
CONTINUOUS
10
133.451
20
-91.5374
11
133.574
21
-91.6194
0
LINE
8
BLACK
6
CONTINUOUS
10
133.574
20
-91.6194
11
133.679
21
-91.7239
0
LINE
8
BLACK
6
CONTINUOUS
10
133.679
20
-91.7239
11
133.761
21
-91.8467
0
LINE
8
BLACK
6
CONTINUOUS
10
133.761
20
-91.8467
11
133.817
21
-91.9832
0
LINE
8
BLACK
6
CONTINUOUS
10
133.817
20
-91.9832
11
133.846
21
-92.1281
0
LINE
8
BLACK
6
CONTINUOUS
10
133.846
20
-92.1281
11
133.846
21
-92.2759
0
LINE
8
BLACK
6
CONTINUOUS
10
133.846
20
-92.2759
11
133.817
21
-92.4208
0
LINE
8
BLACK
6
CONTINUOUS
10
133.817
20
-92.4208
11
133.761
21
-92.5573
0
LINE
8
BLACK
6
CONTINUOUS
10
133.761
20
-92.5573
11
133.679
21
-92.6801
0
LINE
8
BLACK
6
CONTINUOUS
10
133.679
20
-92.6801
11
133.574
21
-92.7846
0
LINE
8
BLACK
6
CONTINUOUS
10
133.574
20
-92.7846
11
133.451
21
-92.8666
0
LINE
8
BLACK
6
CONTINUOUS
10
133.451
20
-92.8666
11
133.371
21
-92.8998
0
LINE
8
BLACK
6
CONTINUOUS
10
133.371
20
-92.8998
11
133.315
21
-92.9232
0
LINE
8
BLACK
6
CONTINUOUS
10
133.315
20
-92.9232
11
133.242
21
-92.9376
0
LINE
8
BLACK
6
CONTINUOUS
10
133.242
20
-92.9376
11
133.17
21
-92.952
0
LINE
8
BLACK
6
CONTINUOUS
10
133.17
20
-92.952
11
133.022
21
-92.952
0
LINE
8
BLACK
6
CONTINUOUS
10
133.022
20
-92.952
11
132.95
21
-92.9376
0
LINE
8
BLACK
6
CONTINUOUS
10
132.95
20
-92.9376
11
132.877
21
-92.9232
0
LINE
8
BLACK
6
CONTINUOUS
10
132.877
20
-92.9232
11
132.821
21
-92.8998
0
LINE
8
BLACK
6
CONTINUOUS
10
132.821
20
-92.8998
11
132.741
21
-92.8666
0
LINE
8
BLACK
6
CONTINUOUS
10
132.741
20
-92.8666
11
132.618
21
-92.7846
0
LINE
8
BLACK
6
CONTINUOUS
10
132.618
20
-92.7846
11
132.513
21
-92.6801
0
LINE
8
BLACK
6
CONTINUOUS
10
132.513
20
-92.6801
11
132.431
21
-92.5573
0
LINE
8
BLACK
6
CONTINUOUS
10
132.431
20
-92.5573
11
132.375
21
-92.4208
0
LINE
8
BLACK
6
CONTINUOUS
10
132.375
20
-92.4208
11
132.346
21
-92.2759
0
LINE
8
BLACK
6
CONTINUOUS
10
132.346
20
-92.2759
11
132.346
21
-92.1281
0
LINE
8
BLACK
6
CONTINUOUS
10
132.346
20
-92.1281
11
132.375
21
-91.9832
0
LINE
8
BLACK
6
CONTINUOUS
10
132.375
20
-91.9832
11
132.431
21
-91.8467
0
LINE
8
BLACK
6
CONTINUOUS
10
132.431
20
-91.8467
11
132.513
21
-91.7239
0
LINE
8
BLACK
6
CONTINUOUS
10
132.513
20
-91.7239
11
132.618
21
-91.6194
0
LINE
8
BLACK
6
CONTINUOUS
10
132.618
20
-91.6194
11
132.741
21
-91.5374
0
LINE
8
BLACK
6
CONTINUOUS
10
132.741
20
-91.5374
11
132.844
21
-91.4948
0
LINE
8
BLACK
6
CONTINUOUS
10
132.844
20
-91.4948
11
132.877
21
-91.4808
0
LINE
8
BLACK
6
CONTINUOUS
10
132.877
20
-91.4808
11
132.95
21
-91.4664
0
LINE
8
BLACK
6
CONTINUOUS
10
132.95
20
-91.4664
11
133.022
21
-91.452
0
LINE
8
BLACK
6
CONTINUOUS
10
133.022
20
-91.452
11
133.17
21
-91.452
0
LINE
8
BLACK
6
CONTINUOUS
10
133.17
20
-91.452
11
133.242
21
-91.4664
0
LINE
8
BLACK
6
CONTINUOUS
10
184.072
20
-89.7334
11
184.188
21
-89.7564
0
LINE
8
BLACK
6
CONTINUOUS
10
184.188
20
-89.7564
11
184.37
21
-89.8318
0
LINE
8
BLACK
6
CONTINUOUS
10
184.37
20
-89.8318
11
184.533
21
-89.9412
0
LINE
8
BLACK
6
CONTINUOUS
10
184.533
20
-89.9412
11
184.673
21
-90.0805
0
LINE
8
BLACK
6
CONTINUOUS
10
184.673
20
-90.0805
11
184.782
21
-90.2443
0
LINE
8
BLACK
6
CONTINUOUS
10
184.782
20
-90.2443
11
184.858
21
-90.4263
0
LINE
8
BLACK
6
CONTINUOUS
10
184.858
20
-90.4263
11
184.896
21
-90.6195
0
LINE
8
BLACK
6
CONTINUOUS
10
184.896
20
-90.6195
11
184.896
21
-90.8165
0
LINE
8
BLACK
6
CONTINUOUS
10
184.896
20
-90.8165
11
184.858
21
-91.0097
0
LINE
8
BLACK
6
CONTINUOUS
10
184.858
20
-91.0097
11
184.782
21
-91.1917
0
LINE
8
BLACK
6
CONTINUOUS
10
184.782
20
-91.1917
11
184.673
21
-91.3555
0
LINE
8
BLACK
6
CONTINUOUS
10
184.673
20
-91.3555
11
184.533
21
-91.4948
0
LINE
8
BLACK
6
CONTINUOUS
10
184.533
20
-91.4948
11
184.37
21
-91.6042
0
LINE
8
BLACK
6
CONTINUOUS
10
184.37
20
-91.6042
11
184.188
21
-91.6796
0
LINE
8
BLACK
6
CONTINUOUS
10
184.188
20
-91.6796
11
184.072
21
-91.7026
0
LINE
8
BLACK
6
CONTINUOUS
10
184.072
20
-91.7026
11
183.994
21
-91.718
0
LINE
8
BLACK
6
CONTINUOUS
10
183.994
20
-91.718
11
183.798
21
-91.718
0
LINE
8
BLACK
6
CONTINUOUS
10
183.798
20
-91.718
11
183.72
21
-91.7026
0
LINE
8
BLACK
6
CONTINUOUS
10
183.72
20
-91.7026
11
183.604
21
-91.6796
0
LINE
8
BLACK
6
CONTINUOUS
10
183.604
20
-91.6796
11
183.422
21
-91.6042
0
LINE
8
BLACK
6
CONTINUOUS
10
183.422
20
-91.6042
11
183.259
21
-91.4948
0
LINE
8
BLACK
6
CONTINUOUS
10
183.259
20
-91.4948
11
183.119
21
-91.3555
0
LINE
8
BLACK
6
CONTINUOUS
10
183.119
20
-91.3555
11
183.01
21
-91.1917
0
LINE
8
BLACK
6
CONTINUOUS
10
183.01
20
-91.1917
11
182.934
21
-91.0097
0
LINE
8
BLACK
6
CONTINUOUS
10
182.934
20
-91.0097
11
182.896
21
-90.8165
0
LINE
8
BLACK
6
CONTINUOUS
10
182.896
20
-90.8165
11
182.896
21
-90.6195
0
LINE
8
BLACK
6
CONTINUOUS
10
182.896
20
-90.6195
11
182.934
21
-90.4263
0
LINE
8
BLACK
6
CONTINUOUS
10
182.934
20
-90.4263
11
183.01
21
-90.2443
0
LINE
8
BLACK
6
CONTINUOUS
10
183.01
20
-90.2443
11
183.119
21
-90.0805
0
LINE
8
BLACK
6
CONTINUOUS
10
183.119
20
-90.0805
11
183.259
21
-89.9412
0
LINE
8
BLACK
6
CONTINUOUS
10
183.259
20
-89.9412
11
183.422
21
-89.8318
0
LINE
8
BLACK
6
CONTINUOUS
10
183.422
20
-89.8318
11
183.604
21
-89.7564
0
LINE
8
BLACK
6
CONTINUOUS
10
183.604
20
-89.7564
11
183.72
21
-89.7334
0
LINE
8
BLACK
6
CONTINUOUS
10
183.72
20
-89.7334
11
183.798
21
-89.718
0
LINE
8
BLACK
6
CONTINUOUS
10
183.798
20
-89.718
11
183.994
21
-89.718
0
LINE
8
BLACK
6
CONTINUOUS
10
183.994
20
-89.718
11
184.072
21
-89.7334
0
LINE
8
BLACK
6
CONTINUOUS
10
113.293
20
-88.7966
11
113.456
21
-88.8644
0
LINE
8
BLACK
6
CONTINUOUS
10
113.456
20
-88.8644
11
113.604
21
-88.9629
0
LINE
8
BLACK
6
CONTINUOUS
10
113.604
20
-88.9629
11
113.729
21
-89.0883
0
LINE
8
BLACK
6
CONTINUOUS
10
113.729
20
-89.0883
11
113.828
21
-89.2357
0
LINE
8
BLACK
6
CONTINUOUS
10
113.828
20
-89.2357
11
113.895
21
-89.3995
0
LINE
8
BLACK
6
CONTINUOUS
10
113.895
20
-89.3995
11
113.93
21
-89.5734
0
LINE
8
BLACK
6
CONTINUOUS
10
113.93
20
-89.5734
11
113.93
21
-89.7506
0
LINE
8
BLACK
6
CONTINUOUS
10
113.93
20
-89.7506
11
113.895
21
-89.9245
0
LINE
8
BLACK
6
CONTINUOUS
10
113.895
20
-89.9245
11
113.828
21
-90.0883
0
LINE
8
BLACK
6
CONTINUOUS
10
113.828
20
-90.0883
11
113.729
21
-90.2357
0
LINE
8
BLACK
6
CONTINUOUS
10
113.729
20
-90.2357
11
113.604
21
-90.3611
0
LINE
8
BLACK
6
CONTINUOUS
10
113.604
20
-90.3611
11
113.456
21
-90.4596
0
LINE
8
BLACK
6
CONTINUOUS
10
113.456
20
-90.4596
11
113.293
21
-90.5274
0
LINE
8
BLACK
6
CONTINUOUS
10
113.293
20
-90.5274
11
113.119
21
-90.562
0
LINE
8
BLACK
6
CONTINUOUS
10
113.119
20
-90.562
11
112.941
21
-90.562
0
LINE
8
BLACK
6
CONTINUOUS
10
112.941
20
-90.562
11
112.767
21
-90.5274
0
LINE
8
BLACK
6
CONTINUOUS
10
112.767
20
-90.5274
11
112.604
21
-90.4596
0
LINE
8
BLACK
6
CONTINUOUS
10
112.604
20
-90.4596
11
112.456
21
-90.3611
0
LINE
8
BLACK
6
CONTINUOUS
10
112.456
20
-90.3611
11
112.331
21
-90.2357
0
LINE
8
BLACK
6
CONTINUOUS
10
112.331
20
-90.2357
11
112.232
21
-90.0883
0
LINE
8
BLACK
6
CONTINUOUS
10
112.232
20
-90.0883
11
112.165
21
-89.9245
0
LINE
8
BLACK
6
CONTINUOUS
10
112.165
20
-89.9245
11
112.13
21
-89.7506
0
LINE
8
BLACK
6
CONTINUOUS
10
112.13
20
-89.7506
11
112.13
21
-89.5734
0
LINE
8
BLACK
6
CONTINUOUS
10
112.13
20
-89.5734
11
112.165
21
-89.3995
0
LINE
8
BLACK
6
CONTINUOUS
10
112.165
20
-89.3995
11
112.232
21
-89.2357
0
LINE
8
BLACK
6
CONTINUOUS
10
112.232
20
-89.2357
11
112.331
21
-89.0883
0
LINE
8
BLACK
6
CONTINUOUS
10
112.331
20
-89.0883
11
112.456
21
-88.9629
0
LINE
8
BLACK
6
CONTINUOUS
10
112.456
20
-88.9629
11
112.604
21
-88.8644
0
LINE
8
BLACK
6
CONTINUOUS
10
112.604
20
-88.8644
11
112.767
21
-88.7966
0
LINE
8
BLACK
6
CONTINUOUS
10
112.767
20
-88.7966
11
112.941
21
-88.762
0
LINE
8
BLACK
6
CONTINUOUS
10
112.941
20
-88.762
11
113.119
21
-88.762
0
LINE
8
BLACK
6
CONTINUOUS
10
113.119
20
-88.762
11
113.293
21
-88.7966
0
LINE
8
BLACK
6
CONTINUOUS
10
133.242
20
-88.9264
11
133.315
21
-88.9408
0
LINE
8
BLACK
6
CONTINUOUS
10
133.315
20
-88.9408
11
133.368
21
-88.9629
0
LINE
8
BLACK
6
CONTINUOUS
10
133.368
20
-88.9629
11
133.451
21
-88.9974
0
LINE
8
BLACK
6
CONTINUOUS
10
133.451
20
-88.9974
11
133.574
21
-89.0794
0
LINE
8
BLACK
6
CONTINUOUS
10
133.574
20
-89.0794
11
133.679
21
-89.1839
0
LINE
8
BLACK
6
CONTINUOUS
10
133.679
20
-89.1839
11
133.761
21
-89.3067
0
LINE
8
BLACK
6
CONTINUOUS
10
133.761
20
-89.3067
11
133.817
21
-89.4432
0
LINE
8
BLACK
6
CONTINUOUS
10
133.817
20
-89.4432
11
133.846
21
-89.5881
0
LINE
8
BLACK
6
CONTINUOUS
10
133.846
20
-89.5881
11
133.846
21
-89.7359
0
LINE
8
BLACK
6
CONTINUOUS
10
133.846
20
-89.7359
11
133.817
21
-89.8808
0
LINE
8
BLACK
6
CONTINUOUS
10
133.817
20
-89.8808
11
133.761
21
-90.0173
0
LINE
8
BLACK
6
CONTINUOUS
10
133.761
20
-90.0173
11
133.679
21
-90.1401
0
LINE
8
BLACK
6
CONTINUOUS
10
133.679
20
-90.1401
11
133.574
21
-90.2446
0
LINE
8
BLACK
6
CONTINUOUS
10
133.574
20
-90.2446
11
133.451
21
-90.3266
0
LINE
8
BLACK
6
CONTINUOUS
10
133.451
20
-90.3266
11
133.371
21
-90.3598
0
LINE
8
BLACK
6
CONTINUOUS
10
133.371
20
-90.3598
11
133.315
21
-90.3832
0
LINE
8
BLACK
6
CONTINUOUS
10
133.315
20
-90.3832
11
133.242
21
-90.3976
0
LINE
8
BLACK
6
CONTINUOUS
10
133.242
20
-90.3976
11
133.17
21
-90.412
0
LINE
8
BLACK
6
CONTINUOUS
10
133.17
20
-90.412
11
133.022
21
-90.412
0
LINE
8
BLACK
6
CONTINUOUS
10
133.022
20
-90.412
11
132.95
21
-90.3976
0
LINE
8
BLACK
6
CONTINUOUS
10
132.95
20
-90.3976
11
132.877
21
-90.3832
0
LINE
8
BLACK
6
CONTINUOUS
10
132.877
20
-90.3832
11
132.821
21
-90.3598
0
LINE
8
BLACK
6
CONTINUOUS
10
132.821
20
-90.3598
11
132.741
21
-90.3266
0
LINE
8
BLACK
6
CONTINUOUS
10
132.741
20
-90.3266
11
132.618
21
-90.2446
0
LINE
8
BLACK
6
CONTINUOUS
10
132.618
20
-90.2446
11
132.513
21
-90.1401
0
LINE
8
BLACK
6
CONTINUOUS
10
132.513
20
-90.1401
11
132.431
21
-90.0173
0
LINE
8
BLACK
6
CONTINUOUS
10
132.431
20
-90.0173
11
132.375
21
-89.8808
0
LINE
8
BLACK
6
CONTINUOUS
10
132.375
20
-89.8808
11
132.346
21
-89.7359
0
LINE
8
BLACK
6
CONTINUOUS
10
132.346
20
-89.7359
11
132.346
21
-89.5881
0
LINE
8
BLACK
6
CONTINUOUS
10
132.346
20
-89.5881
11
132.375
21
-89.4432
0
LINE
8
BLACK
6
CONTINUOUS
10
132.375
20
-89.4432
11
132.431
21
-89.3067
0
LINE
8
BLACK
6
CONTINUOUS
10
132.431
20
-89.3067
11
132.513
21
-89.1839
0
LINE
8
BLACK
6
CONTINUOUS
10
132.513
20
-89.1839
11
132.618
21
-89.0794
0
LINE
8
BLACK
6
CONTINUOUS
10
132.618
20
-89.0794
11
132.741
21
-88.9974
0
LINE
8
BLACK
6
CONTINUOUS
10
132.741
20
-88.9974
11
132.824
21
-88.9629
0
LINE
8
BLACK
6
CONTINUOUS
10
132.824
20
-88.9629
11
132.877
21
-88.9408
0
LINE
8
BLACK
6
CONTINUOUS
10
132.877
20
-88.9408
11
132.95
21
-88.9264
0
LINE
8
BLACK
6
CONTINUOUS
10
132.95
20
-88.9264
11
133.022
21
-88.912
0
LINE
8
BLACK
6
CONTINUOUS
10
133.022
20
-88.912
11
133.17
21
-88.912
0
LINE
8
BLACK
6
CONTINUOUS
10
133.17
20
-88.912
11
133.242
21
-88.9264
0
LINE
8
BLACK
6
CONTINUOUS
10
148.482
20
-88.9264
11
148.555
21
-88.9408
0
LINE
8
BLACK
6
CONTINUOUS
10
148.555
20
-88.9408
11
148.608
21
-88.9629
0
LINE
8
BLACK
6
CONTINUOUS
10
148.608
20
-88.9629
11
148.691
21
-88.9974
0
LINE
8
BLACK
6
CONTINUOUS
10
148.691
20
-88.9974
11
148.814
21
-89.0794
0
LINE
8
BLACK
6
CONTINUOUS
10
148.814
20
-89.0794
11
148.919
21
-89.1839
0
LINE
8
BLACK
6
CONTINUOUS
10
148.919
20
-89.1839
11
149.001
21
-89.3067
0
LINE
8
BLACK
6
CONTINUOUS
10
149.001
20
-89.3067
11
149.057
21
-89.4432
0
LINE
8
BLACK
6
CONTINUOUS
10
149.057
20
-89.4432
11
149.086
21
-89.5881
0
LINE
8
BLACK
6
CONTINUOUS
10
149.086
20
-89.5881
11
149.086
21
-89.7359
0
LINE
8
BLACK
6
CONTINUOUS
10
149.086
20
-89.7359
11
149.057
21
-89.8808
0
LINE
8
BLACK
6
CONTINUOUS
10
149.057
20
-89.8808
11
149.001
21
-90.0173
0
LINE
8
BLACK
6
CONTINUOUS
10
149.001
20
-90.0173
11
148.919
21
-90.1401
0
LINE
8
BLACK
6
CONTINUOUS
10
148.919
20
-90.1401
11
148.814
21
-90.2446
0
LINE
8
BLACK
6
CONTINUOUS
10
148.814
20
-90.2446
11
148.691
21
-90.3266
0
LINE
8
BLACK
6
CONTINUOUS
10
148.691
20
-90.3266
11
148.611
21
-90.3598
0
LINE
8
BLACK
6
CONTINUOUS
10
148.611
20
-90.3598
11
148.555
21
-90.3832
0
LINE
8
BLACK
6
CONTINUOUS
10
148.555
20
-90.3832
11
148.482
21
-90.3976
0
LINE
8
BLACK
6
CONTINUOUS
10
148.482
20
-90.3976
11
148.41
21
-90.412
0
LINE
8
BLACK
6
CONTINUOUS
10
148.41
20
-90.412
11
148.262
21
-90.412
0
LINE
8
BLACK
6
CONTINUOUS
10
148.262
20
-90.412
11
148.19
21
-90.3976
0
LINE
8
BLACK
6
CONTINUOUS
10
148.19
20
-90.3976
11
148.117
21
-90.3832
0
LINE
8
BLACK
6
CONTINUOUS
10
148.117
20
-90.3832
11
148.061
21
-90.3598
0
LINE
8
BLACK
6
CONTINUOUS
10
148.061
20
-90.3598
11
147.981
21
-90.3266
0
LINE
8
BLACK
6
CONTINUOUS
10
147.981
20
-90.3266
11
147.858
21
-90.2446
0
LINE
8
BLACK
6
CONTINUOUS
10
147.858
20
-90.2446
11
147.753
21
-90.1401
0
LINE
8
BLACK
6
CONTINUOUS
10
147.753
20
-90.1401
11
147.671
21
-90.0173
0
LINE
8
BLACK
6
CONTINUOUS
10
147.671
20
-90.0173
11
147.615
21
-89.8808
0
LINE
8
BLACK
6
CONTINUOUS
10
147.615
20
-89.8808
11
147.586
21
-89.7359
0
LINE
8
BLACK
6
CONTINUOUS
10
147.586
20
-89.7359
11
147.586
21
-89.5881
0
LINE
8
BLACK
6
CONTINUOUS
10
147.586
20
-89.5881
11
147.615
21
-89.4432
0
LINE
8
BLACK
6
CONTINUOUS
10
147.615
20
-89.4432
11
147.671
21
-89.3067
0
LINE
8
BLACK
6
CONTINUOUS
10
147.671
20
-89.3067
11
147.753
21
-89.1839
0
LINE
8
BLACK
6
CONTINUOUS
10
147.753
20
-89.1839
11
147.858
21
-89.0794
0
LINE
8
BLACK
6
CONTINUOUS
10
147.858
20
-89.0794
11
147.981
21
-88.9974
0
LINE
8
BLACK
6
CONTINUOUS
10
147.981
20
-88.9974
11
148.064
21
-88.9629
0
LINE
8
BLACK
6
CONTINUOUS
10
148.064
20
-88.9629
11
148.117
21
-88.9408
0
LINE
8
BLACK
6
CONTINUOUS
10
148.117
20
-88.9408
11
148.19
21
-88.9264
0
LINE
8
BLACK
6
CONTINUOUS
10
148.19
20
-88.9264
11
148.262
21
-88.912
0
LINE
8
BLACK
6
CONTINUOUS
10
148.262
20
-88.912
11
148.41
21
-88.912
0
LINE
8
BLACK
6
CONTINUOUS
10
148.41
20
-88.912
11
148.482
21
-88.9264
0
LINE
8
BLACK
6
CONTINUOUS
10
184.072
20
-87.2334
11
184.188
21
-87.2564
0
LINE
8
BLACK
6
CONTINUOUS
10
184.188
20
-87.2564
11
184.37
21
-87.3318
0
LINE
8
BLACK
6
CONTINUOUS
10
184.37
20
-87.3318
11
184.533
21
-87.4412
0
LINE
8
BLACK
6
CONTINUOUS
10
184.533
20
-87.4412
11
184.673
21
-87.5805
0
LINE
8
BLACK
6
CONTINUOUS
10
184.673
20
-87.5805
11
184.782
21
-87.7443
0
LINE
8
BLACK
6
CONTINUOUS
10
184.782
20
-87.7443
11
184.858
21
-87.9263
0
LINE
8
BLACK
6
CONTINUOUS
10
184.858
20
-87.9263
11
184.896
21
-88.1195
0
LINE
8
BLACK
6
CONTINUOUS
10
184.896
20
-88.1195
11
184.896
21
-88.3165
0
LINE
8
BLACK
6
CONTINUOUS
10
184.896
20
-88.3165
11
184.858
21
-88.5097
0
LINE
8
BLACK
6
CONTINUOUS
10
184.858
20
-88.5097
11
184.782
21
-88.6917
0
LINE
8
BLACK
6
CONTINUOUS
10
184.782
20
-88.6917
11
184.673
21
-88.8555
0
LINE
8
BLACK
6
CONTINUOUS
10
184.673
20
-88.8555
11
184.533
21
-88.9948
0
LINE
8
BLACK
6
CONTINUOUS
10
184.533
20
-88.9948
11
184.37
21
-89.1042
0
LINE
8
BLACK
6
CONTINUOUS
10
184.37
20
-89.1042
11
184.188
21
-89.1796
0
LINE
8
BLACK
6
CONTINUOUS
10
184.188
20
-89.1796
11
184.072
21
-89.2026
0
LINE
8
BLACK
6
CONTINUOUS
10
184.072
20
-89.2026
11
183.994
21
-89.218
0
LINE
8
BLACK
6
CONTINUOUS
10
183.994
20
-89.218
11
183.798
21
-89.218
0
LINE
8
BLACK
6
CONTINUOUS
10
183.798
20
-89.218
11
183.72
21
-89.2026
0
LINE
8
BLACK
6
CONTINUOUS
10
183.72
20
-89.2026
11
183.604
21
-89.1796
0
LINE
8
BLACK
6
CONTINUOUS
10
183.604
20
-89.1796
11
183.422
21
-89.1042
0
LINE
8
BLACK
6
CONTINUOUS
10
183.422
20
-89.1042
11
183.259
21
-88.9948
0
LINE
8
BLACK
6
CONTINUOUS
10
183.259
20
-88.9948
11
183.119
21
-88.8555
0
LINE
8
BLACK
6
CONTINUOUS
10
183.119
20
-88.8555
11
183.01
21
-88.6917
0
LINE
8
BLACK
6
CONTINUOUS
10
183.01
20
-88.6917
11
182.934
21
-88.5097
0
LINE
8
BLACK
6
CONTINUOUS
10
182.934
20
-88.5097
11
182.896
21
-88.3165
0
LINE
8
BLACK
6
CONTINUOUS
10
182.896
20
-88.3165
11
182.896
21
-88.1195
0
LINE
8
BLACK
6
CONTINUOUS
10
182.896
20
-88.1195
11
182.934
21
-87.9263
0
LINE
8
BLACK
6
CONTINUOUS
10
182.934
20
-87.9263
11
183.01
21
-87.7443
0
LINE
8
BLACK
6
CONTINUOUS
10
183.01
20
-87.7443
11
183.119
21
-87.5805
0
LINE
8
BLACK
6
CONTINUOUS
10
183.119
20
-87.5805
11
183.259
21
-87.4412
0
LINE
8
BLACK
6
CONTINUOUS
10
183.259
20
-87.4412
11
183.422
21
-87.3318
0
LINE
8
BLACK
6
CONTINUOUS
10
183.422
20
-87.3318
11
183.604
21
-87.2564
0
LINE
8
BLACK
6
CONTINUOUS
10
183.604
20
-87.2564
11
183.72
21
-87.2334
0
LINE
8
BLACK
6
CONTINUOUS
10
183.72
20
-87.2334
11
183.798
21
-87.218
0
LINE
8
BLACK
6
CONTINUOUS
10
183.798
20
-87.218
11
183.994
21
-87.218
0
LINE
8
BLACK
6
CONTINUOUS
10
183.994
20
-87.218
11
184.072
21
-87.2334
0
LINE
8
BLACK
6
CONTINUOUS
10
169.572
20
-87.2334
11
169.688
21
-87.2564
0
LINE
8
BLACK
6
CONTINUOUS
10
169.688
20
-87.2564
11
169.87
21
-87.3318
0
LINE
8
BLACK
6
CONTINUOUS
10
169.87
20
-87.3318
11
170.033
21
-87.4412
0
LINE
8
BLACK
6
CONTINUOUS
10
170.033
20
-87.4412
11
170.173
21
-87.5805
0
LINE
8
BLACK
6
CONTINUOUS
10
170.173
20
-87.5805
11
170.282
21
-87.7443
0
LINE
8
BLACK
6
CONTINUOUS
10
170.282
20
-87.7443
11
170.358
21
-87.9263
0
LINE
8
BLACK
6
CONTINUOUS
10
170.358
20
-87.9263
11
170.396
21
-88.1195
0
LINE
8
BLACK
6
CONTINUOUS
10
170.396
20
-88.1195
11
170.396
21
-88.3165
0
LINE
8
BLACK
6
CONTINUOUS
10
170.396
20
-88.3165
11
170.358
21
-88.5097
0
LINE
8
BLACK
6
CONTINUOUS
10
170.358
20
-88.5097
11
170.282
21
-88.6917
0
LINE
8
BLACK
6
CONTINUOUS
10
170.282
20
-88.6917
11
170.173
21
-88.8555
0
LINE
8
BLACK
6
CONTINUOUS
10
170.173
20
-88.8555
11
170.033
21
-88.9948
0
LINE
8
BLACK
6
CONTINUOUS
10
170.033
20
-88.9948
11
169.87
21
-89.1042
0
LINE
8
BLACK
6
CONTINUOUS
10
169.87
20
-89.1042
11
169.688
21
-89.1796
0
LINE
8
BLACK
6
CONTINUOUS
10
169.688
20
-89.1796
11
169.572
21
-89.2026
0
LINE
8
BLACK
6
CONTINUOUS
10
169.572
20
-89.2026
11
169.494
21
-89.218
0
LINE
8
BLACK
6
CONTINUOUS
10
169.494
20
-89.218
11
169.298
21
-89.218
0
LINE
8
BLACK
6
CONTINUOUS
10
169.298
20
-89.218
11
169.22
21
-89.2026
0
LINE
8
BLACK
6
CONTINUOUS
10
169.22
20
-89.2026
11
169.104
21
-89.1796
0
LINE
8
BLACK
6
CONTINUOUS
10
169.104
20
-89.1796
11
168.922
21
-89.1042
0
LINE
8
BLACK
6
CONTINUOUS
10
168.922
20
-89.1042
11
168.759
21
-88.9948
0
LINE
8
BLACK
6
CONTINUOUS
10
168.759
20
-88.9948
11
168.619
21
-88.8555
0
LINE
8
BLACK
6
CONTINUOUS
10
168.619
20
-88.8555
11
168.51
21
-88.6917
0
LINE
8
BLACK
6
CONTINUOUS
10
168.51
20
-88.6917
11
168.434
21
-88.5097
0
LINE
8
BLACK
6
CONTINUOUS
10
168.434
20
-88.5097
11
168.396
21
-88.3165
0
LINE
8
BLACK
6
CONTINUOUS
10
168.396
20
-88.3165
11
168.396
21
-88.1195
0
LINE
8
BLACK
6
CONTINUOUS
10
168.396
20
-88.1195
11
168.434
21
-87.9263
0
LINE
8
BLACK
6
CONTINUOUS
10
168.434
20
-87.9263
11
168.51
21
-87.7443
0
LINE
8
BLACK
6
CONTINUOUS
10
168.51
20
-87.7443
11
168.619
21
-87.5805
0
LINE
8
BLACK
6
CONTINUOUS
10
168.619
20
-87.5805
11
168.759
21
-87.4412
0
LINE
8
BLACK
6
CONTINUOUS
10
168.759
20
-87.4412
11
168.922
21
-87.3318
0
LINE
8
BLACK
6
CONTINUOUS
10
168.922
20
-87.3318
11
169.104
21
-87.2564
0
LINE
8
BLACK
6
CONTINUOUS
10
169.104
20
-87.2564
11
169.22
21
-87.2334
0
LINE
8
BLACK
6
CONTINUOUS
10
169.22
20
-87.2334
11
169.298
21
-87.218
0
LINE
8
BLACK
6
CONTINUOUS
10
169.298
20
-87.218
11
169.494
21
-87.218
0
LINE
8
BLACK
6
CONTINUOUS
10
169.494
20
-87.218
11
169.572
21
-87.2334
0
LINE
8
BLACK
6
CONTINUOUS
10
148.482
20
-86.3864
11
148.555
21
-86.4008
0
LINE
8
BLACK
6
CONTINUOUS
10
148.555
20
-86.4008
11
148.611
21
-86.4242
0
LINE
8
BLACK
6
CONTINUOUS
10
148.611
20
-86.4242
11
148.691
21
-86.4574
0
LINE
8
BLACK
6
CONTINUOUS
10
148.691
20
-86.4574
11
148.814
21
-86.5394
0
LINE
8
BLACK
6
CONTINUOUS
10
148.814
20
-86.5394
11
148.919
21
-86.6439
0
LINE
8
BLACK
6
CONTINUOUS
10
148.919
20
-86.6439
11
149.001
21
-86.7667
0
LINE
8
BLACK
6
CONTINUOUS
10
149.001
20
-86.7667
11
149.057
21
-86.9032
0
LINE
8
BLACK
6
CONTINUOUS
10
149.057
20
-86.9032
11
149.086
21
-87.0481
0
LINE
8
BLACK
6
CONTINUOUS
10
149.086
20
-87.0481
11
149.086
21
-87.1959
0
LINE
8
BLACK
6
CONTINUOUS
10
149.086
20
-87.1959
11
149.057
21
-87.3408
0
LINE
8
BLACK
6
CONTINUOUS
10
149.057
20
-87.3408
11
149.001
21
-87.4773
0
LINE
8
BLACK
6
CONTINUOUS
10
149.001
20
-87.4773
11
148.919
21
-87.6001
0
LINE
8
BLACK
6
CONTINUOUS
10
148.919
20
-87.6001
11
148.814
21
-87.7046
0
LINE
8
BLACK
6
CONTINUOUS
10
148.814
20
-87.7046
11
148.691
21
-87.7866
0
LINE
8
BLACK
6
CONTINUOUS
10
148.691
20
-87.7866
11
148.611
21
-87.8198
0
LINE
8
BLACK
6
CONTINUOUS
10
148.611
20
-87.8198
11
148.555
21
-87.8432
0
LINE
8
BLACK
6
CONTINUOUS
10
148.555
20
-87.8432
11
148.482
21
-87.8576
0
LINE
8
BLACK
6
CONTINUOUS
10
148.482
20
-87.8576
11
148.41
21
-87.872
0
LINE
8
BLACK
6
CONTINUOUS
10
148.41
20
-87.872
11
148.262
21
-87.872
0
LINE
8
BLACK
6
CONTINUOUS
10
148.262
20
-87.872
11
148.19
21
-87.8576
0
LINE
8
BLACK
6
CONTINUOUS
10
148.19
20
-87.8576
11
148.117
21
-87.8432
0
LINE
8
BLACK
6
CONTINUOUS
10
148.117
20
-87.8432
11
148.061
21
-87.8198
0
LINE
8
BLACK
6
CONTINUOUS
10
148.061
20
-87.8198
11
147.981
21
-87.7866
0
LINE
8
BLACK
6
CONTINUOUS
10
147.981
20
-87.7866
11
147.858
21
-87.7046
0
LINE
8
BLACK
6
CONTINUOUS
10
147.858
20
-87.7046
11
147.753
21
-87.6001
0
LINE
8
BLACK
6
CONTINUOUS
10
147.753
20
-87.6001
11
147.671
21
-87.4773
0
LINE
8
BLACK
6
CONTINUOUS
10
147.671
20
-87.4773
11
147.615
21
-87.3408
0
LINE
8
BLACK
6
CONTINUOUS
10
147.615
20
-87.3408
11
147.586
21
-87.1959
0
LINE
8
BLACK
6
CONTINUOUS
10
147.586
20
-87.1959
11
147.586
21
-87.0481
0
LINE
8
BLACK
6
CONTINUOUS
10
147.586
20
-87.0481
11
147.615
21
-86.9032
0
LINE
8
BLACK
6
CONTINUOUS
10
147.615
20
-86.9032
11
147.671
21
-86.7667
0
LINE
8
BLACK
6
CONTINUOUS
10
147.671
20
-86.7667
11
147.753
21
-86.6439
0
LINE
8
BLACK
6
CONTINUOUS
10
147.753
20
-86.6439
11
147.858
21
-86.5394
0
LINE
8
BLACK
6
CONTINUOUS
10
147.858
20
-86.5394
11
147.981
21
-86.4574
0
LINE
8
BLACK
6
CONTINUOUS
10
147.981
20
-86.4574
11
148.061
21
-86.4242
0
LINE
8
BLACK
6
CONTINUOUS
10
148.061
20
-86.4242
11
148.117
21
-86.4008
0
LINE
8
BLACK
6
CONTINUOUS
10
148.117
20
-86.4008
11
148.19
21
-86.3864
0
LINE
8
BLACK
6
CONTINUOUS
10
148.19
20
-86.3864
11
148.262
21
-86.372
0
LINE
8
BLACK
6
CONTINUOUS
10
148.262
20
-86.372
11
148.41
21
-86.372
0
LINE
8
BLACK
6
CONTINUOUS
10
148.41
20
-86.372
11
148.482
21
-86.3864
0
LINE
8
BLACK
6
CONTINUOUS
10
133.242
20
-86.3864
11
133.315
21
-86.4008
0
LINE
8
BLACK
6
CONTINUOUS
10
133.315
20
-86.4008
11
133.371
21
-86.4242
0
LINE
8
BLACK
6
CONTINUOUS
10
133.371
20
-86.4242
11
133.451
21
-86.4574
0
LINE
8
BLACK
6
CONTINUOUS
10
133.451
20
-86.4574
11
133.574
21
-86.5394
0
LINE
8
BLACK
6
CONTINUOUS
10
133.574
20
-86.5394
11
133.679
21
-86.6439
0
LINE
8
BLACK
6
CONTINUOUS
10
133.679
20
-86.6439
11
133.761
21
-86.7667
0
LINE
8
BLACK
6
CONTINUOUS
10
133.761
20
-86.7667
11
133.817
21
-86.9032
0
LINE
8
BLACK
6
CONTINUOUS
10
133.817
20
-86.9032
11
133.846
21
-87.0481
0
LINE
8
BLACK
6
CONTINUOUS
10
133.846
20
-87.0481
11
133.846
21
-87.1959
0
LINE
8
BLACK
6
CONTINUOUS
10
133.846
20
-87.1959
11
133.817
21
-87.3408
0
LINE
8
BLACK
6
CONTINUOUS
10
133.817
20
-87.3408
11
133.761
21
-87.4773
0
LINE
8
BLACK
6
CONTINUOUS
10
133.761
20
-87.4773
11
133.679
21
-87.6001
0
LINE
8
BLACK
6
CONTINUOUS
10
133.679
20
-87.6001
11
133.574
21
-87.7046
0
LINE
8
BLACK
6
CONTINUOUS
10
133.574
20
-87.7046
11
133.451
21
-87.7866
0
LINE
8
BLACK
6
CONTINUOUS
10
133.451
20
-87.7866
11
133.371
21
-87.8198
0
LINE
8
BLACK
6
CONTINUOUS
10
133.371
20
-87.8198
11
133.315
21
-87.8432
0
LINE
8
BLACK
6
CONTINUOUS
10
133.315
20
-87.8432
11
133.242
21
-87.8576
0
LINE
8
BLACK
6
CONTINUOUS
10
133.242
20
-87.8576
11
133.17
21
-87.872
0
LINE
8
BLACK
6
CONTINUOUS
10
133.17
20
-87.872
11
133.022
21
-87.872
0
LINE
8
BLACK
6
CONTINUOUS
10
133.022
20
-87.872
11
132.95
21
-87.8576
0
LINE
8
BLACK
6
CONTINUOUS
10
132.95
20
-87.8576
11
132.877
21
-87.8432
0
LINE
8
BLACK
6
CONTINUOUS
10
132.877
20
-87.8432
11
132.821
21
-87.8198
0
LINE
8
BLACK
6
CONTINUOUS
10
132.821
20
-87.8198
11
132.741
21
-87.7866
0
LINE
8
BLACK
6
CONTINUOUS
10
132.741
20
-87.7866
11
132.618
21
-87.7046
0
LINE
8
BLACK
6
CONTINUOUS
10
132.618
20
-87.7046
11
132.513
21
-87.6001
0
LINE
8
BLACK
6
CONTINUOUS
10
132.513
20
-87.6001
11
132.431
21
-87.4773
0
LINE
8
BLACK
6
CONTINUOUS
10
132.431
20
-87.4773
11
132.375
21
-87.3408
0
LINE
8
BLACK
6
CONTINUOUS
10
132.375
20
-87.3408
11
132.346
21
-87.1959
0
LINE
8
BLACK
6
CONTINUOUS
10
132.346
20
-87.1959
11
132.346
21
-87.0481
0
LINE
8
BLACK
6
CONTINUOUS
10
132.346
20
-87.0481
11
132.375
21
-86.9032
0
LINE
8
BLACK
6
CONTINUOUS
10
132.375
20
-86.9032
11
132.431
21
-86.7667
0
LINE
8
BLACK
6
CONTINUOUS
10
132.431
20
-86.7667
11
132.513
21
-86.6439
0
LINE
8
BLACK
6
CONTINUOUS
10
132.513
20
-86.6439
11
132.618
21
-86.5394
0
LINE
8
BLACK
6
CONTINUOUS
10
132.618
20
-86.5394
11
132.741
21
-86.4574
0
LINE
8
BLACK
6
CONTINUOUS
10
132.741
20
-86.4574
11
132.821
21
-86.4242
0
LINE
8
BLACK
6
CONTINUOUS
10
132.821
20
-86.4242
11
132.877
21
-86.4008
0
LINE
8
BLACK
6
CONTINUOUS
10
132.877
20
-86.4008
11
132.95
21
-86.3864
0
LINE
8
BLACK
6
CONTINUOUS
10
132.95
20
-86.3864
11
133.022
21
-86.372
0
LINE
8
BLACK
6
CONTINUOUS
10
133.022
20
-86.372
11
133.17
21
-86.372
0
LINE
8
BLACK
6
CONTINUOUS
10
133.17
20
-86.372
11
133.242
21
-86.3864
0
LINE
8
BLACK
6
CONTINUOUS
10
176.863
20
-83.5795
11
177.154
21
-83.7001
0
LINE
8
BLACK
6
CONTINUOUS
10
177.154
20
-83.7001
11
177.416
21
-83.8752
0
LINE
8
BLACK
6
CONTINUOUS
10
177.416
20
-83.8752
11
177.639
21
-84.0981
0
LINE
8
BLACK
6
CONTINUOUS
10
177.639
20
-84.0981
11
177.814
21
-84.3601
0
LINE
8
BLACK
6
CONTINUOUS
10
177.814
20
-84.3601
11
177.935
21
-84.6513
0
LINE
8
BLACK
6
CONTINUOUS
10
177.935
20
-84.6513
11
177.996
21
-84.9604
0
LINE
8
BLACK
6
CONTINUOUS
10
177.996
20
-84.9604
11
177.996
21
-85.2756
0
LINE
8
BLACK
6
CONTINUOUS
10
177.996
20
-85.2756
11
177.935
21
-85.5847
0
LINE
8
BLACK
6
CONTINUOUS
10
177.935
20
-85.5847
11
177.814
21
-85.8759
0
LINE
8
BLACK
6
CONTINUOUS
10
177.814
20
-85.8759
11
177.639
21
-86.1379
0
LINE
8
BLACK
6
CONTINUOUS
10
177.639
20
-86.1379
11
177.416
21
-86.3608
0
LINE
8
BLACK
6
CONTINUOUS
10
177.416
20
-86.3608
11
177.154
21
-86.5359
0
LINE
8
BLACK
6
CONTINUOUS
10
177.154
20
-86.5359
11
176.863
21
-86.6565
0
LINE
8
BLACK
6
CONTINUOUS
10
176.863
20
-86.6565
11
176.554
21
-86.718
0
LINE
8
BLACK
6
CONTINUOUS
10
176.554
20
-86.718
11
176.238
21
-86.718
0
LINE
8
BLACK
6
CONTINUOUS
10
176.238
20
-86.718
11
175.929
21
-86.6565
0
LINE
8
BLACK
6
CONTINUOUS
10
175.929
20
-86.6565
11
175.638
21
-86.5359
0
LINE
8
BLACK
6
CONTINUOUS
10
175.638
20
-86.5359
11
175.376
21
-86.3608
0
LINE
8
BLACK
6
CONTINUOUS
10
175.376
20
-86.3608
11
175.153
21
-86.1379
0
LINE
8
BLACK
6
CONTINUOUS
10
175.153
20
-86.1379
11
174.978
21
-85.8759
0
LINE
8
BLACK
6
CONTINUOUS
10
174.978
20
-85.8759
11
174.857
21
-85.5847
0
LINE
8
BLACK
6
CONTINUOUS
10
174.857
20
-85.5847
11
174.796
21
-85.2756
0
LINE
8
BLACK
6
CONTINUOUS
10
174.796
20
-85.2756
11
174.796
21
-84.9604
0
LINE
8
BLACK
6
CONTINUOUS
10
174.796
20
-84.9604
11
174.857
21
-84.6513
0
LINE
8
BLACK
6
CONTINUOUS
10
174.857
20
-84.6513
11
174.978
21
-84.3601
0
LINE
8
BLACK
6
CONTINUOUS
10
174.978
20
-84.3601
11
175.153
21
-84.0981
0
LINE
8
BLACK
6
CONTINUOUS
10
175.153
20
-84.0981
11
175.376
21
-83.8752
0
LINE
8
BLACK
6
CONTINUOUS
10
175.376
20
-83.8752
11
175.638
21
-83.7001
0
LINE
8
BLACK
6
CONTINUOUS
10
175.638
20
-83.7001
11
175.929
21
-83.5795
0
LINE
8
BLACK
6
CONTINUOUS
10
175.929
20
-83.5795
11
176.238
21
-83.518
0
LINE
8
BLACK
6
CONTINUOUS
10
176.238
20
-83.518
11
176.554
21
-83.518
0
LINE
8
BLACK
6
CONTINUOUS
10
176.554
20
-83.518
11
176.863
21
-83.5795
0
LINE
8
BLACK
6
CONTINUOUS
10
148.482
20
-83.8464
11
148.555
21
-83.8608
0
LINE
8
BLACK
6
CONTINUOUS
10
148.555
20
-83.8608
11
148.611
21
-83.8842
0
LINE
8
BLACK
6
CONTINUOUS
10
148.611
20
-83.8842
11
148.691
21
-83.9174
0
LINE
8
BLACK
6
CONTINUOUS
10
148.691
20
-83.9174
11
148.814
21
-83.9994
0
LINE
8
BLACK
6
CONTINUOUS
10
148.814
20
-83.9994
11
148.919
21
-84.1039
0
LINE
8
BLACK
6
CONTINUOUS
10
148.919
20
-84.1039
11
149.001
21
-84.2267
0
LINE
8
BLACK
6
CONTINUOUS
10
149.001
20
-84.2267
11
149.034
21
-84.3067
0
LINE
8
BLACK
6
CONTINUOUS
10
149.034
20
-84.3067
11
149.056
21
-84.3601
0
LINE
8
BLACK
6
CONTINUOUS
10
149.056
20
-84.3601
11
149.057
21
-84.3632
0
LINE
8
BLACK
6
CONTINUOUS
10
149.057
20
-84.3632
11
149.086
21
-84.5081
0
LINE
8
BLACK
6
CONTINUOUS
10
149.086
20
-84.5081
11
149.086
21
-84.6559
0
LINE
8
BLACK
6
CONTINUOUS
10
149.086
20
-84.6559
11
149.057
21
-84.8008
0
LINE
8
BLACK
6
CONTINUOUS
10
149.057
20
-84.8008
11
149.001
21
-84.9373
0
LINE
8
BLACK
6
CONTINUOUS
10
149.001
20
-84.9373
11
148.919
21
-85.0601
0
LINE
8
BLACK
6
CONTINUOUS
10
148.919
20
-85.0601
11
148.814
21
-85.1646
0
LINE
8
BLACK
6
CONTINUOUS
10
148.814
20
-85.1646
11
148.691
21
-85.2466
0
LINE
8
BLACK
6
CONTINUOUS
10
148.691
20
-85.2466
11
148.611
21
-85.2798
0
LINE
8
BLACK
6
CONTINUOUS
10
148.611
20
-85.2798
11
148.555
21
-85.3032
0
LINE
8
BLACK
6
CONTINUOUS
10
148.555
20
-85.3032
11
148.482
21
-85.3176
0
LINE
8
BLACK
6
CONTINUOUS
10
148.482
20
-85.3176
11
148.41
21
-85.332
0
LINE
8
BLACK
6
CONTINUOUS
10
148.41
20
-85.332
11
148.262
21
-85.332
0
LINE
8
BLACK
6
CONTINUOUS
10
148.262
20
-85.332
11
148.19
21
-85.3176
0
LINE
8
BLACK
6
CONTINUOUS
10
148.19
20
-85.3176
11
148.117
21
-85.3032
0
LINE
8
BLACK
6
CONTINUOUS
10
148.117
20
-85.3032
11
148.061
21
-85.2798
0
LINE
8
BLACK
6
CONTINUOUS
10
148.061
20
-85.2798
11
147.981
21
-85.2466
0
LINE
8
BLACK
6
CONTINUOUS
10
147.981
20
-85.2466
11
147.858
21
-85.1646
0
LINE
8
BLACK
6
CONTINUOUS
10
147.858
20
-85.1646
11
147.753
21
-85.0601
0
LINE
8
BLACK
6
CONTINUOUS
10
147.753
20
-85.0601
11
147.671
21
-84.9373
0
LINE
8
BLACK
6
CONTINUOUS
10
147.671
20
-84.9373
11
147.615
21
-84.8008
0
LINE
8
BLACK
6
CONTINUOUS
10
147.615
20
-84.8008
11
147.586
21
-84.6559
0
LINE
8
BLACK
6
CONTINUOUS
10
147.586
20
-84.6559
11
147.586
21
-84.5081
0
LINE
8
BLACK
6
CONTINUOUS
10
147.586
20
-84.5081
11
147.615
21
-84.3632
0
LINE
8
BLACK
6
CONTINUOUS
10
147.615
20
-84.3632
11
147.616
21
-84.3601
0
LINE
8
BLACK
6
CONTINUOUS
10
147.616
20
-84.3601
11
147.638
21
-84.3067
0
LINE
8
BLACK
6
CONTINUOUS
10
147.638
20
-84.3067
11
147.671
21
-84.2267
0
LINE
8
BLACK
6
CONTINUOUS
10
147.671
20
-84.2267
11
147.753
21
-84.1039
0
LINE
8
BLACK
6
CONTINUOUS
10
147.753
20
-84.1039
11
147.858
21
-83.9994
0
LINE
8
BLACK
6
CONTINUOUS
10
147.858
20
-83.9994
11
147.981
21
-83.9174
0
LINE
8
BLACK
6
CONTINUOUS
10
147.981
20
-83.9174
11
148.061
21
-83.8842
0
LINE
8
BLACK
6
CONTINUOUS
10
148.061
20
-83.8842
11
148.117
21
-83.8608
0
LINE
8
BLACK
6
CONTINUOUS
10
148.117
20
-83.8608
11
148.19
21
-83.8464
0
LINE
8
BLACK
6
CONTINUOUS
10
148.19
20
-83.8464
11
148.262
21
-83.832
0
LINE
8
BLACK
6
CONTINUOUS
10
148.262
20
-83.832
11
148.41
21
-83.832
0
LINE
8
BLACK
6
CONTINUOUS
10
148.41
20
-83.832
11
148.482
21
-83.8464
0
LINE
8
BLACK
6
CONTINUOUS
10
133.846
20
-85.332
11
132.346
21
-85.332
0
LINE
8
BLACK
6
CONTINUOUS
10
132.346
20
-85.332
11
132.346
21
-83.832
0
LINE
8
BLACK
6
CONTINUOUS
10
132.346
20
-83.832
11
133.846
21
-83.832
0
LINE
8
BLACK
6
CONTINUOUS
10
133.846
20
-83.832
11
133.846
21
-85.332
0
LINE
8
BLACK
6
CONTINUOUS
10
113.93
20
-84.466
11
112.13
21
-84.466
0
LINE
8
BLACK
6
CONTINUOUS
10
112.13
20
-84.466
11
112.13
21
-82.666
0
LINE
8
BLACK
6
CONTINUOUS
10
112.13
20
-82.666
11
113.93
21
-82.666
0
LINE
8
BLACK
6
CONTINUOUS
10
113.93
20
-82.666
11
113.93
21
-84.466
0
LINE
8
BLACK
6
CONTINUOUS
10
193.62
20
-79.9694
11
193.736
21
-79.9924
0
LINE
8
BLACK
6
CONTINUOUS
10
193.736
20
-79.9924
11
193.918
21
-80.0678
0
LINE
8
BLACK
6
CONTINUOUS
10
193.918
20
-80.0678
11
194.081
21
-80.1772
0
LINE
8
BLACK
6
CONTINUOUS
10
194.081
20
-80.1772
11
194.221
21
-80.3165
0
LINE
8
BLACK
6
CONTINUOUS
10
194.221
20
-80.3165
11
194.33
21
-80.4803
0
LINE
8
BLACK
6
CONTINUOUS
10
194.33
20
-80.4803
11
194.406
21
-80.6623
0
LINE
8
BLACK
6
CONTINUOUS
10
194.406
20
-80.6623
11
194.444
21
-80.8555
0
LINE
8
BLACK
6
CONTINUOUS
10
194.444
20
-80.8555
11
194.444
21
-81.0525
0
LINE
8
BLACK
6
CONTINUOUS
10
194.444
20
-81.0525
11
194.406
21
-81.2457
0
LINE
8
BLACK
6
CONTINUOUS
10
194.406
20
-81.2457
11
194.33
21
-81.4277
0
LINE
8
BLACK
6
CONTINUOUS
10
194.33
20
-81.4277
11
194.221
21
-81.5915
0
LINE
8
BLACK
6
CONTINUOUS
10
194.221
20
-81.5915
11
194.081
21
-81.7308
0
LINE
8
BLACK
6
CONTINUOUS
10
194.081
20
-81.7308
11
193.918
21
-81.8402
0
LINE
8
BLACK
6
CONTINUOUS
10
193.918
20
-81.8402
11
193.736
21
-81.9156
0
LINE
8
BLACK
6
CONTINUOUS
10
193.736
20
-81.9156
11
193.62
21
-81.9386
0
LINE
8
BLACK
6
CONTINUOUS
10
193.62
20
-81.9386
11
193.542
21
-81.954
0
LINE
8
BLACK
6
CONTINUOUS
10
193.542
20
-81.954
11
193.346
21
-81.954
0
LINE
8
BLACK
6
CONTINUOUS
10
193.346
20
-81.954
11
193.268
21
-81.9386
0
LINE
8
BLACK
6
CONTINUOUS
10
193.268
20
-81.9386
11
193.152
21
-81.9156
0
LINE
8
BLACK
6
CONTINUOUS
10
193.152
20
-81.9156
11
192.97
21
-81.8402
0
LINE
8
BLACK
6
CONTINUOUS
10
192.97
20
-81.8402
11
192.807
21
-81.7308
0
LINE
8
BLACK
6
CONTINUOUS
10
192.807
20
-81.7308
11
192.667
21
-81.5915
0
LINE
8
BLACK
6
CONTINUOUS
10
192.667
20
-81.5915
11
192.558
21
-81.4277
0
LINE
8
BLACK
6
CONTINUOUS
10
192.558
20
-81.4277
11
192.482
21
-81.2457
0
LINE
8
BLACK
6
CONTINUOUS
10
192.482
20
-81.2457
11
192.444
21
-81.0525
0
LINE
8
BLACK
6
CONTINUOUS
10
192.444
20
-81.0525
11
192.444
21
-80.8555
0
LINE
8
BLACK
6
CONTINUOUS
10
192.444
20
-80.8555
11
192.482
21
-80.6623
0
LINE
8
BLACK
6
CONTINUOUS
10
192.482
20
-80.6623
11
192.558
21
-80.4803
0
LINE
8
BLACK
6
CONTINUOUS
10
192.558
20
-80.4803
11
192.667
21
-80.3165
0
LINE
8
BLACK
6
CONTINUOUS
10
192.667
20
-80.3165
11
192.807
21
-80.1772
0
LINE
8
BLACK
6
CONTINUOUS
10
192.807
20
-80.1772
11
192.97
21
-80.0678
0
LINE
8
BLACK
6
CONTINUOUS
10
192.97
20
-80.0678
11
193.152
21
-79.9924
0
LINE
8
BLACK
6
CONTINUOUS
10
193.152
20
-79.9924
11
193.268
21
-79.9694
0
LINE
8
BLACK
6
CONTINUOUS
10
193.268
20
-79.9694
11
193.346
21
-79.954
0
LINE
8
BLACK
6
CONTINUOUS
10
193.346
20
-79.954
11
193.542
21
-79.954
0
LINE
8
BLACK
6
CONTINUOUS
10
193.542
20
-79.954
11
193.62
21
-79.9694
0
LINE
8
BLACK
6
CONTINUOUS
10
187.12
20
-79.9694
11
187.236
21
-79.9924
0
LINE
8
BLACK
6
CONTINUOUS
10
187.236
20
-79.9924
11
187.418
21
-80.0678
0
LINE
8
BLACK
6
CONTINUOUS
10
187.418
20
-80.0678
11
187.581
21
-80.1772
0
LINE
8
BLACK
6
CONTINUOUS
10
187.581
20
-80.1772
11
187.721
21
-80.3165
0
LINE
8
BLACK
6
CONTINUOUS
10
187.721
20
-80.3165
11
187.83
21
-80.4803
0
LINE
8
BLACK
6
CONTINUOUS
10
187.83
20
-80.4803
11
187.906
21
-80.6623
0
LINE
8
BLACK
6
CONTINUOUS
10
187.906
20
-80.6623
11
187.944
21
-80.8555
0
LINE
8
BLACK
6
CONTINUOUS
10
187.944
20
-80.8555
11
187.944
21
-81.0525
0
LINE
8
BLACK
6
CONTINUOUS
10
187.944
20
-81.0525
11
187.906
21
-81.2457
0
LINE
8
BLACK
6
CONTINUOUS
10
187.906
20
-81.2457
11
187.83
21
-81.4277
0
LINE
8
BLACK
6
CONTINUOUS
10
187.83
20
-81.4277
11
187.721
21
-81.5915
0
LINE
8
BLACK
6
CONTINUOUS
10
187.721
20
-81.5915
11
187.581
21
-81.7308
0
LINE
8
BLACK
6
CONTINUOUS
10
187.581
20
-81.7308
11
187.418
21
-81.8402
0
LINE
8
BLACK
6
CONTINUOUS
10
187.418
20
-81.8402
11
187.236
21
-81.9156
0
LINE
8
BLACK
6
CONTINUOUS
10
187.236
20
-81.9156
11
187.12
21
-81.9386
0
LINE
8
BLACK
6
CONTINUOUS
10
187.12
20
-81.9386
11
187.042
21
-81.954
0
LINE
8
BLACK
6
CONTINUOUS
10
187.042
20
-81.954
11
186.846
21
-81.954
0
LINE
8
BLACK
6
CONTINUOUS
10
186.846
20
-81.954
11
186.768
21
-81.9386
0
LINE
8
BLACK
6
CONTINUOUS
10
186.768
20
-81.9386
11
186.652
21
-81.9156
0
LINE
8
BLACK
6
CONTINUOUS
10
186.652
20
-81.9156
11
186.47
21
-81.8402
0
LINE
8
BLACK
6
CONTINUOUS
10
186.47
20
-81.8402
11
186.307
21
-81.7308
0
LINE
8
BLACK
6
CONTINUOUS
10
186.307
20
-81.7308
11
186.167
21
-81.5915
0
LINE
8
BLACK
6
CONTINUOUS
10
186.167
20
-81.5915
11
186.058
21
-81.4277
0
LINE
8
BLACK
6
CONTINUOUS
10
186.058
20
-81.4277
11
185.982
21
-81.2457
0
LINE
8
BLACK
6
CONTINUOUS
10
185.982
20
-81.2457
11
185.944
21
-81.0525
0
LINE
8
BLACK
6
CONTINUOUS
10
185.944
20
-81.0525
11
185.944
21
-80.8555
0
LINE
8
BLACK
6
CONTINUOUS
10
185.944
20
-80.8555
11
185.982
21
-80.6623
0
LINE
8
BLACK
6
CONTINUOUS
10
185.982
20
-80.6623
11
186.058
21
-80.4803
0
LINE
8
BLACK
6
CONTINUOUS
10
186.058
20
-80.4803
11
186.167
21
-80.3165
0
LINE
8
BLACK
6
CONTINUOUS
10
186.167
20
-80.3165
11
186.307
21
-80.1772
0
LINE
8
BLACK
6
CONTINUOUS
10
186.307
20
-80.1772
11
186.47
21
-80.0678
0
LINE
8
BLACK
6
CONTINUOUS
10
186.47
20
-80.0678
11
186.652
21
-79.9924
0
LINE
8
BLACK
6
CONTINUOUS
10
186.652
20
-79.9924
11
186.768
21
-79.9694
0
LINE
8
BLACK
6
CONTINUOUS
10
186.768
20
-79.9694
11
186.846
21
-79.954
0
LINE
8
BLACK
6
CONTINUOUS
10
186.846
20
-79.954
11
187.042
21
-79.954
0
LINE
8
BLACK
6
CONTINUOUS
10
187.042
20
-79.954
11
187.12
21
-79.9694
0
LINE
8
BLACK
6
CONTINUOUS
10
113.293
20
-80.1606
11
113.456
21
-80.2284
0
LINE
8
BLACK
6
CONTINUOUS
10
113.456
20
-80.2284
11
113.604
21
-80.3269
0
LINE
8
BLACK
6
CONTINUOUS
10
113.604
20
-80.3269
11
113.729
21
-80.4523
0
LINE
8
BLACK
6
CONTINUOUS
10
113.729
20
-80.4523
11
113.828
21
-80.5997
0
LINE
8
BLACK
6
CONTINUOUS
10
113.828
20
-80.5997
11
113.895
21
-80.7635
0
LINE
8
BLACK
6
CONTINUOUS
10
113.895
20
-80.7635
11
113.93
21
-80.9374
0
LINE
8
BLACK
6
CONTINUOUS
10
113.93
20
-80.9374
11
113.93
21
-81.1146
0
LINE
8
BLACK
6
CONTINUOUS
10
113.93
20
-81.1146
11
113.895
21
-81.2885
0
LINE
8
BLACK
6
CONTINUOUS
10
113.895
20
-81.2885
11
113.828
21
-81.4523
0
LINE
8
BLACK
6
CONTINUOUS
10
113.828
20
-81.4523
11
113.729
21
-81.5997
0
LINE
8
BLACK
6
CONTINUOUS
10
113.729
20
-81.5997
11
113.604
21
-81.7251
0
LINE
8
BLACK
6
CONTINUOUS
10
113.604
20
-81.7251
11
113.456
21
-81.8236
0
LINE
8
BLACK
6
CONTINUOUS
10
113.456
20
-81.8236
11
113.293
21
-81.8914
0
LINE
8
BLACK
6
CONTINUOUS
10
113.293
20
-81.8914
11
113.119
21
-81.926
0
LINE
8
BLACK
6
CONTINUOUS
10
113.119
20
-81.926
11
112.941
21
-81.926
0
LINE
8
BLACK
6
CONTINUOUS
10
112.941
20
-81.926
11
112.767
21
-81.8914
0
LINE
8
BLACK
6
CONTINUOUS
10
112.767
20
-81.8914
11
112.604
21
-81.8236
0
LINE
8
BLACK
6
CONTINUOUS
10
112.604
20
-81.8236
11
112.456
21
-81.7251
0
LINE
8
BLACK
6
CONTINUOUS
10
112.456
20
-81.7251
11
112.331
21
-81.5997
0
LINE
8
BLACK
6
CONTINUOUS
10
112.331
20
-81.5997
11
112.232
21
-81.4523
0
LINE
8
BLACK
6
CONTINUOUS
10
112.232
20
-81.4523
11
112.165
21
-81.2885
0
LINE
8
BLACK
6
CONTINUOUS
10
112.165
20
-81.2885
11
112.13
21
-81.1146
0
LINE
8
BLACK
6
CONTINUOUS
10
112.13
20
-81.1146
11
112.13
21
-80.9374
0
LINE
8
BLACK
6
CONTINUOUS
10
112.13
20
-80.9374
11
112.165
21
-80.7635
0
LINE
8
BLACK
6
CONTINUOUS
10
112.165
20
-80.7635
11
112.232
21
-80.5997
0
LINE
8
BLACK
6
CONTINUOUS
10
112.232
20
-80.5997
11
112.331
21
-80.4523
0
LINE
8
BLACK
6
CONTINUOUS
10
112.331
20
-80.4523
11
112.456
21
-80.3269
0
LINE
8
BLACK
6
CONTINUOUS
10
112.456
20
-80.3269
11
112.604
21
-80.2284
0
LINE
8
BLACK
6
CONTINUOUS
10
112.604
20
-80.2284
11
112.767
21
-80.1606
0
LINE
8
BLACK
6
CONTINUOUS
10
112.767
20
-80.1606
11
112.941
21
-80.126
0
LINE
8
BLACK
6
CONTINUOUS
10
112.941
20
-80.126
11
113.119
21
-80.126
0
LINE
8
BLACK
6
CONTINUOUS
10
113.119
20
-80.126
11
113.293
21
-80.1606
0
LINE
8
BLACK
6
CONTINUOUS
10
187.12
20
-75.4694
11
187.236
21
-75.4924
0
LINE
8
BLACK
6
CONTINUOUS
10
187.236
20
-75.4924
11
187.418
21
-75.5678
0
LINE
8
BLACK
6
CONTINUOUS
10
187.418
20
-75.5678
11
187.581
21
-75.6772
0
LINE
8
BLACK
6
CONTINUOUS
10
187.581
20
-75.6772
11
187.721
21
-75.8165
0
LINE
8
BLACK
6
CONTINUOUS
10
187.721
20
-75.8165
11
187.83
21
-75.9803
0
LINE
8
BLACK
6
CONTINUOUS
10
187.83
20
-75.9803
11
187.906
21
-76.1623
0
LINE
8
BLACK
6
CONTINUOUS
10
187.906
20
-76.1623
11
187.944
21
-76.3555
0
LINE
8
BLACK
6
CONTINUOUS
10
187.944
20
-76.3555
11
187.944
21
-76.5525
0
LINE
8
BLACK
6
CONTINUOUS
10
187.944
20
-76.5525
11
187.906
21
-76.7457
0
LINE
8
BLACK
6
CONTINUOUS
10
187.906
20
-76.7457
11
187.83
21
-76.9277
0
LINE
8
BLACK
6
CONTINUOUS
10
187.83
20
-76.9277
11
187.721
21
-77.0915
0
LINE
8
BLACK
6
CONTINUOUS
10
187.721
20
-77.0915
11
187.581
21
-77.2308
0
LINE
8
BLACK
6
CONTINUOUS
10
187.581
20
-77.2308
11
187.418
21
-77.3402
0
LINE
8
BLACK
6
CONTINUOUS
10
187.418
20
-77.3402
11
187.236
21
-77.4156
0
LINE
8
BLACK
6
CONTINUOUS
10
187.236
20
-77.4156
11
187.12
21
-77.4386
0
LINE
8
BLACK
6
CONTINUOUS
10
187.12
20
-77.4386
11
187.042
21
-77.454
0
LINE
8
BLACK
6
CONTINUOUS
10
187.042
20
-77.454
11
186.846
21
-77.454
0
LINE
8
BLACK
6
CONTINUOUS
10
186.846
20
-77.454
11
186.768
21
-77.4386
0
LINE
8
BLACK
6
CONTINUOUS
10
186.768
20
-77.4386
11
186.652
21
-77.4156
0
LINE
8
BLACK
6
CONTINUOUS
10
186.652
20
-77.4156
11
186.47
21
-77.3402
0
LINE
8
BLACK
6
CONTINUOUS
10
186.47
20
-77.3402
11
186.307
21
-77.2308
0
LINE
8
BLACK
6
CONTINUOUS
10
186.307
20
-77.2308
11
186.167
21
-77.0915
0
LINE
8
BLACK
6
CONTINUOUS
10
186.167
20
-77.0915
11
186.058
21
-76.9277
0
LINE
8
BLACK
6
CONTINUOUS
10
186.058
20
-76.9277
11
185.982
21
-76.7457
0
LINE
8
BLACK
6
CONTINUOUS
10
185.982
20
-76.7457
11
185.944
21
-76.5525
0
LINE
8
BLACK
6
CONTINUOUS
10
185.944
20
-76.5525
11
185.944
21
-76.3555
0
LINE
8
BLACK
6
CONTINUOUS
10
185.944
20
-76.3555
11
185.982
21
-76.1623
0
LINE
8
BLACK
6
CONTINUOUS
10
185.982
20
-76.1623
11
186.058
21
-75.9803
0
LINE
8
BLACK
6
CONTINUOUS
10
186.058
20
-75.9803
11
186.167
21
-75.8165
0
LINE
8
BLACK
6
CONTINUOUS
10
186.167
20
-75.8165
11
186.307
21
-75.6772
0
LINE
8
BLACK
6
CONTINUOUS
10
186.307
20
-75.6772
11
186.47
21
-75.5678
0
LINE
8
BLACK
6
CONTINUOUS
10
186.47
20
-75.5678
11
186.652
21
-75.4924
0
LINE
8
BLACK
6
CONTINUOUS
10
186.652
20
-75.4924
11
186.768
21
-75.4694
0
LINE
8
BLACK
6
CONTINUOUS
10
186.768
20
-75.4694
11
186.846
21
-75.454
0
LINE
8
BLACK
6
CONTINUOUS
10
186.846
20
-75.454
11
187.042
21
-75.454
0
LINE
8
BLACK
6
CONTINUOUS
10
187.042
20
-75.454
11
187.12
21
-75.4694
0
LINE
8
BLACK
6
CONTINUOUS
10
193.62
20
-75.4694
11
193.736
21
-75.4924
0
LINE
8
BLACK
6
CONTINUOUS
10
193.736
20
-75.4924
11
193.918
21
-75.5678
0
LINE
8
BLACK
6
CONTINUOUS
10
193.918
20
-75.5678
11
194.081
21
-75.6772
0
LINE
8
BLACK
6
CONTINUOUS
10
194.081
20
-75.6772
11
194.221
21
-75.8165
0
LINE
8
BLACK
6
CONTINUOUS
10
194.221
20
-75.8165
11
194.33
21
-75.9803
0
LINE
8
BLACK
6
CONTINUOUS
10
194.33
20
-75.9803
11
194.406
21
-76.1623
0
LINE
8
BLACK
6
CONTINUOUS
10
194.406
20
-76.1623
11
194.444
21
-76.3555
0
LINE
8
BLACK
6
CONTINUOUS
10
194.444
20
-76.3555
11
194.444
21
-76.5525
0
LINE
8
BLACK
6
CONTINUOUS
10
194.444
20
-76.5525
11
194.406
21
-76.7457
0
LINE
8
BLACK
6
CONTINUOUS
10
194.406
20
-76.7457
11
194.33
21
-76.9277
0
LINE
8
BLACK
6
CONTINUOUS
10
194.33
20
-76.9277
11
194.221
21
-77.0915
0
LINE
8
BLACK
6
CONTINUOUS
10
194.221
20
-77.0915
11
194.081
21
-77.2308
0
LINE
8
BLACK
6
CONTINUOUS
10
194.081
20
-77.2308
11
193.918
21
-77.3402
0
LINE
8
BLACK
6
CONTINUOUS
10
193.918
20
-77.3402
11
193.736
21
-77.4156
0
LINE
8
BLACK
6
CONTINUOUS
10
193.736
20
-77.4156
11
193.62
21
-77.4386
0
LINE
8
BLACK
6
CONTINUOUS
10
193.62
20
-77.4386
11
193.542
21
-77.454
0
LINE
8
BLACK
6
CONTINUOUS
10
193.542
20
-77.454
11
193.346
21
-77.454
0
LINE
8
BLACK
6
CONTINUOUS
10
193.346
20
-77.454
11
193.268
21
-77.4386
0
LINE
8
BLACK
6
CONTINUOUS
10
193.268
20
-77.4386
11
193.152
21
-77.4156
0
LINE
8
BLACK
6
CONTINUOUS
10
193.152
20
-77.4156
11
192.97
21
-77.3402
0
LINE
8
BLACK
6
CONTINUOUS
10
192.97
20
-77.3402
11
192.807
21
-77.2308
0
LINE
8
BLACK
6
CONTINUOUS
10
192.807
20
-77.2308
11
192.667
21
-77.0915
0
LINE
8
BLACK
6
CONTINUOUS
10
192.667
20
-77.0915
11
192.558
21
-76.9277
0
LINE
8
BLACK
6
CONTINUOUS
10
192.558
20
-76.9277
11
192.482
21
-76.7457
0
LINE
8
BLACK
6
CONTINUOUS
10
192.482
20
-76.7457
11
192.444
21
-76.5525
0
LINE
8
BLACK
6
CONTINUOUS
10
192.444
20
-76.5525
11
192.444
21
-76.3555
0
LINE
8
BLACK
6
CONTINUOUS
10
192.444
20
-76.3555
11
192.482
21
-76.1623
0
LINE
8
BLACK
6
CONTINUOUS
10
192.482
20
-76.1623
11
192.558
21
-75.9803
0
LINE
8
BLACK
6
CONTINUOUS
10
192.558
20
-75.9803
11
192.667
21
-75.8165
0
LINE
8
BLACK
6
CONTINUOUS
10
192.667
20
-75.8165
11
192.807
21
-75.6772
0
LINE
8
BLACK
6
CONTINUOUS
10
192.807
20
-75.6772
11
192.97
21
-75.5678
0
LINE
8
BLACK
6
CONTINUOUS
10
192.97
20
-75.5678
11
193.152
21
-75.4924
0
LINE
8
BLACK
6
CONTINUOUS
10
193.152
20
-75.4924
11
193.268
21
-75.4694
0
LINE
8
BLACK
6
CONTINUOUS
10
193.268
20
-75.4694
11
193.346
21
-75.454
0
LINE
8
BLACK
6
CONTINUOUS
10
193.346
20
-75.454
11
193.542
21
-75.454
0
LINE
8
BLACK
6
CONTINUOUS
10
193.542
20
-75.454
11
193.62
21
-75.4694
0
LINE
8
BLACK
6
CONTINUOUS
10
193.62
20
-72.3494
11
193.736
21
-72.3724
0
LINE
8
BLACK
6
CONTINUOUS
10
193.736
20
-72.3724
11
193.918
21
-72.4478
0
LINE
8
BLACK
6
CONTINUOUS
10
193.918
20
-72.4478
11
194.081
21
-72.5572
0
LINE
8
BLACK
6
CONTINUOUS
10
194.081
20
-72.5572
11
194.221
21
-72.6965
0
LINE
8
BLACK
6
CONTINUOUS
10
194.221
20
-72.6965
11
194.33
21
-72.8603
0
LINE
8
BLACK
6
CONTINUOUS
10
194.33
20
-72.8603
11
194.406
21
-73.0423
0
LINE
8
BLACK
6
CONTINUOUS
10
194.406
20
-73.0423
11
194.444
21
-73.2355
0
LINE
8
BLACK
6
CONTINUOUS
10
194.444
20
-73.2355
11
194.444
21
-73.4325
0
LINE
8
BLACK
6
CONTINUOUS
10
194.444
20
-73.4325
11
194.406
21
-73.6257
0
LINE
8
BLACK
6
CONTINUOUS
10
194.406
20
-73.6257
11
194.33
21
-73.8077
0
LINE
8
BLACK
6
CONTINUOUS
10
194.33
20
-73.8077
11
194.221
21
-73.9715
0
LINE
8
BLACK
6
CONTINUOUS
10
194.221
20
-73.9715
11
194.081
21
-74.1108
0
LINE
8
BLACK
6
CONTINUOUS
10
194.081
20
-74.1108
11
193.918
21
-74.2202
0
LINE
8
BLACK
6
CONTINUOUS
10
193.918
20
-74.2202
11
193.736
21
-74.2956
0
LINE
8
BLACK
6
CONTINUOUS
10
193.736
20
-74.2956
11
193.62
21
-74.3186
0
LINE
8
BLACK
6
CONTINUOUS
10
193.62
20
-74.3186
11
193.542
21
-74.334
0
LINE
8
BLACK
6
CONTINUOUS
10
193.542
20
-74.334
11
193.346
21
-74.334
0
LINE
8
BLACK
6
CONTINUOUS
10
193.346
20
-74.334
11
193.268
21
-74.3186
0
LINE
8
BLACK
6
CONTINUOUS
10
193.268
20
-74.3186
11
193.152
21
-74.2956
0
LINE
8
BLACK
6
CONTINUOUS
10
193.152
20
-74.2956
11
192.97
21
-74.2202
0
LINE
8
BLACK
6
CONTINUOUS
10
192.97
20
-74.2202
11
192.807
21
-74.1108
0
LINE
8
BLACK
6
CONTINUOUS
10
192.807
20
-74.1108
11
192.667
21
-73.9715
0
LINE
8
BLACK
6
CONTINUOUS
10
192.667
20
-73.9715
11
192.558
21
-73.8077
0
LINE
8
BLACK
6
CONTINUOUS
10
192.558
20
-73.8077
11
192.482
21
-73.6257
0
LINE
8
BLACK
6
CONTINUOUS
10
192.482
20
-73.6257
11
192.444
21
-73.4325
0
LINE
8
BLACK
6
CONTINUOUS
10
192.444
20
-73.4325
11
192.444
21
-73.2355
0
LINE
8
BLACK
6
CONTINUOUS
10
192.444
20
-73.2355
11
192.482
21
-73.0423
0
LINE
8
BLACK
6
CONTINUOUS
10
192.482
20
-73.0423
11
192.558
21
-72.8603
0
LINE
8
BLACK
6
CONTINUOUS
10
192.558
20
-72.8603
11
192.667
21
-72.6965
0
LINE
8
BLACK
6
CONTINUOUS
10
192.667
20
-72.6965
11
192.807
21
-72.5572
0
LINE
8
BLACK
6
CONTINUOUS
10
192.807
20
-72.5572
11
192.97
21
-72.4478
0
LINE
8
BLACK
6
CONTINUOUS
10
192.97
20
-72.4478
11
193.152
21
-72.3724
0
LINE
8
BLACK
6
CONTINUOUS
10
193.152
20
-72.3724
11
193.268
21
-72.3494
0
LINE
8
BLACK
6
CONTINUOUS
10
193.268
20
-72.3494
11
193.346
21
-72.334
0
LINE
8
BLACK
6
CONTINUOUS
10
193.346
20
-72.334
11
193.542
21
-72.334
0
LINE
8
BLACK
6
CONTINUOUS
10
193.542
20
-72.334
11
193.62
21
-72.3494
0
LINE
8
BLACK
6
CONTINUOUS
10
187.12
20
-72.3494
11
187.236
21
-72.3724
0
LINE
8
BLACK
6
CONTINUOUS
10
187.236
20
-72.3724
11
187.418
21
-72.4478
0
LINE
8
BLACK
6
CONTINUOUS
10
187.418
20
-72.4478
11
187.581
21
-72.5572
0
LINE
8
BLACK
6
CONTINUOUS
10
187.581
20
-72.5572
11
187.721
21
-72.6965
0
LINE
8
BLACK
6
CONTINUOUS
10
187.721
20
-72.6965
11
187.83
21
-72.8603
0
LINE
8
BLACK
6
CONTINUOUS
10
187.83
20
-72.8603
11
187.906
21
-73.0423
0
LINE
8
BLACK
6
CONTINUOUS
10
187.906
20
-73.0423
11
187.944
21
-73.2355
0
LINE
8
BLACK
6
CONTINUOUS
10
187.944
20
-73.2355
11
187.944
21
-73.4325
0
LINE
8
BLACK
6
CONTINUOUS
10
187.944
20
-73.4325
11
187.906
21
-73.6257
0
LINE
8
BLACK
6
CONTINUOUS
10
187.906
20
-73.6257
11
187.83
21
-73.8077
0
LINE
8
BLACK
6
CONTINUOUS
10
187.83
20
-73.8077
11
187.721
21
-73.9715
0
LINE
8
BLACK
6
CONTINUOUS
10
187.721
20
-73.9715
11
187.581
21
-74.1108
0
LINE
8
BLACK
6
CONTINUOUS
10
187.581
20
-74.1108
11
187.418
21
-74.2202
0
LINE
8
BLACK
6
CONTINUOUS
10
187.418
20
-74.2202
11
187.236
21
-74.2956
0
LINE
8
BLACK
6
CONTINUOUS
10
187.236
20
-74.2956
11
187.12
21
-74.3186
0
LINE
8
BLACK
6
CONTINUOUS
10
187.12
20
-74.3186
11
187.042
21
-74.334
0
LINE
8
BLACK
6
CONTINUOUS
10
187.042
20
-74.334
11
186.846
21
-74.334
0
LINE
8
BLACK
6
CONTINUOUS
10
186.846
20
-74.334
11
186.768
21
-74.3186
0
LINE
8
BLACK
6
CONTINUOUS
10
186.768
20
-74.3186
11
186.652
21
-74.2956
0
LINE
8
BLACK
6
CONTINUOUS
10
186.652
20
-74.2956
11
186.47
21
-74.2202
0
LINE
8
BLACK
6
CONTINUOUS
10
186.47
20
-74.2202
11
186.307
21
-74.1108
0
LINE
8
BLACK
6
CONTINUOUS
10
186.307
20
-74.1108
11
186.167
21
-73.9715
0
LINE
8
BLACK
6
CONTINUOUS
10
186.167
20
-73.9715
11
186.058
21
-73.8077
0
LINE
8
BLACK
6
CONTINUOUS
10
186.058
20
-73.8077
11
185.982
21
-73.6257
0
LINE
8
BLACK
6
CONTINUOUS
10
185.982
20
-73.6257
11
185.944
21
-73.4325
0
LINE
8
BLACK
6
CONTINUOUS
10
185.944
20
-73.4325
11
185.944
21
-73.2355
0
LINE
8
BLACK
6
CONTINUOUS
10
185.944
20
-73.2355
11
185.982
21
-73.0423
0
LINE
8
BLACK
6
CONTINUOUS
10
185.982
20
-73.0423
11
186.058
21
-72.8603
0
LINE
8
BLACK
6
CONTINUOUS
10
186.058
20
-72.8603
11
186.167
21
-72.6965
0
LINE
8
BLACK
6
CONTINUOUS
10
186.167
20
-72.6965
11
186.307
21
-72.5572
0
LINE
8
BLACK
6
CONTINUOUS
10
186.307
20
-72.5572
11
186.47
21
-72.4478
0
LINE
8
BLACK
6
CONTINUOUS
10
186.47
20
-72.4478
11
186.652
21
-72.3724
0
LINE
8
BLACK
6
CONTINUOUS
10
186.652
20
-72.3724
11
186.768
21
-72.3494
0
LINE
8
BLACK
6
CONTINUOUS
10
186.768
20
-72.3494
11
186.846
21
-72.334
0
LINE
8
BLACK
6
CONTINUOUS
10
186.846
20
-72.334
11
187.042
21
-72.334
0
LINE
8
BLACK
6
CONTINUOUS
10
187.042
20
-72.334
11
187.12
21
-72.3494
0
LINE
8
BLACK
6
CONTINUOUS
10
193.62
20
-67.8494
11
193.736
21
-67.8724
0
LINE
8
BLACK
6
CONTINUOUS
10
193.736
20
-67.8724
11
193.918
21
-67.9478
0
LINE
8
BLACK
6
CONTINUOUS
10
193.918
20
-67.9478
11
194.081
21
-68.0572
0
LINE
8
BLACK
6
CONTINUOUS
10
194.081
20
-68.0572
11
194.221
21
-68.1965
0
LINE
8
BLACK
6
CONTINUOUS
10
194.221
20
-68.1965
11
194.33
21
-68.3603
0
LINE
8
BLACK
6
CONTINUOUS
10
194.33
20
-68.3603
11
194.406
21
-68.5423
0
LINE
8
BLACK
6
CONTINUOUS
10
194.406
20
-68.5423
11
194.444
21
-68.7355
0
LINE
8
BLACK
6
CONTINUOUS
10
194.444
20
-68.7355
11
194.444
21
-68.9325
0
LINE
8
BLACK
6
CONTINUOUS
10
194.444
20
-68.9325
11
194.406
21
-69.1257
0
LINE
8
BLACK
6
CONTINUOUS
10
194.406
20
-69.1257
11
194.33
21
-69.3077
0
LINE
8
BLACK
6
CONTINUOUS
10
194.33
20
-69.3077
11
194.221
21
-69.4715
0
LINE
8
BLACK
6
CONTINUOUS
10
194.221
20
-69.4715
11
194.081
21
-69.6108
0
LINE
8
BLACK
6
CONTINUOUS
10
194.081
20
-69.6108
11
193.918
21
-69.7202
0
LINE
8
BLACK
6
CONTINUOUS
10
193.918
20
-69.7202
11
193.736
21
-69.7956
0
LINE
8
BLACK
6
CONTINUOUS
10
193.736
20
-69.7956
11
193.62
21
-69.8186
0
LINE
8
BLACK
6
CONTINUOUS
10
193.62
20
-69.8186
11
193.542
21
-69.834
0
LINE
8
BLACK
6
CONTINUOUS
10
193.542
20
-69.834
11
193.346
21
-69.834
0
LINE
8
BLACK
6
CONTINUOUS
10
193.346
20
-69.834
11
193.268
21
-69.8186
0
LINE
8
BLACK
6
CONTINUOUS
10
193.268
20
-69.8186
11
193.152
21
-69.7956
0
LINE
8
BLACK
6
CONTINUOUS
10
193.152
20
-69.7956
11
192.97
21
-69.7202
0
LINE
8
BLACK
6
CONTINUOUS
10
192.97
20
-69.7202
11
192.807
21
-69.6108
0
LINE
8
BLACK
6
CONTINUOUS
10
192.807
20
-69.6108
11
192.667
21
-69.4715
0
LINE
8
BLACK
6
CONTINUOUS
10
192.667
20
-69.4715
11
192.558
21
-69.3077
0
LINE
8
BLACK
6
CONTINUOUS
10
192.558
20
-69.3077
11
192.482
21
-69.1257
0
LINE
8
BLACK
6
CONTINUOUS
10
192.482
20
-69.1257
11
192.444
21
-68.9325
0
LINE
8
BLACK
6
CONTINUOUS
10
192.444
20
-68.9325
11
192.444
21
-68.7355
0
LINE
8
BLACK
6
CONTINUOUS
10
192.444
20
-68.7355
11
192.482
21
-68.5423
0
LINE
8
BLACK
6
CONTINUOUS
10
192.482
20
-68.5423
11
192.558
21
-68.3603
0
LINE
8
BLACK
6
CONTINUOUS
10
192.558
20
-68.3603
11
192.667
21
-68.1965
0
LINE
8
BLACK
6
CONTINUOUS
10
192.667
20
-68.1965
11
192.807
21
-68.0572
0
LINE
8
BLACK
6
CONTINUOUS
10
192.807
20
-68.0572
11
192.97
21
-67.9478
0
LINE
8
BLACK
6
CONTINUOUS
10
192.97
20
-67.9478
11
193.152
21
-67.8724
0
LINE
8
BLACK
6
CONTINUOUS
10
193.152
20
-67.8724
11
193.268
21
-67.8494
0
LINE
8
BLACK
6
CONTINUOUS
10
193.268
20
-67.8494
11
193.346
21
-67.834
0
LINE
8
BLACK
6
CONTINUOUS
10
193.346
20
-67.834
11
193.542
21
-67.834
0
LINE
8
BLACK
6
CONTINUOUS
10
193.542
20
-67.834
11
193.62
21
-67.8494
0
LINE
8
BLACK
6
CONTINUOUS
10
187.12
20
-67.8494
11
187.236
21
-67.8724
0
LINE
8
BLACK
6
CONTINUOUS
10
187.236
20
-67.8724
11
187.418
21
-67.9478
0
LINE
8
BLACK
6
CONTINUOUS
10
187.418
20
-67.9478
11
187.581
21
-68.0572
0
LINE
8
BLACK
6
CONTINUOUS
10
187.581
20
-68.0572
11
187.721
21
-68.1965
0
LINE
8
BLACK
6
CONTINUOUS
10
187.721
20
-68.1965
11
187.83
21
-68.3603
0
LINE
8
BLACK
6
CONTINUOUS
10
187.83
20
-68.3603
11
187.906
21
-68.5423
0
LINE
8
BLACK
6
CONTINUOUS
10
187.906
20
-68.5423
11
187.944
21
-68.7355
0
LINE
8
BLACK
6
CONTINUOUS
10
187.944
20
-68.7355
11
187.944
21
-68.9325
0
LINE
8
BLACK
6
CONTINUOUS
10
187.944
20
-68.9325
11
187.906
21
-69.1257
0
LINE
8
BLACK
6
CONTINUOUS
10
187.906
20
-69.1257
11
187.83
21
-69.3077
0
LINE
8
BLACK
6
CONTINUOUS
10
187.83
20
-69.3077
11
187.721
21
-69.4715
0
LINE
8
BLACK
6
CONTINUOUS
10
187.721
20
-69.4715
11
187.581
21
-69.6108
0
LINE
8
BLACK
6
CONTINUOUS
10
187.581
20
-69.6108
11
187.418
21
-69.7202
0
LINE
8
BLACK
6
CONTINUOUS
10
187.418
20
-69.7202
11
187.236
21
-69.7956
0
LINE
8
BLACK
6
CONTINUOUS
10
187.236
20
-69.7956
11
187.12
21
-69.8186
0
LINE
8
BLACK
6
CONTINUOUS
10
187.12
20
-69.8186
11
187.042
21
-69.834
0
LINE
8
BLACK
6
CONTINUOUS
10
187.042
20
-69.834
11
186.846
21
-69.834
0
LINE
8
BLACK
6
CONTINUOUS
10
186.846
20
-69.834
11
186.768
21
-69.8186
0
LINE
8
BLACK
6
CONTINUOUS
10
186.768
20
-69.8186
11
186.652
21
-69.7956
0
LINE
8
BLACK
6
CONTINUOUS
10
186.652
20
-69.7956
11
186.47
21
-69.7202
0
LINE
8
BLACK
6
CONTINUOUS
10
186.47
20
-69.7202
11
186.307
21
-69.6108
0
LINE
8
BLACK
6
CONTINUOUS
10
186.307
20
-69.6108
11
186.167
21
-69.4715
0
LINE
8
BLACK
6
CONTINUOUS
10
186.167
20
-69.4715
11
186.058
21
-69.3077
0
LINE
8
BLACK
6
CONTINUOUS
10
186.058
20
-69.3077
11
185.982
21
-69.1257
0
LINE
8
BLACK
6
CONTINUOUS
10
185.982
20
-69.1257
11
185.944
21
-68.9325
0
LINE
8
BLACK
6
CONTINUOUS
10
185.944
20
-68.9325
11
185.944
21
-68.7355
0
LINE
8
BLACK
6
CONTINUOUS
10
185.944
20
-68.7355
11
185.982
21
-68.5423
0
LINE
8
BLACK
6
CONTINUOUS
10
185.982
20
-68.5423
11
186.058
21
-68.3603
0
LINE
8
BLACK
6
CONTINUOUS
10
186.058
20
-68.3603
11
186.167
21
-68.1965
0
LINE
8
BLACK
6
CONTINUOUS
10
186.167
20
-68.1965
11
186.307
21
-68.0572
0
LINE
8
BLACK
6
CONTINUOUS
10
186.307
20
-68.0572
11
186.47
21
-67.9478
0
LINE
8
BLACK
6
CONTINUOUS
10
186.47
20
-67.9478
11
186.652
21
-67.8724
0
LINE
8
BLACK
6
CONTINUOUS
10
186.652
20
-67.8724
11
186.768
21
-67.8494
0
LINE
8
BLACK
6
CONTINUOUS
10
186.768
20
-67.8494
11
186.846
21
-67.834
0
LINE
8
BLACK
6
CONTINUOUS
10
186.846
20
-67.834
11
187.042
21
-67.834
0
LINE
8
BLACK
6
CONTINUOUS
10
187.042
20
-67.834
11
187.12
21
-67.8494
  0
ENDSEC
  0
EOF
