<?xml version="1.0" standalone="no"?>
 <!DOCTYPE svg PUBLIC "-//W3C//DTD SVG 1.1//EN" 
 "http://www.w3.org/Graphics/SVG/1.1/DTD/svg11.dtd"> 
<svg xmlns="http://www.w3.org/2000/svg" version="1.1" 
    width="29.7002cm" height="21.0007cm" viewBox="0 0 116930 82680 ">
<title>SVG Picture created as layout-brd.svg date 2019/11/21 21:18:45 </title>
  <desc>Picture generated by PCBNEW </desc>
<g style="fill:#000000; fill-opacity:1;stroke:#000000; stroke-opacity:1;
stroke-linecap:round; stroke-linejoin:round; "
 transform="translate(0 0) scale(1 1)">
</g>
<g style="fill:#000000; fill-opacity:0.0; 
stroke:#000000; stroke-width:-0.000393701; stroke-opacity:1; 
stroke-linecap:round; stroke-linejoin:round;">
</g>
<g style="fill:#000000; fill-opacity:0.0; 
stroke:#000000; stroke-width:39.3701; stroke-opacity:1; 
stroke-linecap:round; stroke-linejoin:round;">
</g>
<g style="fill:#000000; fill-opacity:0.0; 
stroke:#000000; stroke-width:59.0551; stroke-opacity:1; 
stroke-linecap:round; stroke-linejoin:round;">
<rect x="69685.9" y="65357.2" width="42519.7" height="12598.4" rx="0" />
</g>
<g style="fill:#000000; fill-opacity:0.0; 
stroke:#000000; stroke-width:39.3701; stroke-opacity:1; 
stroke-linecap:round; stroke-linejoin:round;">
</g>
<g style="fill:#000000; fill-opacity:0.0; 
stroke:#000000; stroke-width:59.0551; stroke-opacity:1; 
stroke-linecap:round; stroke-linejoin:round;">
<rect x="3937.01" y="3937.01" width="109056" height="74806" rx="0" />
</g>
<g style="fill:#000000; fill-opacity:0.0; 
stroke:#000000; stroke-width:39.3701; stroke-opacity:1; 
stroke-linecap:round; stroke-linejoin:round;">
</g>
<g style="fill:#000000; fill-opacity:0.0; 
stroke:#000000; stroke-width:59.0551; stroke-opacity:1; 
stroke-linecap:round; stroke-linejoin:round;">
<rect x="4724.41" y="4724.41" width="107481" height="73231.2" rx="0" />
</g>
<g style="fill:#000000; fill-opacity:0.0; 
stroke:#000000; stroke-width:39.3701; stroke-opacity:1; 
stroke-linecap:round; stroke-linejoin:round;">
</g>
<g style="fill:#000000; fill-opacity:0.0; 
stroke:#000000; stroke-width:59.0551; stroke-opacity:1; 
stroke-linecap:round; stroke-linejoin:round;">
<path d="M23622 4724
L23622 3937
" />
</g>
<g style="fill:#000000; fill-opacity:0.0; 
stroke:#000000; stroke-width:39.3701; stroke-opacity:1; 
stroke-linecap:round; stroke-linejoin:round;">
</g>
<g style="fill:#000000; fill-opacity:0.0; 
stroke:#000000; stroke-width:59.0551; stroke-opacity:1; 
stroke-linecap:round; stroke-linejoin:round;">
<path d="M43307 4724
L43307 3937
" />
</g>
<g style="fill:#000000; fill-opacity:0.0; 
stroke:#000000; stroke-width:39.3701; stroke-opacity:1; 
stroke-linecap:round; stroke-linejoin:round;">
</g>
<g style="fill:#000000; fill-opacity:0.0; 
stroke:#000000; stroke-width:59.0551; stroke-opacity:1; 
stroke-linecap:round; stroke-linejoin:round;">
<path d="M62992 4724
L62992 3937
" />
</g>
<g style="fill:#000000; fill-opacity:0.0; 
stroke:#000000; stroke-width:39.3701; stroke-opacity:1; 
stroke-linecap:round; stroke-linejoin:round;">
</g>
<g style="fill:#000000; fill-opacity:0.0; 
stroke:#000000; stroke-width:59.0551; stroke-opacity:1; 
stroke-linecap:round; stroke-linejoin:round;">
<path d="M82677 4724
L82677 3937
" />
</g>
<g style="fill:#000000; fill-opacity:0.0; 
stroke:#000000; stroke-width:39.3701; stroke-opacity:1; 
stroke-linecap:round; stroke-linejoin:round;">
</g>
<g style="fill:#000000; fill-opacity:0.0; 
stroke:#000000; stroke-width:59.0551; stroke-opacity:1; 
stroke-linecap:round; stroke-linejoin:round;">
<path d="M102362 4724
L102362 3937
" />
</g>
<g style="fill:#000000; fill-opacity:0.0; 
stroke:#000000; stroke-width:39.3701; stroke-opacity:1; 
stroke-linecap:round; stroke-linejoin:round;">
</g>
<g style="fill:#000000; fill-opacity:0.0; 
stroke:#000000; stroke-width:59.0551; stroke-opacity:1; 
stroke-linecap:round; stroke-linejoin:round;">
<path d="M14199 4562
L13906 4562
" />
<path d="M14052 4562
L14052 4050
L14004 4123
L13955 4172
L13906 4196
" />
</g>
<g style="fill:#000000; fill-opacity:0.0; 
stroke:#000000; stroke-width:39.3701; stroke-opacity:1; 
stroke-linecap:round; stroke-linejoin:round;">
</g>
<g style="fill:#000000; fill-opacity:0.0; 
stroke:#000000; stroke-width:59.0551; stroke-opacity:1; 
stroke-linecap:round; stroke-linejoin:round;">
<path d="M33591 4099
L33615 4074
L33664 4050
L33786 4050
L33835 4074
L33859 4099
L33884 4147
L33884 4196
L33859 4269
L33567 4562
L33884 4562
" />
</g>
<g style="fill:#000000; fill-opacity:0.0; 
stroke:#000000; stroke-width:39.3701; stroke-opacity:1; 
stroke-linecap:round; stroke-linejoin:round;">
</g>
<g style="fill:#000000; fill-opacity:0.0; 
stroke:#000000; stroke-width:59.0551; stroke-opacity:1; 
stroke-linecap:round; stroke-linejoin:round;">
<path d="M53252 4050
L53569 4050
L53398 4245
L53471 4245
L53520 4269
L53544 4294
L53569 4342
L53569 4464
L53544 4513
L53520 4537
L53471 4562
L53325 4562
L53276 4537
L53252 4513
" />
</g>
<g style="fill:#000000; fill-opacity:0.0; 
stroke:#000000; stroke-width:39.3701; stroke-opacity:1; 
stroke-linecap:round; stroke-linejoin:round;">
</g>
<g style="fill:#000000; fill-opacity:0.0; 
stroke:#000000; stroke-width:59.0551; stroke-opacity:1; 
stroke-linecap:round; stroke-linejoin:round;">
<path d="M73205 4221
L73205 4562
" />
<path d="M73083 4026
L72961 4391
L73278 4391
" />
</g>
<g style="fill:#000000; fill-opacity:0.0; 
stroke:#000000; stroke-width:39.3701; stroke-opacity:1; 
stroke-linecap:round; stroke-linejoin:round;">
</g>
<g style="fill:#000000; fill-opacity:0.0; 
stroke:#000000; stroke-width:59.0551; stroke-opacity:1; 
stroke-linecap:round; stroke-linejoin:round;">
<path d="M92914 4050
L92671 4050
L92646 4294
L92671 4269
L92719 4245
L92841 4245
L92890 4269
L92914 4294
L92939 4342
L92939 4464
L92914 4513
L92890 4537
L92841 4562
L92719 4562
L92671 4537
L92646 4513
" />
</g>
<g style="fill:#000000; fill-opacity:0.0; 
stroke:#000000; stroke-width:39.3701; stroke-opacity:1; 
stroke-linecap:round; stroke-linejoin:round;">
</g>
<g style="fill:#000000; fill-opacity:0.0; 
stroke:#000000; stroke-width:59.0551; stroke-opacity:1; 
stroke-linecap:round; stroke-linejoin:round;">
<path d="M112575 4050
L112477 4050
L112429 4074
L112404 4099
L112356 4172
L112331 4269
L112331 4464
L112356 4513
L112380 4537
L112429 4562
L112526 4562
L112575 4537
L112599 4513
L112624 4464
L112624 4342
L112599 4294
L112575 4269
L112526 4245
L112429 4245
L112380 4269
L112356 4294
L112331 4342
" />
</g>
<g style="fill:#000000; fill-opacity:0.0; 
stroke:#000000; stroke-width:39.3701; stroke-opacity:1; 
stroke-linecap:round; stroke-linejoin:round;">
</g>
<g style="fill:#000000; fill-opacity:0.0; 
stroke:#000000; stroke-width:59.0551; stroke-opacity:1; 
stroke-linecap:round; stroke-linejoin:round;">
<path d="M23622 77955
L23622 78742
" />
</g>
<g style="fill:#000000; fill-opacity:0.0; 
stroke:#000000; stroke-width:39.3701; stroke-opacity:1; 
stroke-linecap:round; stroke-linejoin:round;">
</g>
<g style="fill:#000000; fill-opacity:0.0; 
stroke:#000000; stroke-width:59.0551; stroke-opacity:1; 
stroke-linecap:round; stroke-linejoin:round;">
<path d="M43307 77955
L43307 78742
" />
</g>
<g style="fill:#000000; fill-opacity:0.0; 
stroke:#000000; stroke-width:39.3701; stroke-opacity:1; 
stroke-linecap:round; stroke-linejoin:round;">
</g>
<g style="fill:#000000; fill-opacity:0.0; 
stroke:#000000; stroke-width:59.0551; stroke-opacity:1; 
stroke-linecap:round; stroke-linejoin:round;">
<path d="M62992 77955
L62992 78742
" />
</g>
<g style="fill:#000000; fill-opacity:0.0; 
stroke:#000000; stroke-width:39.3701; stroke-opacity:1; 
stroke-linecap:round; stroke-linejoin:round;">
</g>
<g style="fill:#000000; fill-opacity:0.0; 
stroke:#000000; stroke-width:59.0551; stroke-opacity:1; 
stroke-linecap:round; stroke-linejoin:round;">
<path d="M82677 77955
L82677 78742
" />
</g>
<g style="fill:#000000; fill-opacity:0.0; 
stroke:#000000; stroke-width:39.3701; stroke-opacity:1; 
stroke-linecap:round; stroke-linejoin:round;">
</g>
<g style="fill:#000000; fill-opacity:0.0; 
stroke:#000000; stroke-width:59.0551; stroke-opacity:1; 
stroke-linecap:round; stroke-linejoin:round;">
<path d="M102362 77955
L102362 78742
" />
</g>
<g style="fill:#000000; fill-opacity:0.0; 
stroke:#000000; stroke-width:39.3701; stroke-opacity:1; 
stroke-linecap:round; stroke-linejoin:round;">
</g>
<g style="fill:#000000; fill-opacity:0.0; 
stroke:#000000; stroke-width:59.0551; stroke-opacity:1; 
stroke-linecap:round; stroke-linejoin:round;">
<path d="M14199 78580
L13906 78580
" />
<path d="M14052 78580
L14052 78069
L14004 78142
L13955 78190
L13906 78215
" />
</g>
<g style="fill:#000000; fill-opacity:0.0; 
stroke:#000000; stroke-width:39.3701; stroke-opacity:1; 
stroke-linecap:round; stroke-linejoin:round;">
</g>
<g style="fill:#000000; fill-opacity:0.0; 
stroke:#000000; stroke-width:59.0551; stroke-opacity:1; 
stroke-linecap:round; stroke-linejoin:round;">
<path d="M33591 78117
L33615 78093
L33664 78069
L33786 78069
L33835 78093
L33859 78117
L33884 78166
L33884 78215
L33859 78288
L33567 78580
L33884 78580
" />
</g>
<g style="fill:#000000; fill-opacity:0.0; 
stroke:#000000; stroke-width:39.3701; stroke-opacity:1; 
stroke-linecap:round; stroke-linejoin:round;">
</g>
<g style="fill:#000000; fill-opacity:0.0; 
stroke:#000000; stroke-width:59.0551; stroke-opacity:1; 
stroke-linecap:round; stroke-linejoin:round;">
<path d="M53252 78069
L53569 78069
L53398 78263
L53471 78263
L53520 78288
L53544 78312
L53569 78361
L53569 78483
L53544 78532
L53520 78556
L53471 78580
L53325 78580
L53276 78556
L53252 78532
" />
</g>
<g style="fill:#000000; fill-opacity:0.0; 
stroke:#000000; stroke-width:39.3701; stroke-opacity:1; 
stroke-linecap:round; stroke-linejoin:round;">
</g>
<g style="fill:#000000; fill-opacity:0.0; 
stroke:#000000; stroke-width:59.0551; stroke-opacity:1; 
stroke-linecap:round; stroke-linejoin:round;">
<path d="M73205 78239
L73205 78580
" />
<path d="M73083 78044
L72961 78410
L73278 78410
" />
</g>
<g style="fill:#000000; fill-opacity:0.0; 
stroke:#000000; stroke-width:39.3701; stroke-opacity:1; 
stroke-linecap:round; stroke-linejoin:round;">
</g>
<g style="fill:#000000; fill-opacity:0.0; 
stroke:#000000; stroke-width:59.0551; stroke-opacity:1; 
stroke-linecap:round; stroke-linejoin:round;">
<path d="M92914 78069
L92671 78069
L92646 78312
L92671 78288
L92719 78263
L92841 78263
L92890 78288
L92914 78312
L92939 78361
L92939 78483
L92914 78532
L92890 78556
L92841 78580
L92719 78580
L92671 78556
L92646 78532
" />
</g>
<g style="fill:#000000; fill-opacity:0.0; 
stroke:#000000; stroke-width:39.3701; stroke-opacity:1; 
stroke-linecap:round; stroke-linejoin:round;">
</g>
<g style="fill:#000000; fill-opacity:0.0; 
stroke:#000000; stroke-width:59.0551; stroke-opacity:1; 
stroke-linecap:round; stroke-linejoin:round;">
<path d="M112575 78069
L112477 78069
L112429 78093
L112404 78117
L112356 78190
L112331 78288
L112331 78483
L112356 78532
L112380 78556
L112429 78580
L112526 78580
L112575 78556
L112599 78532
L112624 78483
L112624 78361
L112599 78312
L112575 78288
L112526 78263
L112429 78263
L112380 78288
L112356 78312
L112331 78361
" />
</g>
<g style="fill:#000000; fill-opacity:0.0; 
stroke:#000000; stroke-width:39.3701; stroke-opacity:1; 
stroke-linecap:round; stroke-linejoin:round;">
</g>
<g style="fill:#000000; fill-opacity:0.0; 
stroke:#000000; stroke-width:59.0551; stroke-opacity:1; 
stroke-linecap:round; stroke-linejoin:round;">
<path d="M3937 23622
L4724 23622
" />
</g>
<g style="fill:#000000; fill-opacity:0.0; 
stroke:#000000; stroke-width:39.3701; stroke-opacity:1; 
stroke-linecap:round; stroke-linejoin:round;">
</g>
<g style="fill:#000000; fill-opacity:0.0; 
stroke:#000000; stroke-width:59.0551; stroke-opacity:1; 
stroke-linecap:round; stroke-linejoin:round;">
<path d="M3937 43307
L4724 43307
" />
</g>
<g style="fill:#000000; fill-opacity:0.0; 
stroke:#000000; stroke-width:39.3701; stroke-opacity:1; 
stroke-linecap:round; stroke-linejoin:round;">
</g>
<g style="fill:#000000; fill-opacity:0.0; 
stroke:#000000; stroke-width:59.0551; stroke-opacity:1; 
stroke-linecap:round; stroke-linejoin:round;">
<path d="M3937 62992
L4724 62992
" />
</g>
<g style="fill:#000000; fill-opacity:0.0; 
stroke:#000000; stroke-width:39.3701; stroke-opacity:1; 
stroke-linecap:round; stroke-linejoin:round;">
</g>
<g style="fill:#000000; fill-opacity:0.0; 
stroke:#000000; stroke-width:59.0551; stroke-opacity:1; 
stroke-linecap:round; stroke-linejoin:round;">
<path d="M4208 13864
L4452 13864
" />
<path d="M4160 14011
L4330 13499
L4501 14011
" />
</g>
<g style="fill:#000000; fill-opacity:0.0; 
stroke:#000000; stroke-width:39.3701; stroke-opacity:1; 
stroke-linecap:round; stroke-linejoin:round;">
</g>
<g style="fill:#000000; fill-opacity:0.0; 
stroke:#000000; stroke-width:59.0551; stroke-opacity:1; 
stroke-linecap:round; stroke-linejoin:round;">
<path d="M4367 33428
L4440 33452
L4464 33476
L4489 33525
L4489 33598
L4464 33647
L4440 33671
L4391 33696
L4196 33696
L4196 33184
L4367 33184
L4416 33208
L4440 33233
L4464 33281
L4464 33330
L4440 33379
L4416 33403
L4367 33428
L4196 33428
" />
</g>
<g style="fill:#000000; fill-opacity:0.0; 
stroke:#000000; stroke-width:39.3701; stroke-opacity:1; 
stroke-linecap:round; stroke-linejoin:round;">
</g>
<g style="fill:#000000; fill-opacity:0.0; 
stroke:#000000; stroke-width:59.0551; stroke-opacity:1; 
stroke-linecap:round; stroke-linejoin:round;">
<path d="M4489 53332
L4464 53356
L4391 53381
L4342 53381
L4269 53356
L4221 53308
L4196 53259
L4172 53161
L4172 53088
L4196 52991
L4221 52942
L4269 52893
L4342 52869
L4391 52869
L4464 52893
L4489 52918
" />
</g>
<g style="fill:#000000; fill-opacity:0.0; 
stroke:#000000; stroke-width:39.3701; stroke-opacity:1; 
stroke-linecap:round; stroke-linejoin:round;">
</g>
<g style="fill:#000000; fill-opacity:0.0; 
stroke:#000000; stroke-width:59.0551; stroke-opacity:1; 
stroke-linecap:round; stroke-linejoin:round;">
<path d="M4196 73066
L4196 72554
L4318 72554
L4391 72578
L4440 72627
L4464 72676
L4489 72773
L4489 72846
L4464 72944
L4440 72993
L4391 73041
L4318 73066
L4196 73066
" />
</g>
<g style="fill:#000000; fill-opacity:0.0; 
stroke:#000000; stroke-width:39.3701; stroke-opacity:1; 
stroke-linecap:round; stroke-linejoin:round;">
</g>
<g style="fill:#000000; fill-opacity:0.0; 
stroke:#000000; stroke-width:59.0551; stroke-opacity:1; 
stroke-linecap:round; stroke-linejoin:round;">
<path d="M112992 23622
L112205 23622
" />
</g>
<g style="fill:#000000; fill-opacity:0.0; 
stroke:#000000; stroke-width:39.3701; stroke-opacity:1; 
stroke-linecap:round; stroke-linejoin:round;">
</g>
<g style="fill:#000000; fill-opacity:0.0; 
stroke:#000000; stroke-width:59.0551; stroke-opacity:1; 
stroke-linecap:round; stroke-linejoin:round;">
<path d="M112992 43307
L112205 43307
" />
</g>
<g style="fill:#000000; fill-opacity:0.0; 
stroke:#000000; stroke-width:39.3701; stroke-opacity:1; 
stroke-linecap:round; stroke-linejoin:round;">
</g>
<g style="fill:#000000; fill-opacity:0.0; 
stroke:#000000; stroke-width:59.0551; stroke-opacity:1; 
stroke-linecap:round; stroke-linejoin:round;">
<path d="M112992 62992
L112205 62992
" />
</g>
<g style="fill:#000000; fill-opacity:0.0; 
stroke:#000000; stroke-width:39.3701; stroke-opacity:1; 
stroke-linecap:round; stroke-linejoin:round;">
</g>
<g style="fill:#000000; fill-opacity:0.0; 
stroke:#000000; stroke-width:59.0551; stroke-opacity:1; 
stroke-linecap:round; stroke-linejoin:round;">
<path d="M112477 13864
L112721 13864
" />
<path d="M112428 14011
L112599 13499
L112769 14011
" />
</g>
<g style="fill:#000000; fill-opacity:0.0; 
stroke:#000000; stroke-width:39.3701; stroke-opacity:1; 
stroke-linecap:round; stroke-linejoin:round;">
</g>
<g style="fill:#000000; fill-opacity:0.0; 
stroke:#000000; stroke-width:59.0551; stroke-opacity:1; 
stroke-linecap:round; stroke-linejoin:round;">
<path d="M112635 33428
L112708 33452
L112733 33476
L112757 33525
L112757 33598
L112733 33647
L112708 33671
L112660 33696
L112465 33696
L112465 33184
L112635 33184
L112684 33208
L112708 33233
L112733 33281
L112733 33330
L112708 33379
L112684 33403
L112635 33428
L112465 33428
" />
</g>
<g style="fill:#000000; fill-opacity:0.0; 
stroke:#000000; stroke-width:39.3701; stroke-opacity:1; 
stroke-linecap:round; stroke-linejoin:round;">
</g>
<g style="fill:#000000; fill-opacity:0.0; 
stroke:#000000; stroke-width:59.0551; stroke-opacity:1; 
stroke-linecap:round; stroke-linejoin:round;">
<path d="M112757 53332
L112733 53356
L112660 53381
L112611 53381
L112538 53356
L112489 53308
L112465 53259
L112440 53161
L112440 53088
L112465 52991
L112489 52942
L112538 52893
L112611 52869
L112660 52869
L112733 52893
L112757 52918
" />
</g>
<g style="fill:#000000; fill-opacity:0.0; 
stroke:#000000; stroke-width:39.3701; stroke-opacity:1; 
stroke-linecap:round; stroke-linejoin:round;">
</g>
<g style="fill:#000000; fill-opacity:0.0; 
stroke:#000000; stroke-width:59.0551; stroke-opacity:1; 
stroke-linecap:round; stroke-linejoin:round;">
<path d="M112465 73066
L112465 72554
L112587 72554
L112660 72578
L112708 72627
L112733 72676
L112757 72773
L112757 72846
L112733 72944
L112708 72993
L112660 73041
L112587 73066
L112465 73066
" />
</g>
<g style="fill:#000000; fill-opacity:0.0; 
stroke:#000000; stroke-width:39.3701; stroke-opacity:1; 
stroke-linecap:round; stroke-linejoin:round;">
</g>
<g style="fill:#000000; fill-opacity:0.0; 
stroke:#000000; stroke-width:59.0551; stroke-opacity:1; 
stroke-linecap:round; stroke-linejoin:round;">
<path d="M78911 76293
L78911 75703
L79051 75703
L79136 75731
L79192 75787
L79220 75843
L79248 75956
L79248 76040
L79220 76153
L79192 76209
L79136 76265
L79051 76293
L78911 76293
" />
<path d="M79754 76293
L79754 75984
L79726 75928
L79670 75899
L79557 75899
L79501 75928
" />
<path d="M79754 76265
L79698 76293
L79557 76293
L79501 76265
L79473 76209
L79473 76153
L79501 76096
L79557 76068
L79698 76068
L79754 76040
" />
<path d="M79951 75899
L80176 75899
" />
<path d="M80036 75703
L80036 76209
L80064 76265
L80120 76293
L80176 76293
" />
<path d="M80598 76265
L80542 76293
L80429 76293
L80373 76265
L80345 76209
L80345 75984
L80373 75928
L80429 75899
L80542 75899
L80598 75928
L80626 75984
L80626 76040
L80345 76096
" />
<path d="M80879 76237
L80907 76265
L80879 76293
L80851 76265
L80879 76237
L80879 76293
" />
<path d="M80879 75928
L80907 75956
L80879 75984
L80851 75956
L80879 75928
L80879 75984
" />
</g>
<g style="fill:#000000; fill-opacity:0.0; 
stroke:#000000; stroke-width:39.3701; stroke-opacity:1; 
stroke-linecap:round; stroke-linejoin:round;">
</g>
<g style="fill:#000000; fill-opacity:0.0; 
stroke:#000000; stroke-width:59.0551; stroke-opacity:1; 
stroke-linecap:round; stroke-linejoin:round;">
<path d="M69685 76577
L112205 76577
" />
</g>
<g style="fill:#000000; fill-opacity:0.0; 
stroke:#000000; stroke-width:39.3701; stroke-opacity:1; 
stroke-linecap:round; stroke-linejoin:round;">
</g>
<g style="fill:#000000; fill-opacity:0.0; 
stroke:#000000; stroke-width:59.0551; stroke-opacity:1; 
stroke-linecap:round; stroke-linejoin:round;">
<path d="M70249 77395
L70249 76805
" />
<path d="M70587 77395
L70334 77058
" />
<path d="M70587 76805
L70249 77142
" />
<path d="M70840 77395
L70840 77002
" />
<path d="M70840 76805
L70812 76833
L70840 76861
L70868 76833
L70840 76805
L70840 76861
" />
<path d="M71458 77339
L71430 77367
L71346 77395
L71290 77395
L71205 77367
L71149 77311
L71121 77255
L71093 77142
L71093 77058
L71121 76946
L71149 76889
L71205 76833
L71290 76805
L71346 76805
L71430 76833
L71458 76861
" />
<path d="M71965 77395
L71965 77086
L71937 77030
L71880 77002
L71768 77002
L71712 77030
" />
<path d="M71965 77367
L71908 77395
L71768 77395
L71712 77367
L71683 77311
L71683 77255
L71712 77199
L71768 77171
L71908 77171
L71965 77142
" />
<path d="M72499 77395
L72499 76805
" />
<path d="M72499 77367
L72443 77395
L72330 77395
L72274 77367
L72246 77339
L72218 77283
L72218 77114
L72246 77058
L72274 77030
L72330 77002
L72443 77002
L72499 77030
" />
<path d="M73230 77086
L73427 77086
" />
<path d="M73511 77395
L73230 77395
L73230 76805
L73511 76805
" />
<path d="M73764 77339
L73793 77367
L73764 77395
L73736 77367
L73764 77339
L73764 77395
" />
<path d="M74046 77395
L74046 76805
L74186 76805
L74271 76833
L74327 76889
L74355 76946
L74383 77058
L74383 77142
L74355 77255
L74327 77311
L74271 77367
L74186 77395
L74046 77395
" />
<path d="M74636 77339
L74664 77367
L74636 77395
L74608 77367
L74636 77339
L74636 77395
" />
<path d="M74889 77227
L75171 77227
" />
<path d="M74833 77395
L75030 76805
L75227 77395
" />
<path d="M75424 77339
L75452 77367
L75424 77395
L75395 77367
L75424 77339
L75424 77395
" />
<path d="M76605 77002
L76605 77592
" />
<path d="M76605 77030
L76661 77002
L76773 77002
L76830 77030
L76858 77058
L76886 77114
L76886 77283
L76858 77339
L76830 77367
L76773 77395
L76661 77395
L76605 77367
" />
<path d="M77392 77367
L77336 77395
L77223 77395
L77167 77367
L77139 77339
L77111 77283
L77111 77114
L77139 77058
L77167 77030
L77223 77002
L77336 77002
L77392 77030
" />
<path d="M77645 77395
L77645 76805
" />
<path d="M77645 77030
L77701 77002
L77814 77002
L77870 77030
L77898 77058
L77926 77114
L77926 77283
L77898 77339
L77870 77367
L77814 77395
L77701 77395
L77645 77367
" />
<path d="M78180 77002
L78180 77395
" />
<path d="M78180 77058
L78208 77030
L78264 77002
L78348 77002
L78404 77030
L78433 77086
L78433 77395
" />
<path d="M78939 77367
L78883 77395
L78770 77395
L78714 77367
L78686 77311
L78686 77086
L78714 77030
L78770 77002
L78883 77002
L78939 77030
L78967 77086
L78967 77142
L78686 77199
" />
<path d="M79164 77002
L79276 77395
L79389 77114
L79501 77395
L79614 77002
" />
<path d="M80457 77620
L80429 77592
L80373 77508
L80345 77452
L80317 77367
L80289 77227
L80289 77114
L80317 76974
L80345 76889
L80373 76833
L80429 76749
L80457 76721
" />
<path d="M80964 76805
L80682 76805
L80654 77086
L80682 77058
L80739 77030
L80879 77030
L80935 77058
L80964 77086
L80992 77142
L80992 77283
L80964 77339
L80935 77367
L80879 77395
L80739 77395
L80682 77367
L80654 77339
" />
<path d="M81245 77339
L81273 77367
L81245 77395
L81217 77367
L81245 77339
L81245 77395
" />
<path d="M81638 76805
L81695 76805
L81751 76833
L81779 76861
L81807 76917
L81835 77030
L81835 77171
L81807 77283
L81779 77339
L81751 77367
L81695 77395
L81638 77395
L81582 77367
L81554 77339
L81526 77283
L81498 77171
L81498 77030
L81526 76917
L81554 76861
L81582 76833
L81638 76805
" />
<path d="M82088 77339
L82117 77367
L82088 77395
L82060 77367
L82088 77339
L82088 77395
" />
<path d="M82341 76861
L82370 76833
L82426 76805
L82566 76805
L82623 76833
L82651 76861
L82679 76917
L82679 76974
L82651 77058
L82313 77395
L82679 77395
" />
<path d="M82876 77620
L82904 77592
L82960 77508
L82988 77452
L83016 77367
L83045 77227
L83045 77114
L83016 76974
L82988 76889
L82960 76833
L82904 76749
L82876 76721
" />
<path d="M83326 77171
L83776 77171
" />
<path d="M84366 77395
L84029 77395
" />
<path d="M84197 77395
L84197 76805
L84141 76889
L84085 76946
L84029 76974
" />
</g>
<g style="fill:#000000; fill-opacity:0.0; 
stroke:#000000; stroke-width:39.3701; stroke-opacity:1; 
stroke-linecap:round; stroke-linejoin:round;">
</g>
<g style="fill:#000000; fill-opacity:0.0; 
stroke:#000000; stroke-width:59.0551; stroke-opacity:1; 
stroke-linecap:round; stroke-linejoin:round;">
<path d="M69685 75396
L112205 75396
" />
</g>
<g style="fill:#000000; fill-opacity:0.0; 
stroke:#000000; stroke-width:39.3701; stroke-opacity:1; 
stroke-linecap:round; stroke-linejoin:round;">
</g>
<g style="fill:#000000; fill-opacity:0.0; 
stroke:#000000; stroke-width:118.11; stroke-opacity:1; 
stroke-linecap:round; stroke-linejoin:round;">
<path d="M104099 76293
L103902 76012
" />
<path d="M103761 76293
L103761 75703
L103986 75703
L104042 75731
L104070 75759
L104099 75815
L104099 75899
L104070 75956
L104042 75984
L103986 76012
L103761 76012
" />
<path d="M104577 76265
L104520 76293
L104408 76293
L104352 76265
L104323 76209
L104323 75984
L104352 75928
L104408 75899
L104520 75899
L104577 75928
L104605 75984
L104605 76040
L104323 76096
" />
<path d="M104802 75899
L104942 76293
L105083 75899
" />
<path d="M105308 76237
L105336 76265
L105308 76293
L105280 76265
L105308 76237
L105308 76293
" />
<path d="M105308 75928
L105336 75956
L105308 75984
L105280 75956
L105308 75928
L105308 75984
" />
</g>
<g style="fill:#000000; fill-opacity:0.0; 
stroke:#000000; stroke-width:39.3701; stroke-opacity:1; 
stroke-linecap:round; stroke-linejoin:round;">
</g>
<g style="fill:#000000; fill-opacity:0.0; 
stroke:#000000; stroke-width:59.0551; stroke-opacity:1; 
stroke-linecap:round; stroke-linejoin:round;">
<path d="M70221 76265
L70305 76293
L70446 76293
L70502 76265
L70530 76237
L70559 76181
L70559 76124
L70530 76068
L70502 76040
L70446 76012
L70334 75984
L70277 75956
L70249 75928
L70221 75871
L70221 75815
L70249 75759
L70277 75731
L70334 75703
L70474 75703
L70559 75731
" />
<path d="M70812 76293
L70812 75899
" />
<path d="M70812 75703
L70784 75731
L70812 75759
L70840 75731
L70812 75703
L70812 75759
" />
<path d="M71037 75899
L71346 75899
L71037 76293
L71346 76293
" />
<path d="M71796 76265
L71740 76293
L71627 76293
L71571 76265
L71543 76209
L71543 75984
L71571 75928
L71627 75899
L71740 75899
L71796 75928
L71824 75984
L71824 76040
L71543 76096
" />
<path d="M72077 76237
L72105 76265
L72077 76293
L72049 76265
L72077 76237
L72077 76293
" />
<path d="M72077 75928
L72105 75956
L72077 75984
L72049 75956
L72077 75928
L72077 75984
" />
<path d="M72780 76124
L73061 76124
" />
<path d="M72724 76293
L72921 75703
L73118 76293
" />
<path d="M73568 75899
L73568 76293
" />
<path d="M73427 75674
L73286 76096
L73652 76096
" />
</g>
<g style="fill:#000000; fill-opacity:0.0; 
stroke:#000000; stroke-width:39.3701; stroke-opacity:1; 
stroke-linecap:round; stroke-linejoin:round;">
</g>
<g style="fill:#000000; fill-opacity:0.0; 
stroke:#000000; stroke-width:59.0551; stroke-opacity:1; 
stroke-linecap:round; stroke-linejoin:round;">
<path d="M103714 77395
L103714 76805
" />
<path d="M104248 77395
L104248 76805
" />
<path d="M104248 77367
L104192 77395
L104079 77395
L104023 77367
L103995 77339
L103967 77283
L103967 77114
L103995 77058
L104023 77030
L104079 77002
L104192 77002
L104248 77030
" />
<path d="M104529 77339
L104557 77367
L104529 77395
L104501 77367
L104529 77339
L104529 77395
" />
<path d="M104529 77030
L104557 77058
L104529 77086
L104501 77058
L104529 77030
L104529 77086
" />
<path d="M105570 77395
L105232 77395
" />
<path d="M105401 77395
L105401 76805
L105345 76889
L105289 76946
L105232 76974
" />
<path d="M106245 76777
L105739 77536
" />
<path d="M106751 77395
L106413 77395
" />
<path d="M106582 77395
L106582 76805
L106526 76889
L106470 76946
L106413 76974
" />
</g>
<g style="fill:#000000; fill-opacity:0.0; 
stroke:#000000; stroke-width:39.3701; stroke-opacity:1; 
stroke-linecap:round; stroke-linejoin:round;">
</g>
<g style="fill:#000000; fill-opacity:0.0; 
stroke:#000000; stroke-width:59.0551; stroke-opacity:1; 
stroke-linecap:round; stroke-linejoin:round;">
<path d="M69685 73821
L112205 73821
" />
</g>
<g style="fill:#000000; fill-opacity:0.0; 
stroke:#000000; stroke-width:39.3701; stroke-opacity:1; 
stroke-linecap:round; stroke-linejoin:round;">
</g>
<g style="fill:#000000; fill-opacity:0.0; 
stroke:#000000; stroke-width:157.48; stroke-opacity:1; 
stroke-linecap:round; stroke-linejoin:round;">
<path d="M70360 74099
L70810 74099
" />
<path d="M70486 74886
L70585 74099
" />
<path d="M70974 74886
L71039 74361
" />
<path d="M71072 74099
L71030 74136
L71063 74174
L71105 74136
L71072 74099
L71063 74174
" />
<path d="M71302 74361
L71602 74361
" />
<path d="M71447 74099
L71363 74774
L71391 74849
L71461 74886
L71536 74886
" />
<path d="M71911 74886
L71841 74849
L71813 74774
L71897 74099
" />
<path d="M72516 74849
L72436 74886
L72286 74886
L72216 74849
L72187 74774
L72225 74474
L72272 74399
L72352 74361
L72501 74361
L72572 74399
L72600 74474
L72591 74549
L72206 74624
" />
<path d="M72895 74811
L72928 74849
L72886 74886
L72853 74849
L72895 74811
L72886 74886
" />
<path d="M72947 74399
L72980 74436
L72937 74474
L72905 74436
L72947 74399
L72937 74474
" />
</g>
<g style="fill:#000000; fill-opacity:0.0; 
stroke:#000000; stroke-width:39.3701; stroke-opacity:1; 
stroke-linecap:round; stroke-linejoin:round;">
</g>
<g style="fill:#000000; fill-opacity:0.0; 
stroke:#000000; stroke-width:59.0551; stroke-opacity:1; 
stroke-linecap:round; stroke-linejoin:round;">
<path d="M70446 73070
L70249 73070
" />
<path d="M70249 73380
L70249 72789
L70530 72789
" />
<path d="M70755 73380
L70755 72986
" />
<path d="M70755 72789
L70727 72817
L70755 72845
L70784 72817
L70755 72789
L70755 72845
" />
<path d="M71121 73380
L71065 73352
L71037 73295
L71037 72789
" />
<path d="M71571 73352
L71515 73380
L71402 73380
L71346 73352
L71318 73295
L71318 73070
L71346 73014
L71402 72986
L71515 72986
L71571 73014
L71599 73070
L71599 73127
L71318 73183
" />
<path d="M71852 73323
L71880 73352
L71852 73380
L71824 73352
L71852 73323
L71852 73380
" />
<path d="M71852 73014
L71880 73042
L71852 73070
L71824 73042
L71852 73014
L71852 73070
" />
<path d="M72668 73380
L72611 73352
L72583 73295
L72583 72789
" />
<path d="M73146 73380
L73146 73070
L73118 73014
L73061 72986
L72949 72986
L72893 73014
" />
<path d="M73146 73352
L73090 73380
L72949 73380
L72893 73352
L72865 73295
L72865 73239
L72893 73183
L72949 73155
L73090 73155
L73146 73127
" />
<path d="M73371 72986
L73511 73380
" />
<path d="M73652 72986
L73511 73380
L73455 73520
L73427 73548
L73371 73577
" />
<path d="M73961 73380
L73905 73352
L73877 73323
L73849 73267
L73849 73099
L73877 73042
L73905 73014
L73961 72986
L74046 72986
L74102 73014
L74130 73042
L74158 73099
L74158 73267
L74130 73323
L74102 73352
L74046 73380
L73961 73380
" />
<path d="M74664 72986
L74664 73380
" />
<path d="M74411 72986
L74411 73295
L74439 73352
L74496 73380
L74580 73380
L74636 73352
L74664 73323
" />
<path d="M74861 72986
L75086 72986
" />
<path d="M74946 72789
L74946 73295
L74974 73352
L75030 73380
L75086 73380
" />
<path d="M75283 73323
L75311 73352
L75283 73380
L75255 73352
L75283 73323
L75283 73380
" />
<path d="M75564 73380
L75564 72789
" />
<path d="M75620 73155
L75789 73380
" />
<path d="M75789 72986
L75564 73211
" />
<path d="M76042 73380
L76042 72986
" />
<path d="M76042 72789
L76014 72817
L76042 72845
L76070 72817
L76042 72789
L76042 72845
" />
<path d="M76577 73352
L76520 73380
L76408 73380
L76352 73352
L76323 73323
L76295 73267
L76295 73099
L76323 73042
L76352 73014
L76408 72986
L76520 72986
L76577 73014
" />
<path d="M77083 73380
L77083 73070
L77055 73014
L76998 72986
L76886 72986
L76830 73014
" />
<path d="M77083 73352
L77027 73380
L76886 73380
L76830 73352
L76802 73295
L76802 73239
L76830 73183
L76886 73155
L77027 73155
L77083 73127
" />
<path d="M77617 73380
L77617 72789
" />
<path d="M77617 73352
L77561 73380
L77448 73380
L77392 73352
L77364 73323
L77336 73267
L77336 73099
L77364 73042
L77392 73014
L77448 72986
L77561 72986
L77617 73014
" />
<path d="M77758 73436
L78208 73436
" />
<path d="M78348 72986
L78348 73577
" />
<path d="M78348 73014
L78404 72986
L78517 72986
L78573 73014
L78601 73042
L78629 73099
L78629 73267
L78601 73323
L78573 73352
L78517 73380
L78404 73380
L78348 73352
" />
<path d="M79136 73352
L79079 73380
L78967 73380
L78911 73352
L78883 73323
L78854 73267
L78854 73099
L78883 73042
L78911 73014
L78967 72986
L79079 72986
L79136 73014
" />
<path d="M79389 73380
L79389 72789
" />
<path d="M79389 73014
L79445 72986
L79557 72986
L79614 73014
L79642 73042
L79670 73099
L79670 73267
L79642 73323
L79614 73352
L79557 73380
L79445 73380
L79389 73352
" />
</g>
<g style="fill:#000000; fill-opacity:0.0; 
stroke:#000000; stroke-width:39.3701; stroke-opacity:1; 
stroke-linecap:round; stroke-linejoin:round;">
</g>
<g style="fill:#000000; fill-opacity:0.0; 
stroke:#000000; stroke-width:59.0551; stroke-opacity:1; 
stroke-linecap:round; stroke-linejoin:round;">
<path d="M69685 71459
L112205 71459
" />
</g>
<g style="fill:#000000; fill-opacity:0.0; 
stroke:#000000; stroke-width:39.3701; stroke-opacity:1; 
stroke-linecap:round; stroke-linejoin:round;">
</g>
<g style="fill:#000000; fill-opacity:0.0; 
stroke:#000000; stroke-width:59.0551; stroke-opacity:1; 
stroke-linecap:round; stroke-linejoin:round;">
<path d="M70221 72289
L70305 72317
L70446 72317
L70502 72289
L70530 72260
L70559 72204
L70559 72148
L70530 72092
L70502 72064
L70446 72036
L70334 72007
L70277 71979
L70249 71951
L70221 71895
L70221 71839
L70249 71782
L70277 71754
L70334 71726
L70474 71726
L70559 71754
" />
<path d="M70812 72317
L70812 71726
" />
<path d="M71065 72317
L71065 72007
L71037 71951
L70980 71923
L70896 71923
L70840 71951
L70812 71979
" />
<path d="M71571 72289
L71515 72317
L71402 72317
L71346 72289
L71318 72232
L71318 72007
L71346 71951
L71402 71923
L71515 71923
L71571 71951
L71599 72007
L71599 72064
L71318 72120
" />
<path d="M72077 72289
L72021 72317
L71908 72317
L71852 72289
L71824 72232
L71824 72007
L71852 71951
L71908 71923
L72021 71923
L72077 71951
L72105 72007
L72105 72064
L71824 72120
" />
<path d="M72274 71923
L72499 71923
" />
<path d="M72358 71726
L72358 72232
L72386 72289
L72443 72317
L72499 72317
" />
<path d="M72696 72260
L72724 72289
L72696 72317
L72668 72289
L72696 72260
L72696 72317
" />
<path d="M72696 71951
L72724 71979
L72696 72007
L72668 71979
L72696 71951
L72696 72007
" />
</g>
<g style="fill:#000000; fill-opacity:0.0; 
stroke:#000000; stroke-width:39.3701; stroke-opacity:1; 
stroke-linecap:round; stroke-linejoin:round;">
</g>
<g style="fill:#000000; fill-opacity:0.0; 
stroke:#000000; stroke-width:59.0551; stroke-opacity:1; 
stroke-linecap:round; stroke-linejoin:round;">
<path d="M77559 75396
L77559 76577
" />
</g>
<g style="fill:#000000; fill-opacity:0.0; 
stroke:#000000; stroke-width:39.3701; stroke-opacity:1; 
stroke-linecap:round; stroke-linejoin:round;">
</g>
<g style="fill:#000000; fill-opacity:0.0; 
stroke:#000000; stroke-width:59.0551; stroke-opacity:1; 
stroke-linecap:round; stroke-linejoin:round;">
<path d="M102756 75396
L102756 77955
" />
</g>
<g style="fill:#000000; fill-opacity:0.0; 
stroke:#000000; stroke-width:118.11; stroke-opacity:1; 
stroke-linecap:round; stroke-linejoin:round;">
<path d="M70820 36893
L71157 36893
" />
<path d="M70989 36893
L70989 36303
L71045 36387
L71101 36443
L71157 36472
" />
<path d="M70482 36556
L70539 36528
L70567 36500
L70595 36443
L70595 36415
L70567 36359
L70539 36331
L70482 36303
L70370 36303
L70314 36331
L70286 36359
L70257 36415
L70257 36443
L70286 36500
L70314 36528
L70370 36556
L70482 36556
L70539 36584
L70567 36612
L70595 36668
L70595 36781
L70567 36837
L70539 36865
L70482 36893
L70370 36893
L70314 36865
L70286 36837
L70257 36781
L70257 36668
L70286 36612
L70314 36584
L70370 36556
" />
<path d="M69976 36865
L69976 36893
L70004 36950
L70032 36978
" />
<path d="M69611 36303
L69554 36303
L69498 36331
L69470 36359
L69442 36415
L69414 36528
L69414 36668
L69442 36781
L69470 36837
L69498 36865
L69554 36893
L69611 36893
L69667 36865
L69695 36837
L69723 36781
L69751 36668
L69751 36528
L69723 36415
L69695 36359
L69667 36331
L69611 36303
" />
<path d="M69217 36303
L68851 36303
L69048 36528
L68964 36528
L68908 36556
L68880 36584
L68851 36640
L68851 36781
L68880 36837
L68908 36865
L68964 36893
L69133 36893
L69189 36865
L69217 36837
" />
<path d="M68345 36500
L68345 36893
" />
<path d="M68486 36275
L68626 36697
L68261 36697
" />
<path d="M67586 36893
L67586 36500
L67417 36809
L67248 36500
L67248 36893
" />
<path d="M66967 36893
L66967 36500
L66799 36809
L66630 36500
L66630 36893
" />
<path d="M72430 35800
L65330 35800
" />
<path d="M72430 35800
L72430 36030
" />
<path d="M65330 35800
L65330 36030
" />
<path d="M65330 35800
L65773 36030
" />
<path d="M65330 35800
L65773 35569
" />
<path d="M72430 35800
L71986 36030
" />
<path d="M72430 35800
L71986 35569
" />
</g>
<g style="fill:#000000; fill-opacity:0.0; 
stroke:#000000; stroke-width:47.2441; stroke-opacity:1; 
stroke-linecap:round; stroke-linejoin:round;">
<path d="M65467 32906
L65467 33693
" />
<path d="M57742 45748
L57742 25851
" />
<path d="M65317 45748
L57742 45748
" />
<path d="M65317 25851
L65317 45748
" />
<path d="M65317 25851
L57742 25851
" />
<circle cx="47482.8" cy="35715.7" r="1181.1" /> 
<path d="M48270 38038
L49884 38038
" />
<path d="M49884 33392
L48270 33392
" />
<path d="M46695 33392
L45081 33392
" />
<path d="M46695 38038
L45081 38038
" />
<path d="M45081 38038
L45081 33392
" />
<path d="M44530 37211
L44411 37329
" />
<path d="M44411 37329
L44648 37329
" />
<path d="M44648 37329
L44530 37211
" />
<path d="M49884 38038
L49884 37093
" />
<path d="M49884 36227
L49884 35203
" />
<path d="M49884 34337
L49884 33392
" />
<path d="M47482 35912
L47482 35518
" />
<path d="M47285 35715
L47679 35715
" />
<path d="M38364 39538
L38364 43492
" />
<path d="M43183 42842
L43183 43492
" />
<path d="M43183 41858
L43183 42157
" />
<path d="M43183 40874
L43183 41173
" />
<path d="M43183 39538
L43183 40188
" />
<path d="M39914 43492
L38364 43492
" />
<path d="M43183 43492
L41633 43492
" />
<path d="M39914 39538
L38364 39538
" />
<path d="M43183 39538
L41633 39538
" />
<path d="M40672 31281
L40672 30690
" />
<path d="M41164 29706
L42936 29706
" />
<path d="M43428 30690
L43428 31281
" />
<path d="M42936 32265
L41164 32265
" />
<path d="M40672 28281
L40672 27690
" />
<path d="M41164 26706
L42936 26706
" />
<path d="M43428 27690
L43428 28281
" />
<path d="M42936 29265
L41164 29265
" />
<path d="M73038 40207
L71821 40207
" />
<circle cx="72430" cy="39200" r="984.252" /> 
<path d="M72430.2 38022.8 A1177.17 1177.17 0.0 0 0 71821.8 40207.9 " />
<path d="M73038.2 40207.9 A1177.17 1177.17 0.0 0 0 72429.8 38022.8 " />
<path d="M73038 36807
L71821 36807
" />
<circle cx="72430" cy="35800" r="984.252" /> 
<path d="M72430.2 34622.8 A1177.17 1177.17 0.0 0 0 71821.8 36807.9 " />
<path d="M73038.2 36807.9 A1177.17 1177.17 0.0 0 0 72429.8 34622.8 " />
<path d="M73038 33407
L71821 33407
" />
<circle cx="72430" cy="32400" r="984.252" /> 
<path d="M72430.2 31222.8 A1177.17 1177.17 0.0 0 0 71821.8 33407.9 " />
<path d="M73038.2 33407.9 A1177.17 1177.17 0.0 0 0 72429.8 31222.8 " />
</g>
<g style="fill:#000000; fill-opacity:0.0; 
stroke:#000000; stroke-width:59.0551; stroke-opacity:1; 
stroke-linecap:round; stroke-linejoin:round;">
<path d="M65054 25604
L65186 25416
" />
<path d="M65279 25604
L65279 25210
L65129 25210
L65092 25229
L65073 25247
L65054 25285
L65054 25341
L65073 25379
L65092 25397
L65129 25416
L65279 25416
" />
<path d="M64886 25397
L64754 25397
" />
<path d="M64698 25604
L64886 25604
L64886 25210
L64698 25210
" />
<path d="M64398 25397
L64530 25397
" />
<path d="M64530 25604
L64530 25210
L64342 25210
" />
<path d="M64136 25210
L64136 25304
" />
<path d="M64230 25266
L64136 25304
L64042 25266
" />
<path d="M64192 25379
L64136 25304
L64080 25379
" />
<path d="M63836 25210
L63836 25304
" />
<path d="M63930 25266
L63836 25304
L63742 25266
" />
<path d="M63892 25379
L63836 25304
L63780 25379
" />
<path d="M46157 38728
L46288 38541
" />
<path d="M46382 38728
L46382 38334
L46232 38334
L46194 38353
L46176 38372
L46157 38409
L46157 38466
L46176 38503
L46194 38522
L46232 38541
L46382 38541
" />
<path d="M45988 38522
L45857 38522
" />
<path d="M45801 38728
L45988 38728
L45988 38334
L45801 38334
" />
<path d="M45501 38522
L45632 38522
" />
<path d="M45632 38728
L45632 38334
L45444 38334
" />
<path d="M45238 38334
L45238 38428
" />
<path d="M45332 38391
L45238 38428
L45144 38391
" />
<path d="M45294 38503
L45238 38428
L45182 38503
" />
<path d="M44938 38334
L44938 38428
" />
<path d="M45032 38391
L44938 38428
L44844 38391
" />
<path d="M44994 38503
L44938 38428
L44882 38503
" />
<path d="M41673 38682
L41804 38494
" />
<path d="M41898 38682
L41898 38288
L41748 38288
L41710 38307
L41691 38325
L41673 38363
L41673 38419
L41691 38457
L41710 38475
L41748 38494
L41898 38494
" />
<path d="M41504 38475
L41373 38475
" />
<path d="M41316 38682
L41504 38682
L41504 38288
L41316 38288
" />
<path d="M41016 38475
L41148 38475
" />
<path d="M41148 38682
L41148 38288
L40960 38288
" />
<path d="M40754 38288
L40754 38382
" />
<path d="M40848 38344
L40754 38382
L40660 38344
" />
<path d="M40810 38457
L40754 38382
L40698 38457
" />
<path d="M40454 38288
L40454 38382
" />
<path d="M40548 38344
L40454 38382
L40360 38344
" />
<path d="M40510 38457
L40454 38382
L40398 38457
" />
<path d="M42575 29490
L42706 29303
" />
<path d="M42800 29490
L42800 29097
L42650 29097
L42612 29115
L42594 29134
L42575 29171
L42575 29228
L42594 29265
L42612 29284
L42650 29303
L42800 29303
" />
<path d="M42406 29284
L42275 29284
" />
<path d="M42219 29490
L42406 29490
L42406 29097
L42219 29097
" />
<path d="M41919 29284
L42050 29284
" />
<path d="M42050 29490
L42050 29097
L41862 29097
" />
<path d="M41656 29097
L41656 29190
" />
<path d="M41750 29153
L41656 29190
L41563 29153
" />
<path d="M41713 29265
L41656 29190
L41600 29265
" />
<path d="M41356 29097
L41356 29190
" />
<path d="M41450 29153
L41356 29190
L41263 29153
" />
<path d="M41413 29265
L41356 29190
L41300 29265
" />
<path d="M42575 26490
L42706 26303
" />
<path d="M42800 26490
L42800 26097
L42650 26097
L42612 26115
L42594 26134
L42575 26171
L42575 26228
L42594 26265
L42612 26284
L42650 26303
L42800 26303
" />
<path d="M42406 26284
L42275 26284
" />
<path d="M42219 26490
L42406 26490
L42406 26097
L42219 26097
" />
<path d="M41919 26284
L42050 26284
" />
<path d="M42050 26490
L42050 26097
L41862 26097
" />
<path d="M41656 26097
L41656 26190
" />
<path d="M41750 26153
L41656 26190
L41563 26153
" />
<path d="M41713 26265
L41656 26190
L41600 26265
" />
<path d="M41356 26097
L41356 26190
" />
<path d="M41450 26153
L41356 26190
L41263 26153
" />
<path d="M41413 26265
L41356 26190
L41300 26265
" />
<path d="M73810 39724
L73998 39856
" />
<path d="M73810 39949
L74204 39949
L74204 39799
L74185 39762
L74167 39743
L74129 39724
L74073 39724
L74035 39743
L74017 39762
L73998 39799
L73998 39949
" />
<path d="M74017 39556
L74017 39424
" />
<path d="M73810 39368
L73810 39556
L74204 39556
L74204 39368
" />
<path d="M74017 39068
L74017 39200
" />
<path d="M73810 39200
L74204 39200
L74204 39012
" />
<path d="M74204 38806
L74110 38806
" />
<path d="M74148 38900
L74110 38806
L74148 38712
" />
<path d="M74035 38862
L74110 38806
L74035 38750
" />
<path d="M74204 38506
L74110 38506
" />
<path d="M74148 38600
L74110 38506
L74148 38412
" />
<path d="M74035 38562
L74110 38506
L74035 38450
" />
<path d="M73810 36324
L73998 36456
" />
<path d="M73810 36549
L74204 36549
L74204 36399
L74185 36362
L74167 36343
L74129 36324
L74073 36324
L74035 36343
L74017 36362
L73998 36399
L73998 36549
" />
<path d="M74017 36156
L74017 36024
" />
<path d="M73810 35968
L73810 36156
L74204 36156
L74204 35968
" />
<path d="M74017 35668
L74017 35800
" />
<path d="M73810 35800
L74204 35800
L74204 35612
" />
<path d="M74204 35406
L74110 35406
" />
<path d="M74148 35500
L74110 35406
L74148 35312
" />
<path d="M74035 35462
L74110 35406
L74035 35350
" />
<path d="M74204 35106
L74110 35106
" />
<path d="M74148 35200
L74110 35106
L74148 35012
" />
<path d="M74035 35162
L74110 35106
L74035 35050
" />
<path d="M73810 32924
L73998 33056
" />
<path d="M73810 33149
L74204 33149
L74204 32999
L74185 32962
L74167 32943
L74129 32924
L74073 32924
L74035 32943
L74017 32962
L73998 32999
L73998 33149
" />
<path d="M74017 32756
L74017 32624
" />
<path d="M73810 32568
L73810 32756
L74204 32756
L74204 32568
" />
<path d="M74017 32268
L74017 32400
" />
<path d="M73810 32400
L74204 32400
L74204 32212
" />
<path d="M74204 32006
L74110 32006
" />
<path d="M74148 32100
L74110 32006
L74148 31912
" />
<path d="M74035 32062
L74110 32006
L74035 31950
" />
<path d="M74204 31706
L74110 31706
" />
<path d="M74148 31800
L74110 31706
L74148 31612
" />
<path d="M74035 31762
L74110 31706
L74035 31650
" />
</g>
<g style="fill:#000000; fill-opacity:0.0; 
stroke:#000000; stroke-width:39.3701; stroke-opacity:1; 
stroke-linecap:round; stroke-linejoin:round;">
<path d="M65270 33693
L65270 45701
" />
<path d="M65270 45701
L57789 45701
" />
<path d="M57789 25898
L57789 45701
" />
<path d="M65270 25898
L57789 25898
" />
<path d="M65270 32906
L65270 25898
" />
<path d="M64876 33300
L65270 32906
" />
<path d="M65270 33693
L64876 33300
" />
</g>
<g style="fill:#000000; fill-opacity:0.0; 
stroke:#000000; stroke-width:47.2441; stroke-opacity:1; 
stroke-linecap:round; stroke-linejoin:round;">
<circle cx="47482.8" cy="35715.7" r="1181.1" /> 
<path d="M45514 37999
L49844 37999
" />
<path d="M49844 37999
L49844 33432
" />
<path d="M49844 33432
L45120 33432
" />
<path d="M45120 33432
L45120 37566
" />
<path d="M45120 37566
L45514 37999
" />
<path d="M47482 36896
L47482 34534
" />
<path d="M46301 35715
L48663 35715
" />
</g>
<g style="fill:#000000; fill-opacity:0.0; 
stroke:#000000; stroke-width:39.3701; stroke-opacity:1; 
stroke-linecap:round; stroke-linejoin:round;">
<path d="M38411 39586
L43136 39586
" />
<path d="M38411 43444
L38411 39586
" />
<path d="M43136 43444
L38411 43444
" />
<path d="M43136 39586
L43136 43444
" />
<circle cx="40577.2" cy="41515.7" r="1181.1" /> 
<circle cx="42050.5" cy="30985.8" r="793.529" /> 
<path d="M43231 29804
L42050 29804
" />
<path d="M43231 32166
L43231 29804
" />
<path d="M40869 32166
L43231 32166
" />
<path d="M40869 29804
L40869 32166
" />
<path d="M42050 29804
L40869 29804
" />
<circle cx="42050.5" cy="27985.8" r="793.529" /> 
<path d="M43231 26804
L42050 26804
" />
<path d="M43231 29166
L43231 26804
" />
<path d="M40869 29166
L43231 29166
" />
<path d="M40869 26804
L40869 29166
" />
<path d="M42050 26804
L40869 26804
" />
<path d="M73008 40184
L71851 40184
" />
<circle cx="72430" cy="39200" r="984.252" /> 
<path d="M73008.6 40184.3 A1141.73 1141.73 0.0 1 0 71851.4 40184.3 " />
<path d="M73008 36784
L71851 36784
" />
<circle cx="72430" cy="35800" r="984.252" /> 
<path d="M73008.6 36784.3 A1141.73 1141.73 0.0 1 0 71851.4 36784.3 " />
<path d="M73008 33384
L71851 33384
" />
<circle cx="72430" cy="32400" r="984.252" /> 
<path d="M73008.6 33384.3 A1141.73 1141.73 0.0 1 0 71851.4 33384.3 " />
</g>
<g style="fill:#000000; fill-opacity:0.0; 
stroke:#000000; stroke-width:59.0551; stroke-opacity:1; 
stroke-linecap:round; stroke-linejoin:round;">
<path d="M33789 30040
L33807 30059
L33864 30078
L33901 30078
L33957 30059
L33995 30021
L34014 29984
L34032 29909
L34032 29853
L34014 29778
L33995 29740
L33957 29703
L33901 29684
L33864 29684
L33807 29703
L33789 29721
" />
<path d="M33395 30040
L33414 30059
L33470 30078
L33507 30078
L33564 30059
L33601 30021
L33620 29984
L33639 29909
L33639 29853
L33620 29778
L33601 29740
L33564 29703
L33507 29684
L33470 29684
L33414 29703
L33395 29721
" />
<path d="M33039 29684
L33226 29684
L33245 29871
L33226 29853
L33189 29834
L33095 29834
L33058 29853
L33039 29871
L33020 29909
L33020 30003
L33039 30040
L33058 30059
L33095 30078
L33189 30078
L33226 30059
L33245 30040
" />
<path d="M32683 29684
L32758 29684
L32795 29703
L32814 29721
L32851 29778
L32870 29853
L32870 30003
L32851 30040
L32833 30059
L32795 30078
L32720 30078
L32683 30059
L32664 30040
L32645 30003
L32645 29909
L32664 29871
L32683 29853
L32720 29834
L32795 29834
L32833 29853
L32851 29871
L32870 29909
" />
<path d="M32476 29928
L32176 29928
" />
<path d="M31783 30078
L32008 30078
" />
<path d="M31895 30078
L31895 29684
L31933 29740
L31970 29778
L32008 29796
" />
<path d="M31633 29721
L31614 29703
L31576 29684
L31483 29684
L31445 29703
L31426 29721
L31408 29759
L31408 29796
L31426 29853
L31651 30078
L31408 30078
" />
<path d="M31033 29703
L31070 29684
L31127 29684
L31183 29703
L31220 29740
L31239 29778
L31258 29853
L31258 29909
L31239 29984
L31220 30021
L31183 30059
L31127 30078
L31089 30078
L31033 30059
L31014 30040
L31014 29909
L31089 29909
" />
<path d="M30883 29684
L30789 30078
L30714 29796
L30639 30078
L30545 29684
" />
<path d="M30414 29965
L30227 29965
" />
<path d="M30452 30078
L30320 29684
L30189 30078
" />
<path d="M61854 36078
L61986 35890
" />
<path d="M62079 36078
L62079 35684
L61929 35684
L61892 35703
L61873 35721
L61854 35759
L61854 35815
L61873 35853
L61892 35871
L61929 35890
L62079 35890
" />
<path d="M61686 35871
L61554 35871
" />
<path d="M61498 36078
L61686 36078
L61686 35684
L61498 35684
" />
<path d="M61198 35871
L61330 35871
" />
<path d="M61330 36078
L61330 35684
L61142 35684
" />
<path d="M60936 35684
L60936 35778
" />
<path d="M61030 35740
L60936 35778
L60842 35740
" />
<path d="M60992 35853
L60936 35778
L60880 35853
" />
<path d="M60636 35684
L60636 35778
" />
<path d="M60730 35740
L60636 35778
L60542 35740
" />
<path d="M60692 35853
L60636 35778
L60580 35853
" />
<path d="M45219 24178
L45350 23990
" />
<path d="M45444 24178
L45444 23784
L45294 23784
L45256 23803
L45238 23821
L45219 23859
L45219 23915
L45238 23953
L45256 23971
L45294 23990
L45444 23990
" />
<path d="M44994 24178
L45031 24159
L45050 24140
L45069 24103
L45069 23990
L45050 23953
L45031 23934
L44994 23915
L44938 23915
L44900 23934
L44881 23953
L44863 23990
L44863 24103
L44881 24140
L44900 24159
L44938 24178
L44994 24178
" />
<path d="M44750 23915
L44600 23915
" />
<path d="M44694 23784
L44694 24121
L44675 24159
L44638 24178
L44600 24178
" />
<path d="M44300 24178
L44300 23971
L44319 23934
L44356 23915
L44431 23915
L44469 23934
" />
<path d="M44300 24159
L44338 24178
L44431 24178
L44469 24159
L44488 24121
L44488 24084
L44469 24046
L44431 24028
L44338 24028
L44300 24009
" />
<path d="M44113 24178
L44113 23915
" />
<path d="M44113 23990
L44094 23953
L44075 23934
L44038 23915
L44000 23915
" />
<path d="M43906 23915
L43813 24178
" />
<path d="M43719 23915
L43813 24178
L43850 24271
L43869 24290
L43906 24309
" />
<path d="M43569 23971
L43438 23971
" />
<path d="M43382 24178
L43569 24178
L43569 23784
L43382 23784
" />
<path d="M43213 23915
L43213 24178
" />
<path d="M43213 23953
L43194 23934
L43157 23915
L43100 23915
L43063 23934
L43044 23971
L43044 24178
" />
<path d="M42688 24159
L42725 24178
L42800 24178
L42838 24159
L42857 24140
L42875 24103
L42875 23990
L42857 23953
L42838 23934
L42800 23915
L42725 23915
L42688 23934
" />
<path d="M42463 24178
L42500 24159
L42519 24140
L42538 24103
L42538 23990
L42519 23953
L42500 23934
L42463 23915
L42407 23915
L42369 23934
L42350 23953
L42332 23990
L42332 24103
L42350 24140
L42369 24159
L42407 24178
L42463 24178
" />
<path d="M41994 24178
L41994 23784
" />
<path d="M41994 24159
L42032 24178
L42107 24178
L42144 24159
L42163 24140
L42182 24103
L42182 23990
L42163 23953
L42144 23934
L42107 23915
L42032 23915
L41994 23934
" />
<path d="M41657 24159
L41694 24178
L41769 24178
L41807 24159
L41825 24121
L41825 23971
L41807 23934
L41769 23915
L41694 23915
L41657 23934
L41638 23971
L41638 24009
L41825 24046
" />
<path d="M41469 24178
L41469 23915
" />
<path d="M41469 23990
L41450 23953
L41432 23934
L41394 23915
L41357 23915
" />
<path d="M41319 24215
L41019 24215
" />
<path d="M40944 24065
L40757 24065
" />
<path d="M40982 24178
L40851 23784
L40719 24178
" />
<path d="M40532 24178
L40569 24159
L40588 24121
L40588 23784
" />
<path d="M40382 23915
L40382 24309
" />
<path d="M40382 23934
L40344 23915
L40269 23915
L40232 23934
L40213 23953
L40194 23990
L40194 24103
L40213 24140
L40232 24159
L40269 24178
L40344 24178
L40382 24159
" />
<path d="M40044 24159
L40007 24178
L39932 24178
L39894 24159
L39876 24121
L39876 24103
L39894 24065
L39932 24046
L39988 24046
L40026 24028
L40044 23990
L40044 23971
L40026 23934
L39988 23915
L39932 23915
L39894 23934
" />
<path d="M39801 24215
L39501 24215
" />
<path d="M39407 23971
L39276 23971
" />
<path d="M39220 24178
L39407 24178
L39407 23784
L39220 23784
" />
<path d="M38826 24140
L38845 24159
L38901 24178
L38938 24178
L38995 24159
L39032 24121
L39051 24084
L39070 24009
L39070 23953
L39051 23878
L39032 23840
L38995 23803
L38938 23784
L38901 23784
L38845 23803
L38826 23821
" />
<path d="M38451 24178
L38676 24178
" />
<path d="M38563 24178
L38563 23784
L38601 23840
L38638 23878
L38676 23896
" />
<path d="M38076 24178
L38301 24178
" />
<path d="M38188 24178
L38188 23784
L38226 23840
L38263 23878
L38301 23896
" />
<path d="M37907 23971
L37776 23971
" />
<path d="M37720 24178
L37907 24178
L37907 23784
L37720 23784
" />
<path d="M37551 24028
L37251 24028
" />
<path d="M37082 24159
L37026 24178
L36932 24178
L36895 24159
L36876 24140
L36857 24103
L36857 24065
L36876 24028
L36895 24009
L36932 23990
L37007 23971
L37045 23953
L37064 23934
L37082 23896
L37082 23859
L37064 23821
L37045 23803
L37007 23784
L36914 23784
L36857 23803
" />
<path d="M36726 23915
L36651 24178
L36576 23990
L36501 24178
L36426 23915
" />
<path d="M36276 24178
L36276 23915
" />
<path d="M36276 23784
L36295 23803
L36276 23821
L36257 23803
L36276 23784
L36276 23821
" />
<path d="M36145 23915
L35995 23915
" />
<path d="M36089 23784
L36089 24121
L36070 24159
L36032 24178
L35995 24178
" />
<path d="M35695 24159
L35732 24178
L35807 24178
L35845 24159
L35864 24140
L35882 24103
L35882 23990
L35864 23953
L35845 23934
L35807 23915
L35732 23915
L35695 23934
" />
<path d="M35526 24178
L35526 23784
" />
<path d="M35358 24178
L35358 23971
L35376 23934
L35414 23915
L35470 23915
L35507 23934
L35526 23953
" />
<path d="M35264 24215
L34964 24215
" />
<path d="M34926 23784
L34795 24178
L34664 23784
" />
<path d="M34383 24159
L34420 24178
L34495 24178
L34533 24159
L34551 24121
L34551 23971
L34533 23934
L34495 23915
L34420 23915
L34383 23934
L34364 23971
L34364 24009
L34551 24046
" />
<path d="M34195 24178
L34195 23915
" />
<path d="M34195 23990
L34176 23953
L34158 23934
L34120 23915
L34083 23915
" />
<path d="M34008 23915
L33858 23915
" />
<path d="M33951 23784
L33951 24121
L33933 24159
L33895 24178
L33858 24178
" />
<path d="M33726 24178
L33726 23915
" />
<path d="M33726 23784
L33745 23803
L33726 23821
L33708 23803
L33726 23784
L33726 23821
" />
<path d="M33370 24159
L33408 24178
L33483 24178
L33520 24159
L33539 24140
L33558 24103
L33558 23990
L33539 23953
L33520 23934
L33483 23915
L33408 23915
L33370 23934
" />
<path d="M33033 24178
L33033 23971
L33052 23934
L33089 23915
L33164 23915
L33202 23934
" />
<path d="M33033 24159
L33070 24178
L33164 24178
L33202 24159
L33220 24121
L33220 24084
L33202 24046
L33164 24028
L33070 24028
L33033 24009
" />
<path d="M32789 24178
L32827 24159
L32845 24121
L32845 23784
" />
<path d="M32733 24215
L32433 24215
" />
<path d="M32339 24178
L32339 23784
" />
<path d="M32339 23971
L32114 23971
" />
<path d="M32114 24178
L32114 23784
" />
<path d="M31945 23821
L31927 23803
L31889 23784
L31795 23784
L31758 23803
L31739 23821
L31720 23859
L31720 23896
L31739 23953
L31964 24178
L31720 24178
" />
<path d="M31477 23784
L31439 23784
L31402 23803
L31383 23821
L31364 23859
L31346 23934
L31346 24028
L31364 24103
L31383 24140
L31402 24159
L31439 24178
L31477 24178
L31514 24159
L31533 24140
L31552 24103
L31570 24028
L31570 23934
L31552 23859
L31533 23821
L31514 23803
L31477 23784
" />
<path d="M31177 24178
L31177 23915
" />
<path d="M31177 23953
L31158 23934
L31121 23915
L31064 23915
L31027 23934
L31008 23971
L31008 24178
" />
<path d="M31008 23971
L30989 23934
L30952 23915
L30896 23915
L30858 23934
L30839 23971
L30839 24178
" />
<path d="M30652 24178
L30652 23915
" />
<path d="M30652 23953
L30633 23934
L30596 23915
L30539 23915
L30502 23934
L30483 23971
L30483 24178
" />
<path d="M30483 23971
L30464 23934
L30427 23915
L30371 23915
L30333 23934
L30314 23971
L30314 24178
" />
<path d="M30221 24215
L29921 24215
" />
<path d="M29602 24140
L29621 24159
L29677 24178
L29714 24178
L29771 24159
L29808 24121
L29827 24084
L29846 24009
L29846 23953
L29827 23878
L29808 23840
L29771 23803
L29714 23784
L29677 23784
L29621 23803
L29602 23821
" />
<path d="M29433 24178
L29433 23915
" />
<path d="M29433 23784
L29452 23803
L29433 23821
L29415 23803
L29433 23784
L29433 23821
" />
<path d="M29246 24178
L29246 23915
" />
<path d="M29246 23990
L29227 23953
L29208 23934
L29171 23915
L29133 23915
" />
<path d="M28833 24159
L28871 24178
L28946 24178
L28983 24159
L29002 24140
L29021 24103
L29021 23990
L29002 23953
L28983 23934
L28946 23915
L28871 23915
L28833 23934
" />
<path d="M28496 23915
L28496 24178
" />
<path d="M28665 23915
L28665 24121
L28646 24159
L28608 24178
L28552 24178
L28515 24159
L28496 24140
" />
<path d="M28252 24178
L28290 24159
L28308 24121
L28308 23784
" />
<path d="M27933 24178
L27933 23971
L27952 23934
L27990 23915
L28065 23915
L28102 23934
" />
<path d="M27933 24159
L27971 24178
L28065 24178
L28102 24159
L28121 24121
L28121 24084
L28102 24046
L28065 24028
L27971 24028
L27933 24009
" />
<path d="M27746 24178
L27746 23915
" />
<path d="M27746 23990
L27727 23953
L27708 23934
L27671 23915
L27633 23915
" />
<path d="M27502 24178
L27502 23784
L27371 24065
L27240 23784
L27240 24178
" />
<path d="M26996 24178
L27034 24159
L27052 24140
L27071 24103
L27071 23990
L27052 23953
L27034 23934
L26996 23915
L26940 23915
L26902 23934
L26884 23953
L26865 23990
L26865 24103
L26884 24140
L26902 24159
L26940 24178
L26996 24178
" />
<path d="M26527 23915
L26527 24178
" />
<path d="M26696 23915
L26696 24121
L26677 24159
L26640 24178
L26584 24178
L26546 24159
L26527 24140
" />
<path d="M26340 23915
L26340 24178
" />
<path d="M26340 23953
L26321 23934
L26284 23915
L26227 23915
L26190 23934
L26171 23971
L26171 24178
" />
<path d="M26040 23915
L25890 23915
" />
<path d="M25984 23784
L25984 24121
L25965 24159
L25927 24178
L25890 24178
" />
<path d="M25759 24178
L25759 23915
" />
<path d="M25759 23784
L25777 23803
L25759 23821
L25740 23803
L25759 23784
L25759 23821
" />
<path d="M25571 23915
L25571 24178
" />
<path d="M25571 23953
L25552 23934
L25515 23915
L25459 23915
L25421 23934
L25403 23971
L25403 24178
" />
<path d="M25046 23915
L25046 24234
L25065 24271
L25084 24290
L25121 24309
L25178 24309
L25215 24290
" />
<path d="M25046 24159
L25084 24178
L25159 24178
L25196 24159
L25215 24140
L25234 24103
L25234 23990
L25215 23953
L25196 23934
L25159 23915
L25084 23915
L25046 23934
" />
<path d="M24859 24178
L24859 23784
" />
<path d="M24859 23971
L24634 23971
" />
<path d="M24634 24178
L24634 23784
" />
<path d="M24390 24178
L24428 24159
L24446 24140
L24465 24103
L24465 23990
L24446 23953
L24428 23934
L24390 23915
L24334 23915
L24296 23934
L24278 23953
L24259 23990
L24259 24103
L24278 24140
L24296 24159
L24334 24178
L24390 24178
" />
<path d="M24034 24178
L24071 24159
L24090 24121
L24090 23784
" />
<path d="M23734 24159
L23771 24178
L23846 24178
L23884 24159
L23903 24121
L23903 23971
L23884 23934
L23846 23915
L23771 23915
L23734 23934
L23715 23971
L23715 24009
L23903 24046
" />
<path d="M23565 24159
L23528 24178
L23453 24178
L23415 24159
L23397 24121
L23397 24103
L23415 24065
L23453 24046
L23509 24046
L23546 24028
L23565 23990
L23565 23971
L23546 23934
L23509 23915
L23453 23915
L23415 23934
" />
<path d="M49425 34397
L49556 34210
" />
<path d="M49649 34397
L49649 34004
L49500 34004
L49462 34022
L49443 34041
L49425 34079
L49425 34135
L49443 34172
L49462 34191
L49500 34210
L49649 34210
" />
<path d="M49256 34191
L49125 34191
" />
<path d="M49068 34397
L49256 34397
L49256 34004
L49068 34004
" />
<path d="M48768 34191
L48900 34191
" />
<path d="M48900 34397
L48900 34004
L48712 34004
" />
<path d="M48506 34004
L48506 34097
" />
<path d="M48600 34060
L48506 34097
L48412 34060
" />
<path d="M48562 34172
L48506 34097
L48450 34172
" />
<path d="M48206 34004
L48206 34097
" />
<path d="M48300 34060
L48206 34097
L48112 34060
" />
<path d="M48262 34172
L48206 34097
L48150 34172
" />
<path d="M38988 28178
L38988 27784
L38838 27784
L38801 27803
L38782 27821
L38763 27859
L38763 27915
L38782 27953
L38801 27971
L38838 27990
L38988 27990
" />
<path d="M38538 28178
L38576 28159
L38594 28140
L38613 28103
L38613 27990
L38594 27953
L38576 27934
L38538 27915
L38482 27915
L38444 27934
L38426 27953
L38407 27990
L38407 28103
L38426 28140
L38444 28159
L38482 28178
L38538 28178
" />
<path d="M38294 27915
L38144 27915
" />
<path d="M38238 27784
L38238 28121
L38219 28159
L38182 28178
L38144 28178
" />
<path d="M37863 28159
L37901 28178
L37976 28178
L38013 28159
L38032 28121
L38032 27971
L38013 27934
L37976 27915
L37901 27915
L37863 27934
L37844 27971
L37844 28009
L38032 28046
" />
<path d="M37676 27915
L37676 28178
" />
<path d="M37676 27953
L37657 27934
L37620 27915
L37563 27915
L37526 27934
L37507 27971
L37507 28178
" />
<path d="M37376 27915
L37226 27915
" />
<path d="M37320 27784
L37320 28121
L37301 28159
L37263 28178
L37226 28178
" />
<path d="M37095 28178
L37095 27915
" />
<path d="M37095 27784
L37113 27803
L37095 27821
L37076 27803
L37095 27784
L37095 27821
" />
<path d="M36851 28178
L36888 28159
L36907 28140
L36926 28103
L36926 27990
L36907 27953
L36888 27934
L36851 27915
L36795 27915
L36757 27934
L36738 27953
L36720 27990
L36720 28103
L36738 28140
L36757 28159
L36795 28178
L36851 28178
" />
<path d="M36551 28178
L36551 27915
" />
<path d="M36551 27953
L36532 27934
L36495 27915
L36438 27915
L36401 27934
L36382 27971
L36382 28178
" />
<path d="M36382 27971
L36363 27934
L36326 27915
L36270 27915
L36232 27934
L36213 27971
L36213 28178
" />
<path d="M35876 28159
L35913 28178
L35988 28178
L36026 28159
L36045 28121
L36045 27971
L36026 27934
L35988 27915
L35913 27915
L35876 27934
L35857 27971
L35857 28009
L36045 28046
" />
<path d="M35745 27915
L35595 27915
" />
<path d="M35689 27784
L35689 28121
L35670 28159
L35632 28178
L35595 28178
" />
<path d="M35314 28159
L35351 28178
L35426 28178
L35464 28159
L35482 28121
L35482 27971
L35464 27934
L35426 27915
L35351 27915
L35314 27934
L35295 27971
L35295 28009
L35482 28046
" />
<path d="M35126 28178
L35126 27915
" />
<path d="M35126 27990
L35107 27953
L35089 27934
L35051 27915
L35014 27915
" />
<path d="M34976 28215
L34676 28215
" />
<path d="M34601 28065
L34414 28065
" />
<path d="M34639 28178
L34507 27784
L34376 28178
" />
<path d="M34189 28178
L34226 28159
L34245 28121
L34245 27784
" />
<path d="M34039 27915
L34039 28309
" />
<path d="M34039 27934
L34001 27915
L33926 27915
L33889 27934
L33870 27953
L33851 27990
L33851 28103
L33870 28140
L33889 28159
L33926 28178
L34001 28178
L34039 28159
" />
<path d="M33701 28159
L33664 28178
L33589 28178
L33551 28159
L33533 28121
L33533 28103
L33551 28065
L33589 28046
L33645 28046
L33683 28028
L33701 27990
L33701 27971
L33683 27934
L33645 27915
L33589 27915
L33551 27934
" />
<path d="M33458 28215
L33158 28215
" />
<path d="M32839 28178
L32970 27990
" />
<path d="M33064 28178
L33064 27784
L32914 27784
L32876 27803
L32858 27821
L32839 27859
L32839 27915
L32858 27953
L32876 27971
L32914 27990
L33064 27990
" />
<path d="M32670 28178
L32670 27784
" />
<path d="M32445 28178
L32614 27953
" />
<path d="M32445 27784
L32670 28009
" />
<path d="M32201 27784
L32164 27784
L32126 27803
L32108 27821
L32089 27859
L32070 27934
L32070 28028
L32089 28103
L32108 28140
L32126 28159
L32164 28178
L32201 28178
L32239 28159
L32258 28140
L32276 28103
L32295 28028
L32295 27934
L32276 27859
L32258 27821
L32239 27803
L32201 27784
" />
<path d="M31883 28178
L31808 28178
L31770 28159
L31752 28140
L31714 28084
L31695 28009
L31695 27859
L31714 27821
L31733 27803
L31770 27784
L31845 27784
L31883 27803
L31901 27821
L31920 27859
L31920 27953
L31901 27990
L31883 28009
L31845 28028
L31770 28028
L31733 28009
L31714 27990
L31695 27953
" />
<path d="M31527 28178
L31527 27784
" />
<path d="M31302 28178
L31470 27953
" />
<path d="M31302 27784
L31527 28009
" />
<path d="M31227 28215
L30927 28215
" />
<path d="M30852 28159
L30795 28178
L30702 28178
L30664 28159
L30645 28140
L30627 28103
L30627 28065
L30645 28028
L30664 28009
L30702 27990
L30777 27971
L30814 27953
L30833 27934
L30852 27896
L30852 27859
L30833 27821
L30814 27803
L30777 27784
L30683 27784
L30627 27803
" />
<path d="M30458 28178
L30458 27915
" />
<path d="M30458 27784
L30477 27803
L30458 27821
L30439 27803
L30458 27784
L30458 27821
" />
<path d="M30270 27915
L30270 28178
" />
<path d="M30270 27953
L30252 27934
L30214 27915
L30158 27915
L30120 27934
L30102 27971
L30102 28178
" />
<path d="M29746 27915
L29746 28234
L29764 28271
L29783 28290
L29821 28309
L29877 28309
L29914 28290
" />
<path d="M29746 28159
L29783 28178
L29858 28178
L29895 28159
L29914 28140
L29933 28103
L29933 27990
L29914 27953
L29895 27934
L29858 27915
L29783 27915
L29746 27934
" />
<path d="M29502 28178
L29539 28159
L29558 28121
L29558 27784
" />
<path d="M29202 28159
L29239 28178
L29314 28178
L29352 28159
L29371 28121
L29371 27971
L29352 27934
L29314 27915
L29239 27915
L29202 27934
L29183 27971
L29183 28009
L29371 28046
" />
<path d="M29108 28215
L28808 28215
" />
<path d="M28771 27784
L28639 28178
L28508 27784
" />
<path d="M28227 28159
L28264 28178
L28339 28178
L28377 28159
L28396 28121
L28396 27971
L28377 27934
L28339 27915
L28264 27915
L28227 27934
L28208 27971
L28208 28009
L28396 28046
" />
<path d="M28039 28178
L28039 27915
" />
<path d="M28039 27990
L28021 27953
L28002 27934
L27964 27915
L27927 27915
" />
<path d="M27852 27915
L27702 27915
" />
<path d="M27796 27784
L27796 28121
L27777 28159
L27740 28178
L27702 28178
" />
<path d="M27571 28178
L27571 27915
" />
<path d="M27571 27784
L27590 27803
L27571 27821
L27552 27803
L27571 27784
L27571 27821
" />
<path d="M27215 28159
L27252 28178
L27327 28178
L27365 28159
L27383 28140
L27402 28103
L27402 27990
L27383 27953
L27365 27934
L27327 27915
L27252 27915
L27215 27934
" />
<path d="M26877 28178
L26877 27971
L26896 27934
L26933 27915
L27008 27915
L27046 27934
" />
<path d="M26877 28159
L26915 28178
L27008 28178
L27046 28159
L27065 28121
L27065 28084
L27046 28046
L27008 28028
L26915 28028
L26877 28009
" />
<path d="M26633 28178
L26671 28159
L26690 28121
L26690 27784
" />
<path d="M42564 42040
L42751 42171
" />
<path d="M42564 42265
L42958 42265
L42958 42115
L42939 42078
L42920 42059
L42883 42040
L42826 42040
L42789 42059
L42770 42078
L42751 42115
L42751 42265
" />
<path d="M42770 41871
L42770 41740
" />
<path d="M42564 41684
L42564 41871
L42958 41871
L42958 41684
" />
<path d="M42770 41384
L42770 41515
" />
<path d="M42564 41515
L42958 41515
L42958 41328
" />
<path d="M42958 41122
L42864 41122
" />
<path d="M42901 41215
L42864 41122
L42901 41028
" />
<path d="M42789 41178
L42864 41122
L42789 41065
" />
<path d="M42958 40822
L42864 40822
" />
<path d="M42901 40915
L42864 40822
L42901 40728
" />
<path d="M42789 40878
L42864 40822
L42789 40765
" />
<path d="M36045 26559
L35988 26578
L35895 26578
L35857 26559
L35838 26540
L35820 26503
L35820 26465
L35838 26428
L35857 26409
L35895 26390
L35970 26371
L36007 26353
L36026 26334
L36045 26296
L36045 26259
L36026 26221
L36007 26203
L35970 26184
L35876 26184
L35820 26203
" />
<path d="M35689 26184
L35595 26578
L35520 26296
L35445 26578
L35351 26184
" />
<path d="M35295 26615
L34995 26615
" />
<path d="M34901 26578
L34901 26184
L34751 26184
L34714 26203
L34695 26221
L34676 26259
L34676 26315
L34695 26353
L34714 26371
L34751 26390
L34901 26390
" />
<path d="M34507 26184
L34507 26503
L34489 26540
L34470 26559
L34432 26578
L34357 26578
L34320 26559
L34301 26540
L34282 26503
L34282 26184
" />
<path d="M34114 26559
L34057 26578
L33964 26578
L33926 26559
L33907 26540
L33889 26503
L33889 26465
L33907 26428
L33926 26409
L33964 26390
L34039 26371
L34076 26353
L34095 26334
L34114 26296
L34114 26259
L34095 26221
L34076 26203
L34039 26184
L33945 26184
L33889 26203
" />
<path d="M33720 26578
L33720 26184
" />
<path d="M33720 26371
L33495 26371
" />
<path d="M33495 26578
L33495 26184
" />
<path d="M33401 26615
L33101 26615
" />
<path d="M32839 26184
L32914 26184
L32951 26203
L32970 26221
L33008 26278
L33026 26353
L33026 26503
L33008 26540
L32989 26559
L32951 26578
L32876 26578
L32839 26559
L32820 26540
L32801 26503
L32801 26409
L32820 26371
L32839 26353
L32876 26334
L32951 26334
L32989 26353
L33008 26371
L33026 26409
" />
<path d="M32633 26578
L32633 26315
" />
<path d="M32633 26353
L32614 26334
L32576 26315
L32520 26315
L32483 26334
L32464 26371
L32464 26578
" />
<path d="M32464 26371
L32445 26334
L32408 26315
L32351 26315
L32314 26334
L32295 26371
L32295 26578
" />
<path d="M32108 26578
L32108 26315
" />
<path d="M32108 26353
L32089 26334
L32051 26315
L31995 26315
L31958 26334
L31939 26371
L31939 26578
" />
<path d="M31939 26371
L31920 26334
L31883 26315
L31827 26315
L31789 26334
L31770 26371
L31770 26578
" />
<path d="M31677 26615
L31377 26615
" />
<path d="M31283 26578
L31283 26184
" />
<path d="M31283 26371
L31058 26371
" />
<path d="M31058 26578
L31058 26184
" />
<path d="M30683 26184
L30870 26184
L30889 26371
L30870 26353
L30833 26334
L30739 26334
L30702 26353
L30683 26371
L30664 26409
L30664 26503
L30683 26540
L30702 26559
L30739 26578
L30833 26578
L30870 26559
L30889 26540
" />
<path d="M30495 26578
L30495 26315
" />
<path d="M30495 26353
L30477 26334
L30439 26315
L30383 26315
L30345 26334
L30327 26371
L30327 26578
" />
<path d="M30327 26371
L30308 26334
L30270 26315
L30214 26315
L30177 26334
L30158 26371
L30158 26578
" />
<path d="M29970 26578
L29970 26315
" />
<path d="M29970 26353
L29952 26334
L29914 26315
L29858 26315
L29821 26334
L29802 26371
L29802 26578
" />
<path d="M29802 26371
L29783 26334
L29746 26315
L29689 26315
L29652 26334
L29633 26371
L29633 26578
" />
<path d="M42575 31163
L42706 30976
" />
<path d="M42800 31163
L42800 30770
L42650 30770
L42612 30788
L42594 30807
L42575 30845
L42575 30901
L42594 30938
L42612 30957
L42650 30976
L42800 30976
" />
<path d="M42406 30957
L42275 30957
" />
<path d="M42219 31163
L42406 31163
L42406 30770
L42219 30770
" />
<path d="M41919 30957
L42050 30957
" />
<path d="M42050 31163
L42050 30770
L41862 30770
" />
<path d="M41656 30770
L41656 30863
" />
<path d="M41750 30826
L41656 30863
L41563 30826
" />
<path d="M41713 30938
L41656 30863
L41600 30938
" />
<path d="M41356 30770
L41356 30863
" />
<path d="M41450 30826
L41356 30863
L41263 30826
" />
<path d="M41413 30938
L41356 30863
L41300 30938
" />
<path d="M36445 25359
L36388 25378
L36295 25378
L36257 25359
L36238 25340
L36220 25303
L36220 25265
L36238 25228
L36257 25209
L36295 25190
L36370 25171
L36407 25153
L36426 25134
L36445 25096
L36445 25059
L36426 25021
L36407 25003
L36370 24984
L36276 24984
L36220 25003
" />
<path d="M36089 24984
L35995 25378
L35920 25096
L35845 25378
L35751 24984
" />
<path d="M35695 25415
L35395 25415
" />
<path d="M35301 25378
L35301 24984
L35151 24984
L35114 25003
L35095 25021
L35076 25059
L35076 25115
L35095 25153
L35114 25171
L35151 25190
L35301 25190
" />
<path d="M34907 24984
L34907 25303
L34889 25340
L34870 25359
L34832 25378
L34757 25378
L34720 25359
L34701 25340
L34682 25303
L34682 24984
" />
<path d="M34514 25359
L34457 25378
L34364 25378
L34326 25359
L34307 25340
L34289 25303
L34289 25265
L34307 25228
L34326 25209
L34364 25190
L34439 25171
L34476 25153
L34495 25134
L34514 25096
L34514 25059
L34495 25021
L34476 25003
L34439 24984
L34345 24984
L34289 25003
" />
<path d="M34120 25378
L34120 24984
" />
<path d="M34120 25171
L33895 25171
" />
<path d="M33895 25378
L33895 24984
" />
<path d="M33801 25415
L33501 25415
" />
<path d="M33239 24984
L33314 24984
L33351 25003
L33370 25021
L33408 25078
L33426 25153
L33426 25303
L33408 25340
L33389 25359
L33351 25378
L33276 25378
L33239 25359
L33220 25340
L33201 25303
L33201 25209
L33220 25171
L33239 25153
L33276 25134
L33351 25134
L33389 25153
L33408 25171
L33426 25209
" />
<path d="M33033 25378
L33033 25115
" />
<path d="M33033 25153
L33014 25134
L32976 25115
L32920 25115
L32883 25134
L32864 25171
L32864 25378
" />
<path d="M32864 25171
L32845 25134
L32808 25115
L32751 25115
L32714 25134
L32695 25171
L32695 25378
" />
<path d="M32508 25378
L32508 25115
" />
<path d="M32508 25153
L32489 25134
L32451 25115
L32395 25115
L32358 25134
L32339 25171
L32339 25378
" />
<path d="M32339 25171
L32320 25134
L32283 25115
L32227 25115
L32189 25134
L32170 25171
L32170 25378
" />
<path d="M32077 25415
L31777 25415
" />
<path d="M31683 25378
L31683 24984
" />
<path d="M31683 25171
L31458 25171
" />
<path d="M31458 25378
L31458 24984
" />
<path d="M31083 24984
L31270 24984
L31289 25171
L31270 25153
L31233 25134
L31139 25134
L31102 25153
L31083 25171
L31064 25209
L31064 25303
L31083 25340
L31102 25359
L31139 25378
L31233 25378
L31270 25359
L31289 25340
" />
<path d="M30895 25378
L30895 25115
" />
<path d="M30895 25153
L30877 25134
L30839 25115
L30783 25115
L30745 25134
L30727 25171
L30727 25378
" />
<path d="M30727 25171
L30708 25134
L30670 25115
L30614 25115
L30577 25134
L30558 25171
L30558 25378
" />
<path d="M30370 25378
L30370 25115
" />
<path d="M30370 25153
L30352 25134
L30314 25115
L30258 25115
L30221 25134
L30202 25171
L30202 25378
" />
<path d="M30202 25171
L30183 25134
L30146 25115
L30089 25115
L30052 25134
L30033 25171
L30033 25378
" />
<path d="M42575 28163
L42706 27976
" />
<path d="M42800 28163
L42800 27770
L42650 27770
L42612 27788
L42594 27807
L42575 27845
L42575 27901
L42594 27938
L42612 27957
L42650 27976
L42800 27976
" />
<path d="M42406 27957
L42275 27957
" />
<path d="M42219 28163
L42406 28163
L42406 27770
L42219 27770
" />
<path d="M41919 27957
L42050 27957
" />
<path d="M42050 28163
L42050 27770
L41862 27770
" />
<path d="M41656 27770
L41656 27863
" />
<path d="M41750 27826
L41656 27863
L41563 27826
" />
<path d="M41713 27938
L41656 27863
L41600 27938
" />
<path d="M41356 27770
L41356 27863
" />
<path d="M41450 27826
L41356 27863
L41263 27826
" />
<path d="M41413 27938
L41356 27863
L41300 27938
" />
<path d="M25851 32193
L25851 32381
L26245 32381
" />
<path d="M26058 32062
L26058 31931
" />
<path d="M25851 31874
L25851 32062
L26245 32062
L26245 31874
" />
<path d="M25851 31706
L26245 31706
L26245 31612
L26226 31556
L26189 31518
L26151 31499
L26076 31481
L26020 31481
L25945 31499
L25908 31518
L25870 31556
L25851 31612
L25851 31706
" />
<path d="M25814 31406
L25814 31106
" />
<path d="M25851 31012
L26245 31012
L26245 30918
L26226 30862
L26189 30824
L26151 30806
L26076 30787
L26020 30787
L25945 30806
L25908 30824
L25870 30862
L25851 30918
L25851 31012
" />
<path d="M26245 30431
L26245 30618
L26058 30637
L26076 30618
L26095 30581
L26095 30487
L26076 30450
L26058 30431
L26020 30412
L25926 30412
L25889 30431
L25870 30450
L25851 30487
L25851 30581
L25870 30618
L25889 30637
" />
<path d="M25889 30243
L25870 30225
L25851 30243
L25870 30262
L25889 30243
L25851 30243
" />
<path d="M26245 29981
L26245 29943
L26226 29906
L26208 29887
L26170 29868
L26095 29850
L26001 29850
L25926 29868
L25889 29887
L25870 29906
L25851 29943
L25851 29981
L25870 30018
L25889 30037
L25926 30056
L26001 30075
L26095 30075
L26170 30056
L26208 30037
L26226 30018
L26245 29981
" />
<path d="M25851 29681
L26114 29681
" />
<path d="M26076 29681
L26095 29662
L26114 29625
L26114 29568
L26095 29531
L26058 29512
L25851 29512
" />
<path d="M26058 29512
L26095 29493
L26114 29456
L26114 29400
L26095 29362
L26058 29343
L25851 29343
" />
<path d="M25851 29156
L26114 29156
" />
<path d="M26076 29156
L26095 29137
L26114 29100
L26114 29043
L26095 29006
L26058 28987
L25851 28987
" />
<path d="M26058 28987
L26095 28968
L26114 28931
L26114 28875
L26095 28837
L26058 28818
L25851 28818
" />
</g>
<g style="fill:#000000; fill-opacity:0.0; 
stroke:#000000; stroke-width:78.7402; stroke-opacity:1; 
stroke-linecap:round; stroke-linejoin:round;">
<path d="M72287 39627
L72437 39732
" />
<path d="M72287 39807
L72602 39807
L72602 39687
L72587 39657
L72572 39642
L72542 39627
L72497 39627
L72467 39642
L72452 39657
L72437 39687
L72437 39807
" />
<path d="M72452 39492
L72452 39387
" />
<path d="M72287 39342
L72287 39492
L72602 39492
L72602 39342
" />
<path d="M72452 39102
L72452 39207
" />
<path d="M72287 39207
L72602 39207
L72602 39057
" />
<path d="M72602 38892
L72527 38892
" />
<path d="M72557 38967
L72527 38892
L72557 38817
" />
<path d="M72467 38937
L72527 38892
L72467 38847
" />
<path d="M72602 38652
L72527 38652
" />
<path d="M72557 38727
L72527 38652
L72557 38577
" />
<path d="M72467 38697
L72527 38652
L72467 38607
" />
</g>
<g style="fill:#000000; fill-opacity:0.0; 
stroke:#000000; stroke-width:59.0551; stroke-opacity:1; 
stroke-linecap:round; stroke-linejoin:round;">
<path d="M26951 32093
L26951 32281
L27345 32281
" />
<path d="M27158 31962
L27158 31831
" />
<path d="M26951 31774
L26951 31962
L27345 31962
L27345 31774
" />
<path d="M26951 31606
L27345 31606
L27345 31512
L27326 31456
L27289 31418
L27251 31399
L27176 31381
L27120 31381
L27045 31399
L27008 31418
L26970 31456
L26951 31512
L26951 31606
" />
<path d="M26914 31306
L26914 31006
" />
<path d="M26951 30912
L27345 30912
L27345 30818
L27326 30762
L27289 30724
L27251 30706
L27176 30687
L27120 30687
L27045 30706
L27008 30724
L26970 30762
L26951 30818
L26951 30912
" />
<path d="M27345 30331
L27345 30518
L27158 30537
L27176 30518
L27195 30481
L27195 30387
L27176 30350
L27158 30331
L27120 30312
L27026 30312
L26989 30331
L26970 30350
L26951 30387
L26951 30481
L26970 30518
L26989 30537
" />
<path d="M26989 30143
L26970 30125
L26951 30143
L26970 30162
L26989 30143
L26951 30143
" />
<path d="M27345 29881
L27345 29843
L27326 29806
L27308 29787
L27270 29768
L27195 29750
L27101 29750
L27026 29768
L26989 29787
L26970 29806
L26951 29843
L26951 29881
L26970 29918
L26989 29937
L27026 29956
L27101 29975
L27195 29975
L27270 29956
L27308 29937
L27326 29918
L27345 29881
" />
<path d="M26951 29581
L27214 29581
" />
<path d="M27176 29581
L27195 29562
L27214 29525
L27214 29468
L27195 29431
L27158 29412
L26951 29412
" />
<path d="M27158 29412
L27195 29393
L27214 29356
L27214 29300
L27195 29262
L27158 29243
L26951 29243
" />
<path d="M26951 29056
L27214 29056
" />
<path d="M27176 29056
L27195 29037
L27214 29000
L27214 28943
L27195 28906
L27158 28887
L26951 28887
" />
<path d="M27158 28887
L27195 28868
L27214 28831
L27214 28775
L27195 28737
L27158 28718
L26951 28718
" />
</g>
<g style="fill:#000000; fill-opacity:0.0; 
stroke:#000000; stroke-width:78.7402; stroke-opacity:1; 
stroke-linecap:round; stroke-linejoin:round;">
<path d="M72287 36227
L72437 36332
" />
<path d="M72287 36407
L72602 36407
L72602 36287
L72587 36257
L72572 36242
L72542 36227
L72497 36227
L72467 36242
L72452 36257
L72437 36287
L72437 36407
" />
<path d="M72452 36092
L72452 35987
" />
<path d="M72287 35942
L72287 36092
L72602 36092
L72602 35942
" />
<path d="M72452 35702
L72452 35807
" />
<path d="M72287 35807
L72602 35807
L72602 35657
" />
<path d="M72602 35492
L72527 35492
" />
<path d="M72557 35567
L72527 35492
L72557 35417
" />
<path d="M72467 35537
L72527 35492
L72467 35447
" />
<path d="M72602 35252
L72527 35252
" />
<path d="M72557 35327
L72527 35252
L72557 35177
" />
<path d="M72467 35297
L72527 35252
L72467 35207
" />
</g>
<g style="fill:#000000; fill-opacity:0.0; 
stroke:#000000; stroke-width:59.0551; stroke-opacity:1; 
stroke-linecap:round; stroke-linejoin:round;">
<path d="M27751 32093
L27751 32281
L28145 32281
" />
<path d="M27958 31962
L27958 31831
" />
<path d="M27751 31774
L27751 31962
L28145 31962
L28145 31774
" />
<path d="M27751 31606
L28145 31606
L28145 31512
L28126 31456
L28089 31418
L28051 31399
L27976 31381
L27920 31381
L27845 31399
L27808 31418
L27770 31456
L27751 31512
L27751 31606
" />
<path d="M27714 31306
L27714 31006
" />
<path d="M27751 30912
L28145 30912
L28145 30818
L28126 30762
L28089 30724
L28051 30706
L27976 30687
L27920 30687
L27845 30706
L27808 30724
L27770 30762
L27751 30818
L27751 30912
" />
<path d="M28145 30331
L28145 30518
L27958 30537
L27976 30518
L27995 30481
L27995 30387
L27976 30350
L27958 30331
L27920 30312
L27826 30312
L27789 30331
L27770 30350
L27751 30387
L27751 30481
L27770 30518
L27789 30537
" />
<path d="M27789 30143
L27770 30125
L27751 30143
L27770 30162
L27789 30143
L27751 30143
" />
<path d="M28145 29881
L28145 29843
L28126 29806
L28108 29787
L28070 29768
L27995 29750
L27901 29750
L27826 29768
L27789 29787
L27770 29806
L27751 29843
L27751 29881
L27770 29918
L27789 29937
L27826 29956
L27901 29975
L27995 29975
L28070 29956
L28108 29937
L28126 29918
L28145 29881
" />
<path d="M27751 29581
L28014 29581
" />
<path d="M27976 29581
L27995 29562
L28014 29525
L28014 29468
L27995 29431
L27958 29412
L27751 29412
" />
<path d="M27958 29412
L27995 29393
L28014 29356
L28014 29300
L27995 29262
L27958 29243
L27751 29243
" />
<path d="M27751 29056
L28014 29056
" />
<path d="M27976 29056
L27995 29037
L28014 29000
L28014 28943
L27995 28906
L27958 28887
L27751 28887
" />
<path d="M27958 28887
L27995 28868
L28014 28831
L28014 28775
L27995 28737
L27958 28718
L27751 28718
" />
</g>
<g style="fill:#000000; fill-opacity:0.0; 
stroke:#000000; stroke-width:78.7402; stroke-opacity:1; 
stroke-linecap:round; stroke-linejoin:round;">
<path d="M72287 32827
L72437 32932
" />
<path d="M72287 33007
L72602 33007
L72602 32887
L72587 32857
L72572 32842
L72542 32827
L72497 32827
L72467 32842
L72452 32857
L72437 32887
L72437 33007
" />
<path d="M72452 32692
L72452 32587
" />
<path d="M72287 32542
L72287 32692
L72602 32692
L72602 32542
" />
<path d="M72452 32302
L72452 32407
" />
<path d="M72287 32407
L72602 32407
L72602 32257
" />
<path d="M72602 32092
L72527 32092
" />
<path d="M72557 32167
L72527 32092
L72557 32017
" />
<path d="M72467 32137
L72527 32092
L72467 32047
" />
<path d="M72602 31852
L72527 31852
" />
<path d="M72557 31927
L72527 31852
L72557 31777
" />
<path d="M72467 31897
L72527 31852
L72467 31807
" />
</g>
<g style="fill:#000000; fill-opacity:0.0; 
stroke:#000000; stroke-width:39.3701; stroke-opacity:1; 
stroke-linecap:round; stroke-linejoin:round;">
<path d="M64530 22200
L64530 21900
" />
<path d="M24930 22200
L24930 21900
" />
<path d="M24930 49400
L24930 49100
" />
<path d="M64530 49400
L64530 49100
" />
<path d="M24930 22200
L24930 49100
" />
<path d="M64530 22200
L64530 49100
" />
<path d="M24930 49400
L64530 49400
" />
<path d="M64530 21900
L24930 21900
" />
</g> 
</svg>
