  0
SECTION
  2
HEADER
  9
$ANGBASE
  50
0.0
  9
$ANGDIR
  70
  1
  9
$MEASUREMENT
  70
0
  0
ENDSEC
  0
SECTION
  2
TABLES
  0
TABLE
  2
LTYPE
  70
4
  0
LTYPE
  5
40F
  2
CONTINUOUS
  70
0
  3
Solid line
  72
65
  73
0
  40
0.0
  0
LTYPE
  5
410
  2
DASHDOT
 70
0
  3
Dash Dot ____ _ ____ _
 72
65
 73
4
 40
2.0
 49
1.25
 49
-0.25
 49
0.25
 49
-0.25
  0
LTYPE
  5
411
  2
DASHED
 70
0
  3
Dashed __ __ __ __ __
 72
65
 73
2
 40
0.75
 49
0.5
 49
-0.25
  0
LTYPE
  5
43B
  2
DOTTED
 70
0
  3
Dotted .  .  .  .
 72
65
 73
2
 40
0.2
 49
0.0
 49
-0.2
  0
ENDTAB
  0
TABLE
  2
STYLE
  70
4
  0
STYLE
  2
KICAD
  70
0
  40
0
  41
1
  42
1
  50
0
  71
0
  3
isocp.shx
  0
STYLE
  2
KICADB
  70
0
  40
0
  41
1
  42
1
  50
0
  71
0
  3
isocp.shx
  0
STYLE
  2
KICADI
  70
0
  40
0
  41
1
  42
1
  50
15
  71
0
  3
isocp.shx
  0
STYLE
  2
KICADBI
  70
0
  40
0
  41
1
  42
1
  50
15
  71
0
  3
isocp.shx
  0
ENDTAB
  0
TABLE
  2
LAYER
  70
30
  0
LAYER
  2
BLACK
  70
0
  62
7
  6
CONTINUOUS
  0
LAYER
  2
GRAY1
  70
0
  62
251
  6
CONTINUOUS
  0
LAYER
  2
GRAY2
  70
0
  62
8
  6
CONTINUOUS
  0
LAYER
  2
GRAY3
  70
0
  62
9
  6
CONTINUOUS
  0
LAYER
  2
WHITE
  70
0
  62
7
  6
CONTINUOUS
  0
LAYER
  2
LYELLOW
  70
0
  62
51
  6
CONTINUOUS
  0
LAYER
  2
BLUE1
  70
0
  62
178
  6
CONTINUOUS
  0
LAYER
  2
GREEN1
  70
0
  62
98
  6
CONTINUOUS
  0
LAYER
  2
CYAN1
  70
0
  62
138
  6
CONTINUOUS
  0
LAYER
  2
RED1
  70
0
  62
18
  6
CONTINUOUS
  0
LAYER
  2
MAGENTA1
  70
0
  62
228
  6
CONTINUOUS
  0
LAYER
  2
BROWN1
  70
0
  62
58
  6
CONTINUOUS
  0
LAYER
  2
BLUE2
  70
0
  62
5
  6
CONTINUOUS
  0
LAYER
  2
GREEN2
  70
0
  62
3
  6
CONTINUOUS
  0
LAYER
  2
CYAN2
  70
0
  62
4
  6
CONTINUOUS
  0
LAYER
  2
RED2
  70
0
  62
1
  6
CONTINUOUS
  0
LAYER
  2
MAGENTA2
  70
0
  62
6
  6
CONTINUOUS
  0
LAYER
  2
BROWN2
  70
0
  62
54
  6
CONTINUOUS
  0
LAYER
  2
BLUE3
  70
0
  62
171
  6
CONTINUOUS
  0
LAYER
  2
GREEN3
  70
0
  62
91
  6
CONTINUOUS
  0
LAYER
  2
CYAN3
  70
0
  62
131
  6
CONTINUOUS
  0
LAYER
  2
RED3
  70
0
  62
11
  6
CONTINUOUS
  0
LAYER
  2
MAGENTA3
  70
0
  62
221
  6
CONTINUOUS
  0
LAYER
  2
YELLOW3
  70
0
  62
2
  6
CONTINUOUS
  0
LAYER
  2
BLUE4
  70
0
  62
5
  6
CONTINUOUS
  0
LAYER
  2
GREEN4
  70
0
  62
3
  6
CONTINUOUS
  0
LAYER
  2
CYAN4
  70
0
  62
4
  6
CONTINUOUS
  0
LAYER
  2
RED4
  70
0
  62
1
  6
CONTINUOUS
  0
LAYER
  2
MAGENTA4
  70
0
  62
6
  6
CONTINUOUS
  0
LAYER
  2
YELLOW4
  70
0
  62
2
  6
CONTINUOUS
  0
ENDTAB
  0
ENDSEC
  0
SECTION
  2
ENTITIES
0
LINE
8
BLACK
6
CONTINUOUS
10
194.131
20
-107.942
11
194.741
21
-108.294
0
LINE
8
BLACK
6
CONTINUOUS
10
194.741
20
-108.294
11
195.195
21
-108.835
0
LINE
8
BLACK
6
CONTINUOUS
10
195.195
20
-108.835
11
195.436
21
-109.497
0
LINE
8
BLACK
6
CONTINUOUS
10
195.436
20
-109.497
11
195.436
21
-110.203
0
LINE
8
BLACK
6
CONTINUOUS
10
195.436
20
-110.203
11
195.195
21
-110.865
0
LINE
8
BLACK
6
CONTINUOUS
10
195.195
20
-110.865
11
194.741
21
-111.406
0
LINE
8
BLACK
6
CONTINUOUS
10
194.741
20
-111.406
11
194.131
21
-111.758
0
LINE
8
BLACK
6
CONTINUOUS
10
194.131
20
-111.758
11
193.436
21
-111.881
0
LINE
8
BLACK
6
CONTINUOUS
10
193.436
20
-111.881
11
192.741
21
-111.758
0
LINE
8
BLACK
6
CONTINUOUS
10
192.741
20
-111.758
11
192.131
21
-111.406
0
LINE
8
BLACK
6
CONTINUOUS
10
192.131
20
-111.406
11
191.677
21
-110.865
0
LINE
8
BLACK
6
CONTINUOUS
10
191.677
20
-110.865
11
191.436
21
-110.203
0
LINE
8
BLACK
6
CONTINUOUS
10
191.436
20
-110.203
11
191.436
21
-109.497
0
LINE
8
BLACK
6
CONTINUOUS
10
191.436
20
-109.497
11
191.677
21
-108.835
0
LINE
8
BLACK
6
CONTINUOUS
10
191.677
20
-108.835
11
192.131
21
-108.294
0
LINE
8
BLACK
6
CONTINUOUS
10
192.131
20
-108.294
11
192.741
21
-107.942
0
LINE
8
BLACK
6
CONTINUOUS
10
192.741
20
-107.942
11
193.436
21
-107.819
0
LINE
8
BLACK
6
CONTINUOUS
10
193.436
20
-107.819
11
194.131
21
-107.942
0
LINE
8
BLACK
6
CONTINUOUS
10
186.749
20
-107.091
11
187.023
21
-107.25
0
LINE
8
BLACK
6
CONTINUOUS
10
187.023
20
-107.25
11
187.227
21
-107.493
0
LINE
8
BLACK
6
CONTINUOUS
10
187.227
20
-107.493
11
187.336
21
-107.791
0
LINE
8
BLACK
6
CONTINUOUS
10
187.336
20
-107.791
11
187.336
21
-108.109
0
LINE
8
BLACK
6
CONTINUOUS
10
187.336
20
-108.109
11
187.227
21
-108.407
0
LINE
8
BLACK
6
CONTINUOUS
10
187.227
20
-108.407
11
187.023
21
-108.65
0
LINE
8
BLACK
6
CONTINUOUS
10
187.023
20
-108.65
11
186.749
21
-108.809
0
LINE
8
BLACK
6
CONTINUOUS
10
186.749
20
-108.809
11
186.436
21
-108.864
0
LINE
8
BLACK
6
CONTINUOUS
10
186.436
20
-108.864
11
186.123
21
-108.809
0
LINE
8
BLACK
6
CONTINUOUS
10
186.123
20
-108.809
11
185.849
21
-108.65
0
LINE
8
BLACK
6
CONTINUOUS
10
185.849
20
-108.65
11
185.645
21
-108.407
0
LINE
8
BLACK
6
CONTINUOUS
10
185.645
20
-108.407
11
185.536
21
-108.109
0
LINE
8
BLACK
6
CONTINUOUS
10
185.536
20
-108.109
11
185.536
21
-107.791
0
LINE
8
BLACK
6
CONTINUOUS
10
185.536
20
-107.791
11
185.645
21
-107.493
0
LINE
8
BLACK
6
CONTINUOUS
10
185.645
20
-107.493
11
185.849
21
-107.25
0
LINE
8
BLACK
6
CONTINUOUS
10
185.849
20
-107.25
11
186.123
21
-107.091
0
LINE
8
BLACK
6
CONTINUOUS
10
186.123
20
-107.091
11
186.436
21
-107.036
0
LINE
8
BLACK
6
CONTINUOUS
10
186.436
20
-107.036
11
186.749
21
-107.091
0
LINE
8
BLACK
6
CONTINUOUS
10
186.749
20
-104.591
11
187.023
21
-104.75
0
LINE
8
BLACK
6
CONTINUOUS
10
187.023
20
-104.75
11
187.227
21
-104.993
0
LINE
8
BLACK
6
CONTINUOUS
10
187.227
20
-104.993
11
187.336
21
-105.291
0
LINE
8
BLACK
6
CONTINUOUS
10
187.336
20
-105.291
11
187.336
21
-105.609
0
LINE
8
BLACK
6
CONTINUOUS
10
187.336
20
-105.609
11
187.227
21
-105.907
0
LINE
8
BLACK
6
CONTINUOUS
10
187.227
20
-105.907
11
187.023
21
-106.15
0
LINE
8
BLACK
6
CONTINUOUS
10
187.023
20
-106.15
11
186.749
21
-106.309
0
LINE
8
BLACK
6
CONTINUOUS
10
186.749
20
-106.309
11
186.436
21
-106.364
0
LINE
8
BLACK
6
CONTINUOUS
10
186.436
20
-106.364
11
186.123
21
-106.309
0
LINE
8
BLACK
6
CONTINUOUS
10
186.123
20
-106.309
11
185.849
21
-106.15
0
LINE
8
BLACK
6
CONTINUOUS
10
185.849
20
-106.15
11
185.645
21
-105.907
0
LINE
8
BLACK
6
CONTINUOUS
10
185.645
20
-105.907
11
185.536
21
-105.609
0
LINE
8
BLACK
6
CONTINUOUS
10
185.536
20
-105.609
11
185.536
21
-105.291
0
LINE
8
BLACK
6
CONTINUOUS
10
185.536
20
-105.291
11
185.645
21
-104.993
0
LINE
8
BLACK
6
CONTINUOUS
10
185.645
20
-104.993
11
185.849
21
-104.75
0
LINE
8
BLACK
6
CONTINUOUS
10
185.849
20
-104.75
11
186.123
21
-104.591
0
LINE
8
BLACK
6
CONTINUOUS
10
186.123
20
-104.591
11
186.436
21
-104.536
0
LINE
8
BLACK
6
CONTINUOUS
10
186.436
20
-104.536
11
186.749
21
-104.591
0
LINE
8
BLACK
6
CONTINUOUS
10
186.749
20
-102.091
11
187.023
21
-102.25
0
LINE
8
BLACK
6
CONTINUOUS
10
187.023
20
-102.25
11
187.227
21
-102.493
0
LINE
8
BLACK
6
CONTINUOUS
10
187.227
20
-102.493
11
187.336
21
-102.791
0
LINE
8
BLACK
6
CONTINUOUS
10
187.336
20
-102.791
11
187.336
21
-103.109
0
LINE
8
BLACK
6
CONTINUOUS
10
187.336
20
-103.109
11
187.227
21
-103.407
0
LINE
8
BLACK
6
CONTINUOUS
10
187.227
20
-103.407
11
187.023
21
-103.65
0
LINE
8
BLACK
6
CONTINUOUS
10
187.023
20
-103.65
11
186.749
21
-103.809
0
LINE
8
BLACK
6
CONTINUOUS
10
186.749
20
-103.809
11
186.436
21
-103.864
0
LINE
8
BLACK
6
CONTINUOUS
10
186.436
20
-103.864
11
186.123
21
-103.809
0
LINE
8
BLACK
6
CONTINUOUS
10
186.123
20
-103.809
11
185.849
21
-103.65
0
LINE
8
BLACK
6
CONTINUOUS
10
185.849
20
-103.65
11
185.645
21
-103.407
0
LINE
8
BLACK
6
CONTINUOUS
10
185.645
20
-103.407
11
185.536
21
-103.109
0
LINE
8
BLACK
6
CONTINUOUS
10
185.536
20
-103.109
11
185.536
21
-102.791
0
LINE
8
BLACK
6
CONTINUOUS
10
185.536
20
-102.791
11
185.645
21
-102.493
0
LINE
8
BLACK
6
CONTINUOUS
10
185.645
20
-102.493
11
185.849
21
-102.25
0
LINE
8
BLACK
6
CONTINUOUS
10
185.849
20
-102.25
11
186.123
21
-102.091
0
LINE
8
BLACK
6
CONTINUOUS
10
186.123
20
-102.091
11
186.436
21
-102.036
0
LINE
8
BLACK
6
CONTINUOUS
10
186.436
20
-102.036
11
186.749
21
-102.091
0
LINE
8
BLACK
6
CONTINUOUS
10
194.131
20
-99.1416
11
194.741
21
-99.4943
0
LINE
8
BLACK
6
CONTINUOUS
10
194.741
20
-99.4943
11
195.195
21
-100.035
0
LINE
8
BLACK
6
CONTINUOUS
10
195.195
20
-100.035
11
195.436
21
-100.697
0
LINE
8
BLACK
6
CONTINUOUS
10
195.436
20
-100.697
11
195.436
21
-101.403
0
LINE
8
BLACK
6
CONTINUOUS
10
195.436
20
-101.403
11
195.195
21
-102.065
0
LINE
8
BLACK
6
CONTINUOUS
10
195.195
20
-102.065
11
194.741
21
-102.606
0
LINE
8
BLACK
6
CONTINUOUS
10
194.741
20
-102.606
11
194.131
21
-102.958
0
LINE
8
BLACK
6
CONTINUOUS
10
194.131
20
-102.958
11
193.436
21
-103.081
0
LINE
8
BLACK
6
CONTINUOUS
10
193.436
20
-103.081
11
192.741
21
-102.958
0
LINE
8
BLACK
6
CONTINUOUS
10
192.741
20
-102.958
11
192.131
21
-102.606
0
LINE
8
BLACK
6
CONTINUOUS
10
192.131
20
-102.606
11
191.677
21
-102.065
0
LINE
8
BLACK
6
CONTINUOUS
10
191.677
20
-102.065
11
191.436
21
-101.403
0
LINE
8
BLACK
6
CONTINUOUS
10
191.436
20
-101.403
11
191.436
21
-100.697
0
LINE
8
BLACK
6
CONTINUOUS
10
191.436
20
-100.697
11
191.677
21
-100.035
0
LINE
8
BLACK
6
CONTINUOUS
10
191.677
20
-100.035
11
192.131
21
-99.4943
0
LINE
8
BLACK
6
CONTINUOUS
10
192.131
20
-99.4943
11
192.741
21
-99.1416
0
LINE
8
BLACK
6
CONTINUOUS
10
192.741
20
-99.1416
11
193.436
21
-99.0191
0
LINE
8
BLACK
6
CONTINUOUS
10
193.436
20
-99.0191
11
194.131
21
-99.1416
0
LINE
8
BLACK
6
CONTINUOUS
10
113.93
20
-101.738
11
112.13
21
-101.738
0
LINE
8
BLACK
6
CONTINUOUS
10
112.13
20
-101.738
11
112.13
21
-99.938
0
LINE
8
BLACK
6
CONTINUOUS
10
112.13
20
-99.938
11
113.93
21
-99.938
0
LINE
8
BLACK
6
CONTINUOUS
10
113.93
20
-99.938
11
113.93
21
-101.738
0
LINE
8
BLACK
6
CONTINUOUS
10
113.343
20
-97.4392
11
113.617
21
-97.5979
0
LINE
8
BLACK
6
CONTINUOUS
10
113.617
20
-97.5979
11
113.821
21
-97.8411
0
LINE
8
BLACK
6
CONTINUOUS
10
113.821
20
-97.8411
11
113.93
21
-98.1393
0
LINE
8
BLACK
6
CONTINUOUS
10
113.93
20
-98.1393
11
113.93
21
-98.4567
0
LINE
8
BLACK
6
CONTINUOUS
10
113.93
20
-98.4567
11
113.821
21
-98.7549
0
LINE
8
BLACK
6
CONTINUOUS
10
113.821
20
-98.7549
11
113.617
21
-98.9981
0
LINE
8
BLACK
6
CONTINUOUS
10
113.617
20
-98.9981
11
113.343
21
-99.1568
0
LINE
8
BLACK
6
CONTINUOUS
10
113.343
20
-99.1568
11
113.03
21
-99.2119
0
LINE
8
BLACK
6
CONTINUOUS
10
113.03
20
-99.2119
11
112.717
21
-99.1568
0
LINE
8
BLACK
6
CONTINUOUS
10
112.717
20
-99.1568
11
112.443
21
-98.9981
0
LINE
8
BLACK
6
CONTINUOUS
10
112.443
20
-98.9981
11
112.239
21
-98.7549
0
LINE
8
BLACK
6
CONTINUOUS
10
112.239
20
-98.7549
11
112.13
21
-98.4567
0
LINE
8
BLACK
6
CONTINUOUS
10
112.13
20
-98.4567
11
112.13
21
-98.1393
0
LINE
8
BLACK
6
CONTINUOUS
10
112.13
20
-98.1393
11
112.239
21
-97.8411
0
LINE
8
BLACK
6
CONTINUOUS
10
112.239
20
-97.8411
11
112.443
21
-97.5979
0
LINE
8
BLACK
6
CONTINUOUS
10
112.443
20
-97.5979
11
112.717
21
-97.4392
0
LINE
8
BLACK
6
CONTINUOUS
10
112.717
20
-97.4392
11
113.03
21
-97.3841
0
LINE
8
BLACK
6
CONTINUOUS
10
113.03
20
-97.3841
11
113.343
21
-97.4392
0
LINE
8
BLACK
6
CONTINUOUS
10
148.596
20
-96.5664
11
148.826
21
-96.6986
0
LINE
8
BLACK
6
CONTINUOUS
10
148.826
20
-96.6986
11
148.996
21
-96.9012
0
LINE
8
BLACK
6
CONTINUOUS
10
148.996
20
-96.9012
11
149.086
21
-97.1498
0
LINE
8
BLACK
6
CONTINUOUS
10
149.086
20
-97.1498
11
149.086
21
-97.4142
0
LINE
8
BLACK
6
CONTINUOUS
10
149.086
20
-97.4142
11
148.996
21
-97.6628
0
LINE
8
BLACK
6
CONTINUOUS
10
148.996
20
-97.6628
11
148.826
21
-97.8654
0
LINE
8
BLACK
6
CONTINUOUS
10
148.826
20
-97.8654
11
148.596
21
-97.9976
0
LINE
8
BLACK
6
CONTINUOUS
10
148.596
20
-97.9976
11
148.336
21
-98.0436
0
LINE
8
BLACK
6
CONTINUOUS
10
148.336
20
-98.0436
11
148.076
21
-97.9976
0
LINE
8
BLACK
6
CONTINUOUS
10
148.076
20
-97.9976
11
147.846
21
-97.8654
0
LINE
8
BLACK
6
CONTINUOUS
10
147.846
20
-97.8654
11
147.676
21
-97.6628
0
LINE
8
BLACK
6
CONTINUOUS
10
147.676
20
-97.6628
11
147.586
21
-97.4142
0
LINE
8
BLACK
6
CONTINUOUS
10
147.586
20
-97.4142
11
147.586
21
-97.1498
0
LINE
8
BLACK
6
CONTINUOUS
10
147.586
20
-97.1498
11
147.676
21
-96.9012
0
LINE
8
BLACK
6
CONTINUOUS
10
147.676
20
-96.9012
11
147.846
21
-96.6986
0
LINE
8
BLACK
6
CONTINUOUS
10
147.846
20
-96.6986
11
148.076
21
-96.5664
0
LINE
8
BLACK
6
CONTINUOUS
10
148.076
20
-96.5664
11
148.336
21
-96.5204
0
LINE
8
BLACK
6
CONTINUOUS
10
148.336
20
-96.5204
11
148.596
21
-96.5664
0
LINE
8
BLACK
6
CONTINUOUS
10
133.356
20
-96.5664
11
133.586
21
-96.6986
0
LINE
8
BLACK
6
CONTINUOUS
10
133.586
20
-96.6986
11
133.756
21
-96.9012
0
LINE
8
BLACK
6
CONTINUOUS
10
133.756
20
-96.9012
11
133.846
21
-97.1498
0
LINE
8
BLACK
6
CONTINUOUS
10
133.846
20
-97.1498
11
133.846
21
-97.4142
0
LINE
8
BLACK
6
CONTINUOUS
10
133.846
20
-97.4142
11
133.756
21
-97.6628
0
LINE
8
BLACK
6
CONTINUOUS
10
133.756
20
-97.6628
11
133.586
21
-97.8654
0
LINE
8
BLACK
6
CONTINUOUS
10
133.586
20
-97.8654
11
133.356
21
-97.9976
0
LINE
8
BLACK
6
CONTINUOUS
10
133.356
20
-97.9976
11
133.096
21
-98.0436
0
LINE
8
BLACK
6
CONTINUOUS
10
133.096
20
-98.0436
11
132.836
21
-97.9976
0
LINE
8
BLACK
6
CONTINUOUS
10
132.836
20
-97.9976
11
132.606
21
-97.8654
0
LINE
8
BLACK
6
CONTINUOUS
10
132.606
20
-97.8654
11
132.436
21
-97.6628
0
LINE
8
BLACK
6
CONTINUOUS
10
132.436
20
-97.6628
11
132.346
21
-97.4142
0
LINE
8
BLACK
6
CONTINUOUS
10
132.346
20
-97.4142
11
132.346
21
-97.1498
0
LINE
8
BLACK
6
CONTINUOUS
10
132.346
20
-97.1498
11
132.436
21
-96.9012
0
LINE
8
BLACK
6
CONTINUOUS
10
132.436
20
-96.9012
11
132.606
21
-96.6986
0
LINE
8
BLACK
6
CONTINUOUS
10
132.606
20
-96.6986
11
132.836
21
-96.5664
0
LINE
8
BLACK
6
CONTINUOUS
10
132.836
20
-96.5664
11
133.096
21
-96.5204
0
LINE
8
BLACK
6
CONTINUOUS
10
133.096
20
-96.5204
11
133.356
21
-96.5664
0
LINE
8
BLACK
6
CONTINUOUS
10
176.952
20
-94.7913
11
177.44
21
-95.0734
0
LINE
8
BLACK
6
CONTINUOUS
10
177.44
20
-95.0734
11
177.803
21
-95.5057
0
LINE
8
BLACK
6
CONTINUOUS
10
177.803
20
-95.5057
11
177.996
21
-96.0359
0
LINE
8
BLACK
6
CONTINUOUS
10
177.996
20
-96.0359
11
177.996
21
-96.6001
0
LINE
8
BLACK
6
CONTINUOUS
10
177.996
20
-96.6001
11
177.803
21
-97.1303
0
LINE
8
BLACK
6
CONTINUOUS
10
177.803
20
-97.1303
11
177.44
21
-97.5626
0
LINE
8
BLACK
6
CONTINUOUS
10
177.44
20
-97.5626
11
176.952
21
-97.8447
0
LINE
8
BLACK
6
CONTINUOUS
10
176.952
20
-97.8447
11
176.396
21
-97.9427
0
LINE
8
BLACK
6
CONTINUOUS
10
176.396
20
-97.9427
11
175.84
21
-97.8447
0
LINE
8
BLACK
6
CONTINUOUS
10
175.84
20
-97.8447
11
175.352
21
-97.5626
0
LINE
8
BLACK
6
CONTINUOUS
10
175.352
20
-97.5626
11
174.989
21
-97.1303
0
LINE
8
BLACK
6
CONTINUOUS
10
174.989
20
-97.1303
11
174.796
21
-96.6001
0
LINE
8
BLACK
6
CONTINUOUS
10
174.796
20
-96.6001
11
174.796
21
-96.0359
0
LINE
8
BLACK
6
CONTINUOUS
10
174.796
20
-96.0359
11
174.989
21
-95.5057
0
LINE
8
BLACK
6
CONTINUOUS
10
174.989
20
-95.5057
11
175.352
21
-95.0734
0
LINE
8
BLACK
6
CONTINUOUS
10
175.352
20
-95.0734
11
175.84
21
-94.7913
0
LINE
8
BLACK
6
CONTINUOUS
10
175.84
20
-94.7913
11
176.396
21
-94.6933
0
LINE
8
BLACK
6
CONTINUOUS
10
176.396
20
-94.6933
11
176.952
21
-94.7913
0
LINE
8
BLACK
6
CONTINUOUS
10
148.596
20
-94.0264
11
148.826
21
-94.1586
0
LINE
8
BLACK
6
CONTINUOUS
10
148.826
20
-94.1586
11
148.996
21
-94.3612
0
LINE
8
BLACK
6
CONTINUOUS
10
148.996
20
-94.3612
11
149.086
21
-94.6098
0
LINE
8
BLACK
6
CONTINUOUS
10
149.086
20
-94.6098
11
149.086
21
-94.8742
0
LINE
8
BLACK
6
CONTINUOUS
10
149.086
20
-94.8742
11
148.996
21
-95.1228
0
LINE
8
BLACK
6
CONTINUOUS
10
148.996
20
-95.1228
11
148.826
21
-95.3254
0
LINE
8
BLACK
6
CONTINUOUS
10
148.826
20
-95.3254
11
148.596
21
-95.4576
0
LINE
8
BLACK
6
CONTINUOUS
10
148.596
20
-95.4576
11
148.336
21
-95.5036
0
LINE
8
BLACK
6
CONTINUOUS
10
148.336
20
-95.5036
11
148.076
21
-95.4576
0
LINE
8
BLACK
6
CONTINUOUS
10
148.076
20
-95.4576
11
147.846
21
-95.3254
0
LINE
8
BLACK
6
CONTINUOUS
10
147.846
20
-95.3254
11
147.676
21
-95.1228
0
LINE
8
BLACK
6
CONTINUOUS
10
147.676
20
-95.1228
11
147.586
21
-94.8742
0
LINE
8
BLACK
6
CONTINUOUS
10
147.586
20
-94.8742
11
147.586
21
-94.6098
0
LINE
8
BLACK
6
CONTINUOUS
10
147.586
20
-94.6098
11
147.676
21
-94.3612
0
LINE
8
BLACK
6
CONTINUOUS
10
147.676
20
-94.3612
11
147.846
21
-94.1586
0
LINE
8
BLACK
6
CONTINUOUS
10
147.846
20
-94.1586
11
148.076
21
-94.0264
0
LINE
8
BLACK
6
CONTINUOUS
10
148.076
20
-94.0264
11
148.336
21
-93.9804
0
LINE
8
BLACK
6
CONTINUOUS
10
148.336
20
-93.9804
11
148.596
21
-94.0264
0
LINE
8
BLACK
6
CONTINUOUS
10
133.356
20
-94.0264
11
133.586
21
-94.1586
0
LINE
8
BLACK
6
CONTINUOUS
10
133.586
20
-94.1586
11
133.756
21
-94.3612
0
LINE
8
BLACK
6
CONTINUOUS
10
133.756
20
-94.3612
11
133.846
21
-94.6098
0
LINE
8
BLACK
6
CONTINUOUS
10
133.846
20
-94.6098
11
133.846
21
-94.8742
0
LINE
8
BLACK
6
CONTINUOUS
10
133.846
20
-94.8742
11
133.756
21
-95.1228
0
LINE
8
BLACK
6
CONTINUOUS
10
133.756
20
-95.1228
11
133.586
21
-95.3254
0
LINE
8
BLACK
6
CONTINUOUS
10
133.586
20
-95.3254
11
133.356
21
-95.4576
0
LINE
8
BLACK
6
CONTINUOUS
10
133.356
20
-95.4576
11
133.096
21
-95.5036
0
LINE
8
BLACK
6
CONTINUOUS
10
133.096
20
-95.5036
11
132.836
21
-95.4576
0
LINE
8
BLACK
6
CONTINUOUS
10
132.836
20
-95.4576
11
132.606
21
-95.3254
0
LINE
8
BLACK
6
CONTINUOUS
10
132.606
20
-95.3254
11
132.436
21
-95.1228
0
LINE
8
BLACK
6
CONTINUOUS
10
132.436
20
-95.1228
11
132.346
21
-94.8742
0
LINE
8
BLACK
6
CONTINUOUS
10
132.346
20
-94.8742
11
132.346
21
-94.6098
0
LINE
8
BLACK
6
CONTINUOUS
10
132.346
20
-94.6098
11
132.436
21
-94.3612
0
LINE
8
BLACK
6
CONTINUOUS
10
132.436
20
-94.3612
11
132.606
21
-94.1586
0
LINE
8
BLACK
6
CONTINUOUS
10
132.606
20
-94.1586
11
132.836
21
-94.0264
0
LINE
8
BLACK
6
CONTINUOUS
10
132.836
20
-94.0264
11
133.096
21
-93.9804
0
LINE
8
BLACK
6
CONTINUOUS
10
133.096
20
-93.9804
11
133.356
21
-94.0264
0
LINE
8
BLACK
6
CONTINUOUS
10
169.743
20
-92.2638
11
170.049
21
-92.4401
0
LINE
8
BLACK
6
CONTINUOUS
10
170.049
20
-92.4401
11
170.275
21
-92.7103
0
LINE
8
BLACK
6
CONTINUOUS
10
170.275
20
-92.7103
11
170.396
21
-93.0417
0
LINE
8
BLACK
6
CONTINUOUS
10
170.396
20
-93.0417
11
170.396
21
-93.3943
0
LINE
8
BLACK
6
CONTINUOUS
10
170.396
20
-93.3943
11
170.275
21
-93.7257
0
LINE
8
BLACK
6
CONTINUOUS
10
170.275
20
-93.7257
11
170.049
21
-93.9959
0
LINE
8
BLACK
6
CONTINUOUS
10
170.049
20
-93.9959
11
169.743
21
-94.1722
0
LINE
8
BLACK
6
CONTINUOUS
10
169.743
20
-94.1722
11
169.396
21
-94.2334
0
LINE
8
BLACK
6
CONTINUOUS
10
169.396
20
-94.2334
11
169.049
21
-94.1722
0
LINE
8
BLACK
6
CONTINUOUS
10
169.049
20
-94.1722
11
168.743
21
-93.9959
0
LINE
8
BLACK
6
CONTINUOUS
10
168.743
20
-93.9959
11
168.517
21
-93.7257
0
LINE
8
BLACK
6
CONTINUOUS
10
168.517
20
-93.7257
11
168.396
21
-93.3943
0
LINE
8
BLACK
6
CONTINUOUS
10
168.396
20
-93.3943
11
168.396
21
-93.0417
0
LINE
8
BLACK
6
CONTINUOUS
10
168.396
20
-93.0417
11
168.517
21
-92.7103
0
LINE
8
BLACK
6
CONTINUOUS
10
168.517
20
-92.7103
11
168.743
21
-92.4401
0
LINE
8
BLACK
6
CONTINUOUS
10
168.743
20
-92.4401
11
169.049
21
-92.2638
0
LINE
8
BLACK
6
CONTINUOUS
10
169.049
20
-92.2638
11
169.396
21
-92.2026
0
LINE
8
BLACK
6
CONTINUOUS
10
169.396
20
-92.2026
11
169.743
21
-92.2638
0
LINE
8
BLACK
6
CONTINUOUS
10
184.896
20
-94.218
11
182.896
21
-94.218
0
LINE
8
BLACK
6
CONTINUOUS
10
182.896
20
-94.218
11
182.896
21
-92.218
0
LINE
8
BLACK
6
CONTINUOUS
10
182.896
20
-92.218
11
184.896
21
-92.218
0
LINE
8
BLACK
6
CONTINUOUS
10
184.896
20
-92.218
11
184.896
21
-94.218
0
LINE
8
BLACK
6
CONTINUOUS
10
113.93
20
-93.102
11
112.13
21
-93.102
0
LINE
8
BLACK
6
CONTINUOUS
10
112.13
20
-93.102
11
112.13
21
-91.302
0
LINE
8
BLACK
6
CONTINUOUS
10
112.13
20
-91.302
11
113.93
21
-91.302
0
LINE
8
BLACK
6
CONTINUOUS
10
113.93
20
-91.302
11
113.93
21
-93.102
0
LINE
8
BLACK
6
CONTINUOUS
10
133.356
20
-91.4864
11
133.586
21
-91.6186
0
LINE
8
BLACK
6
CONTINUOUS
10
133.586
20
-91.6186
11
133.756
21
-91.8212
0
LINE
8
BLACK
6
CONTINUOUS
10
133.756
20
-91.8212
11
133.846
21
-92.0698
0
LINE
8
BLACK
6
CONTINUOUS
10
133.846
20
-92.0698
11
133.846
21
-92.3342
0
LINE
8
BLACK
6
CONTINUOUS
10
133.846
20
-92.3342
11
133.756
21
-92.5828
0
LINE
8
BLACK
6
CONTINUOUS
10
133.756
20
-92.5828
11
133.586
21
-92.7854
0
LINE
8
BLACK
6
CONTINUOUS
10
133.586
20
-92.7854
11
133.356
21
-92.9176
0
LINE
8
BLACK
6
CONTINUOUS
10
133.356
20
-92.9176
11
133.096
21
-92.9636
0
LINE
8
BLACK
6
CONTINUOUS
10
133.096
20
-92.9636
11
132.836
21
-92.9176
0
LINE
8
BLACK
6
CONTINUOUS
10
132.836
20
-92.9176
11
132.606
21
-92.7854
0
LINE
8
BLACK
6
CONTINUOUS
10
132.606
20
-92.7854
11
132.436
21
-92.5828
0
LINE
8
BLACK
6
CONTINUOUS
10
132.436
20
-92.5828
11
132.346
21
-92.3342
0
LINE
8
BLACK
6
CONTINUOUS
10
132.346
20
-92.3342
11
132.346
21
-92.0698
0
LINE
8
BLACK
6
CONTINUOUS
10
132.346
20
-92.0698
11
132.436
21
-91.8212
0
LINE
8
BLACK
6
CONTINUOUS
10
132.436
20
-91.8212
11
132.606
21
-91.6186
0
LINE
8
BLACK
6
CONTINUOUS
10
132.606
20
-91.6186
11
132.836
21
-91.4864
0
LINE
8
BLACK
6
CONTINUOUS
10
132.836
20
-91.4864
11
133.096
21
-91.4404
0
LINE
8
BLACK
6
CONTINUOUS
10
133.096
20
-91.4404
11
133.356
21
-91.4864
0
LINE
8
BLACK
6
CONTINUOUS
10
148.596
20
-91.4864
11
148.826
21
-91.6186
0
LINE
8
BLACK
6
CONTINUOUS
10
148.826
20
-91.6186
11
148.996
21
-91.8212
0
LINE
8
BLACK
6
CONTINUOUS
10
148.996
20
-91.8212
11
149.086
21
-92.0698
0
LINE
8
BLACK
6
CONTINUOUS
10
149.086
20
-92.0698
11
149.086
21
-92.3342
0
LINE
8
BLACK
6
CONTINUOUS
10
149.086
20
-92.3342
11
148.996
21
-92.5828
0
LINE
8
BLACK
6
CONTINUOUS
10
148.996
20
-92.5828
11
148.826
21
-92.7854
0
LINE
8
BLACK
6
CONTINUOUS
10
148.826
20
-92.7854
11
148.596
21
-92.9176
0
LINE
8
BLACK
6
CONTINUOUS
10
148.596
20
-92.9176
11
148.336
21
-92.9636
0
LINE
8
BLACK
6
CONTINUOUS
10
148.336
20
-92.9636
11
148.076
21
-92.9176
0
LINE
8
BLACK
6
CONTINUOUS
10
148.076
20
-92.9176
11
147.846
21
-92.7854
0
LINE
8
BLACK
6
CONTINUOUS
10
147.846
20
-92.7854
11
147.676
21
-92.5828
0
LINE
8
BLACK
6
CONTINUOUS
10
147.676
20
-92.5828
11
147.586
21
-92.3342
0
LINE
8
BLACK
6
CONTINUOUS
10
147.586
20
-92.3342
11
147.586
21
-92.0698
0
LINE
8
BLACK
6
CONTINUOUS
10
147.586
20
-92.0698
11
147.676
21
-91.8212
0
LINE
8
BLACK
6
CONTINUOUS
10
147.676
20
-91.8212
11
147.846
21
-91.6186
0
LINE
8
BLACK
6
CONTINUOUS
10
147.846
20
-91.6186
11
148.076
21
-91.4864
0
LINE
8
BLACK
6
CONTINUOUS
10
148.076
20
-91.4864
11
148.336
21
-91.4404
0
LINE
8
BLACK
6
CONTINUOUS
10
148.336
20
-91.4404
11
148.596
21
-91.4864
0
LINE
8
BLACK
6
CONTINUOUS
10
184.243
20
-89.7638
11
184.549
21
-89.9401
0
LINE
8
BLACK
6
CONTINUOUS
10
184.549
20
-89.9401
11
184.775
21
-90.2103
0
LINE
8
BLACK
6
CONTINUOUS
10
184.775
20
-90.2103
11
184.896
21
-90.5417
0
LINE
8
BLACK
6
CONTINUOUS
10
184.896
20
-90.5417
11
184.896
21
-90.8943
0
LINE
8
BLACK
6
CONTINUOUS
10
184.896
20
-90.8943
11
184.775
21
-91.2257
0
LINE
8
BLACK
6
CONTINUOUS
10
184.775
20
-91.2257
11
184.549
21
-91.4959
0
LINE
8
BLACK
6
CONTINUOUS
10
184.549
20
-91.4959
11
184.243
21
-91.6722
0
LINE
8
BLACK
6
CONTINUOUS
10
184.243
20
-91.6722
11
183.896
21
-91.7334
0
LINE
8
BLACK
6
CONTINUOUS
10
183.896
20
-91.7334
11
183.549
21
-91.6722
0
LINE
8
BLACK
6
CONTINUOUS
10
183.549
20
-91.6722
11
183.243
21
-91.4959
0
LINE
8
BLACK
6
CONTINUOUS
10
183.243
20
-91.4959
11
183.017
21
-91.2257
0
LINE
8
BLACK
6
CONTINUOUS
10
183.017
20
-91.2257
11
182.896
21
-90.8943
0
LINE
8
BLACK
6
CONTINUOUS
10
182.896
20
-90.8943
11
182.896
21
-90.5417
0
LINE
8
BLACK
6
CONTINUOUS
10
182.896
20
-90.5417
11
183.017
21
-90.2103
0
LINE
8
BLACK
6
CONTINUOUS
10
183.017
20
-90.2103
11
183.243
21
-89.9401
0
LINE
8
BLACK
6
CONTINUOUS
10
183.243
20
-89.9401
11
183.549
21
-89.7638
0
LINE
8
BLACK
6
CONTINUOUS
10
183.549
20
-89.7638
11
183.896
21
-89.7026
0
LINE
8
BLACK
6
CONTINUOUS
10
183.896
20
-89.7026
11
184.243
21
-89.7638
0
LINE
8
BLACK
6
CONTINUOUS
10
113.343
20
-88.8032
11
113.617
21
-88.9619
0
LINE
8
BLACK
6
CONTINUOUS
10
113.617
20
-88.9619
11
113.821
21
-89.2051
0
LINE
8
BLACK
6
CONTINUOUS
10
113.821
20
-89.2051
11
113.93
21
-89.5033
0
LINE
8
BLACK
6
CONTINUOUS
10
113.93
20
-89.5033
11
113.93
21
-89.8207
0
LINE
8
BLACK
6
CONTINUOUS
10
113.93
20
-89.8207
11
113.821
21
-90.1189
0
LINE
8
BLACK
6
CONTINUOUS
10
113.821
20
-90.1189
11
113.617
21
-90.3621
0
LINE
8
BLACK
6
CONTINUOUS
10
113.617
20
-90.3621
11
113.343
21
-90.5208
0
LINE
8
BLACK
6
CONTINUOUS
10
113.343
20
-90.5208
11
113.03
21
-90.5759
0
LINE
8
BLACK
6
CONTINUOUS
10
113.03
20
-90.5759
11
112.717
21
-90.5208
0
LINE
8
BLACK
6
CONTINUOUS
10
112.717
20
-90.5208
11
112.443
21
-90.3621
0
LINE
8
BLACK
6
CONTINUOUS
10
112.443
20
-90.3621
11
112.239
21
-90.1189
0
LINE
8
BLACK
6
CONTINUOUS
10
112.239
20
-90.1189
11
112.13
21
-89.8207
0
LINE
8
BLACK
6
CONTINUOUS
10
112.13
20
-89.8207
11
112.13
21
-89.5033
0
LINE
8
BLACK
6
CONTINUOUS
10
112.13
20
-89.5033
11
112.239
21
-89.2051
0
LINE
8
BLACK
6
CONTINUOUS
10
112.239
20
-89.2051
11
112.443
21
-88.9619
0
LINE
8
BLACK
6
CONTINUOUS
10
112.443
20
-88.9619
11
112.717
21
-88.8032
0
LINE
8
BLACK
6
CONTINUOUS
10
112.717
20
-88.8032
11
113.03
21
-88.7481
0
LINE
8
BLACK
6
CONTINUOUS
10
113.03
20
-88.7481
11
113.343
21
-88.8032
0
LINE
8
BLACK
6
CONTINUOUS
10
133.356
20
-88.9464
11
133.586
21
-89.0786
0
LINE
8
BLACK
6
CONTINUOUS
10
133.586
20
-89.0786
11
133.756
21
-89.2812
0
LINE
8
BLACK
6
CONTINUOUS
10
133.756
20
-89.2812
11
133.846
21
-89.5298
0
LINE
8
BLACK
6
CONTINUOUS
10
133.846
20
-89.5298
11
133.846
21
-89.7942
0
LINE
8
BLACK
6
CONTINUOUS
10
133.846
20
-89.7942
11
133.756
21
-90.0428
0
LINE
8
BLACK
6
CONTINUOUS
10
133.756
20
-90.0428
11
133.586
21
-90.2454
0
LINE
8
BLACK
6
CONTINUOUS
10
133.586
20
-90.2454
11
133.356
21
-90.3776
0
LINE
8
BLACK
6
CONTINUOUS
10
133.356
20
-90.3776
11
133.096
21
-90.4236
0
LINE
8
BLACK
6
CONTINUOUS
10
133.096
20
-90.4236
11
132.836
21
-90.3776
0
LINE
8
BLACK
6
CONTINUOUS
10
132.836
20
-90.3776
11
132.606
21
-90.2454
0
LINE
8
BLACK
6
CONTINUOUS
10
132.606
20
-90.2454
11
132.436
21
-90.0428
0
LINE
8
BLACK
6
CONTINUOUS
10
132.436
20
-90.0428
11
132.346
21
-89.7942
0
LINE
8
BLACK
6
CONTINUOUS
10
132.346
20
-89.7942
11
132.346
21
-89.5298
0
LINE
8
BLACK
6
CONTINUOUS
10
132.346
20
-89.5298
11
132.436
21
-89.2812
0
LINE
8
BLACK
6
CONTINUOUS
10
132.436
20
-89.2812
11
132.606
21
-89.0786
0
LINE
8
BLACK
6
CONTINUOUS
10
132.606
20
-89.0786
11
132.836
21
-88.9464
0
LINE
8
BLACK
6
CONTINUOUS
10
132.836
20
-88.9464
11
133.096
21
-88.9004
0
LINE
8
BLACK
6
CONTINUOUS
10
133.096
20
-88.9004
11
133.356
21
-88.9464
0
LINE
8
BLACK
6
CONTINUOUS
10
148.596
20
-88.9464
11
148.826
21
-89.0786
0
LINE
8
BLACK
6
CONTINUOUS
10
148.826
20
-89.0786
11
148.996
21
-89.2812
0
LINE
8
BLACK
6
CONTINUOUS
10
148.996
20
-89.2812
11
149.086
21
-89.5298
0
LINE
8
BLACK
6
CONTINUOUS
10
149.086
20
-89.5298
11
149.086
21
-89.7942
0
LINE
8
BLACK
6
CONTINUOUS
10
149.086
20
-89.7942
11
148.996
21
-90.0428
0
LINE
8
BLACK
6
CONTINUOUS
10
148.996
20
-90.0428
11
148.826
21
-90.2454
0
LINE
8
BLACK
6
CONTINUOUS
10
148.826
20
-90.2454
11
148.596
21
-90.3776
0
LINE
8
BLACK
6
CONTINUOUS
10
148.596
20
-90.3776
11
148.336
21
-90.4236
0
LINE
8
BLACK
6
CONTINUOUS
10
148.336
20
-90.4236
11
148.076
21
-90.3776
0
LINE
8
BLACK
6
CONTINUOUS
10
148.076
20
-90.3776
11
147.846
21
-90.2454
0
LINE
8
BLACK
6
CONTINUOUS
10
147.846
20
-90.2454
11
147.676
21
-90.0428
0
LINE
8
BLACK
6
CONTINUOUS
10
147.676
20
-90.0428
11
147.586
21
-89.7942
0
LINE
8
BLACK
6
CONTINUOUS
10
147.586
20
-89.7942
11
147.586
21
-89.5298
0
LINE
8
BLACK
6
CONTINUOUS
10
147.586
20
-89.5298
11
147.676
21
-89.2812
0
LINE
8
BLACK
6
CONTINUOUS
10
147.676
20
-89.2812
11
147.846
21
-89.0786
0
LINE
8
BLACK
6
CONTINUOUS
10
147.846
20
-89.0786
11
148.076
21
-88.9464
0
LINE
8
BLACK
6
CONTINUOUS
10
148.076
20
-88.9464
11
148.336
21
-88.9004
0
LINE
8
BLACK
6
CONTINUOUS
10
148.336
20
-88.9004
11
148.596
21
-88.9464
0
LINE
8
BLACK
6
CONTINUOUS
10
184.243
20
-87.2638
11
184.549
21
-87.4401
0
LINE
8
BLACK
6
CONTINUOUS
10
184.549
20
-87.4401
11
184.775
21
-87.7103
0
LINE
8
BLACK
6
CONTINUOUS
10
184.775
20
-87.7103
11
184.896
21
-88.0417
0
LINE
8
BLACK
6
CONTINUOUS
10
184.896
20
-88.0417
11
184.896
21
-88.3943
0
LINE
8
BLACK
6
CONTINUOUS
10
184.896
20
-88.3943
11
184.775
21
-88.7257
0
LINE
8
BLACK
6
CONTINUOUS
10
184.775
20
-88.7257
11
184.549
21
-88.9959
0
LINE
8
BLACK
6
CONTINUOUS
10
184.549
20
-88.9959
11
184.243
21
-89.1722
0
LINE
8
BLACK
6
CONTINUOUS
10
184.243
20
-89.1722
11
183.896
21
-89.2334
0
LINE
8
BLACK
6
CONTINUOUS
10
183.896
20
-89.2334
11
183.549
21
-89.1722
0
LINE
8
BLACK
6
CONTINUOUS
10
183.549
20
-89.1722
11
183.243
21
-88.9959
0
LINE
8
BLACK
6
CONTINUOUS
10
183.243
20
-88.9959
11
183.017
21
-88.7257
0
LINE
8
BLACK
6
CONTINUOUS
10
183.017
20
-88.7257
11
182.896
21
-88.3943
0
LINE
8
BLACK
6
CONTINUOUS
10
182.896
20
-88.3943
11
182.896
21
-88.0417
0
LINE
8
BLACK
6
CONTINUOUS
10
182.896
20
-88.0417
11
183.017
21
-87.7103
0
LINE
8
BLACK
6
CONTINUOUS
10
183.017
20
-87.7103
11
183.243
21
-87.4401
0
LINE
8
BLACK
6
CONTINUOUS
10
183.243
20
-87.4401
11
183.549
21
-87.2638
0
LINE
8
BLACK
6
CONTINUOUS
10
183.549
20
-87.2638
11
183.896
21
-87.2026
0
LINE
8
BLACK
6
CONTINUOUS
10
183.896
20
-87.2026
11
184.243
21
-87.2638
0
LINE
8
BLACK
6
CONTINUOUS
10
169.743
20
-87.2638
11
170.049
21
-87.4401
0
LINE
8
BLACK
6
CONTINUOUS
10
170.049
20
-87.4401
11
170.275
21
-87.7103
0
LINE
8
BLACK
6
CONTINUOUS
10
170.275
20
-87.7103
11
170.396
21
-88.0417
0
LINE
8
BLACK
6
CONTINUOUS
10
170.396
20
-88.0417
11
170.396
21
-88.3943
0
LINE
8
BLACK
6
CONTINUOUS
10
170.396
20
-88.3943
11
170.275
21
-88.7257
0
LINE
8
BLACK
6
CONTINUOUS
10
170.275
20
-88.7257
11
170.049
21
-88.9959
0
LINE
8
BLACK
6
CONTINUOUS
10
170.049
20
-88.9959
11
169.743
21
-89.1722
0
LINE
8
BLACK
6
CONTINUOUS
10
169.743
20
-89.1722
11
169.396
21
-89.2334
0
LINE
8
BLACK
6
CONTINUOUS
10
169.396
20
-89.2334
11
169.049
21
-89.1722
0
LINE
8
BLACK
6
CONTINUOUS
10
169.049
20
-89.1722
11
168.743
21
-88.9959
0
LINE
8
BLACK
6
CONTINUOUS
10
168.743
20
-88.9959
11
168.517
21
-88.7257
0
LINE
8
BLACK
6
CONTINUOUS
10
168.517
20
-88.7257
11
168.396
21
-88.3943
0
LINE
8
BLACK
6
CONTINUOUS
10
168.396
20
-88.3943
11
168.396
21
-88.0417
0
LINE
8
BLACK
6
CONTINUOUS
10
168.396
20
-88.0417
11
168.517
21
-87.7103
0
LINE
8
BLACK
6
CONTINUOUS
10
168.517
20
-87.7103
11
168.743
21
-87.4401
0
LINE
8
BLACK
6
CONTINUOUS
10
168.743
20
-87.4401
11
169.049
21
-87.2638
0
LINE
8
BLACK
6
CONTINUOUS
10
169.049
20
-87.2638
11
169.396
21
-87.2026
0
LINE
8
BLACK
6
CONTINUOUS
10
169.396
20
-87.2026
11
169.743
21
-87.2638
0
LINE
8
BLACK
6
CONTINUOUS
10
148.596
20
-86.4064
11
148.826
21
-86.5386
0
LINE
8
BLACK
6
CONTINUOUS
10
148.826
20
-86.5386
11
148.996
21
-86.7412
0
LINE
8
BLACK
6
CONTINUOUS
10
148.996
20
-86.7412
11
149.086
21
-86.9898
0
LINE
8
BLACK
6
CONTINUOUS
10
149.086
20
-86.9898
11
149.086
21
-87.2542
0
LINE
8
BLACK
6
CONTINUOUS
10
149.086
20
-87.2542
11
148.996
21
-87.5028
0
LINE
8
BLACK
6
CONTINUOUS
10
148.996
20
-87.5028
11
148.826
21
-87.7054
0
LINE
8
BLACK
6
CONTINUOUS
10
148.826
20
-87.7054
11
148.596
21
-87.8376
0
LINE
8
BLACK
6
CONTINUOUS
10
148.596
20
-87.8376
11
148.336
21
-87.8836
0
LINE
8
BLACK
6
CONTINUOUS
10
148.336
20
-87.8836
11
148.076
21
-87.8376
0
LINE
8
BLACK
6
CONTINUOUS
10
148.076
20
-87.8376
11
147.846
21
-87.7054
0
LINE
8
BLACK
6
CONTINUOUS
10
147.846
20
-87.7054
11
147.676
21
-87.5028
0
LINE
8
BLACK
6
CONTINUOUS
10
147.676
20
-87.5028
11
147.586
21
-87.2542
0
LINE
8
BLACK
6
CONTINUOUS
10
147.586
20
-87.2542
11
147.586
21
-86.9898
0
LINE
8
BLACK
6
CONTINUOUS
10
147.586
20
-86.9898
11
147.676
21
-86.7412
0
LINE
8
BLACK
6
CONTINUOUS
10
147.676
20
-86.7412
11
147.846
21
-86.5386
0
LINE
8
BLACK
6
CONTINUOUS
10
147.846
20
-86.5386
11
148.076
21
-86.4064
0
LINE
8
BLACK
6
CONTINUOUS
10
148.076
20
-86.4064
11
148.336
21
-86.3604
0
LINE
8
BLACK
6
CONTINUOUS
10
148.336
20
-86.3604
11
148.596
21
-86.4064
0
LINE
8
BLACK
6
CONTINUOUS
10
133.356
20
-86.4064
11
133.586
21
-86.5386
0
LINE
8
BLACK
6
CONTINUOUS
10
133.586
20
-86.5386
11
133.756
21
-86.7412
0
LINE
8
BLACK
6
CONTINUOUS
10
133.756
20
-86.7412
11
133.846
21
-86.9898
0
LINE
8
BLACK
6
CONTINUOUS
10
133.846
20
-86.9898
11
133.846
21
-87.2542
0
LINE
8
BLACK
6
CONTINUOUS
10
133.846
20
-87.2542
11
133.756
21
-87.5028
0
LINE
8
BLACK
6
CONTINUOUS
10
133.756
20
-87.5028
11
133.586
21
-87.7054
0
LINE
8
BLACK
6
CONTINUOUS
10
133.586
20
-87.7054
11
133.356
21
-87.8376
0
LINE
8
BLACK
6
CONTINUOUS
10
133.356
20
-87.8376
11
133.096
21
-87.8836
0
LINE
8
BLACK
6
CONTINUOUS
10
133.096
20
-87.8836
11
132.836
21
-87.8376
0
LINE
8
BLACK
6
CONTINUOUS
10
132.836
20
-87.8376
11
132.606
21
-87.7054
0
LINE
8
BLACK
6
CONTINUOUS
10
132.606
20
-87.7054
11
132.436
21
-87.5028
0
LINE
8
BLACK
6
CONTINUOUS
10
132.436
20
-87.5028
11
132.346
21
-87.2542
0
LINE
8
BLACK
6
CONTINUOUS
10
132.346
20
-87.2542
11
132.346
21
-86.9898
0
LINE
8
BLACK
6
CONTINUOUS
10
132.346
20
-86.9898
11
132.436
21
-86.7412
0
LINE
8
BLACK
6
CONTINUOUS
10
132.436
20
-86.7412
11
132.606
21
-86.5386
0
LINE
8
BLACK
6
CONTINUOUS
10
132.606
20
-86.5386
11
132.836
21
-86.4064
0
LINE
8
BLACK
6
CONTINUOUS
10
132.836
20
-86.4064
11
133.096
21
-86.3604
0
LINE
8
BLACK
6
CONTINUOUS
10
133.096
20
-86.3604
11
133.356
21
-86.4064
0
LINE
8
BLACK
6
CONTINUOUS
10
176.952
20
-83.5913
11
177.44
21
-83.8734
0
LINE
8
BLACK
6
CONTINUOUS
10
177.44
20
-83.8734
11
177.803
21
-84.3057
0
LINE
8
BLACK
6
CONTINUOUS
10
177.803
20
-84.3057
11
177.996
21
-84.8359
0
LINE
8
BLACK
6
CONTINUOUS
10
177.996
20
-84.8359
11
177.996
21
-85.4001
0
LINE
8
BLACK
6
CONTINUOUS
10
177.996
20
-85.4001
11
177.803
21
-85.9303
0
LINE
8
BLACK
6
CONTINUOUS
10
177.803
20
-85.9303
11
177.44
21
-86.3626
0
LINE
8
BLACK
6
CONTINUOUS
10
177.44
20
-86.3626
11
176.952
21
-86.6447
0
LINE
8
BLACK
6
CONTINUOUS
10
176.952
20
-86.6447
11
176.396
21
-86.7427
0
LINE
8
BLACK
6
CONTINUOUS
10
176.396
20
-86.7427
11
175.84
21
-86.6447
0
LINE
8
BLACK
6
CONTINUOUS
10
175.84
20
-86.6447
11
175.352
21
-86.3626
0
LINE
8
BLACK
6
CONTINUOUS
10
175.352
20
-86.3626
11
174.989
21
-85.9303
0
LINE
8
BLACK
6
CONTINUOUS
10
174.989
20
-85.9303
11
174.796
21
-85.4001
0
LINE
8
BLACK
6
CONTINUOUS
10
174.796
20
-85.4001
11
174.796
21
-84.8359
0
LINE
8
BLACK
6
CONTINUOUS
10
174.796
20
-84.8359
11
174.989
21
-84.3057
0
LINE
8
BLACK
6
CONTINUOUS
10
174.989
20
-84.3057
11
175.352
21
-83.8734
0
LINE
8
BLACK
6
CONTINUOUS
10
175.352
20
-83.8734
11
175.84
21
-83.5913
0
LINE
8
BLACK
6
CONTINUOUS
10
175.84
20
-83.5913
11
176.396
21
-83.4933
0
LINE
8
BLACK
6
CONTINUOUS
10
176.396
20
-83.4933
11
176.952
21
-83.5913
0
LINE
8
BLACK
6
CONTINUOUS
10
148.596
20
-83.8664
11
148.826
21
-83.9986
0
LINE
8
BLACK
6
CONTINUOUS
10
148.826
20
-83.9986
11
148.996
21
-84.2012
0
LINE
8
BLACK
6
CONTINUOUS
10
148.996
20
-84.2012
11
149.086
21
-84.4498
0
LINE
8
BLACK
6
CONTINUOUS
10
149.086
20
-84.4498
11
149.086
21
-84.7142
0
LINE
8
BLACK
6
CONTINUOUS
10
149.086
20
-84.7142
11
148.996
21
-84.9628
0
LINE
8
BLACK
6
CONTINUOUS
10
148.996
20
-84.9628
11
148.826
21
-85.1654
0
LINE
8
BLACK
6
CONTINUOUS
10
148.826
20
-85.1654
11
148.596
21
-85.2976
0
LINE
8
BLACK
6
CONTINUOUS
10
148.596
20
-85.2976
11
148.336
21
-85.3436
0
LINE
8
BLACK
6
CONTINUOUS
10
148.336
20
-85.3436
11
148.076
21
-85.2976
0
LINE
8
BLACK
6
CONTINUOUS
10
148.076
20
-85.2976
11
147.846
21
-85.1654
0
LINE
8
BLACK
6
CONTINUOUS
10
147.846
20
-85.1654
11
147.676
21
-84.9628
0
LINE
8
BLACK
6
CONTINUOUS
10
147.676
20
-84.9628
11
147.586
21
-84.7142
0
LINE
8
BLACK
6
CONTINUOUS
10
147.586
20
-84.7142
11
147.586
21
-84.4498
0
LINE
8
BLACK
6
CONTINUOUS
10
147.586
20
-84.4498
11
147.676
21
-84.2012
0
LINE
8
BLACK
6
CONTINUOUS
10
147.676
20
-84.2012
11
147.846
21
-83.9986
0
LINE
8
BLACK
6
CONTINUOUS
10
147.846
20
-83.9986
11
148.076
21
-83.8664
0
LINE
8
BLACK
6
CONTINUOUS
10
148.076
20
-83.8664
11
148.336
21
-83.8204
0
LINE
8
BLACK
6
CONTINUOUS
10
148.336
20
-83.8204
11
148.596
21
-83.8664
0
LINE
8
BLACK
6
CONTINUOUS
10
133.846
20
-85.332
11
132.346
21
-85.332
0
LINE
8
BLACK
6
CONTINUOUS
10
132.346
20
-85.332
11
132.346
21
-83.832
0
LINE
8
BLACK
6
CONTINUOUS
10
132.346
20
-83.832
11
133.846
21
-83.832
0
LINE
8
BLACK
6
CONTINUOUS
10
133.846
20
-83.832
11
133.846
21
-85.332
0
LINE
8
BLACK
6
CONTINUOUS
10
113.93
20
-84.466
11
112.13
21
-84.466
0
LINE
8
BLACK
6
CONTINUOUS
10
112.13
20
-84.466
11
112.13
21
-82.666
0
LINE
8
BLACK
6
CONTINUOUS
10
112.13
20
-82.666
11
113.93
21
-82.666
0
LINE
8
BLACK
6
CONTINUOUS
10
113.93
20
-82.666
11
113.93
21
-84.466
0
LINE
8
BLACK
6
CONTINUOUS
10
193.791
20
-79.9998
11
194.097
21
-80.1761
0
LINE
8
BLACK
6
CONTINUOUS
10
194.097
20
-80.1761
11
194.323
21
-80.4463
0
LINE
8
BLACK
6
CONTINUOUS
10
194.323
20
-80.4463
11
194.444
21
-80.7777
0
LINE
8
BLACK
6
CONTINUOUS
10
194.444
20
-80.7777
11
194.444
21
-81.1303
0
LINE
8
BLACK
6
CONTINUOUS
10
194.444
20
-81.1303
11
194.323
21
-81.4617
0
LINE
8
BLACK
6
CONTINUOUS
10
194.323
20
-81.4617
11
194.097
21
-81.7319
0
LINE
8
BLACK
6
CONTINUOUS
10
194.097
20
-81.7319
11
193.791
21
-81.9082
0
LINE
8
BLACK
6
CONTINUOUS
10
193.791
20
-81.9082
11
193.444
21
-81.9694
0
LINE
8
BLACK
6
CONTINUOUS
10
193.444
20
-81.9694
11
193.097
21
-81.9082
0
LINE
8
BLACK
6
CONTINUOUS
10
193.097
20
-81.9082
11
192.791
21
-81.7319
0
LINE
8
BLACK
6
CONTINUOUS
10
192.791
20
-81.7319
11
192.565
21
-81.4617
0
LINE
8
BLACK
6
CONTINUOUS
10
192.565
20
-81.4617
11
192.444
21
-81.1303
0
LINE
8
BLACK
6
CONTINUOUS
10
192.444
20
-81.1303
11
192.444
21
-80.7777
0
LINE
8
BLACK
6
CONTINUOUS
10
192.444
20
-80.7777
11
192.565
21
-80.4463
0
LINE
8
BLACK
6
CONTINUOUS
10
192.565
20
-80.4463
11
192.791
21
-80.1761
0
LINE
8
BLACK
6
CONTINUOUS
10
192.791
20
-80.1761
11
193.097
21
-79.9998
0
LINE
8
BLACK
6
CONTINUOUS
10
193.097
20
-79.9998
11
193.444
21
-79.9386
0
LINE
8
BLACK
6
CONTINUOUS
10
193.444
20
-79.9386
11
193.791
21
-79.9998
0
LINE
8
BLACK
6
CONTINUOUS
10
187.291
20
-79.9998
11
187.597
21
-80.1761
0
LINE
8
BLACK
6
CONTINUOUS
10
187.597
20
-80.1761
11
187.823
21
-80.4463
0
LINE
8
BLACK
6
CONTINUOUS
10
187.823
20
-80.4463
11
187.944
21
-80.7777
0
LINE
8
BLACK
6
CONTINUOUS
10
187.944
20
-80.7777
11
187.944
21
-81.1303
0
LINE
8
BLACK
6
CONTINUOUS
10
187.944
20
-81.1303
11
187.823
21
-81.4617
0
LINE
8
BLACK
6
CONTINUOUS
10
187.823
20
-81.4617
11
187.597
21
-81.7319
0
LINE
8
BLACK
6
CONTINUOUS
10
187.597
20
-81.7319
11
187.291
21
-81.9082
0
LINE
8
BLACK
6
CONTINUOUS
10
187.291
20
-81.9082
11
186.944
21
-81.9694
0
LINE
8
BLACK
6
CONTINUOUS
10
186.944
20
-81.9694
11
186.597
21
-81.9082
0
LINE
8
BLACK
6
CONTINUOUS
10
186.597
20
-81.9082
11
186.291
21
-81.7319
0
LINE
8
BLACK
6
CONTINUOUS
10
186.291
20
-81.7319
11
186.065
21
-81.4617
0
LINE
8
BLACK
6
CONTINUOUS
10
186.065
20
-81.4617
11
185.944
21
-81.1303
0
LINE
8
BLACK
6
CONTINUOUS
10
185.944
20
-81.1303
11
185.944
21
-80.7777
0
LINE
8
BLACK
6
CONTINUOUS
10
185.944
20
-80.7777
11
186.065
21
-80.4463
0
LINE
8
BLACK
6
CONTINUOUS
10
186.065
20
-80.4463
11
186.291
21
-80.1761
0
LINE
8
BLACK
6
CONTINUOUS
10
186.291
20
-80.1761
11
186.597
21
-79.9998
0
LINE
8
BLACK
6
CONTINUOUS
10
186.597
20
-79.9998
11
186.944
21
-79.9386
0
LINE
8
BLACK
6
CONTINUOUS
10
186.944
20
-79.9386
11
187.291
21
-79.9998
0
LINE
8
BLACK
6
CONTINUOUS
10
113.343
20
-80.1672
11
113.617
21
-80.3259
0
LINE
8
BLACK
6
CONTINUOUS
10
113.617
20
-80.3259
11
113.821
21
-80.5691
0
LINE
8
BLACK
6
CONTINUOUS
10
113.821
20
-80.5691
11
113.93
21
-80.8673
0
LINE
8
BLACK
6
CONTINUOUS
10
113.93
20
-80.8673
11
113.93
21
-81.1847
0
LINE
8
BLACK
6
CONTINUOUS
10
113.93
20
-81.1847
11
113.821
21
-81.4829
0
LINE
8
BLACK
6
CONTINUOUS
10
113.821
20
-81.4829
11
113.617
21
-81.7261
0
LINE
8
BLACK
6
CONTINUOUS
10
113.617
20
-81.7261
11
113.343
21
-81.8848
0
LINE
8
BLACK
6
CONTINUOUS
10
113.343
20
-81.8848
11
113.03
21
-81.9399
0
LINE
8
BLACK
6
CONTINUOUS
10
113.03
20
-81.9399
11
112.717
21
-81.8848
0
LINE
8
BLACK
6
CONTINUOUS
10
112.717
20
-81.8848
11
112.443
21
-81.7261
0
LINE
8
BLACK
6
CONTINUOUS
10
112.443
20
-81.7261
11
112.239
21
-81.4829
0
LINE
8
BLACK
6
CONTINUOUS
10
112.239
20
-81.4829
11
112.13
21
-81.1847
0
LINE
8
BLACK
6
CONTINUOUS
10
112.13
20
-81.1847
11
112.13
21
-80.8673
0
LINE
8
BLACK
6
CONTINUOUS
10
112.13
20
-80.8673
11
112.239
21
-80.5691
0
LINE
8
BLACK
6
CONTINUOUS
10
112.239
20
-80.5691
11
112.443
21
-80.3259
0
LINE
8
BLACK
6
CONTINUOUS
10
112.443
20
-80.3259
11
112.717
21
-80.1672
0
LINE
8
BLACK
6
CONTINUOUS
10
112.717
20
-80.1672
11
113.03
21
-80.1121
0
LINE
8
BLACK
6
CONTINUOUS
10
113.03
20
-80.1121
11
113.343
21
-80.1672
0
LINE
8
BLACK
6
CONTINUOUS
10
193.791
20
-75.4998
11
194.097
21
-75.6761
0
LINE
8
BLACK
6
CONTINUOUS
10
194.097
20
-75.6761
11
194.323
21
-75.9463
0
LINE
8
BLACK
6
CONTINUOUS
10
194.323
20
-75.9463
11
194.444
21
-76.2777
0
LINE
8
BLACK
6
CONTINUOUS
10
194.444
20
-76.2777
11
194.444
21
-76.6303
0
LINE
8
BLACK
6
CONTINUOUS
10
194.444
20
-76.6303
11
194.323
21
-76.9617
0
LINE
8
BLACK
6
CONTINUOUS
10
194.323
20
-76.9617
11
194.097
21
-77.2319
0
LINE
8
BLACK
6
CONTINUOUS
10
194.097
20
-77.2319
11
193.791
21
-77.4082
0
LINE
8
BLACK
6
CONTINUOUS
10
193.791
20
-77.4082
11
193.444
21
-77.4694
0
LINE
8
BLACK
6
CONTINUOUS
10
193.444
20
-77.4694
11
193.097
21
-77.4082
0
LINE
8
BLACK
6
CONTINUOUS
10
193.097
20
-77.4082
11
192.791
21
-77.2319
0
LINE
8
BLACK
6
CONTINUOUS
10
192.791
20
-77.2319
11
192.565
21
-76.9617
0
LINE
8
BLACK
6
CONTINUOUS
10
192.565
20
-76.9617
11
192.444
21
-76.6303
0
LINE
8
BLACK
6
CONTINUOUS
10
192.444
20
-76.6303
11
192.444
21
-76.2777
0
LINE
8
BLACK
6
CONTINUOUS
10
192.444
20
-76.2777
11
192.565
21
-75.9463
0
LINE
8
BLACK
6
CONTINUOUS
10
192.565
20
-75.9463
11
192.791
21
-75.6761
0
LINE
8
BLACK
6
CONTINUOUS
10
192.791
20
-75.6761
11
193.097
21
-75.4998
0
LINE
8
BLACK
6
CONTINUOUS
10
193.097
20
-75.4998
11
193.444
21
-75.4386
0
LINE
8
BLACK
6
CONTINUOUS
10
193.444
20
-75.4386
11
193.791
21
-75.4998
0
LINE
8
BLACK
6
CONTINUOUS
10
187.291
20
-75.4998
11
187.597
21
-75.6761
0
LINE
8
BLACK
6
CONTINUOUS
10
187.597
20
-75.6761
11
187.823
21
-75.9463
0
LINE
8
BLACK
6
CONTINUOUS
10
187.823
20
-75.9463
11
187.944
21
-76.2777
0
LINE
8
BLACK
6
CONTINUOUS
10
187.944
20
-76.2777
11
187.944
21
-76.6303
0
LINE
8
BLACK
6
CONTINUOUS
10
187.944
20
-76.6303
11
187.823
21
-76.9617
0
LINE
8
BLACK
6
CONTINUOUS
10
187.823
20
-76.9617
11
187.597
21
-77.2319
0
LINE
8
BLACK
6
CONTINUOUS
10
187.597
20
-77.2319
11
187.291
21
-77.4082
0
LINE
8
BLACK
6
CONTINUOUS
10
187.291
20
-77.4082
11
186.944
21
-77.4694
0
LINE
8
BLACK
6
CONTINUOUS
10
186.944
20
-77.4694
11
186.597
21
-77.4082
0
LINE
8
BLACK
6
CONTINUOUS
10
186.597
20
-77.4082
11
186.291
21
-77.2319
0
LINE
8
BLACK
6
CONTINUOUS
10
186.291
20
-77.2319
11
186.065
21
-76.9617
0
LINE
8
BLACK
6
CONTINUOUS
10
186.065
20
-76.9617
11
185.944
21
-76.6303
0
LINE
8
BLACK
6
CONTINUOUS
10
185.944
20
-76.6303
11
185.944
21
-76.2777
0
LINE
8
BLACK
6
CONTINUOUS
10
185.944
20
-76.2777
11
186.065
21
-75.9463
0
LINE
8
BLACK
6
CONTINUOUS
10
186.065
20
-75.9463
11
186.291
21
-75.6761
0
LINE
8
BLACK
6
CONTINUOUS
10
186.291
20
-75.6761
11
186.597
21
-75.4998
0
LINE
8
BLACK
6
CONTINUOUS
10
186.597
20
-75.4998
11
186.944
21
-75.4386
0
LINE
8
BLACK
6
CONTINUOUS
10
186.944
20
-75.4386
11
187.291
21
-75.4998
0
LINE
8
BLACK
6
CONTINUOUS
10
193.791
20
-72.3798
11
194.097
21
-72.5561
0
LINE
8
BLACK
6
CONTINUOUS
10
194.097
20
-72.5561
11
194.323
21
-72.8263
0
LINE
8
BLACK
6
CONTINUOUS
10
194.323
20
-72.8263
11
194.444
21
-73.1577
0
LINE
8
BLACK
6
CONTINUOUS
10
194.444
20
-73.1577
11
194.444
21
-73.5103
0
LINE
8
BLACK
6
CONTINUOUS
10
194.444
20
-73.5103
11
194.323
21
-73.8417
0
LINE
8
BLACK
6
CONTINUOUS
10
194.323
20
-73.8417
11
194.097
21
-74.1119
0
LINE
8
BLACK
6
CONTINUOUS
10
194.097
20
-74.1119
11
193.791
21
-74.2882
0
LINE
8
BLACK
6
CONTINUOUS
10
193.791
20
-74.2882
11
193.444
21
-74.3494
0
LINE
8
BLACK
6
CONTINUOUS
10
193.444
20
-74.3494
11
193.097
21
-74.2882
0
LINE
8
BLACK
6
CONTINUOUS
10
193.097
20
-74.2882
11
192.791
21
-74.1119
0
LINE
8
BLACK
6
CONTINUOUS
10
192.791
20
-74.1119
11
192.565
21
-73.8417
0
LINE
8
BLACK
6
CONTINUOUS
10
192.565
20
-73.8417
11
192.444
21
-73.5103
0
LINE
8
BLACK
6
CONTINUOUS
10
192.444
20
-73.5103
11
192.444
21
-73.1577
0
LINE
8
BLACK
6
CONTINUOUS
10
192.444
20
-73.1577
11
192.565
21
-72.8263
0
LINE
8
BLACK
6
CONTINUOUS
10
192.565
20
-72.8263
11
192.791
21
-72.5561
0
LINE
8
BLACK
6
CONTINUOUS
10
192.791
20
-72.5561
11
193.097
21
-72.3798
0
LINE
8
BLACK
6
CONTINUOUS
10
193.097
20
-72.3798
11
193.444
21
-72.3186
0
LINE
8
BLACK
6
CONTINUOUS
10
193.444
20
-72.3186
11
193.791
21
-72.3798
0
LINE
8
BLACK
6
CONTINUOUS
10
187.291
20
-72.3798
11
187.597
21
-72.5561
0
LINE
8
BLACK
6
CONTINUOUS
10
187.597
20
-72.5561
11
187.823
21
-72.8263
0
LINE
8
BLACK
6
CONTINUOUS
10
187.823
20
-72.8263
11
187.944
21
-73.1577
0
LINE
8
BLACK
6
CONTINUOUS
10
187.944
20
-73.1577
11
187.944
21
-73.5103
0
LINE
8
BLACK
6
CONTINUOUS
10
187.944
20
-73.5103
11
187.823
21
-73.8417
0
LINE
8
BLACK
6
CONTINUOUS
10
187.823
20
-73.8417
11
187.597
21
-74.1119
0
LINE
8
BLACK
6
CONTINUOUS
10
187.597
20
-74.1119
11
187.291
21
-74.2882
0
LINE
8
BLACK
6
CONTINUOUS
10
187.291
20
-74.2882
11
186.944
21
-74.3494
0
LINE
8
BLACK
6
CONTINUOUS
10
186.944
20
-74.3494
11
186.597
21
-74.2882
0
LINE
8
BLACK
6
CONTINUOUS
10
186.597
20
-74.2882
11
186.291
21
-74.1119
0
LINE
8
BLACK
6
CONTINUOUS
10
186.291
20
-74.1119
11
186.065
21
-73.8417
0
LINE
8
BLACK
6
CONTINUOUS
10
186.065
20
-73.8417
11
185.944
21
-73.5103
0
LINE
8
BLACK
6
CONTINUOUS
10
185.944
20
-73.5103
11
185.944
21
-73.1577
0
LINE
8
BLACK
6
CONTINUOUS
10
185.944
20
-73.1577
11
186.065
21
-72.8263
0
LINE
8
BLACK
6
CONTINUOUS
10
186.065
20
-72.8263
11
186.291
21
-72.5561
0
LINE
8
BLACK
6
CONTINUOUS
10
186.291
20
-72.5561
11
186.597
21
-72.3798
0
LINE
8
BLACK
6
CONTINUOUS
10
186.597
20
-72.3798
11
186.944
21
-72.3186
0
LINE
8
BLACK
6
CONTINUOUS
10
186.944
20
-72.3186
11
187.291
21
-72.3798
0
LINE
8
BLACK
6
CONTINUOUS
10
193.791
20
-67.8798
11
194.097
21
-68.0561
0
LINE
8
BLACK
6
CONTINUOUS
10
194.097
20
-68.0561
11
194.323
21
-68.3263
0
LINE
8
BLACK
6
CONTINUOUS
10
194.323
20
-68.3263
11
194.444
21
-68.6577
0
LINE
8
BLACK
6
CONTINUOUS
10
194.444
20
-68.6577
11
194.444
21
-69.0103
0
LINE
8
BLACK
6
CONTINUOUS
10
194.444
20
-69.0103
11
194.323
21
-69.3417
0
LINE
8
BLACK
6
CONTINUOUS
10
194.323
20
-69.3417
11
194.097
21
-69.6119
0
LINE
8
BLACK
6
CONTINUOUS
10
194.097
20
-69.6119
11
193.791
21
-69.7882
0
LINE
8
BLACK
6
CONTINUOUS
10
193.791
20
-69.7882
11
193.444
21
-69.8494
0
LINE
8
BLACK
6
CONTINUOUS
10
193.444
20
-69.8494
11
193.097
21
-69.7882
0
LINE
8
BLACK
6
CONTINUOUS
10
193.097
20
-69.7882
11
192.791
21
-69.6119
0
LINE
8
BLACK
6
CONTINUOUS
10
192.791
20
-69.6119
11
192.565
21
-69.3417
0
LINE
8
BLACK
6
CONTINUOUS
10
192.565
20
-69.3417
11
192.444
21
-69.0103
0
LINE
8
BLACK
6
CONTINUOUS
10
192.444
20
-69.0103
11
192.444
21
-68.6577
0
LINE
8
BLACK
6
CONTINUOUS
10
192.444
20
-68.6577
11
192.565
21
-68.3263
0
LINE
8
BLACK
6
CONTINUOUS
10
192.565
20
-68.3263
11
192.791
21
-68.0561
0
LINE
8
BLACK
6
CONTINUOUS
10
192.791
20
-68.0561
11
193.097
21
-67.8798
0
LINE
8
BLACK
6
CONTINUOUS
10
193.097
20
-67.8798
11
193.444
21
-67.8186
0
LINE
8
BLACK
6
CONTINUOUS
10
193.444
20
-67.8186
11
193.791
21
-67.8798
0
LINE
8
BLACK
6
CONTINUOUS
10
187.291
20
-67.8798
11
187.597
21
-68.0561
0
LINE
8
BLACK
6
CONTINUOUS
10
187.597
20
-68.0561
11
187.823
21
-68.3263
0
LINE
8
BLACK
6
CONTINUOUS
10
187.823
20
-68.3263
11
187.944
21
-68.6577
0
LINE
8
BLACK
6
CONTINUOUS
10
187.944
20
-68.6577
11
187.944
21
-69.0103
0
LINE
8
BLACK
6
CONTINUOUS
10
187.944
20
-69.0103
11
187.823
21
-69.3417
0
LINE
8
BLACK
6
CONTINUOUS
10
187.823
20
-69.3417
11
187.597
21
-69.6119
0
LINE
8
BLACK
6
CONTINUOUS
10
187.597
20
-69.6119
11
187.291
21
-69.7882
0
LINE
8
BLACK
6
CONTINUOUS
10
187.291
20
-69.7882
11
186.944
21
-69.8494
0
LINE
8
BLACK
6
CONTINUOUS
10
186.944
20
-69.8494
11
186.597
21
-69.7882
0
LINE
8
BLACK
6
CONTINUOUS
10
186.597
20
-69.7882
11
186.291
21
-69.6119
0
LINE
8
BLACK
6
CONTINUOUS
10
186.291
20
-69.6119
11
186.065
21
-69.3417
0
LINE
8
BLACK
6
CONTINUOUS
10
186.065
20
-69.3417
11
185.944
21
-69.0103
0
LINE
8
BLACK
6
CONTINUOUS
10
185.944
20
-69.0103
11
185.944
21
-68.6577
0
LINE
8
BLACK
6
CONTINUOUS
10
185.944
20
-68.6577
11
186.065
21
-68.3263
0
LINE
8
BLACK
6
CONTINUOUS
10
186.065
20
-68.3263
11
186.291
21
-68.0561
0
LINE
8
BLACK
6
CONTINUOUS
10
186.291
20
-68.0561
11
186.597
21
-67.8798
0
LINE
8
BLACK
6
CONTINUOUS
10
186.597
20
-67.8798
11
186.944
21
-67.8186
0
LINE
8
BLACK
6
CONTINUOUS
10
186.944
20
-67.8186
11
187.291
21
-67.8798
  0
ENDSEC
  0
EOF
