  0
SECTION
  2
HEADER
  9
$ANGBASE
  50
0.0
  9
$ANGDIR
  70
  1
  9
$MEASUREMENT
  70
0
  0
ENDSEC
  0
SECTION
  2
TABLES
  0
TABLE
  2
LTYPE
  70
4
  0
LTYPE
  5
40F
  2
CONTINUOUS
  70
0
  3
Solid line
  72
65
  73
0
  40
0.0
  0
LTYPE
  5
410
  2
DASHDOT
 70
0
  3
Dash Dot ____ _ ____ _
 72
65
 73
4
 40
2.0
 49
1.25
 49
-0.25
 49
0.25
 49
-0.25
  0
LTYPE
  5
411
  2
DASHED
 70
0
  3
Dashed __ __ __ __ __
 72
65
 73
2
 40
0.75
 49
0.5
 49
-0.25
  0
LTYPE
  5
43B
  2
DOTTED
 70
0
  3
Dotted .  .  .  .
 72
65
 73
2
 40
0.2
 49
0.0
 49
-0.2
  0
ENDTAB
  0
TABLE
  2
STYLE
  70
4
  0
STYLE
  2
KICAD
  70
0
  40
0
  41
1
  42
1
  50
0
  71
0
  3
isocp.shx
  0
STYLE
  2
KICADB
  70
0
  40
0
  41
1
  42
1
  50
0
  71
0
  3
isocp.shx
  0
STYLE
  2
KICADI
  70
0
  40
0
  41
1
  42
1
  50
15
  71
0
  3
isocp.shx
  0
STYLE
  2
KICADBI
  70
0
  40
0
  41
1
  42
1
  50
15
  71
0
  3
isocp.shx
  0
ENDTAB
  0
TABLE
  2
LAYER
  70
30
  0
LAYER
  2
BLACK
  70
0
  62
7
  6
CONTINUOUS
  0
LAYER
  2
GRAY1
  70
0
  62
251
  6
CONTINUOUS
  0
LAYER
  2
GRAY2
  70
0
  62
8
  6
CONTINUOUS
  0
LAYER
  2
GRAY3
  70
0
  62
9
  6
CONTINUOUS
  0
LAYER
  2
WHITE
  70
0
  62
7
  6
CONTINUOUS
  0
LAYER
  2
LYELLOW
  70
0
  62
51
  6
CONTINUOUS
  0
LAYER
  2
BLUE1
  70
0
  62
178
  6
CONTINUOUS
  0
LAYER
  2
GREEN1
  70
0
  62
98
  6
CONTINUOUS
  0
LAYER
  2
CYAN1
  70
0
  62
138
  6
CONTINUOUS
  0
LAYER
  2
RED1
  70
0
  62
18
  6
CONTINUOUS
  0
LAYER
  2
MAGENTA1
  70
0
  62
228
  6
CONTINUOUS
  0
LAYER
  2
BROWN1
  70
0
  62
58
  6
CONTINUOUS
  0
LAYER
  2
BLUE2
  70
0
  62
5
  6
CONTINUOUS
  0
LAYER
  2
GREEN2
  70
0
  62
3
  6
CONTINUOUS
  0
LAYER
  2
CYAN2
  70
0
  62
4
  6
CONTINUOUS
  0
LAYER
  2
RED2
  70
0
  62
1
  6
CONTINUOUS
  0
LAYER
  2
MAGENTA2
  70
0
  62
6
  6
CONTINUOUS
  0
LAYER
  2
BROWN2
  70
0
  62
54
  6
CONTINUOUS
  0
LAYER
  2
BLUE3
  70
0
  62
171
  6
CONTINUOUS
  0
LAYER
  2
GREEN3
  70
0
  62
91
  6
CONTINUOUS
  0
LAYER
  2
CYAN3
  70
0
  62
131
  6
CONTINUOUS
  0
LAYER
  2
RED3
  70
0
  62
11
  6
CONTINUOUS
  0
LAYER
  2
MAGENTA3
  70
0
  62
221
  6
CONTINUOUS
  0
LAYER
  2
YELLOW3
  70
0
  62
2
  6
CONTINUOUS
  0
LAYER
  2
BLUE4
  70
0
  62
5
  6
CONTINUOUS
  0
LAYER
  2
GREEN4
  70
0
  62
3
  6
CONTINUOUS
  0
LAYER
  2
CYAN4
  70
0
  62
4
  6
CONTINUOUS
  0
LAYER
  2
RED4
  70
0
  62
1
  6
CONTINUOUS
  0
LAYER
  2
MAGENTA4
  70
0
  62
6
  6
CONTINUOUS
  0
LAYER
  2
YELLOW4
  70
0
  62
2
  6
CONTINUOUS
  0
ENDTAB
  0
ENDSEC
  0
SECTION
  2
ENTITIES
0
LINE
8
BLACK
6
CONTINUOUS
10
63.4891
20
-76.8021
11
63.7029
21
-76.9255
0
LINE
8
BLACK
6
CONTINUOUS
10
63.7029
20
-76.9255
11
63.8616
21
-77.1146
0
LINE
8
BLACK
6
CONTINUOUS
10
63.8616
20
-77.1146
11
63.946
21
-77.3466
0
LINE
8
BLACK
6
CONTINUOUS
10
63.946
20
-77.3466
11
63.946
21
-77.5934
0
LINE
8
BLACK
6
CONTINUOUS
10
63.946
20
-77.5934
11
63.8616
21
-77.8254
0
LINE
8
BLACK
6
CONTINUOUS
10
63.8616
20
-77.8254
11
63.7029
21
-78.0145
0
LINE
8
BLACK
6
CONTINUOUS
10
63.7029
20
-78.0145
11
63.4891
21
-78.1379
0
LINE
8
BLACK
6
CONTINUOUS
10
63.4891
20
-78.1379
11
63.246
21
-78.1808
0
LINE
8
BLACK
6
CONTINUOUS
10
63.246
20
-78.1808
11
63.0029
21
-78.1379
0
LINE
8
BLACK
6
CONTINUOUS
10
63.0029
20
-78.1379
11
62.7891
21
-78.0145
0
LINE
8
BLACK
6
CONTINUOUS
10
62.7891
20
-78.0145
11
62.6304
21
-77.8254
0
LINE
8
BLACK
6
CONTINUOUS
10
62.6304
20
-77.8254
11
62.546
21
-77.5934
0
LINE
8
BLACK
6
CONTINUOUS
10
62.546
20
-77.5934
11
62.546
21
-77.3466
0
LINE
8
BLACK
6
CONTINUOUS
10
62.546
20
-77.3466
11
62.6304
21
-77.1146
0
LINE
8
BLACK
6
CONTINUOUS
10
62.6304
20
-77.1146
11
62.7891
21
-76.9255
0
LINE
8
BLACK
6
CONTINUOUS
10
62.7891
20
-76.9255
11
63.0029
21
-76.8021
0
LINE
8
BLACK
6
CONTINUOUS
10
63.0029
20
-76.8021
11
63.246
21
-76.7592
0
LINE
8
BLACK
6
CONTINUOUS
10
63.246
20
-76.7592
11
63.4891
21
-76.8021
0
LINE
8
BLACK
6
CONTINUOUS
10
43.308
20
-75.1504
11
43.644
21
-75.3444
0
LINE
8
BLACK
6
CONTINUOUS
10
43.644
20
-75.3444
11
43.8933
21
-75.6415
0
LINE
8
BLACK
6
CONTINUOUS
10
43.8933
20
-75.6415
11
44.026
21
-76.006
0
LINE
8
BLACK
6
CONTINUOUS
10
44.026
20
-76.006
11
44.026
21
-76.394
0
LINE
8
BLACK
6
CONTINUOUS
10
44.026
20
-76.394
11
43.8933
21
-76.7585
0
LINE
8
BLACK
6
CONTINUOUS
10
43.8933
20
-76.7585
11
43.644
21
-77.0556
0
LINE
8
BLACK
6
CONTINUOUS
10
43.644
20
-77.0556
11
43.308
21
-77.2496
0
LINE
8
BLACK
6
CONTINUOUS
10
43.308
20
-77.2496
11
42.926
21
-77.317
0
LINE
8
BLACK
6
CONTINUOUS
10
42.926
20
-77.317
11
42.544
21
-77.2496
0
LINE
8
BLACK
6
CONTINUOUS
10
42.544
20
-77.2496
11
42.208
21
-77.0556
0
LINE
8
BLACK
6
CONTINUOUS
10
42.208
20
-77.0556
11
41.9587
21
-76.7585
0
LINE
8
BLACK
6
CONTINUOUS
10
41.9587
20
-76.7585
11
41.826
21
-76.394
0
LINE
8
BLACK
6
CONTINUOUS
10
41.826
20
-76.394
11
41.826
21
-76.006
0
LINE
8
BLACK
6
CONTINUOUS
10
41.826
20
-76.006
11
41.9587
21
-75.6415
0
LINE
8
BLACK
6
CONTINUOUS
10
41.9587
20
-75.6415
11
42.208
21
-75.3444
0
LINE
8
BLACK
6
CONTINUOUS
10
42.208
20
-75.3444
11
42.544
21
-75.1504
0
LINE
8
BLACK
6
CONTINUOUS
10
42.544
20
-75.1504
11
42.926
21
-75.083
0
LINE
8
BLACK
6
CONTINUOUS
10
42.926
20
-75.083
11
43.308
21
-75.1504
0
LINE
8
BLACK
6
CONTINUOUS
10
91.568
20
-75.1504
11
91.904
21
-75.3444
0
LINE
8
BLACK
6
CONTINUOUS
10
91.904
20
-75.3444
11
92.1533
21
-75.6415
0
LINE
8
BLACK
6
CONTINUOUS
10
92.1533
20
-75.6415
11
92.286
21
-76.006
0
LINE
8
BLACK
6
CONTINUOUS
10
92.286
20
-76.006
11
92.286
21
-76.394
0
LINE
8
BLACK
6
CONTINUOUS
10
92.286
20
-76.394
11
92.1533
21
-76.7585
0
LINE
8
BLACK
6
CONTINUOUS
10
92.1533
20
-76.7585
11
91.904
21
-77.0556
0
LINE
8
BLACK
6
CONTINUOUS
10
91.904
20
-77.0556
11
91.568
21
-77.2496
0
LINE
8
BLACK
6
CONTINUOUS
10
91.568
20
-77.2496
11
91.186
21
-77.317
0
LINE
8
BLACK
6
CONTINUOUS
10
91.186
20
-77.317
11
90.804
21
-77.2496
0
LINE
8
BLACK
6
CONTINUOUS
10
90.804
20
-77.2496
11
90.468
21
-77.0556
0
LINE
8
BLACK
6
CONTINUOUS
10
90.468
20
-77.0556
11
90.2187
21
-76.7585
0
LINE
8
BLACK
6
CONTINUOUS
10
90.2187
20
-76.7585
11
90.086
21
-76.394
0
LINE
8
BLACK
6
CONTINUOUS
10
90.086
20
-76.394
11
90.086
21
-76.006
0
LINE
8
BLACK
6
CONTINUOUS
10
90.086
20
-76.006
11
90.2187
21
-75.6415
0
LINE
8
BLACK
6
CONTINUOUS
10
90.2187
20
-75.6415
11
90.468
21
-75.3444
0
LINE
8
BLACK
6
CONTINUOUS
10
90.468
20
-75.3444
11
90.804
21
-75.1504
0
LINE
8
BLACK
6
CONTINUOUS
10
90.804
20
-75.1504
11
91.186
21
-75.083
0
LINE
8
BLACK
6
CONTINUOUS
10
91.186
20
-75.083
11
91.568
21
-75.1504
0
LINE
8
BLACK
6
CONTINUOUS
10
63.4891
20
-71.7221
11
63.7029
21
-71.8455
0
LINE
8
BLACK
6
CONTINUOUS
10
63.7029
20
-71.8455
11
63.8616
21
-72.0346
0
LINE
8
BLACK
6
CONTINUOUS
10
63.8616
20
-72.0346
11
63.946
21
-72.2666
0
LINE
8
BLACK
6
CONTINUOUS
10
63.946
20
-72.2666
11
63.946
21
-72.5134
0
LINE
8
BLACK
6
CONTINUOUS
10
63.946
20
-72.5134
11
63.8616
21
-72.7454
0
LINE
8
BLACK
6
CONTINUOUS
10
63.8616
20
-72.7454
11
63.7029
21
-72.9345
0
LINE
8
BLACK
6
CONTINUOUS
10
63.7029
20
-72.9345
11
63.4891
21
-73.0579
0
LINE
8
BLACK
6
CONTINUOUS
10
63.4891
20
-73.0579
11
63.3072
21
-73.09
0
LINE
8
BLACK
6
CONTINUOUS
10
63.3072
20
-73.09
11
63.1848
21
-73.09
0
LINE
8
BLACK
6
CONTINUOUS
10
63.1848
20
-73.09
11
63.0029
21
-73.0579
0
LINE
8
BLACK
6
CONTINUOUS
10
63.0029
20
-73.0579
11
62.7891
21
-72.9345
0
LINE
8
BLACK
6
CONTINUOUS
10
62.7891
20
-72.9345
11
62.6304
21
-72.7454
0
LINE
8
BLACK
6
CONTINUOUS
10
62.6304
20
-72.7454
11
62.546
21
-72.5134
0
LINE
8
BLACK
6
CONTINUOUS
10
62.546
20
-72.5134
11
62.546
21
-72.2666
0
LINE
8
BLACK
6
CONTINUOUS
10
62.546
20
-72.2666
11
62.6304
21
-72.0346
0
LINE
8
BLACK
6
CONTINUOUS
10
62.6304
20
-72.0346
11
62.7891
21
-71.8455
0
LINE
8
BLACK
6
CONTINUOUS
10
62.7891
20
-71.8455
11
63.0029
21
-71.7221
0
LINE
8
BLACK
6
CONTINUOUS
10
63.0029
20
-71.7221
11
63.1848
21
-71.69
0
LINE
8
BLACK
6
CONTINUOUS
10
63.1848
20
-71.69
11
63.3072
21
-71.69
0
LINE
8
BLACK
6
CONTINUOUS
10
63.3072
20
-71.69
11
63.4891
21
-71.7221
0
LINE
8
BLACK
6
CONTINUOUS
10
78.574
20
-71.208
11
76.874
21
-71.208
0
LINE
8
BLACK
6
CONTINUOUS
10
76.874
20
-71.208
11
76.874
21
-69.508
0
LINE
8
BLACK
6
CONTINUOUS
10
76.874
20
-69.508
11
78.574
21
-69.508
0
LINE
8
BLACK
6
CONTINUOUS
10
78.574
20
-69.508
11
78.574
21
-71.208
0
LINE
8
BLACK
6
CONTINUOUS
10
75.4792
20
-69.5469
11
75.7388
21
-69.6968
0
LINE
8
BLACK
6
CONTINUOUS
10
75.7388
20
-69.6968
11
75.9315
21
-69.9264
0
LINE
8
BLACK
6
CONTINUOUS
10
75.9315
20
-69.9264
11
76.034
21
-70.2081
0
LINE
8
BLACK
6
CONTINUOUS
10
76.034
20
-70.2081
11
76.034
21
-70.5079
0
LINE
8
BLACK
6
CONTINUOUS
10
76.034
20
-70.5079
11
75.9315
21
-70.7896
0
LINE
8
BLACK
6
CONTINUOUS
10
75.9315
20
-70.7896
11
75.7388
21
-71.0192
0
LINE
8
BLACK
6
CONTINUOUS
10
75.7388
20
-71.0192
11
75.4792
21
-71.1691
0
LINE
8
BLACK
6
CONTINUOUS
10
75.4792
20
-71.1691
11
75.2584
21
-71.208
0
LINE
8
BLACK
6
CONTINUOUS
10
75.2584
20
-71.208
11
75.1096
21
-71.208
0
LINE
8
BLACK
6
CONTINUOUS
10
75.1096
20
-71.208
11
74.8888
21
-71.1691
0
LINE
8
BLACK
6
CONTINUOUS
10
74.8888
20
-71.1691
11
74.6292
21
-71.0192
0
LINE
8
BLACK
6
CONTINUOUS
10
74.6292
20
-71.0192
11
74.4365
21
-70.7896
0
LINE
8
BLACK
6
CONTINUOUS
10
74.4365
20
-70.7896
11
74.334
21
-70.5079
0
LINE
8
BLACK
6
CONTINUOUS
10
74.334
20
-70.5079
11
74.334
21
-70.2081
0
LINE
8
BLACK
6
CONTINUOUS
10
74.334
20
-70.2081
11
74.4365
21
-69.9264
0
LINE
8
BLACK
6
CONTINUOUS
10
74.4365
20
-69.9264
11
74.6292
21
-69.6968
0
LINE
8
BLACK
6
CONTINUOUS
10
74.6292
20
-69.6968
11
74.8888
21
-69.5469
0
LINE
8
BLACK
6
CONTINUOUS
10
74.8888
20
-69.5469
11
75.1096
21
-69.508
0
LINE
8
BLACK
6
CONTINUOUS
10
75.1096
20
-69.508
11
75.2584
21
-69.508
0
LINE
8
BLACK
6
CONTINUOUS
10
75.2584
20
-69.508
11
75.4792
21
-69.5469
0
LINE
8
BLACK
6
CONTINUOUS
10
72.9392
20
-69.5469
11
73.1988
21
-69.6968
0
LINE
8
BLACK
6
CONTINUOUS
10
73.1988
20
-69.6968
11
73.3915
21
-69.9264
0
LINE
8
BLACK
6
CONTINUOUS
10
73.3915
20
-69.9264
11
73.494
21
-70.2081
0
LINE
8
BLACK
6
CONTINUOUS
10
73.494
20
-70.2081
11
73.494
21
-70.5079
0
LINE
8
BLACK
6
CONTINUOUS
10
73.494
20
-70.5079
11
73.3915
21
-70.7896
0
LINE
8
BLACK
6
CONTINUOUS
10
73.3915
20
-70.7896
11
73.1988
21
-71.0192
0
LINE
8
BLACK
6
CONTINUOUS
10
73.1988
20
-71.0192
11
72.9392
21
-71.1691
0
LINE
8
BLACK
6
CONTINUOUS
10
72.9392
20
-71.1691
11
72.7184
21
-71.208
0
LINE
8
BLACK
6
CONTINUOUS
10
72.7184
20
-71.208
11
72.5696
21
-71.208
0
LINE
8
BLACK
6
CONTINUOUS
10
72.5696
20
-71.208
11
72.3488
21
-71.1691
0
LINE
8
BLACK
6
CONTINUOUS
10
72.3488
20
-71.1691
11
72.0892
21
-71.0192
0
LINE
8
BLACK
6
CONTINUOUS
10
72.0892
20
-71.0192
11
71.8965
21
-70.7896
0
LINE
8
BLACK
6
CONTINUOUS
10
71.8965
20
-70.7896
11
71.794
21
-70.5079
0
LINE
8
BLACK
6
CONTINUOUS
10
71.794
20
-70.5079
11
71.794
21
-70.2081
0
LINE
8
BLACK
6
CONTINUOUS
10
71.794
20
-70.2081
11
71.8965
21
-69.9264
0
LINE
8
BLACK
6
CONTINUOUS
10
71.8965
20
-69.9264
11
72.0892
21
-69.6968
0
LINE
8
BLACK
6
CONTINUOUS
10
72.0892
20
-69.6968
11
72.3488
21
-69.5469
0
LINE
8
BLACK
6
CONTINUOUS
10
72.3488
20
-69.5469
11
72.5696
21
-69.508
0
LINE
8
BLACK
6
CONTINUOUS
10
72.5696
20
-69.508
11
72.7184
21
-69.508
0
LINE
8
BLACK
6
CONTINUOUS
10
72.7184
20
-69.508
11
72.9392
21
-69.5469
0
LINE
8
BLACK
6
CONTINUOUS
10
70.3992
20
-69.5469
11
70.6588
21
-69.6968
0
LINE
8
BLACK
6
CONTINUOUS
10
70.6588
20
-69.6968
11
70.8515
21
-69.9264
0
LINE
8
BLACK
6
CONTINUOUS
10
70.8515
20
-69.9264
11
70.954
21
-70.2081
0
LINE
8
BLACK
6
CONTINUOUS
10
70.954
20
-70.2081
11
70.954
21
-70.5079
0
LINE
8
BLACK
6
CONTINUOUS
10
70.954
20
-70.5079
11
70.8515
21
-70.7896
0
LINE
8
BLACK
6
CONTINUOUS
10
70.8515
20
-70.7896
11
70.6588
21
-71.0192
0
LINE
8
BLACK
6
CONTINUOUS
10
70.6588
20
-71.0192
11
70.3992
21
-71.1691
0
LINE
8
BLACK
6
CONTINUOUS
10
70.3992
20
-71.1691
11
70.1784
21
-71.208
0
LINE
8
BLACK
6
CONTINUOUS
10
70.1784
20
-71.208
11
70.0296
21
-71.208
0
LINE
8
BLACK
6
CONTINUOUS
10
70.0296
20
-71.208
11
69.8088
21
-71.1691
0
LINE
8
BLACK
6
CONTINUOUS
10
69.8088
20
-71.1691
11
69.5492
21
-71.0192
0
LINE
8
BLACK
6
CONTINUOUS
10
69.5492
20
-71.0192
11
69.3565
21
-70.7896
0
LINE
8
BLACK
6
CONTINUOUS
10
69.3565
20
-70.7896
11
69.254
21
-70.5079
0
LINE
8
BLACK
6
CONTINUOUS
10
69.254
20
-70.5079
11
69.254
21
-70.2081
0
LINE
8
BLACK
6
CONTINUOUS
10
69.254
20
-70.2081
11
69.3565
21
-69.9264
0
LINE
8
BLACK
6
CONTINUOUS
10
69.3565
20
-69.9264
11
69.5492
21
-69.6968
0
LINE
8
BLACK
6
CONTINUOUS
10
69.5492
20
-69.6968
11
69.8088
21
-69.5469
0
LINE
8
BLACK
6
CONTINUOUS
10
69.8088
20
-69.5469
11
70.0296
21
-69.508
0
LINE
8
BLACK
6
CONTINUOUS
10
70.0296
20
-69.508
11
70.1784
21
-69.508
0
LINE
8
BLACK
6
CONTINUOUS
10
70.1784
20
-69.508
11
70.3992
21
-69.5469
0
LINE
8
BLACK
6
CONTINUOUS
10
67.8592
20
-69.5469
11
68.1188
21
-69.6968
0
LINE
8
BLACK
6
CONTINUOUS
10
68.1188
20
-69.6968
11
68.3115
21
-69.9264
0
LINE
8
BLACK
6
CONTINUOUS
10
68.3115
20
-69.9264
11
68.414
21
-70.2081
0
LINE
8
BLACK
6
CONTINUOUS
10
68.414
20
-70.2081
11
68.414
21
-70.5079
0
LINE
8
BLACK
6
CONTINUOUS
10
68.414
20
-70.5079
11
68.3115
21
-70.7896
0
LINE
8
BLACK
6
CONTINUOUS
10
68.3115
20
-70.7896
11
68.1188
21
-71.0192
0
LINE
8
BLACK
6
CONTINUOUS
10
68.1188
20
-71.0192
11
67.8592
21
-71.1691
0
LINE
8
BLACK
6
CONTINUOUS
10
67.8592
20
-71.1691
11
67.6384
21
-71.208
0
LINE
8
BLACK
6
CONTINUOUS
10
67.6384
20
-71.208
11
67.4896
21
-71.208
0
LINE
8
BLACK
6
CONTINUOUS
10
67.4896
20
-71.208
11
67.2688
21
-71.1691
0
LINE
8
BLACK
6
CONTINUOUS
10
67.2688
20
-71.1691
11
67.0092
21
-71.0192
0
LINE
8
BLACK
6
CONTINUOUS
10
67.0092
20
-71.0192
11
66.8165
21
-70.7896
0
LINE
8
BLACK
6
CONTINUOUS
10
66.8165
20
-70.7896
11
66.714
21
-70.5079
0
LINE
8
BLACK
6
CONTINUOUS
10
66.714
20
-70.5079
11
66.714
21
-70.2081
0
LINE
8
BLACK
6
CONTINUOUS
10
66.714
20
-70.2081
11
66.8165
21
-69.9264
0
LINE
8
BLACK
6
CONTINUOUS
10
66.8165
20
-69.9264
11
67.0092
21
-69.6968
0
LINE
8
BLACK
6
CONTINUOUS
10
67.0092
20
-69.6968
11
67.2688
21
-69.5469
0
LINE
8
BLACK
6
CONTINUOUS
10
67.2688
20
-69.5469
11
67.4896
21
-69.508
0
LINE
8
BLACK
6
CONTINUOUS
10
67.4896
20
-69.508
11
67.6384
21
-69.508
0
LINE
8
BLACK
6
CONTINUOUS
10
67.6384
20
-69.508
11
67.8592
21
-69.5469
0
LINE
8
BLACK
6
CONTINUOUS
10
46.9333
20
-68.8238
11
47.2387
21
-69.0001
0
LINE
8
BLACK
6
CONTINUOUS
10
47.2387
20
-69.0001
11
47.4654
21
-69.2703
0
LINE
8
BLACK
6
CONTINUOUS
10
47.4654
20
-69.2703
11
47.586
21
-69.6017
0
LINE
8
BLACK
6
CONTINUOUS
10
47.586
20
-69.6017
11
47.586
21
-69.9543
0
LINE
8
BLACK
6
CONTINUOUS
10
47.586
20
-69.9543
11
47.4654
21
-70.2857
0
LINE
8
BLACK
6
CONTINUOUS
10
47.4654
20
-70.2857
11
47.2387
21
-70.5559
0
LINE
8
BLACK
6
CONTINUOUS
10
47.2387
20
-70.5559
11
46.9333
21
-70.7322
0
LINE
8
BLACK
6
CONTINUOUS
10
46.9333
20
-70.7322
11
46.586
21
-70.7934
0
LINE
8
BLACK
6
CONTINUOUS
10
46.586
20
-70.7934
11
46.2387
21
-70.7322
0
LINE
8
BLACK
6
CONTINUOUS
10
46.2387
20
-70.7322
11
45.9333
21
-70.5559
0
LINE
8
BLACK
6
CONTINUOUS
10
45.9333
20
-70.5559
11
45.7066
21
-70.2857
0
LINE
8
BLACK
6
CONTINUOUS
10
45.7066
20
-70.2857
11
45.586
21
-69.9543
0
LINE
8
BLACK
6
CONTINUOUS
10
45.586
20
-69.9543
11
45.586
21
-69.6017
0
LINE
8
BLACK
6
CONTINUOUS
10
45.586
20
-69.6017
11
45.7066
21
-69.2703
0
LINE
8
BLACK
6
CONTINUOUS
10
45.7066
20
-69.2703
11
45.9333
21
-69.0001
0
LINE
8
BLACK
6
CONTINUOUS
10
45.9333
20
-69.0001
11
46.2387
21
-68.8238
0
LINE
8
BLACK
6
CONTINUOUS
10
46.2387
20
-68.8238
11
46.586
21
-68.7626
0
LINE
8
BLACK
6
CONTINUOUS
10
46.586
20
-68.7626
11
46.9333
21
-68.8238
0
LINE
8
BLACK
6
CONTINUOUS
10
53.4333
20
-68.8238
11
53.7387
21
-69.0001
0
LINE
8
BLACK
6
CONTINUOUS
10
53.7387
20
-69.0001
11
53.9654
21
-69.2703
0
LINE
8
BLACK
6
CONTINUOUS
10
53.9654
20
-69.2703
11
54.086
21
-69.6017
0
LINE
8
BLACK
6
CONTINUOUS
10
54.086
20
-69.6017
11
54.086
21
-69.9543
0
LINE
8
BLACK
6
CONTINUOUS
10
54.086
20
-69.9543
11
53.9654
21
-70.2857
0
LINE
8
BLACK
6
CONTINUOUS
10
53.9654
20
-70.2857
11
53.7387
21
-70.5559
0
LINE
8
BLACK
6
CONTINUOUS
10
53.7387
20
-70.5559
11
53.4333
21
-70.7322
0
LINE
8
BLACK
6
CONTINUOUS
10
53.4333
20
-70.7322
11
53.086
21
-70.7934
0
LINE
8
BLACK
6
CONTINUOUS
10
53.086
20
-70.7934
11
52.7387
21
-70.7322
0
LINE
8
BLACK
6
CONTINUOUS
10
52.7387
20
-70.7322
11
52.4333
21
-70.5559
0
LINE
8
BLACK
6
CONTINUOUS
10
52.4333
20
-70.5559
11
52.2066
21
-70.2857
0
LINE
8
BLACK
6
CONTINUOUS
10
52.2066
20
-70.2857
11
52.086
21
-69.9543
0
LINE
8
BLACK
6
CONTINUOUS
10
52.086
20
-69.9543
11
52.086
21
-69.6017
0
LINE
8
BLACK
6
CONTINUOUS
10
52.086
20
-69.6017
11
52.2066
21
-69.2703
0
LINE
8
BLACK
6
CONTINUOUS
10
52.2066
20
-69.2703
11
52.4333
21
-69.0001
0
LINE
8
BLACK
6
CONTINUOUS
10
52.4333
20
-69.0001
11
52.7387
21
-68.8238
0
LINE
8
BLACK
6
CONTINUOUS
10
52.7387
20
-68.8238
11
53.086
21
-68.7626
0
LINE
8
BLACK
6
CONTINUOUS
10
53.086
20
-68.7626
11
53.4333
21
-68.8238
0
LINE
8
BLACK
6
CONTINUOUS
10
63.4891
20
-69.1821
11
63.7029
21
-69.3055
0
LINE
8
BLACK
6
CONTINUOUS
10
63.7029
20
-69.3055
11
63.8616
21
-69.4946
0
LINE
8
BLACK
6
CONTINUOUS
10
63.8616
20
-69.4946
11
63.946
21
-69.7266
0
LINE
8
BLACK
6
CONTINUOUS
10
63.946
20
-69.7266
11
63.946
21
-69.9734
0
LINE
8
BLACK
6
CONTINUOUS
10
63.946
20
-69.9734
11
63.8616
21
-70.2054
0
LINE
8
BLACK
6
CONTINUOUS
10
63.8616
20
-70.2054
11
63.7029
21
-70.3945
0
LINE
8
BLACK
6
CONTINUOUS
10
63.7029
20
-70.3945
11
63.4891
21
-70.5179
0
LINE
8
BLACK
6
CONTINUOUS
10
63.4891
20
-70.5179
11
63.246
21
-70.5608
0
LINE
8
BLACK
6
CONTINUOUS
10
63.246
20
-70.5608
11
63.0029
21
-70.5179
0
LINE
8
BLACK
6
CONTINUOUS
10
63.0029
20
-70.5179
11
62.7891
21
-70.3945
0
LINE
8
BLACK
6
CONTINUOUS
10
62.7891
20
-70.3945
11
62.6304
21
-70.2054
0
LINE
8
BLACK
6
CONTINUOUS
10
62.6304
20
-70.2054
11
62.546
21
-69.9734
0
LINE
8
BLACK
6
CONTINUOUS
10
62.546
20
-69.9734
11
62.546
21
-69.7266
0
LINE
8
BLACK
6
CONTINUOUS
10
62.546
20
-69.7266
11
62.6304
21
-69.4946
0
LINE
8
BLACK
6
CONTINUOUS
10
62.6304
20
-69.4946
11
62.7891
21
-69.3055
0
LINE
8
BLACK
6
CONTINUOUS
10
62.7891
20
-69.3055
11
63.0029
21
-69.1821
0
LINE
8
BLACK
6
CONTINUOUS
10
63.0029
20
-69.1821
11
63.246
21
-69.1392
0
LINE
8
BLACK
6
CONTINUOUS
10
63.246
20
-69.1392
11
63.4891
21
-69.1821
0
LINE
8
BLACK
6
CONTINUOUS
10
55.8691
20
-69.1821
11
56.0829
21
-69.3055
0
LINE
8
BLACK
6
CONTINUOUS
10
56.0829
20
-69.3055
11
56.2416
21
-69.4946
0
LINE
8
BLACK
6
CONTINUOUS
10
56.2416
20
-69.4946
11
56.326
21
-69.7266
0
LINE
8
BLACK
6
CONTINUOUS
10
56.326
20
-69.7266
11
56.326
21
-69.9734
0
LINE
8
BLACK
6
CONTINUOUS
10
56.326
20
-69.9734
11
56.2416
21
-70.2054
0
LINE
8
BLACK
6
CONTINUOUS
10
56.2416
20
-70.2054
11
56.0829
21
-70.3945
0
LINE
8
BLACK
6
CONTINUOUS
10
56.0829
20
-70.3945
11
55.8691
21
-70.5179
0
LINE
8
BLACK
6
CONTINUOUS
10
55.8691
20
-70.5179
11
55.6872
21
-70.55
0
LINE
8
BLACK
6
CONTINUOUS
10
55.6872
20
-70.55
11
55.5648
21
-70.55
0
LINE
8
BLACK
6
CONTINUOUS
10
55.5648
20
-70.55
11
55.3829
21
-70.5179
0
LINE
8
BLACK
6
CONTINUOUS
10
55.3829
20
-70.5179
11
55.1691
21
-70.3945
0
LINE
8
BLACK
6
CONTINUOUS
10
55.1691
20
-70.3945
11
55.0104
21
-70.2054
0
LINE
8
BLACK
6
CONTINUOUS
10
55.0104
20
-70.2054
11
54.926
21
-69.9734
0
LINE
8
BLACK
6
CONTINUOUS
10
54.926
20
-69.9734
11
54.926
21
-69.7266
0
LINE
8
BLACK
6
CONTINUOUS
10
54.926
20
-69.7266
11
55.0104
21
-69.4946
0
LINE
8
BLACK
6
CONTINUOUS
10
55.0104
20
-69.4946
11
55.1691
21
-69.3055
0
LINE
8
BLACK
6
CONTINUOUS
10
55.1691
20
-69.3055
11
55.3829
21
-69.1821
0
LINE
8
BLACK
6
CONTINUOUS
10
55.3829
20
-69.1821
11
55.5648
21
-69.15
0
LINE
8
BLACK
6
CONTINUOUS
10
55.5648
20
-69.15
11
55.6872
21
-69.15
0
LINE
8
BLACK
6
CONTINUOUS
10
55.6872
20
-69.15
11
55.8691
21
-69.1821
0
LINE
8
BLACK
6
CONTINUOUS
10
55.8691
20
-66.6421
11
56.0829
21
-66.7655
0
LINE
8
BLACK
6
CONTINUOUS
10
56.0829
20
-66.7655
11
56.2416
21
-66.9546
0
LINE
8
BLACK
6
CONTINUOUS
10
56.2416
20
-66.9546
11
56.326
21
-67.1866
0
LINE
8
BLACK
6
CONTINUOUS
10
56.326
20
-67.1866
11
56.326
21
-67.4334
0
LINE
8
BLACK
6
CONTINUOUS
10
56.326
20
-67.4334
11
56.2416
21
-67.6654
0
LINE
8
BLACK
6
CONTINUOUS
10
56.2416
20
-67.6654
11
56.0829
21
-67.8545
0
LINE
8
BLACK
6
CONTINUOUS
10
56.0829
20
-67.8545
11
55.8691
21
-67.9779
0
LINE
8
BLACK
6
CONTINUOUS
10
55.8691
20
-67.9779
11
55.626
21
-68.0208
0
LINE
8
BLACK
6
CONTINUOUS
10
55.626
20
-68.0208
11
55.3829
21
-67.9779
0
LINE
8
BLACK
6
CONTINUOUS
10
55.3829
20
-67.9779
11
55.1691
21
-67.8545
0
LINE
8
BLACK
6
CONTINUOUS
10
55.1691
20
-67.8545
11
55.0104
21
-67.6654
0
LINE
8
BLACK
6
CONTINUOUS
10
55.0104
20
-67.6654
11
54.926
21
-67.4334
0
LINE
8
BLACK
6
CONTINUOUS
10
54.926
20
-67.4334
11
54.926
21
-67.1866
0
LINE
8
BLACK
6
CONTINUOUS
10
54.926
20
-67.1866
11
55.0104
21
-66.9546
0
LINE
8
BLACK
6
CONTINUOUS
10
55.0104
20
-66.9546
11
55.1691
21
-66.7655
0
LINE
8
BLACK
6
CONTINUOUS
10
55.1691
20
-66.7655
11
55.3829
21
-66.6421
0
LINE
8
BLACK
6
CONTINUOUS
10
55.3829
20
-66.6421
11
55.626
21
-66.5992
0
LINE
8
BLACK
6
CONTINUOUS
10
55.626
20
-66.5992
11
55.8691
21
-66.6421
0
LINE
8
BLACK
6
CONTINUOUS
10
63.4891
20
-66.6421
11
63.7029
21
-66.7655
0
LINE
8
BLACK
6
CONTINUOUS
10
63.7029
20
-66.7655
11
63.8616
21
-66.9546
0
LINE
8
BLACK
6
CONTINUOUS
10
63.8616
20
-66.9546
11
63.946
21
-67.1866
0
LINE
8
BLACK
6
CONTINUOUS
10
63.946
20
-67.1866
11
63.946
21
-67.4334
0
LINE
8
BLACK
6
CONTINUOUS
10
63.946
20
-67.4334
11
63.8616
21
-67.6654
0
LINE
8
BLACK
6
CONTINUOUS
10
63.8616
20
-67.6654
11
63.7029
21
-67.8545
0
LINE
8
BLACK
6
CONTINUOUS
10
63.7029
20
-67.8545
11
63.4891
21
-67.9779
0
LINE
8
BLACK
6
CONTINUOUS
10
63.4891
20
-67.9779
11
63.3072
21
-68.01
0
LINE
8
BLACK
6
CONTINUOUS
10
63.3072
20
-68.01
11
63.1848
21
-68.01
0
LINE
8
BLACK
6
CONTINUOUS
10
63.1848
20
-68.01
11
63.0029
21
-67.9779
0
LINE
8
BLACK
6
CONTINUOUS
10
63.0029
20
-67.9779
11
62.7891
21
-67.8545
0
LINE
8
BLACK
6
CONTINUOUS
10
62.7891
20
-67.8545
11
62.6304
21
-67.6654
0
LINE
8
BLACK
6
CONTINUOUS
10
62.6304
20
-67.6654
11
62.546
21
-67.4334
0
LINE
8
BLACK
6
CONTINUOUS
10
62.546
20
-67.4334
11
62.546
21
-67.1866
0
LINE
8
BLACK
6
CONTINUOUS
10
62.546
20
-67.1866
11
62.6304
21
-66.9546
0
LINE
8
BLACK
6
CONTINUOUS
10
62.6304
20
-66.9546
11
62.7891
21
-66.7655
0
LINE
8
BLACK
6
CONTINUOUS
10
62.7891
20
-66.7655
11
63.0029
21
-66.6421
0
LINE
8
BLACK
6
CONTINUOUS
10
63.0029
20
-66.6421
11
63.1848
21
-66.61
0
LINE
8
BLACK
6
CONTINUOUS
10
63.1848
20
-66.61
11
63.3072
21
-66.61
0
LINE
8
BLACK
6
CONTINUOUS
10
63.3072
20
-66.61
11
63.4891
21
-66.6421
0
LINE
8
BLACK
6
CONTINUOUS
10
78.0192
20
-65.7369
11
78.2788
21
-65.8868
0
LINE
8
BLACK
6
CONTINUOUS
10
78.2788
20
-65.8868
11
78.4715
21
-66.1164
0
LINE
8
BLACK
6
CONTINUOUS
10
78.4715
20
-66.1164
11
78.574
21
-66.3981
0
LINE
8
BLACK
6
CONTINUOUS
10
78.574
20
-66.3981
11
78.574
21
-66.6979
0
LINE
8
BLACK
6
CONTINUOUS
10
78.574
20
-66.6979
11
78.4715
21
-66.9796
0
LINE
8
BLACK
6
CONTINUOUS
10
78.4715
20
-66.9796
11
78.2788
21
-67.2092
0
LINE
8
BLACK
6
CONTINUOUS
10
78.2788
20
-67.2092
11
78.0192
21
-67.3591
0
LINE
8
BLACK
6
CONTINUOUS
10
78.0192
20
-67.3591
11
77.7984
21
-67.398
0
LINE
8
BLACK
6
CONTINUOUS
10
77.7984
20
-67.398
11
77.6496
21
-67.398
0
LINE
8
BLACK
6
CONTINUOUS
10
77.6496
20
-67.398
11
77.4288
21
-67.3591
0
LINE
8
BLACK
6
CONTINUOUS
10
77.4288
20
-67.3591
11
77.1692
21
-67.2092
0
LINE
8
BLACK
6
CONTINUOUS
10
77.1692
20
-67.2092
11
76.9765
21
-66.9796
0
LINE
8
BLACK
6
CONTINUOUS
10
76.9765
20
-66.9796
11
76.874
21
-66.6979
0
LINE
8
BLACK
6
CONTINUOUS
10
76.874
20
-66.6979
11
76.874
21
-66.3981
0
LINE
8
BLACK
6
CONTINUOUS
10
76.874
20
-66.3981
11
76.9765
21
-66.1164
0
LINE
8
BLACK
6
CONTINUOUS
10
76.9765
20
-66.1164
11
77.1692
21
-65.8868
0
LINE
8
BLACK
6
CONTINUOUS
10
77.1692
20
-65.8868
11
77.4288
21
-65.7369
0
LINE
8
BLACK
6
CONTINUOUS
10
77.4288
20
-65.7369
11
77.6496
21
-65.698
0
LINE
8
BLACK
6
CONTINUOUS
10
77.6496
20
-65.698
11
77.7984
21
-65.698
0
LINE
8
BLACK
6
CONTINUOUS
10
77.7984
20
-65.698
11
78.0192
21
-65.7369
0
LINE
8
BLACK
6
CONTINUOUS
10
53.4333
20
-64.3238
11
53.7387
21
-64.5001
0
LINE
8
BLACK
6
CONTINUOUS
10
53.7387
20
-64.5001
11
53.9654
21
-64.7703
0
LINE
8
BLACK
6
CONTINUOUS
10
53.9654
20
-64.7703
11
54.086
21
-65.1017
0
LINE
8
BLACK
6
CONTINUOUS
10
54.086
20
-65.1017
11
54.086
21
-65.4543
0
LINE
8
BLACK
6
CONTINUOUS
10
54.086
20
-65.4543
11
53.9654
21
-65.7857
0
LINE
8
BLACK
6
CONTINUOUS
10
53.9654
20
-65.7857
11
53.7387
21
-66.0559
0
LINE
8
BLACK
6
CONTINUOUS
10
53.7387
20
-66.0559
11
53.4333
21
-66.2322
0
LINE
8
BLACK
6
CONTINUOUS
10
53.4333
20
-66.2322
11
53.086
21
-66.2934
0
LINE
8
BLACK
6
CONTINUOUS
10
53.086
20
-66.2934
11
52.7387
21
-66.2322
0
LINE
8
BLACK
6
CONTINUOUS
10
52.7387
20
-66.2322
11
52.4333
21
-66.0559
0
LINE
8
BLACK
6
CONTINUOUS
10
52.4333
20
-66.0559
11
52.2066
21
-65.7857
0
LINE
8
BLACK
6
CONTINUOUS
10
52.2066
20
-65.7857
11
52.086
21
-65.4543
0
LINE
8
BLACK
6
CONTINUOUS
10
52.086
20
-65.4543
11
52.086
21
-65.1017
0
LINE
8
BLACK
6
CONTINUOUS
10
52.086
20
-65.1017
11
52.2066
21
-64.7703
0
LINE
8
BLACK
6
CONTINUOUS
10
52.2066
20
-64.7703
11
52.4333
21
-64.5001
0
LINE
8
BLACK
6
CONTINUOUS
10
52.4333
20
-64.5001
11
52.7387
21
-64.3238
0
LINE
8
BLACK
6
CONTINUOUS
10
52.7387
20
-64.3238
11
53.086
21
-64.2626
0
LINE
8
BLACK
6
CONTINUOUS
10
53.086
20
-64.2626
11
53.4333
21
-64.3238
0
LINE
8
BLACK
6
CONTINUOUS
10
46.9333
20
-64.3238
11
47.2387
21
-64.5001
0
LINE
8
BLACK
6
CONTINUOUS
10
47.2387
20
-64.5001
11
47.4654
21
-64.7703
0
LINE
8
BLACK
6
CONTINUOUS
10
47.4654
20
-64.7703
11
47.586
21
-65.1017
0
LINE
8
BLACK
6
CONTINUOUS
10
47.586
20
-65.1017
11
47.586
21
-65.4543
0
LINE
8
BLACK
6
CONTINUOUS
10
47.586
20
-65.4543
11
47.4654
21
-65.7857
0
LINE
8
BLACK
6
CONTINUOUS
10
47.4654
20
-65.7857
11
47.2387
21
-66.0559
0
LINE
8
BLACK
6
CONTINUOUS
10
47.2387
20
-66.0559
11
46.9333
21
-66.2322
0
LINE
8
BLACK
6
CONTINUOUS
10
46.9333
20
-66.2322
11
46.586
21
-66.2934
0
LINE
8
BLACK
6
CONTINUOUS
10
46.586
20
-66.2934
11
46.2387
21
-66.2322
0
LINE
8
BLACK
6
CONTINUOUS
10
46.2387
20
-66.2322
11
45.9333
21
-66.0559
0
LINE
8
BLACK
6
CONTINUOUS
10
45.9333
20
-66.0559
11
45.7066
21
-65.7857
0
LINE
8
BLACK
6
CONTINUOUS
10
45.7066
20
-65.7857
11
45.586
21
-65.4543
0
LINE
8
BLACK
6
CONTINUOUS
10
45.586
20
-65.4543
11
45.586
21
-65.1017
0
LINE
8
BLACK
6
CONTINUOUS
10
45.586
20
-65.1017
11
45.7066
21
-64.7703
0
LINE
8
BLACK
6
CONTINUOUS
10
45.7066
20
-64.7703
11
45.9333
21
-64.5001
0
LINE
8
BLACK
6
CONTINUOUS
10
45.9333
20
-64.5001
11
46.2387
21
-64.3238
0
LINE
8
BLACK
6
CONTINUOUS
10
46.2387
20
-64.3238
11
46.586
21
-64.2626
0
LINE
8
BLACK
6
CONTINUOUS
10
46.586
20
-64.2626
11
46.9333
21
-64.3238
0
LINE
8
BLACK
6
CONTINUOUS
10
83.0818
20
-64.5146
11
83.3262
21
-64.6557
0
LINE
8
BLACK
6
CONTINUOUS
10
83.3262
20
-64.6557
11
83.5075
21
-64.8718
0
LINE
8
BLACK
6
CONTINUOUS
10
83.5075
20
-64.8718
11
83.604
21
-65.1369
0
LINE
8
BLACK
6
CONTINUOUS
10
83.604
20
-65.1369
11
83.604
21
-65.4191
0
LINE
8
BLACK
6
CONTINUOUS
10
83.604
20
-65.4191
11
83.5075
21
-65.6842
0
LINE
8
BLACK
6
CONTINUOUS
10
83.5075
20
-65.6842
11
83.3262
21
-65.9003
0
LINE
8
BLACK
6
CONTINUOUS
10
83.3262
20
-65.9003
11
83.0818
21
-66.0414
0
LINE
8
BLACK
6
CONTINUOUS
10
83.0818
20
-66.0414
11
82.804
21
-66.0903
0
LINE
8
BLACK
6
CONTINUOUS
10
82.804
20
-66.0903
11
82.5262
21
-66.0414
0
LINE
8
BLACK
6
CONTINUOUS
10
82.5262
20
-66.0414
11
82.2818
21
-65.9003
0
LINE
8
BLACK
6
CONTINUOUS
10
82.2818
20
-65.9003
11
82.1005
21
-65.6842
0
LINE
8
BLACK
6
CONTINUOUS
10
82.1005
20
-65.6842
11
82.004
21
-65.4191
0
LINE
8
BLACK
6
CONTINUOUS
10
82.004
20
-65.4191
11
82.004
21
-65.1369
0
LINE
8
BLACK
6
CONTINUOUS
10
82.004
20
-65.1369
11
82.1005
21
-64.8718
0
LINE
8
BLACK
6
CONTINUOUS
10
82.1005
20
-64.8718
11
82.2818
21
-64.6557
0
LINE
8
BLACK
6
CONTINUOUS
10
82.2818
20
-64.6557
11
82.5262
21
-64.5146
0
LINE
8
BLACK
6
CONTINUOUS
10
82.5262
20
-64.5146
11
82.804
21
-64.4657
0
LINE
8
BLACK
6
CONTINUOUS
10
82.804
20
-64.4657
11
83.0818
21
-64.5146
0
LINE
8
BLACK
6
CONTINUOUS
10
67.8418
20
-64.5146
11
68.0862
21
-64.6557
0
LINE
8
BLACK
6
CONTINUOUS
10
68.0862
20
-64.6557
11
68.2675
21
-64.8718
0
LINE
8
BLACK
6
CONTINUOUS
10
68.2675
20
-64.8718
11
68.364
21
-65.1369
0
LINE
8
BLACK
6
CONTINUOUS
10
68.364
20
-65.1369
11
68.364
21
-65.4191
0
LINE
8
BLACK
6
CONTINUOUS
10
68.364
20
-65.4191
11
68.2675
21
-65.6842
0
LINE
8
BLACK
6
CONTINUOUS
10
68.2675
20
-65.6842
11
68.0862
21
-65.9003
0
LINE
8
BLACK
6
CONTINUOUS
10
68.0862
20
-65.9003
11
67.8418
21
-66.0414
0
LINE
8
BLACK
6
CONTINUOUS
10
67.8418
20
-66.0414
11
67.634
21
-66.078
0
LINE
8
BLACK
6
CONTINUOUS
10
67.634
20
-66.078
11
67.494
21
-66.078
0
LINE
8
BLACK
6
CONTINUOUS
10
67.494
20
-66.078
11
67.2862
21
-66.0414
0
LINE
8
BLACK
6
CONTINUOUS
10
67.2862
20
-66.0414
11
67.0418
21
-65.9003
0
LINE
8
BLACK
6
CONTINUOUS
10
67.0418
20
-65.9003
11
66.8605
21
-65.6842
0
LINE
8
BLACK
6
CONTINUOUS
10
66.8605
20
-65.6842
11
66.764
21
-65.4191
0
LINE
8
BLACK
6
CONTINUOUS
10
66.764
20
-65.4191
11
66.764
21
-65.1369
0
LINE
8
BLACK
6
CONTINUOUS
10
66.764
20
-65.1369
11
66.8605
21
-64.8718
0
LINE
8
BLACK
6
CONTINUOUS
10
66.8605
20
-64.8718
11
67.0418
21
-64.6557
0
LINE
8
BLACK
6
CONTINUOUS
10
67.0418
20
-64.6557
11
67.2862
21
-64.5146
0
LINE
8
BLACK
6
CONTINUOUS
10
67.2862
20
-64.5146
11
67.494
21
-64.478
0
LINE
8
BLACK
6
CONTINUOUS
10
67.494
20
-64.478
11
67.634
21
-64.478
0
LINE
8
BLACK
6
CONTINUOUS
10
67.634
20
-64.478
11
67.8418
21
-64.5146
0
LINE
8
BLACK
6
CONTINUOUS
10
63.4438
20
-64.0066
11
63.6882
21
-64.1477
0
LINE
8
BLACK
6
CONTINUOUS
10
63.6882
20
-64.1477
11
63.8695
21
-64.3638
0
LINE
8
BLACK
6
CONTINUOUS
10
63.8695
20
-64.3638
11
63.966
21
-64.6289
0
LINE
8
BLACK
6
CONTINUOUS
10
63.966
20
-64.6289
11
63.966
21
-64.9111
0
LINE
8
BLACK
6
CONTINUOUS
10
63.966
20
-64.9111
11
63.8695
21
-65.1762
0
LINE
8
BLACK
6
CONTINUOUS
10
63.8695
20
-65.1762
11
63.6882
21
-65.3923
0
LINE
8
BLACK
6
CONTINUOUS
10
63.6882
20
-65.3923
11
63.4438
21
-65.5334
0
LINE
8
BLACK
6
CONTINUOUS
10
63.4438
20
-65.5334
11
63.166
21
-65.5823
0
LINE
8
BLACK
6
CONTINUOUS
10
63.166
20
-65.5823
11
62.8882
21
-65.5334
0
LINE
8
BLACK
6
CONTINUOUS
10
62.8882
20
-65.5334
11
62.6438
21
-65.3923
0
LINE
8
BLACK
6
CONTINUOUS
10
62.6438
20
-65.3923
11
62.4625
21
-65.1762
0
LINE
8
BLACK
6
CONTINUOUS
10
62.4625
20
-65.1762
11
62.366
21
-64.9111
0
LINE
8
BLACK
6
CONTINUOUS
10
62.366
20
-64.9111
11
62.366
21
-64.6289
0
LINE
8
BLACK
6
CONTINUOUS
10
62.366
20
-64.6289
11
62.4625
21
-64.3638
0
LINE
8
BLACK
6
CONTINUOUS
10
62.4625
20
-64.3638
11
62.6438
21
-64.1477
0
LINE
8
BLACK
6
CONTINUOUS
10
62.6438
20
-64.1477
11
62.8882
21
-64.0066
0
LINE
8
BLACK
6
CONTINUOUS
10
62.8882
20
-64.0066
11
63.166
21
-63.9577
0
LINE
8
BLACK
6
CONTINUOUS
10
63.166
20
-63.9577
11
63.4438
21
-64.0066
0
LINE
8
BLACK
6
CONTINUOUS
10
58.4438
20
-64.0066
11
58.6882
21
-64.1477
0
LINE
8
BLACK
6
CONTINUOUS
10
58.6882
20
-64.1477
11
58.8695
21
-64.3638
0
LINE
8
BLACK
6
CONTINUOUS
10
58.8695
20
-64.3638
11
58.966
21
-64.6289
0
LINE
8
BLACK
6
CONTINUOUS
10
58.966
20
-64.6289
11
58.966
21
-64.9111
0
LINE
8
BLACK
6
CONTINUOUS
10
58.966
20
-64.9111
11
58.8695
21
-65.1762
0
LINE
8
BLACK
6
CONTINUOUS
10
58.8695
20
-65.1762
11
58.6882
21
-65.3923
0
LINE
8
BLACK
6
CONTINUOUS
10
58.6882
20
-65.3923
11
58.4438
21
-65.5334
0
LINE
8
BLACK
6
CONTINUOUS
10
58.4438
20
-65.5334
11
58.166
21
-65.5823
0
LINE
8
BLACK
6
CONTINUOUS
10
58.166
20
-65.5823
11
57.8882
21
-65.5334
0
LINE
8
BLACK
6
CONTINUOUS
10
57.8882
20
-65.5334
11
57.6438
21
-65.3923
0
LINE
8
BLACK
6
CONTINUOUS
10
57.6438
20
-65.3923
11
57.4625
21
-65.1762
0
LINE
8
BLACK
6
CONTINUOUS
10
57.4625
20
-65.1762
11
57.366
21
-64.9111
0
LINE
8
BLACK
6
CONTINUOUS
10
57.366
20
-64.9111
11
57.366
21
-64.6289
0
LINE
8
BLACK
6
CONTINUOUS
10
57.366
20
-64.6289
11
57.4625
21
-64.3638
0
LINE
8
BLACK
6
CONTINUOUS
10
57.4625
20
-64.3638
11
57.6438
21
-64.1477
0
LINE
8
BLACK
6
CONTINUOUS
10
57.6438
20
-64.1477
11
57.8882
21
-64.0066
0
LINE
8
BLACK
6
CONTINUOUS
10
57.8882
20
-64.0066
11
58.166
21
-63.9577
0
LINE
8
BLACK
6
CONTINUOUS
10
58.166
20
-63.9577
11
58.4438
21
-64.0066
0
LINE
8
BLACK
6
CONTINUOUS
10
78.0192
20
-63.1969
11
78.2788
21
-63.3468
0
LINE
8
BLACK
6
CONTINUOUS
10
78.2788
20
-63.3468
11
78.4715
21
-63.5764
0
LINE
8
BLACK
6
CONTINUOUS
10
78.4715
20
-63.5764
11
78.574
21
-63.8581
0
LINE
8
BLACK
6
CONTINUOUS
10
78.574
20
-63.8581
11
78.574
21
-64.1579
0
LINE
8
BLACK
6
CONTINUOUS
10
78.574
20
-64.1579
11
78.4715
21
-64.4396
0
LINE
8
BLACK
6
CONTINUOUS
10
78.4715
20
-64.4396
11
78.2788
21
-64.6692
0
LINE
8
BLACK
6
CONTINUOUS
10
78.2788
20
-64.6692
11
78.0192
21
-64.8191
0
LINE
8
BLACK
6
CONTINUOUS
10
78.0192
20
-64.8191
11
77.7984
21
-64.858
0
LINE
8
BLACK
6
CONTINUOUS
10
77.7984
20
-64.858
11
77.6496
21
-64.858
0
LINE
8
BLACK
6
CONTINUOUS
10
77.6496
20
-64.858
11
77.4288
21
-64.8191
0
LINE
8
BLACK
6
CONTINUOUS
10
77.4288
20
-64.8191
11
77.1692
21
-64.6692
0
LINE
8
BLACK
6
CONTINUOUS
10
77.1692
20
-64.6692
11
76.9765
21
-64.4396
0
LINE
8
BLACK
6
CONTINUOUS
10
76.9765
20
-64.4396
11
76.874
21
-64.1579
0
LINE
8
BLACK
6
CONTINUOUS
10
76.874
20
-64.1579
11
76.874
21
-63.8581
0
LINE
8
BLACK
6
CONTINUOUS
10
76.874
20
-63.8581
11
76.9765
21
-63.5764
0
LINE
8
BLACK
6
CONTINUOUS
10
76.9765
20
-63.5764
11
77.1692
21
-63.3468
0
LINE
8
BLACK
6
CONTINUOUS
10
77.1692
20
-63.3468
11
77.4288
21
-63.1969
0
LINE
8
BLACK
6
CONTINUOUS
10
77.4288
20
-63.1969
11
77.6496
21
-63.158
0
LINE
8
BLACK
6
CONTINUOUS
10
77.6496
20
-63.158
11
77.7984
21
-63.158
0
LINE
8
BLACK
6
CONTINUOUS
10
77.7984
20
-63.158
11
78.0192
21
-63.1969
0
LINE
8
BLACK
6
CONTINUOUS
10
53.4333
20
-61.2038
11
53.7387
21
-61.3801
0
LINE
8
BLACK
6
CONTINUOUS
10
53.7387
20
-61.3801
11
53.9654
21
-61.6503
0
LINE
8
BLACK
6
CONTINUOUS
10
53.9654
20
-61.6503
11
54.086
21
-61.9817
0
LINE
8
BLACK
6
CONTINUOUS
10
54.086
20
-61.9817
11
54.086
21
-62.3343
0
LINE
8
BLACK
6
CONTINUOUS
10
54.086
20
-62.3343
11
53.9654
21
-62.6657
0
LINE
8
BLACK
6
CONTINUOUS
10
53.9654
20
-62.6657
11
53.7387
21
-62.9359
0
LINE
8
BLACK
6
CONTINUOUS
10
53.7387
20
-62.9359
11
53.4333
21
-63.1122
0
LINE
8
BLACK
6
CONTINUOUS
10
53.4333
20
-63.1122
11
53.086
21
-63.1734
0
LINE
8
BLACK
6
CONTINUOUS
10
53.086
20
-63.1734
11
52.7387
21
-63.1122
0
LINE
8
BLACK
6
CONTINUOUS
10
52.7387
20
-63.1122
11
52.4333
21
-62.9359
0
LINE
8
BLACK
6
CONTINUOUS
10
52.4333
20
-62.9359
11
52.2066
21
-62.6657
0
LINE
8
BLACK
6
CONTINUOUS
10
52.2066
20
-62.6657
11
52.086
21
-62.3343
0
LINE
8
BLACK
6
CONTINUOUS
10
52.086
20
-62.3343
11
52.086
21
-61.9817
0
LINE
8
BLACK
6
CONTINUOUS
10
52.086
20
-61.9817
11
52.2066
21
-61.6503
0
LINE
8
BLACK
6
CONTINUOUS
10
52.2066
20
-61.6503
11
52.4333
21
-61.3801
0
LINE
8
BLACK
6
CONTINUOUS
10
52.4333
20
-61.3801
11
52.7387
21
-61.2038
0
LINE
8
BLACK
6
CONTINUOUS
10
52.7387
20
-61.2038
11
53.086
21
-61.1426
0
LINE
8
BLACK
6
CONTINUOUS
10
53.086
20
-61.1426
11
53.4333
21
-61.2038
0
LINE
8
BLACK
6
CONTINUOUS
10
46.9333
20
-61.2038
11
47.2387
21
-61.3801
0
LINE
8
BLACK
6
CONTINUOUS
10
47.2387
20
-61.3801
11
47.4654
21
-61.6503
0
LINE
8
BLACK
6
CONTINUOUS
10
47.4654
20
-61.6503
11
47.586
21
-61.9817
0
LINE
8
BLACK
6
CONTINUOUS
10
47.586
20
-61.9817
11
47.586
21
-62.3343
0
LINE
8
BLACK
6
CONTINUOUS
10
47.586
20
-62.3343
11
47.4654
21
-62.6657
0
LINE
8
BLACK
6
CONTINUOUS
10
47.4654
20
-62.6657
11
47.2387
21
-62.9359
0
LINE
8
BLACK
6
CONTINUOUS
10
47.2387
20
-62.9359
11
46.9333
21
-63.1122
0
LINE
8
BLACK
6
CONTINUOUS
10
46.9333
20
-63.1122
11
46.586
21
-63.1734
0
LINE
8
BLACK
6
CONTINUOUS
10
46.586
20
-63.1734
11
46.2387
21
-63.1122
0
LINE
8
BLACK
6
CONTINUOUS
10
46.2387
20
-63.1122
11
45.9333
21
-62.9359
0
LINE
8
BLACK
6
CONTINUOUS
10
45.9333
20
-62.9359
11
45.7066
21
-62.6657
0
LINE
8
BLACK
6
CONTINUOUS
10
45.7066
20
-62.6657
11
45.586
21
-62.3343
0
LINE
8
BLACK
6
CONTINUOUS
10
45.586
20
-62.3343
11
45.586
21
-61.9817
0
LINE
8
BLACK
6
CONTINUOUS
10
45.586
20
-61.9817
11
45.7066
21
-61.6503
0
LINE
8
BLACK
6
CONTINUOUS
10
45.7066
20
-61.6503
11
45.9333
21
-61.3801
0
LINE
8
BLACK
6
CONTINUOUS
10
45.9333
20
-61.3801
11
46.2387
21
-61.2038
0
LINE
8
BLACK
6
CONTINUOUS
10
46.2387
20
-61.2038
11
46.586
21
-61.1426
0
LINE
8
BLACK
6
CONTINUOUS
10
46.586
20
-61.1426
11
46.9333
21
-61.2038
0
LINE
8
BLACK
6
CONTINUOUS
10
63.4891
20
-61.5621
11
63.7029
21
-61.6855
0
LINE
8
BLACK
6
CONTINUOUS
10
63.7029
20
-61.6855
11
63.8616
21
-61.8746
0
LINE
8
BLACK
6
CONTINUOUS
10
63.8616
20
-61.8746
11
63.946
21
-62.1066
0
LINE
8
BLACK
6
CONTINUOUS
10
63.946
20
-62.1066
11
63.946
21
-62.3534
0
LINE
8
BLACK
6
CONTINUOUS
10
63.946
20
-62.3534
11
63.8616
21
-62.5854
0
LINE
8
BLACK
6
CONTINUOUS
10
63.8616
20
-62.5854
11
63.7029
21
-62.7745
0
LINE
8
BLACK
6
CONTINUOUS
10
63.7029
20
-62.7745
11
63.4891
21
-62.8979
0
LINE
8
BLACK
6
CONTINUOUS
10
63.4891
20
-62.8979
11
63.246
21
-62.9408
0
LINE
8
BLACK
6
CONTINUOUS
10
63.246
20
-62.9408
11
63.0029
21
-62.8979
0
LINE
8
BLACK
6
CONTINUOUS
10
63.0029
20
-62.8979
11
62.7891
21
-62.7745
0
LINE
8
BLACK
6
CONTINUOUS
10
62.7891
20
-62.7745
11
62.6304
21
-62.5854
0
LINE
8
BLACK
6
CONTINUOUS
10
62.6304
20
-62.5854
11
62.546
21
-62.3534
0
LINE
8
BLACK
6
CONTINUOUS
10
62.546
20
-62.3534
11
62.546
21
-62.1066
0
LINE
8
BLACK
6
CONTINUOUS
10
62.546
20
-62.1066
11
62.6304
21
-61.8746
0
LINE
8
BLACK
6
CONTINUOUS
10
62.6304
20
-61.8746
11
62.7891
21
-61.6855
0
LINE
8
BLACK
6
CONTINUOUS
10
62.7891
20
-61.6855
11
63.0029
21
-61.5621
0
LINE
8
BLACK
6
CONTINUOUS
10
63.0029
20
-61.5621
11
63.246
21
-61.5192
0
LINE
8
BLACK
6
CONTINUOUS
10
63.246
20
-61.5192
11
63.4891
21
-61.5621
0
LINE
8
BLACK
6
CONTINUOUS
10
55.8691
20
-61.5621
11
56.0829
21
-61.6855
0
LINE
8
BLACK
6
CONTINUOUS
10
56.0829
20
-61.6855
11
56.2416
21
-61.8746
0
LINE
8
BLACK
6
CONTINUOUS
10
56.2416
20
-61.8746
11
56.326
21
-62.1066
0
LINE
8
BLACK
6
CONTINUOUS
10
56.326
20
-62.1066
11
56.326
21
-62.3534
0
LINE
8
BLACK
6
CONTINUOUS
10
56.326
20
-62.3534
11
56.2416
21
-62.5854
0
LINE
8
BLACK
6
CONTINUOUS
10
56.2416
20
-62.5854
11
56.0829
21
-62.7745
0
LINE
8
BLACK
6
CONTINUOUS
10
56.0829
20
-62.7745
11
55.8691
21
-62.8979
0
LINE
8
BLACK
6
CONTINUOUS
10
55.8691
20
-62.8979
11
55.6872
21
-62.93
0
LINE
8
BLACK
6
CONTINUOUS
10
55.6872
20
-62.93
11
55.5648
21
-62.93
0
LINE
8
BLACK
6
CONTINUOUS
10
55.5648
20
-62.93
11
55.3829
21
-62.8979
0
LINE
8
BLACK
6
CONTINUOUS
10
55.3829
20
-62.8979
11
55.1691
21
-62.7745
0
LINE
8
BLACK
6
CONTINUOUS
10
55.1691
20
-62.7745
11
55.0104
21
-62.5854
0
LINE
8
BLACK
6
CONTINUOUS
10
55.0104
20
-62.5854
11
54.926
21
-62.3534
0
LINE
8
BLACK
6
CONTINUOUS
10
54.926
20
-62.3534
11
54.926
21
-62.1066
0
LINE
8
BLACK
6
CONTINUOUS
10
54.926
20
-62.1066
11
55.0104
21
-61.8746
0
LINE
8
BLACK
6
CONTINUOUS
10
55.0104
20
-61.8746
11
55.1691
21
-61.6855
0
LINE
8
BLACK
6
CONTINUOUS
10
55.1691
20
-61.6855
11
55.3829
21
-61.5621
0
LINE
8
BLACK
6
CONTINUOUS
10
55.3829
20
-61.5621
11
55.5648
21
-61.53
0
LINE
8
BLACK
6
CONTINUOUS
10
55.5648
20
-61.53
11
55.6872
21
-61.53
0
LINE
8
BLACK
6
CONTINUOUS
10
55.6872
20
-61.53
11
55.8691
21
-61.5621
0
LINE
8
BLACK
6
CONTINUOUS
10
78.574
20
-62.318
11
76.874
21
-62.318
0
LINE
8
BLACK
6
CONTINUOUS
10
76.874
20
-62.318
11
76.874
21
-60.618
0
LINE
8
BLACK
6
CONTINUOUS
10
76.874
20
-60.618
11
78.574
21
-60.618
0
LINE
8
BLACK
6
CONTINUOUS
10
78.574
20
-60.618
11
78.574
21
-62.318
0
LINE
8
BLACK
6
CONTINUOUS
10
63.4891
20
-59.0221
11
63.7029
21
-59.1455
0
LINE
8
BLACK
6
CONTINUOUS
10
63.7029
20
-59.1455
11
63.8616
21
-59.3346
0
LINE
8
BLACK
6
CONTINUOUS
10
63.8616
20
-59.3346
11
63.946
21
-59.5666
0
LINE
8
BLACK
6
CONTINUOUS
10
63.946
20
-59.5666
11
63.946
21
-59.8134
0
LINE
8
BLACK
6
CONTINUOUS
10
63.946
20
-59.8134
11
63.8616
21
-60.0454
0
LINE
8
BLACK
6
CONTINUOUS
10
63.8616
20
-60.0454
11
63.7029
21
-60.2345
0
LINE
8
BLACK
6
CONTINUOUS
10
63.7029
20
-60.2345
11
63.4891
21
-60.3579
0
LINE
8
BLACK
6
CONTINUOUS
10
63.4891
20
-60.3579
11
63.246
21
-60.4008
0
LINE
8
BLACK
6
CONTINUOUS
10
63.246
20
-60.4008
11
63.0029
21
-60.3579
0
LINE
8
BLACK
6
CONTINUOUS
10
63.0029
20
-60.3579
11
62.7891
21
-60.2345
0
LINE
8
BLACK
6
CONTINUOUS
10
62.7891
20
-60.2345
11
62.6304
21
-60.0454
0
LINE
8
BLACK
6
CONTINUOUS
10
62.6304
20
-60.0454
11
62.546
21
-59.8134
0
LINE
8
BLACK
6
CONTINUOUS
10
62.546
20
-59.8134
11
62.546
21
-59.5666
0
LINE
8
BLACK
6
CONTINUOUS
10
62.546
20
-59.5666
11
62.6304
21
-59.3346
0
LINE
8
BLACK
6
CONTINUOUS
10
62.6304
20
-59.3346
11
62.7891
21
-59.1455
0
LINE
8
BLACK
6
CONTINUOUS
10
62.7891
20
-59.1455
11
63.0029
21
-59.0221
0
LINE
8
BLACK
6
CONTINUOUS
10
63.0029
20
-59.0221
11
63.246
21
-58.9792
0
LINE
8
BLACK
6
CONTINUOUS
10
63.246
20
-58.9792
11
63.4891
21
-59.0221
0
LINE
8
BLACK
6
CONTINUOUS
10
55.8691
20
-59.0221
11
56.0829
21
-59.1455
0
LINE
8
BLACK
6
CONTINUOUS
10
56.0829
20
-59.1455
11
56.2416
21
-59.3346
0
LINE
8
BLACK
6
CONTINUOUS
10
56.2416
20
-59.3346
11
56.326
21
-59.5666
0
LINE
8
BLACK
6
CONTINUOUS
10
56.326
20
-59.5666
11
56.326
21
-59.8134
0
LINE
8
BLACK
6
CONTINUOUS
10
56.326
20
-59.8134
11
56.2416
21
-60.0454
0
LINE
8
BLACK
6
CONTINUOUS
10
56.2416
20
-60.0454
11
56.0829
21
-60.2345
0
LINE
8
BLACK
6
CONTINUOUS
10
56.0829
20
-60.2345
11
55.8691
21
-60.3579
0
LINE
8
BLACK
6
CONTINUOUS
10
55.8691
20
-60.3579
11
55.6872
21
-60.39
0
LINE
8
BLACK
6
CONTINUOUS
10
55.6872
20
-60.39
11
55.5648
21
-60.39
0
LINE
8
BLACK
6
CONTINUOUS
10
55.5648
20
-60.39
11
55.3829
21
-60.3579
0
LINE
8
BLACK
6
CONTINUOUS
10
55.3829
20
-60.3579
11
55.1691
21
-60.2345
0
LINE
8
BLACK
6
CONTINUOUS
10
55.1691
20
-60.2345
11
55.0104
21
-60.0454
0
LINE
8
BLACK
6
CONTINUOUS
10
55.0104
20
-60.0454
11
54.926
21
-59.8134
0
LINE
8
BLACK
6
CONTINUOUS
10
54.926
20
-59.8134
11
54.926
21
-59.5666
0
LINE
8
BLACK
6
CONTINUOUS
10
54.926
20
-59.5666
11
55.0104
21
-59.3346
0
LINE
8
BLACK
6
CONTINUOUS
10
55.0104
20
-59.3346
11
55.1691
21
-59.1455
0
LINE
8
BLACK
6
CONTINUOUS
10
55.1691
20
-59.1455
11
55.3829
21
-59.0221
0
LINE
8
BLACK
6
CONTINUOUS
10
55.3829
20
-59.0221
11
55.5648
21
-58.99
0
LINE
8
BLACK
6
CONTINUOUS
10
55.5648
20
-58.99
11
55.6872
21
-58.99
0
LINE
8
BLACK
6
CONTINUOUS
10
55.6872
20
-58.99
11
55.8691
21
-59.0221
0
LINE
8
BLACK
6
CONTINUOUS
10
73.9031
20
-58.7681
11
74.1169
21
-58.8915
0
LINE
8
BLACK
6
CONTINUOUS
10
74.1169
20
-58.8915
11
74.2756
21
-59.0806
0
LINE
8
BLACK
6
CONTINUOUS
10
74.2756
20
-59.0806
11
74.36
21
-59.3126
0
LINE
8
BLACK
6
CONTINUOUS
10
74.36
20
-59.3126
11
74.36
21
-59.5594
0
LINE
8
BLACK
6
CONTINUOUS
10
74.36
20
-59.5594
11
74.2756
21
-59.7914
0
LINE
8
BLACK
6
CONTINUOUS
10
74.2756
20
-59.7914
11
74.1169
21
-59.9805
0
LINE
8
BLACK
6
CONTINUOUS
10
74.1169
20
-59.9805
11
73.9031
21
-60.1039
0
LINE
8
BLACK
6
CONTINUOUS
10
73.9031
20
-60.1039
11
73.66
21
-60.1468
0
LINE
8
BLACK
6
CONTINUOUS
10
73.66
20
-60.1468
11
73.4169
21
-60.1039
0
LINE
8
BLACK
6
CONTINUOUS
10
73.4169
20
-60.1039
11
73.2031
21
-59.9805
0
LINE
8
BLACK
6
CONTINUOUS
10
73.2031
20
-59.9805
11
73.0444
21
-59.7914
0
LINE
8
BLACK
6
CONTINUOUS
10
73.0444
20
-59.7914
11
72.96
21
-59.5594
0
LINE
8
BLACK
6
CONTINUOUS
10
72.96
20
-59.5594
11
72.96
21
-59.3126
0
LINE
8
BLACK
6
CONTINUOUS
10
72.96
20
-59.3126
11
73.0444
21
-59.0806
0
LINE
8
BLACK
6
CONTINUOUS
10
73.0444
20
-59.0806
11
73.2031
21
-58.8915
0
LINE
8
BLACK
6
CONTINUOUS
10
73.2031
20
-58.8915
11
73.4169
21
-58.7681
0
LINE
8
BLACK
6
CONTINUOUS
10
73.4169
20
-58.7681
11
73.66
21
-58.7252
0
LINE
8
BLACK
6
CONTINUOUS
10
73.66
20
-58.7252
11
73.9031
21
-58.7681
0
LINE
8
BLACK
6
CONTINUOUS
10
66.2831
20
-58.7681
11
66.4969
21
-58.8915
0
LINE
8
BLACK
6
CONTINUOUS
10
66.4969
20
-58.8915
11
66.6556
21
-59.0806
0
LINE
8
BLACK
6
CONTINUOUS
10
66.6556
20
-59.0806
11
66.74
21
-59.3126
0
LINE
8
BLACK
6
CONTINUOUS
10
66.74
20
-59.3126
11
66.74
21
-59.5594
0
LINE
8
BLACK
6
CONTINUOUS
10
66.74
20
-59.5594
11
66.6556
21
-59.7914
0
LINE
8
BLACK
6
CONTINUOUS
10
66.6556
20
-59.7914
11
66.4969
21
-59.9805
0
LINE
8
BLACK
6
CONTINUOUS
10
66.4969
20
-59.9805
11
66.2831
21
-60.1039
0
LINE
8
BLACK
6
CONTINUOUS
10
66.2831
20
-60.1039
11
66.1012
21
-60.136
0
LINE
8
BLACK
6
CONTINUOUS
10
66.1012
20
-60.136
11
65.9788
21
-60.136
0
LINE
8
BLACK
6
CONTINUOUS
10
65.9788
20
-60.136
11
65.7969
21
-60.1039
0
LINE
8
BLACK
6
CONTINUOUS
10
65.7969
20
-60.1039
11
65.5831
21
-59.9805
0
LINE
8
BLACK
6
CONTINUOUS
10
65.5831
20
-59.9805
11
65.4244
21
-59.7914
0
LINE
8
BLACK
6
CONTINUOUS
10
65.4244
20
-59.7914
11
65.34
21
-59.5594
0
LINE
8
BLACK
6
CONTINUOUS
10
65.34
20
-59.5594
11
65.34
21
-59.3126
0
LINE
8
BLACK
6
CONTINUOUS
10
65.34
20
-59.3126
11
65.4244
21
-59.0806
0
LINE
8
BLACK
6
CONTINUOUS
10
65.4244
20
-59.0806
11
65.5831
21
-58.8915
0
LINE
8
BLACK
6
CONTINUOUS
10
65.5831
20
-58.8915
11
65.7969
21
-58.7681
0
LINE
8
BLACK
6
CONTINUOUS
10
65.7969
20
-58.7681
11
65.9788
21
-58.736
0
LINE
8
BLACK
6
CONTINUOUS
10
65.9788
20
-58.736
11
66.1012
21
-58.736
0
LINE
8
BLACK
6
CONTINUOUS
10
66.1012
20
-58.736
11
66.2831
21
-58.7681
0
LINE
8
BLACK
6
CONTINUOUS
10
53.4333
20
-56.7038
11
53.7387
21
-56.8801
0
LINE
8
BLACK
6
CONTINUOUS
10
53.7387
20
-56.8801
11
53.9654
21
-57.1503
0
LINE
8
BLACK
6
CONTINUOUS
10
53.9654
20
-57.1503
11
54.086
21
-57.4817
0
LINE
8
BLACK
6
CONTINUOUS
10
54.086
20
-57.4817
11
54.086
21
-57.8343
0
LINE
8
BLACK
6
CONTINUOUS
10
54.086
20
-57.8343
11
53.9654
21
-58.1657
0
LINE
8
BLACK
6
CONTINUOUS
10
53.9654
20
-58.1657
11
53.7387
21
-58.4359
0
LINE
8
BLACK
6
CONTINUOUS
10
53.7387
20
-58.4359
11
53.4333
21
-58.6122
0
LINE
8
BLACK
6
CONTINUOUS
10
53.4333
20
-58.6122
11
53.086
21
-58.6734
0
LINE
8
BLACK
6
CONTINUOUS
10
53.086
20
-58.6734
11
52.7387
21
-58.6122
0
LINE
8
BLACK
6
CONTINUOUS
10
52.7387
20
-58.6122
11
52.4333
21
-58.4359
0
LINE
8
BLACK
6
CONTINUOUS
10
52.4333
20
-58.4359
11
52.2066
21
-58.1657
0
LINE
8
BLACK
6
CONTINUOUS
10
52.2066
20
-58.1657
11
52.086
21
-57.8343
0
LINE
8
BLACK
6
CONTINUOUS
10
52.086
20
-57.8343
11
52.086
21
-57.4817
0
LINE
8
BLACK
6
CONTINUOUS
10
52.086
20
-57.4817
11
52.2066
21
-57.1503
0
LINE
8
BLACK
6
CONTINUOUS
10
52.2066
20
-57.1503
11
52.4333
21
-56.8801
0
LINE
8
BLACK
6
CONTINUOUS
10
52.4333
20
-56.8801
11
52.7387
21
-56.7038
0
LINE
8
BLACK
6
CONTINUOUS
10
52.7387
20
-56.7038
11
53.086
21
-56.6426
0
LINE
8
BLACK
6
CONTINUOUS
10
53.086
20
-56.6426
11
53.4333
21
-56.7038
0
LINE
8
BLACK
6
CONTINUOUS
10
46.9333
20
-56.7038
11
47.2387
21
-56.8801
0
LINE
8
BLACK
6
CONTINUOUS
10
47.2387
20
-56.8801
11
47.4654
21
-57.1503
0
LINE
8
BLACK
6
CONTINUOUS
10
47.4654
20
-57.1503
11
47.586
21
-57.4817
0
LINE
8
BLACK
6
CONTINUOUS
10
47.586
20
-57.4817
11
47.586
21
-57.8343
0
LINE
8
BLACK
6
CONTINUOUS
10
47.586
20
-57.8343
11
47.4654
21
-58.1657
0
LINE
8
BLACK
6
CONTINUOUS
10
47.4654
20
-58.1657
11
47.2387
21
-58.4359
0
LINE
8
BLACK
6
CONTINUOUS
10
47.2387
20
-58.4359
11
46.9333
21
-58.6122
0
LINE
8
BLACK
6
CONTINUOUS
10
46.9333
20
-58.6122
11
46.586
21
-58.6734
0
LINE
8
BLACK
6
CONTINUOUS
10
46.586
20
-58.6734
11
46.2387
21
-58.6122
0
LINE
8
BLACK
6
CONTINUOUS
10
46.2387
20
-58.6122
11
45.9333
21
-58.4359
0
LINE
8
BLACK
6
CONTINUOUS
10
45.9333
20
-58.4359
11
45.7066
21
-58.1657
0
LINE
8
BLACK
6
CONTINUOUS
10
45.7066
20
-58.1657
11
45.586
21
-57.8343
0
LINE
8
BLACK
6
CONTINUOUS
10
45.586
20
-57.8343
11
45.586
21
-57.4817
0
LINE
8
BLACK
6
CONTINUOUS
10
45.586
20
-57.4817
11
45.7066
21
-57.1503
0
LINE
8
BLACK
6
CONTINUOUS
10
45.7066
20
-57.1503
11
45.9333
21
-56.8801
0
LINE
8
BLACK
6
CONTINUOUS
10
45.9333
20
-56.8801
11
46.2387
21
-56.7038
0
LINE
8
BLACK
6
CONTINUOUS
10
46.2387
20
-56.7038
11
46.586
21
-56.6426
0
LINE
8
BLACK
6
CONTINUOUS
10
46.586
20
-56.6426
11
46.9333
21
-56.7038
0
LINE
8
BLACK
6
CONTINUOUS
10
55.9838
20
-56.3866
11
56.2282
21
-56.5277
0
LINE
8
BLACK
6
CONTINUOUS
10
56.2282
20
-56.5277
11
56.4095
21
-56.7438
0
LINE
8
BLACK
6
CONTINUOUS
10
56.4095
20
-56.7438
11
56.506
21
-57.0089
0
LINE
8
BLACK
6
CONTINUOUS
10
56.506
20
-57.0089
11
56.506
21
-57.2911
0
LINE
8
BLACK
6
CONTINUOUS
10
56.506
20
-57.2911
11
56.4095
21
-57.5562
0
LINE
8
BLACK
6
CONTINUOUS
10
56.4095
20
-57.5562
11
56.2282
21
-57.7723
0
LINE
8
BLACK
6
CONTINUOUS
10
56.2282
20
-57.7723
11
55.9838
21
-57.9134
0
LINE
8
BLACK
6
CONTINUOUS
10
55.9838
20
-57.9134
11
55.706
21
-57.9623
0
LINE
8
BLACK
6
CONTINUOUS
10
55.706
20
-57.9623
11
55.4282
21
-57.9134
0
LINE
8
BLACK
6
CONTINUOUS
10
55.4282
20
-57.9134
11
55.1838
21
-57.7723
0
LINE
8
BLACK
6
CONTINUOUS
10
55.1838
20
-57.7723
11
55.0025
21
-57.5562
0
LINE
8
BLACK
6
CONTINUOUS
10
55.0025
20
-57.5562
11
54.906
21
-57.2911
0
LINE
8
BLACK
6
CONTINUOUS
10
54.906
20
-57.2911
11
54.906
21
-57.0089
0
LINE
8
BLACK
6
CONTINUOUS
10
54.906
20
-57.0089
11
55.0025
21
-56.7438
0
LINE
8
BLACK
6
CONTINUOUS
10
55.0025
20
-56.7438
11
55.1838
21
-56.5277
0
LINE
8
BLACK
6
CONTINUOUS
10
55.1838
20
-56.5277
11
55.4282
21
-56.3866
0
LINE
8
BLACK
6
CONTINUOUS
10
55.4282
20
-56.3866
11
55.706
21
-56.3377
0
LINE
8
BLACK
6
CONTINUOUS
10
55.706
20
-56.3377
11
55.9838
21
-56.3866
0
LINE
8
BLACK
6
CONTINUOUS
10
60.9838
20
-56.3866
11
61.2282
21
-56.5277
0
LINE
8
BLACK
6
CONTINUOUS
10
61.2282
20
-56.5277
11
61.4095
21
-56.7438
0
LINE
8
BLACK
6
CONTINUOUS
10
61.4095
20
-56.7438
11
61.506
21
-57.0089
0
LINE
8
BLACK
6
CONTINUOUS
10
61.506
20
-57.0089
11
61.506
21
-57.2911
0
LINE
8
BLACK
6
CONTINUOUS
10
61.506
20
-57.2911
11
61.4095
21
-57.5562
0
LINE
8
BLACK
6
CONTINUOUS
10
61.4095
20
-57.5562
11
61.2282
21
-57.7723
0
LINE
8
BLACK
6
CONTINUOUS
10
61.2282
20
-57.7723
11
60.9838
21
-57.9134
0
LINE
8
BLACK
6
CONTINUOUS
10
60.9838
20
-57.9134
11
60.706
21
-57.9623
0
LINE
8
BLACK
6
CONTINUOUS
10
60.706
20
-57.9623
11
60.4282
21
-57.9134
0
LINE
8
BLACK
6
CONTINUOUS
10
60.4282
20
-57.9134
11
60.1838
21
-57.7723
0
LINE
8
BLACK
6
CONTINUOUS
10
60.1838
20
-57.7723
11
60.0025
21
-57.5562
0
LINE
8
BLACK
6
CONTINUOUS
10
60.0025
20
-57.5562
11
59.906
21
-57.2911
0
LINE
8
BLACK
6
CONTINUOUS
10
59.906
20
-57.2911
11
59.906
21
-57.0089
0
LINE
8
BLACK
6
CONTINUOUS
10
59.906
20
-57.0089
11
60.0025
21
-56.7438
0
LINE
8
BLACK
6
CONTINUOUS
10
60.0025
20
-56.7438
11
60.1838
21
-56.5277
0
LINE
8
BLACK
6
CONTINUOUS
10
60.1838
20
-56.5277
11
60.4282
21
-56.3866
0
LINE
8
BLACK
6
CONTINUOUS
10
60.4282
20
-56.3866
11
60.706
21
-56.3377
0
LINE
8
BLACK
6
CONTINUOUS
10
60.706
20
-56.3377
11
60.9838
21
-56.3866
0
LINE
8
BLACK
6
CONTINUOUS
10
75.1731
20
-56.4821
11
75.3869
21
-56.6055
0
LINE
8
BLACK
6
CONTINUOUS
10
75.3869
20
-56.6055
11
75.5456
21
-56.7946
0
LINE
8
BLACK
6
CONTINUOUS
10
75.5456
20
-56.7946
11
75.63
21
-57.0266
0
LINE
8
BLACK
6
CONTINUOUS
10
75.63
20
-57.0266
11
75.63
21
-57.2734
0
LINE
8
BLACK
6
CONTINUOUS
10
75.63
20
-57.2734
11
75.5456
21
-57.5054
0
LINE
8
BLACK
6
CONTINUOUS
10
75.5456
20
-57.5054
11
75.3869
21
-57.6945
0
LINE
8
BLACK
6
CONTINUOUS
10
75.3869
20
-57.6945
11
75.1731
21
-57.8179
0
LINE
8
BLACK
6
CONTINUOUS
10
75.1731
20
-57.8179
11
74.9912
21
-57.85
0
LINE
8
BLACK
6
CONTINUOUS
10
74.9912
20
-57.85
11
74.8688
21
-57.85
0
LINE
8
BLACK
6
CONTINUOUS
10
74.8688
20
-57.85
11
74.6869
21
-57.8179
0
LINE
8
BLACK
6
CONTINUOUS
10
74.6869
20
-57.8179
11
74.4731
21
-57.6945
0
LINE
8
BLACK
6
CONTINUOUS
10
74.4731
20
-57.6945
11
74.3144
21
-57.5054
0
LINE
8
BLACK
6
CONTINUOUS
10
74.3144
20
-57.5054
11
74.23
21
-57.2734
0
LINE
8
BLACK
6
CONTINUOUS
10
74.23
20
-57.2734
11
74.23
21
-57.0266
0
LINE
8
BLACK
6
CONTINUOUS
10
74.23
20
-57.0266
11
74.3144
21
-56.7946
0
LINE
8
BLACK
6
CONTINUOUS
10
74.3144
20
-56.7946
11
74.4731
21
-56.6055
0
LINE
8
BLACK
6
CONTINUOUS
10
74.4731
20
-56.6055
11
74.6869
21
-56.4821
0
LINE
8
BLACK
6
CONTINUOUS
10
74.6869
20
-56.4821
11
74.8688
21
-56.45
0
LINE
8
BLACK
6
CONTINUOUS
10
74.8688
20
-56.45
11
74.9912
21
-56.45
0
LINE
8
BLACK
6
CONTINUOUS
10
74.9912
20
-56.45
11
75.1731
21
-56.4821
0
LINE
8
BLACK
6
CONTINUOUS
10
65.0131
20
-56.4821
11
65.2269
21
-56.6055
0
LINE
8
BLACK
6
CONTINUOUS
10
65.2269
20
-56.6055
11
65.3856
21
-56.7946
0
LINE
8
BLACK
6
CONTINUOUS
10
65.3856
20
-56.7946
11
65.47
21
-57.0266
0
LINE
8
BLACK
6
CONTINUOUS
10
65.47
20
-57.0266
11
65.47
21
-57.2734
0
LINE
8
BLACK
6
CONTINUOUS
10
65.47
20
-57.2734
11
65.3856
21
-57.5054
0
LINE
8
BLACK
6
CONTINUOUS
10
65.3856
20
-57.5054
11
65.2269
21
-57.6945
0
LINE
8
BLACK
6
CONTINUOUS
10
65.2269
20
-57.6945
11
65.0131
21
-57.8179
0
LINE
8
BLACK
6
CONTINUOUS
10
65.0131
20
-57.8179
11
64.8312
21
-57.85
0
LINE
8
BLACK
6
CONTINUOUS
10
64.8312
20
-57.85
11
64.7088
21
-57.85
0
LINE
8
BLACK
6
CONTINUOUS
10
64.7088
20
-57.85
11
64.5269
21
-57.8179
0
LINE
8
BLACK
6
CONTINUOUS
10
64.5269
20
-57.8179
11
64.3131
21
-57.6945
0
LINE
8
BLACK
6
CONTINUOUS
10
64.3131
20
-57.6945
11
64.1544
21
-57.5054
0
LINE
8
BLACK
6
CONTINUOUS
10
64.1544
20
-57.5054
11
64.07
21
-57.2734
0
LINE
8
BLACK
6
CONTINUOUS
10
64.07
20
-57.2734
11
64.07
21
-57.0266
0
LINE
8
BLACK
6
CONTINUOUS
10
64.07
20
-57.0266
11
64.1544
21
-56.7946
0
LINE
8
BLACK
6
CONTINUOUS
10
64.1544
20
-56.7946
11
64.3131
21
-56.6055
0
LINE
8
BLACK
6
CONTINUOUS
10
64.3131
20
-56.6055
11
64.5269
21
-56.4821
0
LINE
8
BLACK
6
CONTINUOUS
10
64.5269
20
-56.4821
11
64.7088
21
-56.45
0
LINE
8
BLACK
6
CONTINUOUS
10
64.7088
20
-56.45
11
64.8312
21
-56.45
0
LINE
8
BLACK
6
CONTINUOUS
10
64.8312
20
-56.45
11
65.0131
21
-56.4821
0
LINE
8
BLACK
6
CONTINUOUS
10
67.5531
20
-56.4821
11
67.7669
21
-56.6055
0
LINE
8
BLACK
6
CONTINUOUS
10
67.7669
20
-56.6055
11
67.9256
21
-56.7946
0
LINE
8
BLACK
6
CONTINUOUS
10
67.9256
20
-56.7946
11
68.01
21
-57.0266
0
LINE
8
BLACK
6
CONTINUOUS
10
68.01
20
-57.0266
11
68.01
21
-57.2734
0
LINE
8
BLACK
6
CONTINUOUS
10
68.01
20
-57.2734
11
67.9256
21
-57.5054
0
LINE
8
BLACK
6
CONTINUOUS
10
67.9256
20
-57.5054
11
67.7669
21
-57.6945
0
LINE
8
BLACK
6
CONTINUOUS
10
67.7669
20
-57.6945
11
67.5531
21
-57.8179
0
LINE
8
BLACK
6
CONTINUOUS
10
67.5531
20
-57.8179
11
67.3712
21
-57.85
0
LINE
8
BLACK
6
CONTINUOUS
10
67.3712
20
-57.85
11
67.2488
21
-57.85
0
LINE
8
BLACK
6
CONTINUOUS
10
67.2488
20
-57.85
11
67.0669
21
-57.8179
0
LINE
8
BLACK
6
CONTINUOUS
10
67.0669
20
-57.8179
11
66.8531
21
-57.6945
0
LINE
8
BLACK
6
CONTINUOUS
10
66.8531
20
-57.6945
11
66.6944
21
-57.5054
0
LINE
8
BLACK
6
CONTINUOUS
10
66.6944
20
-57.5054
11
66.61
21
-57.2734
0
LINE
8
BLACK
6
CONTINUOUS
10
66.61
20
-57.2734
11
66.61
21
-57.0266
0
LINE
8
BLACK
6
CONTINUOUS
10
66.61
20
-57.0266
11
66.6944
21
-56.7946
0
LINE
8
BLACK
6
CONTINUOUS
10
66.6944
20
-56.7946
11
66.8531
21
-56.6055
0
LINE
8
BLACK
6
CONTINUOUS
10
66.8531
20
-56.6055
11
67.0669
21
-56.4821
0
LINE
8
BLACK
6
CONTINUOUS
10
67.0669
20
-56.4821
11
67.2488
21
-56.45
0
LINE
8
BLACK
6
CONTINUOUS
10
67.2488
20
-56.45
11
67.3712
21
-56.45
0
LINE
8
BLACK
6
CONTINUOUS
10
67.3712
20
-56.45
11
67.5531
21
-56.4821
0
LINE
8
BLACK
6
CONTINUOUS
10
18.924
20
-53.8144
11
19.26
21
-54.0084
0
LINE
8
BLACK
6
CONTINUOUS
10
19.26
20
-54.0084
11
19.5093
21
-54.3055
0
LINE
8
BLACK
6
CONTINUOUS
10
19.5093
20
-54.3055
11
19.642
21
-54.67
0
LINE
8
BLACK
6
CONTINUOUS
10
19.642
20
-54.67
11
19.642
21
-55.058
0
LINE
8
BLACK
6
CONTINUOUS
10
19.642
20
-55.058
11
19.5093
21
-55.4225
0
LINE
8
BLACK
6
CONTINUOUS
10
19.5093
20
-55.4225
11
19.26
21
-55.7196
0
LINE
8
BLACK
6
CONTINUOUS
10
19.26
20
-55.7196
11
18.924
21
-55.9136
0
LINE
8
BLACK
6
CONTINUOUS
10
18.924
20
-55.9136
11
18.542
21
-55.981
0
LINE
8
BLACK
6
CONTINUOUS
10
18.542
20
-55.981
11
18.16
21
-55.9136
0
LINE
8
BLACK
6
CONTINUOUS
10
18.16
20
-55.9136
11
17.824
21
-55.7196
0
LINE
8
BLACK
6
CONTINUOUS
10
17.824
20
-55.7196
11
17.5747
21
-55.4225
0
LINE
8
BLACK
6
CONTINUOUS
10
17.5747
20
-55.4225
11
17.442
21
-55.058
0
LINE
8
BLACK
6
CONTINUOUS
10
17.442
20
-55.058
11
17.442
21
-54.67
0
LINE
8
BLACK
6
CONTINUOUS
10
17.442
20
-54.67
11
17.5747
21
-54.3055
0
LINE
8
BLACK
6
CONTINUOUS
10
17.5747
20
-54.3055
11
17.824
21
-54.0084
0
LINE
8
BLACK
6
CONTINUOUS
10
17.824
20
-54.0084
11
18.16
21
-53.8144
0
LINE
8
BLACK
6
CONTINUOUS
10
18.16
20
-53.8144
11
18.542
21
-53.747
0
LINE
8
BLACK
6
CONTINUOUS
10
18.542
20
-53.747
11
18.924
21
-53.8144
0
LINE
8
BLACK
6
CONTINUOUS
10
54.3451
20
-53.9421
11
54.5589
21
-54.0655
0
LINE
8
BLACK
6
CONTINUOUS
10
54.5589
20
-54.0655
11
54.7176
21
-54.2546
0
LINE
8
BLACK
6
CONTINUOUS
10
54.7176
20
-54.2546
11
54.802
21
-54.4866
0
LINE
8
BLACK
6
CONTINUOUS
10
54.802
20
-54.4866
11
54.802
21
-54.7334
0
LINE
8
BLACK
6
CONTINUOUS
10
54.802
20
-54.7334
11
54.7176
21
-54.9654
0
LINE
8
BLACK
6
CONTINUOUS
10
54.7176
20
-54.9654
11
54.5589
21
-55.1545
0
LINE
8
BLACK
6
CONTINUOUS
10
54.5589
20
-55.1545
11
54.3451
21
-55.2779
0
LINE
8
BLACK
6
CONTINUOUS
10
54.3451
20
-55.2779
11
54.102
21
-55.3208
0
LINE
8
BLACK
6
CONTINUOUS
10
54.102
20
-55.3208
11
53.8589
21
-55.2779
0
LINE
8
BLACK
6
CONTINUOUS
10
53.8589
20
-55.2779
11
53.6451
21
-55.1545
0
LINE
8
BLACK
6
CONTINUOUS
10
53.6451
20
-55.1545
11
53.4864
21
-54.9654
0
LINE
8
BLACK
6
CONTINUOUS
10
53.4864
20
-54.9654
11
53.402
21
-54.7334
0
LINE
8
BLACK
6
CONTINUOUS
10
53.402
20
-54.7334
11
53.402
21
-54.4866
0
LINE
8
BLACK
6
CONTINUOUS
10
53.402
20
-54.4866
11
53.4864
21
-54.2546
0
LINE
8
BLACK
6
CONTINUOUS
10
53.4864
20
-54.2546
11
53.6451
21
-54.0655
0
LINE
8
BLACK
6
CONTINUOUS
10
53.6451
20
-54.0655
11
53.8589
21
-53.9421
0
LINE
8
BLACK
6
CONTINUOUS
10
53.8589
20
-53.9421
11
54.102
21
-53.8992
0
LINE
8
BLACK
6
CONTINUOUS
10
54.102
20
-53.8992
11
54.3451
21
-53.9421
0
LINE
8
BLACK
6
CONTINUOUS
10
46.7251
20
-53.9421
11
46.9389
21
-54.0655
0
LINE
8
BLACK
6
CONTINUOUS
10
46.9389
20
-54.0655
11
47.0976
21
-54.2546
0
LINE
8
BLACK
6
CONTINUOUS
10
47.0976
20
-54.2546
11
47.182
21
-54.4866
0
LINE
8
BLACK
6
CONTINUOUS
10
47.182
20
-54.4866
11
47.182
21
-54.7334
0
LINE
8
BLACK
6
CONTINUOUS
10
47.182
20
-54.7334
11
47.0976
21
-54.9654
0
LINE
8
BLACK
6
CONTINUOUS
10
47.0976
20
-54.9654
11
46.9389
21
-55.1545
0
LINE
8
BLACK
6
CONTINUOUS
10
46.9389
20
-55.1545
11
46.7251
21
-55.2779
0
LINE
8
BLACK
6
CONTINUOUS
10
46.7251
20
-55.2779
11
46.5432
21
-55.31
0
LINE
8
BLACK
6
CONTINUOUS
10
46.5432
20
-55.31
11
46.4208
21
-55.31
0
LINE
8
BLACK
6
CONTINUOUS
10
46.4208
20
-55.31
11
46.2389
21
-55.2779
0
LINE
8
BLACK
6
CONTINUOUS
10
46.2389
20
-55.2779
11
46.0251
21
-55.1545
0
LINE
8
BLACK
6
CONTINUOUS
10
46.0251
20
-55.1545
11
45.8664
21
-54.9654
0
LINE
8
BLACK
6
CONTINUOUS
10
45.8664
20
-54.9654
11
45.782
21
-54.7334
0
LINE
8
BLACK
6
CONTINUOUS
10
45.782
20
-54.7334
11
45.782
21
-54.4866
0
LINE
8
BLACK
6
CONTINUOUS
10
45.782
20
-54.4866
11
45.8664
21
-54.2546
0
LINE
8
BLACK
6
CONTINUOUS
10
45.8664
20
-54.2546
11
46.0251
21
-54.0655
0
LINE
8
BLACK
6
CONTINUOUS
10
46.0251
20
-54.0655
11
46.2389
21
-53.9421
0
LINE
8
BLACK
6
CONTINUOUS
10
46.2389
20
-53.9421
11
46.4208
21
-53.91
0
LINE
8
BLACK
6
CONTINUOUS
10
46.4208
20
-53.91
11
46.5432
21
-53.91
0
LINE
8
BLACK
6
CONTINUOUS
10
46.5432
20
-53.91
11
46.7251
21
-53.9421
0
LINE
8
BLACK
6
CONTINUOUS
10
36.4897
20
-52.0393
11
36.9783
21
-52.3214
0
LINE
8
BLACK
6
CONTINUOUS
10
36.9783
20
-52.3214
11
37.341
21
-52.7537
0
LINE
8
BLACK
6
CONTINUOUS
10
37.341
20
-52.7537
11
37.534
21
-53.2839
0
LINE
8
BLACK
6
CONTINUOUS
10
37.534
20
-53.2839
11
37.534
21
-53.8481
0
LINE
8
BLACK
6
CONTINUOUS
10
37.534
20
-53.8481
11
37.341
21
-54.3783
0
LINE
8
BLACK
6
CONTINUOUS
10
37.341
20
-54.3783
11
36.9783
21
-54.8106
0
LINE
8
BLACK
6
CONTINUOUS
10
36.9783
20
-54.8106
11
36.4897
21
-55.0927
0
LINE
8
BLACK
6
CONTINUOUS
10
36.4897
20
-55.0927
11
35.934
21
-55.1907
0
LINE
8
BLACK
6
CONTINUOUS
10
35.934
20
-55.1907
11
35.3783
21
-55.0927
0
LINE
8
BLACK
6
CONTINUOUS
10
35.3783
20
-55.0927
11
34.8897
21
-54.8106
0
LINE
8
BLACK
6
CONTINUOUS
10
34.8897
20
-54.8106
11
34.527
21
-54.3783
0
LINE
8
BLACK
6
CONTINUOUS
10
34.527
20
-54.3783
11
34.334
21
-53.8481
0
LINE
8
BLACK
6
CONTINUOUS
10
34.334
20
-53.8481
11
34.334
21
-53.2839
0
LINE
8
BLACK
6
CONTINUOUS
10
34.334
20
-53.2839
11
34.527
21
-52.7537
0
LINE
8
BLACK
6
CONTINUOUS
10
34.527
20
-52.7537
11
34.8897
21
-52.3214
0
LINE
8
BLACK
6
CONTINUOUS
10
34.8897
20
-52.3214
11
35.3783
21
-52.0393
0
LINE
8
BLACK
6
CONTINUOUS
10
35.3783
20
-52.0393
11
35.934
21
-51.9413
0
LINE
8
BLACK
6
CONTINUOUS
10
35.934
20
-51.9413
11
36.4897
21
-52.0393
0
LINE
8
BLACK
6
CONTINUOUS
10
79.0178
20
-51.3066
11
79.2622
21
-51.4477
0
LINE
8
BLACK
6
CONTINUOUS
10
79.2622
20
-51.4477
11
79.4435
21
-51.6638
0
LINE
8
BLACK
6
CONTINUOUS
10
79.4435
20
-51.6638
11
79.54
21
-51.9289
0
LINE
8
BLACK
6
CONTINUOUS
10
79.54
20
-51.9289
11
79.54
21
-52.2111
0
LINE
8
BLACK
6
CONTINUOUS
10
79.54
20
-52.2111
11
79.4435
21
-52.4762
0
LINE
8
BLACK
6
CONTINUOUS
10
79.4435
20
-52.4762
11
79.2622
21
-52.6923
0
LINE
8
BLACK
6
CONTINUOUS
10
79.2622
20
-52.6923
11
79.0178
21
-52.8334
0
LINE
8
BLACK
6
CONTINUOUS
10
79.0178
20
-52.8334
11
78.81
21
-52.87
0
LINE
8
BLACK
6
CONTINUOUS
10
78.81
20
-52.87
11
78.67
21
-52.87
0
LINE
8
BLACK
6
CONTINUOUS
10
78.67
20
-52.87
11
78.4622
21
-52.8334
0
LINE
8
BLACK
6
CONTINUOUS
10
78.4622
20
-52.8334
11
78.2178
21
-52.6923
0
LINE
8
BLACK
6
CONTINUOUS
10
78.2178
20
-52.6923
11
78.0365
21
-52.4762
0
LINE
8
BLACK
6
CONTINUOUS
10
78.0365
20
-52.4762
11
77.94
21
-52.2111
0
LINE
8
BLACK
6
CONTINUOUS
10
77.94
20
-52.2111
11
77.94
21
-51.9289
0
LINE
8
BLACK
6
CONTINUOUS
10
77.94
20
-51.9289
11
78.0365
21
-51.6638
0
LINE
8
BLACK
6
CONTINUOUS
10
78.0365
20
-51.6638
11
78.2178
21
-51.4477
0
LINE
8
BLACK
6
CONTINUOUS
10
78.2178
20
-51.4477
11
78.4622
21
-51.3066
0
LINE
8
BLACK
6
CONTINUOUS
10
78.4622
20
-51.3066
11
78.67
21
-51.27
0
LINE
8
BLACK
6
CONTINUOUS
10
78.67
20
-51.27
11
78.81
21
-51.27
0
LINE
8
BLACK
6
CONTINUOUS
10
78.81
20
-51.27
11
79.0178
21
-51.3066
0
LINE
8
BLACK
6
CONTINUOUS
10
76.4778
20
-51.3066
11
76.7222
21
-51.4477
0
LINE
8
BLACK
6
CONTINUOUS
10
76.7222
20
-51.4477
11
76.9035
21
-51.6638
0
LINE
8
BLACK
6
CONTINUOUS
10
76.9035
20
-51.6638
11
77
21
-51.9289
0
LINE
8
BLACK
6
CONTINUOUS
10
77
20
-51.9289
11
77
21
-52.2111
0
LINE
8
BLACK
6
CONTINUOUS
10
77
20
-52.2111
11
76.9035
21
-52.4762
0
LINE
8
BLACK
6
CONTINUOUS
10
76.9035
20
-52.4762
11
76.7222
21
-52.6923
0
LINE
8
BLACK
6
CONTINUOUS
10
76.7222
20
-52.6923
11
76.4778
21
-52.8334
0
LINE
8
BLACK
6
CONTINUOUS
10
76.4778
20
-52.8334
11
76.27
21
-52.87
0
LINE
8
BLACK
6
CONTINUOUS
10
76.27
20
-52.87
11
76.13
21
-52.87
0
LINE
8
BLACK
6
CONTINUOUS
10
76.13
20
-52.87
11
75.9222
21
-52.8334
0
LINE
8
BLACK
6
CONTINUOUS
10
75.9222
20
-52.8334
11
75.6778
21
-52.6923
0
LINE
8
BLACK
6
CONTINUOUS
10
75.6778
20
-52.6923
11
75.4965
21
-52.4762
0
LINE
8
BLACK
6
CONTINUOUS
10
75.4965
20
-52.4762
11
75.4
21
-52.2111
0
LINE
8
BLACK
6
CONTINUOUS
10
75.4
20
-52.2111
11
75.4
21
-51.9289
0
LINE
8
BLACK
6
CONTINUOUS
10
75.4
20
-51.9289
11
75.4965
21
-51.6638
0
LINE
8
BLACK
6
CONTINUOUS
10
75.4965
20
-51.6638
11
75.6778
21
-51.4477
0
LINE
8
BLACK
6
CONTINUOUS
10
75.6778
20
-51.4477
11
75.9222
21
-51.3066
0
LINE
8
BLACK
6
CONTINUOUS
10
75.9222
20
-51.3066
11
76.13
21
-51.27
0
LINE
8
BLACK
6
CONTINUOUS
10
76.13
20
-51.27
11
76.27
21
-51.27
0
LINE
8
BLACK
6
CONTINUOUS
10
76.27
20
-51.27
11
76.4778
21
-51.3066
0
LINE
8
BLACK
6
CONTINUOUS
10
73.9378
20
-51.3066
11
74.1822
21
-51.4477
0
LINE
8
BLACK
6
CONTINUOUS
10
74.1822
20
-51.4477
11
74.3635
21
-51.6638
0
LINE
8
BLACK
6
CONTINUOUS
10
74.3635
20
-51.6638
11
74.46
21
-51.9289
0
LINE
8
BLACK
6
CONTINUOUS
10
74.46
20
-51.9289
11
74.46
21
-52.2111
0
LINE
8
BLACK
6
CONTINUOUS
10
74.46
20
-52.2111
11
74.3635
21
-52.4762
0
LINE
8
BLACK
6
CONTINUOUS
10
74.3635
20
-52.4762
11
74.1822
21
-52.6923
0
LINE
8
BLACK
6
CONTINUOUS
10
74.1822
20
-52.6923
11
73.9378
21
-52.8334
0
LINE
8
BLACK
6
CONTINUOUS
10
73.9378
20
-52.8334
11
73.73
21
-52.87
0
LINE
8
BLACK
6
CONTINUOUS
10
73.73
20
-52.87
11
73.59
21
-52.87
0
LINE
8
BLACK
6
CONTINUOUS
10
73.59
20
-52.87
11
73.3822
21
-52.8334
0
LINE
8
BLACK
6
CONTINUOUS
10
73.3822
20
-52.8334
11
73.1378
21
-52.6923
0
LINE
8
BLACK
6
CONTINUOUS
10
73.1378
20
-52.6923
11
72.9565
21
-52.4762
0
LINE
8
BLACK
6
CONTINUOUS
10
72.9565
20
-52.4762
11
72.86
21
-52.2111
0
LINE
8
BLACK
6
CONTINUOUS
10
72.86
20
-52.2111
11
72.86
21
-51.9289
0
LINE
8
BLACK
6
CONTINUOUS
10
72.86
20
-51.9289
11
72.9565
21
-51.6638
0
LINE
8
BLACK
6
CONTINUOUS
10
72.9565
20
-51.6638
11
73.1378
21
-51.4477
0
LINE
8
BLACK
6
CONTINUOUS
10
73.1378
20
-51.4477
11
73.3822
21
-51.3066
0
LINE
8
BLACK
6
CONTINUOUS
10
73.3822
20
-51.3066
11
73.59
21
-51.27
0
LINE
8
BLACK
6
CONTINUOUS
10
73.59
20
-51.27
11
73.73
21
-51.27
0
LINE
8
BLACK
6
CONTINUOUS
10
73.73
20
-51.27
11
73.9378
21
-51.3066
0
LINE
8
BLACK
6
CONTINUOUS
10
71.3978
20
-51.3066
11
71.6422
21
-51.4477
0
LINE
8
BLACK
6
CONTINUOUS
10
71.6422
20
-51.4477
11
71.8235
21
-51.6638
0
LINE
8
BLACK
6
CONTINUOUS
10
71.8235
20
-51.6638
11
71.92
21
-51.9289
0
LINE
8
BLACK
6
CONTINUOUS
10
71.92
20
-51.9289
11
71.92
21
-52.2111
0
LINE
8
BLACK
6
CONTINUOUS
10
71.92
20
-52.2111
11
71.8235
21
-52.4762
0
LINE
8
BLACK
6
CONTINUOUS
10
71.8235
20
-52.4762
11
71.6422
21
-52.6923
0
LINE
8
BLACK
6
CONTINUOUS
10
71.6422
20
-52.6923
11
71.3978
21
-52.8334
0
LINE
8
BLACK
6
CONTINUOUS
10
71.3978
20
-52.8334
11
71.19
21
-52.87
0
LINE
8
BLACK
6
CONTINUOUS
10
71.19
20
-52.87
11
71.05
21
-52.87
0
LINE
8
BLACK
6
CONTINUOUS
10
71.05
20
-52.87
11
70.8422
21
-52.8334
0
LINE
8
BLACK
6
CONTINUOUS
10
70.8422
20
-52.8334
11
70.5978
21
-52.6923
0
LINE
8
BLACK
6
CONTINUOUS
10
70.5978
20
-52.6923
11
70.4165
21
-52.4762
0
LINE
8
BLACK
6
CONTINUOUS
10
70.4165
20
-52.4762
11
70.32
21
-52.2111
0
LINE
8
BLACK
6
CONTINUOUS
10
70.32
20
-52.2111
11
70.32
21
-51.9289
0
LINE
8
BLACK
6
CONTINUOUS
10
70.32
20
-51.9289
11
70.4165
21
-51.6638
0
LINE
8
BLACK
6
CONTINUOUS
10
70.4165
20
-51.6638
11
70.5978
21
-51.4477
0
LINE
8
BLACK
6
CONTINUOUS
10
70.5978
20
-51.4477
11
70.8422
21
-51.3066
0
LINE
8
BLACK
6
CONTINUOUS
10
70.8422
20
-51.3066
11
71.05
21
-51.27
0
LINE
8
BLACK
6
CONTINUOUS
10
71.05
20
-51.27
11
71.19
21
-51.27
0
LINE
8
BLACK
6
CONTINUOUS
10
71.19
20
-51.27
11
71.3978
21
-51.3066
0
LINE
8
BLACK
6
CONTINUOUS
10
68.8578
20
-51.3066
11
69.1022
21
-51.4477
0
LINE
8
BLACK
6
CONTINUOUS
10
69.1022
20
-51.4477
11
69.2835
21
-51.6638
0
LINE
8
BLACK
6
CONTINUOUS
10
69.2835
20
-51.6638
11
69.38
21
-51.9289
0
LINE
8
BLACK
6
CONTINUOUS
10
69.38
20
-51.9289
11
69.38
21
-52.2111
0
LINE
8
BLACK
6
CONTINUOUS
10
69.38
20
-52.2111
11
69.2835
21
-52.4762
0
LINE
8
BLACK
6
CONTINUOUS
10
69.2835
20
-52.4762
11
69.1022
21
-52.6923
0
LINE
8
BLACK
6
CONTINUOUS
10
69.1022
20
-52.6923
11
68.8578
21
-52.8334
0
LINE
8
BLACK
6
CONTINUOUS
10
68.8578
20
-52.8334
11
68.65
21
-52.87
0
LINE
8
BLACK
6
CONTINUOUS
10
68.65
20
-52.87
11
68.51
21
-52.87
0
LINE
8
BLACK
6
CONTINUOUS
10
68.51
20
-52.87
11
68.3022
21
-52.8334
0
LINE
8
BLACK
6
CONTINUOUS
10
68.3022
20
-52.8334
11
68.0578
21
-52.6923
0
LINE
8
BLACK
6
CONTINUOUS
10
68.0578
20
-52.6923
11
67.8765
21
-52.4762
0
LINE
8
BLACK
6
CONTINUOUS
10
67.8765
20
-52.4762
11
67.78
21
-52.2111
0
LINE
8
BLACK
6
CONTINUOUS
10
67.78
20
-52.2111
11
67.78
21
-51.9289
0
LINE
8
BLACK
6
CONTINUOUS
10
67.78
20
-51.9289
11
67.8765
21
-51.6638
0
LINE
8
BLACK
6
CONTINUOUS
10
67.8765
20
-51.6638
11
68.0578
21
-51.4477
0
LINE
8
BLACK
6
CONTINUOUS
10
68.0578
20
-51.4477
11
68.3022
21
-51.3066
0
LINE
8
BLACK
6
CONTINUOUS
10
68.3022
20
-51.3066
11
68.51
21
-51.27
0
LINE
8
BLACK
6
CONTINUOUS
10
68.51
20
-51.27
11
68.65
21
-51.27
0
LINE
8
BLACK
6
CONTINUOUS
10
68.65
20
-51.27
11
68.8578
21
-51.3066
0
LINE
8
BLACK
6
CONTINUOUS
10
66.3178
20
-51.3066
11
66.5622
21
-51.4477
0
LINE
8
BLACK
6
CONTINUOUS
10
66.5622
20
-51.4477
11
66.7435
21
-51.6638
0
LINE
8
BLACK
6
CONTINUOUS
10
66.7435
20
-51.6638
11
66.84
21
-51.9289
0
LINE
8
BLACK
6
CONTINUOUS
10
66.84
20
-51.9289
11
66.84
21
-52.2111
0
LINE
8
BLACK
6
CONTINUOUS
10
66.84
20
-52.2111
11
66.7435
21
-52.4762
0
LINE
8
BLACK
6
CONTINUOUS
10
66.7435
20
-52.4762
11
66.5622
21
-52.6923
0
LINE
8
BLACK
6
CONTINUOUS
10
66.5622
20
-52.6923
11
66.3178
21
-52.8334
0
LINE
8
BLACK
6
CONTINUOUS
10
66.3178
20
-52.8334
11
66.11
21
-52.87
0
LINE
8
BLACK
6
CONTINUOUS
10
66.11
20
-52.87
11
65.97
21
-52.87
0
LINE
8
BLACK
6
CONTINUOUS
10
65.97
20
-52.87
11
65.7622
21
-52.8334
0
LINE
8
BLACK
6
CONTINUOUS
10
65.7622
20
-52.8334
11
65.5178
21
-52.6923
0
LINE
8
BLACK
6
CONTINUOUS
10
65.5178
20
-52.6923
11
65.3365
21
-52.4762
0
LINE
8
BLACK
6
CONTINUOUS
10
65.3365
20
-52.4762
11
65.24
21
-52.2111
0
LINE
8
BLACK
6
CONTINUOUS
10
65.24
20
-52.2111
11
65.24
21
-51.9289
0
LINE
8
BLACK
6
CONTINUOUS
10
65.24
20
-51.9289
11
65.3365
21
-51.6638
0
LINE
8
BLACK
6
CONTINUOUS
10
65.3365
20
-51.6638
11
65.5178
21
-51.4477
0
LINE
8
BLACK
6
CONTINUOUS
10
65.5178
20
-51.4477
11
65.7622
21
-51.3066
0
LINE
8
BLACK
6
CONTINUOUS
10
65.7622
20
-51.3066
11
65.97
21
-51.27
0
LINE
8
BLACK
6
CONTINUOUS
10
65.97
20
-51.27
11
66.11
21
-51.27
0
LINE
8
BLACK
6
CONTINUOUS
10
66.11
20
-51.27
11
66.3178
21
-51.3066
0
LINE
8
BLACK
6
CONTINUOUS
10
64.3
20
-52.87
11
62.7
21
-52.87
0
LINE
8
BLACK
6
CONTINUOUS
10
62.7
20
-52.87
11
62.7
21
-51.27
0
LINE
8
BLACK
6
CONTINUOUS
10
62.7
20
-51.27
11
64.3
21
-51.27
0
LINE
8
BLACK
6
CONTINUOUS
10
64.3
20
-51.27
11
64.3
21
-52.87
0
LINE
8
BLACK
6
CONTINUOUS
10
54.3451
20
-51.4021
11
54.5589
21
-51.5255
0
LINE
8
BLACK
6
CONTINUOUS
10
54.5589
20
-51.5255
11
54.7176
21
-51.7146
0
LINE
8
BLACK
6
CONTINUOUS
10
54.7176
20
-51.7146
11
54.802
21
-51.9466
0
LINE
8
BLACK
6
CONTINUOUS
10
54.802
20
-51.9466
11
54.802
21
-52.1934
0
LINE
8
BLACK
6
CONTINUOUS
10
54.802
20
-52.1934
11
54.7176
21
-52.4254
0
LINE
8
BLACK
6
CONTINUOUS
10
54.7176
20
-52.4254
11
54.5589
21
-52.6145
0
LINE
8
BLACK
6
CONTINUOUS
10
54.5589
20
-52.6145
11
54.3451
21
-52.7379
0
LINE
8
BLACK
6
CONTINUOUS
10
54.3451
20
-52.7379
11
54.102
21
-52.7808
0
LINE
8
BLACK
6
CONTINUOUS
10
54.102
20
-52.7808
11
53.8589
21
-52.7379
0
LINE
8
BLACK
6
CONTINUOUS
10
53.8589
20
-52.7379
11
53.6451
21
-52.6145
0
LINE
8
BLACK
6
CONTINUOUS
10
53.6451
20
-52.6145
11
53.4864
21
-52.4254
0
LINE
8
BLACK
6
CONTINUOUS
10
53.4864
20
-52.4254
11
53.402
21
-52.1934
0
LINE
8
BLACK
6
CONTINUOUS
10
53.402
20
-52.1934
11
53.402
21
-51.9466
0
LINE
8
BLACK
6
CONTINUOUS
10
53.402
20
-51.9466
11
53.4864
21
-51.7146
0
LINE
8
BLACK
6
CONTINUOUS
10
53.4864
20
-51.7146
11
53.6451
21
-51.5255
0
LINE
8
BLACK
6
CONTINUOUS
10
53.6451
20
-51.5255
11
53.8589
21
-51.4021
0
LINE
8
BLACK
6
CONTINUOUS
10
53.8589
20
-51.4021
11
54.102
21
-51.3592
0
LINE
8
BLACK
6
CONTINUOUS
10
54.102
20
-51.3592
11
54.3451
21
-51.4021
0
LINE
8
BLACK
6
CONTINUOUS
10
46.7251
20
-51.4021
11
46.9389
21
-51.5255
0
LINE
8
BLACK
6
CONTINUOUS
10
46.9389
20
-51.5255
11
47.0976
21
-51.7146
0
LINE
8
BLACK
6
CONTINUOUS
10
47.0976
20
-51.7146
11
47.182
21
-51.9466
0
LINE
8
BLACK
6
CONTINUOUS
10
47.182
20
-51.9466
11
47.182
21
-52.1934
0
LINE
8
BLACK
6
CONTINUOUS
10
47.182
20
-52.1934
11
47.0976
21
-52.4254
0
LINE
8
BLACK
6
CONTINUOUS
10
47.0976
20
-52.4254
11
46.9389
21
-52.6145
0
LINE
8
BLACK
6
CONTINUOUS
10
46.9389
20
-52.6145
11
46.7251
21
-52.7379
0
LINE
8
BLACK
6
CONTINUOUS
10
46.7251
20
-52.7379
11
46.5432
21
-52.77
0
LINE
8
BLACK
6
CONTINUOUS
10
46.5432
20
-52.77
11
46.4208
21
-52.77
0
LINE
8
BLACK
6
CONTINUOUS
10
46.4208
20
-52.77
11
46.2389
21
-52.7379
0
LINE
8
BLACK
6
CONTINUOUS
10
46.2389
20
-52.7379
11
46.0251
21
-52.6145
0
LINE
8
BLACK
6
CONTINUOUS
10
46.0251
20
-52.6145
11
45.8664
21
-52.4254
0
LINE
8
BLACK
6
CONTINUOUS
10
45.8664
20
-52.4254
11
45.782
21
-52.1934
0
LINE
8
BLACK
6
CONTINUOUS
10
45.782
20
-52.1934
11
45.782
21
-51.9466
0
LINE
8
BLACK
6
CONTINUOUS
10
45.782
20
-51.9466
11
45.8664
21
-51.7146
0
LINE
8
BLACK
6
CONTINUOUS
10
45.8664
20
-51.7146
11
46.0251
21
-51.5255
0
LINE
8
BLACK
6
CONTINUOUS
10
46.0251
20
-51.5255
11
46.2389
21
-51.4021
0
LINE
8
BLACK
6
CONTINUOUS
10
46.2389
20
-51.4021
11
46.4208
21
-51.37
0
LINE
8
BLACK
6
CONTINUOUS
10
46.4208
20
-51.37
11
46.5432
21
-51.37
0
LINE
8
BLACK
6
CONTINUOUS
10
46.5432
20
-51.37
11
46.7251
21
-51.4021
0
LINE
8
BLACK
6
CONTINUOUS
10
43.7813
20
-49.5118
11
44.0867
21
-49.6881
0
LINE
8
BLACK
6
CONTINUOUS
10
44.0867
20
-49.6881
11
44.3134
21
-49.9583
0
LINE
8
BLACK
6
CONTINUOUS
10
44.3134
20
-49.9583
11
44.434
21
-50.2897
0
LINE
8
BLACK
6
CONTINUOUS
10
44.434
20
-50.2897
11
44.434
21
-50.6423
0
LINE
8
BLACK
6
CONTINUOUS
10
44.434
20
-50.6423
11
44.3134
21
-50.9737
0
LINE
8
BLACK
6
CONTINUOUS
10
44.3134
20
-50.9737
11
44.0867
21
-51.2439
0
LINE
8
BLACK
6
CONTINUOUS
10
44.0867
20
-51.2439
11
43.7813
21
-51.4202
0
LINE
8
BLACK
6
CONTINUOUS
10
43.7813
20
-51.4202
11
43.434
21
-51.4814
0
LINE
8
BLACK
6
CONTINUOUS
10
43.434
20
-51.4814
11
43.0867
21
-51.4202
0
LINE
8
BLACK
6
CONTINUOUS
10
43.0867
20
-51.4202
11
42.7813
21
-51.2439
0
LINE
8
BLACK
6
CONTINUOUS
10
42.7813
20
-51.2439
11
42.5546
21
-50.9737
0
LINE
8
BLACK
6
CONTINUOUS
10
42.5546
20
-50.9737
11
42.434
21
-50.6423
0
LINE
8
BLACK
6
CONTINUOUS
10
42.434
20
-50.6423
11
42.434
21
-50.2897
0
LINE
8
BLACK
6
CONTINUOUS
10
42.434
20
-50.2897
11
42.5546
21
-49.9583
0
LINE
8
BLACK
6
CONTINUOUS
10
42.5546
20
-49.9583
11
42.7813
21
-49.6881
0
LINE
8
BLACK
6
CONTINUOUS
10
42.7813
20
-49.6881
11
43.0867
21
-49.5118
0
LINE
8
BLACK
6
CONTINUOUS
10
43.0867
20
-49.5118
11
43.434
21
-49.4506
0
LINE
8
BLACK
6
CONTINUOUS
10
43.434
20
-49.4506
11
43.7813
21
-49.5118
0
LINE
8
BLACK
6
CONTINUOUS
10
29.2813
20
-49.5118
11
29.5867
21
-49.6881
0
LINE
8
BLACK
6
CONTINUOUS
10
29.5867
20
-49.6881
11
29.8134
21
-49.9583
0
LINE
8
BLACK
6
CONTINUOUS
10
29.8134
20
-49.9583
11
29.934
21
-50.2897
0
LINE
8
BLACK
6
CONTINUOUS
10
29.934
20
-50.2897
11
29.934
21
-50.6423
0
LINE
8
BLACK
6
CONTINUOUS
10
29.934
20
-50.6423
11
29.8134
21
-50.9737
0
LINE
8
BLACK
6
CONTINUOUS
10
29.8134
20
-50.9737
11
29.5867
21
-51.2439
0
LINE
8
BLACK
6
CONTINUOUS
10
29.5867
20
-51.2439
11
29.2813
21
-51.4202
0
LINE
8
BLACK
6
CONTINUOUS
10
29.2813
20
-51.4202
11
28.934
21
-51.4814
0
LINE
8
BLACK
6
CONTINUOUS
10
28.934
20
-51.4814
11
28.5867
21
-51.4202
0
LINE
8
BLACK
6
CONTINUOUS
10
28.5867
20
-51.4202
11
28.2813
21
-51.2439
0
LINE
8
BLACK
6
CONTINUOUS
10
28.2813
20
-51.2439
11
28.0546
21
-50.9737
0
LINE
8
BLACK
6
CONTINUOUS
10
28.0546
20
-50.9737
11
27.934
21
-50.6423
0
LINE
8
BLACK
6
CONTINUOUS
10
27.934
20
-50.6423
11
27.934
21
-50.2897
0
LINE
8
BLACK
6
CONTINUOUS
10
27.934
20
-50.2897
11
28.0546
21
-49.9583
0
LINE
8
BLACK
6
CONTINUOUS
10
28.0546
20
-49.9583
11
28.2813
21
-49.6881
0
LINE
8
BLACK
6
CONTINUOUS
10
28.2813
20
-49.6881
11
28.5867
21
-49.5118
0
LINE
8
BLACK
6
CONTINUOUS
10
28.5867
20
-49.5118
11
28.934
21
-49.4506
0
LINE
8
BLACK
6
CONTINUOUS
10
28.934
20
-49.4506
11
29.2813
21
-49.5118
0
LINE
8
BLACK
6
CONTINUOUS
10
54.3798
20
-48.7666
11
54.6242
21
-48.9077
0
LINE
8
BLACK
6
CONTINUOUS
10
54.6242
20
-48.9077
11
54.8055
21
-49.1238
0
LINE
8
BLACK
6
CONTINUOUS
10
54.8055
20
-49.1238
11
54.902
21
-49.3889
0
LINE
8
BLACK
6
CONTINUOUS
10
54.902
20
-49.3889
11
54.902
21
-49.6711
0
LINE
8
BLACK
6
CONTINUOUS
10
54.902
20
-49.6711
11
54.8055
21
-49.9362
0
LINE
8
BLACK
6
CONTINUOUS
10
54.8055
20
-49.9362
11
54.6242
21
-50.1523
0
LINE
8
BLACK
6
CONTINUOUS
10
54.6242
20
-50.1523
11
54.3798
21
-50.2934
0
LINE
8
BLACK
6
CONTINUOUS
10
54.3798
20
-50.2934
11
54.102
21
-50.3423
0
LINE
8
BLACK
6
CONTINUOUS
10
54.102
20
-50.3423
11
53.8242
21
-50.2934
0
LINE
8
BLACK
6
CONTINUOUS
10
53.8242
20
-50.2934
11
53.5798
21
-50.1523
0
LINE
8
BLACK
6
CONTINUOUS
10
53.5798
20
-50.1523
11
53.3985
21
-49.9362
0
LINE
8
BLACK
6
CONTINUOUS
10
53.3985
20
-49.9362
11
53.302
21
-49.6711
0
LINE
8
BLACK
6
CONTINUOUS
10
53.302
20
-49.6711
11
53.302
21
-49.3889
0
LINE
8
BLACK
6
CONTINUOUS
10
53.302
20
-49.3889
11
53.3985
21
-49.1238
0
LINE
8
BLACK
6
CONTINUOUS
10
53.3985
20
-49.1238
11
53.5798
21
-48.9077
0
LINE
8
BLACK
6
CONTINUOUS
10
53.5798
20
-48.9077
11
53.8242
21
-48.7666
0
LINE
8
BLACK
6
CONTINUOUS
10
53.8242
20
-48.7666
11
54.102
21
-48.7177
0
LINE
8
BLACK
6
CONTINUOUS
10
54.102
20
-48.7177
11
54.3798
21
-48.7666
0
LINE
8
BLACK
6
CONTINUOUS
10
49.3798
20
-48.7666
11
49.6242
21
-48.9077
0
LINE
8
BLACK
6
CONTINUOUS
10
49.6242
20
-48.9077
11
49.8055
21
-49.1238
0
LINE
8
BLACK
6
CONTINUOUS
10
49.8055
20
-49.1238
11
49.902
21
-49.3889
0
LINE
8
BLACK
6
CONTINUOUS
10
49.902
20
-49.3889
11
49.902
21
-49.6711
0
LINE
8
BLACK
6
CONTINUOUS
10
49.902
20
-49.6711
11
49.8055
21
-49.9362
0
LINE
8
BLACK
6
CONTINUOUS
10
49.8055
20
-49.9362
11
49.6242
21
-50.1523
0
LINE
8
BLACK
6
CONTINUOUS
10
49.6242
20
-50.1523
11
49.3798
21
-50.2934
0
LINE
8
BLACK
6
CONTINUOUS
10
49.3798
20
-50.2934
11
49.102
21
-50.3423
0
LINE
8
BLACK
6
CONTINUOUS
10
49.102
20
-50.3423
11
48.8242
21
-50.2934
0
LINE
8
BLACK
6
CONTINUOUS
10
48.8242
20
-50.2934
11
48.5798
21
-50.1523
0
LINE
8
BLACK
6
CONTINUOUS
10
48.5798
20
-50.1523
11
48.3985
21
-49.9362
0
LINE
8
BLACK
6
CONTINUOUS
10
48.3985
20
-49.9362
11
48.302
21
-49.6711
0
LINE
8
BLACK
6
CONTINUOUS
10
48.302
20
-49.6711
11
48.302
21
-49.3889
0
LINE
8
BLACK
6
CONTINUOUS
10
48.302
20
-49.3889
11
48.3985
21
-49.1238
0
LINE
8
BLACK
6
CONTINUOUS
10
48.3985
20
-49.1238
11
48.5798
21
-48.9077
0
LINE
8
BLACK
6
CONTINUOUS
10
48.5798
20
-48.9077
11
48.8242
21
-48.7666
0
LINE
8
BLACK
6
CONTINUOUS
10
48.8242
20
-48.7666
11
49.102
21
-48.7177
0
LINE
8
BLACK
6
CONTINUOUS
10
49.102
20
-48.7177
11
49.3798
21
-48.7666
0
LINE
8
BLACK
6
CONTINUOUS
10
67.5531
20
-48.8621
11
67.7669
21
-48.9855
0
LINE
8
BLACK
6
CONTINUOUS
10
67.7669
20
-48.9855
11
67.9256
21
-49.1746
0
LINE
8
BLACK
6
CONTINUOUS
10
67.9256
20
-49.1746
11
68.01
21
-49.4066
0
LINE
8
BLACK
6
CONTINUOUS
10
68.01
20
-49.4066
11
68.01
21
-49.6534
0
LINE
8
BLACK
6
CONTINUOUS
10
68.01
20
-49.6534
11
67.9256
21
-49.8854
0
LINE
8
BLACK
6
CONTINUOUS
10
67.9256
20
-49.8854
11
67.7669
21
-50.0745
0
LINE
8
BLACK
6
CONTINUOUS
10
67.7669
20
-50.0745
11
67.5531
21
-50.1979
0
LINE
8
BLACK
6
CONTINUOUS
10
67.5531
20
-50.1979
11
67.31
21
-50.2408
0
LINE
8
BLACK
6
CONTINUOUS
10
67.31
20
-50.2408
11
67.0669
21
-50.1979
0
LINE
8
BLACK
6
CONTINUOUS
10
67.0669
20
-50.1979
11
66.8531
21
-50.0745
0
LINE
8
BLACK
6
CONTINUOUS
10
66.8531
20
-50.0745
11
66.6944
21
-49.8854
0
LINE
8
BLACK
6
CONTINUOUS
10
66.6944
20
-49.8854
11
66.61
21
-49.6534
0
LINE
8
BLACK
6
CONTINUOUS
10
66.61
20
-49.6534
11
66.61
21
-49.4066
0
LINE
8
BLACK
6
CONTINUOUS
10
66.61
20
-49.4066
11
66.6944
21
-49.1746
0
LINE
8
BLACK
6
CONTINUOUS
10
66.6944
20
-49.1746
11
66.8531
21
-48.9855
0
LINE
8
BLACK
6
CONTINUOUS
10
66.8531
20
-48.9855
11
67.0669
21
-48.8621
0
LINE
8
BLACK
6
CONTINUOUS
10
67.0669
20
-48.8621
11
67.31
21
-48.8192
0
LINE
8
BLACK
6
CONTINUOUS
10
67.31
20
-48.8192
11
67.5531
21
-48.8621
0
LINE
8
BLACK
6
CONTINUOUS
10
65.0131
20
-48.8621
11
65.2269
21
-48.9855
0
LINE
8
BLACK
6
CONTINUOUS
10
65.2269
20
-48.9855
11
65.3856
21
-49.1746
0
LINE
8
BLACK
6
CONTINUOUS
10
65.3856
20
-49.1746
11
65.47
21
-49.4066
0
LINE
8
BLACK
6
CONTINUOUS
10
65.47
20
-49.4066
11
65.47
21
-49.6534
0
LINE
8
BLACK
6
CONTINUOUS
10
65.47
20
-49.6534
11
65.3856
21
-49.8854
0
LINE
8
BLACK
6
CONTINUOUS
10
65.3856
20
-49.8854
11
65.2269
21
-50.0745
0
LINE
8
BLACK
6
CONTINUOUS
10
65.2269
20
-50.0745
11
65.0131
21
-50.1979
0
LINE
8
BLACK
6
CONTINUOUS
10
65.0131
20
-50.1979
11
64.77
21
-50.2408
0
LINE
8
BLACK
6
CONTINUOUS
10
64.77
20
-50.2408
11
64.5269
21
-50.1979
0
LINE
8
BLACK
6
CONTINUOUS
10
64.5269
20
-50.1979
11
64.3131
21
-50.0745
0
LINE
8
BLACK
6
CONTINUOUS
10
64.3131
20
-50.0745
11
64.1544
21
-49.8854
0
LINE
8
BLACK
6
CONTINUOUS
10
64.1544
20
-49.8854
11
64.07
21
-49.6534
0
LINE
8
BLACK
6
CONTINUOUS
10
64.07
20
-49.6534
11
64.07
21
-49.4066
0
LINE
8
BLACK
6
CONTINUOUS
10
64.07
20
-49.4066
11
64.1544
21
-49.1746
0
LINE
8
BLACK
6
CONTINUOUS
10
64.1544
20
-49.1746
11
64.3131
21
-48.9855
0
LINE
8
BLACK
6
CONTINUOUS
10
64.3131
20
-48.9855
11
64.5269
21
-48.8621
0
LINE
8
BLACK
6
CONTINUOUS
10
64.5269
20
-48.8621
11
64.77
21
-48.8192
0
LINE
8
BLACK
6
CONTINUOUS
10
64.77
20
-48.8192
11
65.0131
21
-48.8621
0
LINE
8
BLACK
6
CONTINUOUS
10
75.1731
20
-48.8621
11
75.3869
21
-48.9855
0
LINE
8
BLACK
6
CONTINUOUS
10
75.3869
20
-48.9855
11
75.5456
21
-49.1746
0
LINE
8
BLACK
6
CONTINUOUS
10
75.5456
20
-49.1746
11
75.63
21
-49.4066
0
LINE
8
BLACK
6
CONTINUOUS
10
75.63
20
-49.4066
11
75.63
21
-49.6534
0
LINE
8
BLACK
6
CONTINUOUS
10
75.63
20
-49.6534
11
75.5456
21
-49.8854
0
LINE
8
BLACK
6
CONTINUOUS
10
75.5456
20
-49.8854
11
75.3869
21
-50.0745
0
LINE
8
BLACK
6
CONTINUOUS
10
75.3869
20
-50.0745
11
75.1731
21
-50.1979
0
LINE
8
BLACK
6
CONTINUOUS
10
75.1731
20
-50.1979
11
74.93
21
-50.2408
0
LINE
8
BLACK
6
CONTINUOUS
10
74.93
20
-50.2408
11
74.6869
21
-50.1979
0
LINE
8
BLACK
6
CONTINUOUS
10
74.6869
20
-50.1979
11
74.4731
21
-50.0745
0
LINE
8
BLACK
6
CONTINUOUS
10
74.4731
20
-50.0745
11
74.3144
21
-49.8854
0
LINE
8
BLACK
6
CONTINUOUS
10
74.3144
20
-49.8854
11
74.23
21
-49.6534
0
LINE
8
BLACK
6
CONTINUOUS
10
74.23
20
-49.6534
11
74.23
21
-49.4066
0
LINE
8
BLACK
6
CONTINUOUS
10
74.23
20
-49.4066
11
74.3144
21
-49.1746
0
LINE
8
BLACK
6
CONTINUOUS
10
74.3144
20
-49.1746
11
74.4731
21
-48.9855
0
LINE
8
BLACK
6
CONTINUOUS
10
74.4731
20
-48.9855
11
74.6869
21
-48.8621
0
LINE
8
BLACK
6
CONTINUOUS
10
74.6869
20
-48.8621
11
74.93
21
-48.8192
0
LINE
8
BLACK
6
CONTINUOUS
10
74.93
20
-48.8192
11
75.1731
21
-48.8621
0
LINE
8
BLACK
6
CONTINUOUS
10
43.7813
20
-47.0118
11
44.0867
21
-47.1881
0
LINE
8
BLACK
6
CONTINUOUS
10
44.0867
20
-47.1881
11
44.3134
21
-47.4583
0
LINE
8
BLACK
6
CONTINUOUS
10
44.3134
20
-47.4583
11
44.434
21
-47.7897
0
LINE
8
BLACK
6
CONTINUOUS
10
44.434
20
-47.7897
11
44.434
21
-48.1423
0
LINE
8
BLACK
6
CONTINUOUS
10
44.434
20
-48.1423
11
44.3134
21
-48.4737
0
LINE
8
BLACK
6
CONTINUOUS
10
44.3134
20
-48.4737
11
44.0867
21
-48.7439
0
LINE
8
BLACK
6
CONTINUOUS
10
44.0867
20
-48.7439
11
43.7813
21
-48.9202
0
LINE
8
BLACK
6
CONTINUOUS
10
43.7813
20
-48.9202
11
43.434
21
-48.9814
0
LINE
8
BLACK
6
CONTINUOUS
10
43.434
20
-48.9814
11
43.0867
21
-48.9202
0
LINE
8
BLACK
6
CONTINUOUS
10
43.0867
20
-48.9202
11
42.7813
21
-48.7439
0
LINE
8
BLACK
6
CONTINUOUS
10
42.7813
20
-48.7439
11
42.5546
21
-48.4737
0
LINE
8
BLACK
6
CONTINUOUS
10
42.5546
20
-48.4737
11
42.434
21
-48.1423
0
LINE
8
BLACK
6
CONTINUOUS
10
42.434
20
-48.1423
11
42.434
21
-47.7897
0
LINE
8
BLACK
6
CONTINUOUS
10
42.434
20
-47.7897
11
42.5546
21
-47.4583
0
LINE
8
BLACK
6
CONTINUOUS
10
42.5546
20
-47.4583
11
42.7813
21
-47.1881
0
LINE
8
BLACK
6
CONTINUOUS
10
42.7813
20
-47.1881
11
43.0867
21
-47.0118
0
LINE
8
BLACK
6
CONTINUOUS
10
43.0867
20
-47.0118
11
43.434
21
-46.9506
0
LINE
8
BLACK
6
CONTINUOUS
10
43.434
20
-46.9506
11
43.7813
21
-47.0118
0
LINE
8
BLACK
6
CONTINUOUS
10
87.9092
20
-46.6122
11
88.123
21
-46.7356
0
LINE
8
BLACK
6
CONTINUOUS
10
88.123
20
-46.7356
11
88.2817
21
-46.9247
0
LINE
8
BLACK
6
CONTINUOUS
10
88.2817
20
-46.9247
11
88.3661
21
-47.1567
0
LINE
8
BLACK
6
CONTINUOUS
10
88.3661
20
-47.1567
11
88.3661
21
-47.4035
0
LINE
8
BLACK
6
CONTINUOUS
10
88.3661
20
-47.4035
11
88.2817
21
-47.6355
0
LINE
8
BLACK
6
CONTINUOUS
10
88.2817
20
-47.6355
11
88.123
21
-47.8246
0
LINE
8
BLACK
6
CONTINUOUS
10
88.123
20
-47.8246
11
87.9092
21
-47.948
0
LINE
8
BLACK
6
CONTINUOUS
10
87.9092
20
-47.948
11
87.7273
21
-47.9801
0
LINE
8
BLACK
6
CONTINUOUS
10
87.7273
20
-47.9801
11
87.6049
21
-47.9801
0
LINE
8
BLACK
6
CONTINUOUS
10
87.6049
20
-47.9801
11
87.423
21
-47.948
0
LINE
8
BLACK
6
CONTINUOUS
10
87.423
20
-47.948
11
87.2092
21
-47.8246
0
LINE
8
BLACK
6
CONTINUOUS
10
87.2092
20
-47.8246
11
87.0505
21
-47.6355
0
LINE
8
BLACK
6
CONTINUOUS
10
87.0505
20
-47.6355
11
86.9661
21
-47.4035
0
LINE
8
BLACK
6
CONTINUOUS
10
86.9661
20
-47.4035
11
86.9661
21
-47.1567
0
LINE
8
BLACK
6
CONTINUOUS
10
86.9661
20
-47.1567
11
87.0505
21
-46.9247
0
LINE
8
BLACK
6
CONTINUOUS
10
87.0505
20
-46.9247
11
87.2092
21
-46.7356
0
LINE
8
BLACK
6
CONTINUOUS
10
87.2092
20
-46.7356
11
87.423
21
-46.6122
0
LINE
8
BLACK
6
CONTINUOUS
10
87.423
20
-46.6122
11
87.6049
21
-46.5801
0
LINE
8
BLACK
6
CONTINUOUS
10
87.6049
20
-46.5801
11
87.7273
21
-46.5801
0
LINE
8
BLACK
6
CONTINUOUS
10
87.7273
20
-46.5801
11
87.9092
21
-46.6122
0
LINE
8
BLACK
6
CONTINUOUS
10
67.5531
20
-46.3221
11
67.7669
21
-46.4455
0
LINE
8
BLACK
6
CONTINUOUS
10
67.7669
20
-46.4455
11
67.9256
21
-46.6346
0
LINE
8
BLACK
6
CONTINUOUS
10
67.9256
20
-46.6346
11
68.01
21
-46.8666
0
LINE
8
BLACK
6
CONTINUOUS
10
68.01
20
-46.8666
11
68.01
21
-47.1134
0
LINE
8
BLACK
6
CONTINUOUS
10
68.01
20
-47.1134
11
67.9256
21
-47.3454
0
LINE
8
BLACK
6
CONTINUOUS
10
67.9256
20
-47.3454
11
67.7669
21
-47.5345
0
LINE
8
BLACK
6
CONTINUOUS
10
67.7669
20
-47.5345
11
67.5531
21
-47.6579
0
LINE
8
BLACK
6
CONTINUOUS
10
67.5531
20
-47.6579
11
67.31
21
-47.7008
0
LINE
8
BLACK
6
CONTINUOUS
10
67.31
20
-47.7008
11
67.0669
21
-47.6579
0
LINE
8
BLACK
6
CONTINUOUS
10
67.0669
20
-47.6579
11
66.8531
21
-47.5345
0
LINE
8
BLACK
6
CONTINUOUS
10
66.8531
20
-47.5345
11
66.6944
21
-47.3454
0
LINE
8
BLACK
6
CONTINUOUS
10
66.6944
20
-47.3454
11
66.61
21
-47.1134
0
LINE
8
BLACK
6
CONTINUOUS
10
66.61
20
-47.1134
11
66.61
21
-46.8666
0
LINE
8
BLACK
6
CONTINUOUS
10
66.61
20
-46.8666
11
66.6944
21
-46.6346
0
LINE
8
BLACK
6
CONTINUOUS
10
66.6944
20
-46.6346
11
66.8531
21
-46.4455
0
LINE
8
BLACK
6
CONTINUOUS
10
66.8531
20
-46.4455
11
67.0669
21
-46.3221
0
LINE
8
BLACK
6
CONTINUOUS
10
67.0669
20
-46.3221
11
67.31
21
-46.2792
0
LINE
8
BLACK
6
CONTINUOUS
10
67.31
20
-46.2792
11
67.5531
21
-46.3221
0
LINE
8
BLACK
6
CONTINUOUS
10
18.7851
20
-46.3221
11
18.9989
21
-46.4455
0
LINE
8
BLACK
6
CONTINUOUS
10
18.9989
20
-46.4455
11
19.1576
21
-46.6346
0
LINE
8
BLACK
6
CONTINUOUS
10
19.1576
20
-46.6346
11
19.242
21
-46.8666
0
LINE
8
BLACK
6
CONTINUOUS
10
19.242
20
-46.8666
11
19.242
21
-47.1134
0
LINE
8
BLACK
6
CONTINUOUS
10
19.242
20
-47.1134
11
19.1576
21
-47.3454
0
LINE
8
BLACK
6
CONTINUOUS
10
19.1576
20
-47.3454
11
18.9989
21
-47.5345
0
LINE
8
BLACK
6
CONTINUOUS
10
18.9989
20
-47.5345
11
18.7851
21
-47.6579
0
LINE
8
BLACK
6
CONTINUOUS
10
18.7851
20
-47.6579
11
18.542
21
-47.7008
0
LINE
8
BLACK
6
CONTINUOUS
10
18.542
20
-47.7008
11
18.2989
21
-47.6579
0
LINE
8
BLACK
6
CONTINUOUS
10
18.2989
20
-47.6579
11
18.0851
21
-47.5345
0
LINE
8
BLACK
6
CONTINUOUS
10
18.0851
20
-47.5345
11
17.9264
21
-47.3454
0
LINE
8
BLACK
6
CONTINUOUS
10
17.9264
20
-47.3454
11
17.842
21
-47.1134
0
LINE
8
BLACK
6
CONTINUOUS
10
17.842
20
-47.1134
11
17.842
21
-46.8666
0
LINE
8
BLACK
6
CONTINUOUS
10
17.842
20
-46.8666
11
17.9264
21
-46.6346
0
LINE
8
BLACK
6
CONTINUOUS
10
17.9264
20
-46.6346
11
18.0851
21
-46.4455
0
LINE
8
BLACK
6
CONTINUOUS
10
18.0851
20
-46.4455
11
18.2989
21
-46.3221
0
LINE
8
BLACK
6
CONTINUOUS
10
18.2989
20
-46.3221
11
18.542
21
-46.2792
0
LINE
8
BLACK
6
CONTINUOUS
10
18.542
20
-46.2792
11
18.7851
21
-46.3221
0
LINE
8
BLACK
6
CONTINUOUS
10
54.3451
20
-46.3221
11
54.5589
21
-46.4455
0
LINE
8
BLACK
6
CONTINUOUS
10
54.5589
20
-46.4455
11
54.7176
21
-46.6346
0
LINE
8
BLACK
6
CONTINUOUS
10
54.7176
20
-46.6346
11
54.802
21
-46.8666
0
LINE
8
BLACK
6
CONTINUOUS
10
54.802
20
-46.8666
11
54.802
21
-47.1134
0
LINE
8
BLACK
6
CONTINUOUS
10
54.802
20
-47.1134
11
54.7176
21
-47.3454
0
LINE
8
BLACK
6
CONTINUOUS
10
54.7176
20
-47.3454
11
54.5589
21
-47.5345
0
LINE
8
BLACK
6
CONTINUOUS
10
54.5589
20
-47.5345
11
54.3451
21
-47.6579
0
LINE
8
BLACK
6
CONTINUOUS
10
54.3451
20
-47.6579
11
54.102
21
-47.7008
0
LINE
8
BLACK
6
CONTINUOUS
10
54.102
20
-47.7008
11
53.8589
21
-47.6579
0
LINE
8
BLACK
6
CONTINUOUS
10
53.8589
20
-47.6579
11
53.6451
21
-47.5345
0
LINE
8
BLACK
6
CONTINUOUS
10
53.6451
20
-47.5345
11
53.4864
21
-47.3454
0
LINE
8
BLACK
6
CONTINUOUS
10
53.4864
20
-47.3454
11
53.402
21
-47.1134
0
LINE
8
BLACK
6
CONTINUOUS
10
53.402
20
-47.1134
11
53.402
21
-46.8666
0
LINE
8
BLACK
6
CONTINUOUS
10
53.402
20
-46.8666
11
53.4864
21
-46.6346
0
LINE
8
BLACK
6
CONTINUOUS
10
53.4864
20
-46.6346
11
53.6451
21
-46.4455
0
LINE
8
BLACK
6
CONTINUOUS
10
53.6451
20
-46.4455
11
53.8589
21
-46.3221
0
LINE
8
BLACK
6
CONTINUOUS
10
53.8589
20
-46.3221
11
54.102
21
-46.2792
0
LINE
8
BLACK
6
CONTINUOUS
10
54.102
20
-46.2792
11
54.3451
21
-46.3221
0
LINE
8
BLACK
6
CONTINUOUS
10
56.8851
20
-46.3221
11
57.0989
21
-46.4455
0
LINE
8
BLACK
6
CONTINUOUS
10
57.0989
20
-46.4455
11
57.2576
21
-46.6346
0
LINE
8
BLACK
6
CONTINUOUS
10
57.2576
20
-46.6346
11
57.342
21
-46.8666
0
LINE
8
BLACK
6
CONTINUOUS
10
57.342
20
-46.8666
11
57.342
21
-47.1134
0
LINE
8
BLACK
6
CONTINUOUS
10
57.342
20
-47.1134
11
57.2576
21
-47.3454
0
LINE
8
BLACK
6
CONTINUOUS
10
57.2576
20
-47.3454
11
57.0989
21
-47.5345
0
LINE
8
BLACK
6
CONTINUOUS
10
57.0989
20
-47.5345
11
56.8851
21
-47.6579
0
LINE
8
BLACK
6
CONTINUOUS
10
56.8851
20
-47.6579
11
56.642
21
-47.7008
0
LINE
8
BLACK
6
CONTINUOUS
10
56.642
20
-47.7008
11
56.3989
21
-47.6579
0
LINE
8
BLACK
6
CONTINUOUS
10
56.3989
20
-47.6579
11
56.1851
21
-47.5345
0
LINE
8
BLACK
6
CONTINUOUS
10
56.1851
20
-47.5345
11
56.0264
21
-47.3454
0
LINE
8
BLACK
6
CONTINUOUS
10
56.0264
20
-47.3454
11
55.942
21
-47.1134
0
LINE
8
BLACK
6
CONTINUOUS
10
55.942
20
-47.1134
11
55.942
21
-46.8666
0
LINE
8
BLACK
6
CONTINUOUS
10
55.942
20
-46.8666
11
56.0264
21
-46.6346
0
LINE
8
BLACK
6
CONTINUOUS
10
56.0264
20
-46.6346
11
56.1851
21
-46.4455
0
LINE
8
BLACK
6
CONTINUOUS
10
56.1851
20
-46.4455
11
56.3989
21
-46.3221
0
LINE
8
BLACK
6
CONTINUOUS
10
56.3989
20
-46.3221
11
56.642
21
-46.2792
0
LINE
8
BLACK
6
CONTINUOUS
10
56.642
20
-46.2792
11
56.8851
21
-46.3221
0
LINE
8
BLACK
6
CONTINUOUS
10
26.4051
20
-46.3221
11
26.6189
21
-46.4455
0
LINE
8
BLACK
6
CONTINUOUS
10
26.6189
20
-46.4455
11
26.7776
21
-46.6346
0
LINE
8
BLACK
6
CONTINUOUS
10
26.7776
20
-46.6346
11
26.862
21
-46.8666
0
LINE
8
BLACK
6
CONTINUOUS
10
26.862
20
-46.8666
11
26.862
21
-47.1134
0
LINE
8
BLACK
6
CONTINUOUS
10
26.862
20
-47.1134
11
26.7776
21
-47.3454
0
LINE
8
BLACK
6
CONTINUOUS
10
26.7776
20
-47.3454
11
26.6189
21
-47.5345
0
LINE
8
BLACK
6
CONTINUOUS
10
26.6189
20
-47.5345
11
26.4051
21
-47.6579
0
LINE
8
BLACK
6
CONTINUOUS
10
26.4051
20
-47.6579
11
26.2232
21
-47.69
0
LINE
8
BLACK
6
CONTINUOUS
10
26.2232
20
-47.69
11
26.1008
21
-47.69
0
LINE
8
BLACK
6
CONTINUOUS
10
26.1008
20
-47.69
11
25.9189
21
-47.6579
0
LINE
8
BLACK
6
CONTINUOUS
10
25.9189
20
-47.6579
11
25.7051
21
-47.5345
0
LINE
8
BLACK
6
CONTINUOUS
10
25.7051
20
-47.5345
11
25.5464
21
-47.3454
0
LINE
8
BLACK
6
CONTINUOUS
10
25.5464
20
-47.3454
11
25.462
21
-47.1134
0
LINE
8
BLACK
6
CONTINUOUS
10
25.462
20
-47.1134
11
25.462
21
-46.8666
0
LINE
8
BLACK
6
CONTINUOUS
10
25.462
20
-46.8666
11
25.5464
21
-46.6346
0
LINE
8
BLACK
6
CONTINUOUS
10
25.5464
20
-46.6346
11
25.7051
21
-46.4455
0
LINE
8
BLACK
6
CONTINUOUS
10
25.7051
20
-46.4455
11
25.9189
21
-46.3221
0
LINE
8
BLACK
6
CONTINUOUS
10
25.9189
20
-46.3221
11
26.1008
21
-46.29
0
LINE
8
BLACK
6
CONTINUOUS
10
26.1008
20
-46.29
11
26.2232
21
-46.29
0
LINE
8
BLACK
6
CONTINUOUS
10
26.2232
20
-46.29
11
26.4051
21
-46.3221
0
LINE
8
BLACK
6
CONTINUOUS
10
46.7251
20
-46.3221
11
46.9389
21
-46.4455
0
LINE
8
BLACK
6
CONTINUOUS
10
46.9389
20
-46.4455
11
47.0976
21
-46.6346
0
LINE
8
BLACK
6
CONTINUOUS
10
47.0976
20
-46.6346
11
47.182
21
-46.8666
0
LINE
8
BLACK
6
CONTINUOUS
10
47.182
20
-46.8666
11
47.182
21
-47.1134
0
LINE
8
BLACK
6
CONTINUOUS
10
47.182
20
-47.1134
11
47.0976
21
-47.3454
0
LINE
8
BLACK
6
CONTINUOUS
10
47.0976
20
-47.3454
11
46.9389
21
-47.5345
0
LINE
8
BLACK
6
CONTINUOUS
10
46.9389
20
-47.5345
11
46.7251
21
-47.6579
0
LINE
8
BLACK
6
CONTINUOUS
10
46.7251
20
-47.6579
11
46.5432
21
-47.69
0
LINE
8
BLACK
6
CONTINUOUS
10
46.5432
20
-47.69
11
46.4208
21
-47.69
0
LINE
8
BLACK
6
CONTINUOUS
10
46.4208
20
-47.69
11
46.2389
21
-47.6579
0
LINE
8
BLACK
6
CONTINUOUS
10
46.2389
20
-47.6579
11
46.0251
21
-47.5345
0
LINE
8
BLACK
6
CONTINUOUS
10
46.0251
20
-47.5345
11
45.8664
21
-47.3454
0
LINE
8
BLACK
6
CONTINUOUS
10
45.8664
20
-47.3454
11
45.782
21
-47.1134
0
LINE
8
BLACK
6
CONTINUOUS
10
45.782
20
-47.1134
11
45.782
21
-46.8666
0
LINE
8
BLACK
6
CONTINUOUS
10
45.782
20
-46.8666
11
45.8664
21
-46.6346
0
LINE
8
BLACK
6
CONTINUOUS
10
45.8664
20
-46.6346
11
46.0251
21
-46.4455
0
LINE
8
BLACK
6
CONTINUOUS
10
46.0251
20
-46.4455
11
46.2389
21
-46.3221
0
LINE
8
BLACK
6
CONTINUOUS
10
46.2389
20
-46.3221
11
46.4208
21
-46.29
0
LINE
8
BLACK
6
CONTINUOUS
10
46.4208
20
-46.29
11
46.5432
21
-46.29
0
LINE
8
BLACK
6
CONTINUOUS
10
46.5432
20
-46.29
11
46.7251
21
-46.3221
0
LINE
8
BLACK
6
CONTINUOUS
10
29.2813
20
-44.5118
11
29.5867
21
-44.6881
0
LINE
8
BLACK
6
CONTINUOUS
10
29.5867
20
-44.6881
11
29.8134
21
-44.9583
0
LINE
8
BLACK
6
CONTINUOUS
10
29.8134
20
-44.9583
11
29.934
21
-45.2897
0
LINE
8
BLACK
6
CONTINUOUS
10
29.934
20
-45.2897
11
29.934
21
-45.6423
0
LINE
8
BLACK
6
CONTINUOUS
10
29.934
20
-45.6423
11
29.8134
21
-45.9737
0
LINE
8
BLACK
6
CONTINUOUS
10
29.8134
20
-45.9737
11
29.5867
21
-46.2439
0
LINE
8
BLACK
6
CONTINUOUS
10
29.5867
20
-46.2439
11
29.2813
21
-46.4202
0
LINE
8
BLACK
6
CONTINUOUS
10
29.2813
20
-46.4202
11
28.934
21
-46.4814
0
LINE
8
BLACK
6
CONTINUOUS
10
28.934
20
-46.4814
11
28.5867
21
-46.4202
0
LINE
8
BLACK
6
CONTINUOUS
10
28.5867
20
-46.4202
11
28.2813
21
-46.2439
0
LINE
8
BLACK
6
CONTINUOUS
10
28.2813
20
-46.2439
11
28.0546
21
-45.9737
0
LINE
8
BLACK
6
CONTINUOUS
10
28.0546
20
-45.9737
11
27.934
21
-45.6423
0
LINE
8
BLACK
6
CONTINUOUS
10
27.934
20
-45.6423
11
27.934
21
-45.2897
0
LINE
8
BLACK
6
CONTINUOUS
10
27.934
20
-45.2897
11
28.0546
21
-44.9583
0
LINE
8
BLACK
6
CONTINUOUS
10
28.0546
20
-44.9583
11
28.2813
21
-44.6881
0
LINE
8
BLACK
6
CONTINUOUS
10
28.2813
20
-44.6881
11
28.5867
21
-44.5118
0
LINE
8
BLACK
6
CONTINUOUS
10
28.5867
20
-44.5118
11
28.934
21
-44.4506
0
LINE
8
BLACK
6
CONTINUOUS
10
28.934
20
-44.4506
11
29.2813
21
-44.5118
0
LINE
8
BLACK
6
CONTINUOUS
10
44.434
20
-46.466
11
42.434
21
-46.466
0
LINE
8
BLACK
6
CONTINUOUS
10
42.434
20
-46.466
11
42.434
21
-44.466
0
LINE
8
BLACK
6
CONTINUOUS
10
42.434
20
-44.466
11
44.434
21
-44.466
0
LINE
8
BLACK
6
CONTINUOUS
10
44.434
20
-44.466
11
44.434
21
-46.466
0
LINE
8
BLACK
6
CONTINUOUS
10
79.0178
20
-43.6866
11
79.2622
21
-43.8277
0
LINE
8
BLACK
6
CONTINUOUS
10
79.2622
20
-43.8277
11
79.4435
21
-44.0438
0
LINE
8
BLACK
6
CONTINUOUS
10
79.4435
20
-44.0438
11
79.54
21
-44.3089
0
LINE
8
BLACK
6
CONTINUOUS
10
79.54
20
-44.3089
11
79.54
21
-44.5911
0
LINE
8
BLACK
6
CONTINUOUS
10
79.54
20
-44.5911
11
79.4435
21
-44.8562
0
LINE
8
BLACK
6
CONTINUOUS
10
79.4435
20
-44.8562
11
79.2622
21
-45.0723
0
LINE
8
BLACK
6
CONTINUOUS
10
79.2622
20
-45.0723
11
79.0178
21
-45.2134
0
LINE
8
BLACK
6
CONTINUOUS
10
79.0178
20
-45.2134
11
78.81
21
-45.25
0
LINE
8
BLACK
6
CONTINUOUS
10
78.81
20
-45.25
11
78.67
21
-45.25
0
LINE
8
BLACK
6
CONTINUOUS
10
78.67
20
-45.25
11
78.4622
21
-45.2134
0
LINE
8
BLACK
6
CONTINUOUS
10
78.4622
20
-45.2134
11
78.2178
21
-45.0723
0
LINE
8
BLACK
6
CONTINUOUS
10
78.2178
20
-45.0723
11
78.0365
21
-44.8562
0
LINE
8
BLACK
6
CONTINUOUS
10
78.0365
20
-44.8562
11
77.94
21
-44.5911
0
LINE
8
BLACK
6
CONTINUOUS
10
77.94
20
-44.5911
11
77.94
21
-44.3089
0
LINE
8
BLACK
6
CONTINUOUS
10
77.94
20
-44.3089
11
78.0365
21
-44.0438
0
LINE
8
BLACK
6
CONTINUOUS
10
78.0365
20
-44.0438
11
78.2178
21
-43.8277
0
LINE
8
BLACK
6
CONTINUOUS
10
78.2178
20
-43.8277
11
78.4622
21
-43.6866
0
LINE
8
BLACK
6
CONTINUOUS
10
78.4622
20
-43.6866
11
78.67
21
-43.65
0
LINE
8
BLACK
6
CONTINUOUS
10
78.67
20
-43.65
11
78.81
21
-43.65
0
LINE
8
BLACK
6
CONTINUOUS
10
78.81
20
-43.65
11
79.0178
21
-43.6866
0
LINE
8
BLACK
6
CONTINUOUS
10
66.3178
20
-43.6866
11
66.5622
21
-43.8277
0
LINE
8
BLACK
6
CONTINUOUS
10
66.5622
20
-43.8277
11
66.7435
21
-44.0438
0
LINE
8
BLACK
6
CONTINUOUS
10
66.7435
20
-44.0438
11
66.84
21
-44.3089
0
LINE
8
BLACK
6
CONTINUOUS
10
66.84
20
-44.3089
11
66.84
21
-44.5911
0
LINE
8
BLACK
6
CONTINUOUS
10
66.84
20
-44.5911
11
66.7435
21
-44.8562
0
LINE
8
BLACK
6
CONTINUOUS
10
66.7435
20
-44.8562
11
66.5622
21
-45.0723
0
LINE
8
BLACK
6
CONTINUOUS
10
66.5622
20
-45.0723
11
66.3178
21
-45.2134
0
LINE
8
BLACK
6
CONTINUOUS
10
66.3178
20
-45.2134
11
66.11
21
-45.25
0
LINE
8
BLACK
6
CONTINUOUS
10
66.11
20
-45.25
11
65.97
21
-45.25
0
LINE
8
BLACK
6
CONTINUOUS
10
65.97
20
-45.25
11
65.7622
21
-45.2134
0
LINE
8
BLACK
6
CONTINUOUS
10
65.7622
20
-45.2134
11
65.5178
21
-45.0723
0
LINE
8
BLACK
6
CONTINUOUS
10
65.5178
20
-45.0723
11
65.3365
21
-44.8562
0
LINE
8
BLACK
6
CONTINUOUS
10
65.3365
20
-44.8562
11
65.24
21
-44.5911
0
LINE
8
BLACK
6
CONTINUOUS
10
65.24
20
-44.5911
11
65.24
21
-44.3089
0
LINE
8
BLACK
6
CONTINUOUS
10
65.24
20
-44.3089
11
65.3365
21
-44.0438
0
LINE
8
BLACK
6
CONTINUOUS
10
65.3365
20
-44.0438
11
65.5178
21
-43.8277
0
LINE
8
BLACK
6
CONTINUOUS
10
65.5178
20
-43.8277
11
65.7622
21
-43.6866
0
LINE
8
BLACK
6
CONTINUOUS
10
65.7622
20
-43.6866
11
65.97
21
-43.65
0
LINE
8
BLACK
6
CONTINUOUS
10
65.97
20
-43.65
11
66.11
21
-43.65
0
LINE
8
BLACK
6
CONTINUOUS
10
66.11
20
-43.65
11
66.3178
21
-43.6866
0
LINE
8
BLACK
6
CONTINUOUS
10
76.4778
20
-43.6866
11
76.7222
21
-43.8277
0
LINE
8
BLACK
6
CONTINUOUS
10
76.7222
20
-43.8277
11
76.9035
21
-44.0438
0
LINE
8
BLACK
6
CONTINUOUS
10
76.9035
20
-44.0438
11
77
21
-44.3089
0
LINE
8
BLACK
6
CONTINUOUS
10
77
20
-44.3089
11
77
21
-44.5911
0
LINE
8
BLACK
6
CONTINUOUS
10
77
20
-44.5911
11
76.9035
21
-44.8562
0
LINE
8
BLACK
6
CONTINUOUS
10
76.9035
20
-44.8562
11
76.7222
21
-45.0723
0
LINE
8
BLACK
6
CONTINUOUS
10
76.7222
20
-45.0723
11
76.4778
21
-45.2134
0
LINE
8
BLACK
6
CONTINUOUS
10
76.4778
20
-45.2134
11
76.27
21
-45.25
0
LINE
8
BLACK
6
CONTINUOUS
10
76.27
20
-45.25
11
76.13
21
-45.25
0
LINE
8
BLACK
6
CONTINUOUS
10
76.13
20
-45.25
11
75.9222
21
-45.2134
0
LINE
8
BLACK
6
CONTINUOUS
10
75.9222
20
-45.2134
11
75.6778
21
-45.0723
0
LINE
8
BLACK
6
CONTINUOUS
10
75.6778
20
-45.0723
11
75.4965
21
-44.8562
0
LINE
8
BLACK
6
CONTINUOUS
10
75.4965
20
-44.8562
11
75.4
21
-44.5911
0
LINE
8
BLACK
6
CONTINUOUS
10
75.4
20
-44.5911
11
75.4
21
-44.3089
0
LINE
8
BLACK
6
CONTINUOUS
10
75.4
20
-44.3089
11
75.4965
21
-44.0438
0
LINE
8
BLACK
6
CONTINUOUS
10
75.4965
20
-44.0438
11
75.6778
21
-43.8277
0
LINE
8
BLACK
6
CONTINUOUS
10
75.6778
20
-43.8277
11
75.9222
21
-43.6866
0
LINE
8
BLACK
6
CONTINUOUS
10
75.9222
20
-43.6866
11
76.13
21
-43.65
0
LINE
8
BLACK
6
CONTINUOUS
10
76.13
20
-43.65
11
76.27
21
-43.65
0
LINE
8
BLACK
6
CONTINUOUS
10
76.27
20
-43.65
11
76.4778
21
-43.6866
0
LINE
8
BLACK
6
CONTINUOUS
10
73.9378
20
-43.6866
11
74.1822
21
-43.8277
0
LINE
8
BLACK
6
CONTINUOUS
10
74.1822
20
-43.8277
11
74.3635
21
-44.0438
0
LINE
8
BLACK
6
CONTINUOUS
10
74.3635
20
-44.0438
11
74.46
21
-44.3089
0
LINE
8
BLACK
6
CONTINUOUS
10
74.46
20
-44.3089
11
74.46
21
-44.5911
0
LINE
8
BLACK
6
CONTINUOUS
10
74.46
20
-44.5911
11
74.3635
21
-44.8562
0
LINE
8
BLACK
6
CONTINUOUS
10
74.3635
20
-44.8562
11
74.1822
21
-45.0723
0
LINE
8
BLACK
6
CONTINUOUS
10
74.1822
20
-45.0723
11
73.9378
21
-45.2134
0
LINE
8
BLACK
6
CONTINUOUS
10
73.9378
20
-45.2134
11
73.73
21
-45.25
0
LINE
8
BLACK
6
CONTINUOUS
10
73.73
20
-45.25
11
73.59
21
-45.25
0
LINE
8
BLACK
6
CONTINUOUS
10
73.59
20
-45.25
11
73.3822
21
-45.2134
0
LINE
8
BLACK
6
CONTINUOUS
10
73.3822
20
-45.2134
11
73.1378
21
-45.0723
0
LINE
8
BLACK
6
CONTINUOUS
10
73.1378
20
-45.0723
11
72.9565
21
-44.8562
0
LINE
8
BLACK
6
CONTINUOUS
10
72.9565
20
-44.8562
11
72.86
21
-44.5911
0
LINE
8
BLACK
6
CONTINUOUS
10
72.86
20
-44.5911
11
72.86
21
-44.3089
0
LINE
8
BLACK
6
CONTINUOUS
10
72.86
20
-44.3089
11
72.9565
21
-44.0438
0
LINE
8
BLACK
6
CONTINUOUS
10
72.9565
20
-44.0438
11
73.1378
21
-43.8277
0
LINE
8
BLACK
6
CONTINUOUS
10
73.1378
20
-43.8277
11
73.3822
21
-43.6866
0
LINE
8
BLACK
6
CONTINUOUS
10
73.3822
20
-43.6866
11
73.59
21
-43.65
0
LINE
8
BLACK
6
CONTINUOUS
10
73.59
20
-43.65
11
73.73
21
-43.65
0
LINE
8
BLACK
6
CONTINUOUS
10
73.73
20
-43.65
11
73.9378
21
-43.6866
0
LINE
8
BLACK
6
CONTINUOUS
10
71.3978
20
-43.6866
11
71.6422
21
-43.8277
0
LINE
8
BLACK
6
CONTINUOUS
10
71.6422
20
-43.8277
11
71.8235
21
-44.0438
0
LINE
8
BLACK
6
CONTINUOUS
10
71.8235
20
-44.0438
11
71.92
21
-44.3089
0
LINE
8
BLACK
6
CONTINUOUS
10
71.92
20
-44.3089
11
71.92
21
-44.5911
0
LINE
8
BLACK
6
CONTINUOUS
10
71.92
20
-44.5911
11
71.8235
21
-44.8562
0
LINE
8
BLACK
6
CONTINUOUS
10
71.8235
20
-44.8562
11
71.6422
21
-45.0723
0
LINE
8
BLACK
6
CONTINUOUS
10
71.6422
20
-45.0723
11
71.3978
21
-45.2134
0
LINE
8
BLACK
6
CONTINUOUS
10
71.3978
20
-45.2134
11
71.19
21
-45.25
0
LINE
8
BLACK
6
CONTINUOUS
10
71.19
20
-45.25
11
71.05
21
-45.25
0
LINE
8
BLACK
6
CONTINUOUS
10
71.05
20
-45.25
11
70.8422
21
-45.2134
0
LINE
8
BLACK
6
CONTINUOUS
10
70.8422
20
-45.2134
11
70.5978
21
-45.0723
0
LINE
8
BLACK
6
CONTINUOUS
10
70.5978
20
-45.0723
11
70.4165
21
-44.8562
0
LINE
8
BLACK
6
CONTINUOUS
10
70.4165
20
-44.8562
11
70.32
21
-44.5911
0
LINE
8
BLACK
6
CONTINUOUS
10
70.32
20
-44.5911
11
70.32
21
-44.3089
0
LINE
8
BLACK
6
CONTINUOUS
10
70.32
20
-44.3089
11
70.4165
21
-44.0438
0
LINE
8
BLACK
6
CONTINUOUS
10
70.4165
20
-44.0438
11
70.5978
21
-43.8277
0
LINE
8
BLACK
6
CONTINUOUS
10
70.5978
20
-43.8277
11
70.8422
21
-43.6866
0
LINE
8
BLACK
6
CONTINUOUS
10
70.8422
20
-43.6866
11
71.05
21
-43.65
0
LINE
8
BLACK
6
CONTINUOUS
10
71.05
20
-43.65
11
71.19
21
-43.65
0
LINE
8
BLACK
6
CONTINUOUS
10
71.19
20
-43.65
11
71.3978
21
-43.6866
0
LINE
8
BLACK
6
CONTINUOUS
10
68.8578
20
-43.6866
11
69.1022
21
-43.8277
0
LINE
8
BLACK
6
CONTINUOUS
10
69.1022
20
-43.8277
11
69.2835
21
-44.0438
0
LINE
8
BLACK
6
CONTINUOUS
10
69.2835
20
-44.0438
11
69.38
21
-44.3089
0
LINE
8
BLACK
6
CONTINUOUS
10
69.38
20
-44.3089
11
69.38
21
-44.5911
0
LINE
8
BLACK
6
CONTINUOUS
10
69.38
20
-44.5911
11
69.2835
21
-44.8562
0
LINE
8
BLACK
6
CONTINUOUS
10
69.2835
20
-44.8562
11
69.1022
21
-45.0723
0
LINE
8
BLACK
6
CONTINUOUS
10
69.1022
20
-45.0723
11
68.8578
21
-45.2134
0
LINE
8
BLACK
6
CONTINUOUS
10
68.8578
20
-45.2134
11
68.65
21
-45.25
0
LINE
8
BLACK
6
CONTINUOUS
10
68.65
20
-45.25
11
68.51
21
-45.25
0
LINE
8
BLACK
6
CONTINUOUS
10
68.51
20
-45.25
11
68.3022
21
-45.2134
0
LINE
8
BLACK
6
CONTINUOUS
10
68.3022
20
-45.2134
11
68.0578
21
-45.0723
0
LINE
8
BLACK
6
CONTINUOUS
10
68.0578
20
-45.0723
11
67.8765
21
-44.8562
0
LINE
8
BLACK
6
CONTINUOUS
10
67.8765
20
-44.8562
11
67.78
21
-44.5911
0
LINE
8
BLACK
6
CONTINUOUS
10
67.78
20
-44.5911
11
67.78
21
-44.3089
0
LINE
8
BLACK
6
CONTINUOUS
10
67.78
20
-44.3089
11
67.8765
21
-44.0438
0
LINE
8
BLACK
6
CONTINUOUS
10
67.8765
20
-44.0438
11
68.0578
21
-43.8277
0
LINE
8
BLACK
6
CONTINUOUS
10
68.0578
20
-43.8277
11
68.3022
21
-43.6866
0
LINE
8
BLACK
6
CONTINUOUS
10
68.3022
20
-43.6866
11
68.51
21
-43.65
0
LINE
8
BLACK
6
CONTINUOUS
10
68.51
20
-43.65
11
68.65
21
-43.65
0
LINE
8
BLACK
6
CONTINUOUS
10
68.65
20
-43.65
11
68.8578
21
-43.6866
0
LINE
8
BLACK
6
CONTINUOUS
10
63.7778
20
-43.6866
11
64.0222
21
-43.8277
0
LINE
8
BLACK
6
CONTINUOUS
10
64.0222
20
-43.8277
11
64.2035
21
-44.0438
0
LINE
8
BLACK
6
CONTINUOUS
10
64.2035
20
-44.0438
11
64.3
21
-44.3089
0
LINE
8
BLACK
6
CONTINUOUS
10
64.3
20
-44.3089
11
64.3
21
-44.5911
0
LINE
8
BLACK
6
CONTINUOUS
10
64.3
20
-44.5911
11
64.2035
21
-44.8562
0
LINE
8
BLACK
6
CONTINUOUS
10
64.2035
20
-44.8562
11
64.0222
21
-45.0723
0
LINE
8
BLACK
6
CONTINUOUS
10
64.0222
20
-45.0723
11
63.7778
21
-45.2134
0
LINE
8
BLACK
6
CONTINUOUS
10
63.7778
20
-45.2134
11
63.57
21
-45.25
0
LINE
8
BLACK
6
CONTINUOUS
10
63.57
20
-45.25
11
63.43
21
-45.25
0
LINE
8
BLACK
6
CONTINUOUS
10
63.43
20
-45.25
11
63.2222
21
-45.2134
0
LINE
8
BLACK
6
CONTINUOUS
10
63.2222
20
-45.2134
11
62.9778
21
-45.0723
0
LINE
8
BLACK
6
CONTINUOUS
10
62.9778
20
-45.0723
11
62.7965
21
-44.8562
0
LINE
8
BLACK
6
CONTINUOUS
10
62.7965
20
-44.8562
11
62.7
21
-44.5911
0
LINE
8
BLACK
6
CONTINUOUS
10
62.7
20
-44.5911
11
62.7
21
-44.3089
0
LINE
8
BLACK
6
CONTINUOUS
10
62.7
20
-44.3089
11
62.7965
21
-44.0438
0
LINE
8
BLACK
6
CONTINUOUS
10
62.7965
20
-44.0438
11
62.9778
21
-43.8277
0
LINE
8
BLACK
6
CONTINUOUS
10
62.9778
20
-43.8277
11
63.2222
21
-43.6866
0
LINE
8
BLACK
6
CONTINUOUS
10
63.2222
20
-43.6866
11
63.43
21
-43.65
0
LINE
8
BLACK
6
CONTINUOUS
10
63.43
20
-43.65
11
63.57
21
-43.65
0
LINE
8
BLACK
6
CONTINUOUS
10
63.57
20
-43.65
11
63.7778
21
-43.6866
0
LINE
8
BLACK
6
CONTINUOUS
10
18.7851
20
-43.7821
11
18.9989
21
-43.9055
0
LINE
8
BLACK
6
CONTINUOUS
10
18.9989
20
-43.9055
11
19.1576
21
-44.0946
0
LINE
8
BLACK
6
CONTINUOUS
10
19.1576
20
-44.0946
11
19.242
21
-44.3266
0
LINE
8
BLACK
6
CONTINUOUS
10
19.242
20
-44.3266
11
19.242
21
-44.5734
0
LINE
8
BLACK
6
CONTINUOUS
10
19.242
20
-44.5734
11
19.1576
21
-44.8054
0
LINE
8
BLACK
6
CONTINUOUS
10
19.1576
20
-44.8054
11
18.9989
21
-44.9945
0
LINE
8
BLACK
6
CONTINUOUS
10
18.9989
20
-44.9945
11
18.7851
21
-45.1179
0
LINE
8
BLACK
6
CONTINUOUS
10
18.7851
20
-45.1179
11
18.542
21
-45.1608
0
LINE
8
BLACK
6
CONTINUOUS
10
18.542
20
-45.1608
11
18.2989
21
-45.1179
0
LINE
8
BLACK
6
CONTINUOUS
10
18.2989
20
-45.1179
11
18.0851
21
-44.9945
0
LINE
8
BLACK
6
CONTINUOUS
10
18.0851
20
-44.9945
11
17.9264
21
-44.8054
0
LINE
8
BLACK
6
CONTINUOUS
10
17.9264
20
-44.8054
11
17.842
21
-44.5734
0
LINE
8
BLACK
6
CONTINUOUS
10
17.842
20
-44.5734
11
17.842
21
-44.3266
0
LINE
8
BLACK
6
CONTINUOUS
10
17.842
20
-44.3266
11
17.9264
21
-44.0946
0
LINE
8
BLACK
6
CONTINUOUS
10
17.9264
20
-44.0946
11
18.0851
21
-43.9055
0
LINE
8
BLACK
6
CONTINUOUS
10
18.0851
20
-43.9055
11
18.2989
21
-43.7821
0
LINE
8
BLACK
6
CONTINUOUS
10
18.2989
20
-43.7821
11
18.542
21
-43.7392
0
LINE
8
BLACK
6
CONTINUOUS
10
18.542
20
-43.7392
11
18.7851
21
-43.7821
0
LINE
8
BLACK
6
CONTINUOUS
10
46.7251
20
-43.7821
11
46.9389
21
-43.9055
0
LINE
8
BLACK
6
CONTINUOUS
10
46.9389
20
-43.9055
11
47.0976
21
-44.0946
0
LINE
8
BLACK
6
CONTINUOUS
10
47.0976
20
-44.0946
11
47.182
21
-44.3266
0
LINE
8
BLACK
6
CONTINUOUS
10
47.182
20
-44.3266
11
47.182
21
-44.5734
0
LINE
8
BLACK
6
CONTINUOUS
10
47.182
20
-44.5734
11
47.0976
21
-44.8054
0
LINE
8
BLACK
6
CONTINUOUS
10
47.0976
20
-44.8054
11
46.9389
21
-44.9945
0
LINE
8
BLACK
6
CONTINUOUS
10
46.9389
20
-44.9945
11
46.7251
21
-45.1179
0
LINE
8
BLACK
6
CONTINUOUS
10
46.7251
20
-45.1179
11
46.482
21
-45.1608
0
LINE
8
BLACK
6
CONTINUOUS
10
46.482
20
-45.1608
11
46.2389
21
-45.1179
0
LINE
8
BLACK
6
CONTINUOUS
10
46.2389
20
-45.1179
11
46.0251
21
-44.9945
0
LINE
8
BLACK
6
CONTINUOUS
10
46.0251
20
-44.9945
11
45.8664
21
-44.8054
0
LINE
8
BLACK
6
CONTINUOUS
10
45.8664
20
-44.8054
11
45.782
21
-44.5734
0
LINE
8
BLACK
6
CONTINUOUS
10
45.782
20
-44.5734
11
45.782
21
-44.3266
0
LINE
8
BLACK
6
CONTINUOUS
10
45.782
20
-44.3266
11
45.8664
21
-44.0946
0
LINE
8
BLACK
6
CONTINUOUS
10
45.8664
20
-44.0946
11
46.0251
21
-43.9055
0
LINE
8
BLACK
6
CONTINUOUS
10
46.0251
20
-43.9055
11
46.2389
21
-43.7821
0
LINE
8
BLACK
6
CONTINUOUS
10
46.2389
20
-43.7821
11
46.482
21
-43.7392
0
LINE
8
BLACK
6
CONTINUOUS
10
46.482
20
-43.7392
11
46.7251
21
-43.7821
0
LINE
8
BLACK
6
CONTINUOUS
10
26.4051
20
-43.7821
11
26.6189
21
-43.9055
0
LINE
8
BLACK
6
CONTINUOUS
10
26.6189
20
-43.9055
11
26.7776
21
-44.0946
0
LINE
8
BLACK
6
CONTINUOUS
10
26.7776
20
-44.0946
11
26.862
21
-44.3266
0
LINE
8
BLACK
6
CONTINUOUS
10
26.862
20
-44.3266
11
26.862
21
-44.5734
0
LINE
8
BLACK
6
CONTINUOUS
10
26.862
20
-44.5734
11
26.7776
21
-44.8054
0
LINE
8
BLACK
6
CONTINUOUS
10
26.7776
20
-44.8054
11
26.6189
21
-44.9945
0
LINE
8
BLACK
6
CONTINUOUS
10
26.6189
20
-44.9945
11
26.4051
21
-45.1179
0
LINE
8
BLACK
6
CONTINUOUS
10
26.4051
20
-45.1179
11
26.2232
21
-45.15
0
LINE
8
BLACK
6
CONTINUOUS
10
26.2232
20
-45.15
11
26.1008
21
-45.15
0
LINE
8
BLACK
6
CONTINUOUS
10
26.1008
20
-45.15
11
25.9189
21
-45.1179
0
LINE
8
BLACK
6
CONTINUOUS
10
25.9189
20
-45.1179
11
25.7051
21
-44.9945
0
LINE
8
BLACK
6
CONTINUOUS
10
25.7051
20
-44.9945
11
25.5464
21
-44.8054
0
LINE
8
BLACK
6
CONTINUOUS
10
25.5464
20
-44.8054
11
25.462
21
-44.5734
0
LINE
8
BLACK
6
CONTINUOUS
10
25.462
20
-44.5734
11
25.462
21
-44.3266
0
LINE
8
BLACK
6
CONTINUOUS
10
25.462
20
-44.3266
11
25.5464
21
-44.0946
0
LINE
8
BLACK
6
CONTINUOUS
10
25.5464
20
-44.0946
11
25.7051
21
-43.9055
0
LINE
8
BLACK
6
CONTINUOUS
10
25.7051
20
-43.9055
11
25.9189
21
-43.7821
0
LINE
8
BLACK
6
CONTINUOUS
10
25.9189
20
-43.7821
11
26.1008
21
-43.75
0
LINE
8
BLACK
6
CONTINUOUS
10
26.1008
20
-43.75
11
26.2232
21
-43.75
0
LINE
8
BLACK
6
CONTINUOUS
10
26.2232
20
-43.75
11
26.4051
21
-43.7821
0
LINE
8
BLACK
6
CONTINUOUS
10
54.3451
20
-43.7821
11
54.5589
21
-43.9055
0
LINE
8
BLACK
6
CONTINUOUS
10
54.5589
20
-43.9055
11
54.7176
21
-44.0946
0
LINE
8
BLACK
6
CONTINUOUS
10
54.7176
20
-44.0946
11
54.802
21
-44.3266
0
LINE
8
BLACK
6
CONTINUOUS
10
54.802
20
-44.3266
11
54.802
21
-44.5734
0
LINE
8
BLACK
6
CONTINUOUS
10
54.802
20
-44.5734
11
54.7176
21
-44.8054
0
LINE
8
BLACK
6
CONTINUOUS
10
54.7176
20
-44.8054
11
54.5589
21
-44.9945
0
LINE
8
BLACK
6
CONTINUOUS
10
54.5589
20
-44.9945
11
54.3451
21
-45.1179
0
LINE
8
BLACK
6
CONTINUOUS
10
54.3451
20
-45.1179
11
54.1632
21
-45.15
0
LINE
8
BLACK
6
CONTINUOUS
10
54.1632
20
-45.15
11
54.0408
21
-45.15
0
LINE
8
BLACK
6
CONTINUOUS
10
54.0408
20
-45.15
11
53.8589
21
-45.1179
0
LINE
8
BLACK
6
CONTINUOUS
10
53.8589
20
-45.1179
11
53.6451
21
-44.9945
0
LINE
8
BLACK
6
CONTINUOUS
10
53.6451
20
-44.9945
11
53.4864
21
-44.8054
0
LINE
8
BLACK
6
CONTINUOUS
10
53.4864
20
-44.8054
11
53.402
21
-44.5734
0
LINE
8
BLACK
6
CONTINUOUS
10
53.402
20
-44.5734
11
53.402
21
-44.3266
0
LINE
8
BLACK
6
CONTINUOUS
10
53.402
20
-44.3266
11
53.4864
21
-44.0946
0
LINE
8
BLACK
6
CONTINUOUS
10
53.4864
20
-44.0946
11
53.6451
21
-43.9055
0
LINE
8
BLACK
6
CONTINUOUS
10
53.6451
20
-43.9055
11
53.8589
21
-43.7821
0
LINE
8
BLACK
6
CONTINUOUS
10
53.8589
20
-43.7821
11
54.0408
21
-43.75
0
LINE
8
BLACK
6
CONTINUOUS
10
54.0408
20
-43.75
11
54.1632
21
-43.75
0
LINE
8
BLACK
6
CONTINUOUS
10
54.1632
20
-43.75
11
54.3451
21
-43.7821
0
LINE
8
BLACK
6
CONTINUOUS
10
84.3171
20
-43.0201
11
84.5309
21
-43.1435
0
LINE
8
BLACK
6
CONTINUOUS
10
84.5309
20
-43.1435
11
84.6896
21
-43.3326
0
LINE
8
BLACK
6
CONTINUOUS
10
84.6896
20
-43.3326
11
84.774
21
-43.5646
0
LINE
8
BLACK
6
CONTINUOUS
10
84.774
20
-43.5646
11
84.774
21
-43.8114
0
LINE
8
BLACK
6
CONTINUOUS
10
84.774
20
-43.8114
11
84.6896
21
-44.0434
0
LINE
8
BLACK
6
CONTINUOUS
10
84.6896
20
-44.0434
11
84.5309
21
-44.2325
0
LINE
8
BLACK
6
CONTINUOUS
10
84.5309
20
-44.2325
11
84.3171
21
-44.3559
0
LINE
8
BLACK
6
CONTINUOUS
10
84.3171
20
-44.3559
11
84.074
21
-44.3988
0
LINE
8
BLACK
6
CONTINUOUS
10
84.074
20
-44.3988
11
83.8309
21
-44.3559
0
LINE
8
BLACK
6
CONTINUOUS
10
83.8309
20
-44.3559
11
83.6171
21
-44.2325
0
LINE
8
BLACK
6
CONTINUOUS
10
83.6171
20
-44.2325
11
83.4584
21
-44.0434
0
LINE
8
BLACK
6
CONTINUOUS
10
83.4584
20
-44.0434
11
83.374
21
-43.8114
0
LINE
8
BLACK
6
CONTINUOUS
10
83.374
20
-43.8114
11
83.374
21
-43.5646
0
LINE
8
BLACK
6
CONTINUOUS
10
83.374
20
-43.5646
11
83.4584
21
-43.3326
0
LINE
8
BLACK
6
CONTINUOUS
10
83.4584
20
-43.3326
11
83.6171
21
-43.1435
0
LINE
8
BLACK
6
CONTINUOUS
10
83.6171
20
-43.1435
11
83.8309
21
-43.0201
0
LINE
8
BLACK
6
CONTINUOUS
10
83.8309
20
-43.0201
11
84.074
21
-42.9772
0
LINE
8
BLACK
6
CONTINUOUS
10
84.074
20
-42.9772
11
84.3171
21
-43.0201
0
LINE
8
BLACK
6
CONTINUOUS
10
36.4897
20
-40.8393
11
36.9783
21
-41.1214
0
LINE
8
BLACK
6
CONTINUOUS
10
36.9783
20
-41.1214
11
37.341
21
-41.5537
0
LINE
8
BLACK
6
CONTINUOUS
10
37.341
20
-41.5537
11
37.534
21
-42.0839
0
LINE
8
BLACK
6
CONTINUOUS
10
37.534
20
-42.0839
11
37.534
21
-42.6481
0
LINE
8
BLACK
6
CONTINUOUS
10
37.534
20
-42.6481
11
37.341
21
-43.1783
0
LINE
8
BLACK
6
CONTINUOUS
10
37.341
20
-43.1783
11
36.9783
21
-43.6106
0
LINE
8
BLACK
6
CONTINUOUS
10
36.9783
20
-43.6106
11
36.4897
21
-43.8927
0
LINE
8
BLACK
6
CONTINUOUS
10
36.4897
20
-43.8927
11
35.934
21
-43.9907
0
LINE
8
BLACK
6
CONTINUOUS
10
35.934
20
-43.9907
11
35.3783
21
-43.8927
0
LINE
8
BLACK
6
CONTINUOUS
10
35.3783
20
-43.8927
11
34.8897
21
-43.6106
0
LINE
8
BLACK
6
CONTINUOUS
10
34.8897
20
-43.6106
11
34.527
21
-43.1783
0
LINE
8
BLACK
6
CONTINUOUS
10
34.527
20
-43.1783
11
34.334
21
-42.6481
0
LINE
8
BLACK
6
CONTINUOUS
10
34.334
20
-42.6481
11
34.334
21
-42.0839
0
LINE
8
BLACK
6
CONTINUOUS
10
34.334
20
-42.0839
11
34.527
21
-41.5537
0
LINE
8
BLACK
6
CONTINUOUS
10
34.527
20
-41.5537
11
34.8897
21
-41.1214
0
LINE
8
BLACK
6
CONTINUOUS
10
34.8897
20
-41.1214
11
35.3783
21
-40.8393
0
LINE
8
BLACK
6
CONTINUOUS
10
35.3783
20
-40.8393
11
35.934
21
-40.7413
0
LINE
8
BLACK
6
CONTINUOUS
10
35.934
20
-40.7413
11
36.4897
21
-40.8393
0
LINE
8
BLACK
6
CONTINUOUS
10
23.8198
20
-41.1466
11
24.0642
21
-41.2877
0
LINE
8
BLACK
6
CONTINUOUS
10
24.0642
20
-41.2877
11
24.2455
21
-41.5038
0
LINE
8
BLACK
6
CONTINUOUS
10
24.2455
20
-41.5038
11
24.342
21
-41.7689
0
LINE
8
BLACK
6
CONTINUOUS
10
24.342
20
-41.7689
11
24.342
21
-42.0511
0
LINE
8
BLACK
6
CONTINUOUS
10
24.342
20
-42.0511
11
24.2455
21
-42.3162
0
LINE
8
BLACK
6
CONTINUOUS
10
24.2455
20
-42.3162
11
24.0642
21
-42.5323
0
LINE
8
BLACK
6
CONTINUOUS
10
24.0642
20
-42.5323
11
23.8198
21
-42.6734
0
LINE
8
BLACK
6
CONTINUOUS
10
23.8198
20
-42.6734
11
23.542
21
-42.7223
0
LINE
8
BLACK
6
CONTINUOUS
10
23.542
20
-42.7223
11
23.2642
21
-42.6734
0
LINE
8
BLACK
6
CONTINUOUS
10
23.2642
20
-42.6734
11
23.0198
21
-42.5323
0
LINE
8
BLACK
6
CONTINUOUS
10
23.0198
20
-42.5323
11
22.8385
21
-42.3162
0
LINE
8
BLACK
6
CONTINUOUS
10
22.8385
20
-42.3162
11
22.742
21
-42.0511
0
LINE
8
BLACK
6
CONTINUOUS
10
22.742
20
-42.0511
11
22.742
21
-41.7689
0
LINE
8
BLACK
6
CONTINUOUS
10
22.742
20
-41.7689
11
22.8385
21
-41.5038
0
LINE
8
BLACK
6
CONTINUOUS
10
22.8385
20
-41.5038
11
23.0198
21
-41.2877
0
LINE
8
BLACK
6
CONTINUOUS
10
23.0198
20
-41.2877
11
23.2642
21
-41.1466
0
LINE
8
BLACK
6
CONTINUOUS
10
23.2642
20
-41.1466
11
23.542
21
-41.0977
0
LINE
8
BLACK
6
CONTINUOUS
10
23.542
20
-41.0977
11
23.8198
21
-41.1466
0
LINE
8
BLACK
6
CONTINUOUS
10
18.8198
20
-41.1466
11
19.0642
21
-41.2877
0
LINE
8
BLACK
6
CONTINUOUS
10
19.0642
20
-41.2877
11
19.2455
21
-41.5038
0
LINE
8
BLACK
6
CONTINUOUS
10
19.2455
20
-41.5038
11
19.342
21
-41.7689
0
LINE
8
BLACK
6
CONTINUOUS
10
19.342
20
-41.7689
11
19.342
21
-42.0511
0
LINE
8
BLACK
6
CONTINUOUS
10
19.342
20
-42.0511
11
19.2455
21
-42.3162
0
LINE
8
BLACK
6
CONTINUOUS
10
19.2455
20
-42.3162
11
19.0642
21
-42.5323
0
LINE
8
BLACK
6
CONTINUOUS
10
19.0642
20
-42.5323
11
18.8198
21
-42.6734
0
LINE
8
BLACK
6
CONTINUOUS
10
18.8198
20
-42.6734
11
18.542
21
-42.7223
0
LINE
8
BLACK
6
CONTINUOUS
10
18.542
20
-42.7223
11
18.2642
21
-42.6734
0
LINE
8
BLACK
6
CONTINUOUS
10
18.2642
20
-42.6734
11
18.0198
21
-42.5323
0
LINE
8
BLACK
6
CONTINUOUS
10
18.0198
20
-42.5323
11
17.8385
21
-42.3162
0
LINE
8
BLACK
6
CONTINUOUS
10
17.8385
20
-42.3162
11
17.742
21
-42.0511
0
LINE
8
BLACK
6
CONTINUOUS
10
17.742
20
-42.0511
11
17.742
21
-41.7689
0
LINE
8
BLACK
6
CONTINUOUS
10
17.742
20
-41.7689
11
17.8385
21
-41.5038
0
LINE
8
BLACK
6
CONTINUOUS
10
17.8385
20
-41.5038
11
18.0198
21
-41.2877
0
LINE
8
BLACK
6
CONTINUOUS
10
18.0198
20
-41.2877
11
18.2642
21
-41.1466
0
LINE
8
BLACK
6
CONTINUOUS
10
18.2642
20
-41.1466
11
18.542
21
-41.0977
0
LINE
8
BLACK
6
CONTINUOUS
10
18.542
20
-41.0977
11
18.8198
21
-41.1466
0
LINE
8
BLACK
6
CONTINUOUS
10
49.3798
20
-41.1466
11
49.6242
21
-41.2877
0
LINE
8
BLACK
6
CONTINUOUS
10
49.6242
20
-41.2877
11
49.8055
21
-41.5038
0
LINE
8
BLACK
6
CONTINUOUS
10
49.8055
20
-41.5038
11
49.902
21
-41.7689
0
LINE
8
BLACK
6
CONTINUOUS
10
49.902
20
-41.7689
11
49.902
21
-42.0511
0
LINE
8
BLACK
6
CONTINUOUS
10
49.902
20
-42.0511
11
49.8055
21
-42.3162
0
LINE
8
BLACK
6
CONTINUOUS
10
49.8055
20
-42.3162
11
49.6242
21
-42.5323
0
LINE
8
BLACK
6
CONTINUOUS
10
49.6242
20
-42.5323
11
49.3798
21
-42.6734
0
LINE
8
BLACK
6
CONTINUOUS
10
49.3798
20
-42.6734
11
49.102
21
-42.7223
0
LINE
8
BLACK
6
CONTINUOUS
10
49.102
20
-42.7223
11
48.8242
21
-42.6734
0
LINE
8
BLACK
6
CONTINUOUS
10
48.8242
20
-42.6734
11
48.5798
21
-42.5323
0
LINE
8
BLACK
6
CONTINUOUS
10
48.5798
20
-42.5323
11
48.3985
21
-42.3162
0
LINE
8
BLACK
6
CONTINUOUS
10
48.3985
20
-42.3162
11
48.302
21
-42.0511
0
LINE
8
BLACK
6
CONTINUOUS
10
48.302
20
-42.0511
11
48.302
21
-41.7689
0
LINE
8
BLACK
6
CONTINUOUS
10
48.302
20
-41.7689
11
48.3985
21
-41.5038
0
LINE
8
BLACK
6
CONTINUOUS
10
48.3985
20
-41.5038
11
48.5798
21
-41.2877
0
LINE
8
BLACK
6
CONTINUOUS
10
48.5798
20
-41.2877
11
48.8242
21
-41.1466
0
LINE
8
BLACK
6
CONTINUOUS
10
48.8242
20
-41.1466
11
49.102
21
-41.0977
0
LINE
8
BLACK
6
CONTINUOUS
10
49.102
20
-41.0977
11
49.3798
21
-41.1466
0
LINE
8
BLACK
6
CONTINUOUS
10
54.3798
20
-41.1466
11
54.6242
21
-41.2877
0
LINE
8
BLACK
6
CONTINUOUS
10
54.6242
20
-41.2877
11
54.8055
21
-41.5038
0
LINE
8
BLACK
6
CONTINUOUS
10
54.8055
20
-41.5038
11
54.902
21
-41.7689
0
LINE
8
BLACK
6
CONTINUOUS
10
54.902
20
-41.7689
11
54.902
21
-42.0511
0
LINE
8
BLACK
6
CONTINUOUS
10
54.902
20
-42.0511
11
54.8055
21
-42.3162
0
LINE
8
BLACK
6
CONTINUOUS
10
54.8055
20
-42.3162
11
54.6242
21
-42.5323
0
LINE
8
BLACK
6
CONTINUOUS
10
54.6242
20
-42.5323
11
54.3798
21
-42.6734
0
LINE
8
BLACK
6
CONTINUOUS
10
54.3798
20
-42.6734
11
54.102
21
-42.7223
0
LINE
8
BLACK
6
CONTINUOUS
10
54.102
20
-42.7223
11
53.8242
21
-42.6734
0
LINE
8
BLACK
6
CONTINUOUS
10
53.8242
20
-42.6734
11
53.5798
21
-42.5323
0
LINE
8
BLACK
6
CONTINUOUS
10
53.5798
20
-42.5323
11
53.3985
21
-42.3162
0
LINE
8
BLACK
6
CONTINUOUS
10
53.3985
20
-42.3162
11
53.302
21
-42.0511
0
LINE
8
BLACK
6
CONTINUOUS
10
53.302
20
-42.0511
11
53.302
21
-41.7689
0
LINE
8
BLACK
6
CONTINUOUS
10
53.302
20
-41.7689
11
53.3985
21
-41.5038
0
LINE
8
BLACK
6
CONTINUOUS
10
53.3985
20
-41.5038
11
53.5798
21
-41.2877
0
LINE
8
BLACK
6
CONTINUOUS
10
53.5798
20
-41.2877
11
53.8242
21
-41.1466
0
LINE
8
BLACK
6
CONTINUOUS
10
53.8242
20
-41.1466
11
54.102
21
-41.0977
0
LINE
8
BLACK
6
CONTINUOUS
10
54.102
20
-41.0977
11
54.3798
21
-41.1466
0
LINE
8
BLACK
6
CONTINUOUS
10
56.8851
20
-41.2421
11
57.0989
21
-41.3655
0
LINE
8
BLACK
6
CONTINUOUS
10
57.0989
20
-41.3655
11
57.2576
21
-41.5546
0
LINE
8
BLACK
6
CONTINUOUS
10
57.2576
20
-41.5546
11
57.342
21
-41.7866
0
LINE
8
BLACK
6
CONTINUOUS
10
57.342
20
-41.7866
11
57.342
21
-42.0334
0
LINE
8
BLACK
6
CONTINUOUS
10
57.342
20
-42.0334
11
57.2576
21
-42.2654
0
LINE
8
BLACK
6
CONTINUOUS
10
57.2576
20
-42.2654
11
57.0989
21
-42.4545
0
LINE
8
BLACK
6
CONTINUOUS
10
57.0989
20
-42.4545
11
56.8851
21
-42.5779
0
LINE
8
BLACK
6
CONTINUOUS
10
56.8851
20
-42.5779
11
56.7032
21
-42.61
0
LINE
8
BLACK
6
CONTINUOUS
10
56.7032
20
-42.61
11
56.5808
21
-42.61
0
LINE
8
BLACK
6
CONTINUOUS
10
56.5808
20
-42.61
11
56.3989
21
-42.5779
0
LINE
8
BLACK
6
CONTINUOUS
10
56.3989
20
-42.5779
11
56.1851
21
-42.4545
0
LINE
8
BLACK
6
CONTINUOUS
10
56.1851
20
-42.4545
11
56.0264
21
-42.2654
0
LINE
8
BLACK
6
CONTINUOUS
10
56.0264
20
-42.2654
11
55.942
21
-42.0334
0
LINE
8
BLACK
6
CONTINUOUS
10
55.942
20
-42.0334
11
55.942
21
-41.7866
0
LINE
8
BLACK
6
CONTINUOUS
10
55.942
20
-41.7866
11
56.0264
21
-41.5546
0
LINE
8
BLACK
6
CONTINUOUS
10
56.0264
20
-41.5546
11
56.1851
21
-41.3655
0
LINE
8
BLACK
6
CONTINUOUS
10
56.1851
20
-41.3655
11
56.3989
21
-41.2421
0
LINE
8
BLACK
6
CONTINUOUS
10
56.3989
20
-41.2421
11
56.5808
21
-41.21
0
LINE
8
BLACK
6
CONTINUOUS
10
56.5808
20
-41.21
11
56.7032
21
-41.21
0
LINE
8
BLACK
6
CONTINUOUS
10
56.7032
20
-41.21
11
56.8851
21
-41.2421
0
LINE
8
BLACK
6
CONTINUOUS
10
81.7771
20
-39.7181
11
81.9909
21
-39.8415
0
LINE
8
BLACK
6
CONTINUOUS
10
81.9909
20
-39.8415
11
82.1496
21
-40.0306
0
LINE
8
BLACK
6
CONTINUOUS
10
82.1496
20
-40.0306
11
82.234
21
-40.2626
0
LINE
8
BLACK
6
CONTINUOUS
10
82.234
20
-40.2626
11
82.234
21
-40.5094
0
LINE
8
BLACK
6
CONTINUOUS
10
82.234
20
-40.5094
11
82.1496
21
-40.7414
0
LINE
8
BLACK
6
CONTINUOUS
10
82.1496
20
-40.7414
11
81.9909
21
-40.9305
0
LINE
8
BLACK
6
CONTINUOUS
10
81.9909
20
-40.9305
11
81.7771
21
-41.0539
0
LINE
8
BLACK
6
CONTINUOUS
10
81.7771
20
-41.0539
11
81.534
21
-41.0968
0
LINE
8
BLACK
6
CONTINUOUS
10
81.534
20
-41.0968
11
81.2909
21
-41.0539
0
LINE
8
BLACK
6
CONTINUOUS
10
81.2909
20
-41.0539
11
81.0771
21
-40.9305
0
LINE
8
BLACK
6
CONTINUOUS
10
81.0771
20
-40.9305
11
80.9184
21
-40.7414
0
LINE
8
BLACK
6
CONTINUOUS
10
80.9184
20
-40.7414
11
80.834
21
-40.5094
0
LINE
8
BLACK
6
CONTINUOUS
10
80.834
20
-40.5094
11
80.834
21
-40.2626
0
LINE
8
BLACK
6
CONTINUOUS
10
80.834
20
-40.2626
11
80.9184
21
-40.0306
0
LINE
8
BLACK
6
CONTINUOUS
10
80.9184
20
-40.0306
11
81.0771
21
-39.8415
0
LINE
8
BLACK
6
CONTINUOUS
10
81.0771
20
-39.8415
11
81.2909
21
-39.7181
0
LINE
8
BLACK
6
CONTINUOUS
10
81.2909
20
-39.7181
11
81.534
21
-39.6752
0
LINE
8
BLACK
6
CONTINUOUS
10
81.534
20
-39.6752
11
81.7771
21
-39.7181
0
LINE
8
BLACK
6
CONTINUOUS
10
89.3971
20
-39.7181
11
89.6109
21
-39.8415
0
LINE
8
BLACK
6
CONTINUOUS
10
89.6109
20
-39.8415
11
89.7696
21
-40.0306
0
LINE
8
BLACK
6
CONTINUOUS
10
89.7696
20
-40.0306
11
89.854
21
-40.2626
0
LINE
8
BLACK
6
CONTINUOUS
10
89.854
20
-40.2626
11
89.854
21
-40.5094
0
LINE
8
BLACK
6
CONTINUOUS
10
89.854
20
-40.5094
11
89.7696
21
-40.7414
0
LINE
8
BLACK
6
CONTINUOUS
10
89.7696
20
-40.7414
11
89.6109
21
-40.9305
0
LINE
8
BLACK
6
CONTINUOUS
10
89.6109
20
-40.9305
11
89.3971
21
-41.0539
0
LINE
8
BLACK
6
CONTINUOUS
10
89.3971
20
-41.0539
11
89.2152
21
-41.086
0
LINE
8
BLACK
6
CONTINUOUS
10
89.2152
20
-41.086
11
89.0928
21
-41.086
0
LINE
8
BLACK
6
CONTINUOUS
10
89.0928
20
-41.086
11
88.9109
21
-41.0539
0
LINE
8
BLACK
6
CONTINUOUS
10
88.9109
20
-41.0539
11
88.6971
21
-40.9305
0
LINE
8
BLACK
6
CONTINUOUS
10
88.6971
20
-40.9305
11
88.5384
21
-40.7414
0
LINE
8
BLACK
6
CONTINUOUS
10
88.5384
20
-40.7414
11
88.454
21
-40.5094
0
LINE
8
BLACK
6
CONTINUOUS
10
88.454
20
-40.5094
11
88.454
21
-40.2626
0
LINE
8
BLACK
6
CONTINUOUS
10
88.454
20
-40.2626
11
88.5384
21
-40.0306
0
LINE
8
BLACK
6
CONTINUOUS
10
88.5384
20
-40.0306
11
88.6971
21
-39.8415
0
LINE
8
BLACK
6
CONTINUOUS
10
88.6971
20
-39.8415
11
88.9109
21
-39.7181
0
LINE
8
BLACK
6
CONTINUOUS
10
88.9109
20
-39.7181
11
89.0928
21
-39.686
0
LINE
8
BLACK
6
CONTINUOUS
10
89.0928
20
-39.686
11
89.2152
21
-39.686
0
LINE
8
BLACK
6
CONTINUOUS
10
89.2152
20
-39.686
11
89.3971
21
-39.7181
0
LINE
8
BLACK
6
CONTINUOUS
10
67.5531
20
-38.7021
11
67.7669
21
-38.8255
0
LINE
8
BLACK
6
CONTINUOUS
10
67.7669
20
-38.8255
11
67.9256
21
-39.0146
0
LINE
8
BLACK
6
CONTINUOUS
10
67.9256
20
-39.0146
11
68.01
21
-39.2466
0
LINE
8
BLACK
6
CONTINUOUS
10
68.01
20
-39.2466
11
68.01
21
-39.4934
0
LINE
8
BLACK
6
CONTINUOUS
10
68.01
20
-39.4934
11
67.9256
21
-39.7254
0
LINE
8
BLACK
6
CONTINUOUS
10
67.9256
20
-39.7254
11
67.7669
21
-39.9145
0
LINE
8
BLACK
6
CONTINUOUS
10
67.7669
20
-39.9145
11
67.5531
21
-40.0379
0
LINE
8
BLACK
6
CONTINUOUS
10
67.5531
20
-40.0379
11
67.3712
21
-40.07
0
LINE
8
BLACK
6
CONTINUOUS
10
67.3712
20
-40.07
11
67.2488
21
-40.07
0
LINE
8
BLACK
6
CONTINUOUS
10
67.2488
20
-40.07
11
67.0669
21
-40.0379
0
LINE
8
BLACK
6
CONTINUOUS
10
67.0669
20
-40.0379
11
66.8531
21
-39.9145
0
LINE
8
BLACK
6
CONTINUOUS
10
66.8531
20
-39.9145
11
66.6944
21
-39.7254
0
LINE
8
BLACK
6
CONTINUOUS
10
66.6944
20
-39.7254
11
66.61
21
-39.4934
0
LINE
8
BLACK
6
CONTINUOUS
10
66.61
20
-39.4934
11
66.61
21
-39.2466
0
LINE
8
BLACK
6
CONTINUOUS
10
66.61
20
-39.2466
11
66.6944
21
-39.0146
0
LINE
8
BLACK
6
CONTINUOUS
10
66.6944
20
-39.0146
11
66.8531
21
-38.8255
0
LINE
8
BLACK
6
CONTINUOUS
10
66.8531
20
-38.8255
11
67.0669
21
-38.7021
0
LINE
8
BLACK
6
CONTINUOUS
10
67.0669
20
-38.7021
11
67.2488
21
-38.67
0
LINE
8
BLACK
6
CONTINUOUS
10
67.2488
20
-38.67
11
67.3712
21
-38.67
0
LINE
8
BLACK
6
CONTINUOUS
10
67.3712
20
-38.67
11
67.5531
21
-38.7021
0
LINE
8
BLACK
6
CONTINUOUS
10
53.6686
20
-35.7256
11
54.2794
21
-36.0783
0
LINE
8
BLACK
6
CONTINUOUS
10
54.2794
20
-36.0783
11
54.7328
21
-36.6186
0
LINE
8
BLACK
6
CONTINUOUS
10
54.7328
20
-36.6186
11
54.974
21
-37.2813
0
LINE
8
BLACK
6
CONTINUOUS
10
54.974
20
-37.2813
11
54.974
21
-37.9867
0
LINE
8
BLACK
6
CONTINUOUS
10
54.974
20
-37.9867
11
54.7328
21
-38.6494
0
LINE
8
BLACK
6
CONTINUOUS
10
54.7328
20
-38.6494
11
54.2794
21
-39.1897
0
LINE
8
BLACK
6
CONTINUOUS
10
54.2794
20
-39.1897
11
53.6686
21
-39.5424
0
LINE
8
BLACK
6
CONTINUOUS
10
53.6686
20
-39.5424
11
52.974
21
-39.6649
0
LINE
8
BLACK
6
CONTINUOUS
10
52.974
20
-39.6649
11
52.2794
21
-39.5424
0
LINE
8
BLACK
6
CONTINUOUS
10
52.2794
20
-39.5424
11
51.6686
21
-39.1897
0
LINE
8
BLACK
6
CONTINUOUS
10
51.6686
20
-39.1897
11
51.2152
21
-38.6494
0
LINE
8
BLACK
6
CONTINUOUS
10
51.2152
20
-38.6494
11
50.974
21
-37.9867
0
LINE
8
BLACK
6
CONTINUOUS
10
50.974
20
-37.9867
11
50.974
21
-37.2813
0
LINE
8
BLACK
6
CONTINUOUS
10
50.974
20
-37.2813
11
51.2152
21
-36.6186
0
LINE
8
BLACK
6
CONTINUOUS
10
51.2152
20
-36.6186
11
51.6686
21
-36.0783
0
LINE
8
BLACK
6
CONTINUOUS
10
51.6686
20
-36.0783
11
52.2794
21
-35.7256
0
LINE
8
BLACK
6
CONTINUOUS
10
52.2794
20
-35.7256
11
52.974
21
-35.6031
0
LINE
8
BLACK
6
CONTINUOUS
10
52.974
20
-35.6031
11
53.6686
21
-35.7256
0
LINE
8
BLACK
6
CONTINUOUS
10
71.3978
20
-37.0826
11
71.6422
21
-37.2237
0
LINE
8
BLACK
6
CONTINUOUS
10
71.6422
20
-37.2237
11
71.8235
21
-37.4398
0
LINE
8
BLACK
6
CONTINUOUS
10
71.8235
20
-37.4398
11
71.92
21
-37.7049
0
LINE
8
BLACK
6
CONTINUOUS
10
71.92
20
-37.7049
11
71.92
21
-37.9871
0
LINE
8
BLACK
6
CONTINUOUS
10
71.92
20
-37.9871
11
71.8235
21
-38.2522
0
LINE
8
BLACK
6
CONTINUOUS
10
71.8235
20
-38.2522
11
71.6422
21
-38.4683
0
LINE
8
BLACK
6
CONTINUOUS
10
71.6422
20
-38.4683
11
71.3978
21
-38.6094
0
LINE
8
BLACK
6
CONTINUOUS
10
71.3978
20
-38.6094
11
71.12
21
-38.6583
0
LINE
8
BLACK
6
CONTINUOUS
10
71.12
20
-38.6583
11
70.8422
21
-38.6094
0
LINE
8
BLACK
6
CONTINUOUS
10
70.8422
20
-38.6094
11
70.5978
21
-38.4683
0
LINE
8
BLACK
6
CONTINUOUS
10
70.5978
20
-38.4683
11
70.4165
21
-38.2522
0
LINE
8
BLACK
6
CONTINUOUS
10
70.4165
20
-38.2522
11
70.32
21
-37.9871
0
LINE
8
BLACK
6
CONTINUOUS
10
70.32
20
-37.9871
11
70.32
21
-37.7049
0
LINE
8
BLACK
6
CONTINUOUS
10
70.32
20
-37.7049
11
70.4165
21
-37.4398
0
LINE
8
BLACK
6
CONTINUOUS
10
70.4165
20
-37.4398
11
70.5978
21
-37.2237
0
LINE
8
BLACK
6
CONTINUOUS
10
70.5978
20
-37.2237
11
70.8422
21
-37.0826
0
LINE
8
BLACK
6
CONTINUOUS
10
70.8422
20
-37.0826
11
71.12
21
-37.0337
0
LINE
8
BLACK
6
CONTINUOUS
10
71.12
20
-37.0337
11
71.3978
21
-37.0826
0
LINE
8
BLACK
6
CONTINUOUS
10
79.0178
20
-37.0826
11
79.2622
21
-37.2237
0
LINE
8
BLACK
6
CONTINUOUS
10
79.2622
20
-37.2237
11
79.4435
21
-37.4398
0
LINE
8
BLACK
6
CONTINUOUS
10
79.4435
20
-37.4398
11
79.54
21
-37.7049
0
LINE
8
BLACK
6
CONTINUOUS
10
79.54
20
-37.7049
11
79.54
21
-37.9871
0
LINE
8
BLACK
6
CONTINUOUS
10
79.54
20
-37.9871
11
79.4435
21
-38.2522
0
LINE
8
BLACK
6
CONTINUOUS
10
79.4435
20
-38.2522
11
79.2622
21
-38.4683
0
LINE
8
BLACK
6
CONTINUOUS
10
79.2622
20
-38.4683
11
79.0178
21
-38.6094
0
LINE
8
BLACK
6
CONTINUOUS
10
79.0178
20
-38.6094
11
78.81
21
-38.646
0
LINE
8
BLACK
6
CONTINUOUS
10
78.81
20
-38.646
11
78.67
21
-38.646
0
LINE
8
BLACK
6
CONTINUOUS
10
78.67
20
-38.646
11
78.4622
21
-38.6094
0
LINE
8
BLACK
6
CONTINUOUS
10
78.4622
20
-38.6094
11
78.2178
21
-38.4683
0
LINE
8
BLACK
6
CONTINUOUS
10
78.2178
20
-38.4683
11
78.0365
21
-38.2522
0
LINE
8
BLACK
6
CONTINUOUS
10
78.0365
20
-38.2522
11
77.94
21
-37.9871
0
LINE
8
BLACK
6
CONTINUOUS
10
77.94
20
-37.9871
11
77.94
21
-37.7049
0
LINE
8
BLACK
6
CONTINUOUS
10
77.94
20
-37.7049
11
78.0365
21
-37.4398
0
LINE
8
BLACK
6
CONTINUOUS
10
78.0365
20
-37.4398
11
78.2178
21
-37.2237
0
LINE
8
BLACK
6
CONTINUOUS
10
78.2178
20
-37.2237
11
78.4622
21
-37.0826
0
LINE
8
BLACK
6
CONTINUOUS
10
78.4622
20
-37.0826
11
78.67
21
-37.046
0
LINE
8
BLACK
6
CONTINUOUS
10
78.67
20
-37.046
11
78.81
21
-37.046
0
LINE
8
BLACK
6
CONTINUOUS
10
78.81
20
-37.046
11
79.0178
21
-37.0826
0
LINE
8
BLACK
6
CONTINUOUS
10
81.7771
20
-37.1781
11
81.9909
21
-37.3015
0
LINE
8
BLACK
6
CONTINUOUS
10
81.9909
20
-37.3015
11
82.1496
21
-37.4906
0
LINE
8
BLACK
6
CONTINUOUS
10
82.1496
20
-37.4906
11
82.234
21
-37.7226
0
LINE
8
BLACK
6
CONTINUOUS
10
82.234
20
-37.7226
11
82.234
21
-37.9694
0
LINE
8
BLACK
6
CONTINUOUS
10
82.234
20
-37.9694
11
82.1496
21
-38.2014
0
LINE
8
BLACK
6
CONTINUOUS
10
82.1496
20
-38.2014
11
81.9909
21
-38.3905
0
LINE
8
BLACK
6
CONTINUOUS
10
81.9909
20
-38.3905
11
81.7771
21
-38.5139
0
LINE
8
BLACK
6
CONTINUOUS
10
81.7771
20
-38.5139
11
81.534
21
-38.5568
0
LINE
8
BLACK
6
CONTINUOUS
10
81.534
20
-38.5568
11
81.2909
21
-38.5139
0
LINE
8
BLACK
6
CONTINUOUS
10
81.2909
20
-38.5139
11
81.0771
21
-38.3905
0
LINE
8
BLACK
6
CONTINUOUS
10
81.0771
20
-38.3905
11
80.9184
21
-38.2014
0
LINE
8
BLACK
6
CONTINUOUS
10
80.9184
20
-38.2014
11
80.834
21
-37.9694
0
LINE
8
BLACK
6
CONTINUOUS
10
80.834
20
-37.9694
11
80.834
21
-37.7226
0
LINE
8
BLACK
6
CONTINUOUS
10
80.834
20
-37.7226
11
80.9184
21
-37.4906
0
LINE
8
BLACK
6
CONTINUOUS
10
80.9184
20
-37.4906
11
81.0771
21
-37.3015
0
LINE
8
BLACK
6
CONTINUOUS
10
81.0771
20
-37.3015
11
81.2909
21
-37.1781
0
LINE
8
BLACK
6
CONTINUOUS
10
81.2909
20
-37.1781
11
81.534
21
-37.1352
0
LINE
8
BLACK
6
CONTINUOUS
10
81.534
20
-37.1352
11
81.7771
21
-37.1781
0
LINE
8
BLACK
6
CONTINUOUS
10
89.3971
20
-37.1781
11
89.6109
21
-37.3015
0
LINE
8
BLACK
6
CONTINUOUS
10
89.6109
20
-37.3015
11
89.7696
21
-37.4906
0
LINE
8
BLACK
6
CONTINUOUS
10
89.7696
20
-37.4906
11
89.854
21
-37.7226
0
LINE
8
BLACK
6
CONTINUOUS
10
89.854
20
-37.7226
11
89.854
21
-37.9694
0
LINE
8
BLACK
6
CONTINUOUS
10
89.854
20
-37.9694
11
89.7696
21
-38.2014
0
LINE
8
BLACK
6
CONTINUOUS
10
89.7696
20
-38.2014
11
89.6109
21
-38.3905
0
LINE
8
BLACK
6
CONTINUOUS
10
89.6109
20
-38.3905
11
89.3971
21
-38.5139
0
LINE
8
BLACK
6
CONTINUOUS
10
89.3971
20
-38.5139
11
89.2152
21
-38.546
0
LINE
8
BLACK
6
CONTINUOUS
10
89.2152
20
-38.546
11
89.0928
21
-38.546
0
LINE
8
BLACK
6
CONTINUOUS
10
89.0928
20
-38.546
11
88.9109
21
-38.5139
0
LINE
8
BLACK
6
CONTINUOUS
10
88.9109
20
-38.5139
11
88.6971
21
-38.3905
0
LINE
8
BLACK
6
CONTINUOUS
10
88.6971
20
-38.3905
11
88.5384
21
-38.2014
0
LINE
8
BLACK
6
CONTINUOUS
10
88.5384
20
-38.2014
11
88.454
21
-37.9694
0
LINE
8
BLACK
6
CONTINUOUS
10
88.454
20
-37.9694
11
88.454
21
-37.7226
0
LINE
8
BLACK
6
CONTINUOUS
10
88.454
20
-37.7226
11
88.5384
21
-37.4906
0
LINE
8
BLACK
6
CONTINUOUS
10
88.5384
20
-37.4906
11
88.6971
21
-37.3015
0
LINE
8
BLACK
6
CONTINUOUS
10
88.6971
20
-37.3015
11
88.9109
21
-37.1781
0
LINE
8
BLACK
6
CONTINUOUS
10
88.9109
20
-37.1781
11
89.0928
21
-37.146
0
LINE
8
BLACK
6
CONTINUOUS
10
89.0928
20
-37.146
11
89.2152
21
-37.146
0
LINE
8
BLACK
6
CONTINUOUS
10
89.2152
20
-37.146
11
89.3971
21
-37.1781
0
LINE
8
BLACK
6
CONTINUOUS
10
18.924
20
-36.2884
11
19.26
21
-36.4824
0
LINE
8
BLACK
6
CONTINUOUS
10
19.26
20
-36.4824
11
19.5093
21
-36.7795
0
LINE
8
BLACK
6
CONTINUOUS
10
19.5093
20
-36.7795
11
19.642
21
-37.144
0
LINE
8
BLACK
6
CONTINUOUS
10
19.642
20
-37.144
11
19.642
21
-37.532
0
LINE
8
BLACK
6
CONTINUOUS
10
19.642
20
-37.532
11
19.5093
21
-37.8965
0
LINE
8
BLACK
6
CONTINUOUS
10
19.5093
20
-37.8965
11
19.26
21
-38.1936
0
LINE
8
BLACK
6
CONTINUOUS
10
19.26
20
-38.1936
11
18.924
21
-38.3876
0
LINE
8
BLACK
6
CONTINUOUS
10
18.924
20
-38.3876
11
18.542
21
-38.455
0
LINE
8
BLACK
6
CONTINUOUS
10
18.542
20
-38.455
11
18.16
21
-38.3876
0
LINE
8
BLACK
6
CONTINUOUS
10
18.16
20
-38.3876
11
17.824
21
-38.1936
0
LINE
8
BLACK
6
CONTINUOUS
10
17.824
20
-38.1936
11
17.5747
21
-37.8965
0
LINE
8
BLACK
6
CONTINUOUS
10
17.5747
20
-37.8965
11
17.442
21
-37.532
0
LINE
8
BLACK
6
CONTINUOUS
10
17.442
20
-37.532
11
17.442
21
-37.144
0
LINE
8
BLACK
6
CONTINUOUS
10
17.442
20
-37.144
11
17.5747
21
-36.7795
0
LINE
8
BLACK
6
CONTINUOUS
10
17.5747
20
-36.7795
11
17.824
21
-36.4824
0
LINE
8
BLACK
6
CONTINUOUS
10
17.824
20
-36.4824
11
18.16
21
-36.2884
0
LINE
8
BLACK
6
CONTINUOUS
10
18.16
20
-36.2884
11
18.542
21
-36.221
0
LINE
8
BLACK
6
CONTINUOUS
10
18.542
20
-36.221
11
18.924
21
-36.2884
0
LINE
8
BLACK
6
CONTINUOUS
10
42.7132
20
-35.0029
11
42.9728
21
-35.1528
0
LINE
8
BLACK
6
CONTINUOUS
10
42.9728
20
-35.1528
11
43.1655
21
-35.3824
0
LINE
8
BLACK
6
CONTINUOUS
10
43.1655
20
-35.3824
11
43.268
21
-35.6641
0
LINE
8
BLACK
6
CONTINUOUS
10
43.268
20
-35.6641
11
43.268
21
-35.9639
0
LINE
8
BLACK
6
CONTINUOUS
10
43.268
20
-35.9639
11
43.1655
21
-36.2456
0
LINE
8
BLACK
6
CONTINUOUS
10
43.1655
20
-36.2456
11
42.9728
21
-36.4752
0
LINE
8
BLACK
6
CONTINUOUS
10
42.9728
20
-36.4752
11
42.7132
21
-36.6251
0
LINE
8
BLACK
6
CONTINUOUS
10
42.7132
20
-36.6251
11
42.4924
21
-36.664
0
LINE
8
BLACK
6
CONTINUOUS
10
42.4924
20
-36.664
11
42.3436
21
-36.664
0
LINE
8
BLACK
6
CONTINUOUS
10
42.3436
20
-36.664
11
42.1228
21
-36.6251
0
LINE
8
BLACK
6
CONTINUOUS
10
42.1228
20
-36.6251
11
41.8632
21
-36.4752
0
LINE
8
BLACK
6
CONTINUOUS
10
41.8632
20
-36.4752
11
41.6705
21
-36.2456
0
LINE
8
BLACK
6
CONTINUOUS
10
41.6705
20
-36.2456
11
41.568
21
-35.9639
0
LINE
8
BLACK
6
CONTINUOUS
10
41.568
20
-35.9639
11
41.568
21
-35.6641
0
LINE
8
BLACK
6
CONTINUOUS
10
41.568
20
-35.6641
11
41.6705
21
-35.3824
0
LINE
8
BLACK
6
CONTINUOUS
10
41.6705
20
-35.3824
11
41.8632
21
-35.1528
0
LINE
8
BLACK
6
CONTINUOUS
10
41.8632
20
-35.1528
11
42.1228
21
-35.0029
0
LINE
8
BLACK
6
CONTINUOUS
10
42.1228
20
-35.0029
11
42.3436
21
-34.964
0
LINE
8
BLACK
6
CONTINUOUS
10
42.3436
20
-34.964
11
42.4924
21
-34.964
0
LINE
8
BLACK
6
CONTINUOUS
10
42.4924
20
-34.964
11
42.7132
21
-35.0029
0
LINE
8
BLACK
6
CONTINUOUS
10
46.2866
20
-34.8752
11
46.5614
21
-35.0339
0
LINE
8
BLACK
6
CONTINUOUS
10
46.5614
20
-35.0339
11
46.7654
21
-35.2771
0
LINE
8
BLACK
6
CONTINUOUS
10
46.7654
20
-35.2771
11
46.874
21
-35.5753
0
LINE
8
BLACK
6
CONTINUOUS
10
46.874
20
-35.5753
11
46.874
21
-35.8927
0
LINE
8
BLACK
6
CONTINUOUS
10
46.874
20
-35.8927
11
46.7654
21
-36.1909
0
LINE
8
BLACK
6
CONTINUOUS
10
46.7654
20
-36.1909
11
46.5614
21
-36.4341
0
LINE
8
BLACK
6
CONTINUOUS
10
46.5614
20
-36.4341
11
46.2866
21
-36.5928
0
LINE
8
BLACK
6
CONTINUOUS
10
46.2866
20
-36.5928
11
45.974
21
-36.6479
0
LINE
8
BLACK
6
CONTINUOUS
10
45.974
20
-36.6479
11
45.6614
21
-36.5928
0
LINE
8
BLACK
6
CONTINUOUS
10
45.6614
20
-36.5928
11
45.3866
21
-36.4341
0
LINE
8
BLACK
6
CONTINUOUS
10
45.3866
20
-36.4341
11
45.1826
21
-36.1909
0
LINE
8
BLACK
6
CONTINUOUS
10
45.1826
20
-36.1909
11
45.074
21
-35.8927
0
LINE
8
BLACK
6
CONTINUOUS
10
45.074
20
-35.8927
11
45.074
21
-35.5753
0
LINE
8
BLACK
6
CONTINUOUS
10
45.074
20
-35.5753
11
45.1826
21
-35.2771
0
LINE
8
BLACK
6
CONTINUOUS
10
45.1826
20
-35.2771
11
45.3866
21
-35.0339
0
LINE
8
BLACK
6
CONTINUOUS
10
45.3866
20
-35.0339
11
45.6614
21
-34.8752
0
LINE
8
BLACK
6
CONTINUOUS
10
45.6614
20
-34.8752
11
45.974
21
-34.8201
0
LINE
8
BLACK
6
CONTINUOUS
10
45.974
20
-34.8201
11
46.2866
21
-34.8752
0
LINE
8
BLACK
6
CONTINUOUS
10
81.8118
20
-34.5426
11
82.0562
21
-34.6837
0
LINE
8
BLACK
6
CONTINUOUS
10
82.0562
20
-34.6837
11
82.2375
21
-34.8998
0
LINE
8
BLACK
6
CONTINUOUS
10
82.2375
20
-34.8998
11
82.334
21
-35.1649
0
LINE
8
BLACK
6
CONTINUOUS
10
82.334
20
-35.1649
11
82.334
21
-35.4471
0
LINE
8
BLACK
6
CONTINUOUS
10
82.334
20
-35.4471
11
82.2375
21
-35.7122
0
LINE
8
BLACK
6
CONTINUOUS
10
82.2375
20
-35.7122
11
82.0562
21
-35.9283
0
LINE
8
BLACK
6
CONTINUOUS
10
82.0562
20
-35.9283
11
81.8118
21
-36.0694
0
LINE
8
BLACK
6
CONTINUOUS
10
81.8118
20
-36.0694
11
81.534
21
-36.1183
0
LINE
8
BLACK
6
CONTINUOUS
10
81.534
20
-36.1183
11
81.2562
21
-36.0694
0
LINE
8
BLACK
6
CONTINUOUS
10
81.2562
20
-36.0694
11
81.0118
21
-35.9283
0
LINE
8
BLACK
6
CONTINUOUS
10
81.0118
20
-35.9283
11
80.8305
21
-35.7122
0
LINE
8
BLACK
6
CONTINUOUS
10
80.8305
20
-35.7122
11
80.734
21
-35.4471
0
LINE
8
BLACK
6
CONTINUOUS
10
80.734
20
-35.4471
11
80.734
21
-35.1649
0
LINE
8
BLACK
6
CONTINUOUS
10
80.734
20
-35.1649
11
80.8305
21
-34.8998
0
LINE
8
BLACK
6
CONTINUOUS
10
80.8305
20
-34.8998
11
81.0118
21
-34.6837
0
LINE
8
BLACK
6
CONTINUOUS
10
81.0118
20
-34.6837
11
81.2562
21
-34.5426
0
LINE
8
BLACK
6
CONTINUOUS
10
81.2562
20
-34.5426
11
81.534
21
-34.4937
0
LINE
8
BLACK
6
CONTINUOUS
10
81.534
20
-34.4937
11
81.8118
21
-34.5426
0
LINE
8
BLACK
6
CONTINUOUS
10
86.8118
20
-34.5426
11
87.0562
21
-34.6837
0
LINE
8
BLACK
6
CONTINUOUS
10
87.0562
20
-34.6837
11
87.2375
21
-34.8998
0
LINE
8
BLACK
6
CONTINUOUS
10
87.2375
20
-34.8998
11
87.334
21
-35.1649
0
LINE
8
BLACK
6
CONTINUOUS
10
87.334
20
-35.1649
11
87.334
21
-35.4471
0
LINE
8
BLACK
6
CONTINUOUS
10
87.334
20
-35.4471
11
87.2375
21
-35.7122
0
LINE
8
BLACK
6
CONTINUOUS
10
87.2375
20
-35.7122
11
87.0562
21
-35.9283
0
LINE
8
BLACK
6
CONTINUOUS
10
87.0562
20
-35.9283
11
86.8118
21
-36.0694
0
LINE
8
BLACK
6
CONTINUOUS
10
86.8118
20
-36.0694
11
86.534
21
-36.1183
0
LINE
8
BLACK
6
CONTINUOUS
10
86.534
20
-36.1183
11
86.2562
21
-36.0694
0
LINE
8
BLACK
6
CONTINUOUS
10
86.2562
20
-36.0694
11
86.0118
21
-35.9283
0
LINE
8
BLACK
6
CONTINUOUS
10
86.0118
20
-35.9283
11
85.8305
21
-35.7122
0
LINE
8
BLACK
6
CONTINUOUS
10
85.8305
20
-35.7122
11
85.734
21
-35.4471
0
LINE
8
BLACK
6
CONTINUOUS
10
85.734
20
-35.4471
11
85.734
21
-35.1649
0
LINE
8
BLACK
6
CONTINUOUS
10
85.734
20
-35.1649
11
85.8305
21
-34.8998
0
LINE
8
BLACK
6
CONTINUOUS
10
85.8305
20
-34.8998
11
86.0118
21
-34.6837
0
LINE
8
BLACK
6
CONTINUOUS
10
86.0118
20
-34.6837
11
86.2562
21
-34.5426
0
LINE
8
BLACK
6
CONTINUOUS
10
86.2562
20
-34.5426
11
86.534
21
-34.4937
0
LINE
8
BLACK
6
CONTINUOUS
10
86.534
20
-34.4937
11
86.8118
21
-34.5426
0
LINE
8
BLACK
6
CONTINUOUS
10
89.9572
20
-33.9869
11
90.2168
21
-34.1368
0
LINE
8
BLACK
6
CONTINUOUS
10
90.2168
20
-34.1368
11
90.4095
21
-34.3664
0
LINE
8
BLACK
6
CONTINUOUS
10
90.4095
20
-34.3664
11
90.512
21
-34.6481
0
LINE
8
BLACK
6
CONTINUOUS
10
90.512
20
-34.6481
11
90.512
21
-34.9479
0
LINE
8
BLACK
6
CONTINUOUS
10
90.512
20
-34.9479
11
90.4095
21
-35.2296
0
LINE
8
BLACK
6
CONTINUOUS
10
90.4095
20
-35.2296
11
90.2168
21
-35.4592
0
LINE
8
BLACK
6
CONTINUOUS
10
90.2168
20
-35.4592
11
89.9572
21
-35.6091
0
LINE
8
BLACK
6
CONTINUOUS
10
89.9572
20
-35.6091
11
89.7364
21
-35.648
0
LINE
8
BLACK
6
CONTINUOUS
10
89.7364
20
-35.648
11
89.5876
21
-35.648
0
LINE
8
BLACK
6
CONTINUOUS
10
89.5876
20
-35.648
11
89.3668
21
-35.6091
0
LINE
8
BLACK
6
CONTINUOUS
10
89.3668
20
-35.6091
11
89.1072
21
-35.4592
0
LINE
8
BLACK
6
CONTINUOUS
10
89.1072
20
-35.4592
11
88.9145
21
-35.2296
0
LINE
8
BLACK
6
CONTINUOUS
10
88.9145
20
-35.2296
11
88.812
21
-34.9479
0
LINE
8
BLACK
6
CONTINUOUS
10
88.812
20
-34.9479
11
88.812
21
-34.6481
0
LINE
8
BLACK
6
CONTINUOUS
10
88.812
20
-34.6481
11
88.9145
21
-34.3664
0
LINE
8
BLACK
6
CONTINUOUS
10
88.9145
20
-34.3664
11
89.1072
21
-34.1368
0
LINE
8
BLACK
6
CONTINUOUS
10
89.1072
20
-34.1368
11
89.3668
21
-33.9869
0
LINE
8
BLACK
6
CONTINUOUS
10
89.3668
20
-33.9869
11
89.5876
21
-33.948
0
LINE
8
BLACK
6
CONTINUOUS
10
89.5876
20
-33.948
11
89.7364
21
-33.948
0
LINE
8
BLACK
6
CONTINUOUS
10
89.7364
20
-33.948
11
89.9572
21
-33.9869
0
LINE
8
BLACK
6
CONTINUOUS
10
46.2866
20
-32.3752
11
46.5614
21
-32.5339
0
LINE
8
BLACK
6
CONTINUOUS
10
46.5614
20
-32.5339
11
46.7654
21
-32.7771
0
LINE
8
BLACK
6
CONTINUOUS
10
46.7654
20
-32.7771
11
46.874
21
-33.0753
0
LINE
8
BLACK
6
CONTINUOUS
10
46.874
20
-33.0753
11
46.874
21
-33.3927
0
LINE
8
BLACK
6
CONTINUOUS
10
46.874
20
-33.3927
11
46.7654
21
-33.6909
0
LINE
8
BLACK
6
CONTINUOUS
10
46.7654
20
-33.6909
11
46.5614
21
-33.9341
0
LINE
8
BLACK
6
CONTINUOUS
10
46.5614
20
-33.9341
11
46.2866
21
-34.0928
0
LINE
8
BLACK
6
CONTINUOUS
10
46.2866
20
-34.0928
11
45.974
21
-34.1479
0
LINE
8
BLACK
6
CONTINUOUS
10
45.974
20
-34.1479
11
45.6614
21
-34.0928
0
LINE
8
BLACK
6
CONTINUOUS
10
45.6614
20
-34.0928
11
45.3866
21
-33.9341
0
LINE
8
BLACK
6
CONTINUOUS
10
45.3866
20
-33.9341
11
45.1826
21
-33.6909
0
LINE
8
BLACK
6
CONTINUOUS
10
45.1826
20
-33.6909
11
45.074
21
-33.3927
0
LINE
8
BLACK
6
CONTINUOUS
10
45.074
20
-33.3927
11
45.074
21
-33.0753
0
LINE
8
BLACK
6
CONTINUOUS
10
45.074
20
-33.0753
11
45.1826
21
-32.7771
0
LINE
8
BLACK
6
CONTINUOUS
10
45.1826
20
-32.7771
11
45.3866
21
-32.5339
0
LINE
8
BLACK
6
CONTINUOUS
10
45.3866
20
-32.5339
11
45.6614
21
-32.3752
0
LINE
8
BLACK
6
CONTINUOUS
10
45.6614
20
-32.3752
11
45.974
21
-32.3201
0
LINE
8
BLACK
6
CONTINUOUS
10
45.974
20
-32.3201
11
46.2866
21
-32.3752
0
LINE
8
BLACK
6
CONTINUOUS
10
63.628
20
-31.9704
11
63.964
21
-32.1644
0
LINE
8
BLACK
6
CONTINUOUS
10
63.964
20
-32.1644
11
64.2133
21
-32.4615
0
LINE
8
BLACK
6
CONTINUOUS
10
64.2133
20
-32.4615
11
64.346
21
-32.826
0
LINE
8
BLACK
6
CONTINUOUS
10
64.346
20
-32.826
11
64.346
21
-33.214
0
LINE
8
BLACK
6
CONTINUOUS
10
64.346
20
-33.214
11
64.2133
21
-33.5785
0
LINE
8
BLACK
6
CONTINUOUS
10
64.2133
20
-33.5785
11
63.964
21
-33.8756
0
LINE
8
BLACK
6
CONTINUOUS
10
63.964
20
-33.8756
11
63.628
21
-34.0696
0
LINE
8
BLACK
6
CONTINUOUS
10
63.628
20
-34.0696
11
63.246
21
-34.137
0
LINE
8
BLACK
6
CONTINUOUS
10
63.246
20
-34.137
11
62.864
21
-34.0696
0
LINE
8
BLACK
6
CONTINUOUS
10
62.864
20
-34.0696
11
62.528
21
-33.8756
0
LINE
8
BLACK
6
CONTINUOUS
10
62.528
20
-33.8756
11
62.2787
21
-33.5785
0
LINE
8
BLACK
6
CONTINUOUS
10
62.2787
20
-33.5785
11
62.146
21
-33.214
0
LINE
8
BLACK
6
CONTINUOUS
10
62.146
20
-33.214
11
62.146
21
-32.826
0
LINE
8
BLACK
6
CONTINUOUS
10
62.146
20
-32.826
11
62.2787
21
-32.4615
0
LINE
8
BLACK
6
CONTINUOUS
10
62.2787
20
-32.4615
11
62.528
21
-32.1644
0
LINE
8
BLACK
6
CONTINUOUS
10
62.528
20
-32.1644
11
62.864
21
-31.9704
0
LINE
8
BLACK
6
CONTINUOUS
10
62.864
20
-31.9704
11
63.246
21
-31.903
0
LINE
8
BLACK
6
CONTINUOUS
10
63.246
20
-31.903
11
63.628
21
-31.9704
0
LINE
8
BLACK
6
CONTINUOUS
10
42.7132
20
-32.4629
11
42.9728
21
-32.6128
0
LINE
8
BLACK
6
CONTINUOUS
10
42.9728
20
-32.6128
11
43.1655
21
-32.8424
0
LINE
8
BLACK
6
CONTINUOUS
10
43.1655
20
-32.8424
11
43.268
21
-33.1241
0
LINE
8
BLACK
6
CONTINUOUS
10
43.268
20
-33.1241
11
43.268
21
-33.4239
0
LINE
8
BLACK
6
CONTINUOUS
10
43.268
20
-33.4239
11
43.1655
21
-33.7056
0
LINE
8
BLACK
6
CONTINUOUS
10
43.1655
20
-33.7056
11
42.9728
21
-33.9352
0
LINE
8
BLACK
6
CONTINUOUS
10
42.9728
20
-33.9352
11
42.7132
21
-34.0851
0
LINE
8
BLACK
6
CONTINUOUS
10
42.7132
20
-34.0851
11
42.4924
21
-34.124
0
LINE
8
BLACK
6
CONTINUOUS
10
42.4924
20
-34.124
11
42.3436
21
-34.124
0
LINE
8
BLACK
6
CONTINUOUS
10
42.3436
20
-34.124
11
42.1228
21
-34.0851
0
LINE
8
BLACK
6
CONTINUOUS
10
42.1228
20
-34.0851
11
41.8632
21
-33.9352
0
LINE
8
BLACK
6
CONTINUOUS
10
41.8632
20
-33.9352
11
41.6705
21
-33.7056
0
LINE
8
BLACK
6
CONTINUOUS
10
41.6705
20
-33.7056
11
41.568
21
-33.4239
0
LINE
8
BLACK
6
CONTINUOUS
10
41.568
20
-33.4239
11
41.568
21
-33.1241
0
LINE
8
BLACK
6
CONTINUOUS
10
41.568
20
-33.1241
11
41.6705
21
-32.8424
0
LINE
8
BLACK
6
CONTINUOUS
10
41.6705
20
-32.8424
11
41.8632
21
-32.6128
0
LINE
8
BLACK
6
CONTINUOUS
10
41.8632
20
-32.6128
11
42.1228
21
-32.4629
0
LINE
8
BLACK
6
CONTINUOUS
10
42.1228
20
-32.4629
11
42.3436
21
-32.424
0
LINE
8
BLACK
6
CONTINUOUS
10
42.3436
20
-32.424
11
42.4924
21
-32.424
0
LINE
8
BLACK
6
CONTINUOUS
10
42.4924
20
-32.424
11
42.7132
21
-32.4629
0
LINE
8
BLACK
6
CONTINUOUS
10
90.512
20
-33.108
11
88.812
21
-33.108
0
LINE
8
BLACK
6
CONTINUOUS
10
88.812
20
-33.108
11
88.812
21
-31.408
0
LINE
8
BLACK
6
CONTINUOUS
10
88.812
20
-31.408
11
90.512
21
-31.408
0
LINE
8
BLACK
6
CONTINUOUS
10
90.512
20
-31.408
11
90.512
21
-33.108
0
LINE
8
BLACK
6
CONTINUOUS
10
46.2866
20
-29.8752
11
46.5614
21
-30.0339
0
LINE
8
BLACK
6
CONTINUOUS
10
46.5614
20
-30.0339
11
46.7654
21
-30.2771
0
LINE
8
BLACK
6
CONTINUOUS
10
46.7654
20
-30.2771
11
46.874
21
-30.5753
0
LINE
8
BLACK
6
CONTINUOUS
10
46.874
20
-30.5753
11
46.874
21
-30.8927
0
LINE
8
BLACK
6
CONTINUOUS
10
46.874
20
-30.8927
11
46.7654
21
-31.1909
0
LINE
8
BLACK
6
CONTINUOUS
10
46.7654
20
-31.1909
11
46.5614
21
-31.4341
0
LINE
8
BLACK
6
CONTINUOUS
10
46.5614
20
-31.4341
11
46.2866
21
-31.5928
0
LINE
8
BLACK
6
CONTINUOUS
10
46.2866
20
-31.5928
11
45.974
21
-31.6479
0
LINE
8
BLACK
6
CONTINUOUS
10
45.974
20
-31.6479
11
45.6614
21
-31.5928
0
LINE
8
BLACK
6
CONTINUOUS
10
45.6614
20
-31.5928
11
45.3866
21
-31.4341
0
LINE
8
BLACK
6
CONTINUOUS
10
45.3866
20
-31.4341
11
45.1826
21
-31.1909
0
LINE
8
BLACK
6
CONTINUOUS
10
45.1826
20
-31.1909
11
45.074
21
-30.8927
0
LINE
8
BLACK
6
CONTINUOUS
10
45.074
20
-30.8927
11
45.074
21
-30.5753
0
LINE
8
BLACK
6
CONTINUOUS
10
45.074
20
-30.5753
11
45.1826
21
-30.2771
0
LINE
8
BLACK
6
CONTINUOUS
10
45.1826
20
-30.2771
11
45.3866
21
-30.0339
0
LINE
8
BLACK
6
CONTINUOUS
10
45.3866
20
-30.0339
11
45.6614
21
-29.8752
0
LINE
8
BLACK
6
CONTINUOUS
10
45.6614
20
-29.8752
11
45.974
21
-29.8201
0
LINE
8
BLACK
6
CONTINUOUS
10
45.974
20
-29.8201
11
46.2866
21
-29.8752
0
LINE
8
BLACK
6
CONTINUOUS
10
43.268
20
-31.584
11
41.568
21
-31.584
0
LINE
8
BLACK
6
CONTINUOUS
10
41.568
20
-31.584
11
41.568
21
-29.884
0
LINE
8
BLACK
6
CONTINUOUS
10
41.568
20
-29.884
11
43.268
21
-29.884
0
LINE
8
BLACK
6
CONTINUOUS
10
43.268
20
-29.884
11
43.268
21
-31.584
0
LINE
8
BLACK
6
CONTINUOUS
10
53.6686
20
-26.9256
11
54.2794
21
-27.2783
0
LINE
8
BLACK
6
CONTINUOUS
10
54.2794
20
-27.2783
11
54.7328
21
-27.8186
0
LINE
8
BLACK
6
CONTINUOUS
10
54.7328
20
-27.8186
11
54.974
21
-28.4813
0
LINE
8
BLACK
6
CONTINUOUS
10
54.974
20
-28.4813
11
54.974
21
-29.1867
0
LINE
8
BLACK
6
CONTINUOUS
10
54.974
20
-29.1867
11
54.7328
21
-29.8494
0
LINE
8
BLACK
6
CONTINUOUS
10
54.7328
20
-29.8494
11
54.2794
21
-30.3897
0
LINE
8
BLACK
6
CONTINUOUS
10
54.2794
20
-30.3897
11
53.6686
21
-30.7424
0
LINE
8
BLACK
6
CONTINUOUS
10
53.6686
20
-30.7424
11
52.974
21
-30.8649
0
LINE
8
BLACK
6
CONTINUOUS
10
52.974
20
-30.8649
11
52.2794
21
-30.7424
0
LINE
8
BLACK
6
CONTINUOUS
10
52.2794
20
-30.7424
11
51.6686
21
-30.3897
0
LINE
8
BLACK
6
CONTINUOUS
10
51.6686
20
-30.3897
11
51.2152
21
-29.8494
0
LINE
8
BLACK
6
CONTINUOUS
10
51.2152
20
-29.8494
11
50.974
21
-29.1867
0
LINE
8
BLACK
6
CONTINUOUS
10
50.974
20
-29.1867
11
50.974
21
-28.4813
0
LINE
8
BLACK
6
CONTINUOUS
10
50.974
20
-28.4813
11
51.2152
21
-27.8186
0
LINE
8
BLACK
6
CONTINUOUS
10
51.2152
20
-27.8186
11
51.6686
21
-27.2783
0
LINE
8
BLACK
6
CONTINUOUS
10
51.6686
20
-27.2783
11
52.2794
21
-26.9256
0
LINE
8
BLACK
6
CONTINUOUS
10
52.2794
20
-26.9256
11
52.974
21
-26.8031
0
LINE
8
BLACK
6
CONTINUOUS
10
52.974
20
-26.8031
11
53.6686
21
-26.9256
0
LINE
8
BLACK
6
CONTINUOUS
10
68.414
20
-26.758
11
66.714
21
-26.758
0
LINE
8
BLACK
6
CONTINUOUS
10
66.714
20
-26.758
11
66.714
21
-25.058
0
LINE
8
BLACK
6
CONTINUOUS
10
66.714
20
-25.058
11
68.414
21
-25.058
0
LINE
8
BLACK
6
CONTINUOUS
10
68.414
20
-25.058
11
68.414
21
-26.758
0
LINE
8
BLACK
6
CONTINUOUS
10
70.3992
20
-25.0969
11
70.6588
21
-25.2468
0
LINE
8
BLACK
6
CONTINUOUS
10
70.6588
20
-25.2468
11
70.8515
21
-25.4764
0
LINE
8
BLACK
6
CONTINUOUS
10
70.8515
20
-25.4764
11
70.954
21
-25.7581
0
LINE
8
BLACK
6
CONTINUOUS
10
70.954
20
-25.7581
11
70.954
21
-26.0579
0
LINE
8
BLACK
6
CONTINUOUS
10
70.954
20
-26.0579
11
70.8515
21
-26.3396
0
LINE
8
BLACK
6
CONTINUOUS
10
70.8515
20
-26.3396
11
70.6588
21
-26.5692
0
LINE
8
BLACK
6
CONTINUOUS
10
70.6588
20
-26.5692
11
70.3992
21
-26.7191
0
LINE
8
BLACK
6
CONTINUOUS
10
70.3992
20
-26.7191
11
70.1784
21
-26.758
0
LINE
8
BLACK
6
CONTINUOUS
10
70.1784
20
-26.758
11
70.0296
21
-26.758
0
LINE
8
BLACK
6
CONTINUOUS
10
70.0296
20
-26.758
11
69.8088
21
-26.7191
0
LINE
8
BLACK
6
CONTINUOUS
10
69.8088
20
-26.7191
11
69.5492
21
-26.5692
0
LINE
8
BLACK
6
CONTINUOUS
10
69.5492
20
-26.5692
11
69.3565
21
-26.3396
0
LINE
8
BLACK
6
CONTINUOUS
10
69.3565
20
-26.3396
11
69.254
21
-26.0579
0
LINE
8
BLACK
6
CONTINUOUS
10
69.254
20
-26.0579
11
69.254
21
-25.7581
0
LINE
8
BLACK
6
CONTINUOUS
10
69.254
20
-25.7581
11
69.3565
21
-25.4764
0
LINE
8
BLACK
6
CONTINUOUS
10
69.3565
20
-25.4764
11
69.5492
21
-25.2468
0
LINE
8
BLACK
6
CONTINUOUS
10
69.5492
20
-25.2468
11
69.8088
21
-25.0969
0
LINE
8
BLACK
6
CONTINUOUS
10
69.8088
20
-25.0969
11
70.0296
21
-25.058
0
LINE
8
BLACK
6
CONTINUOUS
10
70.0296
20
-25.058
11
70.1784
21
-25.058
0
LINE
8
BLACK
6
CONTINUOUS
10
70.1784
20
-25.058
11
70.3992
21
-25.0969
0
LINE
8
BLACK
6
CONTINUOUS
10
72.9392
20
-25.0969
11
73.1988
21
-25.2468
0
LINE
8
BLACK
6
CONTINUOUS
10
73.1988
20
-25.2468
11
73.3915
21
-25.4764
0
LINE
8
BLACK
6
CONTINUOUS
10
73.3915
20
-25.4764
11
73.494
21
-25.7581
0
LINE
8
BLACK
6
CONTINUOUS
10
73.494
20
-25.7581
11
73.494
21
-26.0579
0
LINE
8
BLACK
6
CONTINUOUS
10
73.494
20
-26.0579
11
73.3915
21
-26.3396
0
LINE
8
BLACK
6
CONTINUOUS
10
73.3915
20
-26.3396
11
73.1988
21
-26.5692
0
LINE
8
BLACK
6
CONTINUOUS
10
73.1988
20
-26.5692
11
72.9392
21
-26.7191
0
LINE
8
BLACK
6
CONTINUOUS
10
72.9392
20
-26.7191
11
72.7184
21
-26.758
0
LINE
8
BLACK
6
CONTINUOUS
10
72.7184
20
-26.758
11
72.5696
21
-26.758
0
LINE
8
BLACK
6
CONTINUOUS
10
72.5696
20
-26.758
11
72.3488
21
-26.7191
0
LINE
8
BLACK
6
CONTINUOUS
10
72.3488
20
-26.7191
11
72.0892
21
-26.5692
0
LINE
8
BLACK
6
CONTINUOUS
10
72.0892
20
-26.5692
11
71.8965
21
-26.3396
0
LINE
8
BLACK
6
CONTINUOUS
10
71.8965
20
-26.3396
11
71.794
21
-26.0579
0
LINE
8
BLACK
6
CONTINUOUS
10
71.794
20
-26.0579
11
71.794
21
-25.7581
0
LINE
8
BLACK
6
CONTINUOUS
10
71.794
20
-25.7581
11
71.8965
21
-25.4764
0
LINE
8
BLACK
6
CONTINUOUS
10
71.8965
20
-25.4764
11
72.0892
21
-25.2468
0
LINE
8
BLACK
6
CONTINUOUS
10
72.0892
20
-25.2468
11
72.3488
21
-25.0969
0
LINE
8
BLACK
6
CONTINUOUS
10
72.3488
20
-25.0969
11
72.5696
21
-25.058
0
LINE
8
BLACK
6
CONTINUOUS
10
72.5696
20
-25.058
11
72.7184
21
-25.058
0
LINE
8
BLACK
6
CONTINUOUS
10
72.7184
20
-25.058
11
72.9392
21
-25.0969
0
LINE
8
BLACK
6
CONTINUOUS
10
75.4792
20
-25.0969
11
75.7388
21
-25.2468
0
LINE
8
BLACK
6
CONTINUOUS
10
75.7388
20
-25.2468
11
75.9315
21
-25.4764
0
LINE
8
BLACK
6
CONTINUOUS
10
75.9315
20
-25.4764
11
76.034
21
-25.7581
0
LINE
8
BLACK
6
CONTINUOUS
10
76.034
20
-25.7581
11
76.034
21
-26.0579
0
LINE
8
BLACK
6
CONTINUOUS
10
76.034
20
-26.0579
11
75.9315
21
-26.3396
0
LINE
8
BLACK
6
CONTINUOUS
10
75.9315
20
-26.3396
11
75.7388
21
-26.5692
0
LINE
8
BLACK
6
CONTINUOUS
10
75.7388
20
-26.5692
11
75.4792
21
-26.7191
0
LINE
8
BLACK
6
CONTINUOUS
10
75.4792
20
-26.7191
11
75.2584
21
-26.758
0
LINE
8
BLACK
6
CONTINUOUS
10
75.2584
20
-26.758
11
75.1096
21
-26.758
0
LINE
8
BLACK
6
CONTINUOUS
10
75.1096
20
-26.758
11
74.8888
21
-26.7191
0
LINE
8
BLACK
6
CONTINUOUS
10
74.8888
20
-26.7191
11
74.6292
21
-26.5692
0
LINE
8
BLACK
6
CONTINUOUS
10
74.6292
20
-26.5692
11
74.4365
21
-26.3396
0
LINE
8
BLACK
6
CONTINUOUS
10
74.4365
20
-26.3396
11
74.334
21
-26.0579
0
LINE
8
BLACK
6
CONTINUOUS
10
74.334
20
-26.0579
11
74.334
21
-25.7581
0
LINE
8
BLACK
6
CONTINUOUS
10
74.334
20
-25.7581
11
74.4365
21
-25.4764
0
LINE
8
BLACK
6
CONTINUOUS
10
74.4365
20
-25.4764
11
74.6292
21
-25.2468
0
LINE
8
BLACK
6
CONTINUOUS
10
74.6292
20
-25.2468
11
74.8888
21
-25.0969
0
LINE
8
BLACK
6
CONTINUOUS
10
74.8888
20
-25.0969
11
75.1096
21
-25.058
0
LINE
8
BLACK
6
CONTINUOUS
10
75.1096
20
-25.058
11
75.2584
21
-25.058
0
LINE
8
BLACK
6
CONTINUOUS
10
75.2584
20
-25.058
11
75.4792
21
-25.0969
0
LINE
8
BLACK
6
CONTINUOUS
10
91.568
20
-19.0164
11
91.904
21
-19.2104
0
LINE
8
BLACK
6
CONTINUOUS
10
91.904
20
-19.2104
11
92.1533
21
-19.5075
0
LINE
8
BLACK
6
CONTINUOUS
10
92.1533
20
-19.5075
11
92.286
21
-19.872
0
LINE
8
BLACK
6
CONTINUOUS
10
92.286
20
-19.872
11
92.286
21
-20.26
0
LINE
8
BLACK
6
CONTINUOUS
10
92.286
20
-20.26
11
92.1533
21
-20.6245
0
LINE
8
BLACK
6
CONTINUOUS
10
92.1533
20
-20.6245
11
91.904
21
-20.9216
0
LINE
8
BLACK
6
CONTINUOUS
10
91.904
20
-20.9216
11
91.568
21
-21.1156
0
LINE
8
BLACK
6
CONTINUOUS
10
91.568
20
-21.1156
11
91.186
21
-21.183
0
LINE
8
BLACK
6
CONTINUOUS
10
91.186
20
-21.183
11
90.804
21
-21.1156
0
LINE
8
BLACK
6
CONTINUOUS
10
90.804
20
-21.1156
11
90.468
21
-20.9216
0
LINE
8
BLACK
6
CONTINUOUS
10
90.468
20
-20.9216
11
90.2187
21
-20.6245
0
LINE
8
BLACK
6
CONTINUOUS
10
90.2187
20
-20.6245
11
90.086
21
-20.26
0
LINE
8
BLACK
6
CONTINUOUS
10
90.086
20
-20.26
11
90.086
21
-19.872
0
LINE
8
BLACK
6
CONTINUOUS
10
90.086
20
-19.872
11
90.2187
21
-19.5075
0
LINE
8
BLACK
6
CONTINUOUS
10
90.2187
20
-19.5075
11
90.468
21
-19.2104
0
LINE
8
BLACK
6
CONTINUOUS
10
90.468
20
-19.2104
11
90.804
21
-19.0164
0
LINE
8
BLACK
6
CONTINUOUS
10
90.804
20
-19.0164
11
91.186
21
-18.949
0
LINE
8
BLACK
6
CONTINUOUS
10
91.186
20
-18.949
11
91.568
21
-19.0164
0
LINE
8
BLACK
6
CONTINUOUS
10
43.308
20
-19.0164
11
43.644
21
-19.2104
0
LINE
8
BLACK
6
CONTINUOUS
10
43.644
20
-19.2104
11
43.8933
21
-19.5075
0
LINE
8
BLACK
6
CONTINUOUS
10
43.8933
20
-19.5075
11
44.026
21
-19.872
0
LINE
8
BLACK
6
CONTINUOUS
10
44.026
20
-19.872
11
44.026
21
-20.26
0
LINE
8
BLACK
6
CONTINUOUS
10
44.026
20
-20.26
11
43.8933
21
-20.6245
0
LINE
8
BLACK
6
CONTINUOUS
10
43.8933
20
-20.6245
11
43.644
21
-20.9216
0
LINE
8
BLACK
6
CONTINUOUS
10
43.644
20
-20.9216
11
43.308
21
-21.1156
0
LINE
8
BLACK
6
CONTINUOUS
10
43.308
20
-21.1156
11
42.926
21
-21.183
0
LINE
8
BLACK
6
CONTINUOUS
10
42.926
20
-21.183
11
42.544
21
-21.1156
0
LINE
8
BLACK
6
CONTINUOUS
10
42.544
20
-21.1156
11
42.208
21
-20.9216
0
LINE
8
BLACK
6
CONTINUOUS
10
42.208
20
-20.9216
11
41.9587
21
-20.6245
0
LINE
8
BLACK
6
CONTINUOUS
10
41.9587
20
-20.6245
11
41.826
21
-20.26
0
LINE
8
BLACK
6
CONTINUOUS
10
41.826
20
-20.26
11
41.826
21
-19.872
0
LINE
8
BLACK
6
CONTINUOUS
10
41.826
20
-19.872
11
41.9587
21
-19.5075
0
LINE
8
BLACK
6
CONTINUOUS
10
41.9587
20
-19.5075
11
42.208
21
-19.2104
0
LINE
8
BLACK
6
CONTINUOUS
10
42.208
20
-19.2104
11
42.544
21
-19.0164
0
LINE
8
BLACK
6
CONTINUOUS
10
42.544
20
-19.0164
11
42.926
21
-18.949
0
LINE
8
BLACK
6
CONTINUOUS
10
42.926
20
-18.949
11
43.308
21
-19.0164
  0
ENDSEC
  0
EOF
