  0
SECTION
  2
HEADER
  9
$ANGBASE
  50
0.0
  9
$ANGDIR
  70
  1
  9
$MEASUREMENT
  70
0
  0
ENDSEC
  0
SECTION
  2
TABLES
  0
TABLE
  2
LTYPE
  70
4
  0
LTYPE
  5
40F
  2
CONTINUOUS
  70
0
  3
Solid line
  72
65
  73
0
  40
0.0
  0
LTYPE
  5
410
  2
DASHDOT
 70
0
  3
Dash Dot ____ _ ____ _
 72
65
 73
4
 40
2.0
 49
1.25
 49
-0.25
 49
0.25
 49
-0.25
  0
LTYPE
  5
411
  2
DASHED
 70
0
  3
Dashed __ __ __ __ __
 72
65
 73
2
 40
0.75
 49
0.5
 49
-0.25
  0
LTYPE
  5
43B
  2
DOTTED
 70
0
  3
Dotted .  .  .  .
 72
65
 73
2
 40
0.2
 49
0.0
 49
-0.2
  0
ENDTAB
  0
TABLE
  2
STYLE
  70
4
  0
STYLE
  2
KICAD
  70
0
  40
0
  41
1
  42
1
  50
0
  71
0
  3
isocp.shx
  0
STYLE
  2
KICADB
  70
0
  40
0
  41
1
  42
1
  50
0
  71
0
  3
isocp.shx
  0
STYLE
  2
KICADI
  70
0
  40
0
  41
1
  42
1
  50
15
  71
0
  3
isocp.shx
  0
STYLE
  2
KICADBI
  70
0
  40
0
  41
1
  42
1
  50
15
  71
0
  3
isocp.shx
  0
ENDTAB
  0
TABLE
  2
LAYER
  70
30
  0
LAYER
  2
BLACK
  70
0
  62
7
  6
CONTINUOUS
  0
LAYER
  2
GRAY1
  70
0
  62
251
  6
CONTINUOUS
  0
LAYER
  2
GRAY2
  70
0
  62
8
  6
CONTINUOUS
  0
LAYER
  2
GRAY3
  70
0
  62
9
  6
CONTINUOUS
  0
LAYER
  2
WHITE
  70
0
  62
7
  6
CONTINUOUS
  0
LAYER
  2
LYELLOW
  70
0
  62
51
  6
CONTINUOUS
  0
LAYER
  2
BLUE1
  70
0
  62
178
  6
CONTINUOUS
  0
LAYER
  2
GREEN1
  70
0
  62
98
  6
CONTINUOUS
  0
LAYER
  2
CYAN1
  70
0
  62
138
  6
CONTINUOUS
  0
LAYER
  2
RED1
  70
0
  62
18
  6
CONTINUOUS
  0
LAYER
  2
MAGENTA1
  70
0
  62
228
  6
CONTINUOUS
  0
LAYER
  2
BROWN1
  70
0
  62
58
  6
CONTINUOUS
  0
LAYER
  2
BLUE2
  70
0
  62
5
  6
CONTINUOUS
  0
LAYER
  2
GREEN2
  70
0
  62
3
  6
CONTINUOUS
  0
LAYER
  2
CYAN2
  70
0
  62
4
  6
CONTINUOUS
  0
LAYER
  2
RED2
  70
0
  62
1
  6
CONTINUOUS
  0
LAYER
  2
MAGENTA2
  70
0
  62
6
  6
CONTINUOUS
  0
LAYER
  2
BROWN2
  70
0
  62
54
  6
CONTINUOUS
  0
LAYER
  2
BLUE3
  70
0
  62
171
  6
CONTINUOUS
  0
LAYER
  2
GREEN3
  70
0
  62
91
  6
CONTINUOUS
  0
LAYER
  2
CYAN3
  70
0
  62
131
  6
CONTINUOUS
  0
LAYER
  2
RED3
  70
0
  62
11
  6
CONTINUOUS
  0
LAYER
  2
MAGENTA3
  70
0
  62
221
  6
CONTINUOUS
  0
LAYER
  2
YELLOW3
  70
0
  62
2
  6
CONTINUOUS
  0
LAYER
  2
BLUE4
  70
0
  62
5
  6
CONTINUOUS
  0
LAYER
  2
GREEN4
  70
0
  62
3
  6
CONTINUOUS
  0
LAYER
  2
CYAN4
  70
0
  62
4
  6
CONTINUOUS
  0
LAYER
  2
RED4
  70
0
  62
1
  6
CONTINUOUS
  0
LAYER
  2
MAGENTA4
  70
0
  62
6
  6
CONTINUOUS
  0
LAYER
  2
YELLOW4
  70
0
  62
2
  6
CONTINUOUS
  0
ENDTAB
  0
ENDSEC
  0
SECTION
  2
ENTITIES
0
LINE
8
BLACK
6
CONTINUOUS
10
94.2825
20
-79.261
11
94.2817
21
-79.2654
0
LINE
8
BLACK
6
CONTINUOUS
10
94.2817
20
-79.2654
11
94.2795
21
-79.2692
0
LINE
8
BLACK
6
CONTINUOUS
10
94.2795
20
-79.2692
11
94.278
21
-79.2734
0
LINE
8
BLACK
6
CONTINUOUS
10
94.278
20
-79.2734
11
94.2751
21
-79.2768
0
LINE
8
BLACK
6
CONTINUOUS
10
94.2751
20
-79.2768
11
94.2729
21
-79.2806
0
LINE
8
BLACK
6
CONTINUOUS
10
94.2729
20
-79.2806
11
94.2695
21
-79.2835
0
LINE
8
BLACK
6
CONTINUOUS
10
94.2695
20
-79.2835
11
94.2666
21
-79.2869
0
LINE
8
BLACK
6
CONTINUOUS
10
94.2666
20
-79.2869
11
94.2628
21
-79.2891
0
LINE
8
BLACK
6
CONTINUOUS
10
94.2628
20
-79.2891
11
94.2594
21
-79.292
0
LINE
8
BLACK
6
CONTINUOUS
10
94.2594
20
-79.292
11
94.2552
21
-79.2935
0
LINE
8
BLACK
6
CONTINUOUS
10
94.2552
20
-79.2935
11
94.2514
21
-79.2957
0
LINE
8
BLACK
6
CONTINUOUS
10
94.2514
20
-79.2957
11
94.247
21
-79.2965
0
LINE
8
BLACK
6
CONTINUOUS
10
94.247
20
-79.2965
11
94.2428
21
-79.298
0
LINE
8
BLACK
6
CONTINUOUS
10
94.2428
20
-79.298
11
39.8692
21
-79.298
0
LINE
8
BLACK
6
CONTINUOUS
10
39.8692
20
-79.298
11
39.865
21
-79.2965
0
LINE
8
BLACK
6
CONTINUOUS
10
39.865
20
-79.2965
11
39.8606
21
-79.2957
0
LINE
8
BLACK
6
CONTINUOUS
10
39.8606
20
-79.2957
11
39.8568
21
-79.2935
0
LINE
8
BLACK
6
CONTINUOUS
10
39.8568
20
-79.2935
11
39.8526
21
-79.292
0
LINE
8
BLACK
6
CONTINUOUS
10
39.8526
20
-79.292
11
39.8492
21
-79.2891
0
LINE
8
BLACK
6
CONTINUOUS
10
39.8492
20
-79.2891
11
39.8454
21
-79.2869
0
LINE
8
BLACK
6
CONTINUOUS
10
39.8454
20
-79.2869
11
39.8425
21
-79.2835
0
LINE
8
BLACK
6
CONTINUOUS
10
39.8425
20
-79.2835
11
39.8391
21
-79.2806
0
LINE
8
BLACK
6
CONTINUOUS
10
39.8391
20
-79.2806
11
39.8369
21
-79.2768
0
LINE
8
BLACK
6
CONTINUOUS
10
39.8369
20
-79.2768
11
39.834
21
-79.2734
0
LINE
8
BLACK
6
CONTINUOUS
10
39.834
20
-79.2734
11
39.8325
21
-79.2692
0
LINE
8
BLACK
6
CONTINUOUS
10
39.8325
20
-79.2692
11
39.8303
21
-79.2654
0
LINE
8
BLACK
6
CONTINUOUS
10
39.8303
20
-79.2654
11
39.8295
21
-79.261
0
LINE
8
BLACK
6
CONTINUOUS
10
39.8295
20
-79.261
11
39.828
21
-79.2568
0
LINE
8
BLACK
6
CONTINUOUS
10
39.828
20
-79.2568
11
39.828
21
-79.2392
0
LINE
8
BLACK
6
CONTINUOUS
10
39.828
20
-79.2392
11
39.828
21
-79.2392
0
LINE
8
BLACK
6
CONTINUOUS
10
39.828
20
-79.2392
11
39.828
21
-57.962
0
LINE
8
BLACK
6
CONTINUOUS
10
39.828
20
-57.962
11
15.4852
21
-57.962
0
LINE
8
BLACK
6
CONTINUOUS
10
15.4852
20
-57.962
11
15.481
21
-57.9605
0
LINE
8
BLACK
6
CONTINUOUS
10
15.481
20
-57.9605
11
15.4766
21
-57.9597
0
LINE
8
BLACK
6
CONTINUOUS
10
15.4766
20
-57.9597
11
15.4728
21
-57.9575
0
LINE
8
BLACK
6
CONTINUOUS
10
15.4728
20
-57.9575
11
15.4686
21
-57.956
0
LINE
8
BLACK
6
CONTINUOUS
10
15.4686
20
-57.956
11
15.4652
21
-57.9531
0
LINE
8
BLACK
6
CONTINUOUS
10
15.4652
20
-57.9531
11
15.4614
21
-57.9509
0
LINE
8
BLACK
6
CONTINUOUS
10
15.4614
20
-57.9509
11
15.4585
21
-57.9475
0
LINE
8
BLACK
6
CONTINUOUS
10
15.4585
20
-57.9475
11
15.4551
21
-57.9446
0
LINE
8
BLACK
6
CONTINUOUS
10
15.4551
20
-57.9446
11
15.4529
21
-57.9408
0
LINE
8
BLACK
6
CONTINUOUS
10
15.4529
20
-57.9408
11
15.45
21
-57.9374
0
LINE
8
BLACK
6
CONTINUOUS
10
15.45
20
-57.9374
11
15.4485
21
-57.9332
0
LINE
8
BLACK
6
CONTINUOUS
10
15.4485
20
-57.9332
11
15.4463
21
-57.9294
0
LINE
8
BLACK
6
CONTINUOUS
10
15.4463
20
-57.9294
11
15.4455
21
-57.925
0
LINE
8
BLACK
6
CONTINUOUS
10
15.4455
20
-57.925
11
15.444
21
-57.9208
0
LINE
8
BLACK
6
CONTINUOUS
10
15.444
20
-57.9208
11
15.444
21
-57.9032
0
LINE
8
BLACK
6
CONTINUOUS
10
15.444
20
-57.9032
11
15.444
21
-57.9032
0
LINE
8
BLACK
6
CONTINUOUS
10
15.444
20
-57.9032
11
15.444
21
-34.2856
0
LINE
8
BLACK
6
CONTINUOUS
10
15.444
20
-34.2856
11
15.444
21
-34.2812
0
LINE
8
BLACK
6
CONTINUOUS
10
15.444
20
-34.2812
11
15.4455
21
-34.277
0
LINE
8
BLACK
6
CONTINUOUS
10
15.4455
20
-34.277
11
15.4463
21
-34.2726
0
LINE
8
BLACK
6
CONTINUOUS
10
15.4463
20
-34.2726
11
15.4485
21
-34.2688
0
LINE
8
BLACK
6
CONTINUOUS
10
15.4485
20
-34.2688
11
15.45
21
-34.2646
0
LINE
8
BLACK
6
CONTINUOUS
10
15.45
20
-34.2646
11
15.4529
21
-34.2612
0
LINE
8
BLACK
6
CONTINUOUS
10
15.4529
20
-34.2612
11
15.4551
21
-34.2574
0
LINE
8
BLACK
6
CONTINUOUS
10
15.4551
20
-34.2574
11
15.4585
21
-34.2545
0
LINE
8
BLACK
6
CONTINUOUS
10
15.4585
20
-34.2545
11
15.4614
21
-34.2511
0
LINE
8
BLACK
6
CONTINUOUS
10
15.4614
20
-34.2511
11
15.4652
21
-34.2489
0
LINE
8
BLACK
6
CONTINUOUS
10
15.4652
20
-34.2489
11
15.4686
21
-34.246
0
LINE
8
BLACK
6
CONTINUOUS
10
15.4686
20
-34.246
11
15.4728
21
-34.2445
0
LINE
8
BLACK
6
CONTINUOUS
10
15.4728
20
-34.2445
11
15.4766
21
-34.2423
0
LINE
8
BLACK
6
CONTINUOUS
10
15.4766
20
-34.2423
11
15.481
21
-34.2415
0
LINE
8
BLACK
6
CONTINUOUS
10
15.481
20
-34.2415
11
15.4852
21
-34.24
0
LINE
8
BLACK
6
CONTINUOUS
10
15.4852
20
-34.24
11
39.828
21
-34.24
0
LINE
8
BLACK
6
CONTINUOUS
10
39.828
20
-34.24
11
39.828
21
-17.0136
0
LINE
8
BLACK
6
CONTINUOUS
10
39.828
20
-17.0136
11
39.828
21
-17.0092
0
LINE
8
BLACK
6
CONTINUOUS
10
39.828
20
-17.0092
11
39.8295
21
-17.005
0
LINE
8
BLACK
6
CONTINUOUS
10
39.8295
20
-17.005
11
39.8303
21
-17.0006
0
LINE
8
BLACK
6
CONTINUOUS
10
39.8303
20
-17.0006
11
39.8325
21
-16.9968
0
LINE
8
BLACK
6
CONTINUOUS
10
39.8325
20
-16.9968
11
39.834
21
-16.9926
0
LINE
8
BLACK
6
CONTINUOUS
10
39.834
20
-16.9926
11
39.8369
21
-16.9892
0
LINE
8
BLACK
6
CONTINUOUS
10
39.8369
20
-16.9892
11
39.8391
21
-16.9854
0
LINE
8
BLACK
6
CONTINUOUS
10
39.8391
20
-16.9854
11
39.8425
21
-16.9825
0
LINE
8
BLACK
6
CONTINUOUS
10
39.8425
20
-16.9825
11
39.8454
21
-16.9791
0
LINE
8
BLACK
6
CONTINUOUS
10
39.8454
20
-16.9791
11
39.8492
21
-16.9769
0
LINE
8
BLACK
6
CONTINUOUS
10
39.8492
20
-16.9769
11
39.8526
21
-16.974
0
LINE
8
BLACK
6
CONTINUOUS
10
39.8526
20
-16.974
11
39.8568
21
-16.9725
0
LINE
8
BLACK
6
CONTINUOUS
10
39.8568
20
-16.9725
11
39.8606
21
-16.9703
0
LINE
8
BLACK
6
CONTINUOUS
10
39.8606
20
-16.9703
11
39.865
21
-16.9695
0
LINE
8
BLACK
6
CONTINUOUS
10
39.865
20
-16.9695
11
39.8692
21
-16.968
0
LINE
8
BLACK
6
CONTINUOUS
10
39.8692
20
-16.968
11
94.2428
21
-16.968
0
LINE
8
BLACK
6
CONTINUOUS
10
94.2428
20
-16.968
11
94.247
21
-16.9695
0
LINE
8
BLACK
6
CONTINUOUS
10
94.247
20
-16.9695
11
94.2514
21
-16.9703
0
LINE
8
BLACK
6
CONTINUOUS
10
94.2514
20
-16.9703
11
94.2552
21
-16.9725
0
LINE
8
BLACK
6
CONTINUOUS
10
94.2552
20
-16.9725
11
94.2594
21
-16.974
0
LINE
8
BLACK
6
CONTINUOUS
10
94.2594
20
-16.974
11
94.2628
21
-16.9769
0
LINE
8
BLACK
6
CONTINUOUS
10
94.2628
20
-16.9769
11
94.2666
21
-16.9791
0
LINE
8
BLACK
6
CONTINUOUS
10
94.2666
20
-16.9791
11
94.2695
21
-16.9825
0
LINE
8
BLACK
6
CONTINUOUS
10
94.2695
20
-16.9825
11
94.2729
21
-16.9854
0
LINE
8
BLACK
6
CONTINUOUS
10
94.2729
20
-16.9854
11
94.2751
21
-16.9892
0
LINE
8
BLACK
6
CONTINUOUS
10
94.2751
20
-16.9892
11
94.278
21
-16.9926
0
LINE
8
BLACK
6
CONTINUOUS
10
94.278
20
-16.9926
11
94.2795
21
-16.9968
0
LINE
8
BLACK
6
CONTINUOUS
10
94.2795
20
-16.9968
11
94.2817
21
-17.0006
0
LINE
8
BLACK
6
CONTINUOUS
10
94.2817
20
-17.0006
11
94.2825
21
-17.005
0
LINE
8
BLACK
6
CONTINUOUS
10
94.2825
20
-17.005
11
94.284
21
-17.0092
0
LINE
8
BLACK
6
CONTINUOUS
10
94.284
20
-17.0092
11
94.284
21
-79.2568
0
LINE
8
BLACK
6
CONTINUOUS
10
94.284
20
-79.2568
11
94.2825
21
-79.261
0
LINE
8
BLACK
6
CONTINUOUS
10
39.9265
20
-34.303
11
39.9257
21
-34.3074
0
LINE
8
BLACK
6
CONTINUOUS
10
39.9257
20
-34.3074
11
39.9235
21
-34.3112
0
LINE
8
BLACK
6
CONTINUOUS
10
39.9235
20
-34.3112
11
39.922
21
-34.3154
0
LINE
8
BLACK
6
CONTINUOUS
10
39.922
20
-34.3154
11
39.9191
21
-34.3188
0
LINE
8
BLACK
6
CONTINUOUS
10
39.9191
20
-34.3188
11
39.9169
21
-34.3226
0
LINE
8
BLACK
6
CONTINUOUS
10
39.9169
20
-34.3226
11
39.9135
21
-34.3255
0
LINE
8
BLACK
6
CONTINUOUS
10
39.9135
20
-34.3255
11
39.9106
21
-34.3289
0
LINE
8
BLACK
6
CONTINUOUS
10
39.9106
20
-34.3289
11
39.9068
21
-34.3311
0
LINE
8
BLACK
6
CONTINUOUS
10
39.9068
20
-34.3311
11
39.9034
21
-34.334
0
LINE
8
BLACK
6
CONTINUOUS
10
39.9034
20
-34.334
11
39.8992
21
-34.3355
0
LINE
8
BLACK
6
CONTINUOUS
10
39.8992
20
-34.3355
11
39.8954
21
-34.3377
0
LINE
8
BLACK
6
CONTINUOUS
10
39.8954
20
-34.3377
11
39.891
21
-34.3385
0
LINE
8
BLACK
6
CONTINUOUS
10
39.891
20
-34.3385
11
39.8868
21
-34.34
0
LINE
8
BLACK
6
CONTINUOUS
10
39.8868
20
-34.34
11
15.544
21
-34.34
0
LINE
8
BLACK
6
CONTINUOUS
10
15.544
20
-34.34
11
15.544
21
-57.862
0
LINE
8
BLACK
6
CONTINUOUS
10
15.544
20
-57.862
11
39.8868
21
-57.862
0
LINE
8
BLACK
6
CONTINUOUS
10
39.8868
20
-57.862
11
39.891
21
-57.8635
0
LINE
8
BLACK
6
CONTINUOUS
10
39.891
20
-57.8635
11
39.8954
21
-57.8643
0
LINE
8
BLACK
6
CONTINUOUS
10
39.8954
20
-57.8643
11
39.8992
21
-57.8665
0
LINE
8
BLACK
6
CONTINUOUS
10
39.8992
20
-57.8665
11
39.9034
21
-57.868
0
LINE
8
BLACK
6
CONTINUOUS
10
39.9034
20
-57.868
11
39.9068
21
-57.8709
0
LINE
8
BLACK
6
CONTINUOUS
10
39.9068
20
-57.8709
11
39.9106
21
-57.8731
0
LINE
8
BLACK
6
CONTINUOUS
10
39.9106
20
-57.8731
11
39.9135
21
-57.8765
0
LINE
8
BLACK
6
CONTINUOUS
10
39.9135
20
-57.8765
11
39.9169
21
-57.8794
0
LINE
8
BLACK
6
CONTINUOUS
10
39.9169
20
-57.8794
11
39.9191
21
-57.8832
0
LINE
8
BLACK
6
CONTINUOUS
10
39.9191
20
-57.8832
11
39.922
21
-57.8866
0
LINE
8
BLACK
6
CONTINUOUS
10
39.922
20
-57.8866
11
39.9235
21
-57.8908
0
LINE
8
BLACK
6
CONTINUOUS
10
39.9235
20
-57.8908
11
39.9257
21
-57.8946
0
LINE
8
BLACK
6
CONTINUOUS
10
39.9257
20
-57.8946
11
39.9265
21
-57.899
0
LINE
8
BLACK
6
CONTINUOUS
10
39.9265
20
-57.899
11
39.928
21
-57.9032
0
LINE
8
BLACK
6
CONTINUOUS
10
39.928
20
-57.9032
11
39.928
21
-79.198
0
LINE
8
BLACK
6
CONTINUOUS
10
39.928
20
-79.198
11
94.184
21
-79.198
0
LINE
8
BLACK
6
CONTINUOUS
10
94.184
20
-79.198
11
94.184
21
-17.068
0
LINE
8
BLACK
6
CONTINUOUS
10
94.184
20
-17.068
11
39.928
21
-17.068
0
LINE
8
BLACK
6
CONTINUOUS
10
39.928
20
-17.068
11
39.928
21
-34.2988
0
LINE
8
BLACK
6
CONTINUOUS
10
39.928
20
-34.2988
11
39.9265
21
-34.303
  0
ENDSEC
  0
EOF
