  0
SECTION
  2
HEADER
  9
$ANGBASE
  50
0.0
  9
$ANGDIR
  70
  1
  9
$MEASUREMENT
  70
0
  0
ENDSEC
  0
SECTION
  2
TABLES
  0
TABLE
  2
LTYPE
  70
4
  0
LTYPE
  5
40F
  2
CONTINUOUS
  70
0
  3
Solid line
  72
65
  73
0
  40
0.0
  0
LTYPE
  5
410
  2
DASHDOT
 70
0
  3
Dash Dot ____ _ ____ _
 72
65
 73
4
 40
2.0
 49
1.25
 49
-0.25
 49
0.25
 49
-0.25
  0
LTYPE
  5
411
  2
DASHED
 70
0
  3
Dashed __ __ __ __ __
 72
65
 73
2
 40
0.75
 49
0.5
 49
-0.25
  0
LTYPE
  5
43B
  2
DOTTED
 70
0
  3
Dotted .  .  .  .
 72
65
 73
2
 40
0.2
 49
0.0
 49
-0.2
  0
ENDTAB
  0
TABLE
  2
STYLE
  70
4
  0
STYLE
  2
KICAD
  70
0
  40
0
  41
1
  42
1
  50
0
  71
0
  3
isocp.shx
  0
STYLE
  2
KICADB
  70
0
  40
0
  41
1
  42
1
  50
0
  71
0
  3
isocp.shx
  0
STYLE
  2
KICADI
  70
0
  40
0
  41
1
  42
1
  50
15
  71
0
  3
isocp.shx
  0
STYLE
  2
KICADBI
  70
0
  40
0
  41
1
  42
1
  50
15
  71
0
  3
isocp.shx
  0
ENDTAB
  0
TABLE
  2
LAYER
  70
30
  0
LAYER
  2
BLACK
  70
0
  62
7
  6
CONTINUOUS
  0
LAYER
  2
GRAY1
  70
0
  62
251
  6
CONTINUOUS
  0
LAYER
  2
GRAY2
  70
0
  62
8
  6
CONTINUOUS
  0
LAYER
  2
GRAY3
  70
0
  62
9
  6
CONTINUOUS
  0
LAYER
  2
WHITE
  70
0
  62
7
  6
CONTINUOUS
  0
LAYER
  2
LYELLOW
  70
0
  62
51
  6
CONTINUOUS
  0
LAYER
  2
BLUE1
  70
0
  62
178
  6
CONTINUOUS
  0
LAYER
  2
GREEN1
  70
0
  62
98
  6
CONTINUOUS
  0
LAYER
  2
CYAN1
  70
0
  62
138
  6
CONTINUOUS
  0
LAYER
  2
RED1
  70
0
  62
18
  6
CONTINUOUS
  0
LAYER
  2
MAGENTA1
  70
0
  62
228
  6
CONTINUOUS
  0
LAYER
  2
BROWN1
  70
0
  62
58
  6
CONTINUOUS
  0
LAYER
  2
BLUE2
  70
0
  62
5
  6
CONTINUOUS
  0
LAYER
  2
GREEN2
  70
0
  62
3
  6
CONTINUOUS
  0
LAYER
  2
CYAN2
  70
0
  62
4
  6
CONTINUOUS
  0
LAYER
  2
RED2
  70
0
  62
1
  6
CONTINUOUS
  0
LAYER
  2
MAGENTA2
  70
0
  62
6
  6
CONTINUOUS
  0
LAYER
  2
BROWN2
  70
0
  62
54
  6
CONTINUOUS
  0
LAYER
  2
BLUE3
  70
0
  62
171
  6
CONTINUOUS
  0
LAYER
  2
GREEN3
  70
0
  62
91
  6
CONTINUOUS
  0
LAYER
  2
CYAN3
  70
0
  62
131
  6
CONTINUOUS
  0
LAYER
  2
RED3
  70
0
  62
11
  6
CONTINUOUS
  0
LAYER
  2
MAGENTA3
  70
0
  62
221
  6
CONTINUOUS
  0
LAYER
  2
YELLOW3
  70
0
  62
2
  6
CONTINUOUS
  0
LAYER
  2
BLUE4
  70
0
  62
5
  6
CONTINUOUS
  0
LAYER
  2
GREEN4
  70
0
  62
3
  6
CONTINUOUS
  0
LAYER
  2
CYAN4
  70
0
  62
4
  6
CONTINUOUS
  0
LAYER
  2
RED4
  70
0
  62
1
  6
CONTINUOUS
  0
LAYER
  2
MAGENTA4
  70
0
  62
6
  6
CONTINUOUS
  0
LAYER
  2
YELLOW4
  70
0
  62
2
  6
CONTINUOUS
  0
ENDTAB
  0
ENDSEC
  0
SECTION
  2
ENTITIES
0
LINE
8
BLACK
6
CONTINUOUS
10
30.862
20
-43.9084
11
31.198
21
-44.1024
0
LINE
8
BLACK
6
CONTINUOUS
10
31.198
20
-44.1024
11
31.4473
21
-44.3995
0
LINE
8
BLACK
6
CONTINUOUS
10
31.4473
20
-44.3995
11
31.58
21
-44.764
0
LINE
8
BLACK
6
CONTINUOUS
10
31.58
20
-44.764
11
31.58
21
-45.152
0
LINE
8
BLACK
6
CONTINUOUS
10
31.58
20
-45.152
11
31.4473
21
-45.5165
0
LINE
8
BLACK
6
CONTINUOUS
10
31.4473
20
-45.5165
11
31.198
21
-45.8136
0
LINE
8
BLACK
6
CONTINUOUS
10
31.198
20
-45.8136
11
30.862
21
-46.0076
0
LINE
8
BLACK
6
CONTINUOUS
10
30.862
20
-46.0076
11
30.48
21
-46.075
0
LINE
8
BLACK
6
CONTINUOUS
10
30.48
20
-46.075
11
30.098
21
-46.0076
0
LINE
8
BLACK
6
CONTINUOUS
10
30.098
20
-46.0076
11
29.762
21
-45.8136
0
LINE
8
BLACK
6
CONTINUOUS
10
29.762
20
-45.8136
11
29.5127
21
-45.5165
0
LINE
8
BLACK
6
CONTINUOUS
10
29.5127
20
-45.5165
11
29.38
21
-45.152
0
LINE
8
BLACK
6
CONTINUOUS
10
29.38
20
-45.152
11
29.38
21
-44.764
0
LINE
8
BLACK
6
CONTINUOUS
10
29.38
20
-44.764
11
29.5127
21
-44.3995
0
LINE
8
BLACK
6
CONTINUOUS
10
29.5127
20
-44.3995
11
29.762
21
-44.1024
0
LINE
8
BLACK
6
CONTINUOUS
10
29.762
20
-44.1024
11
30.098
21
-43.9084
0
LINE
8
BLACK
6
CONTINUOUS
10
30.098
20
-43.9084
11
30.48
21
-43.841
0
LINE
8
BLACK
6
CONTINUOUS
10
30.48
20
-43.841
11
30.862
21
-43.9084
0
LINE
8
BLACK
6
CONTINUOUS
10
53.468
20
-43.9084
11
53.804
21
-44.1024
0
LINE
8
BLACK
6
CONTINUOUS
10
53.804
20
-44.1024
11
54.0533
21
-44.3995
0
LINE
8
BLACK
6
CONTINUOUS
10
54.0533
20
-44.3995
11
54.186
21
-44.764
0
LINE
8
BLACK
6
CONTINUOUS
10
54.186
20
-44.764
11
54.186
21
-45.152
0
LINE
8
BLACK
6
CONTINUOUS
10
54.186
20
-45.152
11
54.0533
21
-45.5165
0
LINE
8
BLACK
6
CONTINUOUS
10
54.0533
20
-45.5165
11
53.804
21
-45.8136
0
LINE
8
BLACK
6
CONTINUOUS
10
53.804
20
-45.8136
11
53.468
21
-46.0076
0
LINE
8
BLACK
6
CONTINUOUS
10
53.468
20
-46.0076
11
53.086
21
-46.075
0
LINE
8
BLACK
6
CONTINUOUS
10
53.086
20
-46.075
11
52.704
21
-46.0076
0
LINE
8
BLACK
6
CONTINUOUS
10
52.704
20
-46.0076
11
52.368
21
-45.8136
0
LINE
8
BLACK
6
CONTINUOUS
10
52.368
20
-45.8136
11
52.1187
21
-45.5165
0
LINE
8
BLACK
6
CONTINUOUS
10
52.1187
20
-45.5165
11
51.986
21
-45.152
0
LINE
8
BLACK
6
CONTINUOUS
10
51.986
20
-45.152
11
51.986
21
-44.764
0
LINE
8
BLACK
6
CONTINUOUS
10
51.986
20
-44.764
11
52.1187
21
-44.3995
0
LINE
8
BLACK
6
CONTINUOUS
10
52.1187
20
-44.3995
11
52.368
21
-44.1024
0
LINE
8
BLACK
6
CONTINUOUS
10
52.368
20
-44.1024
11
52.704
21
-43.9084
0
LINE
8
BLACK
6
CONTINUOUS
10
52.704
20
-43.9084
11
53.086
21
-43.841
0
LINE
8
BLACK
6
CONTINUOUS
10
53.086
20
-43.841
11
53.468
21
-43.9084
0
LINE
8
BLACK
6
CONTINUOUS
10
40.6812
20
-40.5909
11
40.9408
21
-40.7408
0
LINE
8
BLACK
6
CONTINUOUS
10
40.9408
20
-40.7408
11
41.1335
21
-40.9704
0
LINE
8
BLACK
6
CONTINUOUS
10
41.1335
20
-40.9704
11
41.236
21
-41.2521
0
LINE
8
BLACK
6
CONTINUOUS
10
41.236
20
-41.2521
11
41.236
21
-41.5519
0
LINE
8
BLACK
6
CONTINUOUS
10
41.236
20
-41.5519
11
41.1335
21
-41.8336
0
LINE
8
BLACK
6
CONTINUOUS
10
41.1335
20
-41.8336
11
40.9408
21
-42.0632
0
LINE
8
BLACK
6
CONTINUOUS
10
40.9408
20
-42.0632
11
40.6812
21
-42.2131
0
LINE
8
BLACK
6
CONTINUOUS
10
40.6812
20
-42.2131
11
40.4604
21
-42.252
0
LINE
8
BLACK
6
CONTINUOUS
10
40.4604
20
-42.252
11
40.3116
21
-42.252
0
LINE
8
BLACK
6
CONTINUOUS
10
40.3116
20
-42.252
11
40.0908
21
-42.2131
0
LINE
8
BLACK
6
CONTINUOUS
10
40.0908
20
-42.2131
11
39.8312
21
-42.0632
0
LINE
8
BLACK
6
CONTINUOUS
10
39.8312
20
-42.0632
11
39.6385
21
-41.8336
0
LINE
8
BLACK
6
CONTINUOUS
10
39.6385
20
-41.8336
11
39.536
21
-41.5519
0
LINE
8
BLACK
6
CONTINUOUS
10
39.536
20
-41.5519
11
39.536
21
-41.2521
0
LINE
8
BLACK
6
CONTINUOUS
10
39.536
20
-41.2521
11
39.6385
21
-40.9704
0
LINE
8
BLACK
6
CONTINUOUS
10
39.6385
20
-40.9704
11
39.8312
21
-40.7408
0
LINE
8
BLACK
6
CONTINUOUS
10
39.8312
20
-40.7408
11
40.0908
21
-40.5909
0
LINE
8
BLACK
6
CONTINUOUS
10
40.0908
20
-40.5909
11
40.3116
21
-40.552
0
LINE
8
BLACK
6
CONTINUOUS
10
40.3116
20
-40.552
11
40.4604
21
-40.552
0
LINE
8
BLACK
6
CONTINUOUS
10
40.4604
20
-40.552
11
40.6812
21
-40.5909
0
LINE
8
BLACK
6
CONTINUOUS
10
45.7612
20
-40.5909
11
46.0208
21
-40.7408
0
LINE
8
BLACK
6
CONTINUOUS
10
46.0208
20
-40.7408
11
46.2135
21
-40.9704
0
LINE
8
BLACK
6
CONTINUOUS
10
46.2135
20
-40.9704
11
46.316
21
-41.2521
0
LINE
8
BLACK
6
CONTINUOUS
10
46.316
20
-41.2521
11
46.316
21
-41.5519
0
LINE
8
BLACK
6
CONTINUOUS
10
46.316
20
-41.5519
11
46.2135
21
-41.8336
0
LINE
8
BLACK
6
CONTINUOUS
10
46.2135
20
-41.8336
11
46.0208
21
-42.0632
0
LINE
8
BLACK
6
CONTINUOUS
10
46.0208
20
-42.0632
11
45.7612
21
-42.2131
0
LINE
8
BLACK
6
CONTINUOUS
10
45.7612
20
-42.2131
11
45.5404
21
-42.252
0
LINE
8
BLACK
6
CONTINUOUS
10
45.5404
20
-42.252
11
45.3916
21
-42.252
0
LINE
8
BLACK
6
CONTINUOUS
10
45.3916
20
-42.252
11
45.1708
21
-42.2131
0
LINE
8
BLACK
6
CONTINUOUS
10
45.1708
20
-42.2131
11
44.9112
21
-42.0632
0
LINE
8
BLACK
6
CONTINUOUS
10
44.9112
20
-42.0632
11
44.7185
21
-41.8336
0
LINE
8
BLACK
6
CONTINUOUS
10
44.7185
20
-41.8336
11
44.616
21
-41.5519
0
LINE
8
BLACK
6
CONTINUOUS
10
44.616
20
-41.5519
11
44.616
21
-41.2521
0
LINE
8
BLACK
6
CONTINUOUS
10
44.616
20
-41.2521
11
44.7185
21
-40.9704
0
LINE
8
BLACK
6
CONTINUOUS
10
44.7185
20
-40.9704
11
44.9112
21
-40.7408
0
LINE
8
BLACK
6
CONTINUOUS
10
44.9112
20
-40.7408
11
45.1708
21
-40.5909
0
LINE
8
BLACK
6
CONTINUOUS
10
45.1708
20
-40.5909
11
45.3916
21
-40.552
0
LINE
8
BLACK
6
CONTINUOUS
10
45.3916
20
-40.552
11
45.5404
21
-40.552
0
LINE
8
BLACK
6
CONTINUOUS
10
45.5404
20
-40.552
11
45.7612
21
-40.5909
0
LINE
8
BLACK
6
CONTINUOUS
10
43.2212
20
-40.5909
11
43.4808
21
-40.7408
0
LINE
8
BLACK
6
CONTINUOUS
10
43.4808
20
-40.7408
11
43.6735
21
-40.9704
0
LINE
8
BLACK
6
CONTINUOUS
10
43.6735
20
-40.9704
11
43.776
21
-41.2521
0
LINE
8
BLACK
6
CONTINUOUS
10
43.776
20
-41.2521
11
43.776
21
-41.5519
0
LINE
8
BLACK
6
CONTINUOUS
10
43.776
20
-41.5519
11
43.6735
21
-41.8336
0
LINE
8
BLACK
6
CONTINUOUS
10
43.6735
20
-41.8336
11
43.4808
21
-42.0632
0
LINE
8
BLACK
6
CONTINUOUS
10
43.4808
20
-42.0632
11
43.2212
21
-42.2131
0
LINE
8
BLACK
6
CONTINUOUS
10
43.2212
20
-42.2131
11
43.0004
21
-42.252
0
LINE
8
BLACK
6
CONTINUOUS
10
43.0004
20
-42.252
11
42.8516
21
-42.252
0
LINE
8
BLACK
6
CONTINUOUS
10
42.8516
20
-42.252
11
42.6308
21
-42.2131
0
LINE
8
BLACK
6
CONTINUOUS
10
42.6308
20
-42.2131
11
42.3712
21
-42.0632
0
LINE
8
BLACK
6
CONTINUOUS
10
42.3712
20
-42.0632
11
42.1785
21
-41.8336
0
LINE
8
BLACK
6
CONTINUOUS
10
42.1785
20
-41.8336
11
42.076
21
-41.5519
0
LINE
8
BLACK
6
CONTINUOUS
10
42.076
20
-41.5519
11
42.076
21
-41.2521
0
LINE
8
BLACK
6
CONTINUOUS
10
42.076
20
-41.2521
11
42.1785
21
-40.9704
0
LINE
8
BLACK
6
CONTINUOUS
10
42.1785
20
-40.9704
11
42.3712
21
-40.7408
0
LINE
8
BLACK
6
CONTINUOUS
10
42.3712
20
-40.7408
11
42.6308
21
-40.5909
0
LINE
8
BLACK
6
CONTINUOUS
10
42.6308
20
-40.5909
11
42.8516
21
-40.552
0
LINE
8
BLACK
6
CONTINUOUS
10
42.8516
20
-40.552
11
43.0004
21
-40.552
0
LINE
8
BLACK
6
CONTINUOUS
10
43.0004
20
-40.552
11
43.2212
21
-40.5909
0
LINE
8
BLACK
6
CONTINUOUS
10
38.696
20
-42.252
11
36.996
21
-42.252
0
LINE
8
BLACK
6
CONTINUOUS
10
36.996
20
-42.252
11
36.996
21
-40.552
0
LINE
8
BLACK
6
CONTINUOUS
10
36.996
20
-40.552
11
38.696
21
-40.552
0
LINE
8
BLACK
6
CONTINUOUS
10
38.696
20
-40.552
11
38.696
21
-42.252
0
LINE
8
BLACK
6
CONTINUOUS
10
37.5811
20
-37.9401
11
37.7949
21
-38.0635
0
LINE
8
BLACK
6
CONTINUOUS
10
37.7949
20
-38.0635
11
37.9536
21
-38.2526
0
LINE
8
BLACK
6
CONTINUOUS
10
37.9536
20
-38.2526
11
38.038
21
-38.4846
0
LINE
8
BLACK
6
CONTINUOUS
10
38.038
20
-38.4846
11
38.038
21
-38.7314
0
LINE
8
BLACK
6
CONTINUOUS
10
38.038
20
-38.7314
11
37.9536
21
-38.9634
0
LINE
8
BLACK
6
CONTINUOUS
10
37.9536
20
-38.9634
11
37.7949
21
-39.1525
0
LINE
8
BLACK
6
CONTINUOUS
10
37.7949
20
-39.1525
11
37.5811
21
-39.2759
0
LINE
8
BLACK
6
CONTINUOUS
10
37.5811
20
-39.2759
11
37.3992
21
-39.308
0
LINE
8
BLACK
6
CONTINUOUS
10
37.3992
20
-39.308
11
37.2768
21
-39.308
0
LINE
8
BLACK
6
CONTINUOUS
10
37.2768
20
-39.308
11
37.0949
21
-39.2759
0
LINE
8
BLACK
6
CONTINUOUS
10
37.0949
20
-39.2759
11
36.8811
21
-39.1525
0
LINE
8
BLACK
6
CONTINUOUS
10
36.8811
20
-39.1525
11
36.7224
21
-38.9634
0
LINE
8
BLACK
6
CONTINUOUS
10
36.7224
20
-38.9634
11
36.638
21
-38.7314
0
LINE
8
BLACK
6
CONTINUOUS
10
36.638
20
-38.7314
11
36.638
21
-38.4846
0
LINE
8
BLACK
6
CONTINUOUS
10
36.638
20
-38.4846
11
36.7224
21
-38.2526
0
LINE
8
BLACK
6
CONTINUOUS
10
36.7224
20
-38.2526
11
36.8811
21
-38.0635
0
LINE
8
BLACK
6
CONTINUOUS
10
36.8811
20
-38.0635
11
37.0949
21
-37.9401
0
LINE
8
BLACK
6
CONTINUOUS
10
37.0949
20
-37.9401
11
37.2768
21
-37.908
0
LINE
8
BLACK
6
CONTINUOUS
10
37.2768
20
-37.908
11
37.3992
21
-37.908
0
LINE
8
BLACK
6
CONTINUOUS
10
37.3992
20
-37.908
11
37.5811
21
-37.9401
0
LINE
8
BLACK
6
CONTINUOUS
10
46.2171
20
-37.9401
11
46.4309
21
-38.0635
0
LINE
8
BLACK
6
CONTINUOUS
10
46.4309
20
-38.0635
11
46.5896
21
-38.2526
0
LINE
8
BLACK
6
CONTINUOUS
10
46.5896
20
-38.2526
11
46.674
21
-38.4846
0
LINE
8
BLACK
6
CONTINUOUS
10
46.674
20
-38.4846
11
46.674
21
-38.7314
0
LINE
8
BLACK
6
CONTINUOUS
10
46.674
20
-38.7314
11
46.5896
21
-38.9634
0
LINE
8
BLACK
6
CONTINUOUS
10
46.5896
20
-38.9634
11
46.4309
21
-39.1525
0
LINE
8
BLACK
6
CONTINUOUS
10
46.4309
20
-39.1525
11
46.2171
21
-39.2759
0
LINE
8
BLACK
6
CONTINUOUS
10
46.2171
20
-39.2759
11
46.0352
21
-39.308
0
LINE
8
BLACK
6
CONTINUOUS
10
46.0352
20
-39.308
11
45.9128
21
-39.308
0
LINE
8
BLACK
6
CONTINUOUS
10
45.9128
20
-39.308
11
45.7309
21
-39.2759
0
LINE
8
BLACK
6
CONTINUOUS
10
45.7309
20
-39.2759
11
45.5171
21
-39.1525
0
LINE
8
BLACK
6
CONTINUOUS
10
45.5171
20
-39.1525
11
45.3584
21
-38.9634
0
LINE
8
BLACK
6
CONTINUOUS
10
45.3584
20
-38.9634
11
45.274
21
-38.7314
0
LINE
8
BLACK
6
CONTINUOUS
10
45.274
20
-38.7314
11
45.274
21
-38.4846
0
LINE
8
BLACK
6
CONTINUOUS
10
45.274
20
-38.4846
11
45.3584
21
-38.2526
0
LINE
8
BLACK
6
CONTINUOUS
10
45.3584
20
-38.2526
11
45.5171
21
-38.0635
0
LINE
8
BLACK
6
CONTINUOUS
10
45.5171
20
-38.0635
11
45.7309
21
-37.9401
0
LINE
8
BLACK
6
CONTINUOUS
10
45.7309
20
-37.9401
11
45.9128
21
-37.908
0
LINE
8
BLACK
6
CONTINUOUS
10
45.9128
20
-37.908
11
46.0352
21
-37.908
0
LINE
8
BLACK
6
CONTINUOUS
10
46.0352
20
-37.908
11
46.2171
21
-37.9401
0
LINE
8
BLACK
6
CONTINUOUS
10
54.8531
20
-37.9401
11
55.0669
21
-38.0635
0
LINE
8
BLACK
6
CONTINUOUS
10
55.0669
20
-38.0635
11
55.2256
21
-38.2526
0
LINE
8
BLACK
6
CONTINUOUS
10
55.2256
20
-38.2526
11
55.31
21
-38.4846
0
LINE
8
BLACK
6
CONTINUOUS
10
55.31
20
-38.4846
11
55.31
21
-38.7314
0
LINE
8
BLACK
6
CONTINUOUS
10
55.31
20
-38.7314
11
55.2256
21
-38.9634
0
LINE
8
BLACK
6
CONTINUOUS
10
55.2256
20
-38.9634
11
55.0669
21
-39.1525
0
LINE
8
BLACK
6
CONTINUOUS
10
55.0669
20
-39.1525
11
54.8531
21
-39.2759
0
LINE
8
BLACK
6
CONTINUOUS
10
54.8531
20
-39.2759
11
54.6712
21
-39.308
0
LINE
8
BLACK
6
CONTINUOUS
10
54.6712
20
-39.308
11
54.5488
21
-39.308
0
LINE
8
BLACK
6
CONTINUOUS
10
54.5488
20
-39.308
11
54.3669
21
-39.2759
0
LINE
8
BLACK
6
CONTINUOUS
10
54.3669
20
-39.2759
11
54.1531
21
-39.1525
0
LINE
8
BLACK
6
CONTINUOUS
10
54.1531
20
-39.1525
11
53.9944
21
-38.9634
0
LINE
8
BLACK
6
CONTINUOUS
10
53.9944
20
-38.9634
11
53.91
21
-38.7314
0
LINE
8
BLACK
6
CONTINUOUS
10
53.91
20
-38.7314
11
53.91
21
-38.4846
0
LINE
8
BLACK
6
CONTINUOUS
10
53.91
20
-38.4846
11
53.9944
21
-38.2526
0
LINE
8
BLACK
6
CONTINUOUS
10
53.9944
20
-38.2526
11
54.1531
21
-38.0635
0
LINE
8
BLACK
6
CONTINUOUS
10
54.1531
20
-38.0635
11
54.3669
21
-37.9401
0
LINE
8
BLACK
6
CONTINUOUS
10
54.3669
20
-37.9401
11
54.5488
21
-37.908
0
LINE
8
BLACK
6
CONTINUOUS
10
54.5488
20
-37.908
11
54.6712
21
-37.908
0
LINE
8
BLACK
6
CONTINUOUS
10
54.6712
20
-37.908
11
54.8531
21
-37.9401
0
LINE
8
BLACK
6
CONTINUOUS
10
51.8746
20
-32.4152
11
52.1494
21
-32.5739
0
LINE
8
BLACK
6
CONTINUOUS
10
52.1494
20
-32.5739
11
52.3534
21
-32.8171
0
LINE
8
BLACK
6
CONTINUOUS
10
52.3534
20
-32.8171
11
52.462
21
-33.1153
0
LINE
8
BLACK
6
CONTINUOUS
10
52.462
20
-33.1153
11
52.462
21
-33.4327
0
LINE
8
BLACK
6
CONTINUOUS
10
52.462
20
-33.4327
11
52.3534
21
-33.7309
0
LINE
8
BLACK
6
CONTINUOUS
10
52.3534
20
-33.7309
11
52.1494
21
-33.9741
0
LINE
8
BLACK
6
CONTINUOUS
10
52.1494
20
-33.9741
11
51.8746
21
-34.1328
0
LINE
8
BLACK
6
CONTINUOUS
10
51.8746
20
-34.1328
11
51.562
21
-34.1879
0
LINE
8
BLACK
6
CONTINUOUS
10
51.562
20
-34.1879
11
51.2494
21
-34.1328
0
LINE
8
BLACK
6
CONTINUOUS
10
51.2494
20
-34.1328
11
50.9746
21
-33.9741
0
LINE
8
BLACK
6
CONTINUOUS
10
50.9746
20
-33.9741
11
50.7706
21
-33.7309
0
LINE
8
BLACK
6
CONTINUOUS
10
50.7706
20
-33.7309
11
50.662
21
-33.4327
0
LINE
8
BLACK
6
CONTINUOUS
10
50.662
20
-33.4327
11
50.662
21
-33.1153
0
LINE
8
BLACK
6
CONTINUOUS
10
50.662
20
-33.1153
11
50.7706
21
-32.8171
0
LINE
8
BLACK
6
CONTINUOUS
10
50.7706
20
-32.8171
11
50.9746
21
-32.5739
0
LINE
8
BLACK
6
CONTINUOUS
10
50.9746
20
-32.5739
11
51.2494
21
-32.4152
0
LINE
8
BLACK
6
CONTINUOUS
10
51.2494
20
-32.4152
11
51.562
21
-32.3601
0
LINE
8
BLACK
6
CONTINUOUS
10
51.562
20
-32.3601
11
51.8746
21
-32.4152
0
LINE
8
BLACK
6
CONTINUOUS
10
43.2386
20
-32.4152
11
43.5134
21
-32.5739
0
LINE
8
BLACK
6
CONTINUOUS
10
43.5134
20
-32.5739
11
43.7174
21
-32.8171
0
LINE
8
BLACK
6
CONTINUOUS
10
43.7174
20
-32.8171
11
43.826
21
-33.1153
0
LINE
8
BLACK
6
CONTINUOUS
10
43.826
20
-33.1153
11
43.826
21
-33.4327
0
LINE
8
BLACK
6
CONTINUOUS
10
43.826
20
-33.4327
11
43.7174
21
-33.7309
0
LINE
8
BLACK
6
CONTINUOUS
10
43.7174
20
-33.7309
11
43.5134
21
-33.9741
0
LINE
8
BLACK
6
CONTINUOUS
10
43.5134
20
-33.9741
11
43.2386
21
-34.1328
0
LINE
8
BLACK
6
CONTINUOUS
10
43.2386
20
-34.1328
11
42.926
21
-34.1879
0
LINE
8
BLACK
6
CONTINUOUS
10
42.926
20
-34.1879
11
42.6134
21
-34.1328
0
LINE
8
BLACK
6
CONTINUOUS
10
42.6134
20
-34.1328
11
42.3386
21
-33.9741
0
LINE
8
BLACK
6
CONTINUOUS
10
42.3386
20
-33.9741
11
42.1346
21
-33.7309
0
LINE
8
BLACK
6
CONTINUOUS
10
42.1346
20
-33.7309
11
42.026
21
-33.4327
0
LINE
8
BLACK
6
CONTINUOUS
10
42.026
20
-33.4327
11
42.026
21
-33.1153
0
LINE
8
BLACK
6
CONTINUOUS
10
42.026
20
-33.1153
11
42.1346
21
-32.8171
0
LINE
8
BLACK
6
CONTINUOUS
10
42.1346
20
-32.8171
11
42.3386
21
-32.5739
0
LINE
8
BLACK
6
CONTINUOUS
10
42.3386
20
-32.5739
11
42.6134
21
-32.4152
0
LINE
8
BLACK
6
CONTINUOUS
10
42.6134
20
-32.4152
11
42.926
21
-32.3601
0
LINE
8
BLACK
6
CONTINUOUS
10
42.926
20
-32.3601
11
43.2386
21
-32.4152
0
LINE
8
BLACK
6
CONTINUOUS
10
34.6026
20
-32.4152
11
34.8774
21
-32.5739
0
LINE
8
BLACK
6
CONTINUOUS
10
34.8774
20
-32.5739
11
35.0814
21
-32.8171
0
LINE
8
BLACK
6
CONTINUOUS
10
35.0814
20
-32.8171
11
35.19
21
-33.1153
0
LINE
8
BLACK
6
CONTINUOUS
10
35.19
20
-33.1153
11
35.19
21
-33.4327
0
LINE
8
BLACK
6
CONTINUOUS
10
35.19
20
-33.4327
11
35.0814
21
-33.7309
0
LINE
8
BLACK
6
CONTINUOUS
10
35.0814
20
-33.7309
11
34.8774
21
-33.9741
0
LINE
8
BLACK
6
CONTINUOUS
10
34.8774
20
-33.9741
11
34.6026
21
-34.1328
0
LINE
8
BLACK
6
CONTINUOUS
10
34.6026
20
-34.1328
11
34.29
21
-34.1879
0
LINE
8
BLACK
6
CONTINUOUS
10
34.29
20
-34.1879
11
33.9774
21
-34.1328
0
LINE
8
BLACK
6
CONTINUOUS
10
33.9774
20
-34.1328
11
33.7026
21
-33.9741
0
LINE
8
BLACK
6
CONTINUOUS
10
33.7026
20
-33.9741
11
33.4986
21
-33.7309
0
LINE
8
BLACK
6
CONTINUOUS
10
33.4986
20
-33.7309
11
33.39
21
-33.4327
0
LINE
8
BLACK
6
CONTINUOUS
10
33.39
20
-33.4327
11
33.39
21
-33.1153
0
LINE
8
BLACK
6
CONTINUOUS
10
33.39
20
-33.1153
11
33.4986
21
-32.8171
0
LINE
8
BLACK
6
CONTINUOUS
10
33.4986
20
-32.8171
11
33.7026
21
-32.5739
0
LINE
8
BLACK
6
CONTINUOUS
10
33.7026
20
-32.5739
11
33.9774
21
-32.4152
0
LINE
8
BLACK
6
CONTINUOUS
10
33.9774
20
-32.4152
11
34.29
21
-32.3601
0
LINE
8
BLACK
6
CONTINUOUS
10
34.29
20
-32.3601
11
34.6026
21
-32.4152
0
LINE
8
BLACK
6
CONTINUOUS
10
41.286
20
-34.174
11
39.486
21
-34.174
0
LINE
8
BLACK
6
CONTINUOUS
10
39.486
20
-34.174
11
39.486
21
-32.374
0
LINE
8
BLACK
6
CONTINUOUS
10
39.486
20
-32.374
11
41.286
21
-32.374
0
LINE
8
BLACK
6
CONTINUOUS
10
41.286
20
-32.374
11
41.286
21
-34.174
0
LINE
8
BLACK
6
CONTINUOUS
10
49.922
20
-34.174
11
48.122
21
-34.174
0
LINE
8
BLACK
6
CONTINUOUS
10
48.122
20
-34.174
11
48.122
21
-32.374
0
LINE
8
BLACK
6
CONTINUOUS
10
48.122
20
-32.374
11
49.922
21
-32.374
0
LINE
8
BLACK
6
CONTINUOUS
10
49.922
20
-32.374
11
49.922
21
-34.174
0
LINE
8
BLACK
6
CONTINUOUS
10
32.65
20
-34.174
11
30.85
21
-34.174
0
LINE
8
BLACK
6
CONTINUOUS
10
30.85
20
-34.174
11
30.85
21
-32.374
0
LINE
8
BLACK
6
CONTINUOUS
10
30.85
20
-32.374
11
32.65
21
-32.374
0
LINE
8
BLACK
6
CONTINUOUS
10
32.65
20
-32.374
11
32.65
21
-34.174
0
LINE
8
BLACK
6
CONTINUOUS
10
37.5811
20
-30.3201
11
37.7949
21
-30.4435
0
LINE
8
BLACK
6
CONTINUOUS
10
37.7949
20
-30.4435
11
37.9536
21
-30.6326
0
LINE
8
BLACK
6
CONTINUOUS
10
37.9536
20
-30.6326
11
38.038
21
-30.8646
0
LINE
8
BLACK
6
CONTINUOUS
10
38.038
20
-30.8646
11
38.038
21
-31.1114
0
LINE
8
BLACK
6
CONTINUOUS
10
38.038
20
-31.1114
11
37.9536
21
-31.3434
0
LINE
8
BLACK
6
CONTINUOUS
10
37.9536
20
-31.3434
11
37.7949
21
-31.5325
0
LINE
8
BLACK
6
CONTINUOUS
10
37.7949
20
-31.5325
11
37.5811
21
-31.6559
0
LINE
8
BLACK
6
CONTINUOUS
10
37.5811
20
-31.6559
11
37.338
21
-31.6988
0
LINE
8
BLACK
6
CONTINUOUS
10
37.338
20
-31.6988
11
37.0949
21
-31.6559
0
LINE
8
BLACK
6
CONTINUOUS
10
37.0949
20
-31.6559
11
36.8811
21
-31.5325
0
LINE
8
BLACK
6
CONTINUOUS
10
36.8811
20
-31.5325
11
36.7224
21
-31.3434
0
LINE
8
BLACK
6
CONTINUOUS
10
36.7224
20
-31.3434
11
36.638
21
-31.1114
0
LINE
8
BLACK
6
CONTINUOUS
10
36.638
20
-31.1114
11
36.638
21
-30.8646
0
LINE
8
BLACK
6
CONTINUOUS
10
36.638
20
-30.8646
11
36.7224
21
-30.6326
0
LINE
8
BLACK
6
CONTINUOUS
10
36.7224
20
-30.6326
11
36.8811
21
-30.4435
0
LINE
8
BLACK
6
CONTINUOUS
10
36.8811
20
-30.4435
11
37.0949
21
-30.3201
0
LINE
8
BLACK
6
CONTINUOUS
10
37.0949
20
-30.3201
11
37.338
21
-30.2772
0
LINE
8
BLACK
6
CONTINUOUS
10
37.338
20
-30.2772
11
37.5811
21
-30.3201
0
LINE
8
BLACK
6
CONTINUOUS
10
46.2171
20
-30.3201
11
46.4309
21
-30.4435
0
LINE
8
BLACK
6
CONTINUOUS
10
46.4309
20
-30.4435
11
46.5896
21
-30.6326
0
LINE
8
BLACK
6
CONTINUOUS
10
46.5896
20
-30.6326
11
46.674
21
-30.8646
0
LINE
8
BLACK
6
CONTINUOUS
10
46.674
20
-30.8646
11
46.674
21
-31.1114
0
LINE
8
BLACK
6
CONTINUOUS
10
46.674
20
-31.1114
11
46.5896
21
-31.3434
0
LINE
8
BLACK
6
CONTINUOUS
10
46.5896
20
-31.3434
11
46.4309
21
-31.5325
0
LINE
8
BLACK
6
CONTINUOUS
10
46.4309
20
-31.5325
11
46.2171
21
-31.6559
0
LINE
8
BLACK
6
CONTINUOUS
10
46.2171
20
-31.6559
11
45.974
21
-31.6988
0
LINE
8
BLACK
6
CONTINUOUS
10
45.974
20
-31.6988
11
45.7309
21
-31.6559
0
LINE
8
BLACK
6
CONTINUOUS
10
45.7309
20
-31.6559
11
45.5171
21
-31.5325
0
LINE
8
BLACK
6
CONTINUOUS
10
45.5171
20
-31.5325
11
45.3584
21
-31.3434
0
LINE
8
BLACK
6
CONTINUOUS
10
45.3584
20
-31.3434
11
45.274
21
-31.1114
0
LINE
8
BLACK
6
CONTINUOUS
10
45.274
20
-31.1114
11
45.274
21
-30.8646
0
LINE
8
BLACK
6
CONTINUOUS
10
45.274
20
-30.8646
11
45.3584
21
-30.6326
0
LINE
8
BLACK
6
CONTINUOUS
10
45.3584
20
-30.6326
11
45.5171
21
-30.4435
0
LINE
8
BLACK
6
CONTINUOUS
10
45.5171
20
-30.4435
11
45.7309
21
-30.3201
0
LINE
8
BLACK
6
CONTINUOUS
10
45.7309
20
-30.3201
11
45.974
21
-30.2772
0
LINE
8
BLACK
6
CONTINUOUS
10
45.974
20
-30.2772
11
46.2171
21
-30.3201
0
LINE
8
BLACK
6
CONTINUOUS
10
54.8531
20
-30.3201
11
55.0669
21
-30.4435
0
LINE
8
BLACK
6
CONTINUOUS
10
55.0669
20
-30.4435
11
55.2256
21
-30.6326
0
LINE
8
BLACK
6
CONTINUOUS
10
55.2256
20
-30.6326
11
55.31
21
-30.8646
0
LINE
8
BLACK
6
CONTINUOUS
10
55.31
20
-30.8646
11
55.31
21
-31.1114
0
LINE
8
BLACK
6
CONTINUOUS
10
55.31
20
-31.1114
11
55.2256
21
-31.3434
0
LINE
8
BLACK
6
CONTINUOUS
10
55.2256
20
-31.3434
11
55.0669
21
-31.5325
0
LINE
8
BLACK
6
CONTINUOUS
10
55.0669
20
-31.5325
11
54.8531
21
-31.6559
0
LINE
8
BLACK
6
CONTINUOUS
10
54.8531
20
-31.6559
11
54.61
21
-31.6988
0
LINE
8
BLACK
6
CONTINUOUS
10
54.61
20
-31.6988
11
54.3669
21
-31.6559
0
LINE
8
BLACK
6
CONTINUOUS
10
54.3669
20
-31.6559
11
54.1531
21
-31.5325
0
LINE
8
BLACK
6
CONTINUOUS
10
54.1531
20
-31.5325
11
53.9944
21
-31.3434
0
LINE
8
BLACK
6
CONTINUOUS
10
53.9944
20
-31.3434
11
53.91
21
-31.1114
0
LINE
8
BLACK
6
CONTINUOUS
10
53.91
20
-31.1114
11
53.91
21
-30.8646
0
LINE
8
BLACK
6
CONTINUOUS
10
53.91
20
-30.8646
11
53.9944
21
-30.6326
0
LINE
8
BLACK
6
CONTINUOUS
10
53.9944
20
-30.6326
11
54.1531
21
-30.4435
0
LINE
8
BLACK
6
CONTINUOUS
10
54.1531
20
-30.4435
11
54.3669
21
-30.3201
0
LINE
8
BLACK
6
CONTINUOUS
10
54.3669
20
-30.3201
11
54.61
21
-30.2772
0
LINE
8
BLACK
6
CONTINUOUS
10
54.61
20
-30.2772
11
54.8531
21
-30.3201
0
LINE
8
BLACK
6
CONTINUOUS
10
53.468
20
-25.8744
11
53.804
21
-26.0684
0
LINE
8
BLACK
6
CONTINUOUS
10
53.804
20
-26.0684
11
54.0533
21
-26.3655
0
LINE
8
BLACK
6
CONTINUOUS
10
54.0533
20
-26.3655
11
54.186
21
-26.73
0
LINE
8
BLACK
6
CONTINUOUS
10
54.186
20
-26.73
11
54.186
21
-27.118
0
LINE
8
BLACK
6
CONTINUOUS
10
54.186
20
-27.118
11
54.0533
21
-27.4825
0
LINE
8
BLACK
6
CONTINUOUS
10
54.0533
20
-27.4825
11
53.804
21
-27.7796
0
LINE
8
BLACK
6
CONTINUOUS
10
53.804
20
-27.7796
11
53.468
21
-27.9736
0
LINE
8
BLACK
6
CONTINUOUS
10
53.468
20
-27.9736
11
53.086
21
-28.041
0
LINE
8
BLACK
6
CONTINUOUS
10
53.086
20
-28.041
11
52.704
21
-27.9736
0
LINE
8
BLACK
6
CONTINUOUS
10
52.704
20
-27.9736
11
52.368
21
-27.7796
0
LINE
8
BLACK
6
CONTINUOUS
10
52.368
20
-27.7796
11
52.1187
21
-27.4825
0
LINE
8
BLACK
6
CONTINUOUS
10
52.1187
20
-27.4825
11
51.986
21
-27.118
0
LINE
8
BLACK
6
CONTINUOUS
10
51.986
20
-27.118
11
51.986
21
-26.73
0
LINE
8
BLACK
6
CONTINUOUS
10
51.986
20
-26.73
11
52.1187
21
-26.3655
0
LINE
8
BLACK
6
CONTINUOUS
10
52.1187
20
-26.3655
11
52.368
21
-26.0684
0
LINE
8
BLACK
6
CONTINUOUS
10
52.368
20
-26.0684
11
52.704
21
-25.8744
0
LINE
8
BLACK
6
CONTINUOUS
10
52.704
20
-25.8744
11
53.086
21
-25.807
0
LINE
8
BLACK
6
CONTINUOUS
10
53.086
20
-25.807
11
53.468
21
-25.8744
0
LINE
8
BLACK
6
CONTINUOUS
10
30.862
20
-25.8744
11
31.198
21
-26.0684
0
LINE
8
BLACK
6
CONTINUOUS
10
31.198
20
-26.0684
11
31.4473
21
-26.3655
0
LINE
8
BLACK
6
CONTINUOUS
10
31.4473
20
-26.3655
11
31.58
21
-26.73
0
LINE
8
BLACK
6
CONTINUOUS
10
31.58
20
-26.73
11
31.58
21
-27.118
0
LINE
8
BLACK
6
CONTINUOUS
10
31.58
20
-27.118
11
31.4473
21
-27.4825
0
LINE
8
BLACK
6
CONTINUOUS
10
31.4473
20
-27.4825
11
31.198
21
-27.7796
0
LINE
8
BLACK
6
CONTINUOUS
10
31.198
20
-27.7796
11
30.862
21
-27.9736
0
LINE
8
BLACK
6
CONTINUOUS
10
30.862
20
-27.9736
11
30.48
21
-28.041
0
LINE
8
BLACK
6
CONTINUOUS
10
30.48
20
-28.041
11
30.098
21
-27.9736
0
LINE
8
BLACK
6
CONTINUOUS
10
30.098
20
-27.9736
11
29.762
21
-27.7796
0
LINE
8
BLACK
6
CONTINUOUS
10
29.762
20
-27.7796
11
29.5127
21
-27.4825
0
LINE
8
BLACK
6
CONTINUOUS
10
29.5127
20
-27.4825
11
29.38
21
-27.118
0
LINE
8
BLACK
6
CONTINUOUS
10
29.38
20
-27.118
11
29.38
21
-26.73
0
LINE
8
BLACK
6
CONTINUOUS
10
29.38
20
-26.73
11
29.5127
21
-26.3655
0
LINE
8
BLACK
6
CONTINUOUS
10
29.5127
20
-26.3655
11
29.762
21
-26.0684
0
LINE
8
BLACK
6
CONTINUOUS
10
29.762
20
-26.0684
11
30.098
21
-25.8744
0
LINE
8
BLACK
6
CONTINUOUS
10
30.098
20
-25.8744
11
30.48
21
-25.807
0
LINE
8
BLACK
6
CONTINUOUS
10
30.48
20
-25.807
11
30.862
21
-25.8744
  0
ENDSEC
  0
EOF
