  0
SECTION
  2
HEADER
  9
$ANGBASE
  50
0.0
  9
$ANGDIR
  70
  1
  9
$MEASUREMENT
  70
0
  0
ENDSEC
  0
SECTION
  2
TABLES
  0
TABLE
  2
LTYPE
  70
4
  0
LTYPE
  5
40F
  2
CONTINUOUS
  70
0
  3
Solid line
  72
65
  73
0
  40
0.0
  0
LTYPE
  5
410
  2
DASHDOT
 70
0
  3
Dash Dot ____ _ ____ _
 72
65
 73
4
 40
2.0
 49
1.25
 49
-0.25
 49
0.25
 49
-0.25
  0
LTYPE
  5
411
  2
DASHED
 70
0
  3
Dashed __ __ __ __ __
 72
65
 73
2
 40
0.75
 49
0.5
 49
-0.25
  0
LTYPE
  5
43B
  2
DOTTED
 70
0
  3
Dotted .  .  .  .
 72
65
 73
2
 40
0.2
 49
0.0
 49
-0.2
  0
ENDTAB
  0
TABLE
  2
STYLE
  70
4
  0
STYLE
  2
KICAD
  70
0
  40
0
  41
1
  42
1
  50
0
  71
0
  3
isocp.shx
  0
STYLE
  2
KICADB
  70
0
  40
0
  41
1
  42
1
  50
0
  71
0
  3
isocp.shx
  0
STYLE
  2
KICADI
  70
0
  40
0
  41
1
  42
1
  50
15
  71
0
  3
isocp.shx
  0
STYLE
  2
KICADBI
  70
0
  40
0
  41
1
  42
1
  50
15
  71
0
  3
isocp.shx
  0
ENDTAB
  0
TABLE
  2
LAYER
  70
30
  0
LAYER
  2
BLACK
  70
0
  62
7
  6
CONTINUOUS
  0
LAYER
  2
GRAY1
  70
0
  62
251
  6
CONTINUOUS
  0
LAYER
  2
GRAY2
  70
0
  62
8
  6
CONTINUOUS
  0
LAYER
  2
GRAY3
  70
0
  62
9
  6
CONTINUOUS
  0
LAYER
  2
WHITE
  70
0
  62
7
  6
CONTINUOUS
  0
LAYER
  2
LYELLOW
  70
0
  62
51
  6
CONTINUOUS
  0
LAYER
  2
BLUE1
  70
0
  62
178
  6
CONTINUOUS
  0
LAYER
  2
GREEN1
  70
0
  62
98
  6
CONTINUOUS
  0
LAYER
  2
CYAN1
  70
0
  62
138
  6
CONTINUOUS
  0
LAYER
  2
RED1
  70
0
  62
18
  6
CONTINUOUS
  0
LAYER
  2
MAGENTA1
  70
0
  62
228
  6
CONTINUOUS
  0
LAYER
  2
BROWN1
  70
0
  62
58
  6
CONTINUOUS
  0
LAYER
  2
BLUE2
  70
0
  62
5
  6
CONTINUOUS
  0
LAYER
  2
GREEN2
  70
0
  62
3
  6
CONTINUOUS
  0
LAYER
  2
CYAN2
  70
0
  62
4
  6
CONTINUOUS
  0
LAYER
  2
RED2
  70
0
  62
1
  6
CONTINUOUS
  0
LAYER
  2
MAGENTA2
  70
0
  62
6
  6
CONTINUOUS
  0
LAYER
  2
BROWN2
  70
0
  62
54
  6
CONTINUOUS
  0
LAYER
  2
BLUE3
  70
0
  62
171
  6
CONTINUOUS
  0
LAYER
  2
GREEN3
  70
0
  62
91
  6
CONTINUOUS
  0
LAYER
  2
CYAN3
  70
0
  62
131
  6
CONTINUOUS
  0
LAYER
  2
RED3
  70
0
  62
11
  6
CONTINUOUS
  0
LAYER
  2
MAGENTA3
  70
0
  62
221
  6
CONTINUOUS
  0
LAYER
  2
YELLOW3
  70
0
  62
2
  6
CONTINUOUS
  0
LAYER
  2
BLUE4
  70
0
  62
5
  6
CONTINUOUS
  0
LAYER
  2
GREEN4
  70
0
  62
3
  6
CONTINUOUS
  0
LAYER
  2
CYAN4
  70
0
  62
4
  6
CONTINUOUS
  0
LAYER
  2
RED4
  70
0
  62
1
  6
CONTINUOUS
  0
LAYER
  2
MAGENTA4
  70
0
  62
6
  6
CONTINUOUS
  0
LAYER
  2
YELLOW4
  70
0
  62
2
  6
CONTINUOUS
  0
ENDTAB
  0
ENDSEC
  0
SECTION
  2
ENTITIES
0
LINE
8
BLACK
6
CONTINUOUS
10
55.9285
20
-47.765
11
55.9277
21
-47.7694
0
LINE
8
BLACK
6
CONTINUOUS
10
55.9277
20
-47.7694
11
55.9255
21
-47.7732
0
LINE
8
BLACK
6
CONTINUOUS
10
55.9255
20
-47.7732
11
55.924
21
-47.7774
0
LINE
8
BLACK
6
CONTINUOUS
10
55.924
20
-47.7774
11
55.9211
21
-47.7808
0
LINE
8
BLACK
6
CONTINUOUS
10
55.9211
20
-47.7808
11
55.9189
21
-47.7846
0
LINE
8
BLACK
6
CONTINUOUS
10
55.9189
20
-47.7846
11
55.9155
21
-47.7875
0
LINE
8
BLACK
6
CONTINUOUS
10
55.9155
20
-47.7875
11
55.9126
21
-47.7909
0
LINE
8
BLACK
6
CONTINUOUS
10
55.9126
20
-47.7909
11
55.9088
21
-47.7931
0
LINE
8
BLACK
6
CONTINUOUS
10
55.9088
20
-47.7931
11
55.9054
21
-47.796
0
LINE
8
BLACK
6
CONTINUOUS
10
55.9054
20
-47.796
11
55.9012
21
-47.7975
0
LINE
8
BLACK
6
CONTINUOUS
10
55.9012
20
-47.7975
11
55.8974
21
-47.7997
0
LINE
8
BLACK
6
CONTINUOUS
10
55.8974
20
-47.7997
11
55.893
21
-47.8005
0
LINE
8
BLACK
6
CONTINUOUS
10
55.893
20
-47.8005
11
55.8888
21
-47.802
0
LINE
8
BLACK
6
CONTINUOUS
10
55.8888
20
-47.802
11
27.6772
21
-47.802
0
LINE
8
BLACK
6
CONTINUOUS
10
27.6772
20
-47.802
11
27.673
21
-47.8005
0
LINE
8
BLACK
6
CONTINUOUS
10
27.673
20
-47.8005
11
27.6686
21
-47.7997
0
LINE
8
BLACK
6
CONTINUOUS
10
27.6686
20
-47.7997
11
27.6648
21
-47.7975
0
LINE
8
BLACK
6
CONTINUOUS
10
27.6648
20
-47.7975
11
27.6606
21
-47.796
0
LINE
8
BLACK
6
CONTINUOUS
10
27.6606
20
-47.796
11
27.6572
21
-47.7931
0
LINE
8
BLACK
6
CONTINUOUS
10
27.6572
20
-47.7931
11
27.6534
21
-47.7909
0
LINE
8
BLACK
6
CONTINUOUS
10
27.6534
20
-47.7909
11
27.6505
21
-47.7875
0
LINE
8
BLACK
6
CONTINUOUS
10
27.6505
20
-47.7875
11
27.6471
21
-47.7846
0
LINE
8
BLACK
6
CONTINUOUS
10
27.6471
20
-47.7846
11
27.6449
21
-47.7808
0
LINE
8
BLACK
6
CONTINUOUS
10
27.6449
20
-47.7808
11
27.642
21
-47.7774
0
LINE
8
BLACK
6
CONTINUOUS
10
27.642
20
-47.7774
11
27.6405
21
-47.7732
0
LINE
8
BLACK
6
CONTINUOUS
10
27.6405
20
-47.7732
11
27.6383
21
-47.7694
0
LINE
8
BLACK
6
CONTINUOUS
10
27.6383
20
-47.7694
11
27.6375
21
-47.765
0
LINE
8
BLACK
6
CONTINUOUS
10
27.6375
20
-47.765
11
27.636
21
-47.7608
0
LINE
8
BLACK
6
CONTINUOUS
10
27.636
20
-47.7608
11
27.636
21
-47.7432
0
LINE
8
BLACK
6
CONTINUOUS
10
27.636
20
-47.7432
11
27.636
21
-47.7432
0
LINE
8
BLACK
6
CONTINUOUS
10
27.636
20
-47.7432
11
27.636
21
-24.1256
0
LINE
8
BLACK
6
CONTINUOUS
10
27.636
20
-24.1256
11
27.636
21
-24.1212
0
LINE
8
BLACK
6
CONTINUOUS
10
27.636
20
-24.1212
11
27.6375
21
-24.117
0
LINE
8
BLACK
6
CONTINUOUS
10
27.6375
20
-24.117
11
27.6383
21
-24.1126
0
LINE
8
BLACK
6
CONTINUOUS
10
27.6383
20
-24.1126
11
27.6405
21
-24.1088
0
LINE
8
BLACK
6
CONTINUOUS
10
27.6405
20
-24.1088
11
27.642
21
-24.1046
0
LINE
8
BLACK
6
CONTINUOUS
10
27.642
20
-24.1046
11
27.6449
21
-24.1012
0
LINE
8
BLACK
6
CONTINUOUS
10
27.6449
20
-24.1012
11
27.6471
21
-24.0974
0
LINE
8
BLACK
6
CONTINUOUS
10
27.6471
20
-24.0974
11
27.6505
21
-24.0945
0
LINE
8
BLACK
6
CONTINUOUS
10
27.6505
20
-24.0945
11
27.6534
21
-24.0911
0
LINE
8
BLACK
6
CONTINUOUS
10
27.6534
20
-24.0911
11
27.6572
21
-24.0889
0
LINE
8
BLACK
6
CONTINUOUS
10
27.6572
20
-24.0889
11
27.6606
21
-24.086
0
LINE
8
BLACK
6
CONTINUOUS
10
27.6606
20
-24.086
11
27.6648
21
-24.0845
0
LINE
8
BLACK
6
CONTINUOUS
10
27.6648
20
-24.0845
11
27.6686
21
-24.0823
0
LINE
8
BLACK
6
CONTINUOUS
10
27.6686
20
-24.0823
11
27.673
21
-24.0815
0
LINE
8
BLACK
6
CONTINUOUS
10
27.673
20
-24.0815
11
27.6772
21
-24.08
0
LINE
8
BLACK
6
CONTINUOUS
10
27.6772
20
-24.08
11
55.8888
21
-24.08
0
LINE
8
BLACK
6
CONTINUOUS
10
55.8888
20
-24.08
11
55.893
21
-24.0815
0
LINE
8
BLACK
6
CONTINUOUS
10
55.893
20
-24.0815
11
55.8974
21
-24.0823
0
LINE
8
BLACK
6
CONTINUOUS
10
55.8974
20
-24.0823
11
55.9012
21
-24.0845
0
LINE
8
BLACK
6
CONTINUOUS
10
55.9012
20
-24.0845
11
55.9054
21
-24.086
0
LINE
8
BLACK
6
CONTINUOUS
10
55.9054
20
-24.086
11
55.9088
21
-24.0889
0
LINE
8
BLACK
6
CONTINUOUS
10
55.9088
20
-24.0889
11
55.9126
21
-24.0911
0
LINE
8
BLACK
6
CONTINUOUS
10
55.9126
20
-24.0911
11
55.9155
21
-24.0945
0
LINE
8
BLACK
6
CONTINUOUS
10
55.9155
20
-24.0945
11
55.9189
21
-24.0974
0
LINE
8
BLACK
6
CONTINUOUS
10
55.9189
20
-24.0974
11
55.9211
21
-24.1012
0
LINE
8
BLACK
6
CONTINUOUS
10
55.9211
20
-24.1012
11
55.924
21
-24.1046
0
LINE
8
BLACK
6
CONTINUOUS
10
55.924
20
-24.1046
11
55.9255
21
-24.1088
0
LINE
8
BLACK
6
CONTINUOUS
10
55.9255
20
-24.1088
11
55.9277
21
-24.1126
0
LINE
8
BLACK
6
CONTINUOUS
10
55.9277
20
-24.1126
11
55.9285
21
-24.117
0
LINE
8
BLACK
6
CONTINUOUS
10
55.9285
20
-24.117
11
55.93
21
-24.1212
0
LINE
8
BLACK
6
CONTINUOUS
10
55.93
20
-24.1212
11
55.93
21
-47.7608
0
LINE
8
BLACK
6
CONTINUOUS
10
55.93
20
-47.7608
11
55.9285
21
-47.765
0
LINE
8
BLACK
6
CONTINUOUS
10
27.736
20
-24.18
11
27.736
21
-47.702
0
LINE
8
BLACK
6
CONTINUOUS
10
27.736
20
-47.702
11
55.83
21
-47.702
0
LINE
8
BLACK
6
CONTINUOUS
10
55.83
20
-47.702
11
55.83
21
-24.18
0
LINE
8
BLACK
6
CONTINUOUS
10
55.83
20
-24.18
11
27.736
21
-24.18
  0
ENDSEC
  0
EOF
