  0
SECTION
  2
HEADER
  9
$ANGBASE
  50
0.0
  9
$ANGDIR
  70
  1
  9
$MEASUREMENT
  70
0
  0
ENDSEC
  0
SECTION
  2
TABLES
  0
TABLE
  2
LTYPE
  70
4
  0
LTYPE
  5
40F
  2
CONTINUOUS
  70
0
  3
Solid line
  72
65
  73
0
  40
0.0
  0
LTYPE
  5
410
  2
DASHDOT
 70
0
  3
Dash Dot ____ _ ____ _
 72
65
 73
4
 40
2.0
 49
1.25
 49
-0.25
 49
0.25
 49
-0.25
  0
LTYPE
  5
411
  2
DASHED
 70
0
  3
Dashed __ __ __ __ __
 72
65
 73
2
 40
0.75
 49
0.5
 49
-0.25
  0
LTYPE
  5
43B
  2
DOTTED
 70
0
  3
Dotted .  .  .  .
 72
65
 73
2
 40
0.2
 49
0.0
 49
-0.2
  0
ENDTAB
  0
TABLE
  2
STYLE
  70
4
  0
STYLE
  2
KICAD
  70
0
  40
0
  41
1
  42
1
  50
0
  71
0
  3
isocp.shx
  0
STYLE
  2
KICADB
  70
0
  40
0
  41
1
  42
1
  50
0
  71
0
  3
isocp.shx
  0
STYLE
  2
KICADI
  70
0
  40
0
  41
1
  42
1
  50
15
  71
0
  3
isocp.shx
  0
STYLE
  2
KICADBI
  70
0
  40
0
  41
1
  42
1
  50
15
  71
0
  3
isocp.shx
  0
ENDTAB
  0
TABLE
  2
LAYER
  70
30
  0
LAYER
  2
BLACK
  70
0
  62
7
  6
CONTINUOUS
  0
LAYER
  2
GRAY1
  70
0
  62
251
  6
CONTINUOUS
  0
LAYER
  2
GRAY2
  70
0
  62
8
  6
CONTINUOUS
  0
LAYER
  2
GRAY3
  70
0
  62
9
  6
CONTINUOUS
  0
LAYER
  2
WHITE
  70
0
  62
7
  6
CONTINUOUS
  0
LAYER
  2
LYELLOW
  70
0
  62
51
  6
CONTINUOUS
  0
LAYER
  2
BLUE1
  70
0
  62
178
  6
CONTINUOUS
  0
LAYER
  2
GREEN1
  70
0
  62
98
  6
CONTINUOUS
  0
LAYER
  2
CYAN1
  70
0
  62
138
  6
CONTINUOUS
  0
LAYER
  2
RED1
  70
0
  62
18
  6
CONTINUOUS
  0
LAYER
  2
MAGENTA1
  70
0
  62
228
  6
CONTINUOUS
  0
LAYER
  2
BROWN1
  70
0
  62
58
  6
CONTINUOUS
  0
LAYER
  2
BLUE2
  70
0
  62
5
  6
CONTINUOUS
  0
LAYER
  2
GREEN2
  70
0
  62
3
  6
CONTINUOUS
  0
LAYER
  2
CYAN2
  70
0
  62
4
  6
CONTINUOUS
  0
LAYER
  2
RED2
  70
0
  62
1
  6
CONTINUOUS
  0
LAYER
  2
MAGENTA2
  70
0
  62
6
  6
CONTINUOUS
  0
LAYER
  2
BROWN2
  70
0
  62
54
  6
CONTINUOUS
  0
LAYER
  2
BLUE3
  70
0
  62
171
  6
CONTINUOUS
  0
LAYER
  2
GREEN3
  70
0
  62
91
  6
CONTINUOUS
  0
LAYER
  2
CYAN3
  70
0
  62
131
  6
CONTINUOUS
  0
LAYER
  2
RED3
  70
0
  62
11
  6
CONTINUOUS
  0
LAYER
  2
MAGENTA3
  70
0
  62
221
  6
CONTINUOUS
  0
LAYER
  2
YELLOW3
  70
0
  62
2
  6
CONTINUOUS
  0
LAYER
  2
BLUE4
  70
0
  62
5
  6
CONTINUOUS
  0
LAYER
  2
GREEN4
  70
0
  62
3
  6
CONTINUOUS
  0
LAYER
  2
CYAN4
  70
0
  62
4
  6
CONTINUOUS
  0
LAYER
  2
RED4
  70
0
  62
1
  6
CONTINUOUS
  0
LAYER
  2
MAGENTA4
  70
0
  62
6
  6
CONTINUOUS
  0
LAYER
  2
YELLOW4
  70
0
  62
2
  6
CONTINUOUS
  0
ENDTAB
  0
ENDSEC
  0
SECTION
  2
ENTITIES
0
LINE
8
BLACK
6
CONTINUOUS
10
53.4069
20
-43.9003
11
53.607
21
-43.9832
0
LINE
8
BLACK
6
CONTINUOUS
10
53.607
20
-43.9832
11
53.7872
21
-44.1036
0
LINE
8
BLACK
6
CONTINUOUS
10
53.7872
20
-44.1036
11
53.9404
21
-44.2568
0
LINE
8
BLACK
6
CONTINUOUS
10
53.9404
20
-44.2568
11
54.0608
21
-44.437
0
LINE
8
BLACK
6
CONTINUOUS
10
54.0608
20
-44.437
11
54.1437
21
-44.6371
0
LINE
8
BLACK
6
CONTINUOUS
10
54.1437
20
-44.6371
11
54.186
21
-44.8497
0
LINE
8
BLACK
6
CONTINUOUS
10
54.186
20
-44.8497
11
54.186
21
-45.0663
0
LINE
8
BLACK
6
CONTINUOUS
10
54.186
20
-45.0663
11
54.1437
21
-45.2789
0
LINE
8
BLACK
6
CONTINUOUS
10
54.1437
20
-45.2789
11
54.0608
21
-45.479
0
LINE
8
BLACK
6
CONTINUOUS
10
54.0608
20
-45.479
11
53.9404
21
-45.6592
0
LINE
8
BLACK
6
CONTINUOUS
10
53.9404
20
-45.6592
11
53.7872
21
-45.8124
0
LINE
8
BLACK
6
CONTINUOUS
10
53.7872
20
-45.8124
11
53.607
21
-45.9328
0
LINE
8
BLACK
6
CONTINUOUS
10
53.607
20
-45.9328
11
53.4069
21
-46.0157
0
LINE
8
BLACK
6
CONTINUOUS
10
53.4069
20
-46.0157
11
53.1943
21
-46.058
0
LINE
8
BLACK
6
CONTINUOUS
10
53.1943
20
-46.058
11
52.9777
21
-46.058
0
LINE
8
BLACK
6
CONTINUOUS
10
52.9777
20
-46.058
11
52.7651
21
-46.0157
0
LINE
8
BLACK
6
CONTINUOUS
10
52.7651
20
-46.0157
11
52.565
21
-45.9328
0
LINE
8
BLACK
6
CONTINUOUS
10
52.565
20
-45.9328
11
52.3848
21
-45.8124
0
LINE
8
BLACK
6
CONTINUOUS
10
52.3848
20
-45.8124
11
52.2316
21
-45.6592
0
LINE
8
BLACK
6
CONTINUOUS
10
52.2316
20
-45.6592
11
52.1112
21
-45.479
0
LINE
8
BLACK
6
CONTINUOUS
10
52.1112
20
-45.479
11
52.0283
21
-45.2789
0
LINE
8
BLACK
6
CONTINUOUS
10
52.0283
20
-45.2789
11
51.986
21
-45.0663
0
LINE
8
BLACK
6
CONTINUOUS
10
51.986
20
-45.0663
11
51.986
21
-44.8497
0
LINE
8
BLACK
6
CONTINUOUS
10
51.986
20
-44.8497
11
52.0283
21
-44.6371
0
LINE
8
BLACK
6
CONTINUOUS
10
52.0283
20
-44.6371
11
52.1112
21
-44.437
0
LINE
8
BLACK
6
CONTINUOUS
10
52.1112
20
-44.437
11
52.2316
21
-44.2568
0
LINE
8
BLACK
6
CONTINUOUS
10
52.2316
20
-44.2568
11
52.3848
21
-44.1036
0
LINE
8
BLACK
6
CONTINUOUS
10
52.3848
20
-44.1036
11
52.565
21
-43.9832
0
LINE
8
BLACK
6
CONTINUOUS
10
52.565
20
-43.9832
11
52.7651
21
-43.9003
0
LINE
8
BLACK
6
CONTINUOUS
10
52.7651
20
-43.9003
11
52.9777
21
-43.858
0
LINE
8
BLACK
6
CONTINUOUS
10
52.9777
20
-43.858
11
53.1943
21
-43.858
0
LINE
8
BLACK
6
CONTINUOUS
10
53.1943
20
-43.858
11
53.4069
21
-43.9003
0
LINE
8
BLACK
6
CONTINUOUS
10
30.8009
20
-43.9003
11
31.001
21
-43.9832
0
LINE
8
BLACK
6
CONTINUOUS
10
31.001
20
-43.9832
11
31.1812
21
-44.1036
0
LINE
8
BLACK
6
CONTINUOUS
10
31.1812
20
-44.1036
11
31.3344
21
-44.2568
0
LINE
8
BLACK
6
CONTINUOUS
10
31.3344
20
-44.2568
11
31.4548
21
-44.437
0
LINE
8
BLACK
6
CONTINUOUS
10
31.4548
20
-44.437
11
31.5377
21
-44.6371
0
LINE
8
BLACK
6
CONTINUOUS
10
31.5377
20
-44.6371
11
31.58
21
-44.8497
0
LINE
8
BLACK
6
CONTINUOUS
10
31.58
20
-44.8497
11
31.58
21
-45.0663
0
LINE
8
BLACK
6
CONTINUOUS
10
31.58
20
-45.0663
11
31.5377
21
-45.2789
0
LINE
8
BLACK
6
CONTINUOUS
10
31.5377
20
-45.2789
11
31.4548
21
-45.479
0
LINE
8
BLACK
6
CONTINUOUS
10
31.4548
20
-45.479
11
31.3344
21
-45.6592
0
LINE
8
BLACK
6
CONTINUOUS
10
31.3344
20
-45.6592
11
31.1812
21
-45.8124
0
LINE
8
BLACK
6
CONTINUOUS
10
31.1812
20
-45.8124
11
31.001
21
-45.9328
0
LINE
8
BLACK
6
CONTINUOUS
10
31.001
20
-45.9328
11
30.8009
21
-46.0157
0
LINE
8
BLACK
6
CONTINUOUS
10
30.8009
20
-46.0157
11
30.5883
21
-46.058
0
LINE
8
BLACK
6
CONTINUOUS
10
30.5883
20
-46.058
11
30.3717
21
-46.058
0
LINE
8
BLACK
6
CONTINUOUS
10
30.3717
20
-46.058
11
30.1591
21
-46.0157
0
LINE
8
BLACK
6
CONTINUOUS
10
30.1591
20
-46.0157
11
29.959
21
-45.9328
0
LINE
8
BLACK
6
CONTINUOUS
10
29.959
20
-45.9328
11
29.7788
21
-45.8124
0
LINE
8
BLACK
6
CONTINUOUS
10
29.7788
20
-45.8124
11
29.6256
21
-45.6592
0
LINE
8
BLACK
6
CONTINUOUS
10
29.6256
20
-45.6592
11
29.5052
21
-45.479
0
LINE
8
BLACK
6
CONTINUOUS
10
29.5052
20
-45.479
11
29.4223
21
-45.2789
0
LINE
8
BLACK
6
CONTINUOUS
10
29.4223
20
-45.2789
11
29.38
21
-45.0663
0
LINE
8
BLACK
6
CONTINUOUS
10
29.38
20
-45.0663
11
29.38
21
-44.8497
0
LINE
8
BLACK
6
CONTINUOUS
10
29.38
20
-44.8497
11
29.4223
21
-44.6371
0
LINE
8
BLACK
6
CONTINUOUS
10
29.4223
20
-44.6371
11
29.5052
21
-44.437
0
LINE
8
BLACK
6
CONTINUOUS
10
29.5052
20
-44.437
11
29.6256
21
-44.2568
0
LINE
8
BLACK
6
CONTINUOUS
10
29.6256
20
-44.2568
11
29.7788
21
-44.1036
0
LINE
8
BLACK
6
CONTINUOUS
10
29.7788
20
-44.1036
11
29.959
21
-43.9832
0
LINE
8
BLACK
6
CONTINUOUS
10
29.959
20
-43.9832
11
30.1591
21
-43.9003
0
LINE
8
BLACK
6
CONTINUOUS
10
30.1591
20
-43.9003
11
30.3717
21
-43.858
0
LINE
8
BLACK
6
CONTINUOUS
10
30.3717
20
-43.858
11
30.5883
21
-43.858
0
LINE
8
BLACK
6
CONTINUOUS
10
30.5883
20
-43.858
11
30.8009
21
-43.9003
0
LINE
8
BLACK
6
CONTINUOUS
10
40.5526
20
-40.5643
11
40.7129
21
-40.6129
0
LINE
8
BLACK
6
CONTINUOUS
10
40.7129
20
-40.6129
11
40.8605
21
-40.6918
0
LINE
8
BLACK
6
CONTINUOUS
10
40.8605
20
-40.6918
11
40.9899
21
-40.7981
0
LINE
8
BLACK
6
CONTINUOUS
10
40.9899
20
-40.7981
11
41.0962
21
-40.9275
0
LINE
8
BLACK
6
CONTINUOUS
10
41.0962
20
-40.9275
11
41.1751
21
-41.0751
0
LINE
8
BLACK
6
CONTINUOUS
10
41.1751
20
-41.0751
11
41.2237
21
-41.2354
0
LINE
8
BLACK
6
CONTINUOUS
10
41.2237
20
-41.2354
11
41.2401
21
-41.402
0
LINE
8
BLACK
6
CONTINUOUS
10
41.2401
20
-41.402
11
41.2237
21
-41.5686
0
LINE
8
BLACK
6
CONTINUOUS
10
41.2237
20
-41.5686
11
41.1751
21
-41.7289
0
LINE
8
BLACK
6
CONTINUOUS
10
41.1751
20
-41.7289
11
41.0962
21
-41.8765
0
LINE
8
BLACK
6
CONTINUOUS
10
41.0962
20
-41.8765
11
40.9899
21
-42.0059
0
LINE
8
BLACK
6
CONTINUOUS
10
40.9899
20
-42.0059
11
40.8605
21
-42.1122
0
LINE
8
BLACK
6
CONTINUOUS
10
40.8605
20
-42.1122
11
40.7129
21
-42.1911
0
LINE
8
BLACK
6
CONTINUOUS
10
40.7129
20
-42.1911
11
40.5526
21
-42.2397
0
LINE
8
BLACK
6
CONTINUOUS
10
40.5526
20
-42.2397
11
40.4278
21
-42.252
0
LINE
8
BLACK
6
CONTINUOUS
10
40.4278
20
-42.252
11
40.3442
21
-42.252
0
LINE
8
BLACK
6
CONTINUOUS
10
40.3442
20
-42.252
11
40.2194
21
-42.2397
0
LINE
8
BLACK
6
CONTINUOUS
10
40.2194
20
-42.2397
11
40.0591
21
-42.1911
0
LINE
8
BLACK
6
CONTINUOUS
10
40.0591
20
-42.1911
11
39.9115
21
-42.1122
0
LINE
8
BLACK
6
CONTINUOUS
10
39.9115
20
-42.1122
11
39.7821
21
-42.0059
0
LINE
8
BLACK
6
CONTINUOUS
10
39.7821
20
-42.0059
11
39.6758
21
-41.8765
0
LINE
8
BLACK
6
CONTINUOUS
10
39.6758
20
-41.8765
11
39.5969
21
-41.7289
0
LINE
8
BLACK
6
CONTINUOUS
10
39.5969
20
-41.7289
11
39.5483
21
-41.5686
0
LINE
8
BLACK
6
CONTINUOUS
10
39.5483
20
-41.5686
11
39.5319
21
-41.402
0
LINE
8
BLACK
6
CONTINUOUS
10
39.5319
20
-41.402
11
39.5483
21
-41.2354
0
LINE
8
BLACK
6
CONTINUOUS
10
39.5483
20
-41.2354
11
39.5969
21
-41.0751
0
LINE
8
BLACK
6
CONTINUOUS
10
39.5969
20
-41.0751
11
39.6758
21
-40.9275
0
LINE
8
BLACK
6
CONTINUOUS
10
39.6758
20
-40.9275
11
39.7821
21
-40.7981
0
LINE
8
BLACK
6
CONTINUOUS
10
39.7821
20
-40.7981
11
39.9115
21
-40.6918
0
LINE
8
BLACK
6
CONTINUOUS
10
39.9115
20
-40.6918
11
40.0591
21
-40.6129
0
LINE
8
BLACK
6
CONTINUOUS
10
40.0591
20
-40.6129
11
40.2194
21
-40.5643
0
LINE
8
BLACK
6
CONTINUOUS
10
40.2194
20
-40.5643
11
40.3442
21
-40.552
0
LINE
8
BLACK
6
CONTINUOUS
10
40.3442
20
-40.552
11
40.4278
21
-40.552
0
LINE
8
BLACK
6
CONTINUOUS
10
40.4278
20
-40.552
11
40.5526
21
-40.5643
0
LINE
8
BLACK
6
CONTINUOUS
10
45.6326
20
-40.5643
11
45.7929
21
-40.6129
0
LINE
8
BLACK
6
CONTINUOUS
10
45.7929
20
-40.6129
11
45.9405
21
-40.6918
0
LINE
8
BLACK
6
CONTINUOUS
10
45.9405
20
-40.6918
11
46.0699
21
-40.7981
0
LINE
8
BLACK
6
CONTINUOUS
10
46.0699
20
-40.7981
11
46.1762
21
-40.9275
0
LINE
8
BLACK
6
CONTINUOUS
10
46.1762
20
-40.9275
11
46.2551
21
-41.0751
0
LINE
8
BLACK
6
CONTINUOUS
10
46.2551
20
-41.0751
11
46.3037
21
-41.2354
0
LINE
8
BLACK
6
CONTINUOUS
10
46.3037
20
-41.2354
11
46.3201
21
-41.402
0
LINE
8
BLACK
6
CONTINUOUS
10
46.3201
20
-41.402
11
46.3037
21
-41.5686
0
LINE
8
BLACK
6
CONTINUOUS
10
46.3037
20
-41.5686
11
46.2551
21
-41.7289
0
LINE
8
BLACK
6
CONTINUOUS
10
46.2551
20
-41.7289
11
46.1762
21
-41.8765
0
LINE
8
BLACK
6
CONTINUOUS
10
46.1762
20
-41.8765
11
46.0699
21
-42.0059
0
LINE
8
BLACK
6
CONTINUOUS
10
46.0699
20
-42.0059
11
45.9405
21
-42.1122
0
LINE
8
BLACK
6
CONTINUOUS
10
45.9405
20
-42.1122
11
45.7929
21
-42.1911
0
LINE
8
BLACK
6
CONTINUOUS
10
45.7929
20
-42.1911
11
45.6326
21
-42.2397
0
LINE
8
BLACK
6
CONTINUOUS
10
45.6326
20
-42.2397
11
45.5078
21
-42.252
0
LINE
8
BLACK
6
CONTINUOUS
10
45.5078
20
-42.252
11
45.4242
21
-42.252
0
LINE
8
BLACK
6
CONTINUOUS
10
45.4242
20
-42.252
11
45.2994
21
-42.2397
0
LINE
8
BLACK
6
CONTINUOUS
10
45.2994
20
-42.2397
11
45.1391
21
-42.1911
0
LINE
8
BLACK
6
CONTINUOUS
10
45.1391
20
-42.1911
11
44.9915
21
-42.1122
0
LINE
8
BLACK
6
CONTINUOUS
10
44.9915
20
-42.1122
11
44.8621
21
-42.0059
0
LINE
8
BLACK
6
CONTINUOUS
10
44.8621
20
-42.0059
11
44.7558
21
-41.8765
0
LINE
8
BLACK
6
CONTINUOUS
10
44.7558
20
-41.8765
11
44.6769
21
-41.7289
0
LINE
8
BLACK
6
CONTINUOUS
10
44.6769
20
-41.7289
11
44.6283
21
-41.5686
0
LINE
8
BLACK
6
CONTINUOUS
10
44.6283
20
-41.5686
11
44.6119
21
-41.402
0
LINE
8
BLACK
6
CONTINUOUS
10
44.6119
20
-41.402
11
44.6283
21
-41.2354
0
LINE
8
BLACK
6
CONTINUOUS
10
44.6283
20
-41.2354
11
44.6769
21
-41.0751
0
LINE
8
BLACK
6
CONTINUOUS
10
44.6769
20
-41.0751
11
44.7558
21
-40.9275
0
LINE
8
BLACK
6
CONTINUOUS
10
44.7558
20
-40.9275
11
44.8621
21
-40.7981
0
LINE
8
BLACK
6
CONTINUOUS
10
44.8621
20
-40.7981
11
44.9915
21
-40.6918
0
LINE
8
BLACK
6
CONTINUOUS
10
44.9915
20
-40.6918
11
45.1391
21
-40.6129
0
LINE
8
BLACK
6
CONTINUOUS
10
45.1391
20
-40.6129
11
45.2994
21
-40.5643
0
LINE
8
BLACK
6
CONTINUOUS
10
45.2994
20
-40.5643
11
45.4242
21
-40.552
0
LINE
8
BLACK
6
CONTINUOUS
10
45.4242
20
-40.552
11
45.5078
21
-40.552
0
LINE
8
BLACK
6
CONTINUOUS
10
45.5078
20
-40.552
11
45.6326
21
-40.5643
0
LINE
8
BLACK
6
CONTINUOUS
10
43.0926
20
-40.5643
11
43.2529
21
-40.6129
0
LINE
8
BLACK
6
CONTINUOUS
10
43.2529
20
-40.6129
11
43.4005
21
-40.6918
0
LINE
8
BLACK
6
CONTINUOUS
10
43.4005
20
-40.6918
11
43.5299
21
-40.7981
0
LINE
8
BLACK
6
CONTINUOUS
10
43.5299
20
-40.7981
11
43.6362
21
-40.9275
0
LINE
8
BLACK
6
CONTINUOUS
10
43.6362
20
-40.9275
11
43.7151
21
-41.0751
0
LINE
8
BLACK
6
CONTINUOUS
10
43.7151
20
-41.0751
11
43.7637
21
-41.2354
0
LINE
8
BLACK
6
CONTINUOUS
10
43.7637
20
-41.2354
11
43.7801
21
-41.402
0
LINE
8
BLACK
6
CONTINUOUS
10
43.7801
20
-41.402
11
43.7637
21
-41.5686
0
LINE
8
BLACK
6
CONTINUOUS
10
43.7637
20
-41.5686
11
43.7151
21
-41.7289
0
LINE
8
BLACK
6
CONTINUOUS
10
43.7151
20
-41.7289
11
43.6362
21
-41.8765
0
LINE
8
BLACK
6
CONTINUOUS
10
43.6362
20
-41.8765
11
43.5299
21
-42.0059
0
LINE
8
BLACK
6
CONTINUOUS
10
43.5299
20
-42.0059
11
43.4005
21
-42.1122
0
LINE
8
BLACK
6
CONTINUOUS
10
43.4005
20
-42.1122
11
43.2529
21
-42.1911
0
LINE
8
BLACK
6
CONTINUOUS
10
43.2529
20
-42.1911
11
43.0926
21
-42.2397
0
LINE
8
BLACK
6
CONTINUOUS
10
43.0926
20
-42.2397
11
42.9678
21
-42.252
0
LINE
8
BLACK
6
CONTINUOUS
10
42.9678
20
-42.252
11
42.8842
21
-42.252
0
LINE
8
BLACK
6
CONTINUOUS
10
42.8842
20
-42.252
11
42.7594
21
-42.2397
0
LINE
8
BLACK
6
CONTINUOUS
10
42.7594
20
-42.2397
11
42.5991
21
-42.1911
0
LINE
8
BLACK
6
CONTINUOUS
10
42.5991
20
-42.1911
11
42.4515
21
-42.1122
0
LINE
8
BLACK
6
CONTINUOUS
10
42.4515
20
-42.1122
11
42.3221
21
-42.0059
0
LINE
8
BLACK
6
CONTINUOUS
10
42.3221
20
-42.0059
11
42.2158
21
-41.8765
0
LINE
8
BLACK
6
CONTINUOUS
10
42.2158
20
-41.8765
11
42.1369
21
-41.7289
0
LINE
8
BLACK
6
CONTINUOUS
10
42.1369
20
-41.7289
11
42.0883
21
-41.5686
0
LINE
8
BLACK
6
CONTINUOUS
10
42.0883
20
-41.5686
11
42.0719
21
-41.402
0
LINE
8
BLACK
6
CONTINUOUS
10
42.0719
20
-41.402
11
42.0883
21
-41.2354
0
LINE
8
BLACK
6
CONTINUOUS
10
42.0883
20
-41.2354
11
42.1369
21
-41.0751
0
LINE
8
BLACK
6
CONTINUOUS
10
42.1369
20
-41.0751
11
42.2158
21
-40.9275
0
LINE
8
BLACK
6
CONTINUOUS
10
42.2158
20
-40.9275
11
42.3221
21
-40.7981
0
LINE
8
BLACK
6
CONTINUOUS
10
42.3221
20
-40.7981
11
42.4515
21
-40.6918
0
LINE
8
BLACK
6
CONTINUOUS
10
42.4515
20
-40.6918
11
42.5991
21
-40.6129
0
LINE
8
BLACK
6
CONTINUOUS
10
42.5991
20
-40.6129
11
42.7594
21
-40.5643
0
LINE
8
BLACK
6
CONTINUOUS
10
42.7594
20
-40.5643
11
42.8842
21
-40.552
0
LINE
8
BLACK
6
CONTINUOUS
10
42.8842
20
-40.552
11
42.9678
21
-40.552
0
LINE
8
BLACK
6
CONTINUOUS
10
42.9678
20
-40.552
11
43.0926
21
-40.5643
0
LINE
8
BLACK
6
CONTINUOUS
10
38.696
20
-42.252
11
36.996
21
-42.252
0
LINE
8
BLACK
6
CONTINUOUS
10
36.996
20
-42.252
11
36.996
21
-40.552
0
LINE
8
BLACK
6
CONTINUOUS
10
36.996
20
-40.552
11
38.696
21
-40.552
0
LINE
8
BLACK
6
CONTINUOUS
10
38.696
20
-40.552
11
38.696
21
-42.252
0
LINE
8
BLACK
6
CONTINUOUS
10
54.7472
20
-37.9181
11
54.8792
21
-37.9582
0
LINE
8
BLACK
6
CONTINUOUS
10
54.8792
20
-37.9582
11
55.0008
21
-38.0232
0
LINE
8
BLACK
6
CONTINUOUS
10
55.0008
20
-38.0232
11
55.1074
21
-38.1106
0
LINE
8
BLACK
6
CONTINUOUS
10
55.1074
20
-38.1106
11
55.1948
21
-38.2172
0
LINE
8
BLACK
6
CONTINUOUS
10
55.1948
20
-38.2172
11
55.2598
21
-38.3388
0
LINE
8
BLACK
6
CONTINUOUS
10
55.2598
20
-38.3388
11
55.2999
21
-38.4708
0
LINE
8
BLACK
6
CONTINUOUS
10
55.2999
20
-38.4708
11
55.3134
21
-38.608
0
LINE
8
BLACK
6
CONTINUOUS
10
55.3134
20
-38.608
11
55.2999
21
-38.7452
0
LINE
8
BLACK
6
CONTINUOUS
10
55.2999
20
-38.7452
11
55.2598
21
-38.8772
0
LINE
8
BLACK
6
CONTINUOUS
10
55.2598
20
-38.8772
11
55.1948
21
-38.9988
0
LINE
8
BLACK
6
CONTINUOUS
10
55.1948
20
-38.9988
11
55.1074
21
-39.1054
0
LINE
8
BLACK
6
CONTINUOUS
10
55.1074
20
-39.1054
11
55.0008
21
-39.1928
0
LINE
8
BLACK
6
CONTINUOUS
10
55.0008
20
-39.1928
11
54.8792
21
-39.2578
0
LINE
8
BLACK
6
CONTINUOUS
10
54.8792
20
-39.2578
11
54.7472
21
-39.2979
0
LINE
8
BLACK
6
CONTINUOUS
10
54.7472
20
-39.2979
11
54.6444
21
-39.308
0
LINE
8
BLACK
6
CONTINUOUS
10
54.6444
20
-39.308
11
54.5756
21
-39.308
0
LINE
8
BLACK
6
CONTINUOUS
10
54.5756
20
-39.308
11
54.4728
21
-39.2979
0
LINE
8
BLACK
6
CONTINUOUS
10
54.4728
20
-39.2979
11
54.3408
21
-39.2578
0
LINE
8
BLACK
6
CONTINUOUS
10
54.3408
20
-39.2578
11
54.2192
21
-39.1928
0
LINE
8
BLACK
6
CONTINUOUS
10
54.2192
20
-39.1928
11
54.1126
21
-39.1054
0
LINE
8
BLACK
6
CONTINUOUS
10
54.1126
20
-39.1054
11
54.0252
21
-38.9988
0
LINE
8
BLACK
6
CONTINUOUS
10
54.0252
20
-38.9988
11
53.9602
21
-38.8772
0
LINE
8
BLACK
6
CONTINUOUS
10
53.9602
20
-38.8772
11
53.9201
21
-38.7452
0
LINE
8
BLACK
6
CONTINUOUS
10
53.9201
20
-38.7452
11
53.9066
21
-38.608
0
LINE
8
BLACK
6
CONTINUOUS
10
53.9066
20
-38.608
11
53.9201
21
-38.4708
0
LINE
8
BLACK
6
CONTINUOUS
10
53.9201
20
-38.4708
11
53.9602
21
-38.3388
0
LINE
8
BLACK
6
CONTINUOUS
10
53.9602
20
-38.3388
11
54.0252
21
-38.2172
0
LINE
8
BLACK
6
CONTINUOUS
10
54.0252
20
-38.2172
11
54.1126
21
-38.1106
0
LINE
8
BLACK
6
CONTINUOUS
10
54.1126
20
-38.1106
11
54.2192
21
-38.0232
0
LINE
8
BLACK
6
CONTINUOUS
10
54.2192
20
-38.0232
11
54.3408
21
-37.9582
0
LINE
8
BLACK
6
CONTINUOUS
10
54.3408
20
-37.9582
11
54.4728
21
-37.9181
0
LINE
8
BLACK
6
CONTINUOUS
10
54.4728
20
-37.9181
11
54.5756
21
-37.908
0
LINE
8
BLACK
6
CONTINUOUS
10
54.5756
20
-37.908
11
54.6444
21
-37.908
0
LINE
8
BLACK
6
CONTINUOUS
10
54.6444
20
-37.908
11
54.7472
21
-37.9181
0
LINE
8
BLACK
6
CONTINUOUS
10
46.1112
20
-37.9181
11
46.2432
21
-37.9582
0
LINE
8
BLACK
6
CONTINUOUS
10
46.2432
20
-37.9582
11
46.3648
21
-38.0232
0
LINE
8
BLACK
6
CONTINUOUS
10
46.3648
20
-38.0232
11
46.4714
21
-38.1106
0
LINE
8
BLACK
6
CONTINUOUS
10
46.4714
20
-38.1106
11
46.5588
21
-38.2172
0
LINE
8
BLACK
6
CONTINUOUS
10
46.5588
20
-38.2172
11
46.6238
21
-38.3388
0
LINE
8
BLACK
6
CONTINUOUS
10
46.6238
20
-38.3388
11
46.6639
21
-38.4708
0
LINE
8
BLACK
6
CONTINUOUS
10
46.6639
20
-38.4708
11
46.6774
21
-38.608
0
LINE
8
BLACK
6
CONTINUOUS
10
46.6774
20
-38.608
11
46.6639
21
-38.7452
0
LINE
8
BLACK
6
CONTINUOUS
10
46.6639
20
-38.7452
11
46.6238
21
-38.8772
0
LINE
8
BLACK
6
CONTINUOUS
10
46.6238
20
-38.8772
11
46.5588
21
-38.9988
0
LINE
8
BLACK
6
CONTINUOUS
10
46.5588
20
-38.9988
11
46.4714
21
-39.1054
0
LINE
8
BLACK
6
CONTINUOUS
10
46.4714
20
-39.1054
11
46.3648
21
-39.1928
0
LINE
8
BLACK
6
CONTINUOUS
10
46.3648
20
-39.1928
11
46.2432
21
-39.2578
0
LINE
8
BLACK
6
CONTINUOUS
10
46.2432
20
-39.2578
11
46.1112
21
-39.2979
0
LINE
8
BLACK
6
CONTINUOUS
10
46.1112
20
-39.2979
11
46.0084
21
-39.308
0
LINE
8
BLACK
6
CONTINUOUS
10
46.0084
20
-39.308
11
45.9396
21
-39.308
0
LINE
8
BLACK
6
CONTINUOUS
10
45.9396
20
-39.308
11
45.8368
21
-39.2979
0
LINE
8
BLACK
6
CONTINUOUS
10
45.8368
20
-39.2979
11
45.7048
21
-39.2578
0
LINE
8
BLACK
6
CONTINUOUS
10
45.7048
20
-39.2578
11
45.5832
21
-39.1928
0
LINE
8
BLACK
6
CONTINUOUS
10
45.5832
20
-39.1928
11
45.4766
21
-39.1054
0
LINE
8
BLACK
6
CONTINUOUS
10
45.4766
20
-39.1054
11
45.3892
21
-38.9988
0
LINE
8
BLACK
6
CONTINUOUS
10
45.3892
20
-38.9988
11
45.3242
21
-38.8772
0
LINE
8
BLACK
6
CONTINUOUS
10
45.3242
20
-38.8772
11
45.2841
21
-38.7452
0
LINE
8
BLACK
6
CONTINUOUS
10
45.2841
20
-38.7452
11
45.2706
21
-38.608
0
LINE
8
BLACK
6
CONTINUOUS
10
45.2706
20
-38.608
11
45.2841
21
-38.4708
0
LINE
8
BLACK
6
CONTINUOUS
10
45.2841
20
-38.4708
11
45.3242
21
-38.3388
0
LINE
8
BLACK
6
CONTINUOUS
10
45.3242
20
-38.3388
11
45.3892
21
-38.2172
0
LINE
8
BLACK
6
CONTINUOUS
10
45.3892
20
-38.2172
11
45.4766
21
-38.1106
0
LINE
8
BLACK
6
CONTINUOUS
10
45.4766
20
-38.1106
11
45.5832
21
-38.0232
0
LINE
8
BLACK
6
CONTINUOUS
10
45.5832
20
-38.0232
11
45.7048
21
-37.9582
0
LINE
8
BLACK
6
CONTINUOUS
10
45.7048
20
-37.9582
11
45.8368
21
-37.9181
0
LINE
8
BLACK
6
CONTINUOUS
10
45.8368
20
-37.9181
11
45.9396
21
-37.908
0
LINE
8
BLACK
6
CONTINUOUS
10
45.9396
20
-37.908
11
46.0084
21
-37.908
0
LINE
8
BLACK
6
CONTINUOUS
10
46.0084
20
-37.908
11
46.1112
21
-37.9181
0
LINE
8
BLACK
6
CONTINUOUS
10
37.4752
20
-37.9181
11
37.6072
21
-37.9582
0
LINE
8
BLACK
6
CONTINUOUS
10
37.6072
20
-37.9582
11
37.7288
21
-38.0232
0
LINE
8
BLACK
6
CONTINUOUS
10
37.7288
20
-38.0232
11
37.8354
21
-38.1106
0
LINE
8
BLACK
6
CONTINUOUS
10
37.8354
20
-38.1106
11
37.9228
21
-38.2172
0
LINE
8
BLACK
6
CONTINUOUS
10
37.9228
20
-38.2172
11
37.9878
21
-38.3388
0
LINE
8
BLACK
6
CONTINUOUS
10
37.9878
20
-38.3388
11
38.0279
21
-38.4708
0
LINE
8
BLACK
6
CONTINUOUS
10
38.0279
20
-38.4708
11
38.0414
21
-38.608
0
LINE
8
BLACK
6
CONTINUOUS
10
38.0414
20
-38.608
11
38.0279
21
-38.7452
0
LINE
8
BLACK
6
CONTINUOUS
10
38.0279
20
-38.7452
11
37.9878
21
-38.8772
0
LINE
8
BLACK
6
CONTINUOUS
10
37.9878
20
-38.8772
11
37.9228
21
-38.9988
0
LINE
8
BLACK
6
CONTINUOUS
10
37.9228
20
-38.9988
11
37.8354
21
-39.1054
0
LINE
8
BLACK
6
CONTINUOUS
10
37.8354
20
-39.1054
11
37.7288
21
-39.1928
0
LINE
8
BLACK
6
CONTINUOUS
10
37.7288
20
-39.1928
11
37.6072
21
-39.2578
0
LINE
8
BLACK
6
CONTINUOUS
10
37.6072
20
-39.2578
11
37.4752
21
-39.2979
0
LINE
8
BLACK
6
CONTINUOUS
10
37.4752
20
-39.2979
11
37.3724
21
-39.308
0
LINE
8
BLACK
6
CONTINUOUS
10
37.3724
20
-39.308
11
37.3036
21
-39.308
0
LINE
8
BLACK
6
CONTINUOUS
10
37.3036
20
-39.308
11
37.2008
21
-39.2979
0
LINE
8
BLACK
6
CONTINUOUS
10
37.2008
20
-39.2979
11
37.0688
21
-39.2578
0
LINE
8
BLACK
6
CONTINUOUS
10
37.0688
20
-39.2578
11
36.9472
21
-39.1928
0
LINE
8
BLACK
6
CONTINUOUS
10
36.9472
20
-39.1928
11
36.8406
21
-39.1054
0
LINE
8
BLACK
6
CONTINUOUS
10
36.8406
20
-39.1054
11
36.7532
21
-38.9988
0
LINE
8
BLACK
6
CONTINUOUS
10
36.7532
20
-38.9988
11
36.6882
21
-38.8772
0
LINE
8
BLACK
6
CONTINUOUS
10
36.6882
20
-38.8772
11
36.6481
21
-38.7452
0
LINE
8
BLACK
6
CONTINUOUS
10
36.6481
20
-38.7452
11
36.6346
21
-38.608
0
LINE
8
BLACK
6
CONTINUOUS
10
36.6346
20
-38.608
11
36.6481
21
-38.4708
0
LINE
8
BLACK
6
CONTINUOUS
10
36.6481
20
-38.4708
11
36.6882
21
-38.3388
0
LINE
8
BLACK
6
CONTINUOUS
10
36.6882
20
-38.3388
11
36.7532
21
-38.2172
0
LINE
8
BLACK
6
CONTINUOUS
10
36.7532
20
-38.2172
11
36.8406
21
-38.1106
0
LINE
8
BLACK
6
CONTINUOUS
10
36.8406
20
-38.1106
11
36.9472
21
-38.0232
0
LINE
8
BLACK
6
CONTINUOUS
10
36.9472
20
-38.0232
11
37.0688
21
-37.9582
0
LINE
8
BLACK
6
CONTINUOUS
10
37.0688
20
-37.9582
11
37.2008
21
-37.9181
0
LINE
8
BLACK
6
CONTINUOUS
10
37.2008
20
-37.9181
11
37.3036
21
-37.908
0
LINE
8
BLACK
6
CONTINUOUS
10
37.3036
20
-37.908
11
37.3724
21
-37.908
0
LINE
8
BLACK
6
CONTINUOUS
10
37.3724
20
-37.908
11
37.4752
21
-37.9181
0
LINE
8
BLACK
6
CONTINUOUS
10
51.8245
20
-32.4086
11
51.9883
21
-32.4764
0
LINE
8
BLACK
6
CONTINUOUS
10
51.9883
20
-32.4764
11
52.1357
21
-32.5749
0
LINE
8
BLACK
6
CONTINUOUS
10
52.1357
20
-32.5749
11
52.2611
21
-32.7003
0
LINE
8
BLACK
6
CONTINUOUS
10
52.2611
20
-32.7003
11
52.3596
21
-32.8477
0
LINE
8
BLACK
6
CONTINUOUS
10
52.3596
20
-32.8477
11
52.4274
21
-33.0115
0
LINE
8
BLACK
6
CONTINUOUS
10
52.4274
20
-33.0115
11
52.462
21
-33.1854
0
LINE
8
BLACK
6
CONTINUOUS
10
52.462
20
-33.1854
11
52.462
21
-33.3626
0
LINE
8
BLACK
6
CONTINUOUS
10
52.462
20
-33.3626
11
52.4274
21
-33.5365
0
LINE
8
BLACK
6
CONTINUOUS
10
52.4274
20
-33.5365
11
52.3596
21
-33.7003
0
LINE
8
BLACK
6
CONTINUOUS
10
52.3596
20
-33.7003
11
52.2611
21
-33.8477
0
LINE
8
BLACK
6
CONTINUOUS
10
52.2611
20
-33.8477
11
52.1357
21
-33.9731
0
LINE
8
BLACK
6
CONTINUOUS
10
52.1357
20
-33.9731
11
51.9883
21
-34.0716
0
LINE
8
BLACK
6
CONTINUOUS
10
51.9883
20
-34.0716
11
51.8245
21
-34.1394
0
LINE
8
BLACK
6
CONTINUOUS
10
51.8245
20
-34.1394
11
51.6506
21
-34.174
0
LINE
8
BLACK
6
CONTINUOUS
10
51.6506
20
-34.174
11
51.4734
21
-34.174
0
LINE
8
BLACK
6
CONTINUOUS
10
51.4734
20
-34.174
11
51.2995
21
-34.1394
0
LINE
8
BLACK
6
CONTINUOUS
10
51.2995
20
-34.1394
11
51.1357
21
-34.0716
0
LINE
8
BLACK
6
CONTINUOUS
10
51.1357
20
-34.0716
11
50.9883
21
-33.9731
0
LINE
8
BLACK
6
CONTINUOUS
10
50.9883
20
-33.9731
11
50.8629
21
-33.8477
0
LINE
8
BLACK
6
CONTINUOUS
10
50.8629
20
-33.8477
11
50.7644
21
-33.7003
0
LINE
8
BLACK
6
CONTINUOUS
10
50.7644
20
-33.7003
11
50.6966
21
-33.5365
0
LINE
8
BLACK
6
CONTINUOUS
10
50.6966
20
-33.5365
11
50.662
21
-33.3626
0
LINE
8
BLACK
6
CONTINUOUS
10
50.662
20
-33.3626
11
50.662
21
-33.1854
0
LINE
8
BLACK
6
CONTINUOUS
10
50.662
20
-33.1854
11
50.6966
21
-33.0115
0
LINE
8
BLACK
6
CONTINUOUS
10
50.6966
20
-33.0115
11
50.7644
21
-32.8477
0
LINE
8
BLACK
6
CONTINUOUS
10
50.7644
20
-32.8477
11
50.8629
21
-32.7003
0
LINE
8
BLACK
6
CONTINUOUS
10
50.8629
20
-32.7003
11
50.9883
21
-32.5749
0
LINE
8
BLACK
6
CONTINUOUS
10
50.9883
20
-32.5749
11
51.1357
21
-32.4764
0
LINE
8
BLACK
6
CONTINUOUS
10
51.1357
20
-32.4764
11
51.2995
21
-32.4086
0
LINE
8
BLACK
6
CONTINUOUS
10
51.2995
20
-32.4086
11
51.4734
21
-32.374
0
LINE
8
BLACK
6
CONTINUOUS
10
51.4734
20
-32.374
11
51.6506
21
-32.374
0
LINE
8
BLACK
6
CONTINUOUS
10
51.6506
20
-32.374
11
51.8245
21
-32.4086
0
LINE
8
BLACK
6
CONTINUOUS
10
32.65
20
-34.174
11
30.85
21
-34.174
0
LINE
8
BLACK
6
CONTINUOUS
10
30.85
20
-34.174
11
30.85
21
-32.374
0
LINE
8
BLACK
6
CONTINUOUS
10
30.85
20
-32.374
11
32.65
21
-32.374
0
LINE
8
BLACK
6
CONTINUOUS
10
32.65
20
-32.374
11
32.65
21
-34.174
0
LINE
8
BLACK
6
CONTINUOUS
10
34.5525
20
-32.4086
11
34.7163
21
-32.4764
0
LINE
8
BLACK
6
CONTINUOUS
10
34.7163
20
-32.4764
11
34.8637
21
-32.5749
0
LINE
8
BLACK
6
CONTINUOUS
10
34.8637
20
-32.5749
11
34.9891
21
-32.7003
0
LINE
8
BLACK
6
CONTINUOUS
10
34.9891
20
-32.7003
11
35.0876
21
-32.8477
0
LINE
8
BLACK
6
CONTINUOUS
10
35.0876
20
-32.8477
11
35.1554
21
-33.0115
0
LINE
8
BLACK
6
CONTINUOUS
10
35.1554
20
-33.0115
11
35.19
21
-33.1854
0
LINE
8
BLACK
6
CONTINUOUS
10
35.19
20
-33.1854
11
35.19
21
-33.3626
0
LINE
8
BLACK
6
CONTINUOUS
10
35.19
20
-33.3626
11
35.1554
21
-33.5365
0
LINE
8
BLACK
6
CONTINUOUS
10
35.1554
20
-33.5365
11
35.0876
21
-33.7003
0
LINE
8
BLACK
6
CONTINUOUS
10
35.0876
20
-33.7003
11
34.9891
21
-33.8477
0
LINE
8
BLACK
6
CONTINUOUS
10
34.9891
20
-33.8477
11
34.8637
21
-33.9731
0
LINE
8
BLACK
6
CONTINUOUS
10
34.8637
20
-33.9731
11
34.7163
21
-34.0716
0
LINE
8
BLACK
6
CONTINUOUS
10
34.7163
20
-34.0716
11
34.5525
21
-34.1394
0
LINE
8
BLACK
6
CONTINUOUS
10
34.5525
20
-34.1394
11
34.3786
21
-34.174
0
LINE
8
BLACK
6
CONTINUOUS
10
34.3786
20
-34.174
11
34.2014
21
-34.174
0
LINE
8
BLACK
6
CONTINUOUS
10
34.2014
20
-34.174
11
34.0275
21
-34.1394
0
LINE
8
BLACK
6
CONTINUOUS
10
34.0275
20
-34.1394
11
33.8637
21
-34.0716
0
LINE
8
BLACK
6
CONTINUOUS
10
33.8637
20
-34.0716
11
33.7163
21
-33.9731
0
LINE
8
BLACK
6
CONTINUOUS
10
33.7163
20
-33.9731
11
33.5909
21
-33.8477
0
LINE
8
BLACK
6
CONTINUOUS
10
33.5909
20
-33.8477
11
33.4924
21
-33.7003
0
LINE
8
BLACK
6
CONTINUOUS
10
33.4924
20
-33.7003
11
33.4246
21
-33.5365
0
LINE
8
BLACK
6
CONTINUOUS
10
33.4246
20
-33.5365
11
33.39
21
-33.3626
0
LINE
8
BLACK
6
CONTINUOUS
10
33.39
20
-33.3626
11
33.39
21
-33.1854
0
LINE
8
BLACK
6
CONTINUOUS
10
33.39
20
-33.1854
11
33.4246
21
-33.0115
0
LINE
8
BLACK
6
CONTINUOUS
10
33.4246
20
-33.0115
11
33.4924
21
-32.8477
0
LINE
8
BLACK
6
CONTINUOUS
10
33.4924
20
-32.8477
11
33.5909
21
-32.7003
0
LINE
8
BLACK
6
CONTINUOUS
10
33.5909
20
-32.7003
11
33.7163
21
-32.5749
0
LINE
8
BLACK
6
CONTINUOUS
10
33.7163
20
-32.5749
11
33.8637
21
-32.4764
0
LINE
8
BLACK
6
CONTINUOUS
10
33.8637
20
-32.4764
11
34.0275
21
-32.4086
0
LINE
8
BLACK
6
CONTINUOUS
10
34.0275
20
-32.4086
11
34.2014
21
-32.374
0
LINE
8
BLACK
6
CONTINUOUS
10
34.2014
20
-32.374
11
34.3786
21
-32.374
0
LINE
8
BLACK
6
CONTINUOUS
10
34.3786
20
-32.374
11
34.5525
21
-32.4086
0
LINE
8
BLACK
6
CONTINUOUS
10
41.286
20
-34.174
11
39.486
21
-34.174
0
LINE
8
BLACK
6
CONTINUOUS
10
39.486
20
-34.174
11
39.486
21
-32.374
0
LINE
8
BLACK
6
CONTINUOUS
10
39.486
20
-32.374
11
41.286
21
-32.374
0
LINE
8
BLACK
6
CONTINUOUS
10
41.286
20
-32.374
11
41.286
21
-34.174
0
LINE
8
BLACK
6
CONTINUOUS
10
49.922
20
-34.174
11
48.122
21
-34.174
0
LINE
8
BLACK
6
CONTINUOUS
10
48.122
20
-34.174
11
48.122
21
-32.374
0
LINE
8
BLACK
6
CONTINUOUS
10
48.122
20
-32.374
11
49.922
21
-32.374
0
LINE
8
BLACK
6
CONTINUOUS
10
49.922
20
-32.374
11
49.922
21
-34.174
0
LINE
8
BLACK
6
CONTINUOUS
10
43.1885
20
-32.4086
11
43.3523
21
-32.4764
0
LINE
8
BLACK
6
CONTINUOUS
10
43.3523
20
-32.4764
11
43.4997
21
-32.5749
0
LINE
8
BLACK
6
CONTINUOUS
10
43.4997
20
-32.5749
11
43.6251
21
-32.7003
0
LINE
8
BLACK
6
CONTINUOUS
10
43.6251
20
-32.7003
11
43.7236
21
-32.8477
0
LINE
8
BLACK
6
CONTINUOUS
10
43.7236
20
-32.8477
11
43.7914
21
-33.0115
0
LINE
8
BLACK
6
CONTINUOUS
10
43.7914
20
-33.0115
11
43.826
21
-33.1854
0
LINE
8
BLACK
6
CONTINUOUS
10
43.826
20
-33.1854
11
43.826
21
-33.3626
0
LINE
8
BLACK
6
CONTINUOUS
10
43.826
20
-33.3626
11
43.7914
21
-33.5365
0
LINE
8
BLACK
6
CONTINUOUS
10
43.7914
20
-33.5365
11
43.7236
21
-33.7003
0
LINE
8
BLACK
6
CONTINUOUS
10
43.7236
20
-33.7003
11
43.6251
21
-33.8477
0
LINE
8
BLACK
6
CONTINUOUS
10
43.6251
20
-33.8477
11
43.4997
21
-33.9731
0
LINE
8
BLACK
6
CONTINUOUS
10
43.4997
20
-33.9731
11
43.3523
21
-34.0716
0
LINE
8
BLACK
6
CONTINUOUS
10
43.3523
20
-34.0716
11
43.1885
21
-34.1394
0
LINE
8
BLACK
6
CONTINUOUS
10
43.1885
20
-34.1394
11
43.0146
21
-34.174
0
LINE
8
BLACK
6
CONTINUOUS
10
43.0146
20
-34.174
11
42.8374
21
-34.174
0
LINE
8
BLACK
6
CONTINUOUS
10
42.8374
20
-34.174
11
42.6635
21
-34.1394
0
LINE
8
BLACK
6
CONTINUOUS
10
42.6635
20
-34.1394
11
42.4997
21
-34.0716
0
LINE
8
BLACK
6
CONTINUOUS
10
42.4997
20
-34.0716
11
42.3523
21
-33.9731
0
LINE
8
BLACK
6
CONTINUOUS
10
42.3523
20
-33.9731
11
42.2269
21
-33.8477
0
LINE
8
BLACK
6
CONTINUOUS
10
42.2269
20
-33.8477
11
42.1284
21
-33.7003
0
LINE
8
BLACK
6
CONTINUOUS
10
42.1284
20
-33.7003
11
42.0606
21
-33.5365
0
LINE
8
BLACK
6
CONTINUOUS
10
42.0606
20
-33.5365
11
42.026
21
-33.3626
0
LINE
8
BLACK
6
CONTINUOUS
10
42.026
20
-33.3626
11
42.026
21
-33.1854
0
LINE
8
BLACK
6
CONTINUOUS
10
42.026
20
-33.1854
11
42.0606
21
-33.0115
0
LINE
8
BLACK
6
CONTINUOUS
10
42.0606
20
-33.0115
11
42.1284
21
-32.8477
0
LINE
8
BLACK
6
CONTINUOUS
10
42.1284
20
-32.8477
11
42.2269
21
-32.7003
0
LINE
8
BLACK
6
CONTINUOUS
10
42.2269
20
-32.7003
11
42.3523
21
-32.5749
0
LINE
8
BLACK
6
CONTINUOUS
10
42.3523
20
-32.5749
11
42.4997
21
-32.4764
0
LINE
8
BLACK
6
CONTINUOUS
10
42.4997
20
-32.4764
11
42.6635
21
-32.4086
0
LINE
8
BLACK
6
CONTINUOUS
10
42.6635
20
-32.4086
11
42.8374
21
-32.374
0
LINE
8
BLACK
6
CONTINUOUS
10
42.8374
20
-32.374
11
43.0146
21
-32.374
0
LINE
8
BLACK
6
CONTINUOUS
10
43.0146
20
-32.374
11
43.1885
21
-32.4086
0
LINE
8
BLACK
6
CONTINUOUS
10
37.5422
20
-30.3149
11
37.6696
21
-30.3677
0
LINE
8
BLACK
6
CONTINUOUS
10
37.6696
20
-30.3677
11
37.7842
21
-30.4443
0
LINE
8
BLACK
6
CONTINUOUS
10
37.7842
20
-30.4443
11
37.8817
21
-30.5418
0
LINE
8
BLACK
6
CONTINUOUS
10
37.8817
20
-30.5418
11
37.9583
21
-30.6564
0
LINE
8
BLACK
6
CONTINUOUS
10
37.9583
20
-30.6564
11
38.0111
21
-30.7838
0
LINE
8
BLACK
6
CONTINUOUS
10
38.0111
20
-30.7838
11
38.038
21
-30.9191
0
LINE
8
BLACK
6
CONTINUOUS
10
38.038
20
-30.9191
11
38.038
21
-31.0569
0
LINE
8
BLACK
6
CONTINUOUS
10
38.038
20
-31.0569
11
38.0111
21
-31.1922
0
LINE
8
BLACK
6
CONTINUOUS
10
38.0111
20
-31.1922
11
37.9583
21
-31.3196
0
LINE
8
BLACK
6
CONTINUOUS
10
37.9583
20
-31.3196
11
37.8817
21
-31.4342
0
LINE
8
BLACK
6
CONTINUOUS
10
37.8817
20
-31.4342
11
37.7842
21
-31.5317
0
LINE
8
BLACK
6
CONTINUOUS
10
37.7842
20
-31.5317
11
37.6696
21
-31.6083
0
LINE
8
BLACK
6
CONTINUOUS
10
37.6696
20
-31.6083
11
37.5422
21
-31.6611
0
LINE
8
BLACK
6
CONTINUOUS
10
37.5422
20
-31.6611
11
37.4069
21
-31.688
0
LINE
8
BLACK
6
CONTINUOUS
10
37.4069
20
-31.688
11
37.2691
21
-31.688
0
LINE
8
BLACK
6
CONTINUOUS
10
37.2691
20
-31.688
11
37.1338
21
-31.6611
0
LINE
8
BLACK
6
CONTINUOUS
10
37.1338
20
-31.6611
11
37.0064
21
-31.6083
0
LINE
8
BLACK
6
CONTINUOUS
10
37.0064
20
-31.6083
11
36.8918
21
-31.5317
0
LINE
8
BLACK
6
CONTINUOUS
10
36.8918
20
-31.5317
11
36.7943
21
-31.4342
0
LINE
8
BLACK
6
CONTINUOUS
10
36.7943
20
-31.4342
11
36.7177
21
-31.3196
0
LINE
8
BLACK
6
CONTINUOUS
10
36.7177
20
-31.3196
11
36.6649
21
-31.1922
0
LINE
8
BLACK
6
CONTINUOUS
10
36.6649
20
-31.1922
11
36.638
21
-31.0569
0
LINE
8
BLACK
6
CONTINUOUS
10
36.638
20
-31.0569
11
36.638
21
-30.9191
0
LINE
8
BLACK
6
CONTINUOUS
10
36.638
20
-30.9191
11
36.6649
21
-30.7838
0
LINE
8
BLACK
6
CONTINUOUS
10
36.6649
20
-30.7838
11
36.7177
21
-30.6564
0
LINE
8
BLACK
6
CONTINUOUS
10
36.7177
20
-30.6564
11
36.7943
21
-30.5418
0
LINE
8
BLACK
6
CONTINUOUS
10
36.7943
20
-30.5418
11
36.8918
21
-30.4443
0
LINE
8
BLACK
6
CONTINUOUS
10
36.8918
20
-30.4443
11
37.0064
21
-30.3677
0
LINE
8
BLACK
6
CONTINUOUS
10
37.0064
20
-30.3677
11
37.1338
21
-30.3149
0
LINE
8
BLACK
6
CONTINUOUS
10
37.1338
20
-30.3149
11
37.2691
21
-30.288
0
LINE
8
BLACK
6
CONTINUOUS
10
37.2691
20
-30.288
11
37.4069
21
-30.288
0
LINE
8
BLACK
6
CONTINUOUS
10
37.4069
20
-30.288
11
37.5422
21
-30.3149
0
LINE
8
BLACK
6
CONTINUOUS
10
46.1782
20
-30.3149
11
46.3056
21
-30.3677
0
LINE
8
BLACK
6
CONTINUOUS
10
46.3056
20
-30.3677
11
46.4202
21
-30.4443
0
LINE
8
BLACK
6
CONTINUOUS
10
46.4202
20
-30.4443
11
46.5177
21
-30.5418
0
LINE
8
BLACK
6
CONTINUOUS
10
46.5177
20
-30.5418
11
46.5943
21
-30.6564
0
LINE
8
BLACK
6
CONTINUOUS
10
46.5943
20
-30.6564
11
46.6471
21
-30.7838
0
LINE
8
BLACK
6
CONTINUOUS
10
46.6471
20
-30.7838
11
46.674
21
-30.9191
0
LINE
8
BLACK
6
CONTINUOUS
10
46.674
20
-30.9191
11
46.674
21
-31.0569
0
LINE
8
BLACK
6
CONTINUOUS
10
46.674
20
-31.0569
11
46.6471
21
-31.1922
0
LINE
8
BLACK
6
CONTINUOUS
10
46.6471
20
-31.1922
11
46.5943
21
-31.3196
0
LINE
8
BLACK
6
CONTINUOUS
10
46.5943
20
-31.3196
11
46.5177
21
-31.4342
0
LINE
8
BLACK
6
CONTINUOUS
10
46.5177
20
-31.4342
11
46.4202
21
-31.5317
0
LINE
8
BLACK
6
CONTINUOUS
10
46.4202
20
-31.5317
11
46.3056
21
-31.6083
0
LINE
8
BLACK
6
CONTINUOUS
10
46.3056
20
-31.6083
11
46.1782
21
-31.6611
0
LINE
8
BLACK
6
CONTINUOUS
10
46.1782
20
-31.6611
11
46.0429
21
-31.688
0
LINE
8
BLACK
6
CONTINUOUS
10
46.0429
20
-31.688
11
45.9051
21
-31.688
0
LINE
8
BLACK
6
CONTINUOUS
10
45.9051
20
-31.688
11
45.7698
21
-31.6611
0
LINE
8
BLACK
6
CONTINUOUS
10
45.7698
20
-31.6611
11
45.6424
21
-31.6083
0
LINE
8
BLACK
6
CONTINUOUS
10
45.6424
20
-31.6083
11
45.5278
21
-31.5317
0
LINE
8
BLACK
6
CONTINUOUS
10
45.5278
20
-31.5317
11
45.4303
21
-31.4342
0
LINE
8
BLACK
6
CONTINUOUS
10
45.4303
20
-31.4342
11
45.3537
21
-31.3196
0
LINE
8
BLACK
6
CONTINUOUS
10
45.3537
20
-31.3196
11
45.3009
21
-31.1922
0
LINE
8
BLACK
6
CONTINUOUS
10
45.3009
20
-31.1922
11
45.274
21
-31.0569
0
LINE
8
BLACK
6
CONTINUOUS
10
45.274
20
-31.0569
11
45.274
21
-30.9191
0
LINE
8
BLACK
6
CONTINUOUS
10
45.274
20
-30.9191
11
45.3009
21
-30.7838
0
LINE
8
BLACK
6
CONTINUOUS
10
45.3009
20
-30.7838
11
45.3537
21
-30.6564
0
LINE
8
BLACK
6
CONTINUOUS
10
45.3537
20
-30.6564
11
45.4303
21
-30.5418
0
LINE
8
BLACK
6
CONTINUOUS
10
45.4303
20
-30.5418
11
45.5278
21
-30.4443
0
LINE
8
BLACK
6
CONTINUOUS
10
45.5278
20
-30.4443
11
45.6424
21
-30.3677
0
LINE
8
BLACK
6
CONTINUOUS
10
45.6424
20
-30.3677
11
45.7698
21
-30.3149
0
LINE
8
BLACK
6
CONTINUOUS
10
45.7698
20
-30.3149
11
45.9051
21
-30.288
0
LINE
8
BLACK
6
CONTINUOUS
10
45.9051
20
-30.288
11
46.0429
21
-30.288
0
LINE
8
BLACK
6
CONTINUOUS
10
46.0429
20
-30.288
11
46.1782
21
-30.3149
0
LINE
8
BLACK
6
CONTINUOUS
10
54.8142
20
-30.3149
11
54.9416
21
-30.3677
0
LINE
8
BLACK
6
CONTINUOUS
10
54.9416
20
-30.3677
11
55.0562
21
-30.4443
0
LINE
8
BLACK
6
CONTINUOUS
10
55.0562
20
-30.4443
11
55.1537
21
-30.5418
0
LINE
8
BLACK
6
CONTINUOUS
10
55.1537
20
-30.5418
11
55.2303
21
-30.6564
0
LINE
8
BLACK
6
CONTINUOUS
10
55.2303
20
-30.6564
11
55.2831
21
-30.7838
0
LINE
8
BLACK
6
CONTINUOUS
10
55.2831
20
-30.7838
11
55.31
21
-30.9191
0
LINE
8
BLACK
6
CONTINUOUS
10
55.31
20
-30.9191
11
55.31
21
-31.0569
0
LINE
8
BLACK
6
CONTINUOUS
10
55.31
20
-31.0569
11
55.2831
21
-31.1922
0
LINE
8
BLACK
6
CONTINUOUS
10
55.2831
20
-31.1922
11
55.2303
21
-31.3196
0
LINE
8
BLACK
6
CONTINUOUS
10
55.2303
20
-31.3196
11
55.1537
21
-31.4342
0
LINE
8
BLACK
6
CONTINUOUS
10
55.1537
20
-31.4342
11
55.0562
21
-31.5317
0
LINE
8
BLACK
6
CONTINUOUS
10
55.0562
20
-31.5317
11
54.9416
21
-31.6083
0
LINE
8
BLACK
6
CONTINUOUS
10
54.9416
20
-31.6083
11
54.8142
21
-31.6611
0
LINE
8
BLACK
6
CONTINUOUS
10
54.8142
20
-31.6611
11
54.6789
21
-31.688
0
LINE
8
BLACK
6
CONTINUOUS
10
54.6789
20
-31.688
11
54.5411
21
-31.688
0
LINE
8
BLACK
6
CONTINUOUS
10
54.5411
20
-31.688
11
54.4058
21
-31.6611
0
LINE
8
BLACK
6
CONTINUOUS
10
54.4058
20
-31.6611
11
54.2784
21
-31.6083
0
LINE
8
BLACK
6
CONTINUOUS
10
54.2784
20
-31.6083
11
54.1638
21
-31.5317
0
LINE
8
BLACK
6
CONTINUOUS
10
54.1638
20
-31.5317
11
54.0663
21
-31.4342
0
LINE
8
BLACK
6
CONTINUOUS
10
54.0663
20
-31.4342
11
53.9897
21
-31.3196
0
LINE
8
BLACK
6
CONTINUOUS
10
53.9897
20
-31.3196
11
53.9369
21
-31.1922
0
LINE
8
BLACK
6
CONTINUOUS
10
53.9369
20
-31.1922
11
53.91
21
-31.0569
0
LINE
8
BLACK
6
CONTINUOUS
10
53.91
20
-31.0569
11
53.91
21
-30.9191
0
LINE
8
BLACK
6
CONTINUOUS
10
53.91
20
-30.9191
11
53.9369
21
-30.7838
0
LINE
8
BLACK
6
CONTINUOUS
10
53.9369
20
-30.7838
11
53.9897
21
-30.6564
0
LINE
8
BLACK
6
CONTINUOUS
10
53.9897
20
-30.6564
11
54.0663
21
-30.5418
0
LINE
8
BLACK
6
CONTINUOUS
10
54.0663
20
-30.5418
11
54.1638
21
-30.4443
0
LINE
8
BLACK
6
CONTINUOUS
10
54.1638
20
-30.4443
11
54.2784
21
-30.3677
0
LINE
8
BLACK
6
CONTINUOUS
10
54.2784
20
-30.3677
11
54.4058
21
-30.3149
0
LINE
8
BLACK
6
CONTINUOUS
10
54.4058
20
-30.3149
11
54.5411
21
-30.288
0
LINE
8
BLACK
6
CONTINUOUS
10
54.5411
20
-30.288
11
54.6789
21
-30.288
0
LINE
8
BLACK
6
CONTINUOUS
10
54.6789
20
-30.288
11
54.8142
21
-30.3149
0
LINE
8
BLACK
6
CONTINUOUS
10
30.8009
20
-25.8663
11
31.001
21
-25.9492
0
LINE
8
BLACK
6
CONTINUOUS
10
31.001
20
-25.9492
11
31.1812
21
-26.0696
0
LINE
8
BLACK
6
CONTINUOUS
10
31.1812
20
-26.0696
11
31.3344
21
-26.2228
0
LINE
8
BLACK
6
CONTINUOUS
10
31.3344
20
-26.2228
11
31.4548
21
-26.403
0
LINE
8
BLACK
6
CONTINUOUS
10
31.4548
20
-26.403
11
31.5377
21
-26.6031
0
LINE
8
BLACK
6
CONTINUOUS
10
31.5377
20
-26.6031
11
31.58
21
-26.8157
0
LINE
8
BLACK
6
CONTINUOUS
10
31.58
20
-26.8157
11
31.58
21
-27.0323
0
LINE
8
BLACK
6
CONTINUOUS
10
31.58
20
-27.0323
11
31.5377
21
-27.2449
0
LINE
8
BLACK
6
CONTINUOUS
10
31.5377
20
-27.2449
11
31.4548
21
-27.445
0
LINE
8
BLACK
6
CONTINUOUS
10
31.4548
20
-27.445
11
31.3344
21
-27.6252
0
LINE
8
BLACK
6
CONTINUOUS
10
31.3344
20
-27.6252
11
31.1812
21
-27.7784
0
LINE
8
BLACK
6
CONTINUOUS
10
31.1812
20
-27.7784
11
31.001
21
-27.8988
0
LINE
8
BLACK
6
CONTINUOUS
10
31.001
20
-27.8988
11
30.8009
21
-27.9817
0
LINE
8
BLACK
6
CONTINUOUS
10
30.8009
20
-27.9817
11
30.5883
21
-28.024
0
LINE
8
BLACK
6
CONTINUOUS
10
30.5883
20
-28.024
11
30.3717
21
-28.024
0
LINE
8
BLACK
6
CONTINUOUS
10
30.3717
20
-28.024
11
30.1591
21
-27.9817
0
LINE
8
BLACK
6
CONTINUOUS
10
30.1591
20
-27.9817
11
29.959
21
-27.8988
0
LINE
8
BLACK
6
CONTINUOUS
10
29.959
20
-27.8988
11
29.7788
21
-27.7784
0
LINE
8
BLACK
6
CONTINUOUS
10
29.7788
20
-27.7784
11
29.6256
21
-27.6252
0
LINE
8
BLACK
6
CONTINUOUS
10
29.6256
20
-27.6252
11
29.5052
21
-27.445
0
LINE
8
BLACK
6
CONTINUOUS
10
29.5052
20
-27.445
11
29.4223
21
-27.2449
0
LINE
8
BLACK
6
CONTINUOUS
10
29.4223
20
-27.2449
11
29.38
21
-27.0323
0
LINE
8
BLACK
6
CONTINUOUS
10
29.38
20
-27.0323
11
29.38
21
-26.8157
0
LINE
8
BLACK
6
CONTINUOUS
10
29.38
20
-26.8157
11
29.4223
21
-26.6031
0
LINE
8
BLACK
6
CONTINUOUS
10
29.4223
20
-26.6031
11
29.5052
21
-26.403
0
LINE
8
BLACK
6
CONTINUOUS
10
29.5052
20
-26.403
11
29.6256
21
-26.2228
0
LINE
8
BLACK
6
CONTINUOUS
10
29.6256
20
-26.2228
11
29.7788
21
-26.0696
0
LINE
8
BLACK
6
CONTINUOUS
10
29.7788
20
-26.0696
11
29.959
21
-25.9492
0
LINE
8
BLACK
6
CONTINUOUS
10
29.959
20
-25.9492
11
30.1591
21
-25.8663
0
LINE
8
BLACK
6
CONTINUOUS
10
30.1591
20
-25.8663
11
30.3717
21
-25.824
0
LINE
8
BLACK
6
CONTINUOUS
10
30.3717
20
-25.824
11
30.5883
21
-25.824
0
LINE
8
BLACK
6
CONTINUOUS
10
30.5883
20
-25.824
11
30.8009
21
-25.8663
0
LINE
8
BLACK
6
CONTINUOUS
10
53.4069
20
-25.8663
11
53.607
21
-25.9492
0
LINE
8
BLACK
6
CONTINUOUS
10
53.607
20
-25.9492
11
53.7872
21
-26.0696
0
LINE
8
BLACK
6
CONTINUOUS
10
53.7872
20
-26.0696
11
53.9404
21
-26.2228
0
LINE
8
BLACK
6
CONTINUOUS
10
53.9404
20
-26.2228
11
54.0608
21
-26.403
0
LINE
8
BLACK
6
CONTINUOUS
10
54.0608
20
-26.403
11
54.1437
21
-26.6031
0
LINE
8
BLACK
6
CONTINUOUS
10
54.1437
20
-26.6031
11
54.186
21
-26.8157
0
LINE
8
BLACK
6
CONTINUOUS
10
54.186
20
-26.8157
11
54.186
21
-27.0323
0
LINE
8
BLACK
6
CONTINUOUS
10
54.186
20
-27.0323
11
54.1437
21
-27.2449
0
LINE
8
BLACK
6
CONTINUOUS
10
54.1437
20
-27.2449
11
54.0608
21
-27.445
0
LINE
8
BLACK
6
CONTINUOUS
10
54.0608
20
-27.445
11
53.9404
21
-27.6252
0
LINE
8
BLACK
6
CONTINUOUS
10
53.9404
20
-27.6252
11
53.7872
21
-27.7784
0
LINE
8
BLACK
6
CONTINUOUS
10
53.7872
20
-27.7784
11
53.607
21
-27.8988
0
LINE
8
BLACK
6
CONTINUOUS
10
53.607
20
-27.8988
11
53.4069
21
-27.9817
0
LINE
8
BLACK
6
CONTINUOUS
10
53.4069
20
-27.9817
11
53.1943
21
-28.024
0
LINE
8
BLACK
6
CONTINUOUS
10
53.1943
20
-28.024
11
52.9777
21
-28.024
0
LINE
8
BLACK
6
CONTINUOUS
10
52.9777
20
-28.024
11
52.7651
21
-27.9817
0
LINE
8
BLACK
6
CONTINUOUS
10
52.7651
20
-27.9817
11
52.565
21
-27.8988
0
LINE
8
BLACK
6
CONTINUOUS
10
52.565
20
-27.8988
11
52.3848
21
-27.7784
0
LINE
8
BLACK
6
CONTINUOUS
10
52.3848
20
-27.7784
11
52.2316
21
-27.6252
0
LINE
8
BLACK
6
CONTINUOUS
10
52.2316
20
-27.6252
11
52.1112
21
-27.445
0
LINE
8
BLACK
6
CONTINUOUS
10
52.1112
20
-27.445
11
52.0283
21
-27.2449
0
LINE
8
BLACK
6
CONTINUOUS
10
52.0283
20
-27.2449
11
51.986
21
-27.0323
0
LINE
8
BLACK
6
CONTINUOUS
10
51.986
20
-27.0323
11
51.986
21
-26.8157
0
LINE
8
BLACK
6
CONTINUOUS
10
51.986
20
-26.8157
11
52.0283
21
-26.6031
0
LINE
8
BLACK
6
CONTINUOUS
10
52.0283
20
-26.6031
11
52.1112
21
-26.403
0
LINE
8
BLACK
6
CONTINUOUS
10
52.1112
20
-26.403
11
52.2316
21
-26.2228
0
LINE
8
BLACK
6
CONTINUOUS
10
52.2316
20
-26.2228
11
52.3848
21
-26.0696
0
LINE
8
BLACK
6
CONTINUOUS
10
52.3848
20
-26.0696
11
52.565
21
-25.9492
0
LINE
8
BLACK
6
CONTINUOUS
10
52.565
20
-25.9492
11
52.7651
21
-25.8663
0
LINE
8
BLACK
6
CONTINUOUS
10
52.7651
20
-25.8663
11
52.9777
21
-25.824
0
LINE
8
BLACK
6
CONTINUOUS
10
52.9777
20
-25.824
11
53.1943
21
-25.824
0
LINE
8
BLACK
6
CONTINUOUS
10
53.1943
20
-25.824
11
53.4069
21
-25.8663
  0
ENDSEC
  0
EOF
