  0
SECTION
  2
HEADER
  9
$ANGBASE
  50
0.0
  9
$ANGDIR
  70
  1
  9
$MEASUREMENT
  70
0
  0
ENDSEC
  0
SECTION
  2
TABLES
  0
TABLE
  2
LTYPE
  70
4
  0
LTYPE
  5
40F
  2
CONTINUOUS
  70
0
  3
Solid line
  72
65
  73
0
  40
0.0
  0
LTYPE
  5
410
  2
DASHDOT
 70
0
  3
Dash Dot ____ _ ____ _
 72
65
 73
4
 40
2.0
 49
1.25
 49
-0.25
 49
0.25
 49
-0.25
  0
LTYPE
  5
411
  2
DASHED
 70
0
  3
Dashed __ __ __ __ __
 72
65
 73
2
 40
0.75
 49
0.5
 49
-0.25
  0
LTYPE
  5
43B
  2
DOTTED
 70
0
  3
Dotted .  .  .  .
 72
65
 73
2
 40
0.2
 49
0.0
 49
-0.2
  0
ENDTAB
  0
TABLE
  2
STYLE
  70
4
  0
STYLE
  2
KICAD
  70
0
  40
0
  41
1
  42
1
  50
0
  71
0
  3
isocp.shx
  0
STYLE
  2
KICADB
  70
0
  40
0
  41
1
  42
1
  50
0
  71
0
  3
isocp.shx
  0
STYLE
  2
KICADI
  70
0
  40
0
  41
1
  42
1
  50
15
  71
0
  3
isocp.shx
  0
STYLE
  2
KICADBI
  70
0
  40
0
  41
1
  42
1
  50
15
  71
0
  3
isocp.shx
  0
ENDTAB
  0
TABLE
  2
LAYER
  70
30
  0
LAYER
  2
BLACK
  70
0
  62
7
  6
CONTINUOUS
  0
LAYER
  2
GRAY1
  70
0
  62
251
  6
CONTINUOUS
  0
LAYER
  2
GRAY2
  70
0
  62
8
  6
CONTINUOUS
  0
LAYER
  2
GRAY3
  70
0
  62
9
  6
CONTINUOUS
  0
LAYER
  2
WHITE
  70
0
  62
7
  6
CONTINUOUS
  0
LAYER
  2
LYELLOW
  70
0
  62
51
  6
CONTINUOUS
  0
LAYER
  2
BLUE1
  70
0
  62
178
  6
CONTINUOUS
  0
LAYER
  2
GREEN1
  70
0
  62
98
  6
CONTINUOUS
  0
LAYER
  2
CYAN1
  70
0
  62
138
  6
CONTINUOUS
  0
LAYER
  2
RED1
  70
0
  62
18
  6
CONTINUOUS
  0
LAYER
  2
MAGENTA1
  70
0
  62
228
  6
CONTINUOUS
  0
LAYER
  2
BROWN1
  70
0
  62
58
  6
CONTINUOUS
  0
LAYER
  2
BLUE2
  70
0
  62
5
  6
CONTINUOUS
  0
LAYER
  2
GREEN2
  70
0
  62
3
  6
CONTINUOUS
  0
LAYER
  2
CYAN2
  70
0
  62
4
  6
CONTINUOUS
  0
LAYER
  2
RED2
  70
0
  62
1
  6
CONTINUOUS
  0
LAYER
  2
MAGENTA2
  70
0
  62
6
  6
CONTINUOUS
  0
LAYER
  2
BROWN2
  70
0
  62
54
  6
CONTINUOUS
  0
LAYER
  2
BLUE3
  70
0
  62
171
  6
CONTINUOUS
  0
LAYER
  2
GREEN3
  70
0
  62
91
  6
CONTINUOUS
  0
LAYER
  2
CYAN3
  70
0
  62
131
  6
CONTINUOUS
  0
LAYER
  2
RED3
  70
0
  62
11
  6
CONTINUOUS
  0
LAYER
  2
MAGENTA3
  70
0
  62
221
  6
CONTINUOUS
  0
LAYER
  2
YELLOW3
  70
0
  62
2
  6
CONTINUOUS
  0
LAYER
  2
BLUE4
  70
0
  62
5
  6
CONTINUOUS
  0
LAYER
  2
GREEN4
  70
0
  62
3
  6
CONTINUOUS
  0
LAYER
  2
CYAN4
  70
0
  62
4
  6
CONTINUOUS
  0
LAYER
  2
RED4
  70
0
  62
1
  6
CONTINUOUS
  0
LAYER
  2
MAGENTA4
  70
0
  62
6
  6
CONTINUOUS
  0
LAYER
  2
YELLOW4
  70
0
  62
2
  6
CONTINUOUS
  0
ENDTAB
  0
ENDSEC
  0
SECTION
  2
ENTITIES
0
LINE
8
BLACK
6
CONTINUOUS
10
30.862
20
-43.9084
11
31.198
21
-44.1024
0
LINE
8
BLACK
6
CONTINUOUS
10
31.198
20
-44.1024
11
31.4473
21
-44.3995
0
LINE
8
BLACK
6
CONTINUOUS
10
31.4473
20
-44.3995
11
31.58
21
-44.764
0
LINE
8
BLACK
6
CONTINUOUS
10
31.58
20
-44.764
11
31.58
21
-45.152
0
LINE
8
BLACK
6
CONTINUOUS
10
31.58
20
-45.152
11
31.4473
21
-45.5165
0
LINE
8
BLACK
6
CONTINUOUS
10
31.4473
20
-45.5165
11
31.198
21
-45.8136
0
LINE
8
BLACK
6
CONTINUOUS
10
31.198
20
-45.8136
11
30.862
21
-46.0076
0
LINE
8
BLACK
6
CONTINUOUS
10
30.862
20
-46.0076
11
30.48
21
-46.075
0
LINE
8
BLACK
6
CONTINUOUS
10
30.48
20
-46.075
11
30.098
21
-46.0076
0
LINE
8
BLACK
6
CONTINUOUS
10
30.098
20
-46.0076
11
29.762
21
-45.8136
0
LINE
8
BLACK
6
CONTINUOUS
10
29.762
20
-45.8136
11
29.5127
21
-45.5165
0
LINE
8
BLACK
6
CONTINUOUS
10
29.5127
20
-45.5165
11
29.38
21
-45.152
0
LINE
8
BLACK
6
CONTINUOUS
10
29.38
20
-45.152
11
29.38
21
-44.764
0
LINE
8
BLACK
6
CONTINUOUS
10
29.38
20
-44.764
11
29.5127
21
-44.3995
0
LINE
8
BLACK
6
CONTINUOUS
10
29.5127
20
-44.3995
11
29.762
21
-44.1024
0
LINE
8
BLACK
6
CONTINUOUS
10
29.762
20
-44.1024
11
30.098
21
-43.9084
0
LINE
8
BLACK
6
CONTINUOUS
10
30.098
20
-43.9084
11
30.48
21
-43.841
0
LINE
8
BLACK
6
CONTINUOUS
10
30.48
20
-43.841
11
30.862
21
-43.9084
0
LINE
8
BLACK
6
CONTINUOUS
10
53.468
20
-43.9084
11
53.804
21
-44.1024
0
LINE
8
BLACK
6
CONTINUOUS
10
53.804
20
-44.1024
11
54.0533
21
-44.3995
0
LINE
8
BLACK
6
CONTINUOUS
10
54.0533
20
-44.3995
11
54.186
21
-44.764
0
LINE
8
BLACK
6
CONTINUOUS
10
54.186
20
-44.764
11
54.186
21
-45.152
0
LINE
8
BLACK
6
CONTINUOUS
10
54.186
20
-45.152
11
54.0533
21
-45.5165
0
LINE
8
BLACK
6
CONTINUOUS
10
54.0533
20
-45.5165
11
53.804
21
-45.8136
0
LINE
8
BLACK
6
CONTINUOUS
10
53.804
20
-45.8136
11
53.468
21
-46.0076
0
LINE
8
BLACK
6
CONTINUOUS
10
53.468
20
-46.0076
11
53.086
21
-46.075
0
LINE
8
BLACK
6
CONTINUOUS
10
53.086
20
-46.075
11
52.704
21
-46.0076
0
LINE
8
BLACK
6
CONTINUOUS
10
52.704
20
-46.0076
11
52.368
21
-45.8136
0
LINE
8
BLACK
6
CONTINUOUS
10
52.368
20
-45.8136
11
52.1187
21
-45.5165
0
LINE
8
BLACK
6
CONTINUOUS
10
52.1187
20
-45.5165
11
51.986
21
-45.152
0
LINE
8
BLACK
6
CONTINUOUS
10
51.986
20
-45.152
11
51.986
21
-44.764
0
LINE
8
BLACK
6
CONTINUOUS
10
51.986
20
-44.764
11
52.1187
21
-44.3995
0
LINE
8
BLACK
6
CONTINUOUS
10
52.1187
20
-44.3995
11
52.368
21
-44.1024
0
LINE
8
BLACK
6
CONTINUOUS
10
52.368
20
-44.1024
11
52.704
21
-43.9084
0
LINE
8
BLACK
6
CONTINUOUS
10
52.704
20
-43.9084
11
53.086
21
-43.841
0
LINE
8
BLACK
6
CONTINUOUS
10
53.086
20
-43.841
11
53.468
21
-43.9084
0
LINE
8
BLACK
6
CONTINUOUS
10
54.8531
20
-37.9401
11
55.0669
21
-38.0635
0
LINE
8
BLACK
6
CONTINUOUS
10
55.0669
20
-38.0635
11
55.2256
21
-38.2526
0
LINE
8
BLACK
6
CONTINUOUS
10
55.2256
20
-38.2526
11
55.31
21
-38.4846
0
LINE
8
BLACK
6
CONTINUOUS
10
55.31
20
-38.4846
11
55.31
21
-38.7314
0
LINE
8
BLACK
6
CONTINUOUS
10
55.31
20
-38.7314
11
55.2256
21
-38.9634
0
LINE
8
BLACK
6
CONTINUOUS
10
55.2256
20
-38.9634
11
55.0669
21
-39.1525
0
LINE
8
BLACK
6
CONTINUOUS
10
55.0669
20
-39.1525
11
54.8531
21
-39.2759
0
LINE
8
BLACK
6
CONTINUOUS
10
54.8531
20
-39.2759
11
54.6712
21
-39.308
0
LINE
8
BLACK
6
CONTINUOUS
10
54.6712
20
-39.308
11
54.6171
21
-39.308
0
LINE
8
BLACK
6
CONTINUOUS
10
54.6171
20
-39.308
11
53.201
21
-40.7241
0
LINE
8
BLACK
6
CONTINUOUS
10
53.201
20
-40.7241
11
53.1584
21
-40.7749
0
LINE
8
BLACK
6
CONTINUOUS
10
53.1584
20
-40.7749
11
53.1009
21
-40.8081
0
LINE
8
BLACK
6
CONTINUOUS
10
53.1009
20
-40.8081
11
53.0466
21
-40.8461
0
LINE
8
BLACK
6
CONTINUOUS
10
53.0466
20
-40.8461
11
53.025
21
-40.8519
0
LINE
8
BLACK
6
CONTINUOUS
10
53.025
20
-40.8519
11
53.0056
21
-40.8631
0
LINE
8
BLACK
6
CONTINUOUS
10
53.0056
20
-40.8631
11
52.9403
21
-40.8746
0
LINE
8
BLACK
6
CONTINUOUS
10
52.9403
20
-40.8746
11
52.8762
21
-40.8918
0
LINE
8
BLACK
6
CONTINUOUS
10
52.8762
20
-40.8918
11
52.8102
21
-40.886
0
LINE
8
BLACK
6
CONTINUOUS
10
52.8102
20
-40.886
11
52.2771
21
-40.886
0
LINE
8
BLACK
6
CONTINUOUS
10
52.2771
20
-40.886
11
49.391
21
-43.7721
0
LINE
8
BLACK
6
CONTINUOUS
10
49.391
20
-43.7721
11
49.3484
21
-43.8229
0
LINE
8
BLACK
6
CONTINUOUS
10
49.3484
20
-43.8229
11
49.2909
21
-43.8561
0
LINE
8
BLACK
6
CONTINUOUS
10
49.2909
20
-43.8561
11
49.2366
21
-43.8941
0
LINE
8
BLACK
6
CONTINUOUS
10
49.2366
20
-43.8941
11
49.215
21
-43.8999
0
LINE
8
BLACK
6
CONTINUOUS
10
49.215
20
-43.8999
11
49.1956
21
-43.9111
0
LINE
8
BLACK
6
CONTINUOUS
10
49.1956
20
-43.9111
11
49.1303
21
-43.9226
0
LINE
8
BLACK
6
CONTINUOUS
10
49.1303
20
-43.9226
11
49.0662
21
-43.9398
0
LINE
8
BLACK
6
CONTINUOUS
10
49.0662
20
-43.9398
11
49.0002
21
-43.934
0
LINE
8
BLACK
6
CONTINUOUS
10
49.0002
20
-43.934
11
43.7777
21
-43.934
0
LINE
8
BLACK
6
CONTINUOUS
10
43.7777
20
-43.934
11
43.7117
21
-43.9398
0
LINE
8
BLACK
6
CONTINUOUS
10
43.7117
20
-43.9398
11
43.6476
21
-43.9226
0
LINE
8
BLACK
6
CONTINUOUS
10
43.6476
20
-43.9226
11
43.5823
21
-43.9111
0
LINE
8
BLACK
6
CONTINUOUS
10
43.5823
20
-43.9111
11
43.5629
21
-43.8999
0
LINE
8
BLACK
6
CONTINUOUS
10
43.5629
20
-43.8999
11
43.5414
21
-43.8941
0
LINE
8
BLACK
6
CONTINUOUS
10
43.5414
20
-43.8941
11
43.487
21
-43.8561
0
LINE
8
BLACK
6
CONTINUOUS
10
43.487
20
-43.8561
11
43.4296
21
-43.8229
0
LINE
8
BLACK
6
CONTINUOUS
10
43.4296
20
-43.8229
11
43.3869
21
-43.7721
0
LINE
8
BLACK
6
CONTINUOUS
10
43.3869
20
-43.7721
11
42.5879
21
-42.9731
0
LINE
8
BLACK
6
CONTINUOUS
10
42.5879
20
-42.9731
11
42.5371
21
-42.9304
0
LINE
8
BLACK
6
CONTINUOUS
10
42.5371
20
-42.9304
11
42.5039
21
-42.873
0
LINE
8
BLACK
6
CONTINUOUS
10
42.5039
20
-42.873
11
42.4659
21
-42.8186
0
LINE
8
BLACK
6
CONTINUOUS
10
42.4659
20
-42.8186
11
42.4601
21
-42.7971
0
LINE
8
BLACK
6
CONTINUOUS
10
42.4601
20
-42.7971
11
42.4489
21
-42.7777
0
LINE
8
BLACK
6
CONTINUOUS
10
42.4489
20
-42.7777
11
42.4374
21
-42.7124
0
LINE
8
BLACK
6
CONTINUOUS
10
42.4374
20
-42.7124
11
42.4202
21
-42.6483
0
LINE
8
BLACK
6
CONTINUOUS
10
42.4202
20
-42.6483
11
42.426
21
-42.5822
0
LINE
8
BLACK
6
CONTINUOUS
10
42.426
20
-42.5822
11
42.426
21
-42.0948
0
LINE
8
BLACK
6
CONTINUOUS
10
42.426
20
-42.0948
11
42.3712
21
-42.0632
0
LINE
8
BLACK
6
CONTINUOUS
10
42.3712
20
-42.0632
11
42.1785
21
-41.8336
0
LINE
8
BLACK
6
CONTINUOUS
10
42.1785
20
-41.8336
11
42.076
21
-41.5519
0
LINE
8
BLACK
6
CONTINUOUS
10
42.076
20
-41.5519
11
42.076
21
-41.2521
0
LINE
8
BLACK
6
CONTINUOUS
10
42.076
20
-41.2521
11
42.1785
21
-40.9704
0
LINE
8
BLACK
6
CONTINUOUS
10
42.1785
20
-40.9704
11
42.3712
21
-40.7408
0
LINE
8
BLACK
6
CONTINUOUS
10
42.3712
20
-40.7408
11
42.6308
21
-40.5909
0
LINE
8
BLACK
6
CONTINUOUS
10
42.6308
20
-40.5909
11
42.8516
21
-40.552
0
LINE
8
BLACK
6
CONTINUOUS
10
42.8516
20
-40.552
11
43.0004
21
-40.552
0
LINE
8
BLACK
6
CONTINUOUS
10
43.0004
20
-40.552
11
43.2212
21
-40.5909
0
LINE
8
BLACK
6
CONTINUOUS
10
43.2212
20
-40.5909
11
43.4808
21
-40.7408
0
LINE
8
BLACK
6
CONTINUOUS
10
43.4808
20
-40.7408
11
43.6735
21
-40.9704
0
LINE
8
BLACK
6
CONTINUOUS
10
43.6735
20
-40.9704
11
43.776
21
-41.2521
0
LINE
8
BLACK
6
CONTINUOUS
10
43.776
20
-41.2521
11
43.776
21
-41.5519
0
LINE
8
BLACK
6
CONTINUOUS
10
43.776
20
-41.5519
11
43.6735
21
-41.8336
0
LINE
8
BLACK
6
CONTINUOUS
10
43.6735
20
-41.8336
11
43.4808
21
-42.0632
0
LINE
8
BLACK
6
CONTINUOUS
10
43.4808
20
-42.0632
11
43.426
21
-42.0948
0
LINE
8
BLACK
6
CONTINUOUS
10
43.426
20
-42.0948
11
43.426
21
-42.397
0
LINE
8
BLACK
6
CONTINUOUS
10
43.426
20
-42.397
11
43.963
21
-42.934
0
LINE
8
BLACK
6
CONTINUOUS
10
43.963
20
-42.934
11
48.8149
21
-42.934
0
LINE
8
BLACK
6
CONTINUOUS
10
48.8149
20
-42.934
11
51.701
21
-40.0479
0
LINE
8
BLACK
6
CONTINUOUS
10
51.701
20
-40.0479
11
51.7436
21
-39.9971
0
LINE
8
BLACK
6
CONTINUOUS
10
51.7436
20
-39.9971
11
51.8011
21
-39.9639
0
LINE
8
BLACK
6
CONTINUOUS
10
51.8011
20
-39.9639
11
51.8554
21
-39.9259
0
LINE
8
BLACK
6
CONTINUOUS
10
51.8554
20
-39.9259
11
51.877
21
-39.9201
0
LINE
8
BLACK
6
CONTINUOUS
10
51.877
20
-39.9201
11
51.8964
21
-39.9089
0
LINE
8
BLACK
6
CONTINUOUS
10
51.8964
20
-39.9089
11
51.9617
21
-39.8974
0
LINE
8
BLACK
6
CONTINUOUS
10
51.9617
20
-39.8974
11
52.0257
21
-39.8802
0
LINE
8
BLACK
6
CONTINUOUS
10
52.0257
20
-39.8802
11
52.0918
21
-39.886
0
LINE
8
BLACK
6
CONTINUOUS
10
52.0918
20
-39.886
11
52.6249
21
-39.886
0
LINE
8
BLACK
6
CONTINUOUS
10
52.6249
20
-39.886
11
53.91
21
-38.6009
0
LINE
8
BLACK
6
CONTINUOUS
10
53.91
20
-38.6009
11
53.91
21
-38.4846
0
LINE
8
BLACK
6
CONTINUOUS
10
53.91
20
-38.4846
11
53.9944
21
-38.2526
0
LINE
8
BLACK
6
CONTINUOUS
10
53.9944
20
-38.2526
11
54.1531
21
-38.0635
0
LINE
8
BLACK
6
CONTINUOUS
10
54.1531
20
-38.0635
11
54.3669
21
-37.9401
0
LINE
8
BLACK
6
CONTINUOUS
10
54.3669
20
-37.9401
11
54.5488
21
-37.908
0
LINE
8
BLACK
6
CONTINUOUS
10
54.5488
20
-37.908
11
54.6712
21
-37.908
0
LINE
8
BLACK
6
CONTINUOUS
10
54.6712
20
-37.908
11
54.8531
21
-37.9401
0
LINE
8
BLACK
6
CONTINUOUS
10
32.65
20
-34.174
11
32.25
21
-34.174
0
LINE
8
BLACK
6
CONTINUOUS
10
32.25
20
-34.174
11
32.25
21
-34.9669
0
LINE
8
BLACK
6
CONTINUOUS
10
32.25
20
-34.9669
11
32.5971
21
-35.314
0
LINE
8
BLACK
6
CONTINUOUS
10
32.5971
20
-35.314
11
35.3529
21
-35.314
0
LINE
8
BLACK
6
CONTINUOUS
10
35.3529
20
-35.314
11
37.731
21
-32.9359
0
LINE
8
BLACK
6
CONTINUOUS
10
37.731
20
-32.9359
11
37.7736
21
-32.8851
0
LINE
8
BLACK
6
CONTINUOUS
10
37.7736
20
-32.8851
11
37.8311
21
-32.8519
0
LINE
8
BLACK
6
CONTINUOUS
10
37.8311
20
-32.8519
11
37.8854
21
-32.8139
0
LINE
8
BLACK
6
CONTINUOUS
10
37.8854
20
-32.8139
11
37.907
21
-32.8081
0
LINE
8
BLACK
6
CONTINUOUS
10
37.907
20
-32.8081
11
37.9264
21
-32.7969
0
LINE
8
BLACK
6
CONTINUOUS
10
37.9264
20
-32.7969
11
37.9917
21
-32.7854
0
LINE
8
BLACK
6
CONTINUOUS
10
37.9917
20
-32.7854
11
38.0557
21
-32.7682
0
LINE
8
BLACK
6
CONTINUOUS
10
38.0557
20
-32.7682
11
38.1218
21
-32.774
0
LINE
8
BLACK
6
CONTINUOUS
10
38.1218
20
-32.774
11
39.486
21
-32.774
0
LINE
8
BLACK
6
CONTINUOUS
10
39.486
20
-32.774
11
39.486
21
-32.374
0
LINE
8
BLACK
6
CONTINUOUS
10
39.486
20
-32.374
11
41.286
21
-32.374
0
LINE
8
BLACK
6
CONTINUOUS
10
41.286
20
-32.374
11
41.286
21
-34.174
0
LINE
8
BLACK
6
CONTINUOUS
10
41.286
20
-34.174
11
40.886
21
-34.174
0
LINE
8
BLACK
6
CONTINUOUS
10
40.886
20
-34.174
11
40.886
21
-34.9669
0
LINE
8
BLACK
6
CONTINUOUS
10
40.886
20
-34.9669
11
41.2331
21
-35.314
0
LINE
8
BLACK
6
CONTINUOUS
10
41.2331
20
-35.314
11
43.9889
21
-35.314
0
LINE
8
BLACK
6
CONTINUOUS
10
43.9889
20
-35.314
11
46.367
21
-32.9359
0
LINE
8
BLACK
6
CONTINUOUS
10
46.367
20
-32.9359
11
46.4096
21
-32.8851
0
LINE
8
BLACK
6
CONTINUOUS
10
46.4096
20
-32.8851
11
46.4671
21
-32.8519
0
LINE
8
BLACK
6
CONTINUOUS
10
46.4671
20
-32.8519
11
46.5214
21
-32.8139
0
LINE
8
BLACK
6
CONTINUOUS
10
46.5214
20
-32.8139
11
46.543
21
-32.8081
0
LINE
8
BLACK
6
CONTINUOUS
10
46.543
20
-32.8081
11
46.5624
21
-32.7969
0
LINE
8
BLACK
6
CONTINUOUS
10
46.5624
20
-32.7969
11
46.6277
21
-32.7854
0
LINE
8
BLACK
6
CONTINUOUS
10
46.6277
20
-32.7854
11
46.6917
21
-32.7682
0
LINE
8
BLACK
6
CONTINUOUS
10
46.6917
20
-32.7682
11
46.7578
21
-32.774
0
LINE
8
BLACK
6
CONTINUOUS
10
46.7578
20
-32.774
11
48.122
21
-32.774
0
LINE
8
BLACK
6
CONTINUOUS
10
48.122
20
-32.774
11
48.122
21
-32.374
0
LINE
8
BLACK
6
CONTINUOUS
10
48.122
20
-32.374
11
49.922
21
-32.374
0
LINE
8
BLACK
6
CONTINUOUS
10
49.922
20
-32.374
11
49.922
21
-34.174
0
LINE
8
BLACK
6
CONTINUOUS
10
49.922
20
-34.174
11
49.522
21
-34.174
0
LINE
8
BLACK
6
CONTINUOUS
10
49.522
20
-34.174
11
49.522
21
-40.1102
0
LINE
8
BLACK
6
CONTINUOUS
10
49.522
20
-40.1102
11
49.5278
21
-40.1763
0
LINE
8
BLACK
6
CONTINUOUS
10
49.5278
20
-40.1763
11
49.5106
21
-40.2403
0
LINE
8
BLACK
6
CONTINUOUS
10
49.5106
20
-40.2403
11
49.4991
21
-40.3056
0
LINE
8
BLACK
6
CONTINUOUS
10
49.4991
20
-40.3056
11
49.4879
21
-40.325
0
LINE
8
BLACK
6
CONTINUOUS
10
49.4879
20
-40.325
11
49.4821
21
-40.3466
0
LINE
8
BLACK
6
CONTINUOUS
10
49.4821
20
-40.3466
11
49.4441
21
-40.4009
0
LINE
8
BLACK
6
CONTINUOUS
10
49.4441
20
-40.4009
11
49.4109
21
-40.4584
0
LINE
8
BLACK
6
CONTINUOUS
10
49.4109
20
-40.4584
11
49.3601
21
-40.501
0
LINE
8
BLACK
6
CONTINUOUS
10
49.3601
20
-40.501
11
48.121
21
-41.7401
0
LINE
8
BLACK
6
CONTINUOUS
10
48.121
20
-41.7401
11
48.0784
21
-41.7909
0
LINE
8
BLACK
6
CONTINUOUS
10
48.0784
20
-41.7909
11
48.0209
21
-41.8241
0
LINE
8
BLACK
6
CONTINUOUS
10
48.0209
20
-41.8241
11
47.9666
21
-41.8621
0
LINE
8
BLACK
6
CONTINUOUS
10
47.9666
20
-41.8621
11
47.945
21
-41.8679
0
LINE
8
BLACK
6
CONTINUOUS
10
47.945
20
-41.8679
11
47.9256
21
-41.8791
0
LINE
8
BLACK
6
CONTINUOUS
10
47.9256
20
-41.8791
11
47.8603
21
-41.8906
0
LINE
8
BLACK
6
CONTINUOUS
10
47.8603
20
-41.8906
11
47.7963
21
-41.9078
0
LINE
8
BLACK
6
CONTINUOUS
10
47.7963
20
-41.9078
11
47.7302
21
-41.902
0
LINE
8
BLACK
6
CONTINUOUS
10
47.7302
20
-41.902
11
46.156
21
-41.902
0
LINE
8
BLACK
6
CONTINUOUS
10
46.156
20
-41.902
11
46.0208
21
-42.0632
0
LINE
8
BLACK
6
CONTINUOUS
10
46.0208
20
-42.0632
11
45.7612
21
-42.2131
0
LINE
8
BLACK
6
CONTINUOUS
10
45.7612
20
-42.2131
11
45.5404
21
-42.252
0
LINE
8
BLACK
6
CONTINUOUS
10
45.5404
20
-42.252
11
45.3916
21
-42.252
0
LINE
8
BLACK
6
CONTINUOUS
10
45.3916
20
-42.252
11
45.1708
21
-42.2131
0
LINE
8
BLACK
6
CONTINUOUS
10
45.1708
20
-42.2131
11
44.9112
21
-42.0632
0
LINE
8
BLACK
6
CONTINUOUS
10
44.9112
20
-42.0632
11
44.7185
21
-41.8336
0
LINE
8
BLACK
6
CONTINUOUS
10
44.7185
20
-41.8336
11
44.616
21
-41.5519
0
LINE
8
BLACK
6
CONTINUOUS
10
44.616
20
-41.5519
11
44.616
21
-41.2521
0
LINE
8
BLACK
6
CONTINUOUS
10
44.616
20
-41.2521
11
44.7185
21
-40.9704
0
LINE
8
BLACK
6
CONTINUOUS
10
44.7185
20
-40.9704
11
44.9112
21
-40.7408
0
LINE
8
BLACK
6
CONTINUOUS
10
44.9112
20
-40.7408
11
45.1708
21
-40.5909
0
LINE
8
BLACK
6
CONTINUOUS
10
45.1708
20
-40.5909
11
45.3916
21
-40.552
0
LINE
8
BLACK
6
CONTINUOUS
10
45.3916
20
-40.552
11
45.5404
21
-40.552
0
LINE
8
BLACK
6
CONTINUOUS
10
45.5404
20
-40.552
11
45.7612
21
-40.5909
0
LINE
8
BLACK
6
CONTINUOUS
10
45.7612
20
-40.5909
11
46.0208
21
-40.7408
0
LINE
8
BLACK
6
CONTINUOUS
10
46.0208
20
-40.7408
11
46.156
21
-40.902
0
LINE
8
BLACK
6
CONTINUOUS
10
46.156
20
-40.902
11
47.5449
21
-40.902
0
LINE
8
BLACK
6
CONTINUOUS
10
47.5449
20
-40.902
11
48.522
21
-39.9249
0
LINE
8
BLACK
6
CONTINUOUS
10
48.522
20
-39.9249
11
48.522
21
-34.174
0
LINE
8
BLACK
6
CONTINUOUS
10
48.522
20
-34.174
11
48.122
21
-34.174
0
LINE
8
BLACK
6
CONTINUOUS
10
48.122
20
-34.174
11
48.122
21
-33.774
0
LINE
8
BLACK
6
CONTINUOUS
10
48.122
20
-33.774
11
46.9431
21
-33.774
0
LINE
8
BLACK
6
CONTINUOUS
10
46.9431
20
-33.774
11
44.565
21
-36.1521
0
LINE
8
BLACK
6
CONTINUOUS
10
44.565
20
-36.1521
11
44.5224
21
-36.2029
0
LINE
8
BLACK
6
CONTINUOUS
10
44.5224
20
-36.2029
11
44.4649
21
-36.2361
0
LINE
8
BLACK
6
CONTINUOUS
10
44.4649
20
-36.2361
11
44.4106
21
-36.2741
0
LINE
8
BLACK
6
CONTINUOUS
10
44.4106
20
-36.2741
11
44.389
21
-36.2799
0
LINE
8
BLACK
6
CONTINUOUS
10
44.389
20
-36.2799
11
44.3696
21
-36.2911
0
LINE
8
BLACK
6
CONTINUOUS
10
44.3696
20
-36.2911
11
44.3043
21
-36.3026
0
LINE
8
BLACK
6
CONTINUOUS
10
44.3043
20
-36.3026
11
44.2402
21
-36.3198
0
LINE
8
BLACK
6
CONTINUOUS
10
44.2402
20
-36.3198
11
44.1742
21
-36.314
0
LINE
8
BLACK
6
CONTINUOUS
10
44.1742
20
-36.314
11
41.0478
21
-36.314
0
LINE
8
BLACK
6
CONTINUOUS
10
41.0478
20
-36.314
11
40.9817
21
-36.3198
0
LINE
8
BLACK
6
CONTINUOUS
10
40.9817
20
-36.3198
11
40.9177
21
-36.3026
0
LINE
8
BLACK
6
CONTINUOUS
10
40.9177
20
-36.3026
11
40.8524
21
-36.2911
0
LINE
8
BLACK
6
CONTINUOUS
10
40.8524
20
-36.2911
11
40.833
21
-36.2799
0
LINE
8
BLACK
6
CONTINUOUS
10
40.833
20
-36.2799
11
40.8114
21
-36.2741
0
LINE
8
BLACK
6
CONTINUOUS
10
40.8114
20
-36.2741
11
40.7571
21
-36.2361
0
LINE
8
BLACK
6
CONTINUOUS
10
40.7571
20
-36.2361
11
40.6996
21
-36.2029
0
LINE
8
BLACK
6
CONTINUOUS
10
40.6996
20
-36.2029
11
40.657
21
-36.1521
0
LINE
8
BLACK
6
CONTINUOUS
10
40.657
20
-36.1521
11
40.0479
21
-35.543
0
LINE
8
BLACK
6
CONTINUOUS
10
40.0479
20
-35.543
11
39.9971
21
-35.5004
0
LINE
8
BLACK
6
CONTINUOUS
10
39.9971
20
-35.5004
11
39.9639
21
-35.4429
0
LINE
8
BLACK
6
CONTINUOUS
10
39.9639
20
-35.4429
11
39.9259
21
-35.3886
0
LINE
8
BLACK
6
CONTINUOUS
10
39.9259
20
-35.3886
11
39.9201
21
-35.367
0
LINE
8
BLACK
6
CONTINUOUS
10
39.9201
20
-35.367
11
39.9089
21
-35.3476
0
LINE
8
BLACK
6
CONTINUOUS
10
39.9089
20
-35.3476
11
39.8974
21
-35.2823
0
LINE
8
BLACK
6
CONTINUOUS
10
39.8974
20
-35.2823
11
39.8802
21
-35.2182
0
LINE
8
BLACK
6
CONTINUOUS
10
39.8802
20
-35.2182
11
39.886
21
-35.1522
0
LINE
8
BLACK
6
CONTINUOUS
10
39.886
20
-35.1522
11
39.886
21
-34.174
0
LINE
8
BLACK
6
CONTINUOUS
10
39.886
20
-34.174
11
39.486
21
-34.174
0
LINE
8
BLACK
6
CONTINUOUS
10
39.486
20
-34.174
11
39.486
21
-33.774
0
LINE
8
BLACK
6
CONTINUOUS
10
39.486
20
-33.774
11
38.3071
21
-33.774
0
LINE
8
BLACK
6
CONTINUOUS
10
38.3071
20
-33.774
11
35.929
21
-36.1521
0
LINE
8
BLACK
6
CONTINUOUS
10
35.929
20
-36.1521
11
35.8864
21
-36.2029
0
LINE
8
BLACK
6
CONTINUOUS
10
35.8864
20
-36.2029
11
35.8289
21
-36.2361
0
LINE
8
BLACK
6
CONTINUOUS
10
35.8289
20
-36.2361
11
35.7746
21
-36.2741
0
LINE
8
BLACK
6
CONTINUOUS
10
35.7746
20
-36.2741
11
35.753
21
-36.2799
0
LINE
8
BLACK
6
CONTINUOUS
10
35.753
20
-36.2799
11
35.7336
21
-36.2911
0
LINE
8
BLACK
6
CONTINUOUS
10
35.7336
20
-36.2911
11
35.6683
21
-36.3026
0
LINE
8
BLACK
6
CONTINUOUS
10
35.6683
20
-36.3026
11
35.6043
21
-36.3198
0
LINE
8
BLACK
6
CONTINUOUS
10
35.6043
20
-36.3198
11
35.5382
21
-36.314
0
LINE
8
BLACK
6
CONTINUOUS
10
35.5382
20
-36.314
11
32.4118
21
-36.314
0
LINE
8
BLACK
6
CONTINUOUS
10
32.4118
20
-36.314
11
32.3457
21
-36.3198
0
LINE
8
BLACK
6
CONTINUOUS
10
32.3457
20
-36.3198
11
32.2817
21
-36.3026
0
LINE
8
BLACK
6
CONTINUOUS
10
32.2817
20
-36.3026
11
32.2164
21
-36.2911
0
LINE
8
BLACK
6
CONTINUOUS
10
32.2164
20
-36.2911
11
32.197
21
-36.2799
0
LINE
8
BLACK
6
CONTINUOUS
10
32.197
20
-36.2799
11
32.1754
21
-36.2741
0
LINE
8
BLACK
6
CONTINUOUS
10
32.1754
20
-36.2741
11
32.1211
21
-36.2361
0
LINE
8
BLACK
6
CONTINUOUS
10
32.1211
20
-36.2361
11
32.0636
21
-36.2029
0
LINE
8
BLACK
6
CONTINUOUS
10
32.0636
20
-36.2029
11
32.021
21
-36.1521
0
LINE
8
BLACK
6
CONTINUOUS
10
32.021
20
-36.1521
11
31.4119
21
-35.543
0
LINE
8
BLACK
6
CONTINUOUS
10
31.4119
20
-35.543
11
31.3611
21
-35.5004
0
LINE
8
BLACK
6
CONTINUOUS
10
31.3611
20
-35.5004
11
31.3279
21
-35.4429
0
LINE
8
BLACK
6
CONTINUOUS
10
31.3279
20
-35.4429
11
31.2899
21
-35.3886
0
LINE
8
BLACK
6
CONTINUOUS
10
31.2899
20
-35.3886
11
31.2841
21
-35.367
0
LINE
8
BLACK
6
CONTINUOUS
10
31.2841
20
-35.367
11
31.2729
21
-35.3476
0
LINE
8
BLACK
6
CONTINUOUS
10
31.2729
20
-35.3476
11
31.2614
21
-35.2823
0
LINE
8
BLACK
6
CONTINUOUS
10
31.2614
20
-35.2823
11
31.2442
21
-35.2182
0
LINE
8
BLACK
6
CONTINUOUS
10
31.2442
20
-35.2182
11
31.25
21
-35.1522
0
LINE
8
BLACK
6
CONTINUOUS
10
31.25
20
-35.1522
11
31.25
21
-34.174
0
LINE
8
BLACK
6
CONTINUOUS
10
31.25
20
-34.174
11
30.85
21
-34.174
0
LINE
8
BLACK
6
CONTINUOUS
10
30.85
20
-34.174
11
30.85
21
-32.374
0
LINE
8
BLACK
6
CONTINUOUS
10
30.85
20
-32.374
11
32.65
21
-32.374
0
LINE
8
BLACK
6
CONTINUOUS
10
32.65
20
-32.374
11
32.65
21
-34.174
0
LINE
8
BLACK
6
CONTINUOUS
10
46.2171
20
-37.9401
11
46.4309
21
-38.0635
0
LINE
8
BLACK
6
CONTINUOUS
10
46.4309
20
-38.0635
11
46.5896
21
-38.2526
0
LINE
8
BLACK
6
CONTINUOUS
10
46.5896
20
-38.2526
11
46.674
21
-38.4846
0
LINE
8
BLACK
6
CONTINUOUS
10
46.674
20
-38.4846
11
46.674
21
-38.7314
0
LINE
8
BLACK
6
CONTINUOUS
10
46.674
20
-38.7314
11
46.5896
21
-38.9634
0
LINE
8
BLACK
6
CONTINUOUS
10
46.5896
20
-38.9634
11
46.4309
21
-39.1525
0
LINE
8
BLACK
6
CONTINUOUS
10
46.4309
20
-39.1525
11
46.2171
21
-39.2759
0
LINE
8
BLACK
6
CONTINUOUS
10
46.2171
20
-39.2759
11
46.0352
21
-39.308
0
LINE
8
BLACK
6
CONTINUOUS
10
46.0352
20
-39.308
11
45.9128
21
-39.308
0
LINE
8
BLACK
6
CONTINUOUS
10
45.9128
20
-39.308
11
45.7309
21
-39.2759
0
LINE
8
BLACK
6
CONTINUOUS
10
45.7309
20
-39.2759
11
45.5171
21
-39.1525
0
LINE
8
BLACK
6
CONTINUOUS
10
45.5171
20
-39.1525
11
45.4798
21
-39.108
0
LINE
8
BLACK
6
CONTINUOUS
10
45.4798
20
-39.108
11
43.3871
21
-39.108
0
LINE
8
BLACK
6
CONTINUOUS
10
43.3871
20
-39.108
11
41.236
21
-41.2591
0
LINE
8
BLACK
6
CONTINUOUS
10
41.236
20
-41.2591
11
41.236
21
-41.5519
0
LINE
8
BLACK
6
CONTINUOUS
10
41.236
20
-41.5519
11
41.1335
21
-41.8336
0
LINE
8
BLACK
6
CONTINUOUS
10
41.1335
20
-41.8336
11
40.9408
21
-42.0632
0
LINE
8
BLACK
6
CONTINUOUS
10
40.9408
20
-42.0632
11
40.6812
21
-42.2131
0
LINE
8
BLACK
6
CONTINUOUS
10
40.6812
20
-42.2131
11
40.4604
21
-42.252
0
LINE
8
BLACK
6
CONTINUOUS
10
40.4604
20
-42.252
11
40.3116
21
-42.252
0
LINE
8
BLACK
6
CONTINUOUS
10
40.3116
20
-42.252
11
40.0908
21
-42.2131
0
LINE
8
BLACK
6
CONTINUOUS
10
40.0908
20
-42.2131
11
39.8312
21
-42.0632
0
LINE
8
BLACK
6
CONTINUOUS
10
39.8312
20
-42.0632
11
39.6385
21
-41.8336
0
LINE
8
BLACK
6
CONTINUOUS
10
39.6385
20
-41.8336
11
39.536
21
-41.5519
0
LINE
8
BLACK
6
CONTINUOUS
10
39.536
20
-41.5519
11
39.536
21
-41.2521
0
LINE
8
BLACK
6
CONTINUOUS
10
39.536
20
-41.2521
11
39.6385
21
-40.9704
0
LINE
8
BLACK
6
CONTINUOUS
10
39.6385
20
-40.9704
11
39.8312
21
-40.7408
0
LINE
8
BLACK
6
CONTINUOUS
10
39.8312
20
-40.7408
11
40.0908
21
-40.5909
0
LINE
8
BLACK
6
CONTINUOUS
10
40.0908
20
-40.5909
11
40.3116
21
-40.552
0
LINE
8
BLACK
6
CONTINUOUS
10
40.3116
20
-40.552
11
40.4604
21
-40.552
0
LINE
8
BLACK
6
CONTINUOUS
10
40.4604
20
-40.552
11
40.5186
21
-40.5623
0
LINE
8
BLACK
6
CONTINUOUS
10
40.5186
20
-40.5623
11
42.811
21
-38.2699
0
LINE
8
BLACK
6
CONTINUOUS
10
42.811
20
-38.2699
11
42.8536
21
-38.2191
0
LINE
8
BLACK
6
CONTINUOUS
10
42.8536
20
-38.2191
11
42.9111
21
-38.1859
0
LINE
8
BLACK
6
CONTINUOUS
10
42.9111
20
-38.1859
11
42.9654
21
-38.1479
0
LINE
8
BLACK
6
CONTINUOUS
10
42.9654
20
-38.1479
11
42.987
21
-38.1421
0
LINE
8
BLACK
6
CONTINUOUS
10
42.987
20
-38.1421
11
43.0064
21
-38.1309
0
LINE
8
BLACK
6
CONTINUOUS
10
43.0064
20
-38.1309
11
43.0717
21
-38.1194
0
LINE
8
BLACK
6
CONTINUOUS
10
43.0717
20
-38.1194
11
43.1358
21
-38.1022
0
LINE
8
BLACK
6
CONTINUOUS
10
43.1358
20
-38.1022
11
43.2018
21
-38.108
0
LINE
8
BLACK
6
CONTINUOUS
10
43.2018
20
-38.108
11
45.4798
21
-38.108
0
LINE
8
BLACK
6
CONTINUOUS
10
45.4798
20
-38.108
11
45.5171
21
-38.0635
0
LINE
8
BLACK
6
CONTINUOUS
10
45.5171
20
-38.0635
11
45.7309
21
-37.9401
0
LINE
8
BLACK
6
CONTINUOUS
10
45.7309
20
-37.9401
11
45.9128
21
-37.908
0
LINE
8
BLACK
6
CONTINUOUS
10
45.9128
20
-37.908
11
46.0352
21
-37.908
0
LINE
8
BLACK
6
CONTINUOUS
10
46.0352
20
-37.908
11
46.2171
21
-37.9401
0
LINE
8
BLACK
6
CONTINUOUS
10
37.5811
20
-37.9401
11
37.7949
21
-38.0635
0
LINE
8
BLACK
6
CONTINUOUS
10
37.7949
20
-38.0635
11
37.9536
21
-38.2526
0
LINE
8
BLACK
6
CONTINUOUS
10
37.9536
20
-38.2526
11
38.038
21
-38.4846
0
LINE
8
BLACK
6
CONTINUOUS
10
38.038
20
-38.4846
11
38.038
21
-38.7314
0
LINE
8
BLACK
6
CONTINUOUS
10
38.038
20
-38.7314
11
37.9536
21
-38.9634
0
LINE
8
BLACK
6
CONTINUOUS
10
37.9536
20
-38.9634
11
37.838
21
-39.1011
0
LINE
8
BLACK
6
CONTINUOUS
10
37.838
20
-39.1011
11
37.838
21
-40.552
0
LINE
8
BLACK
6
CONTINUOUS
10
37.838
20
-40.552
11
38.696
21
-40.552
0
LINE
8
BLACK
6
CONTINUOUS
10
38.696
20
-40.552
11
38.696
21
-42.252
0
LINE
8
BLACK
6
CONTINUOUS
10
38.696
20
-42.252
11
36.996
21
-42.252
0
LINE
8
BLACK
6
CONTINUOUS
10
36.996
20
-42.252
11
36.996
21
-41.2597
0
LINE
8
BLACK
6
CONTINUOUS
10
36.996
20
-41.2597
11
36.9491
21
-41.2204
0
LINE
8
BLACK
6
CONTINUOUS
10
36.9491
20
-41.2204
11
36.9159
21
-41.1629
0
LINE
8
BLACK
6
CONTINUOUS
10
36.9159
20
-41.1629
11
36.8779
21
-41.1086
0
LINE
8
BLACK
6
CONTINUOUS
10
36.8779
20
-41.1086
11
36.8721
21
-41.087
0
LINE
8
BLACK
6
CONTINUOUS
10
36.8721
20
-41.087
11
36.8609
21
-41.0676
0
LINE
8
BLACK
6
CONTINUOUS
10
36.8609
20
-41.0676
11
36.8494
21
-41.0023
0
LINE
8
BLACK
6
CONTINUOUS
10
36.8494
20
-41.0023
11
36.8322
21
-40.9382
0
LINE
8
BLACK
6
CONTINUOUS
10
36.8322
20
-40.9382
11
36.838
21
-40.8722
0
LINE
8
BLACK
6
CONTINUOUS
10
36.838
20
-40.8722
11
36.838
21
-39.1011
0
LINE
8
BLACK
6
CONTINUOUS
10
36.838
20
-39.1011
11
36.7224
21
-38.9634
0
LINE
8
BLACK
6
CONTINUOUS
10
36.7224
20
-38.9634
11
36.638
21
-38.7314
0
LINE
8
BLACK
6
CONTINUOUS
10
36.638
20
-38.7314
11
36.638
21
-38.4846
0
LINE
8
BLACK
6
CONTINUOUS
10
36.638
20
-38.4846
11
36.7224
21
-38.2526
0
LINE
8
BLACK
6
CONTINUOUS
10
36.7224
20
-38.2526
11
36.8811
21
-38.0635
0
LINE
8
BLACK
6
CONTINUOUS
10
36.8811
20
-38.0635
11
37.0949
21
-37.9401
0
LINE
8
BLACK
6
CONTINUOUS
10
37.0949
20
-37.9401
11
37.2768
21
-37.908
0
LINE
8
BLACK
6
CONTINUOUS
10
37.2768
20
-37.908
11
37.3992
21
-37.908
0
LINE
8
BLACK
6
CONTINUOUS
10
37.3992
20
-37.908
11
37.5811
21
-37.9401
0
LINE
8
BLACK
6
CONTINUOUS
10
54.8531
20
-30.3201
11
55.0669
21
-30.4435
0
LINE
8
BLACK
6
CONTINUOUS
10
55.0669
20
-30.4435
11
55.2256
21
-30.6326
0
LINE
8
BLACK
6
CONTINUOUS
10
55.2256
20
-30.6326
11
55.31
21
-30.8646
0
LINE
8
BLACK
6
CONTINUOUS
10
55.31
20
-30.8646
11
55.31
21
-31.1114
0
LINE
8
BLACK
6
CONTINUOUS
10
55.31
20
-31.1114
11
55.2256
21
-31.3434
0
LINE
8
BLACK
6
CONTINUOUS
10
55.2256
20
-31.3434
11
55.0669
21
-31.5325
0
LINE
8
BLACK
6
CONTINUOUS
10
55.0669
20
-31.5325
11
54.8531
21
-31.6559
0
LINE
8
BLACK
6
CONTINUOUS
10
54.8531
20
-31.6559
11
54.61
21
-31.6988
0
LINE
8
BLACK
6
CONTINUOUS
10
54.61
20
-31.6988
11
54.3669
21
-31.6559
0
LINE
8
BLACK
6
CONTINUOUS
10
54.3669
20
-31.6559
11
54.1531
21
-31.5325
0
LINE
8
BLACK
6
CONTINUOUS
10
54.1531
20
-31.5325
11
54.1158
21
-31.488
0
LINE
8
BLACK
6
CONTINUOUS
10
54.1158
20
-31.488
11
54.0551
21
-31.488
0
LINE
8
BLACK
6
CONTINUOUS
10
54.0551
20
-31.488
11
52.4529
21
-33.0902
0
LINE
8
BLACK
6
CONTINUOUS
10
52.4529
20
-33.0902
11
52.462
21
-33.1153
0
LINE
8
BLACK
6
CONTINUOUS
10
52.462
20
-33.1153
11
52.462
21
-33.4327
0
LINE
8
BLACK
6
CONTINUOUS
10
52.462
20
-33.4327
11
52.3534
21
-33.7309
0
LINE
8
BLACK
6
CONTINUOUS
10
52.3534
20
-33.7309
11
52.1494
21
-33.9741
0
LINE
8
BLACK
6
CONTINUOUS
10
52.1494
20
-33.9741
11
51.8746
21
-34.1328
0
LINE
8
BLACK
6
CONTINUOUS
10
51.8746
20
-34.1328
11
51.562
21
-34.1879
0
LINE
8
BLACK
6
CONTINUOUS
10
51.562
20
-34.1879
11
51.2494
21
-34.1328
0
LINE
8
BLACK
6
CONTINUOUS
10
51.2494
20
-34.1328
11
50.9746
21
-33.9741
0
LINE
8
BLACK
6
CONTINUOUS
10
50.9746
20
-33.9741
11
50.7706
21
-33.7309
0
LINE
8
BLACK
6
CONTINUOUS
10
50.7706
20
-33.7309
11
50.662
21
-33.4327
0
LINE
8
BLACK
6
CONTINUOUS
10
50.662
20
-33.4327
11
50.662
21
-33.1153
0
LINE
8
BLACK
6
CONTINUOUS
10
50.662
20
-33.1153
11
50.7706
21
-32.8171
0
LINE
8
BLACK
6
CONTINUOUS
10
50.7706
20
-32.8171
11
50.9746
21
-32.5739
0
LINE
8
BLACK
6
CONTINUOUS
10
50.9746
20
-32.5739
11
51.2494
21
-32.4152
0
LINE
8
BLACK
6
CONTINUOUS
10
51.2494
20
-32.4152
11
51.562
21
-32.3601
0
LINE
8
BLACK
6
CONTINUOUS
10
51.562
20
-32.3601
11
51.7378
21
-32.3911
0
LINE
8
BLACK
6
CONTINUOUS
10
51.7378
20
-32.3911
11
53.479
21
-30.6499
0
LINE
8
BLACK
6
CONTINUOUS
10
53.479
20
-30.6499
11
53.5216
21
-30.5991
0
LINE
8
BLACK
6
CONTINUOUS
10
53.5216
20
-30.5991
11
53.5791
21
-30.5659
0
LINE
8
BLACK
6
CONTINUOUS
10
53.5791
20
-30.5659
11
53.6334
21
-30.5279
0
LINE
8
BLACK
6
CONTINUOUS
10
53.6334
20
-30.5279
11
53.655
21
-30.5221
0
LINE
8
BLACK
6
CONTINUOUS
10
53.655
20
-30.5221
11
53.6744
21
-30.5109
0
LINE
8
BLACK
6
CONTINUOUS
10
53.6744
20
-30.5109
11
53.7397
21
-30.4994
0
LINE
8
BLACK
6
CONTINUOUS
10
53.7397
20
-30.4994
11
53.8037
21
-30.4822
0
LINE
8
BLACK
6
CONTINUOUS
10
53.8037
20
-30.4822
11
53.8698
21
-30.488
0
LINE
8
BLACK
6
CONTINUOUS
10
53.8698
20
-30.488
11
54.1158
21
-30.488
0
LINE
8
BLACK
6
CONTINUOUS
10
54.1158
20
-30.488
11
54.1531
21
-30.4435
0
LINE
8
BLACK
6
CONTINUOUS
10
54.1531
20
-30.4435
11
54.3669
21
-30.3201
0
LINE
8
BLACK
6
CONTINUOUS
10
54.3669
20
-30.3201
11
54.61
21
-30.2772
0
LINE
8
BLACK
6
CONTINUOUS
10
54.61
20
-30.2772
11
54.8531
21
-30.3201
0
LINE
8
BLACK
6
CONTINUOUS
10
46.2171
20
-30.3201
11
46.4309
21
-30.4435
0
LINE
8
BLACK
6
CONTINUOUS
10
46.4309
20
-30.4435
11
46.5896
21
-30.6326
0
LINE
8
BLACK
6
CONTINUOUS
10
46.5896
20
-30.6326
11
46.674
21
-30.8646
0
LINE
8
BLACK
6
CONTINUOUS
10
46.674
20
-30.8646
11
46.674
21
-31.1114
0
LINE
8
BLACK
6
CONTINUOUS
10
46.674
20
-31.1114
11
46.5896
21
-31.3434
0
LINE
8
BLACK
6
CONTINUOUS
10
46.5896
20
-31.3434
11
46.4309
21
-31.5325
0
LINE
8
BLACK
6
CONTINUOUS
10
46.4309
20
-31.5325
11
46.2171
21
-31.6559
0
LINE
8
BLACK
6
CONTINUOUS
10
46.2171
20
-31.6559
11
45.974
21
-31.6988
0
LINE
8
BLACK
6
CONTINUOUS
10
45.974
20
-31.6988
11
45.7309
21
-31.6559
0
LINE
8
BLACK
6
CONTINUOUS
10
45.7309
20
-31.6559
11
45.5171
21
-31.5325
0
LINE
8
BLACK
6
CONTINUOUS
10
45.5171
20
-31.5325
11
45.4798
21
-31.488
0
LINE
8
BLACK
6
CONTINUOUS
10
45.4798
20
-31.488
11
45.4191
21
-31.488
0
LINE
8
BLACK
6
CONTINUOUS
10
45.4191
20
-31.488
11
43.8169
21
-33.0902
0
LINE
8
BLACK
6
CONTINUOUS
10
43.8169
20
-33.0902
11
43.826
21
-33.1153
0
LINE
8
BLACK
6
CONTINUOUS
10
43.826
20
-33.1153
11
43.826
21
-33.4327
0
LINE
8
BLACK
6
CONTINUOUS
10
43.826
20
-33.4327
11
43.7174
21
-33.7309
0
LINE
8
BLACK
6
CONTINUOUS
10
43.7174
20
-33.7309
11
43.5134
21
-33.9741
0
LINE
8
BLACK
6
CONTINUOUS
10
43.5134
20
-33.9741
11
43.2386
21
-34.1328
0
LINE
8
BLACK
6
CONTINUOUS
10
43.2386
20
-34.1328
11
42.926
21
-34.1879
0
LINE
8
BLACK
6
CONTINUOUS
10
42.926
20
-34.1879
11
42.6134
21
-34.1328
0
LINE
8
BLACK
6
CONTINUOUS
10
42.6134
20
-34.1328
11
42.3386
21
-33.9741
0
LINE
8
BLACK
6
CONTINUOUS
10
42.3386
20
-33.9741
11
42.1346
21
-33.7309
0
LINE
8
BLACK
6
CONTINUOUS
10
42.1346
20
-33.7309
11
42.026
21
-33.4327
0
LINE
8
BLACK
6
CONTINUOUS
10
42.026
20
-33.4327
11
42.026
21
-33.1153
0
LINE
8
BLACK
6
CONTINUOUS
10
42.026
20
-33.1153
11
42.1346
21
-32.8171
0
LINE
8
BLACK
6
CONTINUOUS
10
42.1346
20
-32.8171
11
42.3386
21
-32.5739
0
LINE
8
BLACK
6
CONTINUOUS
10
42.3386
20
-32.5739
11
42.6134
21
-32.4152
0
LINE
8
BLACK
6
CONTINUOUS
10
42.6134
20
-32.4152
11
42.926
21
-32.3601
0
LINE
8
BLACK
6
CONTINUOUS
10
42.926
20
-32.3601
11
43.1018
21
-32.3911
0
LINE
8
BLACK
6
CONTINUOUS
10
43.1018
20
-32.3911
11
44.843
21
-30.6499
0
LINE
8
BLACK
6
CONTINUOUS
10
44.843
20
-30.6499
11
44.8856
21
-30.5991
0
LINE
8
BLACK
6
CONTINUOUS
10
44.8856
20
-30.5991
11
44.9431
21
-30.5659
0
LINE
8
BLACK
6
CONTINUOUS
10
44.9431
20
-30.5659
11
44.9974
21
-30.5279
0
LINE
8
BLACK
6
CONTINUOUS
10
44.9974
20
-30.5279
11
45.019
21
-30.5221
0
LINE
8
BLACK
6
CONTINUOUS
10
45.019
20
-30.5221
11
45.0384
21
-30.5109
0
LINE
8
BLACK
6
CONTINUOUS
10
45.0384
20
-30.5109
11
45.1037
21
-30.4994
0
LINE
8
BLACK
6
CONTINUOUS
10
45.1037
20
-30.4994
11
45.1677
21
-30.4822
0
LINE
8
BLACK
6
CONTINUOUS
10
45.1677
20
-30.4822
11
45.2338
21
-30.488
0
LINE
8
BLACK
6
CONTINUOUS
10
45.2338
20
-30.488
11
45.4798
21
-30.488
0
LINE
8
BLACK
6
CONTINUOUS
10
45.4798
20
-30.488
11
45.5171
21
-30.4435
0
LINE
8
BLACK
6
CONTINUOUS
10
45.5171
20
-30.4435
11
45.7309
21
-30.3201
0
LINE
8
BLACK
6
CONTINUOUS
10
45.7309
20
-30.3201
11
45.974
21
-30.2772
0
LINE
8
BLACK
6
CONTINUOUS
10
45.974
20
-30.2772
11
46.2171
21
-30.3201
0
LINE
8
BLACK
6
CONTINUOUS
10
37.5811
20
-30.3201
11
37.7949
21
-30.4435
0
LINE
8
BLACK
6
CONTINUOUS
10
37.7949
20
-30.4435
11
37.9536
21
-30.6326
0
LINE
8
BLACK
6
CONTINUOUS
10
37.9536
20
-30.6326
11
38.038
21
-30.8646
0
LINE
8
BLACK
6
CONTINUOUS
10
38.038
20
-30.8646
11
38.038
21
-31.1114
0
LINE
8
BLACK
6
CONTINUOUS
10
38.038
20
-31.1114
11
37.9536
21
-31.3434
0
LINE
8
BLACK
6
CONTINUOUS
10
37.9536
20
-31.3434
11
37.7949
21
-31.5325
0
LINE
8
BLACK
6
CONTINUOUS
10
37.7949
20
-31.5325
11
37.5811
21
-31.6559
0
LINE
8
BLACK
6
CONTINUOUS
10
37.5811
20
-31.6559
11
37.338
21
-31.6988
0
LINE
8
BLACK
6
CONTINUOUS
10
37.338
20
-31.6988
11
37.0949
21
-31.6559
0
LINE
8
BLACK
6
CONTINUOUS
10
37.0949
20
-31.6559
11
36.8811
21
-31.5325
0
LINE
8
BLACK
6
CONTINUOUS
10
36.8811
20
-31.5325
11
36.8438
21
-31.488
0
LINE
8
BLACK
6
CONTINUOUS
10
36.8438
20
-31.488
11
36.7831
21
-31.488
0
LINE
8
BLACK
6
CONTINUOUS
10
36.7831
20
-31.488
11
35.1809
21
-33.0902
0
LINE
8
BLACK
6
CONTINUOUS
10
35.1809
20
-33.0902
11
35.19
21
-33.1153
0
LINE
8
BLACK
6
CONTINUOUS
10
35.19
20
-33.1153
11
35.19
21
-33.4327
0
LINE
8
BLACK
6
CONTINUOUS
10
35.19
20
-33.4327
11
35.0814
21
-33.7309
0
LINE
8
BLACK
6
CONTINUOUS
10
35.0814
20
-33.7309
11
34.8774
21
-33.9741
0
LINE
8
BLACK
6
CONTINUOUS
10
34.8774
20
-33.9741
11
34.6026
21
-34.1328
0
LINE
8
BLACK
6
CONTINUOUS
10
34.6026
20
-34.1328
11
34.29
21
-34.1879
0
LINE
8
BLACK
6
CONTINUOUS
10
34.29
20
-34.1879
11
33.9774
21
-34.1328
0
LINE
8
BLACK
6
CONTINUOUS
10
33.9774
20
-34.1328
11
33.7026
21
-33.9741
0
LINE
8
BLACK
6
CONTINUOUS
10
33.7026
20
-33.9741
11
33.4986
21
-33.7309
0
LINE
8
BLACK
6
CONTINUOUS
10
33.4986
20
-33.7309
11
33.39
21
-33.4327
0
LINE
8
BLACK
6
CONTINUOUS
10
33.39
20
-33.4327
11
33.39
21
-33.1153
0
LINE
8
BLACK
6
CONTINUOUS
10
33.39
20
-33.1153
11
33.4986
21
-32.8171
0
LINE
8
BLACK
6
CONTINUOUS
10
33.4986
20
-32.8171
11
33.7026
21
-32.5739
0
LINE
8
BLACK
6
CONTINUOUS
10
33.7026
20
-32.5739
11
33.9774
21
-32.4152
0
LINE
8
BLACK
6
CONTINUOUS
10
33.9774
20
-32.4152
11
34.29
21
-32.3601
0
LINE
8
BLACK
6
CONTINUOUS
10
34.29
20
-32.3601
11
34.4658
21
-32.3911
0
LINE
8
BLACK
6
CONTINUOUS
10
34.4658
20
-32.3911
11
36.207
21
-30.6499
0
LINE
8
BLACK
6
CONTINUOUS
10
36.207
20
-30.6499
11
36.2496
21
-30.5991
0
LINE
8
BLACK
6
CONTINUOUS
10
36.2496
20
-30.5991
11
36.3071
21
-30.5659
0
LINE
8
BLACK
6
CONTINUOUS
10
36.3071
20
-30.5659
11
36.3614
21
-30.5279
0
LINE
8
BLACK
6
CONTINUOUS
10
36.3614
20
-30.5279
11
36.383
21
-30.5221
0
LINE
8
BLACK
6
CONTINUOUS
10
36.383
20
-30.5221
11
36.4024
21
-30.5109
0
LINE
8
BLACK
6
CONTINUOUS
10
36.4024
20
-30.5109
11
36.4677
21
-30.4994
0
LINE
8
BLACK
6
CONTINUOUS
10
36.4677
20
-30.4994
11
36.5317
21
-30.4822
0
LINE
8
BLACK
6
CONTINUOUS
10
36.5317
20
-30.4822
11
36.5978
21
-30.488
0
LINE
8
BLACK
6
CONTINUOUS
10
36.5978
20
-30.488
11
36.8438
21
-30.488
0
LINE
8
BLACK
6
CONTINUOUS
10
36.8438
20
-30.488
11
36.8811
21
-30.4435
0
LINE
8
BLACK
6
CONTINUOUS
10
36.8811
20
-30.4435
11
37.0949
21
-30.3201
0
LINE
8
BLACK
6
CONTINUOUS
10
37.0949
20
-30.3201
11
37.338
21
-30.2772
0
LINE
8
BLACK
6
CONTINUOUS
10
37.338
20
-30.2772
11
37.5811
21
-30.3201
0
LINE
8
BLACK
6
CONTINUOUS
10
30.862
20
-25.8744
11
31.198
21
-26.0684
0
LINE
8
BLACK
6
CONTINUOUS
10
31.198
20
-26.0684
11
31.4473
21
-26.3655
0
LINE
8
BLACK
6
CONTINUOUS
10
31.4473
20
-26.3655
11
31.58
21
-26.73
0
LINE
8
BLACK
6
CONTINUOUS
10
31.58
20
-26.73
11
31.58
21
-27.118
0
LINE
8
BLACK
6
CONTINUOUS
10
31.58
20
-27.118
11
31.4473
21
-27.4825
0
LINE
8
BLACK
6
CONTINUOUS
10
31.4473
20
-27.4825
11
31.198
21
-27.7796
0
LINE
8
BLACK
6
CONTINUOUS
10
31.198
20
-27.7796
11
30.862
21
-27.9736
0
LINE
8
BLACK
6
CONTINUOUS
10
30.862
20
-27.9736
11
30.48
21
-28.041
0
LINE
8
BLACK
6
CONTINUOUS
10
30.48
20
-28.041
11
30.098
21
-27.9736
0
LINE
8
BLACK
6
CONTINUOUS
10
30.098
20
-27.9736
11
29.762
21
-27.7796
0
LINE
8
BLACK
6
CONTINUOUS
10
29.762
20
-27.7796
11
29.5127
21
-27.4825
0
LINE
8
BLACK
6
CONTINUOUS
10
29.5127
20
-27.4825
11
29.38
21
-27.118
0
LINE
8
BLACK
6
CONTINUOUS
10
29.38
20
-27.118
11
29.38
21
-26.73
0
LINE
8
BLACK
6
CONTINUOUS
10
29.38
20
-26.73
11
29.5127
21
-26.3655
0
LINE
8
BLACK
6
CONTINUOUS
10
29.5127
20
-26.3655
11
29.762
21
-26.0684
0
LINE
8
BLACK
6
CONTINUOUS
10
29.762
20
-26.0684
11
30.098
21
-25.8744
0
LINE
8
BLACK
6
CONTINUOUS
10
30.098
20
-25.8744
11
30.48
21
-25.807
0
LINE
8
BLACK
6
CONTINUOUS
10
30.48
20
-25.807
11
30.862
21
-25.8744
0
LINE
8
BLACK
6
CONTINUOUS
10
53.468
20
-25.8744
11
53.804
21
-26.0684
0
LINE
8
BLACK
6
CONTINUOUS
10
53.804
20
-26.0684
11
54.0533
21
-26.3655
0
LINE
8
BLACK
6
CONTINUOUS
10
54.0533
20
-26.3655
11
54.186
21
-26.73
0
LINE
8
BLACK
6
CONTINUOUS
10
54.186
20
-26.73
11
54.186
21
-27.118
0
LINE
8
BLACK
6
CONTINUOUS
10
54.186
20
-27.118
11
54.0533
21
-27.4825
0
LINE
8
BLACK
6
CONTINUOUS
10
54.0533
20
-27.4825
11
53.804
21
-27.7796
0
LINE
8
BLACK
6
CONTINUOUS
10
53.804
20
-27.7796
11
53.468
21
-27.9736
0
LINE
8
BLACK
6
CONTINUOUS
10
53.468
20
-27.9736
11
53.086
21
-28.041
0
LINE
8
BLACK
6
CONTINUOUS
10
53.086
20
-28.041
11
52.704
21
-27.9736
0
LINE
8
BLACK
6
CONTINUOUS
10
52.704
20
-27.9736
11
52.368
21
-27.7796
0
LINE
8
BLACK
6
CONTINUOUS
10
52.368
20
-27.7796
11
52.1187
21
-27.4825
0
LINE
8
BLACK
6
CONTINUOUS
10
52.1187
20
-27.4825
11
51.986
21
-27.118
0
LINE
8
BLACK
6
CONTINUOUS
10
51.986
20
-27.118
11
51.986
21
-26.73
0
LINE
8
BLACK
6
CONTINUOUS
10
51.986
20
-26.73
11
52.1187
21
-26.3655
0
LINE
8
BLACK
6
CONTINUOUS
10
52.1187
20
-26.3655
11
52.368
21
-26.0684
0
LINE
8
BLACK
6
CONTINUOUS
10
52.368
20
-26.0684
11
52.704
21
-25.8744
0
LINE
8
BLACK
6
CONTINUOUS
10
52.704
20
-25.8744
11
53.086
21
-25.807
0
LINE
8
BLACK
6
CONTINUOUS
10
53.086
20
-25.807
11
53.468
21
-25.8744
  0
ENDSEC
  0
EOF
