  0
SECTION
  2
HEADER
  9
$ANGBASE
  50
0.0
  9
$ANGDIR
  70
  1
  9
$MEASUREMENT
  70
0
  0
ENDSEC
  0
SECTION
  2
TABLES
  0
TABLE
  2
LTYPE
  70
4
  0
LTYPE
  5
40F
  2
CONTINUOUS
  70
0
  3
Solid line
  72
65
  73
0
  40
0.0
  0
LTYPE
  5
410
  2
DASHDOT
 70
0
  3
Dash Dot ____ _ ____ _
 72
65
 73
4
 40
2.0
 49
1.25
 49
-0.25
 49
0.25
 49
-0.25
  0
LTYPE
  5
411
  2
DASHED
 70
0
  3
Dashed __ __ __ __ __
 72
65
 73
2
 40
0.75
 49
0.5
 49
-0.25
  0
LTYPE
  5
43B
  2
DOTTED
 70
0
  3
Dotted .  .  .  .
 72
65
 73
2
 40
0.2
 49
0.0
 49
-0.2
  0
ENDTAB
  0
TABLE
  2
STYLE
  70
4
  0
STYLE
  2
KICAD
  70
0
  40
0
  41
1
  42
1
  50
0
  71
0
  3
isocp.shx
  0
STYLE
  2
KICADB
  70
0
  40
0
  41
1
  42
1
  50
0
  71
0
  3
isocp.shx
  0
STYLE
  2
KICADI
  70
0
  40
0
  41
1
  42
1
  50
15
  71
0
  3
isocp.shx
  0
STYLE
  2
KICADBI
  70
0
  40
0
  41
1
  42
1
  50
15
  71
0
  3
isocp.shx
  0
ENDTAB
  0
TABLE
  2
LAYER
  70
30
  0
LAYER
  2
BLACK
  70
0
  62
7
  6
CONTINUOUS
  0
LAYER
  2
GRAY1
  70
0
  62
251
  6
CONTINUOUS
  0
LAYER
  2
GRAY2
  70
0
  62
8
  6
CONTINUOUS
  0
LAYER
  2
GRAY3
  70
0
  62
9
  6
CONTINUOUS
  0
LAYER
  2
WHITE
  70
0
  62
7
  6
CONTINUOUS
  0
LAYER
  2
LYELLOW
  70
0
  62
51
  6
CONTINUOUS
  0
LAYER
  2
BLUE1
  70
0
  62
178
  6
CONTINUOUS
  0
LAYER
  2
GREEN1
  70
0
  62
98
  6
CONTINUOUS
  0
LAYER
  2
CYAN1
  70
0
  62
138
  6
CONTINUOUS
  0
LAYER
  2
RED1
  70
0
  62
18
  6
CONTINUOUS
  0
LAYER
  2
MAGENTA1
  70
0
  62
228
  6
CONTINUOUS
  0
LAYER
  2
BROWN1
  70
0
  62
58
  6
CONTINUOUS
  0
LAYER
  2
BLUE2
  70
0
  62
5
  6
CONTINUOUS
  0
LAYER
  2
GREEN2
  70
0
  62
3
  6
CONTINUOUS
  0
LAYER
  2
CYAN2
  70
0
  62
4
  6
CONTINUOUS
  0
LAYER
  2
RED2
  70
0
  62
1
  6
CONTINUOUS
  0
LAYER
  2
MAGENTA2
  70
0
  62
6
  6
CONTINUOUS
  0
LAYER
  2
BROWN2
  70
0
  62
54
  6
CONTINUOUS
  0
LAYER
  2
BLUE3
  70
0
  62
171
  6
CONTINUOUS
  0
LAYER
  2
GREEN3
  70
0
  62
91
  6
CONTINUOUS
  0
LAYER
  2
CYAN3
  70
0
  62
131
  6
CONTINUOUS
  0
LAYER
  2
RED3
  70
0
  62
11
  6
CONTINUOUS
  0
LAYER
  2
MAGENTA3
  70
0
  62
221
  6
CONTINUOUS
  0
LAYER
  2
YELLOW3
  70
0
  62
2
  6
CONTINUOUS
  0
LAYER
  2
BLUE4
  70
0
  62
5
  6
CONTINUOUS
  0
LAYER
  2
GREEN4
  70
0
  62
3
  6
CONTINUOUS
  0
LAYER
  2
CYAN4
  70
0
  62
4
  6
CONTINUOUS
  0
LAYER
  2
RED4
  70
0
  62
1
  6
CONTINUOUS
  0
LAYER
  2
MAGENTA4
  70
0
  62
6
  6
CONTINUOUS
  0
LAYER
  2
YELLOW4
  70
0
  62
2
  6
CONTINUOUS
  0
ENDTAB
  0
ENDSEC
  0
SECTION
  2
ENTITIES
0
LINE
8
BLACK
6
CONTINUOUS
10
44.462
20
-66.5724
11
44.412
21
-66.4351
0
LINE
8
BLACK
6
CONTINUOUS
10
44.412
20
-66.4351
11
44.412
21
-66.1529
0
LINE
8
BLACK
6
CONTINUOUS
10
44.412
20
-66.1529
11
44.5085
21
-65.8878
0
LINE
8
BLACK
6
CONTINUOUS
10
44.5085
20
-65.8878
11
44.6898
21
-65.6717
0
LINE
8
BLACK
6
CONTINUOUS
10
44.6898
20
-65.6717
11
44.9342
21
-65.5306
0
LINE
8
BLACK
6
CONTINUOUS
10
44.9342
20
-65.5306
11
45.142
21
-65.494
0
LINE
8
BLACK
6
CONTINUOUS
10
45.142
20
-65.494
11
45.282
21
-65.494
0
LINE
8
BLACK
6
CONTINUOUS
10
45.282
20
-65.494
11
45.4898
21
-65.5306
0
LINE
8
BLACK
6
CONTINUOUS
10
45.4898
20
-65.5306
11
45.7342
21
-65.6717
0
LINE
8
BLACK
6
CONTINUOUS
10
45.7342
20
-65.6717
11
45.9155
21
-65.8878
0
LINE
8
BLACK
6
CONTINUOUS
10
45.9155
20
-65.8878
11
46.012
21
-66.1529
0
LINE
8
BLACK
6
CONTINUOUS
10
46.012
20
-66.1529
11
46.012
21
-66.4351
0
LINE
8
BLACK
6
CONTINUOUS
10
46.012
20
-66.4351
11
45.962
21
-66.5724
0
LINE
8
BLACK
6
CONTINUOUS
10
45.962
20
-66.5724
11
45.962
21
-67.9933
0
LINE
8
BLACK
6
CONTINUOUS
10
45.962
20
-67.9933
11
45.9707
21
-68.0924
0
LINE
8
BLACK
6
CONTINUOUS
10
45.9707
20
-68.0924
11
45.9449
21
-68.1885
0
LINE
8
BLACK
6
CONTINUOUS
10
45.9449
20
-68.1885
11
45.9276
21
-68.2865
0
LINE
8
BLACK
6
CONTINUOUS
10
45.9276
20
-68.2865
11
45.9109
21
-68.3155
0
LINE
8
BLACK
6
CONTINUOUS
10
45.9109
20
-68.3155
11
45.9022
21
-68.3479
0
LINE
8
BLACK
6
CONTINUOUS
10
45.9022
20
-68.3479
11
45.8451
21
-68.4294
0
LINE
8
BLACK
6
CONTINUOUS
10
45.8451
20
-68.4294
11
45.7954
21
-68.5155
0
LINE
8
BLACK
6
CONTINUOUS
10
45.7954
20
-68.5155
11
45.7192
21
-68.5795
0
LINE
8
BLACK
6
CONTINUOUS
10
45.7192
20
-68.5795
11
41.7415
21
-72.5572
0
LINE
8
BLACK
6
CONTINUOUS
10
41.7415
20
-72.5572
11
41.6775
21
-72.6334
0
LINE
8
BLACK
6
CONTINUOUS
10
41.6775
20
-72.6334
11
41.5914
21
-72.6831
0
LINE
8
BLACK
6
CONTINUOUS
10
41.5914
20
-72.6831
11
41.5099
21
-72.7402
0
LINE
8
BLACK
6
CONTINUOUS
10
41.5099
20
-72.7402
11
41.4775
21
-72.7489
0
LINE
8
BLACK
6
CONTINUOUS
10
41.4775
20
-72.7489
11
41.4485
21
-72.7656
0
LINE
8
BLACK
6
CONTINUOUS
10
41.4485
20
-72.7656
11
41.3505
21
-72.7829
0
LINE
8
BLACK
6
CONTINUOUS
10
41.3505
20
-72.7829
11
41.2544
21
-72.8087
0
LINE
8
BLACK
6
CONTINUOUS
10
41.2544
20
-72.8087
11
41.1553
21
-72.8
0
LINE
8
BLACK
6
CONTINUOUS
10
41.1553
20
-72.8
11
31.4887
21
-72.8
0
LINE
8
BLACK
6
CONTINUOUS
10
31.4887
20
-72.8
11
31.3896
21
-72.8087
0
LINE
8
BLACK
6
CONTINUOUS
10
31.3896
20
-72.8087
11
31.2935
21
-72.7829
0
LINE
8
BLACK
6
CONTINUOUS
10
31.2935
20
-72.7829
11
31.1955
21
-72.7656
0
LINE
8
BLACK
6
CONTINUOUS
10
31.1955
20
-72.7656
11
31.1665
21
-72.7489
0
LINE
8
BLACK
6
CONTINUOUS
10
31.1665
20
-72.7489
11
31.1341
21
-72.7402
0
LINE
8
BLACK
6
CONTINUOUS
10
31.1341
20
-72.7402
11
31.0526
21
-72.6831
0
LINE
8
BLACK
6
CONTINUOUS
10
31.0526
20
-72.6831
11
30.9665
21
-72.6334
0
LINE
8
BLACK
6
CONTINUOUS
10
30.9665
20
-72.6334
11
30.9025
21
-72.5572
0
LINE
8
BLACK
6
CONTINUOUS
10
30.9025
20
-72.5572
11
29.4648
21
-71.1195
0
LINE
8
BLACK
6
CONTINUOUS
10
29.4648
20
-71.1195
11
29.3886
21
-71.0555
0
LINE
8
BLACK
6
CONTINUOUS
10
29.3886
20
-71.0555
11
29.3389
21
-70.9694
0
LINE
8
BLACK
6
CONTINUOUS
10
29.3389
20
-70.9694
11
29.2818
21
-70.8879
0
LINE
8
BLACK
6
CONTINUOUS
10
29.2818
20
-70.8879
11
29.2731
21
-70.8555
0
LINE
8
BLACK
6
CONTINUOUS
10
29.2731
20
-70.8555
11
29.2564
21
-70.8265
0
LINE
8
BLACK
6
CONTINUOUS
10
29.2564
20
-70.8265
11
29.2391
21
-70.7285
0
LINE
8
BLACK
6
CONTINUOUS
10
29.2391
20
-70.7285
11
29.2314
21
-70.7
0
LINE
8
BLACK
6
CONTINUOUS
10
29.2314
20
-70.7
11
29.122
21
-70.7
0
LINE
8
BLACK
6
CONTINUOUS
10
29.122
20
-70.7
11
29.122
21
-69
0
LINE
8
BLACK
6
CONTINUOUS
10
29.122
20
-69
11
29.222
21
-69
0
LINE
8
BLACK
6
CONTINUOUS
10
29.222
20
-69
11
29.222
21
-66.5724
0
LINE
8
BLACK
6
CONTINUOUS
10
29.222
20
-66.5724
11
29.172
21
-66.4351
0
LINE
8
BLACK
6
CONTINUOUS
10
29.172
20
-66.4351
11
29.172
21
-66.1529
0
LINE
8
BLACK
6
CONTINUOUS
10
29.172
20
-66.1529
11
29.2685
21
-65.8878
0
LINE
8
BLACK
6
CONTINUOUS
10
29.2685
20
-65.8878
11
29.4498
21
-65.6717
0
LINE
8
BLACK
6
CONTINUOUS
10
29.4498
20
-65.6717
11
29.6942
21
-65.5306
0
LINE
8
BLACK
6
CONTINUOUS
10
29.6942
20
-65.5306
11
29.902
21
-65.494
0
LINE
8
BLACK
6
CONTINUOUS
10
29.902
20
-65.494
11
30.042
21
-65.494
0
LINE
8
BLACK
6
CONTINUOUS
10
30.042
20
-65.494
11
30.2498
21
-65.5306
0
LINE
8
BLACK
6
CONTINUOUS
10
30.2498
20
-65.5306
11
30.4942
21
-65.6717
0
LINE
8
BLACK
6
CONTINUOUS
10
30.4942
20
-65.6717
11
30.6755
21
-65.8878
0
LINE
8
BLACK
6
CONTINUOUS
10
30.6755
20
-65.8878
11
30.772
21
-66.1529
0
LINE
8
BLACK
6
CONTINUOUS
10
30.772
20
-66.1529
11
30.772
21
-66.4351
0
LINE
8
BLACK
6
CONTINUOUS
10
30.772
20
-66.4351
11
30.722
21
-66.5724
0
LINE
8
BLACK
6
CONTINUOUS
10
30.722
20
-66.5724
11
30.722
21
-69
0
LINE
8
BLACK
6
CONTINUOUS
10
30.722
20
-69
11
30.822
21
-69
0
LINE
8
BLACK
6
CONTINUOUS
10
30.822
20
-69
11
30.822
21
-70.3553
0
LINE
8
BLACK
6
CONTINUOUS
10
30.822
20
-70.3553
11
31.7667
21
-71.3
0
LINE
8
BLACK
6
CONTINUOUS
10
31.7667
20
-71.3
11
40.8773
21
-71.3
0
LINE
8
BLACK
6
CONTINUOUS
10
40.8773
20
-71.3
11
44.462
21
-67.7153
0
LINE
8
BLACK
6
CONTINUOUS
10
44.462
20
-67.7153
11
44.462
21
-67.3598
0
LINE
8
BLACK
6
CONTINUOUS
10
44.462
20
-67.3598
11
44.462
21
-66.5724
0
LINE
8
BLACK
6
CONTINUOUS
10
23.242
20
-69.5624
11
23.578
21
-69.7564
0
LINE
8
BLACK
6
CONTINUOUS
10
23.578
20
-69.7564
11
23.8273
21
-70.0535
0
LINE
8
BLACK
6
CONTINUOUS
10
23.8273
20
-70.0535
11
23.96
21
-70.418
0
LINE
8
BLACK
6
CONTINUOUS
10
23.96
20
-70.418
11
23.96
21
-70.806
0
LINE
8
BLACK
6
CONTINUOUS
10
23.96
20
-70.806
11
23.8273
21
-71.1705
0
LINE
8
BLACK
6
CONTINUOUS
10
23.8273
20
-71.1705
11
23.578
21
-71.4676
0
LINE
8
BLACK
6
CONTINUOUS
10
23.578
20
-71.4676
11
23.242
21
-71.6616
0
LINE
8
BLACK
6
CONTINUOUS
10
23.242
20
-71.6616
11
22.86
21
-71.729
0
LINE
8
BLACK
6
CONTINUOUS
10
22.86
20
-71.729
11
22.478
21
-71.6616
0
LINE
8
BLACK
6
CONTINUOUS
10
22.478
20
-71.6616
11
22.142
21
-71.4676
0
LINE
8
BLACK
6
CONTINUOUS
10
22.142
20
-71.4676
11
21.8927
21
-71.1705
0
LINE
8
BLACK
6
CONTINUOUS
10
21.8927
20
-71.1705
11
21.76
21
-70.806
0
LINE
8
BLACK
6
CONTINUOUS
10
21.76
20
-70.806
11
21.76
21
-70.418
0
LINE
8
BLACK
6
CONTINUOUS
10
21.76
20
-70.418
11
21.8927
21
-70.0535
0
LINE
8
BLACK
6
CONTINUOUS
10
21.8927
20
-70.0535
11
22.142
21
-69.7564
0
LINE
8
BLACK
6
CONTINUOUS
10
22.142
20
-69.7564
11
22.478
21
-69.5624
0
LINE
8
BLACK
6
CONTINUOUS
10
22.478
20
-69.5624
11
22.86
21
-69.495
0
LINE
8
BLACK
6
CONTINUOUS
10
22.86
20
-69.495
11
23.242
21
-69.5624
0
LINE
8
BLACK
6
CONTINUOUS
10
50.166
20
-69.5624
11
50.502
21
-69.7564
0
LINE
8
BLACK
6
CONTINUOUS
10
50.502
20
-69.7564
11
50.7513
21
-70.0535
0
LINE
8
BLACK
6
CONTINUOUS
10
50.7513
20
-70.0535
11
50.884
21
-70.418
0
LINE
8
BLACK
6
CONTINUOUS
10
50.884
20
-70.418
11
50.884
21
-70.806
0
LINE
8
BLACK
6
CONTINUOUS
10
50.884
20
-70.806
11
50.7513
21
-71.1705
0
LINE
8
BLACK
6
CONTINUOUS
10
50.7513
20
-71.1705
11
50.502
21
-71.4676
0
LINE
8
BLACK
6
CONTINUOUS
10
50.502
20
-71.4676
11
50.166
21
-71.6616
0
LINE
8
BLACK
6
CONTINUOUS
10
50.166
20
-71.6616
11
49.784
21
-71.729
0
LINE
8
BLACK
6
CONTINUOUS
10
49.784
20
-71.729
11
49.402
21
-71.6616
0
LINE
8
BLACK
6
CONTINUOUS
10
49.402
20
-71.6616
11
49.066
21
-71.4676
0
LINE
8
BLACK
6
CONTINUOUS
10
49.066
20
-71.4676
11
48.8167
21
-71.1705
0
LINE
8
BLACK
6
CONTINUOUS
10
48.8167
20
-71.1705
11
48.684
21
-70.806
0
LINE
8
BLACK
6
CONTINUOUS
10
48.684
20
-70.806
11
48.684
21
-70.418
0
LINE
8
BLACK
6
CONTINUOUS
10
48.684
20
-70.418
11
48.8167
21
-70.0535
0
LINE
8
BLACK
6
CONTINUOUS
10
48.8167
20
-70.0535
11
49.066
21
-69.7564
0
LINE
8
BLACK
6
CONTINUOUS
10
49.066
20
-69.7564
11
49.402
21
-69.5624
0
LINE
8
BLACK
6
CONTINUOUS
10
49.402
20
-69.5624
11
49.784
21
-69.495
0
LINE
8
BLACK
6
CONTINUOUS
10
49.784
20
-69.495
11
50.166
21
-69.5624
0
LINE
8
BLACK
6
CONTINUOUS
10
40.4098
20
-65.5306
11
40.6542
21
-65.6717
0
LINE
8
BLACK
6
CONTINUOUS
10
40.6542
20
-65.6717
11
40.8355
21
-65.8878
0
LINE
8
BLACK
6
CONTINUOUS
10
40.8355
20
-65.8878
11
40.932
21
-66.1529
0
LINE
8
BLACK
6
CONTINUOUS
10
40.932
20
-66.1529
11
40.932
21
-66.4351
0
LINE
8
BLACK
6
CONTINUOUS
10
40.932
20
-66.4351
11
40.8355
21
-66.7002
0
LINE
8
BLACK
6
CONTINUOUS
10
40.8355
20
-66.7002
11
40.6542
21
-66.9163
0
LINE
8
BLACK
6
CONTINUOUS
10
40.6542
20
-66.9163
11
40.632
21
-66.9291
0
LINE
8
BLACK
6
CONTINUOUS
10
40.632
20
-66.9291
11
40.632
21
-69.1572
0
LINE
8
BLACK
6
CONTINUOUS
10
40.632
20
-69.1572
11
40.6868
21
-69.1888
0
LINE
8
BLACK
6
CONTINUOUS
10
40.6868
20
-69.1888
11
40.8795
21
-69.4184
0
LINE
8
BLACK
6
CONTINUOUS
10
40.8795
20
-69.4184
11
40.982
21
-69.7001
0
LINE
8
BLACK
6
CONTINUOUS
10
40.982
20
-69.7001
11
40.982
21
-69.9999
0
LINE
8
BLACK
6
CONTINUOUS
10
40.982
20
-69.9999
11
40.8795
21
-70.2816
0
LINE
8
BLACK
6
CONTINUOUS
10
40.8795
20
-70.2816
11
40.6868
21
-70.5112
0
LINE
8
BLACK
6
CONTINUOUS
10
40.6868
20
-70.5112
11
40.4272
21
-70.6611
0
LINE
8
BLACK
6
CONTINUOUS
10
40.4272
20
-70.6611
11
40.2064
21
-70.7
0
LINE
8
BLACK
6
CONTINUOUS
10
40.2064
20
-70.7
11
40.0576
21
-70.7
0
LINE
8
BLACK
6
CONTINUOUS
10
40.0576
20
-70.7
11
39.8368
21
-70.6611
0
LINE
8
BLACK
6
CONTINUOUS
10
39.8368
20
-70.6611
11
39.5772
21
-70.5112
0
LINE
8
BLACK
6
CONTINUOUS
10
39.5772
20
-70.5112
11
39.3845
21
-70.2816
0
LINE
8
BLACK
6
CONTINUOUS
10
39.3845
20
-70.2816
11
39.282
21
-69.9999
0
LINE
8
BLACK
6
CONTINUOUS
10
39.282
20
-69.9999
11
39.282
21
-69.7001
0
LINE
8
BLACK
6
CONTINUOUS
10
39.282
20
-69.7001
11
39.3845
21
-69.4184
0
LINE
8
BLACK
6
CONTINUOUS
10
39.3845
20
-69.4184
11
39.5772
21
-69.1888
0
LINE
8
BLACK
6
CONTINUOUS
10
39.5772
20
-69.1888
11
39.632
21
-69.1572
0
LINE
8
BLACK
6
CONTINUOUS
10
39.632
20
-69.1572
11
39.632
21
-66.9291
0
LINE
8
BLACK
6
CONTINUOUS
10
39.632
20
-66.9291
11
39.6098
21
-66.9163
0
LINE
8
BLACK
6
CONTINUOUS
10
39.6098
20
-66.9163
11
39.4285
21
-66.7002
0
LINE
8
BLACK
6
CONTINUOUS
10
39.4285
20
-66.7002
11
39.332
21
-66.4351
0
LINE
8
BLACK
6
CONTINUOUS
10
39.332
20
-66.4351
11
39.332
21
-66.1529
0
LINE
8
BLACK
6
CONTINUOUS
10
39.332
20
-66.1529
11
39.4285
21
-65.8878
0
LINE
8
BLACK
6
CONTINUOUS
10
39.4285
20
-65.8878
11
39.6098
21
-65.6717
0
LINE
8
BLACK
6
CONTINUOUS
10
39.6098
20
-65.6717
11
39.8542
21
-65.5306
0
LINE
8
BLACK
6
CONTINUOUS
10
39.8542
20
-65.5306
11
40.062
21
-65.494
0
LINE
8
BLACK
6
CONTINUOUS
10
40.062
20
-65.494
11
40.202
21
-65.494
0
LINE
8
BLACK
6
CONTINUOUS
10
40.202
20
-65.494
11
40.4098
21
-65.5306
0
LINE
8
BLACK
6
CONTINUOUS
10
27.7098
20
-57.9106
11
27.9542
21
-58.0517
0
LINE
8
BLACK
6
CONTINUOUS
10
27.9542
20
-58.0517
11
28.1355
21
-58.2678
0
LINE
8
BLACK
6
CONTINUOUS
10
28.1355
20
-58.2678
11
28.232
21
-58.5329
0
LINE
8
BLACK
6
CONTINUOUS
10
28.232
20
-58.5329
11
28.232
21
-58.8151
0
LINE
8
BLACK
6
CONTINUOUS
10
28.232
20
-58.8151
11
28.182
21
-58.9524
0
LINE
8
BLACK
6
CONTINUOUS
10
28.182
20
-58.9524
11
28.182
21
-59.4947
0
LINE
8
BLACK
6
CONTINUOUS
10
28.182
20
-59.4947
11
30.1673
21
-61.48
0
LINE
8
BLACK
6
CONTINUOUS
10
30.1673
20
-61.48
11
34.6266
21
-61.48
0
LINE
8
BLACK
6
CONTINUOUS
10
34.6266
20
-61.48
11
34.7257
21
-61.4713
0
LINE
8
BLACK
6
CONTINUOUS
10
34.7257
20
-61.4713
11
34.8219
21
-61.4971
0
LINE
8
BLACK
6
CONTINUOUS
10
34.8219
20
-61.4971
11
34.9198
21
-61.5144
0
LINE
8
BLACK
6
CONTINUOUS
10
34.9198
20
-61.5144
11
34.9489
21
-61.5311
0
LINE
8
BLACK
6
CONTINUOUS
10
34.9489
20
-61.5311
11
34.9812
21
-61.5398
0
LINE
8
BLACK
6
CONTINUOUS
10
34.9812
20
-61.5398
11
35.0627
21
-61.5969
0
LINE
8
BLACK
6
CONTINUOUS
10
35.0627
20
-61.5969
11
35.1489
21
-61.6466
0
LINE
8
BLACK
6
CONTINUOUS
10
35.1489
20
-61.6466
11
35.2128
21
-61.7228
0
LINE
8
BLACK
6
CONTINUOUS
10
35.2128
20
-61.7228
11
38.0992
21
-64.6092
0
LINE
8
BLACK
6
CONTINUOUS
10
38.0992
20
-64.6092
11
38.1754
21
-64.6731
0
LINE
8
BLACK
6
CONTINUOUS
10
38.1754
20
-64.6731
11
38.2251
21
-64.7593
0
LINE
8
BLACK
6
CONTINUOUS
10
38.2251
20
-64.7593
11
38.2822
21
-64.8408
0
LINE
8
BLACK
6
CONTINUOUS
10
38.2822
20
-64.8408
11
38.2909
21
-64.8731
0
LINE
8
BLACK
6
CONTINUOUS
10
38.2909
20
-64.8731
11
38.3076
21
-64.9022
0
LINE
8
BLACK
6
CONTINUOUS
10
38.3076
20
-64.9022
11
38.3249
21
-65.0001
0
LINE
8
BLACK
6
CONTINUOUS
10
38.3249
20
-65.0001
11
38.3507
21
-65.0963
0
LINE
8
BLACK
6
CONTINUOUS
10
38.3507
20
-65.0963
11
38.342
21
-65.1954
0
LINE
8
BLACK
6
CONTINUOUS
10
38.342
20
-65.1954
11
38.342
21
-66.0156
0
LINE
8
BLACK
6
CONTINUOUS
10
38.342
20
-66.0156
11
38.392
21
-66.1529
0
LINE
8
BLACK
6
CONTINUOUS
10
38.392
20
-66.1529
11
38.392
21
-66.4351
0
LINE
8
BLACK
6
CONTINUOUS
10
38.392
20
-66.4351
11
38.342
21
-66.5724
0
LINE
8
BLACK
6
CONTINUOUS
10
38.342
20
-66.5724
11
38.342
21
-69.4254
0
LINE
8
BLACK
6
CONTINUOUS
10
38.342
20
-69.4254
11
38.442
21
-69.7001
0
LINE
8
BLACK
6
CONTINUOUS
10
38.442
20
-69.7001
11
38.442
21
-69.9999
0
LINE
8
BLACK
6
CONTINUOUS
10
38.442
20
-69.9999
11
38.3395
21
-70.2816
0
LINE
8
BLACK
6
CONTINUOUS
10
38.3395
20
-70.2816
11
38.1468
21
-70.5112
0
LINE
8
BLACK
6
CONTINUOUS
10
38.1468
20
-70.5112
11
37.8872
21
-70.6611
0
LINE
8
BLACK
6
CONTINUOUS
10
37.8872
20
-70.6611
11
37.6664
21
-70.7
0
LINE
8
BLACK
6
CONTINUOUS
10
37.6664
20
-70.7
11
37.5176
21
-70.7
0
LINE
8
BLACK
6
CONTINUOUS
10
37.5176
20
-70.7
11
37.2968
21
-70.6611
0
LINE
8
BLACK
6
CONTINUOUS
10
37.2968
20
-70.6611
11
37.0372
21
-70.5112
0
LINE
8
BLACK
6
CONTINUOUS
10
37.0372
20
-70.5112
11
36.8445
21
-70.2816
0
LINE
8
BLACK
6
CONTINUOUS
10
36.8445
20
-70.2816
11
36.742
21
-69.9999
0
LINE
8
BLACK
6
CONTINUOUS
10
36.742
20
-69.9999
11
36.742
21
-69.7001
0
LINE
8
BLACK
6
CONTINUOUS
10
36.742
20
-69.7001
11
36.842
21
-69.4254
0
LINE
8
BLACK
6
CONTINUOUS
10
36.842
20
-69.4254
11
36.842
21
-66.5724
0
LINE
8
BLACK
6
CONTINUOUS
10
36.842
20
-66.5724
11
36.792
21
-66.4351
0
LINE
8
BLACK
6
CONTINUOUS
10
36.792
20
-66.4351
11
36.792
21
-66.1529
0
LINE
8
BLACK
6
CONTINUOUS
10
36.792
20
-66.1529
11
36.842
21
-66.0156
0
LINE
8
BLACK
6
CONTINUOUS
10
36.842
20
-66.0156
11
36.842
21
-65.4733
0
LINE
8
BLACK
6
CONTINUOUS
10
36.842
20
-65.4733
11
34.3487
21
-62.98
0
LINE
8
BLACK
6
CONTINUOUS
10
34.3487
20
-62.98
11
29.8894
21
-62.98
0
LINE
8
BLACK
6
CONTINUOUS
10
29.8894
20
-62.98
11
29.7903
21
-62.9887
0
LINE
8
BLACK
6
CONTINUOUS
10
29.7903
20
-62.9887
11
29.6941
21
-62.9629
0
LINE
8
BLACK
6
CONTINUOUS
10
29.6941
20
-62.9629
11
29.5962
21
-62.9456
0
LINE
8
BLACK
6
CONTINUOUS
10
29.5962
20
-62.9456
11
29.5671
21
-62.9289
0
LINE
8
BLACK
6
CONTINUOUS
10
29.5671
20
-62.9289
11
29.5348
21
-62.9202
0
LINE
8
BLACK
6
CONTINUOUS
10
29.5348
20
-62.9202
11
29.4533
21
-62.8631
0
LINE
8
BLACK
6
CONTINUOUS
10
29.4533
20
-62.8631
11
29.3671
21
-62.8134
0
LINE
8
BLACK
6
CONTINUOUS
10
29.3671
20
-62.8134
11
29.3032
21
-62.7372
0
LINE
8
BLACK
6
CONTINUOUS
10
29.3032
20
-62.7372
11
26.9248
21
-60.3588
0
LINE
8
BLACK
6
CONTINUOUS
10
26.9248
20
-60.3588
11
26.8486
21
-60.2949
0
LINE
8
BLACK
6
CONTINUOUS
10
26.8486
20
-60.2949
11
26.7989
21
-60.2087
0
LINE
8
BLACK
6
CONTINUOUS
10
26.7989
20
-60.2087
11
26.7418
21
-60.1272
0
LINE
8
BLACK
6
CONTINUOUS
10
26.7418
20
-60.1272
11
26.7331
21
-60.0949
0
LINE
8
BLACK
6
CONTINUOUS
10
26.7331
20
-60.0949
11
26.7164
21
-60.0658
0
LINE
8
BLACK
6
CONTINUOUS
10
26.7164
20
-60.0658
11
26.6991
21
-59.9679
0
LINE
8
BLACK
6
CONTINUOUS
10
26.6991
20
-59.9679
11
26.6733
21
-59.8717
0
LINE
8
BLACK
6
CONTINUOUS
10
26.6733
20
-59.8717
11
26.682
21
-59.7726
0
LINE
8
BLACK
6
CONTINUOUS
10
26.682
20
-59.7726
11
26.682
21
-58.9524
0
LINE
8
BLACK
6
CONTINUOUS
10
26.682
20
-58.9524
11
26.632
21
-58.8151
0
LINE
8
BLACK
6
CONTINUOUS
10
26.632
20
-58.8151
11
26.632
21
-58.5329
0
LINE
8
BLACK
6
CONTINUOUS
10
26.632
20
-58.5329
11
26.7285
21
-58.2678
0
LINE
8
BLACK
6
CONTINUOUS
10
26.7285
20
-58.2678
11
26.9098
21
-58.0517
0
LINE
8
BLACK
6
CONTINUOUS
10
26.9098
20
-58.0517
11
27.1542
21
-57.9106
0
LINE
8
BLACK
6
CONTINUOUS
10
27.1542
20
-57.9106
11
27.362
21
-57.874
0
LINE
8
BLACK
6
CONTINUOUS
10
27.362
20
-57.874
11
27.502
21
-57.874
0
LINE
8
BLACK
6
CONTINUOUS
10
27.502
20
-57.874
11
27.7098
21
-57.9106
0
LINE
8
BLACK
6
CONTINUOUS
10
35.3298
20
-65.5306
11
35.5742
21
-65.6717
0
LINE
8
BLACK
6
CONTINUOUS
10
35.5742
20
-65.6717
11
35.7555
21
-65.8878
0
LINE
8
BLACK
6
CONTINUOUS
10
35.7555
20
-65.8878
11
35.852
21
-66.1529
0
LINE
8
BLACK
6
CONTINUOUS
10
35.852
20
-66.1529
11
35.852
21
-66.4351
0
LINE
8
BLACK
6
CONTINUOUS
10
35.852
20
-66.4351
11
35.7555
21
-66.7002
0
LINE
8
BLACK
6
CONTINUOUS
10
35.7555
20
-66.7002
11
35.5742
21
-66.9163
0
LINE
8
BLACK
6
CONTINUOUS
10
35.5742
20
-66.9163
11
35.552
21
-66.9291
0
LINE
8
BLACK
6
CONTINUOUS
10
35.552
20
-66.9291
11
35.552
21
-69.1572
0
LINE
8
BLACK
6
CONTINUOUS
10
35.552
20
-69.1572
11
35.6068
21
-69.1888
0
LINE
8
BLACK
6
CONTINUOUS
10
35.6068
20
-69.1888
11
35.7995
21
-69.4184
0
LINE
8
BLACK
6
CONTINUOUS
10
35.7995
20
-69.4184
11
35.902
21
-69.7001
0
LINE
8
BLACK
6
CONTINUOUS
10
35.902
20
-69.7001
11
35.902
21
-69.9999
0
LINE
8
BLACK
6
CONTINUOUS
10
35.902
20
-69.9999
11
35.7995
21
-70.2816
0
LINE
8
BLACK
6
CONTINUOUS
10
35.7995
20
-70.2816
11
35.6068
21
-70.5112
0
LINE
8
BLACK
6
CONTINUOUS
10
35.6068
20
-70.5112
11
35.3472
21
-70.6611
0
LINE
8
BLACK
6
CONTINUOUS
10
35.3472
20
-70.6611
11
35.1264
21
-70.7
0
LINE
8
BLACK
6
CONTINUOUS
10
35.1264
20
-70.7
11
34.9776
21
-70.7
0
LINE
8
BLACK
6
CONTINUOUS
10
34.9776
20
-70.7
11
34.7568
21
-70.6611
0
LINE
8
BLACK
6
CONTINUOUS
10
34.7568
20
-70.6611
11
34.4972
21
-70.5112
0
LINE
8
BLACK
6
CONTINUOUS
10
34.4972
20
-70.5112
11
34.3045
21
-70.2816
0
LINE
8
BLACK
6
CONTINUOUS
10
34.3045
20
-70.2816
11
34.202
21
-69.9999
0
LINE
8
BLACK
6
CONTINUOUS
10
34.202
20
-69.9999
11
34.202
21
-69.7001
0
LINE
8
BLACK
6
CONTINUOUS
10
34.202
20
-69.7001
11
34.3045
21
-69.4184
0
LINE
8
BLACK
6
CONTINUOUS
10
34.3045
20
-69.4184
11
34.4972
21
-69.1888
0
LINE
8
BLACK
6
CONTINUOUS
10
34.4972
20
-69.1888
11
34.552
21
-69.1572
0
LINE
8
BLACK
6
CONTINUOUS
10
34.552
20
-69.1572
11
34.552
21
-66.9291
0
LINE
8
BLACK
6
CONTINUOUS
10
34.552
20
-66.9291
11
34.5298
21
-66.9163
0
LINE
8
BLACK
6
CONTINUOUS
10
34.5298
20
-66.9163
11
34.3485
21
-66.7002
0
LINE
8
BLACK
6
CONTINUOUS
10
34.3485
20
-66.7002
11
34.252
21
-66.4351
0
LINE
8
BLACK
6
CONTINUOUS
10
34.252
20
-66.4351
11
34.252
21
-66.1529
0
LINE
8
BLACK
6
CONTINUOUS
10
34.252
20
-66.1529
11
34.3485
21
-65.8878
0
LINE
8
BLACK
6
CONTINUOUS
10
34.3485
20
-65.8878
11
34.5298
21
-65.6717
0
LINE
8
BLACK
6
CONTINUOUS
10
34.5298
20
-65.6717
11
34.7742
21
-65.5306
0
LINE
8
BLACK
6
CONTINUOUS
10
34.7742
20
-65.5306
11
34.982
21
-65.494
0
LINE
8
BLACK
6
CONTINUOUS
10
34.982
20
-65.494
11
35.122
21
-65.494
0
LINE
8
BLACK
6
CONTINUOUS
10
35.122
20
-65.494
11
35.3298
21
-65.5306
0
LINE
8
BLACK
6
CONTINUOUS
10
32.7898
20
-65.5306
11
33.0342
21
-65.6717
0
LINE
8
BLACK
6
CONTINUOUS
10
33.0342
20
-65.6717
11
33.2155
21
-65.8878
0
LINE
8
BLACK
6
CONTINUOUS
10
33.2155
20
-65.8878
11
33.312
21
-66.1529
0
LINE
8
BLACK
6
CONTINUOUS
10
33.312
20
-66.1529
11
33.312
21
-66.4351
0
LINE
8
BLACK
6
CONTINUOUS
10
33.312
20
-66.4351
11
33.2155
21
-66.7002
0
LINE
8
BLACK
6
CONTINUOUS
10
33.2155
20
-66.7002
11
33.0342
21
-66.9163
0
LINE
8
BLACK
6
CONTINUOUS
10
33.0342
20
-66.9163
11
33.012
21
-66.9291
0
LINE
8
BLACK
6
CONTINUOUS
10
33.012
20
-66.9291
11
33.012
21
-69.1572
0
LINE
8
BLACK
6
CONTINUOUS
10
33.012
20
-69.1572
11
33.0668
21
-69.1888
0
LINE
8
BLACK
6
CONTINUOUS
10
33.0668
20
-69.1888
11
33.2595
21
-69.4184
0
LINE
8
BLACK
6
CONTINUOUS
10
33.2595
20
-69.4184
11
33.362
21
-69.7001
0
LINE
8
BLACK
6
CONTINUOUS
10
33.362
20
-69.7001
11
33.362
21
-69.9999
0
LINE
8
BLACK
6
CONTINUOUS
10
33.362
20
-69.9999
11
33.2595
21
-70.2816
0
LINE
8
BLACK
6
CONTINUOUS
10
33.2595
20
-70.2816
11
33.0668
21
-70.5112
0
LINE
8
BLACK
6
CONTINUOUS
10
33.0668
20
-70.5112
11
32.8072
21
-70.6611
0
LINE
8
BLACK
6
CONTINUOUS
10
32.8072
20
-70.6611
11
32.5864
21
-70.7
0
LINE
8
BLACK
6
CONTINUOUS
10
32.5864
20
-70.7
11
32.4376
21
-70.7
0
LINE
8
BLACK
6
CONTINUOUS
10
32.4376
20
-70.7
11
32.2168
21
-70.6611
0
LINE
8
BLACK
6
CONTINUOUS
10
32.2168
20
-70.6611
11
31.9572
21
-70.5112
0
LINE
8
BLACK
6
CONTINUOUS
10
31.9572
20
-70.5112
11
31.7645
21
-70.2816
0
LINE
8
BLACK
6
CONTINUOUS
10
31.7645
20
-70.2816
11
31.662
21
-69.9999
0
LINE
8
BLACK
6
CONTINUOUS
10
31.662
20
-69.9999
11
31.662
21
-69.7001
0
LINE
8
BLACK
6
CONTINUOUS
10
31.662
20
-69.7001
11
31.7645
21
-69.4184
0
LINE
8
BLACK
6
CONTINUOUS
10
31.7645
20
-69.4184
11
31.9572
21
-69.1888
0
LINE
8
BLACK
6
CONTINUOUS
10
31.9572
20
-69.1888
11
32.012
21
-69.1572
0
LINE
8
BLACK
6
CONTINUOUS
10
32.012
20
-69.1572
11
32.012
21
-66.9291
0
LINE
8
BLACK
6
CONTINUOUS
10
32.012
20
-66.9291
11
31.9898
21
-66.9163
0
LINE
8
BLACK
6
CONTINUOUS
10
31.9898
20
-66.9163
11
31.8085
21
-66.7002
0
LINE
8
BLACK
6
CONTINUOUS
10
31.8085
20
-66.7002
11
31.712
21
-66.4351
0
LINE
8
BLACK
6
CONTINUOUS
10
31.712
20
-66.4351
11
31.712
21
-66.1529
0
LINE
8
BLACK
6
CONTINUOUS
10
31.712
20
-66.1529
11
31.8085
21
-65.8878
0
LINE
8
BLACK
6
CONTINUOUS
10
31.8085
20
-65.8878
11
31.9898
21
-65.6717
0
LINE
8
BLACK
6
CONTINUOUS
10
31.9898
20
-65.6717
11
32.2342
21
-65.5306
0
LINE
8
BLACK
6
CONTINUOUS
10
32.2342
20
-65.5306
11
32.442
21
-65.494
0
LINE
8
BLACK
6
CONTINUOUS
10
32.442
20
-65.494
11
32.582
21
-65.494
0
LINE
8
BLACK
6
CONTINUOUS
10
32.582
20
-65.494
11
32.7898
21
-65.5306
0
LINE
8
BLACK
6
CONTINUOUS
10
45.2563
20
-51.0562
11
45.3203
21
-51.0734
0
LINE
8
BLACK
6
CONTINUOUS
10
45.3203
20
-51.0734
11
45.3856
21
-51.0849
0
LINE
8
BLACK
6
CONTINUOUS
10
45.3856
20
-51.0849
11
45.405
21
-51.0961
0
LINE
8
BLACK
6
CONTINUOUS
10
45.405
20
-51.0961
11
45.4266
21
-51.1019
0
LINE
8
BLACK
6
CONTINUOUS
10
45.4266
20
-51.1019
11
45.4809
21
-51.1399
0
LINE
8
BLACK
6
CONTINUOUS
10
45.4809
20
-51.1399
11
45.5384
21
-51.1731
0
LINE
8
BLACK
6
CONTINUOUS
10
45.5384
20
-51.1731
11
45.581
21
-51.2239
0
LINE
8
BLACK
6
CONTINUOUS
10
45.581
20
-51.2239
11
47.4501
21
-53.093
0
LINE
8
BLACK
6
CONTINUOUS
10
47.4501
20
-53.093
11
47.5009
21
-53.1356
0
LINE
8
BLACK
6
CONTINUOUS
10
47.5009
20
-53.1356
11
47.5341
21
-53.1931
0
LINE
8
BLACK
6
CONTINUOUS
10
47.5341
20
-53.1931
11
47.5721
21
-53.2474
0
LINE
8
BLACK
6
CONTINUOUS
10
47.5721
20
-53.2474
11
47.5779
21
-53.269
0
LINE
8
BLACK
6
CONTINUOUS
10
47.5779
20
-53.269
11
47.5891
21
-53.2884
0
LINE
8
BLACK
6
CONTINUOUS
10
47.5891
20
-53.2884
11
47.6006
21
-53.3537
0
LINE
8
BLACK
6
CONTINUOUS
10
47.6006
20
-53.3537
11
47.6178
21
-53.4177
0
LINE
8
BLACK
6
CONTINUOUS
10
47.6178
20
-53.4177
11
47.612
21
-53.4838
0
LINE
8
BLACK
6
CONTINUOUS
10
47.612
20
-53.4838
11
47.612
21
-60.3322
0
LINE
8
BLACK
6
CONTINUOUS
10
47.612
20
-60.3322
11
47.6178
21
-60.3983
0
LINE
8
BLACK
6
CONTINUOUS
10
47.6178
20
-60.3983
11
47.6006
21
-60.4623
0
LINE
8
BLACK
6
CONTINUOUS
10
47.6006
20
-60.4623
11
47.5891
21
-60.5276
0
LINE
8
BLACK
6
CONTINUOUS
10
47.5891
20
-60.5276
11
47.5779
21
-60.547
0
LINE
8
BLACK
6
CONTINUOUS
10
47.5779
20
-60.547
11
47.5721
21
-60.5686
0
LINE
8
BLACK
6
CONTINUOUS
10
47.5721
20
-60.5686
11
47.5341
21
-60.6229
0
LINE
8
BLACK
6
CONTINUOUS
10
47.5341
20
-60.6229
11
47.5009
21
-60.6804
0
LINE
8
BLACK
6
CONTINUOUS
10
47.5009
20
-60.6804
11
47.4501
21
-60.723
0
LINE
8
BLACK
6
CONTINUOUS
10
47.4501
20
-60.723
11
43.972
21
-64.2011
0
LINE
8
BLACK
6
CONTINUOUS
10
43.972
20
-64.2011
11
43.972
21
-65.4722
0
LINE
8
BLACK
6
CONTINUOUS
10
43.972
20
-65.4722
11
43.9778
21
-65.5383
0
LINE
8
BLACK
6
CONTINUOUS
10
43.9778
20
-65.5383
11
43.9606
21
-65.6023
0
LINE
8
BLACK
6
CONTINUOUS
10
43.9606
20
-65.6023
11
43.9491
21
-65.6676
0
LINE
8
BLACK
6
CONTINUOUS
10
43.9491
20
-65.6676
11
43.9379
21
-65.687
0
LINE
8
BLACK
6
CONTINUOUS
10
43.9379
20
-65.687
11
43.9321
21
-65.7086
0
LINE
8
BLACK
6
CONTINUOUS
10
43.9321
20
-65.7086
11
43.8941
21
-65.7629
0
LINE
8
BLACK
6
CONTINUOUS
10
43.8941
20
-65.7629
11
43.8609
21
-65.8204
0
LINE
8
BLACK
6
CONTINUOUS
10
43.8609
20
-65.8204
11
43.8101
21
-65.863
0
LINE
8
BLACK
6
CONTINUOUS
10
43.8101
20
-65.863
11
43.472
21
-66.2011
0
LINE
8
BLACK
6
CONTINUOUS
10
43.472
20
-66.2011
11
43.472
21
-66.4351
0
LINE
8
BLACK
6
CONTINUOUS
10
43.472
20
-66.4351
11
43.3755
21
-66.7002
0
LINE
8
BLACK
6
CONTINUOUS
10
43.3755
20
-66.7002
11
43.1942
21
-66.9163
0
LINE
8
BLACK
6
CONTINUOUS
10
43.1942
20
-66.9163
11
42.9498
21
-67.0574
0
LINE
8
BLACK
6
CONTINUOUS
10
42.9498
20
-67.0574
11
42.742
21
-67.094
0
LINE
8
BLACK
6
CONTINUOUS
10
42.742
20
-67.094
11
42.602
21
-67.094
0
LINE
8
BLACK
6
CONTINUOUS
10
42.602
20
-67.094
11
42.3942
21
-67.0574
0
LINE
8
BLACK
6
CONTINUOUS
10
42.3942
20
-67.0574
11
42.1498
21
-66.9163
0
LINE
8
BLACK
6
CONTINUOUS
10
42.1498
20
-66.9163
11
41.9685
21
-66.7002
0
LINE
8
BLACK
6
CONTINUOUS
10
41.9685
20
-66.7002
11
41.872
21
-66.4351
0
LINE
8
BLACK
6
CONTINUOUS
10
41.872
20
-66.4351
11
41.872
21
-66.1529
0
LINE
8
BLACK
6
CONTINUOUS
10
41.872
20
-66.1529
11
41.9685
21
-65.8878
0
LINE
8
BLACK
6
CONTINUOUS
10
41.9685
20
-65.8878
11
42.1498
21
-65.6717
0
LINE
8
BLACK
6
CONTINUOUS
10
42.1498
20
-65.6717
11
42.3942
21
-65.5306
0
LINE
8
BLACK
6
CONTINUOUS
10
42.3942
20
-65.5306
11
42.602
21
-65.494
0
LINE
8
BLACK
6
CONTINUOUS
10
42.602
20
-65.494
11
42.742
21
-65.494
0
LINE
8
BLACK
6
CONTINUOUS
10
42.742
20
-65.494
11
42.7615
21
-65.4974
0
LINE
8
BLACK
6
CONTINUOUS
10
42.7615
20
-65.4974
11
42.972
21
-65.2869
0
LINE
8
BLACK
6
CONTINUOUS
10
42.972
20
-65.2869
11
42.972
21
-64.0158
0
LINE
8
BLACK
6
CONTINUOUS
10
42.972
20
-64.0158
11
42.9662
21
-63.9498
0
LINE
8
BLACK
6
CONTINUOUS
10
42.9662
20
-63.9498
11
42.9834
21
-63.8857
0
LINE
8
BLACK
6
CONTINUOUS
10
42.9834
20
-63.8857
11
42.9949
21
-63.8204
0
LINE
8
BLACK
6
CONTINUOUS
10
42.9949
20
-63.8204
11
43.0061
21
-63.801
0
LINE
8
BLACK
6
CONTINUOUS
10
43.0061
20
-63.801
11
43.0119
21
-63.7794
0
LINE
8
BLACK
6
CONTINUOUS
10
43.0119
20
-63.7794
11
43.0499
21
-63.7251
0
LINE
8
BLACK
6
CONTINUOUS
10
43.0499
20
-63.7251
11
43.0831
21
-63.6677
0
LINE
8
BLACK
6
CONTINUOUS
10
43.0831
20
-63.6677
11
43.1339
21
-63.625
0
LINE
8
BLACK
6
CONTINUOUS
10
43.1339
20
-63.625
11
46.612
21
-60.1469
0
LINE
8
BLACK
6
CONTINUOUS
10
46.612
20
-60.1469
11
46.612
21
-53.6691
0
LINE
8
BLACK
6
CONTINUOUS
10
46.612
20
-53.6691
11
45.0049
21
-52.062
0
LINE
8
BLACK
6
CONTINUOUS
10
45.0049
20
-52.062
11
44.5015
21
-52.062
0
LINE
8
BLACK
6
CONTINUOUS
10
44.5015
20
-52.062
11
44.4315
21
-52.1454
0
LINE
8
BLACK
6
CONTINUOUS
10
44.4315
20
-52.1454
11
44.2025
21
-52.2776
0
LINE
8
BLACK
6
CONTINUOUS
10
44.2025
20
-52.2776
11
43.942
21
-52.3236
0
LINE
8
BLACK
6
CONTINUOUS
10
43.942
20
-52.3236
11
43.6815
21
-52.2776
0
LINE
8
BLACK
6
CONTINUOUS
10
43.6815
20
-52.2776
11
43.4525
21
-52.1454
0
LINE
8
BLACK
6
CONTINUOUS
10
43.4525
20
-52.1454
11
43.2825
21
-51.9428
0
LINE
8
BLACK
6
CONTINUOUS
10
43.2825
20
-51.9428
11
43.192
21
-51.6942
0
LINE
8
BLACK
6
CONTINUOUS
10
43.192
20
-51.6942
11
43.192
21
-51.4298
0
LINE
8
BLACK
6
CONTINUOUS
10
43.192
20
-51.4298
11
43.2825
21
-51.1812
0
LINE
8
BLACK
6
CONTINUOUS
10
43.2825
20
-51.1812
11
43.4525
21
-50.9786
0
LINE
8
BLACK
6
CONTINUOUS
10
43.4525
20
-50.9786
11
43.6815
21
-50.8464
0
LINE
8
BLACK
6
CONTINUOUS
10
43.6815
20
-50.8464
11
43.942
21
-50.8004
0
LINE
8
BLACK
6
CONTINUOUS
10
43.942
20
-50.8004
11
44.2025
21
-50.8464
0
LINE
8
BLACK
6
CONTINUOUS
10
44.2025
20
-50.8464
11
44.4315
21
-50.9786
0
LINE
8
BLACK
6
CONTINUOUS
10
44.4315
20
-50.9786
11
44.5015
21
-51.062
0
LINE
8
BLACK
6
CONTINUOUS
10
44.5015
20
-51.062
11
45.1902
21
-51.062
0
LINE
8
BLACK
6
CONTINUOUS
10
45.1902
20
-51.062
11
45.2563
21
-51.0562
0
LINE
8
BLACK
6
CONTINUOUS
10
27.7098
20
-65.5306
11
27.9542
21
-65.6717
0
LINE
8
BLACK
6
CONTINUOUS
10
27.9542
20
-65.6717
11
28.1355
21
-65.8878
0
LINE
8
BLACK
6
CONTINUOUS
10
28.1355
20
-65.8878
11
28.232
21
-66.1529
0
LINE
8
BLACK
6
CONTINUOUS
10
28.232
20
-66.1529
11
28.232
21
-66.4351
0
LINE
8
BLACK
6
CONTINUOUS
10
28.232
20
-66.4351
11
28.1355
21
-66.7002
0
LINE
8
BLACK
6
CONTINUOUS
10
28.1355
20
-66.7002
11
27.9542
21
-66.9163
0
LINE
8
BLACK
6
CONTINUOUS
10
27.9542
20
-66.9163
11
27.7098
21
-67.0574
0
LINE
8
BLACK
6
CONTINUOUS
10
27.7098
20
-67.0574
11
27.502
21
-67.094
0
LINE
8
BLACK
6
CONTINUOUS
10
27.502
20
-67.094
11
27.362
21
-67.094
0
LINE
8
BLACK
6
CONTINUOUS
10
27.362
20
-67.094
11
27.1542
21
-67.0574
0
LINE
8
BLACK
6
CONTINUOUS
10
27.1542
20
-67.0574
11
26.9098
21
-66.9163
0
LINE
8
BLACK
6
CONTINUOUS
10
26.9098
20
-66.9163
11
26.7285
21
-66.7002
0
LINE
8
BLACK
6
CONTINUOUS
10
26.7285
20
-66.7002
11
26.632
21
-66.4351
0
LINE
8
BLACK
6
CONTINUOUS
10
26.632
20
-66.4351
11
26.632
21
-66.1529
0
LINE
8
BLACK
6
CONTINUOUS
10
26.632
20
-66.1529
11
26.7285
21
-65.8878
0
LINE
8
BLACK
6
CONTINUOUS
10
26.7285
20
-65.8878
11
26.9098
21
-65.6717
0
LINE
8
BLACK
6
CONTINUOUS
10
26.9098
20
-65.6717
11
27.1542
21
-65.5306
0
LINE
8
BLACK
6
CONTINUOUS
10
27.1542
20
-65.5306
11
27.362
21
-65.494
0
LINE
8
BLACK
6
CONTINUOUS
10
27.362
20
-65.494
11
27.502
21
-65.494
0
LINE
8
BLACK
6
CONTINUOUS
10
27.502
20
-65.494
11
27.7098
21
-65.5306
0
LINE
8
BLACK
6
CONTINUOUS
10
44.2025
20
-40.6864
11
44.4315
21
-40.8186
0
LINE
8
BLACK
6
CONTINUOUS
10
44.4315
20
-40.8186
11
44.5015
21
-40.902
0
LINE
8
BLACK
6
CONTINUOUS
10
44.5015
20
-40.902
11
44.9808
21
-40.902
0
LINE
8
BLACK
6
CONTINUOUS
10
44.9808
20
-40.902
11
45.0469
21
-40.8962
0
LINE
8
BLACK
6
CONTINUOUS
10
45.0469
20
-40.8962
11
45.111
21
-40.9134
0
LINE
8
BLACK
6
CONTINUOUS
10
45.111
20
-40.9134
11
45.1763
21
-40.9249
0
LINE
8
BLACK
6
CONTINUOUS
10
45.1763
20
-40.9249
11
45.1957
21
-40.9361
0
LINE
8
BLACK
6
CONTINUOUS
10
45.1957
20
-40.9361
11
45.2172
21
-40.9419
0
LINE
8
BLACK
6
CONTINUOUS
10
45.2172
20
-40.9419
11
45.2716
21
-40.9799
0
LINE
8
BLACK
6
CONTINUOUS
10
45.2716
20
-40.9799
11
45.329
21
-41.0131
0
LINE
8
BLACK
6
CONTINUOUS
10
45.329
20
-41.0131
11
45.3717
21
-41.0639
0
LINE
8
BLACK
6
CONTINUOUS
10
45.3717
20
-41.0639
11
49.1061
21
-44.7984
0
LINE
8
BLACK
6
CONTINUOUS
10
49.1061
20
-44.7984
11
49.1569
21
-44.841
0
LINE
8
BLACK
6
CONTINUOUS
10
49.1569
20
-44.841
11
49.1901
21
-44.8984
0
LINE
8
BLACK
6
CONTINUOUS
10
49.1901
20
-44.8984
11
49.2281
21
-44.9528
0
LINE
8
BLACK
6
CONTINUOUS
10
49.2281
20
-44.9528
11
49.2339
21
-44.9743
0
LINE
8
BLACK
6
CONTINUOUS
10
49.2339
20
-44.9743
11
49.2451
21
-44.9937
0
LINE
8
BLACK
6
CONTINUOUS
10
49.2451
20
-44.9937
11
49.2566
21
-45.059
0
LINE
8
BLACK
6
CONTINUOUS
10
49.2566
20
-45.059
11
49.2738
21
-45.1231
0
LINE
8
BLACK
6
CONTINUOUS
10
49.2738
20
-45.1231
11
49.268
21
-45.1892
0
LINE
8
BLACK
6
CONTINUOUS
10
49.268
20
-45.1892
11
49.268
21
-62.4989
0
LINE
8
BLACK
6
CONTINUOUS
10
49.268
20
-62.4989
11
49.3836
21
-62.6366
0
LINE
8
BLACK
6
CONTINUOUS
10
49.3836
20
-62.6366
11
49.468
21
-62.8686
0
LINE
8
BLACK
6
CONTINUOUS
10
49.468
20
-62.8686
11
49.468
21
-63.1154
0
LINE
8
BLACK
6
CONTINUOUS
10
49.468
20
-63.1154
11
49.3836
21
-63.3474
0
LINE
8
BLACK
6
CONTINUOUS
10
49.3836
20
-63.3474
11
49.2249
21
-63.5365
0
LINE
8
BLACK
6
CONTINUOUS
10
49.2249
20
-63.5365
11
49.0111
21
-63.6599
0
LINE
8
BLACK
6
CONTINUOUS
10
49.0111
20
-63.6599
11
48.768
21
-63.7028
0
LINE
8
BLACK
6
CONTINUOUS
10
48.768
20
-63.7028
11
48.5249
21
-63.6599
0
LINE
8
BLACK
6
CONTINUOUS
10
48.5249
20
-63.6599
11
48.3111
21
-63.5365
0
LINE
8
BLACK
6
CONTINUOUS
10
48.3111
20
-63.5365
11
48.1524
21
-63.3474
0
LINE
8
BLACK
6
CONTINUOUS
10
48.1524
20
-63.3474
11
48.068
21
-63.1154
0
LINE
8
BLACK
6
CONTINUOUS
10
48.068
20
-63.1154
11
48.068
21
-62.8686
0
LINE
8
BLACK
6
CONTINUOUS
10
48.068
20
-62.8686
11
48.1524
21
-62.6366
0
LINE
8
BLACK
6
CONTINUOUS
10
48.1524
20
-62.6366
11
48.268
21
-62.4989
0
LINE
8
BLACK
6
CONTINUOUS
10
48.268
20
-62.4989
11
48.268
21
-45.3744
0
LINE
8
BLACK
6
CONTINUOUS
10
48.268
20
-45.3744
11
44.7956
21
-41.902
0
LINE
8
BLACK
6
CONTINUOUS
10
44.7956
20
-41.902
11
44.5015
21
-41.902
0
LINE
8
BLACK
6
CONTINUOUS
10
44.5015
20
-41.902
11
44.4315
21
-41.9854
0
LINE
8
BLACK
6
CONTINUOUS
10
44.4315
20
-41.9854
11
44.2025
21
-42.1176
0
LINE
8
BLACK
6
CONTINUOUS
10
44.2025
20
-42.1176
11
43.942
21
-42.1636
0
LINE
8
BLACK
6
CONTINUOUS
10
43.942
20
-42.1636
11
43.6815
21
-42.1176
0
LINE
8
BLACK
6
CONTINUOUS
10
43.6815
20
-42.1176
11
43.4525
21
-41.9854
0
LINE
8
BLACK
6
CONTINUOUS
10
43.4525
20
-41.9854
11
43.2825
21
-41.7828
0
LINE
8
BLACK
6
CONTINUOUS
10
43.2825
20
-41.7828
11
43.192
21
-41.5342
0
LINE
8
BLACK
6
CONTINUOUS
10
43.192
20
-41.5342
11
43.192
21
-41.2698
0
LINE
8
BLACK
6
CONTINUOUS
10
43.192
20
-41.2698
11
43.2825
21
-41.0212
0
LINE
8
BLACK
6
CONTINUOUS
10
43.2825
20
-41.0212
11
43.4525
21
-40.8186
0
LINE
8
BLACK
6
CONTINUOUS
10
43.4525
20
-40.8186
11
43.6815
21
-40.6864
0
LINE
8
BLACK
6
CONTINUOUS
10
43.6815
20
-40.6864
11
43.942
21
-40.6404
0
LINE
8
BLACK
6
CONTINUOUS
10
43.942
20
-40.6404
11
44.2025
21
-40.6864
0
LINE
8
BLACK
6
CONTINUOUS
10
46.012
20
-59.474
11
45.3731
21
-59.474
0
LINE
8
BLACK
6
CONTINUOUS
10
45.3731
20
-59.474
11
41.848
21
-62.9991
0
LINE
8
BLACK
6
CONTINUOUS
10
41.848
20
-62.9991
11
41.848
21
-63.1154
0
LINE
8
BLACK
6
CONTINUOUS
10
41.848
20
-63.1154
11
41.7636
21
-63.3474
0
LINE
8
BLACK
6
CONTINUOUS
10
41.7636
20
-63.3474
11
41.6049
21
-63.5365
0
LINE
8
BLACK
6
CONTINUOUS
10
41.6049
20
-63.5365
11
41.3911
21
-63.6599
0
LINE
8
BLACK
6
CONTINUOUS
10
41.3911
20
-63.6599
11
41.2092
21
-63.692
0
LINE
8
BLACK
6
CONTINUOUS
10
41.2092
20
-63.692
11
41.0868
21
-63.692
0
LINE
8
BLACK
6
CONTINUOUS
10
41.0868
20
-63.692
11
40.9049
21
-63.6599
0
LINE
8
BLACK
6
CONTINUOUS
10
40.9049
20
-63.6599
11
40.6911
21
-63.5365
0
LINE
8
BLACK
6
CONTINUOUS
10
40.6911
20
-63.5365
11
40.5324
21
-63.3474
0
LINE
8
BLACK
6
CONTINUOUS
10
40.5324
20
-63.3474
11
40.448
21
-63.1154
0
LINE
8
BLACK
6
CONTINUOUS
10
40.448
20
-63.1154
11
40.448
21
-62.8686
0
LINE
8
BLACK
6
CONTINUOUS
10
40.448
20
-62.8686
11
40.5324
21
-62.6366
0
LINE
8
BLACK
6
CONTINUOUS
10
40.5324
20
-62.6366
11
40.6911
21
-62.4475
0
LINE
8
BLACK
6
CONTINUOUS
10
40.6911
20
-62.4475
11
40.9049
21
-62.3241
0
LINE
8
BLACK
6
CONTINUOUS
10
40.9049
20
-62.3241
11
41.0868
21
-62.292
0
LINE
8
BLACK
6
CONTINUOUS
10
41.0868
20
-62.292
11
41.1409
21
-62.292
0
LINE
8
BLACK
6
CONTINUOUS
10
41.1409
20
-62.292
11
44.412
21
-59.0209
0
LINE
8
BLACK
6
CONTINUOUS
10
44.412
20
-59.0209
11
44.412
21
-57.874
0
LINE
8
BLACK
6
CONTINUOUS
10
44.412
20
-57.874
11
46.012
21
-57.874
0
LINE
8
BLACK
6
CONTINUOUS
10
46.012
20
-57.874
11
46.012
21
-59.474
0
LINE
8
BLACK
6
CONTINUOUS
10
43.1942
20
-58.0517
11
43.3755
21
-58.2678
0
LINE
8
BLACK
6
CONTINUOUS
10
43.3755
20
-58.2678
11
43.472
21
-58.5329
0
LINE
8
BLACK
6
CONTINUOUS
10
43.472
20
-58.5329
11
43.472
21
-58.8151
0
LINE
8
BLACK
6
CONTINUOUS
10
43.472
20
-58.8151
11
43.3755
21
-59.0802
0
LINE
8
BLACK
6
CONTINUOUS
10
43.3755
20
-59.0802
11
43.1942
21
-59.2963
0
LINE
8
BLACK
6
CONTINUOUS
10
43.1942
20
-59.2963
11
42.9498
21
-59.4374
0
LINE
8
BLACK
6
CONTINUOUS
10
42.9498
20
-59.4374
11
42.742
21
-59.474
0
LINE
8
BLACK
6
CONTINUOUS
10
42.742
20
-59.474
11
42.602
21
-59.474
0
LINE
8
BLACK
6
CONTINUOUS
10
42.602
20
-59.474
11
42.3942
21
-59.4374
0
LINE
8
BLACK
6
CONTINUOUS
10
42.3942
20
-59.4374
11
42.1498
21
-59.2963
0
LINE
8
BLACK
6
CONTINUOUS
10
42.1498
20
-59.2963
11
41.9685
21
-59.0802
0
LINE
8
BLACK
6
CONTINUOUS
10
41.9685
20
-59.0802
11
41.872
21
-58.8151
0
LINE
8
BLACK
6
CONTINUOUS
10
41.872
20
-58.8151
11
41.872
21
-58.5329
0
LINE
8
BLACK
6
CONTINUOUS
10
41.872
20
-58.5329
11
41.9685
21
-58.2678
0
LINE
8
BLACK
6
CONTINUOUS
10
41.9685
20
-58.2678
11
42.1498
21
-58.0517
0
LINE
8
BLACK
6
CONTINUOUS
10
42.1498
20
-58.0517
11
42.172
21
-58.0389
0
LINE
8
BLACK
6
CONTINUOUS
10
42.172
20
-58.0389
11
42.172
21
-57.4989
0
LINE
8
BLACK
6
CONTINUOUS
10
42.172
20
-57.4989
11
42.172
21
-57.4989
0
LINE
8
BLACK
6
CONTINUOUS
10
42.172
20
-57.4989
11
42.172
21
-56.26
0
LINE
8
BLACK
6
CONTINUOUS
10
42.172
20
-56.26
11
33.778
21
-47.866
0
LINE
8
BLACK
6
CONTINUOUS
10
33.778
20
-47.866
11
29.6078
21
-47.866
0
LINE
8
BLACK
6
CONTINUOUS
10
29.6078
20
-47.866
11
29.5418
21
-47.8718
0
LINE
8
BLACK
6
CONTINUOUS
10
29.5418
20
-47.8718
11
29.4777
21
-47.8546
0
LINE
8
BLACK
6
CONTINUOUS
10
29.4777
20
-47.8546
11
29.4124
21
-47.8431
0
LINE
8
BLACK
6
CONTINUOUS
10
29.4124
20
-47.8431
11
29.393
21
-47.8319
0
LINE
8
BLACK
6
CONTINUOUS
10
29.393
20
-47.8319
11
29.3714
21
-47.8261
0
LINE
8
BLACK
6
CONTINUOUS
10
29.3714
20
-47.8261
11
29.3171
21
-47.7881
0
LINE
8
BLACK
6
CONTINUOUS
10
29.3171
20
-47.7881
11
29.2596
21
-47.7549
0
LINE
8
BLACK
6
CONTINUOUS
10
29.2596
20
-47.7549
11
29.217
21
-47.7041
0
LINE
8
BLACK
6
CONTINUOUS
10
29.217
20
-47.7041
11
28.7483
21
-47.2354
0
LINE
8
BLACK
6
CONTINUOUS
10
28.7483
20
-47.2354
11
28.702
21
-47.2436
0
LINE
8
BLACK
6
CONTINUOUS
10
28.702
20
-47.2436
11
28.4415
21
-47.1976
0
LINE
8
BLACK
6
CONTINUOUS
10
28.4415
20
-47.1976
11
28.2125
21
-47.0654
0
LINE
8
BLACK
6
CONTINUOUS
10
28.2125
20
-47.0654
11
28.0425
21
-46.8628
0
LINE
8
BLACK
6
CONTINUOUS
10
28.0425
20
-46.8628
11
27.952
21
-46.6142
0
LINE
8
BLACK
6
CONTINUOUS
10
27.952
20
-46.6142
11
27.952
21
-46.3498
0
LINE
8
BLACK
6
CONTINUOUS
10
27.952
20
-46.3498
11
28.0425
21
-46.1012
0
LINE
8
BLACK
6
CONTINUOUS
10
28.0425
20
-46.1012
11
28.2125
21
-45.8986
0
LINE
8
BLACK
6
CONTINUOUS
10
28.2125
20
-45.8986
11
28.4415
21
-45.7664
0
LINE
8
BLACK
6
CONTINUOUS
10
28.4415
20
-45.7664
11
28.702
21
-45.7204
0
LINE
8
BLACK
6
CONTINUOUS
10
28.702
20
-45.7204
11
28.9625
21
-45.7664
0
LINE
8
BLACK
6
CONTINUOUS
10
28.9625
20
-45.7664
11
29.1915
21
-45.8986
0
LINE
8
BLACK
6
CONTINUOUS
10
29.1915
20
-45.8986
11
29.3615
21
-46.1012
0
LINE
8
BLACK
6
CONTINUOUS
10
29.3615
20
-46.1012
11
29.452
21
-46.3498
0
LINE
8
BLACK
6
CONTINUOUS
10
29.452
20
-46.3498
11
29.452
21
-46.5249
0
LINE
8
BLACK
6
CONTINUOUS
10
29.452
20
-46.5249
11
29.7931
21
-46.866
0
LINE
8
BLACK
6
CONTINUOUS
10
29.7931
20
-46.866
11
33.9633
21
-46.866
0
LINE
8
BLACK
6
CONTINUOUS
10
33.9633
20
-46.866
11
34.0294
21
-46.8602
0
LINE
8
BLACK
6
CONTINUOUS
10
34.0294
20
-46.8602
11
34.0934
21
-46.8774
0
LINE
8
BLACK
6
CONTINUOUS
10
34.0934
20
-46.8774
11
34.1587
21
-46.8889
0
LINE
8
BLACK
6
CONTINUOUS
10
34.1587
20
-46.8889
11
34.1781
21
-46.9001
0
LINE
8
BLACK
6
CONTINUOUS
10
34.1781
20
-46.9001
11
34.1997
21
-46.9059
0
LINE
8
BLACK
6
CONTINUOUS
10
34.1997
20
-46.9059
11
34.254
21
-46.9439
0
LINE
8
BLACK
6
CONTINUOUS
10
34.254
20
-46.9439
11
34.3115
21
-46.9771
0
LINE
8
BLACK
6
CONTINUOUS
10
34.3115
20
-46.9771
11
34.3541
21
-47.0279
0
LINE
8
BLACK
6
CONTINUOUS
10
34.3541
20
-47.0279
11
43.0101
21
-55.6839
0
LINE
8
BLACK
6
CONTINUOUS
10
43.0101
20
-55.6839
11
43.0609
21
-55.7265
0
LINE
8
BLACK
6
CONTINUOUS
10
43.0609
20
-55.7265
11
43.0941
21
-55.784
0
LINE
8
BLACK
6
CONTINUOUS
10
43.0941
20
-55.784
11
43.1321
21
-55.8383
0
LINE
8
BLACK
6
CONTINUOUS
10
43.1321
20
-55.8383
11
43.1379
21
-55.8599
0
LINE
8
BLACK
6
CONTINUOUS
10
43.1379
20
-55.8599
11
43.1491
21
-55.8793
0
LINE
8
BLACK
6
CONTINUOUS
10
43.1491
20
-55.8793
11
43.1606
21
-55.9446
0
LINE
8
BLACK
6
CONTINUOUS
10
43.1606
20
-55.9446
11
43.1778
21
-56.0086
0
LINE
8
BLACK
6
CONTINUOUS
10
43.1778
20
-56.0086
11
43.172
21
-56.0747
0
LINE
8
BLACK
6
CONTINUOUS
10
43.172
20
-56.0747
11
43.172
21
-58.0389
0
LINE
8
BLACK
6
CONTINUOUS
10
43.172
20
-58.0389
11
43.1942
21
-58.0517
0
LINE
8
BLACK
6
CONTINUOUS
10
40.6542
20
-58.0517
11
40.8355
21
-58.2678
0
LINE
8
BLACK
6
CONTINUOUS
10
40.8355
20
-58.2678
11
40.932
21
-58.5329
0
LINE
8
BLACK
6
CONTINUOUS
10
40.932
20
-58.5329
11
40.932
21
-58.8151
0
LINE
8
BLACK
6
CONTINUOUS
10
40.932
20
-58.8151
11
40.8355
21
-59.0802
0
LINE
8
BLACK
6
CONTINUOUS
10
40.8355
20
-59.0802
11
40.6542
21
-59.2963
0
LINE
8
BLACK
6
CONTINUOUS
10
40.6542
20
-59.2963
11
40.4098
21
-59.4374
0
LINE
8
BLACK
6
CONTINUOUS
10
40.4098
20
-59.4374
11
40.202
21
-59.474
0
LINE
8
BLACK
6
CONTINUOUS
10
40.202
20
-59.474
11
40.062
21
-59.474
0
LINE
8
BLACK
6
CONTINUOUS
10
40.062
20
-59.474
11
39.8542
21
-59.4374
0
LINE
8
BLACK
6
CONTINUOUS
10
39.8542
20
-59.4374
11
39.6098
21
-59.2963
0
LINE
8
BLACK
6
CONTINUOUS
10
39.6098
20
-59.2963
11
39.4285
21
-59.0802
0
LINE
8
BLACK
6
CONTINUOUS
10
39.4285
20
-59.0802
11
39.332
21
-58.8151
0
LINE
8
BLACK
6
CONTINUOUS
10
39.332
20
-58.8151
11
39.332
21
-58.5329
0
LINE
8
BLACK
6
CONTINUOUS
10
39.332
20
-58.5329
11
39.4285
21
-58.2678
0
LINE
8
BLACK
6
CONTINUOUS
10
39.4285
20
-58.2678
11
39.6098
21
-58.0517
0
LINE
8
BLACK
6
CONTINUOUS
10
39.6098
20
-58.0517
11
39.632
21
-58.0389
0
LINE
8
BLACK
6
CONTINUOUS
10
39.632
20
-58.0389
11
39.632
21
-57.4989
0
LINE
8
BLACK
6
CONTINUOUS
10
39.632
20
-57.4989
11
39.632
21
-57.4989
0
LINE
8
BLACK
6
CONTINUOUS
10
39.632
20
-57.4989
11
39.632
21
-55.9828
0
LINE
8
BLACK
6
CONTINUOUS
10
39.632
20
-55.9828
11
34.9612
21
-51.312
0
LINE
8
BLACK
6
CONTINUOUS
10
34.9612
20
-51.312
11
29.6591
21
-51.312
0
LINE
8
BLACK
6
CONTINUOUS
10
29.6591
20
-51.312
11
29.452
21
-51.5191
0
LINE
8
BLACK
6
CONTINUOUS
10
29.452
20
-51.5191
11
29.452
21
-51.6942
0
LINE
8
BLACK
6
CONTINUOUS
10
29.452
20
-51.6942
11
29.3615
21
-51.9428
0
LINE
8
BLACK
6
CONTINUOUS
10
29.3615
20
-51.9428
11
29.1915
21
-52.1454
0
LINE
8
BLACK
6
CONTINUOUS
10
29.1915
20
-52.1454
11
28.9625
21
-52.2776
0
LINE
8
BLACK
6
CONTINUOUS
10
28.9625
20
-52.2776
11
28.702
21
-52.3236
0
LINE
8
BLACK
6
CONTINUOUS
10
28.702
20
-52.3236
11
28.4415
21
-52.2776
0
LINE
8
BLACK
6
CONTINUOUS
10
28.4415
20
-52.2776
11
28.2125
21
-52.1454
0
LINE
8
BLACK
6
CONTINUOUS
10
28.2125
20
-52.1454
11
28.0425
21
-51.9428
0
LINE
8
BLACK
6
CONTINUOUS
10
28.0425
20
-51.9428
11
27.952
21
-51.6942
0
LINE
8
BLACK
6
CONTINUOUS
10
27.952
20
-51.6942
11
27.952
21
-51.4298
0
LINE
8
BLACK
6
CONTINUOUS
10
27.952
20
-51.4298
11
28.0425
21
-51.1812
0
LINE
8
BLACK
6
CONTINUOUS
10
28.0425
20
-51.1812
11
28.2125
21
-50.9786
0
LINE
8
BLACK
6
CONTINUOUS
10
28.2125
20
-50.9786
11
28.4415
21
-50.8464
0
LINE
8
BLACK
6
CONTINUOUS
10
28.4415
20
-50.8464
11
28.702
21
-50.8004
0
LINE
8
BLACK
6
CONTINUOUS
10
28.702
20
-50.8004
11
28.7483
21
-50.8086
0
LINE
8
BLACK
6
CONTINUOUS
10
28.7483
20
-50.8086
11
29.083
21
-50.4739
0
LINE
8
BLACK
6
CONTINUOUS
10
29.083
20
-50.4739
11
29.1256
21
-50.4231
0
LINE
8
BLACK
6
CONTINUOUS
10
29.1256
20
-50.4231
11
29.1831
21
-50.3899
0
LINE
8
BLACK
6
CONTINUOUS
10
29.1831
20
-50.3899
11
29.2374
21
-50.3519
0
LINE
8
BLACK
6
CONTINUOUS
10
29.2374
20
-50.3519
11
29.259
21
-50.3461
0
LINE
8
BLACK
6
CONTINUOUS
10
29.259
20
-50.3461
11
29.2784
21
-50.3349
0
LINE
8
BLACK
6
CONTINUOUS
10
29.2784
20
-50.3349
11
29.3437
21
-50.3234
0
LINE
8
BLACK
6
CONTINUOUS
10
29.3437
20
-50.3234
11
29.4077
21
-50.3062
0
LINE
8
BLACK
6
CONTINUOUS
10
29.4077
20
-50.3062
11
29.4738
21
-50.312
0
LINE
8
BLACK
6
CONTINUOUS
10
29.4738
20
-50.312
11
35.1465
21
-50.312
0
LINE
8
BLACK
6
CONTINUOUS
10
35.1465
20
-50.312
11
35.2126
21
-50.3062
0
LINE
8
BLACK
6
CONTINUOUS
10
35.2126
20
-50.3062
11
35.2767
21
-50.3234
0
LINE
8
BLACK
6
CONTINUOUS
10
35.2767
20
-50.3234
11
35.342
21
-50.3349
0
LINE
8
BLACK
6
CONTINUOUS
10
35.342
20
-50.3349
11
35.3613
21
-50.3461
0
LINE
8
BLACK
6
CONTINUOUS
10
35.3613
20
-50.3461
11
35.3829
21
-50.3519
0
LINE
8
BLACK
6
CONTINUOUS
10
35.3829
20
-50.3519
11
35.4372
21
-50.3899
0
LINE
8
BLACK
6
CONTINUOUS
10
35.4372
20
-50.3899
11
35.4947
21
-50.4231
0
LINE
8
BLACK
6
CONTINUOUS
10
35.4947
20
-50.4231
11
35.5373
21
-50.4739
0
LINE
8
BLACK
6
CONTINUOUS
10
35.5373
20
-50.4739
11
40.4701
21
-55.4067
0
LINE
8
BLACK
6
CONTINUOUS
10
40.4701
20
-55.4067
11
40.5209
21
-55.4493
0
LINE
8
BLACK
6
CONTINUOUS
10
40.5209
20
-55.4493
11
40.5541
21
-55.5068
0
LINE
8
BLACK
6
CONTINUOUS
10
40.5541
20
-55.5068
11
40.5921
21
-55.5611
0
LINE
8
BLACK
6
CONTINUOUS
10
40.5921
20
-55.5611
11
40.5979
21
-55.5827
0
LINE
8
BLACK
6
CONTINUOUS
10
40.5979
20
-55.5827
11
40.6091
21
-55.602
0
LINE
8
BLACK
6
CONTINUOUS
10
40.6091
20
-55.602
11
40.6206
21
-55.6673
0
LINE
8
BLACK
6
CONTINUOUS
10
40.6206
20
-55.6673
11
40.6378
21
-55.7314
0
LINE
8
BLACK
6
CONTINUOUS
10
40.6378
20
-55.7314
11
40.632
21
-55.7975
0
LINE
8
BLACK
6
CONTINUOUS
10
40.632
20
-55.7975
11
40.632
21
-58.0389
0
LINE
8
BLACK
6
CONTINUOUS
10
40.632
20
-58.0389
11
40.6542
21
-58.0517
0
LINE
8
BLACK
6
CONTINUOUS
10
38.1142
20
-58.0517
11
38.2955
21
-58.2678
0
LINE
8
BLACK
6
CONTINUOUS
10
38.2955
20
-58.2678
11
38.392
21
-58.5329
0
LINE
8
BLACK
6
CONTINUOUS
10
38.392
20
-58.5329
11
38.392
21
-58.8151
0
LINE
8
BLACK
6
CONTINUOUS
10
38.392
20
-58.8151
11
38.2955
21
-59.0802
0
LINE
8
BLACK
6
CONTINUOUS
10
38.2955
20
-59.0802
11
38.1142
21
-59.2963
0
LINE
8
BLACK
6
CONTINUOUS
10
38.1142
20
-59.2963
11
37.8698
21
-59.4374
0
LINE
8
BLACK
6
CONTINUOUS
10
37.8698
20
-59.4374
11
37.662
21
-59.474
0
LINE
8
BLACK
6
CONTINUOUS
10
37.662
20
-59.474
11
37.522
21
-59.474
0
LINE
8
BLACK
6
CONTINUOUS
10
37.522
20
-59.474
11
37.3142
21
-59.4374
0
LINE
8
BLACK
6
CONTINUOUS
10
37.3142
20
-59.4374
11
37.0698
21
-59.2963
0
LINE
8
BLACK
6
CONTINUOUS
10
37.0698
20
-59.2963
11
36.8885
21
-59.0802
0
LINE
8
BLACK
6
CONTINUOUS
10
36.8885
20
-59.0802
11
36.792
21
-58.8151
0
LINE
8
BLACK
6
CONTINUOUS
10
36.792
20
-58.8151
11
36.792
21
-58.5329
0
LINE
8
BLACK
6
CONTINUOUS
10
36.792
20
-58.5329
11
36.8885
21
-58.2678
0
LINE
8
BLACK
6
CONTINUOUS
10
36.8885
20
-58.2678
11
37.0698
21
-58.0517
0
LINE
8
BLACK
6
CONTINUOUS
10
37.0698
20
-58.0517
11
37.092
21
-58.0389
0
LINE
8
BLACK
6
CONTINUOUS
10
37.092
20
-58.0389
11
37.092
21
-57.4989
0
LINE
8
BLACK
6
CONTINUOUS
10
37.092
20
-57.4989
11
37.092
21
-57.4989
0
LINE
8
BLACK
6
CONTINUOUS
10
37.092
20
-57.4989
11
37.092
21
-55.7055
0
LINE
8
BLACK
6
CONTINUOUS
10
37.092
20
-55.7055
11
34.7185
21
-53.332
0
LINE
8
BLACK
6
CONTINUOUS
10
34.7185
20
-53.332
11
33.7171
21
-53.332
0
LINE
8
BLACK
6
CONTINUOUS
10
33.7171
20
-53.332
11
32.985
21
-54.0641
0
LINE
8
BLACK
6
CONTINUOUS
10
32.985
20
-54.0641
11
32.9424
21
-54.1149
0
LINE
8
BLACK
6
CONTINUOUS
10
32.9424
20
-54.1149
11
32.8849
21
-54.1481
0
LINE
8
BLACK
6
CONTINUOUS
10
32.8849
20
-54.1481
11
32.8306
21
-54.1861
0
LINE
8
BLACK
6
CONTINUOUS
10
32.8306
20
-54.1861
11
32.809
21
-54.1919
0
LINE
8
BLACK
6
CONTINUOUS
10
32.809
20
-54.1919
11
32.7896
21
-54.2031
0
LINE
8
BLACK
6
CONTINUOUS
10
32.7896
20
-54.2031
11
32.7243
21
-54.2146
0
LINE
8
BLACK
6
CONTINUOUS
10
32.7243
20
-54.2146
11
32.6602
21
-54.2318
0
LINE
8
BLACK
6
CONTINUOUS
10
32.6602
20
-54.2318
11
32.5942
21
-54.226
0
LINE
8
BLACK
6
CONTINUOUS
10
32.5942
20
-54.226
11
29.452
21
-54.226
0
LINE
8
BLACK
6
CONTINUOUS
10
29.452
20
-54.226
11
29.452
21
-54.852
0
LINE
8
BLACK
6
CONTINUOUS
10
29.452
20
-54.852
11
27.952
21
-54.852
0
LINE
8
BLACK
6
CONTINUOUS
10
27.952
20
-54.852
11
27.952
21
-53.352
0
LINE
8
BLACK
6
CONTINUOUS
10
27.952
20
-53.352
11
28.7391
21
-53.352
0
LINE
8
BLACK
6
CONTINUOUS
10
28.7391
20
-53.352
11
28.7516
21
-53.3371
0
LINE
8
BLACK
6
CONTINUOUS
10
28.7516
20
-53.3371
11
28.8091
21
-53.3039
0
LINE
8
BLACK
6
CONTINUOUS
10
28.8091
20
-53.3039
11
28.8634
21
-53.2659
0
LINE
8
BLACK
6
CONTINUOUS
10
28.8634
20
-53.2659
11
28.885
21
-53.2601
0
LINE
8
BLACK
6
CONTINUOUS
10
28.885
20
-53.2601
11
28.9044
21
-53.2489
0
LINE
8
BLACK
6
CONTINUOUS
10
28.9044
20
-53.2489
11
28.9697
21
-53.2374
0
LINE
8
BLACK
6
CONTINUOUS
10
28.9697
20
-53.2374
11
29.0338
21
-53.2202
0
LINE
8
BLACK
6
CONTINUOUS
10
29.0338
20
-53.2202
11
29.0998
21
-53.226
0
LINE
8
BLACK
6
CONTINUOUS
10
29.0998
20
-53.226
11
32.4089
21
-53.226
0
LINE
8
BLACK
6
CONTINUOUS
10
32.4089
20
-53.226
11
33.141
21
-52.4939
0
LINE
8
BLACK
6
CONTINUOUS
10
33.141
20
-52.4939
11
33.1836
21
-52.4431
0
LINE
8
BLACK
6
CONTINUOUS
10
33.1836
20
-52.4431
11
33.2411
21
-52.4099
0
LINE
8
BLACK
6
CONTINUOUS
10
33.2411
20
-52.4099
11
33.2954
21
-52.3719
0
LINE
8
BLACK
6
CONTINUOUS
10
33.2954
20
-52.3719
11
33.317
21
-52.3661
0
LINE
8
BLACK
6
CONTINUOUS
10
33.317
20
-52.3661
11
33.3363
21
-52.3549
0
LINE
8
BLACK
6
CONTINUOUS
10
33.3363
20
-52.3549
11
33.4017
21
-52.3434
0
LINE
8
BLACK
6
CONTINUOUS
10
33.4017
20
-52.3434
11
33.4657
21
-52.3262
0
LINE
8
BLACK
6
CONTINUOUS
10
33.4657
20
-52.3262
11
33.5318
21
-52.332
0
LINE
8
BLACK
6
CONTINUOUS
10
33.5318
20
-52.332
11
34.9038
21
-52.332
0
LINE
8
BLACK
6
CONTINUOUS
10
34.9038
20
-52.332
11
34.9698
21
-52.3262
0
LINE
8
BLACK
6
CONTINUOUS
10
34.9698
20
-52.3262
11
35.0339
21
-52.3434
0
LINE
8
BLACK
6
CONTINUOUS
10
35.0339
20
-52.3434
11
35.0992
21
-52.3549
0
LINE
8
BLACK
6
CONTINUOUS
10
35.0992
20
-52.3549
11
35.1186
21
-52.3661
0
LINE
8
BLACK
6
CONTINUOUS
10
35.1186
20
-52.3661
11
35.1402
21
-52.3719
0
LINE
8
BLACK
6
CONTINUOUS
10
35.1402
20
-52.3719
11
35.1945
21
-52.4099
0
LINE
8
BLACK
6
CONTINUOUS
10
35.1945
20
-52.4099
11
35.2519
21
-52.4431
0
LINE
8
BLACK
6
CONTINUOUS
10
35.2519
20
-52.4431
11
35.2946
21
-52.4939
0
LINE
8
BLACK
6
CONTINUOUS
10
35.2946
20
-52.4939
11
37.9301
21
-55.1294
0
LINE
8
BLACK
6
CONTINUOUS
10
37.9301
20
-55.1294
11
37.9809
21
-55.1721
0
LINE
8
BLACK
6
CONTINUOUS
10
37.9809
20
-55.1721
11
38.0141
21
-55.2295
0
LINE
8
BLACK
6
CONTINUOUS
10
38.0141
20
-55.2295
11
38.0521
21
-55.2838
0
LINE
8
BLACK
6
CONTINUOUS
10
38.0521
20
-55.2838
11
38.0579
21
-55.3054
0
LINE
8
BLACK
6
CONTINUOUS
10
38.0579
20
-55.3054
11
38.0691
21
-55.3248
0
LINE
8
BLACK
6
CONTINUOUS
10
38.0691
20
-55.3248
11
38.0806
21
-55.3901
0
LINE
8
BLACK
6
CONTINUOUS
10
38.0806
20
-55.3901
11
38.0978
21
-55.4542
0
LINE
8
BLACK
6
CONTINUOUS
10
38.0978
20
-55.4542
11
38.092
21
-55.5202
0
LINE
8
BLACK
6
CONTINUOUS
10
38.092
20
-55.5202
11
38.092
21
-58.0389
0
LINE
8
BLACK
6
CONTINUOUS
10
38.092
20
-58.0389
11
38.1142
21
-58.0517
0
LINE
8
BLACK
6
CONTINUOUS
10
28.9625
20
-48.3064
11
29.1915
21
-48.4386
0
LINE
8
BLACK
6
CONTINUOUS
10
29.1915
20
-48.4386
11
29.3615
21
-48.6412
0
LINE
8
BLACK
6
CONTINUOUS
10
29.3615
20
-48.6412
11
29.452
21
-48.8898
0
LINE
8
BLACK
6
CONTINUOUS
10
29.452
20
-48.8898
11
29.452
21
-49.1542
0
LINE
8
BLACK
6
CONTINUOUS
10
29.452
20
-49.1542
11
29.3615
21
-49.4028
0
LINE
8
BLACK
6
CONTINUOUS
10
29.3615
20
-49.4028
11
29.1915
21
-49.6054
0
LINE
8
BLACK
6
CONTINUOUS
10
29.1915
20
-49.6054
11
28.9625
21
-49.7376
0
LINE
8
BLACK
6
CONTINUOUS
10
28.9625
20
-49.7376
11
28.702
21
-49.7836
0
LINE
8
BLACK
6
CONTINUOUS
10
28.702
20
-49.7836
11
28.4415
21
-49.7376
0
LINE
8
BLACK
6
CONTINUOUS
10
28.4415
20
-49.7376
11
28.2125
21
-49.6054
0
LINE
8
BLACK
6
CONTINUOUS
10
28.2125
20
-49.6054
11
28.1425
21
-49.522
0
LINE
8
BLACK
6
CONTINUOUS
10
28.1425
20
-49.522
11
27.8484
21
-49.522
0
LINE
8
BLACK
6
CONTINUOUS
10
27.8484
20
-49.522
11
27.352
21
-50.0184
0
LINE
8
BLACK
6
CONTINUOUS
10
27.352
20
-50.0184
11
27.352
21
-55.452
0
LINE
8
BLACK
6
CONTINUOUS
10
27.352
20
-55.452
11
28.3595
21
-55.452
0
LINE
8
BLACK
6
CONTINUOUS
10
28.3595
20
-55.452
11
28.4256
21
-55.4462
0
LINE
8
BLACK
6
CONTINUOUS
10
28.4256
20
-55.4462
11
28.4897
21
-55.4634
0
LINE
8
BLACK
6
CONTINUOUS
10
28.4897
20
-55.4634
11
28.555
21
-55.4749
0
LINE
8
BLACK
6
CONTINUOUS
10
28.555
20
-55.4749
11
28.5744
21
-55.4861
0
LINE
8
BLACK
6
CONTINUOUS
10
28.5744
20
-55.4861
11
28.5959
21
-55.4919
0
LINE
8
BLACK
6
CONTINUOUS
10
28.5959
20
-55.4919
11
28.6503
21
-55.5299
0
LINE
8
BLACK
6
CONTINUOUS
10
28.6503
20
-55.5299
11
28.7077
21
-55.5631
0
LINE
8
BLACK
6
CONTINUOUS
10
28.7077
20
-55.5631
11
28.7504
21
-55.6139
0
LINE
8
BLACK
6
CONTINUOUS
10
28.7504
20
-55.6139
11
30.3101
21
-57.1736
0
LINE
8
BLACK
6
CONTINUOUS
10
30.3101
20
-57.1736
11
30.3609
21
-57.2163
0
LINE
8
BLACK
6
CONTINUOUS
10
30.3609
20
-57.2163
11
30.3941
21
-57.2737
0
LINE
8
BLACK
6
CONTINUOUS
10
30.3941
20
-57.2737
11
30.4321
21
-57.3281
0
LINE
8
BLACK
6
CONTINUOUS
10
30.4321
20
-57.3281
11
30.4379
21
-57.3496
0
LINE
8
BLACK
6
CONTINUOUS
10
30.4379
20
-57.3496
11
30.4491
21
-57.369
0
LINE
8
BLACK
6
CONTINUOUS
10
30.4491
20
-57.369
11
30.4606
21
-57.4343
0
LINE
8
BLACK
6
CONTINUOUS
10
30.4606
20
-57.4343
11
30.4778
21
-57.4984
0
LINE
8
BLACK
6
CONTINUOUS
10
30.4778
20
-57.4984
11
30.472
21
-57.5645
0
LINE
8
BLACK
6
CONTINUOUS
10
30.472
20
-57.5645
11
30.472
21
-58.0389
0
LINE
8
BLACK
6
CONTINUOUS
10
30.472
20
-58.0389
11
30.4942
21
-58.0517
0
LINE
8
BLACK
6
CONTINUOUS
10
30.4942
20
-58.0517
11
30.6755
21
-58.2678
0
LINE
8
BLACK
6
CONTINUOUS
10
30.6755
20
-58.2678
11
30.772
21
-58.5329
0
LINE
8
BLACK
6
CONTINUOUS
10
30.772
20
-58.5329
11
30.772
21
-58.8151
0
LINE
8
BLACK
6
CONTINUOUS
10
30.772
20
-58.8151
11
30.6755
21
-59.0802
0
LINE
8
BLACK
6
CONTINUOUS
10
30.6755
20
-59.0802
11
30.4942
21
-59.2963
0
LINE
8
BLACK
6
CONTINUOUS
10
30.4942
20
-59.2963
11
30.2498
21
-59.4374
0
LINE
8
BLACK
6
CONTINUOUS
10
30.2498
20
-59.4374
11
30.042
21
-59.474
0
LINE
8
BLACK
6
CONTINUOUS
10
30.042
20
-59.474
11
29.902
21
-59.474
0
LINE
8
BLACK
6
CONTINUOUS
10
29.902
20
-59.474
11
29.6942
21
-59.4374
0
LINE
8
BLACK
6
CONTINUOUS
10
29.6942
20
-59.4374
11
29.4498
21
-59.2963
0
LINE
8
BLACK
6
CONTINUOUS
10
29.4498
20
-59.2963
11
29.2685
21
-59.0802
0
LINE
8
BLACK
6
CONTINUOUS
10
29.2685
20
-59.0802
11
29.172
21
-58.8151
0
LINE
8
BLACK
6
CONTINUOUS
10
29.172
20
-58.8151
11
29.172
21
-58.5329
0
LINE
8
BLACK
6
CONTINUOUS
10
29.172
20
-58.5329
11
29.2685
21
-58.2678
0
LINE
8
BLACK
6
CONTINUOUS
10
29.2685
20
-58.2678
11
29.4498
21
-58.0517
0
LINE
8
BLACK
6
CONTINUOUS
10
29.4498
20
-58.0517
11
29.472
21
-58.0389
0
LINE
8
BLACK
6
CONTINUOUS
10
29.472
20
-58.0389
11
29.472
21
-57.7497
0
LINE
8
BLACK
6
CONTINUOUS
10
29.472
20
-57.7497
11
28.1743
21
-56.452
0
LINE
8
BLACK
6
CONTINUOUS
10
28.1743
20
-56.452
11
27.0938
21
-56.452
0
LINE
8
BLACK
6
CONTINUOUS
10
27.0938
20
-56.452
11
27.0277
21
-56.4578
0
LINE
8
BLACK
6
CONTINUOUS
10
27.0277
20
-56.4578
11
26.9637
21
-56.4406
0
LINE
8
BLACK
6
CONTINUOUS
10
26.9637
20
-56.4406
11
26.8984
21
-56.4291
0
LINE
8
BLACK
6
CONTINUOUS
10
26.8984
20
-56.4291
11
26.879
21
-56.4179
0
LINE
8
BLACK
6
CONTINUOUS
10
26.879
20
-56.4179
11
26.8574
21
-56.4121
0
LINE
8
BLACK
6
CONTINUOUS
10
26.8574
20
-56.4121
11
26.8031
21
-56.3741
0
LINE
8
BLACK
6
CONTINUOUS
10
26.8031
20
-56.3741
11
26.7456
21
-56.3409
0
LINE
8
BLACK
6
CONTINUOUS
10
26.7456
20
-56.3409
11
26.703
21
-56.2901
0
LINE
8
BLACK
6
CONTINUOUS
10
26.703
20
-56.2901
11
26.5139
21
-56.101
0
LINE
8
BLACK
6
CONTINUOUS
10
26.5139
20
-56.101
11
26.4631
21
-56.0584
0
LINE
8
BLACK
6
CONTINUOUS
10
26.4631
20
-56.0584
11
26.4299
21
-56.0009
0
LINE
8
BLACK
6
CONTINUOUS
10
26.4299
20
-56.0009
11
26.3919
21
-55.9466
0
LINE
8
BLACK
6
CONTINUOUS
10
26.3919
20
-55.9466
11
26.3861
21
-55.925
0
LINE
8
BLACK
6
CONTINUOUS
10
26.3861
20
-55.925
11
26.3749
21
-55.9056
0
LINE
8
BLACK
6
CONTINUOUS
10
26.3749
20
-55.9056
11
26.3634
21
-55.8403
0
LINE
8
BLACK
6
CONTINUOUS
10
26.3634
20
-55.8403
11
26.3462
21
-55.7763
0
LINE
8
BLACK
6
CONTINUOUS
10
26.3462
20
-55.7763
11
26.352
21
-55.7102
0
LINE
8
BLACK
6
CONTINUOUS
10
26.352
20
-55.7102
11
26.352
21
-49.8332
0
LINE
8
BLACK
6
CONTINUOUS
10
26.352
20
-49.8332
11
26.3462
21
-49.7671
0
LINE
8
BLACK
6
CONTINUOUS
10
26.3462
20
-49.7671
11
26.3634
21
-49.703
0
LINE
8
BLACK
6
CONTINUOUS
10
26.3634
20
-49.703
11
26.3749
21
-49.6377
0
LINE
8
BLACK
6
CONTINUOUS
10
26.3749
20
-49.6377
11
26.3861
21
-49.6183
0
LINE
8
BLACK
6
CONTINUOUS
10
26.3861
20
-49.6183
11
26.3919
21
-49.5968
0
LINE
8
BLACK
6
CONTINUOUS
10
26.3919
20
-49.5968
11
26.4299
21
-49.5424
0
LINE
8
BLACK
6
CONTINUOUS
10
26.4299
20
-49.5424
11
26.4631
21
-49.485
0
LINE
8
BLACK
6
CONTINUOUS
10
26.4631
20
-49.485
11
26.5139
21
-49.4423
0
LINE
8
BLACK
6
CONTINUOUS
10
26.5139
20
-49.4423
11
27.2723
21
-48.6839
0
LINE
8
BLACK
6
CONTINUOUS
10
27.2723
20
-48.6839
11
27.315
21
-48.6331
0
LINE
8
BLACK
6
CONTINUOUS
10
27.315
20
-48.6331
11
27.3724
21
-48.5999
0
LINE
8
BLACK
6
CONTINUOUS
10
27.3724
20
-48.5999
11
27.4268
21
-48.5619
0
LINE
8
BLACK
6
CONTINUOUS
10
27.4268
20
-48.5619
11
27.4483
21
-48.5561
0
LINE
8
BLACK
6
CONTINUOUS
10
27.4483
20
-48.5561
11
27.4677
21
-48.5449
0
LINE
8
BLACK
6
CONTINUOUS
10
27.4677
20
-48.5449
11
27.533
21
-48.5334
0
LINE
8
BLACK
6
CONTINUOUS
10
27.533
20
-48.5334
11
27.5971
21
-48.5162
0
LINE
8
BLACK
6
CONTINUOUS
10
27.5971
20
-48.5162
11
27.6632
21
-48.522
0
LINE
8
BLACK
6
CONTINUOUS
10
27.6632
20
-48.522
11
28.1425
21
-48.522
0
LINE
8
BLACK
6
CONTINUOUS
10
28.1425
20
-48.522
11
28.2125
21
-48.4386
0
LINE
8
BLACK
6
CONTINUOUS
10
28.2125
20
-48.4386
11
28.4415
21
-48.3064
0
LINE
8
BLACK
6
CONTINUOUS
10
28.4415
20
-48.3064
11
28.702
21
-48.2604
0
LINE
8
BLACK
6
CONTINUOUS
10
28.702
20
-48.2604
11
28.9625
21
-48.3064
0
LINE
8
BLACK
6
CONTINUOUS
10
31.7738
20
-54.8626
11
32.0182
21
-55.0037
0
LINE
8
BLACK
6
CONTINUOUS
10
32.0182
20
-55.0037
11
32.1995
21
-55.2198
0
LINE
8
BLACK
6
CONTINUOUS
10
32.1995
20
-55.2198
11
32.296
21
-55.4849
0
LINE
8
BLACK
6
CONTINUOUS
10
32.296
20
-55.4849
11
32.296
21
-55.7189
0
LINE
8
BLACK
6
CONTINUOUS
10
32.296
20
-55.7189
11
32.8501
21
-56.273
0
LINE
8
BLACK
6
CONTINUOUS
10
32.8501
20
-56.273
11
32.9009
21
-56.3156
0
LINE
8
BLACK
6
CONTINUOUS
10
32.9009
20
-56.3156
11
32.9341
21
-56.3731
0
LINE
8
BLACK
6
CONTINUOUS
10
32.9341
20
-56.3731
11
32.9721
21
-56.4274
0
LINE
8
BLACK
6
CONTINUOUS
10
32.9721
20
-56.4274
11
32.9779
21
-56.449
0
LINE
8
BLACK
6
CONTINUOUS
10
32.9779
20
-56.449
11
32.9891
21
-56.4684
0
LINE
8
BLACK
6
CONTINUOUS
10
32.9891
20
-56.4684
11
33.0006
21
-56.5337
0
LINE
8
BLACK
6
CONTINUOUS
10
33.0006
20
-56.5337
11
33.0178
21
-56.5977
0
LINE
8
BLACK
6
CONTINUOUS
10
33.0178
20
-56.5977
11
33.012
21
-56.6638
0
LINE
8
BLACK
6
CONTINUOUS
10
33.012
20
-56.6638
11
33.012
21
-58.0389
0
LINE
8
BLACK
6
CONTINUOUS
10
33.012
20
-58.0389
11
33.0342
21
-58.0517
0
LINE
8
BLACK
6
CONTINUOUS
10
33.0342
20
-58.0517
11
33.2155
21
-58.2678
0
LINE
8
BLACK
6
CONTINUOUS
10
33.2155
20
-58.2678
11
33.312
21
-58.5329
0
LINE
8
BLACK
6
CONTINUOUS
10
33.312
20
-58.5329
11
33.312
21
-58.8151
0
LINE
8
BLACK
6
CONTINUOUS
10
33.312
20
-58.8151
11
33.2155
21
-59.0802
0
LINE
8
BLACK
6
CONTINUOUS
10
33.2155
20
-59.0802
11
33.0342
21
-59.2963
0
LINE
8
BLACK
6
CONTINUOUS
10
33.0342
20
-59.2963
11
32.7898
21
-59.4374
0
LINE
8
BLACK
6
CONTINUOUS
10
32.7898
20
-59.4374
11
32.582
21
-59.474
0
LINE
8
BLACK
6
CONTINUOUS
10
32.582
20
-59.474
11
32.442
21
-59.474
0
LINE
8
BLACK
6
CONTINUOUS
10
32.442
20
-59.474
11
32.2342
21
-59.4374
0
LINE
8
BLACK
6
CONTINUOUS
10
32.2342
20
-59.4374
11
31.9898
21
-59.2963
0
LINE
8
BLACK
6
CONTINUOUS
10
31.9898
20
-59.2963
11
31.8085
21
-59.0802
0
LINE
8
BLACK
6
CONTINUOUS
10
31.8085
20
-59.0802
11
31.712
21
-58.8151
0
LINE
8
BLACK
6
CONTINUOUS
10
31.712
20
-58.8151
11
31.712
21
-58.5329
0
LINE
8
BLACK
6
CONTINUOUS
10
31.712
20
-58.5329
11
31.8085
21
-58.2678
0
LINE
8
BLACK
6
CONTINUOUS
10
31.8085
20
-58.2678
11
31.9898
21
-58.0517
0
LINE
8
BLACK
6
CONTINUOUS
10
31.9898
20
-58.0517
11
32.012
21
-58.0389
0
LINE
8
BLACK
6
CONTINUOUS
10
32.012
20
-58.0389
11
32.012
21
-56.8491
0
LINE
8
BLACK
6
CONTINUOUS
10
32.012
20
-56.8491
11
31.5855
21
-56.4226
0
LINE
8
BLACK
6
CONTINUOUS
10
31.5855
20
-56.4226
11
31.566
21
-56.426
0
LINE
8
BLACK
6
CONTINUOUS
10
31.566
20
-56.426
11
31.426
21
-56.426
0
LINE
8
BLACK
6
CONTINUOUS
10
31.426
20
-56.426
11
31.2182
21
-56.3894
0
LINE
8
BLACK
6
CONTINUOUS
10
31.2182
20
-56.3894
11
30.9738
21
-56.2483
0
LINE
8
BLACK
6
CONTINUOUS
10
30.9738
20
-56.2483
11
30.7925
21
-56.0322
0
LINE
8
BLACK
6
CONTINUOUS
10
30.7925
20
-56.0322
11
30.696
21
-55.7671
0
LINE
8
BLACK
6
CONTINUOUS
10
30.696
20
-55.7671
11
30.696
21
-55.4849
0
LINE
8
BLACK
6
CONTINUOUS
10
30.696
20
-55.4849
11
30.7925
21
-55.2198
0
LINE
8
BLACK
6
CONTINUOUS
10
30.7925
20
-55.2198
11
30.9738
21
-55.0037
0
LINE
8
BLACK
6
CONTINUOUS
10
30.9738
20
-55.0037
11
31.2182
21
-54.8626
0
LINE
8
BLACK
6
CONTINUOUS
10
31.2182
20
-54.8626
11
31.426
21
-54.826
0
LINE
8
BLACK
6
CONTINUOUS
10
31.426
20
-54.826
11
31.566
21
-54.826
0
LINE
8
BLACK
6
CONTINUOUS
10
31.566
20
-54.826
11
31.7738
21
-54.8626
0
LINE
8
BLACK
6
CONTINUOUS
10
34.4956
20
-54.1729
11
34.74
21
-54.3139
0
LINE
8
BLACK
6
CONTINUOUS
10
34.74
20
-54.3139
11
34.9213
21
-54.53
0
LINE
8
BLACK
6
CONTINUOUS
10
34.9213
20
-54.53
11
35.0178
21
-54.7951
0
LINE
8
BLACK
6
CONTINUOUS
10
35.0178
20
-54.7951
11
35.0178
21
-55.0291
0
LINE
8
BLACK
6
CONTINUOUS
10
35.0178
20
-55.0291
11
35.3901
21
-55.4014
0
LINE
8
BLACK
6
CONTINUOUS
10
35.3901
20
-55.4014
11
35.4409
21
-55.4441
0
LINE
8
BLACK
6
CONTINUOUS
10
35.4409
20
-55.4441
11
35.4741
21
-55.5015
0
LINE
8
BLACK
6
CONTINUOUS
10
35.4741
20
-55.5015
11
35.5121
21
-55.5558
0
LINE
8
BLACK
6
CONTINUOUS
10
35.5121
20
-55.5558
11
35.5179
21
-55.5774
0
LINE
8
BLACK
6
CONTINUOUS
10
35.5179
20
-55.5774
11
35.5291
21
-55.5968
0
LINE
8
BLACK
6
CONTINUOUS
10
35.5291
20
-55.5968
11
35.5406
21
-55.6621
0
LINE
8
BLACK
6
CONTINUOUS
10
35.5406
20
-55.6621
11
35.5578
21
-55.7262
0
LINE
8
BLACK
6
CONTINUOUS
10
35.5578
20
-55.7262
11
35.552
21
-55.7922
0
LINE
8
BLACK
6
CONTINUOUS
10
35.552
20
-55.7922
11
35.552
21
-58.0389
0
LINE
8
BLACK
6
CONTINUOUS
10
35.552
20
-58.0389
11
35.5742
21
-58.0517
0
LINE
8
BLACK
6
CONTINUOUS
10
35.5742
20
-58.0517
11
35.7555
21
-58.2678
0
LINE
8
BLACK
6
CONTINUOUS
10
35.7555
20
-58.2678
11
35.852
21
-58.5329
0
LINE
8
BLACK
6
CONTINUOUS
10
35.852
20
-58.5329
11
35.852
21
-58.8151
0
LINE
8
BLACK
6
CONTINUOUS
10
35.852
20
-58.8151
11
35.7555
21
-59.0802
0
LINE
8
BLACK
6
CONTINUOUS
10
35.7555
20
-59.0802
11
35.5742
21
-59.2963
0
LINE
8
BLACK
6
CONTINUOUS
10
35.5742
20
-59.2963
11
35.3298
21
-59.4374
0
LINE
8
BLACK
6
CONTINUOUS
10
35.3298
20
-59.4374
11
35.122
21
-59.474
0
LINE
8
BLACK
6
CONTINUOUS
10
35.122
20
-59.474
11
34.982
21
-59.474
0
LINE
8
BLACK
6
CONTINUOUS
10
34.982
20
-59.474
11
34.7742
21
-59.4374
0
LINE
8
BLACK
6
CONTINUOUS
10
34.7742
20
-59.4374
11
34.5298
21
-59.2963
0
LINE
8
BLACK
6
CONTINUOUS
10
34.5298
20
-59.2963
11
34.3485
21
-59.0802
0
LINE
8
BLACK
6
CONTINUOUS
10
34.3485
20
-59.0802
11
34.252
21
-58.8151
0
LINE
8
BLACK
6
CONTINUOUS
10
34.252
20
-58.8151
11
34.252
21
-58.5329
0
LINE
8
BLACK
6
CONTINUOUS
10
34.252
20
-58.5329
11
34.3485
21
-58.2678
0
LINE
8
BLACK
6
CONTINUOUS
10
34.3485
20
-58.2678
11
34.5298
21
-58.0517
0
LINE
8
BLACK
6
CONTINUOUS
10
34.5298
20
-58.0517
11
34.552
21
-58.0389
0
LINE
8
BLACK
6
CONTINUOUS
10
34.552
20
-58.0389
11
34.552
21
-55.9775
0
LINE
8
BLACK
6
CONTINUOUS
10
34.552
20
-55.9775
11
34.3073
21
-55.7328
0
LINE
8
BLACK
6
CONTINUOUS
10
34.3073
20
-55.7328
11
34.2878
21
-55.7362
0
LINE
8
BLACK
6
CONTINUOUS
10
34.2878
20
-55.7362
11
34.1478
21
-55.7362
0
LINE
8
BLACK
6
CONTINUOUS
10
34.1478
20
-55.7362
11
33.94
21
-55.6996
0
LINE
8
BLACK
6
CONTINUOUS
10
33.94
20
-55.6996
11
33.6956
21
-55.5585
0
LINE
8
BLACK
6
CONTINUOUS
10
33.6956
20
-55.5585
11
33.5143
21
-55.3424
0
LINE
8
BLACK
6
CONTINUOUS
10
33.5143
20
-55.3424
11
33.4178
21
-55.0773
0
LINE
8
BLACK
6
CONTINUOUS
10
33.4178
20
-55.0773
11
33.4178
21
-54.7951
0
LINE
8
BLACK
6
CONTINUOUS
10
33.4178
20
-54.7951
11
33.5143
21
-54.53
0
LINE
8
BLACK
6
CONTINUOUS
10
33.5143
20
-54.53
11
33.6956
21
-54.3139
0
LINE
8
BLACK
6
CONTINUOUS
10
33.6956
20
-54.3139
11
33.94
21
-54.1729
0
LINE
8
BLACK
6
CONTINUOUS
10
33.94
20
-54.1729
11
34.1478
21
-54.1362
0
LINE
8
BLACK
6
CONTINUOUS
10
34.1478
20
-54.1362
11
34.2878
21
-54.1362
0
LINE
8
BLACK
6
CONTINUOUS
10
34.2878
20
-54.1362
11
34.4956
21
-54.1729
0
LINE
8
BLACK
6
CONTINUOUS
10
43.1986
20
-52.8495
11
43.2363
21
-52.8462
0
LINE
8
BLACK
6
CONTINUOUS
10
43.2363
20
-52.8462
11
43.3003
21
-52.8634
0
LINE
8
BLACK
6
CONTINUOUS
10
43.3003
20
-52.8634
11
43.3656
21
-52.8749
0
LINE
8
BLACK
6
CONTINUOUS
10
43.3656
20
-52.8749
11
43.385
21
-52.8861
0
LINE
8
BLACK
6
CONTINUOUS
10
43.385
20
-52.8861
11
43.4066
21
-52.8919
0
LINE
8
BLACK
6
CONTINUOUS
10
43.4066
20
-52.8919
11
43.4609
21
-52.9299
0
LINE
8
BLACK
6
CONTINUOUS
10
43.4609
20
-52.9299
11
43.5184
21
-52.9631
0
LINE
8
BLACK
6
CONTINUOUS
10
43.5184
20
-52.9631
11
43.561
21
-53.0139
0
LINE
8
BLACK
6
CONTINUOUS
10
43.561
20
-53.0139
11
43.8957
21
-53.3486
0
LINE
8
BLACK
6
CONTINUOUS
10
43.8957
20
-53.3486
11
43.942
21
-53.3404
0
LINE
8
BLACK
6
CONTINUOUS
10
43.942
20
-53.3404
11
44.2025
21
-53.3864
0
LINE
8
BLACK
6
CONTINUOUS
10
44.2025
20
-53.3864
11
44.4315
21
-53.5186
0
LINE
8
BLACK
6
CONTINUOUS
10
44.4315
20
-53.5186
11
44.6015
21
-53.7212
0
LINE
8
BLACK
6
CONTINUOUS
10
44.6015
20
-53.7212
11
44.692
21
-53.9698
0
LINE
8
BLACK
6
CONTINUOUS
10
44.692
20
-53.9698
11
44.692
21
-54.2342
0
LINE
8
BLACK
6
CONTINUOUS
10
44.692
20
-54.2342
11
44.6015
21
-54.4828
0
LINE
8
BLACK
6
CONTINUOUS
10
44.6015
20
-54.4828
11
44.4315
21
-54.6854
0
LINE
8
BLACK
6
CONTINUOUS
10
44.4315
20
-54.6854
11
44.2025
21
-54.8176
0
LINE
8
BLACK
6
CONTINUOUS
10
44.2025
20
-54.8176
11
43.942
21
-54.8636
0
LINE
8
BLACK
6
CONTINUOUS
10
43.942
20
-54.8636
11
43.6815
21
-54.8176
0
LINE
8
BLACK
6
CONTINUOUS
10
43.6815
20
-54.8176
11
43.4525
21
-54.6854
0
LINE
8
BLACK
6
CONTINUOUS
10
43.4525
20
-54.6854
11
43.2825
21
-54.4828
0
LINE
8
BLACK
6
CONTINUOUS
10
43.2825
20
-54.4828
11
43.192
21
-54.2342
0
LINE
8
BLACK
6
CONTINUOUS
10
43.192
20
-54.2342
11
43.192
21
-54.0591
0
LINE
8
BLACK
6
CONTINUOUS
10
43.192
20
-54.0591
11
42.9874
21
-53.8545
0
LINE
8
BLACK
6
CONTINUOUS
10
42.9874
20
-53.8545
11
42.9497
21
-53.8578
0
LINE
8
BLACK
6
CONTINUOUS
10
42.9497
20
-53.8578
11
42.8857
21
-53.8406
0
LINE
8
BLACK
6
CONTINUOUS
10
42.8857
20
-53.8406
11
42.8204
21
-53.8291
0
LINE
8
BLACK
6
CONTINUOUS
10
42.8204
20
-53.8291
11
42.801
21
-53.8179
0
LINE
8
BLACK
6
CONTINUOUS
10
42.801
20
-53.8179
11
42.7794
21
-53.8121
0
LINE
8
BLACK
6
CONTINUOUS
10
42.7794
20
-53.8121
11
42.7251
21
-53.7741
0
LINE
8
BLACK
6
CONTINUOUS
10
42.7251
20
-53.7741
11
42.6676
21
-53.7409
0
LINE
8
BLACK
6
CONTINUOUS
10
42.6676
20
-53.7409
11
42.625
21
-53.6901
0
LINE
8
BLACK
6
CONTINUOUS
10
42.625
20
-53.6901
11
30.9039
21
-41.969
0
LINE
8
BLACK
6
CONTINUOUS
10
30.9039
20
-41.969
11
30.8531
21
-41.9264
0
LINE
8
BLACK
6
CONTINUOUS
10
30.8531
20
-41.9264
11
30.8199
21
-41.8689
0
LINE
8
BLACK
6
CONTINUOUS
10
30.8199
20
-41.8689
11
30.7819
21
-41.8146
0
LINE
8
BLACK
6
CONTINUOUS
10
30.7819
20
-41.8146
11
30.7761
21
-41.793
0
LINE
8
BLACK
6
CONTINUOUS
10
30.7761
20
-41.793
11
30.7649
21
-41.7736
0
LINE
8
BLACK
6
CONTINUOUS
10
30.7649
20
-41.7736
11
30.7534
21
-41.7083
0
LINE
8
BLACK
6
CONTINUOUS
10
30.7534
20
-41.7083
11
30.7362
21
-41.6443
0
LINE
8
BLACK
6
CONTINUOUS
10
30.7362
20
-41.6443
11
30.742
21
-41.5782
0
LINE
8
BLACK
6
CONTINUOUS
10
30.742
20
-41.5782
11
30.742
21
-38.1177
0
LINE
8
BLACK
6
CONTINUOUS
10
30.742
20
-38.1177
11
30.742
21
-38.1177
0
LINE
8
BLACK
6
CONTINUOUS
10
30.742
20
-38.1177
11
30.742
21
-37.5771
0
LINE
8
BLACK
6
CONTINUOUS
10
30.742
20
-37.5771
11
30.6264
21
-37.4394
0
LINE
8
BLACK
6
CONTINUOUS
10
30.6264
20
-37.4394
11
30.542
21
-37.2074
0
LINE
8
BLACK
6
CONTINUOUS
10
30.542
20
-37.2074
11
30.542
21
-36.9606
0
LINE
8
BLACK
6
CONTINUOUS
10
30.542
20
-36.9606
11
30.6264
21
-36.7286
0
LINE
8
BLACK
6
CONTINUOUS
10
30.6264
20
-36.7286
11
30.7851
21
-36.5395
0
LINE
8
BLACK
6
CONTINUOUS
10
30.7851
20
-36.5395
11
30.9989
21
-36.4161
0
LINE
8
BLACK
6
CONTINUOUS
10
30.9989
20
-36.4161
11
31.1808
21
-36.384
0
LINE
8
BLACK
6
CONTINUOUS
10
31.1808
20
-36.384
11
31.3032
21
-36.384
0
LINE
8
BLACK
6
CONTINUOUS
10
31.3032
20
-36.384
11
31.4851
21
-36.4161
0
LINE
8
BLACK
6
CONTINUOUS
10
31.4851
20
-36.4161
11
31.6989
21
-36.5395
0
LINE
8
BLACK
6
CONTINUOUS
10
31.6989
20
-36.5395
11
31.8576
21
-36.7286
0
LINE
8
BLACK
6
CONTINUOUS
10
31.8576
20
-36.7286
11
31.942
21
-36.9606
0
LINE
8
BLACK
6
CONTINUOUS
10
31.942
20
-36.9606
11
31.942
21
-37.2074
0
LINE
8
BLACK
6
CONTINUOUS
10
31.942
20
-37.2074
11
31.8576
21
-37.4394
0
LINE
8
BLACK
6
CONTINUOUS
10
31.8576
20
-37.4394
11
31.742
21
-37.5771
0
LINE
8
BLACK
6
CONTINUOUS
10
31.742
20
-37.5771
11
31.742
21
-41.3929
0
LINE
8
BLACK
6
CONTINUOUS
10
31.742
20
-41.3929
11
43.1986
21
-52.8495
0
LINE
8
BLACK
6
CONTINUOUS
10
41.6798
20
-46.9886
11
41.9242
21
-47.1297
0
LINE
8
BLACK
6
CONTINUOUS
10
41.9242
20
-47.1297
11
42.1055
21
-47.3458
0
LINE
8
BLACK
6
CONTINUOUS
10
42.1055
20
-47.3458
11
42.202
21
-47.6109
0
LINE
8
BLACK
6
CONTINUOUS
10
42.202
20
-47.6109
11
42.202
21
-47.8449
0
LINE
8
BLACK
6
CONTINUOUS
10
42.202
20
-47.8449
11
42.8791
21
-48.522
0
LINE
8
BLACK
6
CONTINUOUS
10
42.8791
20
-48.522
11
43.3825
21
-48.522
0
LINE
8
BLACK
6
CONTINUOUS
10
43.3825
20
-48.522
11
43.4525
21
-48.4386
0
LINE
8
BLACK
6
CONTINUOUS
10
43.4525
20
-48.4386
11
43.6815
21
-48.3064
0
LINE
8
BLACK
6
CONTINUOUS
10
43.6815
20
-48.3064
11
43.942
21
-48.2604
0
LINE
8
BLACK
6
CONTINUOUS
10
43.942
20
-48.2604
11
44.2025
21
-48.3064
0
LINE
8
BLACK
6
CONTINUOUS
10
44.2025
20
-48.3064
11
44.4315
21
-48.4386
0
LINE
8
BLACK
6
CONTINUOUS
10
44.4315
20
-48.4386
11
44.6015
21
-48.6412
0
LINE
8
BLACK
6
CONTINUOUS
10
44.6015
20
-48.6412
11
44.692
21
-48.8898
0
LINE
8
BLACK
6
CONTINUOUS
10
44.692
20
-48.8898
11
44.692
21
-49.1542
0
LINE
8
BLACK
6
CONTINUOUS
10
44.692
20
-49.1542
11
44.6015
21
-49.4028
0
LINE
8
BLACK
6
CONTINUOUS
10
44.6015
20
-49.4028
11
44.4315
21
-49.6054
0
LINE
8
BLACK
6
CONTINUOUS
10
44.4315
20
-49.6054
11
44.2025
21
-49.7376
0
LINE
8
BLACK
6
CONTINUOUS
10
44.2025
20
-49.7376
11
43.942
21
-49.7836
0
LINE
8
BLACK
6
CONTINUOUS
10
43.942
20
-49.7836
11
43.6815
21
-49.7376
0
LINE
8
BLACK
6
CONTINUOUS
10
43.6815
20
-49.7376
11
43.4525
21
-49.6054
0
LINE
8
BLACK
6
CONTINUOUS
10
43.4525
20
-49.6054
11
43.3825
21
-49.522
0
LINE
8
BLACK
6
CONTINUOUS
10
43.3825
20
-49.522
11
42.6938
21
-49.522
0
LINE
8
BLACK
6
CONTINUOUS
10
42.6938
20
-49.522
11
42.6277
21
-49.5278
0
LINE
8
BLACK
6
CONTINUOUS
10
42.6277
20
-49.5278
11
42.5637
21
-49.5106
0
LINE
8
BLACK
6
CONTINUOUS
10
42.5637
20
-49.5106
11
42.4984
21
-49.4991
0
LINE
8
BLACK
6
CONTINUOUS
10
42.4984
20
-49.4991
11
42.479
21
-49.4879
0
LINE
8
BLACK
6
CONTINUOUS
10
42.479
20
-49.4879
11
42.4574
21
-49.4821
0
LINE
8
BLACK
6
CONTINUOUS
10
42.4574
20
-49.4821
11
42.4031
21
-49.4441
0
LINE
8
BLACK
6
CONTINUOUS
10
42.4031
20
-49.4441
11
42.3456
21
-49.4109
0
LINE
8
BLACK
6
CONTINUOUS
10
42.3456
20
-49.4109
11
42.303
21
-49.3601
0
LINE
8
BLACK
6
CONTINUOUS
10
42.303
20
-49.3601
11
41.4915
21
-48.5486
0
LINE
8
BLACK
6
CONTINUOUS
10
41.4915
20
-48.5486
11
41.402
21
-48.5643
0
LINE
8
BLACK
6
CONTINUOUS
10
41.402
20
-48.5643
11
41.1242
21
-48.5154
0
LINE
8
BLACK
6
CONTINUOUS
10
41.1242
20
-48.5154
11
40.8798
21
-48.3743
0
LINE
8
BLACK
6
CONTINUOUS
10
40.8798
20
-48.3743
11
40.6985
21
-48.1582
0
LINE
8
BLACK
6
CONTINUOUS
10
40.6985
20
-48.1582
11
40.602
21
-47.8931
0
LINE
8
BLACK
6
CONTINUOUS
10
40.602
20
-47.8931
11
40.602
21
-47.6109
0
LINE
8
BLACK
6
CONTINUOUS
10
40.602
20
-47.6109
11
40.6985
21
-47.3458
0
LINE
8
BLACK
6
CONTINUOUS
10
40.6985
20
-47.3458
11
40.8798
21
-47.1297
0
LINE
8
BLACK
6
CONTINUOUS
10
40.8798
20
-47.1297
11
41.1242
21
-46.9886
0
LINE
8
BLACK
6
CONTINUOUS
10
41.1242
20
-46.9886
11
41.402
21
-46.9397
0
LINE
8
BLACK
6
CONTINUOUS
10
41.402
20
-46.9397
11
41.6798
21
-46.9886
0
LINE
8
BLACK
6
CONTINUOUS
10
34.0251
20
-36.4161
11
34.2389
21
-36.5395
0
LINE
8
BLACK
6
CONTINUOUS
10
34.2389
20
-36.5395
11
34.3976
21
-36.7286
0
LINE
8
BLACK
6
CONTINUOUS
10
34.3976
20
-36.7286
11
34.482
21
-36.9606
0
LINE
8
BLACK
6
CONTINUOUS
10
34.482
20
-36.9606
11
34.482
21
-37.2074
0
LINE
8
BLACK
6
CONTINUOUS
10
34.482
20
-37.2074
11
34.3976
21
-37.4394
0
LINE
8
BLACK
6
CONTINUOUS
10
34.3976
20
-37.4394
11
34.282
21
-37.5771
0
LINE
8
BLACK
6
CONTINUOUS
10
34.282
20
-37.5771
11
34.282
21
-37.8668
0
LINE
8
BLACK
6
CONTINUOUS
10
34.282
20
-37.8668
11
41.7072
21
-45.292
0
LINE
8
BLACK
6
CONTINUOUS
10
41.7072
20
-45.292
11
43.7382
21
-45.292
0
LINE
8
BLACK
6
CONTINUOUS
10
43.7382
20
-45.292
11
43.8043
21
-45.2862
0
LINE
8
BLACK
6
CONTINUOUS
10
43.8043
20
-45.2862
11
43.8683
21
-45.3034
0
LINE
8
BLACK
6
CONTINUOUS
10
43.8683
20
-45.3034
11
43.9336
21
-45.3149
0
LINE
8
BLACK
6
CONTINUOUS
10
43.9336
20
-45.3149
11
43.953
21
-45.3261
0
LINE
8
BLACK
6
CONTINUOUS
10
43.953
20
-45.3261
11
43.9746
21
-45.3319
0
LINE
8
BLACK
6
CONTINUOUS
10
43.9746
20
-45.3319
11
44.0289
21
-45.3699
0
LINE
8
BLACK
6
CONTINUOUS
10
44.0289
20
-45.3699
11
44.0864
21
-45.4031
0
LINE
8
BLACK
6
CONTINUOUS
10
44.0864
20
-45.4031
11
44.129
21
-45.4539
0
LINE
8
BLACK
6
CONTINUOUS
10
44.129
20
-45.4539
11
44.2801
21
-45.605
0
LINE
8
BLACK
6
CONTINUOUS
10
44.2801
20
-45.605
11
44.3309
21
-45.6476
0
LINE
8
BLACK
6
CONTINUOUS
10
44.3309
20
-45.6476
11
44.3641
21
-45.7051
0
LINE
8
BLACK
6
CONTINUOUS
10
44.3641
20
-45.7051
11
44.4021
21
-45.7594
0
LINE
8
BLACK
6
CONTINUOUS
10
44.4021
20
-45.7594
11
44.4079
21
-45.781
0
LINE
8
BLACK
6
CONTINUOUS
10
44.4079
20
-45.781
11
44.4191
21
-45.8004
0
LINE
8
BLACK
6
CONTINUOUS
10
44.4191
20
-45.8004
11
44.4306
21
-45.8657
0
LINE
8
BLACK
6
CONTINUOUS
10
44.4306
20
-45.8657
11
44.4431
21
-45.9124
0
LINE
8
BLACK
6
CONTINUOUS
10
44.4431
20
-45.9124
11
44.6015
21
-46.1012
0
LINE
8
BLACK
6
CONTINUOUS
10
44.6015
20
-46.1012
11
44.692
21
-46.3498
0
LINE
8
BLACK
6
CONTINUOUS
10
44.692
20
-46.3498
11
44.692
21
-46.6142
0
LINE
8
BLACK
6
CONTINUOUS
10
44.692
20
-46.6142
11
44.6015
21
-46.8628
0
LINE
8
BLACK
6
CONTINUOUS
10
44.6015
20
-46.8628
11
44.4315
21
-47.0654
0
LINE
8
BLACK
6
CONTINUOUS
10
44.4315
20
-47.0654
11
44.2025
21
-47.1976
0
LINE
8
BLACK
6
CONTINUOUS
10
44.2025
20
-47.1976
11
43.942
21
-47.2436
0
LINE
8
BLACK
6
CONTINUOUS
10
43.942
20
-47.2436
11
43.6815
21
-47.1976
0
LINE
8
BLACK
6
CONTINUOUS
10
43.6815
20
-47.1976
11
43.4525
21
-47.0654
0
LINE
8
BLACK
6
CONTINUOUS
10
43.4525
20
-47.0654
11
43.2825
21
-46.8628
0
LINE
8
BLACK
6
CONTINUOUS
10
43.2825
20
-46.8628
11
43.192
21
-46.6142
0
LINE
8
BLACK
6
CONTINUOUS
10
43.192
20
-46.6142
11
43.192
21
-46.3498
0
LINE
8
BLACK
6
CONTINUOUS
10
43.192
20
-46.3498
11
43.213
21
-46.292
0
LINE
8
BLACK
6
CONTINUOUS
10
43.213
20
-46.292
11
41.5219
21
-46.292
0
LINE
8
BLACK
6
CONTINUOUS
10
41.5219
20
-46.292
11
41.4558
21
-46.2978
0
LINE
8
BLACK
6
CONTINUOUS
10
41.4558
20
-46.2978
11
41.3917
21
-46.2806
0
LINE
8
BLACK
6
CONTINUOUS
10
41.3917
20
-46.2806
11
41.3264
21
-46.2691
0
LINE
8
BLACK
6
CONTINUOUS
10
41.3264
20
-46.2691
11
41.3071
21
-46.2579
0
LINE
8
BLACK
6
CONTINUOUS
10
41.3071
20
-46.2579
11
41.2855
21
-46.2521
0
LINE
8
BLACK
6
CONTINUOUS
10
41.2855
20
-46.2521
11
41.2312
21
-46.2141
0
LINE
8
BLACK
6
CONTINUOUS
10
41.2312
20
-46.2141
11
41.1737
21
-46.1809
0
LINE
8
BLACK
6
CONTINUOUS
10
41.1737
20
-46.1809
11
41.1311
21
-46.1301
0
LINE
8
BLACK
6
CONTINUOUS
10
41.1311
20
-46.1301
11
33.4439
21
-38.4429
0
LINE
8
BLACK
6
CONTINUOUS
10
33.4439
20
-38.4429
11
33.3931
21
-38.4003
0
LINE
8
BLACK
6
CONTINUOUS
10
33.3931
20
-38.4003
11
33.3599
21
-38.3428
0
LINE
8
BLACK
6
CONTINUOUS
10
33.3599
20
-38.3428
11
33.3219
21
-38.2885
0
LINE
8
BLACK
6
CONTINUOUS
10
33.3219
20
-38.2885
11
33.3161
21
-38.2669
0
LINE
8
BLACK
6
CONTINUOUS
10
33.3161
20
-38.2669
11
33.3049
21
-38.2476
0
LINE
8
BLACK
6
CONTINUOUS
10
33.3049
20
-38.2476
11
33.2934
21
-38.1823
0
LINE
8
BLACK
6
CONTINUOUS
10
33.2934
20
-38.1823
11
33.2762
21
-38.1182
0
LINE
8
BLACK
6
CONTINUOUS
10
33.2762
20
-38.1182
11
33.282
21
-38.0521
0
LINE
8
BLACK
6
CONTINUOUS
10
33.282
20
-38.0521
11
33.282
21
-37.5771
0
LINE
8
BLACK
6
CONTINUOUS
10
33.282
20
-37.5771
11
33.1664
21
-37.4394
0
LINE
8
BLACK
6
CONTINUOUS
10
33.1664
20
-37.4394
11
33.082
21
-37.2074
0
LINE
8
BLACK
6
CONTINUOUS
10
33.082
20
-37.2074
11
33.082
21
-36.9606
0
LINE
8
BLACK
6
CONTINUOUS
10
33.082
20
-36.9606
11
33.1664
21
-36.7286
0
LINE
8
BLACK
6
CONTINUOUS
10
33.1664
20
-36.7286
11
33.3251
21
-36.5395
0
LINE
8
BLACK
6
CONTINUOUS
10
33.3251
20
-36.5395
11
33.5389
21
-36.4161
0
LINE
8
BLACK
6
CONTINUOUS
10
33.5389
20
-36.4161
11
33.7208
21
-36.384
0
LINE
8
BLACK
6
CONTINUOUS
10
33.7208
20
-36.384
11
33.8432
21
-36.384
0
LINE
8
BLACK
6
CONTINUOUS
10
33.8432
20
-36.384
11
34.0251
21
-36.4161
0
LINE
8
BLACK
6
CONTINUOUS
10
28.9625
20
-43.2264
11
29.1915
21
-43.3586
0
LINE
8
BLACK
6
CONTINUOUS
10
29.1915
20
-43.3586
11
29.2615
21
-43.442
0
LINE
8
BLACK
6
CONTINUOUS
10
29.2615
20
-43.442
11
29.9502
21
-43.442
0
LINE
8
BLACK
6
CONTINUOUS
10
29.9502
20
-43.442
11
30.0162
21
-43.4362
0
LINE
8
BLACK
6
CONTINUOUS
10
30.0162
20
-43.4362
11
30.0803
21
-43.4534
0
LINE
8
BLACK
6
CONTINUOUS
10
30.0803
20
-43.4534
11
30.1456
21
-43.4649
0
LINE
8
BLACK
6
CONTINUOUS
10
30.1456
20
-43.4649
11
30.165
21
-43.4761
0
LINE
8
BLACK
6
CONTINUOUS
10
30.165
20
-43.4761
11
30.1866
21
-43.4819
0
LINE
8
BLACK
6
CONTINUOUS
10
30.1866
20
-43.4819
11
30.2409
21
-43.5199
0
LINE
8
BLACK
6
CONTINUOUS
10
30.2409
20
-43.5199
11
30.2984
21
-43.5531
0
LINE
8
BLACK
6
CONTINUOUS
10
30.2984
20
-43.5531
11
30.341
21
-43.6039
0
LINE
8
BLACK
6
CONTINUOUS
10
30.341
20
-43.6039
11
31.4065
21
-44.6694
0
LINE
8
BLACK
6
CONTINUOUS
10
31.4065
20
-44.6694
11
31.496
21
-44.6537
0
LINE
8
BLACK
6
CONTINUOUS
10
31.496
20
-44.6537
11
31.7738
21
-44.7026
0
LINE
8
BLACK
6
CONTINUOUS
10
31.7738
20
-44.7026
11
32.0182
21
-44.8437
0
LINE
8
BLACK
6
CONTINUOUS
10
32.0182
20
-44.8437
11
32.1995
21
-45.0598
0
LINE
8
BLACK
6
CONTINUOUS
10
32.1995
20
-45.0598
11
32.296
21
-45.3249
0
LINE
8
BLACK
6
CONTINUOUS
10
32.296
20
-45.3249
11
32.296
21
-45.6071
0
LINE
8
BLACK
6
CONTINUOUS
10
32.296
20
-45.6071
11
32.1995
21
-45.8722
0
LINE
8
BLACK
6
CONTINUOUS
10
32.1995
20
-45.8722
11
32.0182
21
-46.0883
0
LINE
8
BLACK
6
CONTINUOUS
10
32.0182
20
-46.0883
11
31.7738
21
-46.2294
0
LINE
8
BLACK
6
CONTINUOUS
10
31.7738
20
-46.2294
11
31.496
21
-46.2783
0
LINE
8
BLACK
6
CONTINUOUS
10
31.496
20
-46.2783
11
31.2182
21
-46.2294
0
LINE
8
BLACK
6
CONTINUOUS
10
31.2182
20
-46.2294
11
30.9738
21
-46.0883
0
LINE
8
BLACK
6
CONTINUOUS
10
30.9738
20
-46.0883
11
30.7925
21
-45.8722
0
LINE
8
BLACK
6
CONTINUOUS
10
30.7925
20
-45.8722
11
30.696
21
-45.6071
0
LINE
8
BLACK
6
CONTINUOUS
10
30.696
20
-45.6071
11
30.696
21
-45.3731
0
LINE
8
BLACK
6
CONTINUOUS
10
30.696
20
-45.3731
11
29.7649
21
-44.442
0
LINE
8
BLACK
6
CONTINUOUS
10
29.7649
20
-44.442
11
29.2615
21
-44.442
0
LINE
8
BLACK
6
CONTINUOUS
10
29.2615
20
-44.442
11
29.1915
21
-44.5254
0
LINE
8
BLACK
6
CONTINUOUS
10
29.1915
20
-44.5254
11
28.9625
21
-44.6576
0
LINE
8
BLACK
6
CONTINUOUS
10
28.9625
20
-44.6576
11
28.702
21
-44.7036
0
LINE
8
BLACK
6
CONTINUOUS
10
28.702
20
-44.7036
11
28.4415
21
-44.6576
0
LINE
8
BLACK
6
CONTINUOUS
10
28.4415
20
-44.6576
11
28.2125
21
-44.5254
0
LINE
8
BLACK
6
CONTINUOUS
10
28.2125
20
-44.5254
11
28.0425
21
-44.3228
0
LINE
8
BLACK
6
CONTINUOUS
10
28.0425
20
-44.3228
11
27.952
21
-44.0742
0
LINE
8
BLACK
6
CONTINUOUS
10
27.952
20
-44.0742
11
27.952
21
-43.8098
0
LINE
8
BLACK
6
CONTINUOUS
10
27.952
20
-43.8098
11
28.0425
21
-43.5612
0
LINE
8
BLACK
6
CONTINUOUS
10
28.0425
20
-43.5612
11
28.2125
21
-43.3586
0
LINE
8
BLACK
6
CONTINUOUS
10
28.2125
20
-43.3586
11
28.4415
21
-43.2264
0
LINE
8
BLACK
6
CONTINUOUS
10
28.4415
20
-43.2264
11
28.702
21
-43.1804
0
LINE
8
BLACK
6
CONTINUOUS
10
28.702
20
-43.1804
11
28.9625
21
-43.2264
0
LINE
8
BLACK
6
CONTINUOUS
10
36.5651
20
-36.4161
11
36.7789
21
-36.5395
0
LINE
8
BLACK
6
CONTINUOUS
10
36.7789
20
-36.5395
11
36.9376
21
-36.7286
0
LINE
8
BLACK
6
CONTINUOUS
10
36.9376
20
-36.7286
11
37.022
21
-36.9606
0
LINE
8
BLACK
6
CONTINUOUS
10
37.022
20
-36.9606
11
37.022
21
-37.0769
0
LINE
8
BLACK
6
CONTINUOUS
10
37.022
20
-37.0769
11
43.3846
21
-43.4395
0
LINE
8
BLACK
6
CONTINUOUS
10
43.3846
20
-43.4395
11
43.4525
21
-43.3586
0
LINE
8
BLACK
6
CONTINUOUS
10
43.4525
20
-43.3586
11
43.6815
21
-43.2264
0
LINE
8
BLACK
6
CONTINUOUS
10
43.6815
20
-43.2264
11
43.942
21
-43.1804
0
LINE
8
BLACK
6
CONTINUOUS
10
43.942
20
-43.1804
11
44.2025
21
-43.2264
0
LINE
8
BLACK
6
CONTINUOUS
10
44.2025
20
-43.2264
11
44.4315
21
-43.3586
0
LINE
8
BLACK
6
CONTINUOUS
10
44.4315
20
-43.3586
11
44.6015
21
-43.5612
0
LINE
8
BLACK
6
CONTINUOUS
10
44.6015
20
-43.5612
11
44.692
21
-43.8098
0
LINE
8
BLACK
6
CONTINUOUS
10
44.692
20
-43.8098
11
44.692
21
-44.0742
0
LINE
8
BLACK
6
CONTINUOUS
10
44.692
20
-44.0742
11
44.6015
21
-44.3228
0
LINE
8
BLACK
6
CONTINUOUS
10
44.6015
20
-44.3228
11
44.4315
21
-44.5254
0
LINE
8
BLACK
6
CONTINUOUS
10
44.4315
20
-44.5254
11
44.2025
21
-44.6576
0
LINE
8
BLACK
6
CONTINUOUS
10
44.2025
20
-44.6576
11
43.942
21
-44.7036
0
LINE
8
BLACK
6
CONTINUOUS
10
43.942
20
-44.7036
11
43.6815
21
-44.6576
0
LINE
8
BLACK
6
CONTINUOUS
10
43.6815
20
-44.6576
11
43.4525
21
-44.5254
0
LINE
8
BLACK
6
CONTINUOUS
10
43.4525
20
-44.5254
11
43.3825
21
-44.442
0
LINE
8
BLACK
6
CONTINUOUS
10
43.3825
20
-44.442
11
43.2018
21
-44.442
0
LINE
8
BLACK
6
CONTINUOUS
10
43.2018
20
-44.442
11
43.1358
21
-44.4478
0
LINE
8
BLACK
6
CONTINUOUS
10
43.1358
20
-44.4478
11
43.0717
21
-44.4306
0
LINE
8
BLACK
6
CONTINUOUS
10
43.0717
20
-44.4306
11
43.0064
21
-44.4191
0
LINE
8
BLACK
6
CONTINUOUS
10
43.0064
20
-44.4191
11
42.987
21
-44.4079
0
LINE
8
BLACK
6
CONTINUOUS
10
42.987
20
-44.4079
11
42.9654
21
-44.4021
0
LINE
8
BLACK
6
CONTINUOUS
10
42.9654
20
-44.4021
11
42.9111
21
-44.3641
0
LINE
8
BLACK
6
CONTINUOUS
10
42.9111
20
-44.3641
11
42.8536
21
-44.3309
0
LINE
8
BLACK
6
CONTINUOUS
10
42.8536
20
-44.3309
11
42.811
21
-44.2801
0
LINE
8
BLACK
6
CONTINUOUS
10
42.811
20
-44.2801
11
36.3149
21
-37.784
0
LINE
8
BLACK
6
CONTINUOUS
10
36.3149
20
-37.784
11
36.2608
21
-37.784
0
LINE
8
BLACK
6
CONTINUOUS
10
36.2608
20
-37.784
11
36.0789
21
-37.7519
0
LINE
8
BLACK
6
CONTINUOUS
10
36.0789
20
-37.7519
11
35.8651
21
-37.6285
0
LINE
8
BLACK
6
CONTINUOUS
10
35.8651
20
-37.6285
11
35.7064
21
-37.4394
0
LINE
8
BLACK
6
CONTINUOUS
10
35.7064
20
-37.4394
11
35.622
21
-37.2074
0
LINE
8
BLACK
6
CONTINUOUS
10
35.622
20
-37.2074
11
35.622
21
-36.9606
0
LINE
8
BLACK
6
CONTINUOUS
10
35.622
20
-36.9606
11
35.7064
21
-36.7286
0
LINE
8
BLACK
6
CONTINUOUS
10
35.7064
20
-36.7286
11
35.8651
21
-36.5395
0
LINE
8
BLACK
6
CONTINUOUS
10
35.8651
20
-36.5395
11
36.0789
21
-36.4161
0
LINE
8
BLACK
6
CONTINUOUS
10
36.0789
20
-36.4161
11
36.2608
21
-36.384
0
LINE
8
BLACK
6
CONTINUOUS
10
36.2608
20
-36.384
11
36.3832
21
-36.384
0
LINE
8
BLACK
6
CONTINUOUS
10
36.3832
20
-36.384
11
36.5651
21
-36.4161
0
LINE
8
BLACK
6
CONTINUOUS
10
28.9451
20
-36.4161
11
29.1589
21
-36.5395
0
LINE
8
BLACK
6
CONTINUOUS
10
29.1589
20
-36.5395
11
29.3176
21
-36.7286
0
LINE
8
BLACK
6
CONTINUOUS
10
29.3176
20
-36.7286
11
29.402
21
-36.9606
0
LINE
8
BLACK
6
CONTINUOUS
10
29.402
20
-36.9606
11
29.402
21
-37.2074
0
LINE
8
BLACK
6
CONTINUOUS
10
29.402
20
-37.2074
11
29.3176
21
-37.4394
0
LINE
8
BLACK
6
CONTINUOUS
10
29.3176
20
-37.4394
11
29.202
21
-37.5771
0
LINE
8
BLACK
6
CONTINUOUS
10
29.202
20
-37.5771
11
29.202
21
-40.8311
0
LINE
8
BLACK
6
CONTINUOUS
10
29.202
20
-40.8311
11
29.3615
21
-41.0212
0
LINE
8
BLACK
6
CONTINUOUS
10
29.3615
20
-41.0212
11
29.452
21
-41.2698
0
LINE
8
BLACK
6
CONTINUOUS
10
29.452
20
-41.2698
11
29.452
21
-41.5342
0
LINE
8
BLACK
6
CONTINUOUS
10
29.452
20
-41.5342
11
29.3615
21
-41.7828
0
LINE
8
BLACK
6
CONTINUOUS
10
29.3615
20
-41.7828
11
29.1915
21
-41.9854
0
LINE
8
BLACK
6
CONTINUOUS
10
29.1915
20
-41.9854
11
28.9625
21
-42.1176
0
LINE
8
BLACK
6
CONTINUOUS
10
28.9625
20
-42.1176
11
28.702
21
-42.1636
0
LINE
8
BLACK
6
CONTINUOUS
10
28.702
20
-42.1636
11
28.4415
21
-42.1176
0
LINE
8
BLACK
6
CONTINUOUS
10
28.4415
20
-42.1176
11
28.2125
21
-41.9854
0
LINE
8
BLACK
6
CONTINUOUS
10
28.2125
20
-41.9854
11
28.0425
21
-41.7828
0
LINE
8
BLACK
6
CONTINUOUS
10
28.0425
20
-41.7828
11
27.952
21
-41.5342
0
LINE
8
BLACK
6
CONTINUOUS
10
27.952
20
-41.5342
11
27.952
21
-41.2698
0
LINE
8
BLACK
6
CONTINUOUS
10
27.952
20
-41.2698
11
28.0425
21
-41.0212
0
LINE
8
BLACK
6
CONTINUOUS
10
28.0425
20
-41.0212
11
28.202
21
-40.8311
0
LINE
8
BLACK
6
CONTINUOUS
10
28.202
20
-40.8311
11
28.202
21
-37.5771
0
LINE
8
BLACK
6
CONTINUOUS
10
28.202
20
-37.5771
11
28.0864
21
-37.4394
0
LINE
8
BLACK
6
CONTINUOUS
10
28.0864
20
-37.4394
11
28.002
21
-37.2074
0
LINE
8
BLACK
6
CONTINUOUS
10
28.002
20
-37.2074
11
28.002
21
-36.9606
0
LINE
8
BLACK
6
CONTINUOUS
10
28.002
20
-36.9606
11
28.0864
21
-36.7286
0
LINE
8
BLACK
6
CONTINUOUS
10
28.0864
20
-36.7286
11
28.2451
21
-36.5395
0
LINE
8
BLACK
6
CONTINUOUS
10
28.2451
20
-36.5395
11
28.4589
21
-36.4161
0
LINE
8
BLACK
6
CONTINUOUS
10
28.4589
20
-36.4161
11
28.6408
21
-36.384
0
LINE
8
BLACK
6
CONTINUOUS
10
28.6408
20
-36.384
11
28.7632
21
-36.384
0
LINE
8
BLACK
6
CONTINUOUS
10
28.7632
20
-36.384
11
28.9451
21
-36.4161
0
LINE
8
BLACK
6
CONTINUOUS
10
29.552
20
-26.25
11
29.202
21
-26.25
0
LINE
8
BLACK
6
CONTINUOUS
10
29.202
20
-26.25
11
29.202
21
-28.9709
0
LINE
8
BLACK
6
CONTINUOUS
10
29.202
20
-28.9709
11
29.3176
21
-29.1086
0
LINE
8
BLACK
6
CONTINUOUS
10
29.3176
20
-29.1086
11
29.402
21
-29.3406
0
LINE
8
BLACK
6
CONTINUOUS
10
29.402
20
-29.3406
11
29.402
21
-29.5874
0
LINE
8
BLACK
6
CONTINUOUS
10
29.402
20
-29.5874
11
29.3176
21
-29.8194
0
LINE
8
BLACK
6
CONTINUOUS
10
29.3176
20
-29.8194
11
29.1589
21
-30.0085
0
LINE
8
BLACK
6
CONTINUOUS
10
29.1589
20
-30.0085
11
28.9451
21
-30.1319
0
LINE
8
BLACK
6
CONTINUOUS
10
28.9451
20
-30.1319
11
28.702
21
-30.1748
0
LINE
8
BLACK
6
CONTINUOUS
10
28.702
20
-30.1748
11
28.4589
21
-30.1319
0
LINE
8
BLACK
6
CONTINUOUS
10
28.4589
20
-30.1319
11
28.2451
21
-30.0085
0
LINE
8
BLACK
6
CONTINUOUS
10
28.2451
20
-30.0085
11
28.0864
21
-29.8194
0
LINE
8
BLACK
6
CONTINUOUS
10
28.0864
20
-29.8194
11
28.002
21
-29.5874
0
LINE
8
BLACK
6
CONTINUOUS
10
28.002
20
-29.5874
11
28.002
21
-29.3406
0
LINE
8
BLACK
6
CONTINUOUS
10
28.002
20
-29.3406
11
28.0864
21
-29.1086
0
LINE
8
BLACK
6
CONTINUOUS
10
28.0864
20
-29.1086
11
28.202
21
-28.9709
0
LINE
8
BLACK
6
CONTINUOUS
10
28.202
20
-28.9709
11
28.202
21
-26.25
0
LINE
8
BLACK
6
CONTINUOUS
10
28.202
20
-26.25
11
27.852
21
-26.25
0
LINE
8
BLACK
6
CONTINUOUS
10
27.852
20
-26.25
11
27.852
21
-24.55
0
LINE
8
BLACK
6
CONTINUOUS
10
27.852
20
-24.55
11
29.552
21
-24.55
0
LINE
8
BLACK
6
CONTINUOUS
10
29.552
20
-24.55
11
29.552
21
-26.25
0
LINE
8
BLACK
6
CONTINUOUS
10
36.6172
20
-24.5889
11
36.8768
21
-24.7388
0
LINE
8
BLACK
6
CONTINUOUS
10
36.8768
20
-24.7388
11
37.0695
21
-24.9684
0
LINE
8
BLACK
6
CONTINUOUS
10
37.0695
20
-24.9684
11
37.172
21
-25.2501
0
LINE
8
BLACK
6
CONTINUOUS
10
37.172
20
-25.2501
11
37.172
21
-25.5499
0
LINE
8
BLACK
6
CONTINUOUS
10
37.172
20
-25.5499
11
37.0695
21
-25.8316
0
LINE
8
BLACK
6
CONTINUOUS
10
37.0695
20
-25.8316
11
36.8768
21
-26.0612
0
LINE
8
BLACK
6
CONTINUOUS
10
36.8768
20
-26.0612
11
36.822
21
-26.0928
0
LINE
8
BLACK
6
CONTINUOUS
10
36.822
20
-26.0928
11
36.822
21
-28.9709
0
LINE
8
BLACK
6
CONTINUOUS
10
36.822
20
-28.9709
11
36.9376
21
-29.1086
0
LINE
8
BLACK
6
CONTINUOUS
10
36.9376
20
-29.1086
11
37.022
21
-29.3406
0
LINE
8
BLACK
6
CONTINUOUS
10
37.022
20
-29.3406
11
37.022
21
-29.5874
0
LINE
8
BLACK
6
CONTINUOUS
10
37.022
20
-29.5874
11
36.9376
21
-29.8194
0
LINE
8
BLACK
6
CONTINUOUS
10
36.9376
20
-29.8194
11
36.7789
21
-30.0085
0
LINE
8
BLACK
6
CONTINUOUS
10
36.7789
20
-30.0085
11
36.5651
21
-30.1319
0
LINE
8
BLACK
6
CONTINUOUS
10
36.5651
20
-30.1319
11
36.322
21
-30.1748
0
LINE
8
BLACK
6
CONTINUOUS
10
36.322
20
-30.1748
11
36.0789
21
-30.1319
0
LINE
8
BLACK
6
CONTINUOUS
10
36.0789
20
-30.1319
11
35.8651
21
-30.0085
0
LINE
8
BLACK
6
CONTINUOUS
10
35.8651
20
-30.0085
11
35.7064
21
-29.8194
0
LINE
8
BLACK
6
CONTINUOUS
10
35.7064
20
-29.8194
11
35.622
21
-29.5874
0
LINE
8
BLACK
6
CONTINUOUS
10
35.622
20
-29.5874
11
35.622
21
-29.3406
0
LINE
8
BLACK
6
CONTINUOUS
10
35.622
20
-29.3406
11
35.7064
21
-29.1086
0
LINE
8
BLACK
6
CONTINUOUS
10
35.7064
20
-29.1086
11
35.822
21
-28.9709
0
LINE
8
BLACK
6
CONTINUOUS
10
35.822
20
-28.9709
11
35.822
21
-26.0928
0
LINE
8
BLACK
6
CONTINUOUS
10
35.822
20
-26.0928
11
35.7672
21
-26.0612
0
LINE
8
BLACK
6
CONTINUOUS
10
35.7672
20
-26.0612
11
35.5745
21
-25.8316
0
LINE
8
BLACK
6
CONTINUOUS
10
35.5745
20
-25.8316
11
35.472
21
-25.5499
0
LINE
8
BLACK
6
CONTINUOUS
10
35.472
20
-25.5499
11
35.472
21
-25.2501
0
LINE
8
BLACK
6
CONTINUOUS
10
35.472
20
-25.2501
11
35.5745
21
-24.9684
0
LINE
8
BLACK
6
CONTINUOUS
10
35.5745
20
-24.9684
11
35.7672
21
-24.7388
0
LINE
8
BLACK
6
CONTINUOUS
10
35.7672
20
-24.7388
11
36.0268
21
-24.5889
0
LINE
8
BLACK
6
CONTINUOUS
10
36.0268
20
-24.5889
11
36.2476
21
-24.55
0
LINE
8
BLACK
6
CONTINUOUS
10
36.2476
20
-24.55
11
36.3964
21
-24.55
0
LINE
8
BLACK
6
CONTINUOUS
10
36.3964
20
-24.55
11
36.6172
21
-24.5889
0
LINE
8
BLACK
6
CONTINUOUS
10
34.0772
20
-24.5889
11
34.3368
21
-24.7388
0
LINE
8
BLACK
6
CONTINUOUS
10
34.3368
20
-24.7388
11
34.5295
21
-24.9684
0
LINE
8
BLACK
6
CONTINUOUS
10
34.5295
20
-24.9684
11
34.632
21
-25.2501
0
LINE
8
BLACK
6
CONTINUOUS
10
34.632
20
-25.2501
11
34.632
21
-25.5499
0
LINE
8
BLACK
6
CONTINUOUS
10
34.632
20
-25.5499
11
34.5295
21
-25.8316
0
LINE
8
BLACK
6
CONTINUOUS
10
34.5295
20
-25.8316
11
34.3368
21
-26.0612
0
LINE
8
BLACK
6
CONTINUOUS
10
34.3368
20
-26.0612
11
34.282
21
-26.0928
0
LINE
8
BLACK
6
CONTINUOUS
10
34.282
20
-26.0928
11
34.282
21
-28.9709
0
LINE
8
BLACK
6
CONTINUOUS
10
34.282
20
-28.9709
11
34.3976
21
-29.1086
0
LINE
8
BLACK
6
CONTINUOUS
10
34.3976
20
-29.1086
11
34.482
21
-29.3406
0
LINE
8
BLACK
6
CONTINUOUS
10
34.482
20
-29.3406
11
34.482
21
-29.5874
0
LINE
8
BLACK
6
CONTINUOUS
10
34.482
20
-29.5874
11
34.3976
21
-29.8194
0
LINE
8
BLACK
6
CONTINUOUS
10
34.3976
20
-29.8194
11
34.2389
21
-30.0085
0
LINE
8
BLACK
6
CONTINUOUS
10
34.2389
20
-30.0085
11
34.0251
21
-30.1319
0
LINE
8
BLACK
6
CONTINUOUS
10
34.0251
20
-30.1319
11
33.782
21
-30.1748
0
LINE
8
BLACK
6
CONTINUOUS
10
33.782
20
-30.1748
11
33.5389
21
-30.1319
0
LINE
8
BLACK
6
CONTINUOUS
10
33.5389
20
-30.1319
11
33.3251
21
-30.0085
0
LINE
8
BLACK
6
CONTINUOUS
10
33.3251
20
-30.0085
11
33.1664
21
-29.8194
0
LINE
8
BLACK
6
CONTINUOUS
10
33.1664
20
-29.8194
11
33.082
21
-29.5874
0
LINE
8
BLACK
6
CONTINUOUS
10
33.082
20
-29.5874
11
33.082
21
-29.3406
0
LINE
8
BLACK
6
CONTINUOUS
10
33.082
20
-29.3406
11
33.1664
21
-29.1086
0
LINE
8
BLACK
6
CONTINUOUS
10
33.1664
20
-29.1086
11
33.282
21
-28.9709
0
LINE
8
BLACK
6
CONTINUOUS
10
33.282
20
-28.9709
11
33.282
21
-26.0928
0
LINE
8
BLACK
6
CONTINUOUS
10
33.282
20
-26.0928
11
33.2272
21
-26.0612
0
LINE
8
BLACK
6
CONTINUOUS
10
33.2272
20
-26.0612
11
33.0345
21
-25.8316
0
LINE
8
BLACK
6
CONTINUOUS
10
33.0345
20
-25.8316
11
32.932
21
-25.5499
0
LINE
8
BLACK
6
CONTINUOUS
10
32.932
20
-25.5499
11
32.932
21
-25.2501
0
LINE
8
BLACK
6
CONTINUOUS
10
32.932
20
-25.2501
11
33.0345
21
-24.9684
0
LINE
8
BLACK
6
CONTINUOUS
10
33.0345
20
-24.9684
11
33.2272
21
-24.7388
0
LINE
8
BLACK
6
CONTINUOUS
10
33.2272
20
-24.7388
11
33.4868
21
-24.5889
0
LINE
8
BLACK
6
CONTINUOUS
10
33.4868
20
-24.5889
11
33.7076
21
-24.55
0
LINE
8
BLACK
6
CONTINUOUS
10
33.7076
20
-24.55
11
33.8564
21
-24.55
0
LINE
8
BLACK
6
CONTINUOUS
10
33.8564
20
-24.55
11
34.0772
21
-24.5889
0
LINE
8
BLACK
6
CONTINUOUS
10
31.5372
20
-24.5889
11
31.7968
21
-24.7388
0
LINE
8
BLACK
6
CONTINUOUS
10
31.7968
20
-24.7388
11
31.9895
21
-24.9684
0
LINE
8
BLACK
6
CONTINUOUS
10
31.9895
20
-24.9684
11
32.092
21
-25.2501
0
LINE
8
BLACK
6
CONTINUOUS
10
32.092
20
-25.2501
11
32.092
21
-25.5499
0
LINE
8
BLACK
6
CONTINUOUS
10
32.092
20
-25.5499
11
31.9895
21
-25.8316
0
LINE
8
BLACK
6
CONTINUOUS
10
31.9895
20
-25.8316
11
31.7968
21
-26.0612
0
LINE
8
BLACK
6
CONTINUOUS
10
31.7968
20
-26.0612
11
31.742
21
-26.0928
0
LINE
8
BLACK
6
CONTINUOUS
10
31.742
20
-26.0928
11
31.742
21
-28.9709
0
LINE
8
BLACK
6
CONTINUOUS
10
31.742
20
-28.9709
11
31.8576
21
-29.1086
0
LINE
8
BLACK
6
CONTINUOUS
10
31.8576
20
-29.1086
11
31.942
21
-29.3406
0
LINE
8
BLACK
6
CONTINUOUS
10
31.942
20
-29.3406
11
31.942
21
-29.5874
0
LINE
8
BLACK
6
CONTINUOUS
10
31.942
20
-29.5874
11
31.8576
21
-29.8194
0
LINE
8
BLACK
6
CONTINUOUS
10
31.8576
20
-29.8194
11
31.6989
21
-30.0085
0
LINE
8
BLACK
6
CONTINUOUS
10
31.6989
20
-30.0085
11
31.4851
21
-30.1319
0
LINE
8
BLACK
6
CONTINUOUS
10
31.4851
20
-30.1319
11
31.242
21
-30.1748
0
LINE
8
BLACK
6
CONTINUOUS
10
31.242
20
-30.1748
11
30.9989
21
-30.1319
0
LINE
8
BLACK
6
CONTINUOUS
10
30.9989
20
-30.1319
11
30.7851
21
-30.0085
0
LINE
8
BLACK
6
CONTINUOUS
10
30.7851
20
-30.0085
11
30.6264
21
-29.8194
0
LINE
8
BLACK
6
CONTINUOUS
10
30.6264
20
-29.8194
11
30.542
21
-29.5874
0
LINE
8
BLACK
6
CONTINUOUS
10
30.542
20
-29.5874
11
30.542
21
-29.3406
0
LINE
8
BLACK
6
CONTINUOUS
10
30.542
20
-29.3406
11
30.6264
21
-29.1086
0
LINE
8
BLACK
6
CONTINUOUS
10
30.6264
20
-29.1086
11
30.742
21
-28.9709
0
LINE
8
BLACK
6
CONTINUOUS
10
30.742
20
-28.9709
11
30.742
21
-26.0928
0
LINE
8
BLACK
6
CONTINUOUS
10
30.742
20
-26.0928
11
30.6872
21
-26.0612
0
LINE
8
BLACK
6
CONTINUOUS
10
30.6872
20
-26.0612
11
30.4945
21
-25.8316
0
LINE
8
BLACK
6
CONTINUOUS
10
30.4945
20
-25.8316
11
30.392
21
-25.5499
0
LINE
8
BLACK
6
CONTINUOUS
10
30.392
20
-25.5499
11
30.392
21
-25.2501
0
LINE
8
BLACK
6
CONTINUOUS
10
30.392
20
-25.2501
11
30.4945
21
-24.9684
0
LINE
8
BLACK
6
CONTINUOUS
10
30.4945
20
-24.9684
11
30.6872
21
-24.7388
0
LINE
8
BLACK
6
CONTINUOUS
10
30.6872
20
-24.7388
11
30.9468
21
-24.5889
0
LINE
8
BLACK
6
CONTINUOUS
10
30.9468
20
-24.5889
11
31.1676
21
-24.55
0
LINE
8
BLACK
6
CONTINUOUS
10
31.1676
20
-24.55
11
31.3164
21
-24.55
0
LINE
8
BLACK
6
CONTINUOUS
10
31.3164
20
-24.55
11
31.5372
21
-24.5889
0
LINE
8
BLACK
6
CONTINUOUS
10
50.166
20
-23.8424
11
50.502
21
-24.0364
0
LINE
8
BLACK
6
CONTINUOUS
10
50.502
20
-24.0364
11
50.7513
21
-24.3335
0
LINE
8
BLACK
6
CONTINUOUS
10
50.7513
20
-24.3335
11
50.884
21
-24.698
0
LINE
8
BLACK
6
CONTINUOUS
10
50.884
20
-24.698
11
50.884
21
-25.086
0
LINE
8
BLACK
6
CONTINUOUS
10
50.884
20
-25.086
11
50.7513
21
-25.4505
0
LINE
8
BLACK
6
CONTINUOUS
10
50.7513
20
-25.4505
11
50.502
21
-25.7476
0
LINE
8
BLACK
6
CONTINUOUS
10
50.502
20
-25.7476
11
50.166
21
-25.9416
0
LINE
8
BLACK
6
CONTINUOUS
10
50.166
20
-25.9416
11
49.784
21
-26.009
0
LINE
8
BLACK
6
CONTINUOUS
10
49.784
20
-26.009
11
49.402
21
-25.9416
0
LINE
8
BLACK
6
CONTINUOUS
10
49.402
20
-25.9416
11
49.066
21
-25.7476
0
LINE
8
BLACK
6
CONTINUOUS
10
49.066
20
-25.7476
11
48.8167
21
-25.4505
0
LINE
8
BLACK
6
CONTINUOUS
10
48.8167
20
-25.4505
11
48.684
21
-25.086
0
LINE
8
BLACK
6
CONTINUOUS
10
48.684
20
-25.086
11
48.684
21
-24.698
0
LINE
8
BLACK
6
CONTINUOUS
10
48.684
20
-24.698
11
48.8167
21
-24.3335
0
LINE
8
BLACK
6
CONTINUOUS
10
48.8167
20
-24.3335
11
49.066
21
-24.0364
0
LINE
8
BLACK
6
CONTINUOUS
10
49.066
20
-24.0364
11
49.402
21
-23.8424
0
LINE
8
BLACK
6
CONTINUOUS
10
49.402
20
-23.8424
11
49.784
21
-23.775
0
LINE
8
BLACK
6
CONTINUOUS
10
49.784
20
-23.775
11
50.166
21
-23.8424
0
LINE
8
BLACK
6
CONTINUOUS
10
23.242
20
-23.8424
11
23.578
21
-24.0364
0
LINE
8
BLACK
6
CONTINUOUS
10
23.578
20
-24.0364
11
23.8273
21
-24.3335
0
LINE
8
BLACK
6
CONTINUOUS
10
23.8273
20
-24.3335
11
23.96
21
-24.698
0
LINE
8
BLACK
6
CONTINUOUS
10
23.96
20
-24.698
11
23.96
21
-25.086
0
LINE
8
BLACK
6
CONTINUOUS
10
23.96
20
-25.086
11
23.8273
21
-25.4505
0
LINE
8
BLACK
6
CONTINUOUS
10
23.8273
20
-25.4505
11
23.578
21
-25.7476
0
LINE
8
BLACK
6
CONTINUOUS
10
23.578
20
-25.7476
11
23.242
21
-25.9416
0
LINE
8
BLACK
6
CONTINUOUS
10
23.242
20
-25.9416
11
22.86
21
-26.009
0
LINE
8
BLACK
6
CONTINUOUS
10
22.86
20
-26.009
11
22.478
21
-25.9416
0
LINE
8
BLACK
6
CONTINUOUS
10
22.478
20
-25.9416
11
22.142
21
-25.7476
0
LINE
8
BLACK
6
CONTINUOUS
10
22.142
20
-25.7476
11
21.8927
21
-25.4505
0
LINE
8
BLACK
6
CONTINUOUS
10
21.8927
20
-25.4505
11
21.76
21
-25.086
0
LINE
8
BLACK
6
CONTINUOUS
10
21.76
20
-25.086
11
21.76
21
-24.698
0
LINE
8
BLACK
6
CONTINUOUS
10
21.76
20
-24.698
11
21.8927
21
-24.3335
0
LINE
8
BLACK
6
CONTINUOUS
10
21.8927
20
-24.3335
11
22.142
21
-24.0364
0
LINE
8
BLACK
6
CONTINUOUS
10
22.142
20
-24.0364
11
22.478
21
-23.8424
0
LINE
8
BLACK
6
CONTINUOUS
10
22.478
20
-23.8424
11
22.86
21
-23.775
0
LINE
8
BLACK
6
CONTINUOUS
10
22.86
20
-23.775
11
23.242
21
-23.8424
  0
ENDSEC
  0
EOF
