  0
SECTION
  2
HEADER
  9
$ANGBASE
  50
0.0
  9
$ANGDIR
  70
  1
  9
$MEASUREMENT
  70
0
  0
ENDSEC
  0
SECTION
  2
TABLES
  0
TABLE
  2
LTYPE
  70
4
  0
LTYPE
  5
40F
  2
CONTINUOUS
  70
0
  3
Solid line
  72
65
  73
0
  40
0.0
  0
LTYPE
  5
410
  2
DASHDOT
 70
0
  3
Dash Dot ____ _ ____ _
 72
65
 73
4
 40
2.0
 49
1.25
 49
-0.25
 49
0.25
 49
-0.25
  0
LTYPE
  5
411
  2
DASHED
 70
0
  3
Dashed __ __ __ __ __
 72
65
 73
2
 40
0.75
 49
0.5
 49
-0.25
  0
LTYPE
  5
43B
  2
DOTTED
 70
0
  3
Dotted .  .  .  .
 72
65
 73
2
 40
0.2
 49
0.0
 49
-0.2
  0
ENDTAB
  0
TABLE
  2
STYLE
  70
4
  0
STYLE
  2
KICAD
  70
0
  40
0
  41
1
  42
1
  50
0
  71
0
  3
isocp.shx
  0
STYLE
  2
KICADB
  70
0
  40
0
  41
1
  42
1
  50
0
  71
0
  3
isocp.shx
  0
STYLE
  2
KICADI
  70
0
  40
0
  41
1
  42
1
  50
15
  71
0
  3
isocp.shx
  0
STYLE
  2
KICADBI
  70
0
  40
0
  41
1
  42
1
  50
15
  71
0
  3
isocp.shx
  0
ENDTAB
  0
TABLE
  2
LAYER
  70
30
  0
LAYER
  2
BLACK
  70
0
  62
7
  6
CONTINUOUS
  0
LAYER
  2
GRAY1
  70
0
  62
251
  6
CONTINUOUS
  0
LAYER
  2
GRAY2
  70
0
  62
8
  6
CONTINUOUS
  0
LAYER
  2
GRAY3
  70
0
  62
9
  6
CONTINUOUS
  0
LAYER
  2
WHITE
  70
0
  62
7
  6
CONTINUOUS
  0
LAYER
  2
LYELLOW
  70
0
  62
51
  6
CONTINUOUS
  0
LAYER
  2
BLUE1
  70
0
  62
178
  6
CONTINUOUS
  0
LAYER
  2
GREEN1
  70
0
  62
98
  6
CONTINUOUS
  0
LAYER
  2
CYAN1
  70
0
  62
138
  6
CONTINUOUS
  0
LAYER
  2
RED1
  70
0
  62
18
  6
CONTINUOUS
  0
LAYER
  2
MAGENTA1
  70
0
  62
228
  6
CONTINUOUS
  0
LAYER
  2
BROWN1
  70
0
  62
58
  6
CONTINUOUS
  0
LAYER
  2
BLUE2
  70
0
  62
5
  6
CONTINUOUS
  0
LAYER
  2
GREEN2
  70
0
  62
3
  6
CONTINUOUS
  0
LAYER
  2
CYAN2
  70
0
  62
4
  6
CONTINUOUS
  0
LAYER
  2
RED2
  70
0
  62
1
  6
CONTINUOUS
  0
LAYER
  2
MAGENTA2
  70
0
  62
6
  6
CONTINUOUS
  0
LAYER
  2
BROWN2
  70
0
  62
54
  6
CONTINUOUS
  0
LAYER
  2
BLUE3
  70
0
  62
171
  6
CONTINUOUS
  0
LAYER
  2
GREEN3
  70
0
  62
91
  6
CONTINUOUS
  0
LAYER
  2
CYAN3
  70
0
  62
131
  6
CONTINUOUS
  0
LAYER
  2
RED3
  70
0
  62
11
  6
CONTINUOUS
  0
LAYER
  2
MAGENTA3
  70
0
  62
221
  6
CONTINUOUS
  0
LAYER
  2
YELLOW3
  70
0
  62
2
  6
CONTINUOUS
  0
LAYER
  2
BLUE4
  70
0
  62
5
  6
CONTINUOUS
  0
LAYER
  2
GREEN4
  70
0
  62
3
  6
CONTINUOUS
  0
LAYER
  2
CYAN4
  70
0
  62
4
  6
CONTINUOUS
  0
LAYER
  2
RED4
  70
0
  62
1
  6
CONTINUOUS
  0
LAYER
  2
MAGENTA4
  70
0
  62
6
  6
CONTINUOUS
  0
LAYER
  2
YELLOW4
  70
0
  62
2
  6
CONTINUOUS
  0
ENDTAB
  0
ENDSEC
  0
SECTION
  2
ENTITIES
0
LINE
8
BLACK
6
CONTINUOUS
10
23.1809
20
-69.5543
11
23.381
21
-69.6372
0
LINE
8
BLACK
6
CONTINUOUS
10
23.381
20
-69.6372
11
23.381
21
-69.6372
0
LINE
8
BLACK
6
CONTINUOUS
10
23.381
20
-69.6372
11
23.4502
21
-69.6834
0
LINE
8
BLACK
6
CONTINUOUS
10
23.4502
20
-69.6834
11
23.5612
21
-69.7576
0
LINE
8
BLACK
6
CONTINUOUS
10
23.5612
20
-69.7576
11
23.7144
21
-69.9108
0
LINE
8
BLACK
6
CONTINUOUS
10
23.7144
20
-69.9108
11
23.7144
21
-69.9108
0
LINE
8
BLACK
6
CONTINUOUS
10
23.7144
20
-69.9108
11
23.7144
21
-69.9108
0
LINE
8
BLACK
6
CONTINUOUS
10
23.7144
20
-69.9108
11
23.8348
21
-70.091
0
LINE
8
BLACK
6
CONTINUOUS
10
23.8348
20
-70.091
11
23.8348
21
-70.091
0
LINE
8
BLACK
6
CONTINUOUS
10
23.8348
20
-70.091
11
23.9177
21
-70.2911
0
LINE
8
BLACK
6
CONTINUOUS
10
23.9177
20
-70.2911
11
23.96
21
-70.5037
0
LINE
8
BLACK
6
CONTINUOUS
10
23.96
20
-70.5037
11
23.96
21
-70.7203
0
LINE
8
BLACK
6
CONTINUOUS
10
23.96
20
-70.7203
11
23.9177
21
-70.9329
0
LINE
8
BLACK
6
CONTINUOUS
10
23.9177
20
-70.9329
11
23.8348
21
-71.133
0
LINE
8
BLACK
6
CONTINUOUS
10
23.8348
20
-71.133
11
23.7144
21
-71.3132
0
LINE
8
BLACK
6
CONTINUOUS
10
23.7144
20
-71.3132
11
23.5612
21
-71.4664
0
LINE
8
BLACK
6
CONTINUOUS
10
23.5612
20
-71.4664
11
23.381
21
-71.5868
0
LINE
8
BLACK
6
CONTINUOUS
10
23.381
20
-71.5868
11
23.1809
21
-71.6697
0
LINE
8
BLACK
6
CONTINUOUS
10
23.1809
20
-71.6697
11
22.9683
21
-71.712
0
LINE
8
BLACK
6
CONTINUOUS
10
22.9683
20
-71.712
11
22.7517
21
-71.712
0
LINE
8
BLACK
6
CONTINUOUS
10
22.7517
20
-71.712
11
22.5391
21
-71.6697
0
LINE
8
BLACK
6
CONTINUOUS
10
22.5391
20
-71.6697
11
22.339
21
-71.5868
0
LINE
8
BLACK
6
CONTINUOUS
10
22.339
20
-71.5868
11
22.1588
21
-71.4664
0
LINE
8
BLACK
6
CONTINUOUS
10
22.1588
20
-71.4664
11
22.0056
21
-71.3132
0
LINE
8
BLACK
6
CONTINUOUS
10
22.0056
20
-71.3132
11
21.8852
21
-71.133
0
LINE
8
BLACK
6
CONTINUOUS
10
21.8852
20
-71.133
11
21.8023
21
-70.9329
0
LINE
8
BLACK
6
CONTINUOUS
10
21.8023
20
-70.9329
11
21.76
21
-70.7203
0
LINE
8
BLACK
6
CONTINUOUS
10
21.76
20
-70.7203
11
21.76
21
-70.5037
0
LINE
8
BLACK
6
CONTINUOUS
10
21.76
20
-70.5037
11
21.8023
21
-70.2911
0
LINE
8
BLACK
6
CONTINUOUS
10
21.8023
20
-70.2911
11
21.8852
21
-70.091
0
LINE
8
BLACK
6
CONTINUOUS
10
21.8852
20
-70.091
11
21.8852
21
-70.091
0
LINE
8
BLACK
6
CONTINUOUS
10
21.8852
20
-70.091
11
22.0056
21
-69.9108
0
LINE
8
BLACK
6
CONTINUOUS
10
22.0056
20
-69.9108
11
22.0056
21
-69.9108
0
LINE
8
BLACK
6
CONTINUOUS
10
22.0056
20
-69.9108
11
22.0056
21
-69.9108
0
LINE
8
BLACK
6
CONTINUOUS
10
22.0056
20
-69.9108
11
22.1588
21
-69.7576
0
LINE
8
BLACK
6
CONTINUOUS
10
22.1588
20
-69.7576
11
22.2698
21
-69.6834
0
LINE
8
BLACK
6
CONTINUOUS
10
22.2698
20
-69.6834
11
22.339
21
-69.6372
0
LINE
8
BLACK
6
CONTINUOUS
10
22.339
20
-69.6372
11
22.339
21
-69.6372
0
LINE
8
BLACK
6
CONTINUOUS
10
22.339
20
-69.6372
11
22.5391
21
-69.5543
0
LINE
8
BLACK
6
CONTINUOUS
10
22.5391
20
-69.5543
11
22.7517
21
-69.512
0
LINE
8
BLACK
6
CONTINUOUS
10
22.7517
20
-69.512
11
22.9683
21
-69.512
0
LINE
8
BLACK
6
CONTINUOUS
10
22.9683
20
-69.512
11
23.1809
21
-69.5543
0
LINE
8
BLACK
6
CONTINUOUS
10
50.1049
20
-69.5543
11
50.305
21
-69.6372
0
LINE
8
BLACK
6
CONTINUOUS
10
50.305
20
-69.6372
11
50.305
21
-69.6372
0
LINE
8
BLACK
6
CONTINUOUS
10
50.305
20
-69.6372
11
50.3742
21
-69.6834
0
LINE
8
BLACK
6
CONTINUOUS
10
50.3742
20
-69.6834
11
50.4852
21
-69.7576
0
LINE
8
BLACK
6
CONTINUOUS
10
50.4852
20
-69.7576
11
50.6384
21
-69.9108
0
LINE
8
BLACK
6
CONTINUOUS
10
50.6384
20
-69.9108
11
50.6384
21
-69.9108
0
LINE
8
BLACK
6
CONTINUOUS
10
50.6384
20
-69.9108
11
50.6384
21
-69.9108
0
LINE
8
BLACK
6
CONTINUOUS
10
50.6384
20
-69.9108
11
50.7588
21
-70.091
0
LINE
8
BLACK
6
CONTINUOUS
10
50.7588
20
-70.091
11
50.7588
21
-70.091
0
LINE
8
BLACK
6
CONTINUOUS
10
50.7588
20
-70.091
11
50.8417
21
-70.2911
0
LINE
8
BLACK
6
CONTINUOUS
10
50.8417
20
-70.2911
11
50.884
21
-70.5037
0
LINE
8
BLACK
6
CONTINUOUS
10
50.884
20
-70.5037
11
50.884
21
-70.7203
0
LINE
8
BLACK
6
CONTINUOUS
10
50.884
20
-70.7203
11
50.8417
21
-70.9329
0
LINE
8
BLACK
6
CONTINUOUS
10
50.8417
20
-70.9329
11
50.7588
21
-71.133
0
LINE
8
BLACK
6
CONTINUOUS
10
50.7588
20
-71.133
11
50.6384
21
-71.3132
0
LINE
8
BLACK
6
CONTINUOUS
10
50.6384
20
-71.3132
11
50.4852
21
-71.4664
0
LINE
8
BLACK
6
CONTINUOUS
10
50.4852
20
-71.4664
11
50.305
21
-71.5868
0
LINE
8
BLACK
6
CONTINUOUS
10
50.305
20
-71.5868
11
50.1049
21
-71.6697
0
LINE
8
BLACK
6
CONTINUOUS
10
50.1049
20
-71.6697
11
49.8923
21
-71.712
0
LINE
8
BLACK
6
CONTINUOUS
10
49.8923
20
-71.712
11
49.6757
21
-71.712
0
LINE
8
BLACK
6
CONTINUOUS
10
49.6757
20
-71.712
11
49.4631
21
-71.6697
0
LINE
8
BLACK
6
CONTINUOUS
10
49.4631
20
-71.6697
11
49.263
21
-71.5868
0
LINE
8
BLACK
6
CONTINUOUS
10
49.263
20
-71.5868
11
49.0828
21
-71.4664
0
LINE
8
BLACK
6
CONTINUOUS
10
49.0828
20
-71.4664
11
48.9296
21
-71.3132
0
LINE
8
BLACK
6
CONTINUOUS
10
48.9296
20
-71.3132
11
48.8092
21
-71.133
0
LINE
8
BLACK
6
CONTINUOUS
10
48.8092
20
-71.133
11
48.7263
21
-70.9329
0
LINE
8
BLACK
6
CONTINUOUS
10
48.7263
20
-70.9329
11
48.684
21
-70.7203
0
LINE
8
BLACK
6
CONTINUOUS
10
48.684
20
-70.7203
11
48.684
21
-70.5037
0
LINE
8
BLACK
6
CONTINUOUS
10
48.684
20
-70.5037
11
48.7263
21
-70.2911
0
LINE
8
BLACK
6
CONTINUOUS
10
48.7263
20
-70.2911
11
48.8092
21
-70.091
0
LINE
8
BLACK
6
CONTINUOUS
10
48.8092
20
-70.091
11
48.8092
21
-70.091
0
LINE
8
BLACK
6
CONTINUOUS
10
48.8092
20
-70.091
11
48.9296
21
-69.9108
0
LINE
8
BLACK
6
CONTINUOUS
10
48.9296
20
-69.9108
11
48.9296
21
-69.9108
0
LINE
8
BLACK
6
CONTINUOUS
10
48.9296
20
-69.9108
11
48.9296
21
-69.9108
0
LINE
8
BLACK
6
CONTINUOUS
10
48.9296
20
-69.9108
11
49.0828
21
-69.7576
0
LINE
8
BLACK
6
CONTINUOUS
10
49.0828
20
-69.7576
11
49.1938
21
-69.6834
0
LINE
8
BLACK
6
CONTINUOUS
10
49.1938
20
-69.6834
11
49.263
21
-69.6372
0
LINE
8
BLACK
6
CONTINUOUS
10
49.263
20
-69.6372
11
49.263
21
-69.6372
0
LINE
8
BLACK
6
CONTINUOUS
10
49.263
20
-69.6372
11
49.4631
21
-69.5543
0
LINE
8
BLACK
6
CONTINUOUS
10
49.4631
20
-69.5543
11
49.6757
21
-69.512
0
LINE
8
BLACK
6
CONTINUOUS
10
49.6757
20
-69.512
11
49.8923
21
-69.512
0
LINE
8
BLACK
6
CONTINUOUS
10
49.8923
20
-69.512
11
50.1049
21
-69.5543
0
LINE
8
BLACK
6
CONTINUOUS
10
40.2986
20
-69.0123
11
40.4589
21
-69.0609
0
LINE
8
BLACK
6
CONTINUOUS
10
40.4589
20
-69.0609
11
40.6065
21
-69.1398
0
LINE
8
BLACK
6
CONTINUOUS
10
40.6065
20
-69.1398
11
40.7359
21
-69.2461
0
LINE
8
BLACK
6
CONTINUOUS
10
40.7359
20
-69.2461
11
40.8422
21
-69.3755
0
LINE
8
BLACK
6
CONTINUOUS
10
40.8422
20
-69.3755
11
40.9211
21
-69.5231
0
LINE
8
BLACK
6
CONTINUOUS
10
40.9211
20
-69.5231
11
40.9697
21
-69.6834
0
LINE
8
BLACK
6
CONTINUOUS
10
40.9697
20
-69.6834
11
40.9861
21
-69.85
0
LINE
8
BLACK
6
CONTINUOUS
10
40.9861
20
-69.85
11
40.9697
21
-70.0166
0
LINE
8
BLACK
6
CONTINUOUS
10
40.9697
20
-70.0166
11
40.9211
21
-70.1769
0
LINE
8
BLACK
6
CONTINUOUS
10
40.9211
20
-70.1769
11
40.8422
21
-70.3245
0
LINE
8
BLACK
6
CONTINUOUS
10
40.8422
20
-70.3245
11
40.7359
21
-70.4539
0
LINE
8
BLACK
6
CONTINUOUS
10
40.7359
20
-70.4539
11
40.6065
21
-70.5602
0
LINE
8
BLACK
6
CONTINUOUS
10
40.6065
20
-70.5602
11
40.4589
21
-70.6391
0
LINE
8
BLACK
6
CONTINUOUS
10
40.4589
20
-70.6391
11
40.2986
21
-70.6877
0
LINE
8
BLACK
6
CONTINUOUS
10
40.2986
20
-70.6877
11
40.1738
21
-70.7
0
LINE
8
BLACK
6
CONTINUOUS
10
40.1738
20
-70.7
11
40.0902
21
-70.7
0
LINE
8
BLACK
6
CONTINUOUS
10
40.0902
20
-70.7
11
39.9654
21
-70.6877
0
LINE
8
BLACK
6
CONTINUOUS
10
39.9654
20
-70.6877
11
39.8051
21
-70.6391
0
LINE
8
BLACK
6
CONTINUOUS
10
39.8051
20
-70.6391
11
39.6575
21
-70.5602
0
LINE
8
BLACK
6
CONTINUOUS
10
39.6575
20
-70.5602
11
39.5281
21
-70.4539
0
LINE
8
BLACK
6
CONTINUOUS
10
39.5281
20
-70.4539
11
39.4218
21
-70.3245
0
LINE
8
BLACK
6
CONTINUOUS
10
39.4218
20
-70.3245
11
39.3429
21
-70.1769
0
LINE
8
BLACK
6
CONTINUOUS
10
39.3429
20
-70.1769
11
39.2943
21
-70.0166
0
LINE
8
BLACK
6
CONTINUOUS
10
39.2943
20
-70.0166
11
39.2779
21
-69.85
0
LINE
8
BLACK
6
CONTINUOUS
10
39.2779
20
-69.85
11
39.2943
21
-69.6834
0
LINE
8
BLACK
6
CONTINUOUS
10
39.2943
20
-69.6834
11
39.3429
21
-69.5231
0
LINE
8
BLACK
6
CONTINUOUS
10
39.3429
20
-69.5231
11
39.4218
21
-69.3755
0
LINE
8
BLACK
6
CONTINUOUS
10
39.4218
20
-69.3755
11
39.5281
21
-69.2461
0
LINE
8
BLACK
6
CONTINUOUS
10
39.5281
20
-69.2461
11
39.6575
21
-69.1398
0
LINE
8
BLACK
6
CONTINUOUS
10
39.6575
20
-69.1398
11
39.8051
21
-69.0609
0
LINE
8
BLACK
6
CONTINUOUS
10
39.8051
20
-69.0609
11
39.9654
21
-69.0123
0
LINE
8
BLACK
6
CONTINUOUS
10
39.9654
20
-69.0123
11
40.0902
21
-69
0
LINE
8
BLACK
6
CONTINUOUS
10
40.0902
20
-69
11
40.1738
21
-69
0
LINE
8
BLACK
6
CONTINUOUS
10
40.1738
20
-69
11
40.2986
21
-69.0123
0
LINE
8
BLACK
6
CONTINUOUS
10
30.822
20
-70.7
11
29.122
21
-70.7
0
LINE
8
BLACK
6
CONTINUOUS
10
29.122
20
-70.7
11
29.122
21
-69
0
LINE
8
BLACK
6
CONTINUOUS
10
29.122
20
-69
11
30.822
21
-69
0
LINE
8
BLACK
6
CONTINUOUS
10
30.822
20
-69
11
30.822
21
-70.7
0
LINE
8
BLACK
6
CONTINUOUS
10
32.6786
20
-69.0123
11
32.8389
21
-69.0609
0
LINE
8
BLACK
6
CONTINUOUS
10
32.8389
20
-69.0609
11
32.9865
21
-69.1398
0
LINE
8
BLACK
6
CONTINUOUS
10
32.9865
20
-69.1398
11
33.1159
21
-69.2461
0
LINE
8
BLACK
6
CONTINUOUS
10
33.1159
20
-69.2461
11
33.2222
21
-69.3755
0
LINE
8
BLACK
6
CONTINUOUS
10
33.2222
20
-69.3755
11
33.3011
21
-69.5231
0
LINE
8
BLACK
6
CONTINUOUS
10
33.3011
20
-69.5231
11
33.3497
21
-69.6834
0
LINE
8
BLACK
6
CONTINUOUS
10
33.3497
20
-69.6834
11
33.3661
21
-69.85
0
LINE
8
BLACK
6
CONTINUOUS
10
33.3661
20
-69.85
11
33.3497
21
-70.0166
0
LINE
8
BLACK
6
CONTINUOUS
10
33.3497
20
-70.0166
11
33.3011
21
-70.1769
0
LINE
8
BLACK
6
CONTINUOUS
10
33.3011
20
-70.1769
11
33.2222
21
-70.3245
0
LINE
8
BLACK
6
CONTINUOUS
10
33.2222
20
-70.3245
11
33.1159
21
-70.4539
0
LINE
8
BLACK
6
CONTINUOUS
10
33.1159
20
-70.4539
11
32.9865
21
-70.5602
0
LINE
8
BLACK
6
CONTINUOUS
10
32.9865
20
-70.5602
11
32.8389
21
-70.6391
0
LINE
8
BLACK
6
CONTINUOUS
10
32.8389
20
-70.6391
11
32.6786
21
-70.6877
0
LINE
8
BLACK
6
CONTINUOUS
10
32.6786
20
-70.6877
11
32.5538
21
-70.7
0
LINE
8
BLACK
6
CONTINUOUS
10
32.5538
20
-70.7
11
32.4702
21
-70.7
0
LINE
8
BLACK
6
CONTINUOUS
10
32.4702
20
-70.7
11
32.3454
21
-70.6877
0
LINE
8
BLACK
6
CONTINUOUS
10
32.3454
20
-70.6877
11
32.1851
21
-70.6391
0
LINE
8
BLACK
6
CONTINUOUS
10
32.1851
20
-70.6391
11
32.0375
21
-70.5602
0
LINE
8
BLACK
6
CONTINUOUS
10
32.0375
20
-70.5602
11
31.9081
21
-70.4539
0
LINE
8
BLACK
6
CONTINUOUS
10
31.9081
20
-70.4539
11
31.8018
21
-70.3245
0
LINE
8
BLACK
6
CONTINUOUS
10
31.8018
20
-70.3245
11
31.7229
21
-70.1769
0
LINE
8
BLACK
6
CONTINUOUS
10
31.7229
20
-70.1769
11
31.6743
21
-70.0166
0
LINE
8
BLACK
6
CONTINUOUS
10
31.6743
20
-70.0166
11
31.6579
21
-69.85
0
LINE
8
BLACK
6
CONTINUOUS
10
31.6579
20
-69.85
11
31.6743
21
-69.6834
0
LINE
8
BLACK
6
CONTINUOUS
10
31.6743
20
-69.6834
11
31.7229
21
-69.5231
0
LINE
8
BLACK
6
CONTINUOUS
10
31.7229
20
-69.5231
11
31.8018
21
-69.3755
0
LINE
8
BLACK
6
CONTINUOUS
10
31.8018
20
-69.3755
11
31.9081
21
-69.2461
0
LINE
8
BLACK
6
CONTINUOUS
10
31.9081
20
-69.2461
11
32.0375
21
-69.1398
0
LINE
8
BLACK
6
CONTINUOUS
10
32.0375
20
-69.1398
11
32.1851
21
-69.0609
0
LINE
8
BLACK
6
CONTINUOUS
10
32.1851
20
-69.0609
11
32.3454
21
-69.0123
0
LINE
8
BLACK
6
CONTINUOUS
10
32.3454
20
-69.0123
11
32.4702
21
-69
0
LINE
8
BLACK
6
CONTINUOUS
10
32.4702
20
-69
11
32.5538
21
-69
0
LINE
8
BLACK
6
CONTINUOUS
10
32.5538
20
-69
11
32.6786
21
-69.0123
0
LINE
8
BLACK
6
CONTINUOUS
10
37.7586
20
-69.0123
11
37.9189
21
-69.0609
0
LINE
8
BLACK
6
CONTINUOUS
10
37.9189
20
-69.0609
11
38.0665
21
-69.1398
0
LINE
8
BLACK
6
CONTINUOUS
10
38.0665
20
-69.1398
11
38.1959
21
-69.2461
0
LINE
8
BLACK
6
CONTINUOUS
10
38.1959
20
-69.2461
11
38.3022
21
-69.3755
0
LINE
8
BLACK
6
CONTINUOUS
10
38.3022
20
-69.3755
11
38.3811
21
-69.5231
0
LINE
8
BLACK
6
CONTINUOUS
10
38.3811
20
-69.5231
11
38.4297
21
-69.6834
0
LINE
8
BLACK
6
CONTINUOUS
10
38.4297
20
-69.6834
11
38.4461
21
-69.85
0
LINE
8
BLACK
6
CONTINUOUS
10
38.4461
20
-69.85
11
38.4297
21
-70.0166
0
LINE
8
BLACK
6
CONTINUOUS
10
38.4297
20
-70.0166
11
38.3811
21
-70.1769
0
LINE
8
BLACK
6
CONTINUOUS
10
38.3811
20
-70.1769
11
38.3022
21
-70.3245
0
LINE
8
BLACK
6
CONTINUOUS
10
38.3022
20
-70.3245
11
38.1959
21
-70.4539
0
LINE
8
BLACK
6
CONTINUOUS
10
38.1959
20
-70.4539
11
38.0665
21
-70.5602
0
LINE
8
BLACK
6
CONTINUOUS
10
38.0665
20
-70.5602
11
37.9189
21
-70.6391
0
LINE
8
BLACK
6
CONTINUOUS
10
37.9189
20
-70.6391
11
37.7586
21
-70.6877
0
LINE
8
BLACK
6
CONTINUOUS
10
37.7586
20
-70.6877
11
37.6338
21
-70.7
0
LINE
8
BLACK
6
CONTINUOUS
10
37.6338
20
-70.7
11
37.5502
21
-70.7
0
LINE
8
BLACK
6
CONTINUOUS
10
37.5502
20
-70.7
11
37.4254
21
-70.6877
0
LINE
8
BLACK
6
CONTINUOUS
10
37.4254
20
-70.6877
11
37.2651
21
-70.6391
0
LINE
8
BLACK
6
CONTINUOUS
10
37.2651
20
-70.6391
11
37.1175
21
-70.5602
0
LINE
8
BLACK
6
CONTINUOUS
10
37.1175
20
-70.5602
11
36.9881
21
-70.4539
0
LINE
8
BLACK
6
CONTINUOUS
10
36.9881
20
-70.4539
11
36.8818
21
-70.3245
0
LINE
8
BLACK
6
CONTINUOUS
10
36.8818
20
-70.3245
11
36.8029
21
-70.1769
0
LINE
8
BLACK
6
CONTINUOUS
10
36.8029
20
-70.1769
11
36.7543
21
-70.0166
0
LINE
8
BLACK
6
CONTINUOUS
10
36.7543
20
-70.0166
11
36.7379
21
-69.85
0
LINE
8
BLACK
6
CONTINUOUS
10
36.7379
20
-69.85
11
36.7543
21
-69.6834
0
LINE
8
BLACK
6
CONTINUOUS
10
36.7543
20
-69.6834
11
36.8029
21
-69.5231
0
LINE
8
BLACK
6
CONTINUOUS
10
36.8029
20
-69.5231
11
36.8818
21
-69.3755
0
LINE
8
BLACK
6
CONTINUOUS
10
36.8818
20
-69.3755
11
36.9881
21
-69.2461
0
LINE
8
BLACK
6
CONTINUOUS
10
36.9881
20
-69.2461
11
37.1175
21
-69.1398
0
LINE
8
BLACK
6
CONTINUOUS
10
37.1175
20
-69.1398
11
37.2651
21
-69.0609
0
LINE
8
BLACK
6
CONTINUOUS
10
37.2651
20
-69.0609
11
37.4254
21
-69.0123
0
LINE
8
BLACK
6
CONTINUOUS
10
37.4254
20
-69.0123
11
37.5502
21
-69
0
LINE
8
BLACK
6
CONTINUOUS
10
37.5502
20
-69
11
37.6338
21
-69
0
LINE
8
BLACK
6
CONTINUOUS
10
37.6338
20
-69
11
37.7586
21
-69.0123
0
LINE
8
BLACK
6
CONTINUOUS
10
35.2186
20
-69.0123
11
35.3789
21
-69.0609
0
LINE
8
BLACK
6
CONTINUOUS
10
35.3789
20
-69.0609
11
35.5265
21
-69.1398
0
LINE
8
BLACK
6
CONTINUOUS
10
35.5265
20
-69.1398
11
35.6559
21
-69.2461
0
LINE
8
BLACK
6
CONTINUOUS
10
35.6559
20
-69.2461
11
35.7622
21
-69.3755
0
LINE
8
BLACK
6
CONTINUOUS
10
35.7622
20
-69.3755
11
35.8411
21
-69.5231
0
LINE
8
BLACK
6
CONTINUOUS
10
35.8411
20
-69.5231
11
35.8897
21
-69.6834
0
LINE
8
BLACK
6
CONTINUOUS
10
35.8897
20
-69.6834
11
35.9061
21
-69.85
0
LINE
8
BLACK
6
CONTINUOUS
10
35.9061
20
-69.85
11
35.8897
21
-70.0166
0
LINE
8
BLACK
6
CONTINUOUS
10
35.8897
20
-70.0166
11
35.8411
21
-70.1769
0
LINE
8
BLACK
6
CONTINUOUS
10
35.8411
20
-70.1769
11
35.7622
21
-70.3245
0
LINE
8
BLACK
6
CONTINUOUS
10
35.7622
20
-70.3245
11
35.6559
21
-70.4539
0
LINE
8
BLACK
6
CONTINUOUS
10
35.6559
20
-70.4539
11
35.5265
21
-70.5602
0
LINE
8
BLACK
6
CONTINUOUS
10
35.5265
20
-70.5602
11
35.3789
21
-70.6391
0
LINE
8
BLACK
6
CONTINUOUS
10
35.3789
20
-70.6391
11
35.2186
21
-70.6877
0
LINE
8
BLACK
6
CONTINUOUS
10
35.2186
20
-70.6877
11
35.0938
21
-70.7
0
LINE
8
BLACK
6
CONTINUOUS
10
35.0938
20
-70.7
11
35.0102
21
-70.7
0
LINE
8
BLACK
6
CONTINUOUS
10
35.0102
20
-70.7
11
34.8854
21
-70.6877
0
LINE
8
BLACK
6
CONTINUOUS
10
34.8854
20
-70.6877
11
34.7251
21
-70.6391
0
LINE
8
BLACK
6
CONTINUOUS
10
34.7251
20
-70.6391
11
34.5775
21
-70.5602
0
LINE
8
BLACK
6
CONTINUOUS
10
34.5775
20
-70.5602
11
34.4481
21
-70.4539
0
LINE
8
BLACK
6
CONTINUOUS
10
34.4481
20
-70.4539
11
34.3418
21
-70.3245
0
LINE
8
BLACK
6
CONTINUOUS
10
34.3418
20
-70.3245
11
34.2629
21
-70.1769
0
LINE
8
BLACK
6
CONTINUOUS
10
34.2629
20
-70.1769
11
34.2143
21
-70.0166
0
LINE
8
BLACK
6
CONTINUOUS
10
34.2143
20
-70.0166
11
34.1979
21
-69.85
0
LINE
8
BLACK
6
CONTINUOUS
10
34.1979
20
-69.85
11
34.2143
21
-69.6834
0
LINE
8
BLACK
6
CONTINUOUS
10
34.2143
20
-69.6834
11
34.2629
21
-69.5231
0
LINE
8
BLACK
6
CONTINUOUS
10
34.2629
20
-69.5231
11
34.3418
21
-69.3755
0
LINE
8
BLACK
6
CONTINUOUS
10
34.3418
20
-69.3755
11
34.4481
21
-69.2461
0
LINE
8
BLACK
6
CONTINUOUS
10
34.4481
20
-69.2461
11
34.5775
21
-69.1398
0
LINE
8
BLACK
6
CONTINUOUS
10
34.5775
20
-69.1398
11
34.7251
21
-69.0609
0
LINE
8
BLACK
6
CONTINUOUS
10
34.7251
20
-69.0609
11
34.8854
21
-69.0123
0
LINE
8
BLACK
6
CONTINUOUS
10
34.8854
20
-69.0123
11
35.0102
21
-69
0
LINE
8
BLACK
6
CONTINUOUS
10
35.0102
20
-69
11
35.0938
21
-69
0
LINE
8
BLACK
6
CONTINUOUS
10
35.0938
20
-69
11
35.2186
21
-69.0123
0
LINE
8
BLACK
6
CONTINUOUS
10
42.7896
20
-65.5017
11
42.8288
21
-65.5056
0
LINE
8
BLACK
6
CONTINUOUS
10
42.8288
20
-65.5056
11
42.9042
21
-65.5284
0
LINE
8
BLACK
6
CONTINUOUS
10
42.9042
20
-65.5284
11
42.9796
21
-65.5513
0
LINE
8
BLACK
6
CONTINUOUS
10
42.9796
20
-65.5513
11
43.1186
21
-65.6256
0
LINE
8
BLACK
6
CONTINUOUS
10
43.1186
20
-65.6256
11
43.2404
21
-65.7256
0
LINE
8
BLACK
6
CONTINUOUS
10
43.2404
20
-65.7256
11
43.3404
21
-65.8474
0
LINE
8
BLACK
6
CONTINUOUS
10
43.3404
20
-65.8474
11
43.4147
21
-65.9864
0
LINE
8
BLACK
6
CONTINUOUS
10
43.4147
20
-65.9864
11
43.4604
21
-66.1372
0
LINE
8
BLACK
6
CONTINUOUS
10
43.4604
20
-66.1372
11
43.4759
21
-66.294
0
LINE
8
BLACK
6
CONTINUOUS
10
43.4759
20
-66.294
11
43.4604
21
-66.4508
0
LINE
8
BLACK
6
CONTINUOUS
10
43.4604
20
-66.4508
11
43.4147
21
-66.6016
0
LINE
8
BLACK
6
CONTINUOUS
10
43.4147
20
-66.6016
11
43.3404
21
-66.7406
0
LINE
8
BLACK
6
CONTINUOUS
10
43.3404
20
-66.7406
11
43.2404
21
-66.8624
0
LINE
8
BLACK
6
CONTINUOUS
10
43.2404
20
-66.8624
11
43.1186
21
-66.9624
0
LINE
8
BLACK
6
CONTINUOUS
10
43.1186
20
-66.9624
11
42.9796
21
-67.0367
0
LINE
8
BLACK
6
CONTINUOUS
10
42.9796
20
-67.0367
11
42.9042
21
-67.0596
0
LINE
8
BLACK
6
CONTINUOUS
10
42.9042
20
-67.0596
11
42.8288
21
-67.0824
0
LINE
8
BLACK
6
CONTINUOUS
10
42.8288
20
-67.0824
11
42.7896
21
-67.0863
0
LINE
8
BLACK
6
CONTINUOUS
10
42.7896
20
-67.0863
11
42.7113
21
-67.094
0
LINE
8
BLACK
6
CONTINUOUS
10
42.7113
20
-67.094
11
42.6327
21
-67.094
0
LINE
8
BLACK
6
CONTINUOUS
10
42.6327
20
-67.094
11
42.5544
21
-67.0863
0
LINE
8
BLACK
6
CONTINUOUS
10
42.5544
20
-67.0863
11
42.5152
21
-67.0824
0
LINE
8
BLACK
6
CONTINUOUS
10
42.5152
20
-67.0824
11
42.4398
21
-67.0596
0
LINE
8
BLACK
6
CONTINUOUS
10
42.4398
20
-67.0596
11
42.3644
21
-67.0367
0
LINE
8
BLACK
6
CONTINUOUS
10
42.3644
20
-67.0367
11
42.2254
21
-66.9624
0
LINE
8
BLACK
6
CONTINUOUS
10
42.2254
20
-66.9624
11
42.1036
21
-66.8624
0
LINE
8
BLACK
6
CONTINUOUS
10
42.1036
20
-66.8624
11
42.0036
21
-66.7406
0
LINE
8
BLACK
6
CONTINUOUS
10
42.0036
20
-66.7406
11
41.9293
21
-66.6016
0
LINE
8
BLACK
6
CONTINUOUS
10
41.9293
20
-66.6016
11
41.8836
21
-66.4508
0
LINE
8
BLACK
6
CONTINUOUS
10
41.8836
20
-66.4508
11
41.8681
21
-66.294
0
LINE
8
BLACK
6
CONTINUOUS
10
41.8681
20
-66.294
11
41.8836
21
-66.1372
0
LINE
8
BLACK
6
CONTINUOUS
10
41.8836
20
-66.1372
11
41.9293
21
-65.9864
0
LINE
8
BLACK
6
CONTINUOUS
10
41.9293
20
-65.9864
11
42.0036
21
-65.8474
0
LINE
8
BLACK
6
CONTINUOUS
10
42.0036
20
-65.8474
11
42.1036
21
-65.7256
0
LINE
8
BLACK
6
CONTINUOUS
10
42.1036
20
-65.7256
11
42.2254
21
-65.6256
0
LINE
8
BLACK
6
CONTINUOUS
10
42.2254
20
-65.6256
11
42.3644
21
-65.5513
0
LINE
8
BLACK
6
CONTINUOUS
10
42.3644
20
-65.5513
11
42.4398
21
-65.5284
0
LINE
8
BLACK
6
CONTINUOUS
10
42.4398
20
-65.5284
11
42.5152
21
-65.5056
0
LINE
8
BLACK
6
CONTINUOUS
10
42.5152
20
-65.5056
11
42.5544
21
-65.5017
0
LINE
8
BLACK
6
CONTINUOUS
10
42.5544
20
-65.5017
11
42.6327
21
-65.494
0
LINE
8
BLACK
6
CONTINUOUS
10
42.6327
20
-65.494
11
42.7113
21
-65.494
0
LINE
8
BLACK
6
CONTINUOUS
10
42.7113
20
-65.494
11
42.7896
21
-65.5017
0
LINE
8
BLACK
6
CONTINUOUS
10
45.3296
20
-65.5017
11
45.3688
21
-65.5056
0
LINE
8
BLACK
6
CONTINUOUS
10
45.3688
20
-65.5056
11
45.4442
21
-65.5284
0
LINE
8
BLACK
6
CONTINUOUS
10
45.4442
20
-65.5284
11
45.5196
21
-65.5513
0
LINE
8
BLACK
6
CONTINUOUS
10
45.5196
20
-65.5513
11
45.6586
21
-65.6256
0
LINE
8
BLACK
6
CONTINUOUS
10
45.6586
20
-65.6256
11
45.7804
21
-65.7256
0
LINE
8
BLACK
6
CONTINUOUS
10
45.7804
20
-65.7256
11
45.8804
21
-65.8474
0
LINE
8
BLACK
6
CONTINUOUS
10
45.8804
20
-65.8474
11
45.9547
21
-65.9864
0
LINE
8
BLACK
6
CONTINUOUS
10
45.9547
20
-65.9864
11
46.0004
21
-66.1372
0
LINE
8
BLACK
6
CONTINUOUS
10
46.0004
20
-66.1372
11
46.0159
21
-66.294
0
LINE
8
BLACK
6
CONTINUOUS
10
46.0159
20
-66.294
11
46.0004
21
-66.4508
0
LINE
8
BLACK
6
CONTINUOUS
10
46.0004
20
-66.4508
11
45.9547
21
-66.6016
0
LINE
8
BLACK
6
CONTINUOUS
10
45.9547
20
-66.6016
11
45.8804
21
-66.7406
0
LINE
8
BLACK
6
CONTINUOUS
10
45.8804
20
-66.7406
11
45.7804
21
-66.8624
0
LINE
8
BLACK
6
CONTINUOUS
10
45.7804
20
-66.8624
11
45.6586
21
-66.9624
0
LINE
8
BLACK
6
CONTINUOUS
10
45.6586
20
-66.9624
11
45.5196
21
-67.0367
0
LINE
8
BLACK
6
CONTINUOUS
10
45.5196
20
-67.0367
11
45.4442
21
-67.0596
0
LINE
8
BLACK
6
CONTINUOUS
10
45.4442
20
-67.0596
11
45.3688
21
-67.0824
0
LINE
8
BLACK
6
CONTINUOUS
10
45.3688
20
-67.0824
11
45.3296
21
-67.0863
0
LINE
8
BLACK
6
CONTINUOUS
10
45.3296
20
-67.0863
11
45.2513
21
-67.094
0
LINE
8
BLACK
6
CONTINUOUS
10
45.2513
20
-67.094
11
45.1727
21
-67.094
0
LINE
8
BLACK
6
CONTINUOUS
10
45.1727
20
-67.094
11
45.0944
21
-67.0863
0
LINE
8
BLACK
6
CONTINUOUS
10
45.0944
20
-67.0863
11
45.0552
21
-67.0824
0
LINE
8
BLACK
6
CONTINUOUS
10
45.0552
20
-67.0824
11
44.9798
21
-67.0596
0
LINE
8
BLACK
6
CONTINUOUS
10
44.9798
20
-67.0596
11
44.9044
21
-67.0367
0
LINE
8
BLACK
6
CONTINUOUS
10
44.9044
20
-67.0367
11
44.7654
21
-66.9624
0
LINE
8
BLACK
6
CONTINUOUS
10
44.7654
20
-66.9624
11
44.6436
21
-66.8624
0
LINE
8
BLACK
6
CONTINUOUS
10
44.6436
20
-66.8624
11
44.5436
21
-66.7406
0
LINE
8
BLACK
6
CONTINUOUS
10
44.5436
20
-66.7406
11
44.4693
21
-66.6016
0
LINE
8
BLACK
6
CONTINUOUS
10
44.4693
20
-66.6016
11
44.4236
21
-66.4508
0
LINE
8
BLACK
6
CONTINUOUS
10
44.4236
20
-66.4508
11
44.4081
21
-66.294
0
LINE
8
BLACK
6
CONTINUOUS
10
44.4081
20
-66.294
11
44.4236
21
-66.1372
0
LINE
8
BLACK
6
CONTINUOUS
10
44.4236
20
-66.1372
11
44.4693
21
-65.9864
0
LINE
8
BLACK
6
CONTINUOUS
10
44.4693
20
-65.9864
11
44.5436
21
-65.8474
0
LINE
8
BLACK
6
CONTINUOUS
10
44.5436
20
-65.8474
11
44.6436
21
-65.7256
0
LINE
8
BLACK
6
CONTINUOUS
10
44.6436
20
-65.7256
11
44.7654
21
-65.6256
0
LINE
8
BLACK
6
CONTINUOUS
10
44.7654
20
-65.6256
11
44.9044
21
-65.5513
0
LINE
8
BLACK
6
CONTINUOUS
10
44.9044
20
-65.5513
11
44.9798
21
-65.5284
0
LINE
8
BLACK
6
CONTINUOUS
10
44.9798
20
-65.5284
11
45.0552
21
-65.5056
0
LINE
8
BLACK
6
CONTINUOUS
10
45.0552
20
-65.5056
11
45.0944
21
-65.5017
0
LINE
8
BLACK
6
CONTINUOUS
10
45.0944
20
-65.5017
11
45.1727
21
-65.494
0
LINE
8
BLACK
6
CONTINUOUS
10
45.1727
20
-65.494
11
45.2513
21
-65.494
0
LINE
8
BLACK
6
CONTINUOUS
10
45.2513
20
-65.494
11
45.3296
21
-65.5017
0
LINE
8
BLACK
6
CONTINUOUS
10
40.2496
20
-65.5017
11
40.2888
21
-65.5056
0
LINE
8
BLACK
6
CONTINUOUS
10
40.2888
20
-65.5056
11
40.3642
21
-65.5284
0
LINE
8
BLACK
6
CONTINUOUS
10
40.3642
20
-65.5284
11
40.4396
21
-65.5513
0
LINE
8
BLACK
6
CONTINUOUS
10
40.4396
20
-65.5513
11
40.5786
21
-65.6256
0
LINE
8
BLACK
6
CONTINUOUS
10
40.5786
20
-65.6256
11
40.7004
21
-65.7256
0
LINE
8
BLACK
6
CONTINUOUS
10
40.7004
20
-65.7256
11
40.8004
21
-65.8474
0
LINE
8
BLACK
6
CONTINUOUS
10
40.8004
20
-65.8474
11
40.8747
21
-65.9864
0
LINE
8
BLACK
6
CONTINUOUS
10
40.8747
20
-65.9864
11
40.9204
21
-66.1372
0
LINE
8
BLACK
6
CONTINUOUS
10
40.9204
20
-66.1372
11
40.9359
21
-66.294
0
LINE
8
BLACK
6
CONTINUOUS
10
40.9359
20
-66.294
11
40.9204
21
-66.4508
0
LINE
8
BLACK
6
CONTINUOUS
10
40.9204
20
-66.4508
11
40.8747
21
-66.6016
0
LINE
8
BLACK
6
CONTINUOUS
10
40.8747
20
-66.6016
11
40.8004
21
-66.7406
0
LINE
8
BLACK
6
CONTINUOUS
10
40.8004
20
-66.7406
11
40.7004
21
-66.8624
0
LINE
8
BLACK
6
CONTINUOUS
10
40.7004
20
-66.8624
11
40.5786
21
-66.9624
0
LINE
8
BLACK
6
CONTINUOUS
10
40.5786
20
-66.9624
11
40.4396
21
-67.0367
0
LINE
8
BLACK
6
CONTINUOUS
10
40.4396
20
-67.0367
11
40.3642
21
-67.0596
0
LINE
8
BLACK
6
CONTINUOUS
10
40.3642
20
-67.0596
11
40.2888
21
-67.0824
0
LINE
8
BLACK
6
CONTINUOUS
10
40.2888
20
-67.0824
11
40.2496
21
-67.0863
0
LINE
8
BLACK
6
CONTINUOUS
10
40.2496
20
-67.0863
11
40.1713
21
-67.094
0
LINE
8
BLACK
6
CONTINUOUS
10
40.1713
20
-67.094
11
40.0927
21
-67.094
0
LINE
8
BLACK
6
CONTINUOUS
10
40.0927
20
-67.094
11
40.0144
21
-67.0863
0
LINE
8
BLACK
6
CONTINUOUS
10
40.0144
20
-67.0863
11
39.9752
21
-67.0824
0
LINE
8
BLACK
6
CONTINUOUS
10
39.9752
20
-67.0824
11
39.8998
21
-67.0596
0
LINE
8
BLACK
6
CONTINUOUS
10
39.8998
20
-67.0596
11
39.8244
21
-67.0367
0
LINE
8
BLACK
6
CONTINUOUS
10
39.8244
20
-67.0367
11
39.6854
21
-66.9624
0
LINE
8
BLACK
6
CONTINUOUS
10
39.6854
20
-66.9624
11
39.5636
21
-66.8624
0
LINE
8
BLACK
6
CONTINUOUS
10
39.5636
20
-66.8624
11
39.4636
21
-66.7406
0
LINE
8
BLACK
6
CONTINUOUS
10
39.4636
20
-66.7406
11
39.3893
21
-66.6016
0
LINE
8
BLACK
6
CONTINUOUS
10
39.3893
20
-66.6016
11
39.3436
21
-66.4508
0
LINE
8
BLACK
6
CONTINUOUS
10
39.3436
20
-66.4508
11
39.3281
21
-66.294
0
LINE
8
BLACK
6
CONTINUOUS
10
39.3281
20
-66.294
11
39.3436
21
-66.1372
0
LINE
8
BLACK
6
CONTINUOUS
10
39.3436
20
-66.1372
11
39.3893
21
-65.9864
0
LINE
8
BLACK
6
CONTINUOUS
10
39.3893
20
-65.9864
11
39.4636
21
-65.8474
0
LINE
8
BLACK
6
CONTINUOUS
10
39.4636
20
-65.8474
11
39.5636
21
-65.7256
0
LINE
8
BLACK
6
CONTINUOUS
10
39.5636
20
-65.7256
11
39.6854
21
-65.6256
0
LINE
8
BLACK
6
CONTINUOUS
10
39.6854
20
-65.6256
11
39.8244
21
-65.5513
0
LINE
8
BLACK
6
CONTINUOUS
10
39.8244
20
-65.5513
11
39.8998
21
-65.5284
0
LINE
8
BLACK
6
CONTINUOUS
10
39.8998
20
-65.5284
11
39.9752
21
-65.5056
0
LINE
8
BLACK
6
CONTINUOUS
10
39.9752
20
-65.5056
11
40.0144
21
-65.5017
0
LINE
8
BLACK
6
CONTINUOUS
10
40.0144
20
-65.5017
11
40.0927
21
-65.494
0
LINE
8
BLACK
6
CONTINUOUS
10
40.0927
20
-65.494
11
40.1713
21
-65.494
0
LINE
8
BLACK
6
CONTINUOUS
10
40.1713
20
-65.494
11
40.2496
21
-65.5017
0
LINE
8
BLACK
6
CONTINUOUS
10
37.7096
20
-65.5017
11
37.7488
21
-65.5056
0
LINE
8
BLACK
6
CONTINUOUS
10
37.7488
20
-65.5056
11
37.8242
21
-65.5284
0
LINE
8
BLACK
6
CONTINUOUS
10
37.8242
20
-65.5284
11
37.8996
21
-65.5513
0
LINE
8
BLACK
6
CONTINUOUS
10
37.8996
20
-65.5513
11
38.0386
21
-65.6256
0
LINE
8
BLACK
6
CONTINUOUS
10
38.0386
20
-65.6256
11
38.1604
21
-65.7256
0
LINE
8
BLACK
6
CONTINUOUS
10
38.1604
20
-65.7256
11
38.2604
21
-65.8474
0
LINE
8
BLACK
6
CONTINUOUS
10
38.2604
20
-65.8474
11
38.3347
21
-65.9864
0
LINE
8
BLACK
6
CONTINUOUS
10
38.3347
20
-65.9864
11
38.3804
21
-66.1372
0
LINE
8
BLACK
6
CONTINUOUS
10
38.3804
20
-66.1372
11
38.3959
21
-66.294
0
LINE
8
BLACK
6
CONTINUOUS
10
38.3959
20
-66.294
11
38.3804
21
-66.4508
0
LINE
8
BLACK
6
CONTINUOUS
10
38.3804
20
-66.4508
11
38.3347
21
-66.6016
0
LINE
8
BLACK
6
CONTINUOUS
10
38.3347
20
-66.6016
11
38.2604
21
-66.7406
0
LINE
8
BLACK
6
CONTINUOUS
10
38.2604
20
-66.7406
11
38.1604
21
-66.8624
0
LINE
8
BLACK
6
CONTINUOUS
10
38.1604
20
-66.8624
11
38.0386
21
-66.9624
0
LINE
8
BLACK
6
CONTINUOUS
10
38.0386
20
-66.9624
11
37.8996
21
-67.0367
0
LINE
8
BLACK
6
CONTINUOUS
10
37.8996
20
-67.0367
11
37.8242
21
-67.0596
0
LINE
8
BLACK
6
CONTINUOUS
10
37.8242
20
-67.0596
11
37.7488
21
-67.0824
0
LINE
8
BLACK
6
CONTINUOUS
10
37.7488
20
-67.0824
11
37.7096
21
-67.0863
0
LINE
8
BLACK
6
CONTINUOUS
10
37.7096
20
-67.0863
11
37.6313
21
-67.094
0
LINE
8
BLACK
6
CONTINUOUS
10
37.6313
20
-67.094
11
37.5527
21
-67.094
0
LINE
8
BLACK
6
CONTINUOUS
10
37.5527
20
-67.094
11
37.4744
21
-67.0863
0
LINE
8
BLACK
6
CONTINUOUS
10
37.4744
20
-67.0863
11
37.4352
21
-67.0824
0
LINE
8
BLACK
6
CONTINUOUS
10
37.4352
20
-67.0824
11
37.3598
21
-67.0596
0
LINE
8
BLACK
6
CONTINUOUS
10
37.3598
20
-67.0596
11
37.2844
21
-67.0367
0
LINE
8
BLACK
6
CONTINUOUS
10
37.2844
20
-67.0367
11
37.1454
21
-66.9624
0
LINE
8
BLACK
6
CONTINUOUS
10
37.1454
20
-66.9624
11
37.0236
21
-66.8624
0
LINE
8
BLACK
6
CONTINUOUS
10
37.0236
20
-66.8624
11
36.9236
21
-66.7406
0
LINE
8
BLACK
6
CONTINUOUS
10
36.9236
20
-66.7406
11
36.8493
21
-66.6016
0
LINE
8
BLACK
6
CONTINUOUS
10
36.8493
20
-66.6016
11
36.8036
21
-66.4508
0
LINE
8
BLACK
6
CONTINUOUS
10
36.8036
20
-66.4508
11
36.7881
21
-66.294
0
LINE
8
BLACK
6
CONTINUOUS
10
36.7881
20
-66.294
11
36.8036
21
-66.1372
0
LINE
8
BLACK
6
CONTINUOUS
10
36.8036
20
-66.1372
11
36.8493
21
-65.9864
0
LINE
8
BLACK
6
CONTINUOUS
10
36.8493
20
-65.9864
11
36.9236
21
-65.8474
0
LINE
8
BLACK
6
CONTINUOUS
10
36.9236
20
-65.8474
11
37.0236
21
-65.7256
0
LINE
8
BLACK
6
CONTINUOUS
10
37.0236
20
-65.7256
11
37.1454
21
-65.6256
0
LINE
8
BLACK
6
CONTINUOUS
10
37.1454
20
-65.6256
11
37.2844
21
-65.5513
0
LINE
8
BLACK
6
CONTINUOUS
10
37.2844
20
-65.5513
11
37.3598
21
-65.5284
0
LINE
8
BLACK
6
CONTINUOUS
10
37.3598
20
-65.5284
11
37.4352
21
-65.5056
0
LINE
8
BLACK
6
CONTINUOUS
10
37.4352
20
-65.5056
11
37.4744
21
-65.5017
0
LINE
8
BLACK
6
CONTINUOUS
10
37.4744
20
-65.5017
11
37.5527
21
-65.494
0
LINE
8
BLACK
6
CONTINUOUS
10
37.5527
20
-65.494
11
37.6313
21
-65.494
0
LINE
8
BLACK
6
CONTINUOUS
10
37.6313
20
-65.494
11
37.7096
21
-65.5017
0
LINE
8
BLACK
6
CONTINUOUS
10
27.5496
20
-65.5017
11
27.5888
21
-65.5056
0
LINE
8
BLACK
6
CONTINUOUS
10
27.5888
20
-65.5056
11
27.6642
21
-65.5284
0
LINE
8
BLACK
6
CONTINUOUS
10
27.6642
20
-65.5284
11
27.7396
21
-65.5513
0
LINE
8
BLACK
6
CONTINUOUS
10
27.7396
20
-65.5513
11
27.8786
21
-65.6256
0
LINE
8
BLACK
6
CONTINUOUS
10
27.8786
20
-65.6256
11
28.0004
21
-65.7256
0
LINE
8
BLACK
6
CONTINUOUS
10
28.0004
20
-65.7256
11
28.1004
21
-65.8474
0
LINE
8
BLACK
6
CONTINUOUS
10
28.1004
20
-65.8474
11
28.1747
21
-65.9864
0
LINE
8
BLACK
6
CONTINUOUS
10
28.1747
20
-65.9864
11
28.2204
21
-66.1372
0
LINE
8
BLACK
6
CONTINUOUS
10
28.2204
20
-66.1372
11
28.2359
21
-66.294
0
LINE
8
BLACK
6
CONTINUOUS
10
28.2359
20
-66.294
11
28.2204
21
-66.4508
0
LINE
8
BLACK
6
CONTINUOUS
10
28.2204
20
-66.4508
11
28.1747
21
-66.6016
0
LINE
8
BLACK
6
CONTINUOUS
10
28.1747
20
-66.6016
11
28.1004
21
-66.7406
0
LINE
8
BLACK
6
CONTINUOUS
10
28.1004
20
-66.7406
11
28.0004
21
-66.8624
0
LINE
8
BLACK
6
CONTINUOUS
10
28.0004
20
-66.8624
11
27.8786
21
-66.9624
0
LINE
8
BLACK
6
CONTINUOUS
10
27.8786
20
-66.9624
11
27.7396
21
-67.0367
0
LINE
8
BLACK
6
CONTINUOUS
10
27.7396
20
-67.0367
11
27.6642
21
-67.0596
0
LINE
8
BLACK
6
CONTINUOUS
10
27.6642
20
-67.0596
11
27.5888
21
-67.0824
0
LINE
8
BLACK
6
CONTINUOUS
10
27.5888
20
-67.0824
11
27.5496
21
-67.0863
0
LINE
8
BLACK
6
CONTINUOUS
10
27.5496
20
-67.0863
11
27.4713
21
-67.094
0
LINE
8
BLACK
6
CONTINUOUS
10
27.4713
20
-67.094
11
27.3927
21
-67.094
0
LINE
8
BLACK
6
CONTINUOUS
10
27.3927
20
-67.094
11
27.3144
21
-67.0863
0
LINE
8
BLACK
6
CONTINUOUS
10
27.3144
20
-67.0863
11
27.2752
21
-67.0824
0
LINE
8
BLACK
6
CONTINUOUS
10
27.2752
20
-67.0824
11
27.1998
21
-67.0596
0
LINE
8
BLACK
6
CONTINUOUS
10
27.1998
20
-67.0596
11
27.1244
21
-67.0367
0
LINE
8
BLACK
6
CONTINUOUS
10
27.1244
20
-67.0367
11
26.9854
21
-66.9624
0
LINE
8
BLACK
6
CONTINUOUS
10
26.9854
20
-66.9624
11
26.8636
21
-66.8624
0
LINE
8
BLACK
6
CONTINUOUS
10
26.8636
20
-66.8624
11
26.7636
21
-66.7406
0
LINE
8
BLACK
6
CONTINUOUS
10
26.7636
20
-66.7406
11
26.6893
21
-66.6016
0
LINE
8
BLACK
6
CONTINUOUS
10
26.6893
20
-66.6016
11
26.6436
21
-66.4508
0
LINE
8
BLACK
6
CONTINUOUS
10
26.6436
20
-66.4508
11
26.6281
21
-66.294
0
LINE
8
BLACK
6
CONTINUOUS
10
26.6281
20
-66.294
11
26.6436
21
-66.1372
0
LINE
8
BLACK
6
CONTINUOUS
10
26.6436
20
-66.1372
11
26.6893
21
-65.9864
0
LINE
8
BLACK
6
CONTINUOUS
10
26.6893
20
-65.9864
11
26.7636
21
-65.8474
0
LINE
8
BLACK
6
CONTINUOUS
10
26.7636
20
-65.8474
11
26.8636
21
-65.7256
0
LINE
8
BLACK
6
CONTINUOUS
10
26.8636
20
-65.7256
11
26.9854
21
-65.6256
0
LINE
8
BLACK
6
CONTINUOUS
10
26.9854
20
-65.6256
11
27.1244
21
-65.5513
0
LINE
8
BLACK
6
CONTINUOUS
10
27.1244
20
-65.5513
11
27.1998
21
-65.5284
0
LINE
8
BLACK
6
CONTINUOUS
10
27.1998
20
-65.5284
11
27.2752
21
-65.5056
0
LINE
8
BLACK
6
CONTINUOUS
10
27.2752
20
-65.5056
11
27.3144
21
-65.5017
0
LINE
8
BLACK
6
CONTINUOUS
10
27.3144
20
-65.5017
11
27.3927
21
-65.494
0
LINE
8
BLACK
6
CONTINUOUS
10
27.3927
20
-65.494
11
27.4713
21
-65.494
0
LINE
8
BLACK
6
CONTINUOUS
10
27.4713
20
-65.494
11
27.5496
21
-65.5017
0
LINE
8
BLACK
6
CONTINUOUS
10
30.0896
20
-65.5017
11
30.1288
21
-65.5056
0
LINE
8
BLACK
6
CONTINUOUS
10
30.1288
20
-65.5056
11
30.2042
21
-65.5284
0
LINE
8
BLACK
6
CONTINUOUS
10
30.2042
20
-65.5284
11
30.2796
21
-65.5513
0
LINE
8
BLACK
6
CONTINUOUS
10
30.2796
20
-65.5513
11
30.4186
21
-65.6256
0
LINE
8
BLACK
6
CONTINUOUS
10
30.4186
20
-65.6256
11
30.5404
21
-65.7256
0
LINE
8
BLACK
6
CONTINUOUS
10
30.5404
20
-65.7256
11
30.6404
21
-65.8474
0
LINE
8
BLACK
6
CONTINUOUS
10
30.6404
20
-65.8474
11
30.7147
21
-65.9864
0
LINE
8
BLACK
6
CONTINUOUS
10
30.7147
20
-65.9864
11
30.7604
21
-66.1372
0
LINE
8
BLACK
6
CONTINUOUS
10
30.7604
20
-66.1372
11
30.7759
21
-66.294
0
LINE
8
BLACK
6
CONTINUOUS
10
30.7759
20
-66.294
11
30.7604
21
-66.4508
0
LINE
8
BLACK
6
CONTINUOUS
10
30.7604
20
-66.4508
11
30.7147
21
-66.6016
0
LINE
8
BLACK
6
CONTINUOUS
10
30.7147
20
-66.6016
11
30.6404
21
-66.7406
0
LINE
8
BLACK
6
CONTINUOUS
10
30.6404
20
-66.7406
11
30.5404
21
-66.8624
0
LINE
8
BLACK
6
CONTINUOUS
10
30.5404
20
-66.8624
11
30.4186
21
-66.9624
0
LINE
8
BLACK
6
CONTINUOUS
10
30.4186
20
-66.9624
11
30.2796
21
-67.0367
0
LINE
8
BLACK
6
CONTINUOUS
10
30.2796
20
-67.0367
11
30.2042
21
-67.0596
0
LINE
8
BLACK
6
CONTINUOUS
10
30.2042
20
-67.0596
11
30.1288
21
-67.0824
0
LINE
8
BLACK
6
CONTINUOUS
10
30.1288
20
-67.0824
11
30.0896
21
-67.0863
0
LINE
8
BLACK
6
CONTINUOUS
10
30.0896
20
-67.0863
11
30.0113
21
-67.094
0
LINE
8
BLACK
6
CONTINUOUS
10
30.0113
20
-67.094
11
29.9327
21
-67.094
0
LINE
8
BLACK
6
CONTINUOUS
10
29.9327
20
-67.094
11
29.8544
21
-67.0863
0
LINE
8
BLACK
6
CONTINUOUS
10
29.8544
20
-67.0863
11
29.8152
21
-67.0824
0
LINE
8
BLACK
6
CONTINUOUS
10
29.8152
20
-67.0824
11
29.7398
21
-67.0596
0
LINE
8
BLACK
6
CONTINUOUS
10
29.7398
20
-67.0596
11
29.6644
21
-67.0367
0
LINE
8
BLACK
6
CONTINUOUS
10
29.6644
20
-67.0367
11
29.5254
21
-66.9624
0
LINE
8
BLACK
6
CONTINUOUS
10
29.5254
20
-66.9624
11
29.4036
21
-66.8624
0
LINE
8
BLACK
6
CONTINUOUS
10
29.4036
20
-66.8624
11
29.3036
21
-66.7406
0
LINE
8
BLACK
6
CONTINUOUS
10
29.3036
20
-66.7406
11
29.2293
21
-66.6016
0
LINE
8
BLACK
6
CONTINUOUS
10
29.2293
20
-66.6016
11
29.1836
21
-66.4508
0
LINE
8
BLACK
6
CONTINUOUS
10
29.1836
20
-66.4508
11
29.1681
21
-66.294
0
LINE
8
BLACK
6
CONTINUOUS
10
29.1681
20
-66.294
11
29.1836
21
-66.1372
0
LINE
8
BLACK
6
CONTINUOUS
10
29.1836
20
-66.1372
11
29.2293
21
-65.9864
0
LINE
8
BLACK
6
CONTINUOUS
10
29.2293
20
-65.9864
11
29.3036
21
-65.8474
0
LINE
8
BLACK
6
CONTINUOUS
10
29.3036
20
-65.8474
11
29.4036
21
-65.7256
0
LINE
8
BLACK
6
CONTINUOUS
10
29.4036
20
-65.7256
11
29.5254
21
-65.6256
0
LINE
8
BLACK
6
CONTINUOUS
10
29.5254
20
-65.6256
11
29.6644
21
-65.5513
0
LINE
8
BLACK
6
CONTINUOUS
10
29.6644
20
-65.5513
11
29.7398
21
-65.5284
0
LINE
8
BLACK
6
CONTINUOUS
10
29.7398
20
-65.5284
11
29.8152
21
-65.5056
0
LINE
8
BLACK
6
CONTINUOUS
10
29.8152
20
-65.5056
11
29.8544
21
-65.5017
0
LINE
8
BLACK
6
CONTINUOUS
10
29.8544
20
-65.5017
11
29.9327
21
-65.494
0
LINE
8
BLACK
6
CONTINUOUS
10
29.9327
20
-65.494
11
30.0113
21
-65.494
0
LINE
8
BLACK
6
CONTINUOUS
10
30.0113
20
-65.494
11
30.0896
21
-65.5017
0
LINE
8
BLACK
6
CONTINUOUS
10
32.6296
20
-65.5017
11
32.6688
21
-65.5056
0
LINE
8
BLACK
6
CONTINUOUS
10
32.6688
20
-65.5056
11
32.7442
21
-65.5284
0
LINE
8
BLACK
6
CONTINUOUS
10
32.7442
20
-65.5284
11
32.8196
21
-65.5513
0
LINE
8
BLACK
6
CONTINUOUS
10
32.8196
20
-65.5513
11
32.9586
21
-65.6256
0
LINE
8
BLACK
6
CONTINUOUS
10
32.9586
20
-65.6256
11
33.0804
21
-65.7256
0
LINE
8
BLACK
6
CONTINUOUS
10
33.0804
20
-65.7256
11
33.1804
21
-65.8474
0
LINE
8
BLACK
6
CONTINUOUS
10
33.1804
20
-65.8474
11
33.2547
21
-65.9864
0
LINE
8
BLACK
6
CONTINUOUS
10
33.2547
20
-65.9864
11
33.3004
21
-66.1372
0
LINE
8
BLACK
6
CONTINUOUS
10
33.3004
20
-66.1372
11
33.3159
21
-66.294
0
LINE
8
BLACK
6
CONTINUOUS
10
33.3159
20
-66.294
11
33.3004
21
-66.4508
0
LINE
8
BLACK
6
CONTINUOUS
10
33.3004
20
-66.4508
11
33.2547
21
-66.6016
0
LINE
8
BLACK
6
CONTINUOUS
10
33.2547
20
-66.6016
11
33.1804
21
-66.7406
0
LINE
8
BLACK
6
CONTINUOUS
10
33.1804
20
-66.7406
11
33.0804
21
-66.8624
0
LINE
8
BLACK
6
CONTINUOUS
10
33.0804
20
-66.8624
11
32.9586
21
-66.9624
0
LINE
8
BLACK
6
CONTINUOUS
10
32.9586
20
-66.9624
11
32.8196
21
-67.0367
0
LINE
8
BLACK
6
CONTINUOUS
10
32.8196
20
-67.0367
11
32.7442
21
-67.0596
0
LINE
8
BLACK
6
CONTINUOUS
10
32.7442
20
-67.0596
11
32.6688
21
-67.0824
0
LINE
8
BLACK
6
CONTINUOUS
10
32.6688
20
-67.0824
11
32.6296
21
-67.0863
0
LINE
8
BLACK
6
CONTINUOUS
10
32.6296
20
-67.0863
11
32.5513
21
-67.094
0
LINE
8
BLACK
6
CONTINUOUS
10
32.5513
20
-67.094
11
32.4727
21
-67.094
0
LINE
8
BLACK
6
CONTINUOUS
10
32.4727
20
-67.094
11
32.3944
21
-67.0863
0
LINE
8
BLACK
6
CONTINUOUS
10
32.3944
20
-67.0863
11
32.3552
21
-67.0824
0
LINE
8
BLACK
6
CONTINUOUS
10
32.3552
20
-67.0824
11
32.2798
21
-67.0596
0
LINE
8
BLACK
6
CONTINUOUS
10
32.2798
20
-67.0596
11
32.2044
21
-67.0367
0
LINE
8
BLACK
6
CONTINUOUS
10
32.2044
20
-67.0367
11
32.0654
21
-66.9624
0
LINE
8
BLACK
6
CONTINUOUS
10
32.0654
20
-66.9624
11
31.9436
21
-66.8624
0
LINE
8
BLACK
6
CONTINUOUS
10
31.9436
20
-66.8624
11
31.8436
21
-66.7406
0
LINE
8
BLACK
6
CONTINUOUS
10
31.8436
20
-66.7406
11
31.7693
21
-66.6016
0
LINE
8
BLACK
6
CONTINUOUS
10
31.7693
20
-66.6016
11
31.7236
21
-66.4508
0
LINE
8
BLACK
6
CONTINUOUS
10
31.7236
20
-66.4508
11
31.7081
21
-66.294
0
LINE
8
BLACK
6
CONTINUOUS
10
31.7081
20
-66.294
11
31.7236
21
-66.1372
0
LINE
8
BLACK
6
CONTINUOUS
10
31.7236
20
-66.1372
11
31.7693
21
-65.9864
0
LINE
8
BLACK
6
CONTINUOUS
10
31.7693
20
-65.9864
11
31.8436
21
-65.8474
0
LINE
8
BLACK
6
CONTINUOUS
10
31.8436
20
-65.8474
11
31.9436
21
-65.7256
0
LINE
8
BLACK
6
CONTINUOUS
10
31.9436
20
-65.7256
11
32.0654
21
-65.6256
0
LINE
8
BLACK
6
CONTINUOUS
10
32.0654
20
-65.6256
11
32.2044
21
-65.5513
0
LINE
8
BLACK
6
CONTINUOUS
10
32.2044
20
-65.5513
11
32.2798
21
-65.5284
0
LINE
8
BLACK
6
CONTINUOUS
10
32.2798
20
-65.5284
11
32.3552
21
-65.5056
0
LINE
8
BLACK
6
CONTINUOUS
10
32.3552
20
-65.5056
11
32.3944
21
-65.5017
0
LINE
8
BLACK
6
CONTINUOUS
10
32.3944
20
-65.5017
11
32.4727
21
-65.494
0
LINE
8
BLACK
6
CONTINUOUS
10
32.4727
20
-65.494
11
32.5513
21
-65.494
0
LINE
8
BLACK
6
CONTINUOUS
10
32.5513
20
-65.494
11
32.6296
21
-65.5017
0
LINE
8
BLACK
6
CONTINUOUS
10
35.1696
20
-65.5017
11
35.2088
21
-65.5056
0
LINE
8
BLACK
6
CONTINUOUS
10
35.2088
20
-65.5056
11
35.2842
21
-65.5284
0
LINE
8
BLACK
6
CONTINUOUS
10
35.2842
20
-65.5284
11
35.3596
21
-65.5513
0
LINE
8
BLACK
6
CONTINUOUS
10
35.3596
20
-65.5513
11
35.4986
21
-65.6256
0
LINE
8
BLACK
6
CONTINUOUS
10
35.4986
20
-65.6256
11
35.6204
21
-65.7256
0
LINE
8
BLACK
6
CONTINUOUS
10
35.6204
20
-65.7256
11
35.7204
21
-65.8474
0
LINE
8
BLACK
6
CONTINUOUS
10
35.7204
20
-65.8474
11
35.7947
21
-65.9864
0
LINE
8
BLACK
6
CONTINUOUS
10
35.7947
20
-65.9864
11
35.8404
21
-66.1372
0
LINE
8
BLACK
6
CONTINUOUS
10
35.8404
20
-66.1372
11
35.8559
21
-66.294
0
LINE
8
BLACK
6
CONTINUOUS
10
35.8559
20
-66.294
11
35.8404
21
-66.4508
0
LINE
8
BLACK
6
CONTINUOUS
10
35.8404
20
-66.4508
11
35.7947
21
-66.6016
0
LINE
8
BLACK
6
CONTINUOUS
10
35.7947
20
-66.6016
11
35.7204
21
-66.7406
0
LINE
8
BLACK
6
CONTINUOUS
10
35.7204
20
-66.7406
11
35.6204
21
-66.8624
0
LINE
8
BLACK
6
CONTINUOUS
10
35.6204
20
-66.8624
11
35.4986
21
-66.9624
0
LINE
8
BLACK
6
CONTINUOUS
10
35.4986
20
-66.9624
11
35.3596
21
-67.0367
0
LINE
8
BLACK
6
CONTINUOUS
10
35.3596
20
-67.0367
11
35.2842
21
-67.0596
0
LINE
8
BLACK
6
CONTINUOUS
10
35.2842
20
-67.0596
11
35.2088
21
-67.0824
0
LINE
8
BLACK
6
CONTINUOUS
10
35.2088
20
-67.0824
11
35.1696
21
-67.0863
0
LINE
8
BLACK
6
CONTINUOUS
10
35.1696
20
-67.0863
11
35.0913
21
-67.094
0
LINE
8
BLACK
6
CONTINUOUS
10
35.0913
20
-67.094
11
35.0127
21
-67.094
0
LINE
8
BLACK
6
CONTINUOUS
10
35.0127
20
-67.094
11
34.9344
21
-67.0863
0
LINE
8
BLACK
6
CONTINUOUS
10
34.9344
20
-67.0863
11
34.8952
21
-67.0824
0
LINE
8
BLACK
6
CONTINUOUS
10
34.8952
20
-67.0824
11
34.8198
21
-67.0596
0
LINE
8
BLACK
6
CONTINUOUS
10
34.8198
20
-67.0596
11
34.7444
21
-67.0367
0
LINE
8
BLACK
6
CONTINUOUS
10
34.7444
20
-67.0367
11
34.6054
21
-66.9624
0
LINE
8
BLACK
6
CONTINUOUS
10
34.6054
20
-66.9624
11
34.4836
21
-66.8624
0
LINE
8
BLACK
6
CONTINUOUS
10
34.4836
20
-66.8624
11
34.3836
21
-66.7406
0
LINE
8
BLACK
6
CONTINUOUS
10
34.3836
20
-66.7406
11
34.3093
21
-66.6016
0
LINE
8
BLACK
6
CONTINUOUS
10
34.3093
20
-66.6016
11
34.2636
21
-66.4508
0
LINE
8
BLACK
6
CONTINUOUS
10
34.2636
20
-66.4508
11
34.2481
21
-66.294
0
LINE
8
BLACK
6
CONTINUOUS
10
34.2481
20
-66.294
11
34.2636
21
-66.1372
0
LINE
8
BLACK
6
CONTINUOUS
10
34.2636
20
-66.1372
11
34.3093
21
-65.9864
0
LINE
8
BLACK
6
CONTINUOUS
10
34.3093
20
-65.9864
11
34.3836
21
-65.8474
0
LINE
8
BLACK
6
CONTINUOUS
10
34.3836
20
-65.8474
11
34.4836
21
-65.7256
0
LINE
8
BLACK
6
CONTINUOUS
10
34.4836
20
-65.7256
11
34.6054
21
-65.6256
0
LINE
8
BLACK
6
CONTINUOUS
10
34.6054
20
-65.6256
11
34.7444
21
-65.5513
0
LINE
8
BLACK
6
CONTINUOUS
10
34.7444
20
-65.5513
11
34.8198
21
-65.5284
0
LINE
8
BLACK
6
CONTINUOUS
10
34.8198
20
-65.5284
11
34.8952
21
-65.5056
0
LINE
8
BLACK
6
CONTINUOUS
10
34.8952
20
-65.5056
11
34.9344
21
-65.5017
0
LINE
8
BLACK
6
CONTINUOUS
10
34.9344
20
-65.5017
11
35.0127
21
-65.494
0
LINE
8
BLACK
6
CONTINUOUS
10
35.0127
20
-65.494
11
35.0913
21
-65.494
0
LINE
8
BLACK
6
CONTINUOUS
10
35.0913
20
-65.494
11
35.1696
21
-65.5017
0
LINE
8
BLACK
6
CONTINUOUS
10
48.9722
20
-62.3189
11
49.0996
21
-62.3717
0
LINE
8
BLACK
6
CONTINUOUS
10
49.0996
20
-62.3717
11
49.1527
21
-62.4072
0
LINE
8
BLACK
6
CONTINUOUS
10
49.1527
20
-62.4072
11
49.2142
21
-62.4483
0
LINE
8
BLACK
6
CONTINUOUS
10
49.2142
20
-62.4483
11
49.3117
21
-62.5458
0
LINE
8
BLACK
6
CONTINUOUS
10
49.3117
20
-62.5458
11
49.3883
21
-62.6604
0
LINE
8
BLACK
6
CONTINUOUS
10
49.3883
20
-62.6604
11
49.4411
21
-62.7878
0
LINE
8
BLACK
6
CONTINUOUS
10
49.4411
20
-62.7878
11
49.468
21
-62.9231
0
LINE
8
BLACK
6
CONTINUOUS
10
49.468
20
-62.9231
11
49.468
21
-63.0609
0
LINE
8
BLACK
6
CONTINUOUS
10
49.468
20
-63.0609
11
49.4411
21
-63.1962
0
LINE
8
BLACK
6
CONTINUOUS
10
49.4411
20
-63.1962
11
49.3883
21
-63.3236
0
LINE
8
BLACK
6
CONTINUOUS
10
49.3883
20
-63.3236
11
49.3117
21
-63.4382
0
LINE
8
BLACK
6
CONTINUOUS
10
49.3117
20
-63.4382
11
49.2142
21
-63.5357
0
LINE
8
BLACK
6
CONTINUOUS
10
49.2142
20
-63.5357
11
49.0996
21
-63.6123
0
LINE
8
BLACK
6
CONTINUOUS
10
49.0996
20
-63.6123
11
48.9722
21
-63.6651
0
LINE
8
BLACK
6
CONTINUOUS
10
48.9722
20
-63.6651
11
48.8369
21
-63.692
0
LINE
8
BLACK
6
CONTINUOUS
10
48.8369
20
-63.692
11
48.6991
21
-63.692
0
LINE
8
BLACK
6
CONTINUOUS
10
48.6991
20
-63.692
11
48.5638
21
-63.6651
0
LINE
8
BLACK
6
CONTINUOUS
10
48.5638
20
-63.6651
11
48.4364
21
-63.6123
0
LINE
8
BLACK
6
CONTINUOUS
10
48.4364
20
-63.6123
11
48.3218
21
-63.5357
0
LINE
8
BLACK
6
CONTINUOUS
10
48.3218
20
-63.5357
11
48.2243
21
-63.4382
0
LINE
8
BLACK
6
CONTINUOUS
10
48.2243
20
-63.4382
11
48.1477
21
-63.3236
0
LINE
8
BLACK
6
CONTINUOUS
10
48.1477
20
-63.3236
11
48.0949
21
-63.1962
0
LINE
8
BLACK
6
CONTINUOUS
10
48.0949
20
-63.1962
11
48.068
21
-63.0609
0
LINE
8
BLACK
6
CONTINUOUS
10
48.068
20
-63.0609
11
48.068
21
-62.9231
0
LINE
8
BLACK
6
CONTINUOUS
10
48.068
20
-62.9231
11
48.0949
21
-62.7878
0
LINE
8
BLACK
6
CONTINUOUS
10
48.0949
20
-62.7878
11
48.1477
21
-62.6604
0
LINE
8
BLACK
6
CONTINUOUS
10
48.1477
20
-62.6604
11
48.2243
21
-62.5458
0
LINE
8
BLACK
6
CONTINUOUS
10
48.2243
20
-62.5458
11
48.3218
21
-62.4483
0
LINE
8
BLACK
6
CONTINUOUS
10
48.3218
20
-62.4483
11
48.3833
21
-62.4072
0
LINE
8
BLACK
6
CONTINUOUS
10
48.3833
20
-62.4072
11
48.4364
21
-62.3717
0
LINE
8
BLACK
6
CONTINUOUS
10
48.4364
20
-62.3717
11
48.5638
21
-62.3189
0
LINE
8
BLACK
6
CONTINUOUS
10
48.5638
20
-62.3189
11
48.6991
21
-62.292
0
LINE
8
BLACK
6
CONTINUOUS
10
48.6991
20
-62.292
11
48.8369
21
-62.292
0
LINE
8
BLACK
6
CONTINUOUS
10
48.8369
20
-62.292
11
48.9722
21
-62.3189
0
LINE
8
BLACK
6
CONTINUOUS
10
41.2852
20
-62.3021
11
41.4172
21
-62.3422
0
LINE
8
BLACK
6
CONTINUOUS
10
41.4172
20
-62.3422
11
41.5388
21
-62.4072
0
LINE
8
BLACK
6
CONTINUOUS
10
41.5388
20
-62.4072
11
41.6454
21
-62.4946
0
LINE
8
BLACK
6
CONTINUOUS
10
41.6454
20
-62.4946
11
41.7328
21
-62.6012
0
LINE
8
BLACK
6
CONTINUOUS
10
41.7328
20
-62.6012
11
41.7978
21
-62.7228
0
LINE
8
BLACK
6
CONTINUOUS
10
41.7978
20
-62.7228
11
41.8379
21
-62.8548
0
LINE
8
BLACK
6
CONTINUOUS
10
41.8379
20
-62.8548
11
41.8514
21
-62.992
0
LINE
8
BLACK
6
CONTINUOUS
10
41.8514
20
-62.992
11
41.8379
21
-63.1292
0
LINE
8
BLACK
6
CONTINUOUS
10
41.8379
20
-63.1292
11
41.7978
21
-63.2612
0
LINE
8
BLACK
6
CONTINUOUS
10
41.7978
20
-63.2612
11
41.7328
21
-63.3828
0
LINE
8
BLACK
6
CONTINUOUS
10
41.7328
20
-63.3828
11
41.6454
21
-63.4894
0
LINE
8
BLACK
6
CONTINUOUS
10
41.6454
20
-63.4894
11
41.5388
21
-63.5768
0
LINE
8
BLACK
6
CONTINUOUS
10
41.5388
20
-63.5768
11
41.4172
21
-63.6418
0
LINE
8
BLACK
6
CONTINUOUS
10
41.4172
20
-63.6418
11
41.2852
21
-63.6819
0
LINE
8
BLACK
6
CONTINUOUS
10
41.2852
20
-63.6819
11
41.1824
21
-63.692
0
LINE
8
BLACK
6
CONTINUOUS
10
41.1824
20
-63.692
11
41.1136
21
-63.692
0
LINE
8
BLACK
6
CONTINUOUS
10
41.1136
20
-63.692
11
41.0108
21
-63.6819
0
LINE
8
BLACK
6
CONTINUOUS
10
41.0108
20
-63.6819
11
40.8788
21
-63.6418
0
LINE
8
BLACK
6
CONTINUOUS
10
40.8788
20
-63.6418
11
40.7572
21
-63.5768
0
LINE
8
BLACK
6
CONTINUOUS
10
40.7572
20
-63.5768
11
40.6506
21
-63.4894
0
LINE
8
BLACK
6
CONTINUOUS
10
40.6506
20
-63.4894
11
40.5632
21
-63.3828
0
LINE
8
BLACK
6
CONTINUOUS
10
40.5632
20
-63.3828
11
40.4982
21
-63.2612
0
LINE
8
BLACK
6
CONTINUOUS
10
40.4982
20
-63.2612
11
40.4581
21
-63.1292
0
LINE
8
BLACK
6
CONTINUOUS
10
40.4581
20
-63.1292
11
40.4446
21
-62.992
0
LINE
8
BLACK
6
CONTINUOUS
10
40.4446
20
-62.992
11
40.4581
21
-62.8548
0
LINE
8
BLACK
6
CONTINUOUS
10
40.4581
20
-62.8548
11
40.4982
21
-62.7228
0
LINE
8
BLACK
6
CONTINUOUS
10
40.4982
20
-62.7228
11
40.5632
21
-62.6012
0
LINE
8
BLACK
6
CONTINUOUS
10
40.5632
20
-62.6012
11
40.6506
21
-62.4946
0
LINE
8
BLACK
6
CONTINUOUS
10
40.6506
20
-62.4946
11
40.7572
21
-62.4072
0
LINE
8
BLACK
6
CONTINUOUS
10
40.7572
20
-62.4072
11
40.8788
21
-62.3422
0
LINE
8
BLACK
6
CONTINUOUS
10
40.8788
20
-62.3422
11
41.0108
21
-62.3021
0
LINE
8
BLACK
6
CONTINUOUS
10
41.0108
20
-62.3021
11
41.1136
21
-62.292
0
LINE
8
BLACK
6
CONTINUOUS
10
41.1136
20
-62.292
11
41.1824
21
-62.292
0
LINE
8
BLACK
6
CONTINUOUS
10
41.1824
20
-62.292
11
41.2852
21
-62.3021
0
LINE
8
BLACK
6
CONTINUOUS
10
42.7896
20
-57.8817
11
42.8288
21
-57.8856
0
LINE
8
BLACK
6
CONTINUOUS
10
42.8288
20
-57.8856
11
42.9042
21
-57.9084
0
LINE
8
BLACK
6
CONTINUOUS
10
42.9042
20
-57.9084
11
42.9796
21
-57.9313
0
LINE
8
BLACK
6
CONTINUOUS
10
42.9796
20
-57.9313
11
43.1186
21
-58.0056
0
LINE
8
BLACK
6
CONTINUOUS
10
43.1186
20
-58.0056
11
43.2404
21
-58.1056
0
LINE
8
BLACK
6
CONTINUOUS
10
43.2404
20
-58.1056
11
43.3404
21
-58.2274
0
LINE
8
BLACK
6
CONTINUOUS
10
43.3404
20
-58.2274
11
43.4147
21
-58.3664
0
LINE
8
BLACK
6
CONTINUOUS
10
43.4147
20
-58.3664
11
43.4604
21
-58.5172
0
LINE
8
BLACK
6
CONTINUOUS
10
43.4604
20
-58.5172
11
43.4759
21
-58.674
0
LINE
8
BLACK
6
CONTINUOUS
10
43.4759
20
-58.674
11
43.4604
21
-58.8308
0
LINE
8
BLACK
6
CONTINUOUS
10
43.4604
20
-58.8308
11
43.4147
21
-58.9816
0
LINE
8
BLACK
6
CONTINUOUS
10
43.4147
20
-58.9816
11
43.3404
21
-59.1206
0
LINE
8
BLACK
6
CONTINUOUS
10
43.3404
20
-59.1206
11
43.2404
21
-59.2424
0
LINE
8
BLACK
6
CONTINUOUS
10
43.2404
20
-59.2424
11
43.1186
21
-59.3424
0
LINE
8
BLACK
6
CONTINUOUS
10
43.1186
20
-59.3424
11
42.9796
21
-59.4167
0
LINE
8
BLACK
6
CONTINUOUS
10
42.9796
20
-59.4167
11
42.9042
21
-59.4396
0
LINE
8
BLACK
6
CONTINUOUS
10
42.9042
20
-59.4396
11
42.8288
21
-59.4624
0
LINE
8
BLACK
6
CONTINUOUS
10
42.8288
20
-59.4624
11
42.7896
21
-59.4663
0
LINE
8
BLACK
6
CONTINUOUS
10
42.7896
20
-59.4663
11
42.7113
21
-59.474
0
LINE
8
BLACK
6
CONTINUOUS
10
42.7113
20
-59.474
11
42.6327
21
-59.474
0
LINE
8
BLACK
6
CONTINUOUS
10
42.6327
20
-59.474
11
42.5544
21
-59.4663
0
LINE
8
BLACK
6
CONTINUOUS
10
42.5544
20
-59.4663
11
42.5152
21
-59.4624
0
LINE
8
BLACK
6
CONTINUOUS
10
42.5152
20
-59.4624
11
42.4398
21
-59.4396
0
LINE
8
BLACK
6
CONTINUOUS
10
42.4398
20
-59.4396
11
42.3644
21
-59.4167
0
LINE
8
BLACK
6
CONTINUOUS
10
42.3644
20
-59.4167
11
42.2254
21
-59.3424
0
LINE
8
BLACK
6
CONTINUOUS
10
42.2254
20
-59.3424
11
42.1036
21
-59.2424
0
LINE
8
BLACK
6
CONTINUOUS
10
42.1036
20
-59.2424
11
42.0036
21
-59.1206
0
LINE
8
BLACK
6
CONTINUOUS
10
42.0036
20
-59.1206
11
41.9293
21
-58.9816
0
LINE
8
BLACK
6
CONTINUOUS
10
41.9293
20
-58.9816
11
41.8836
21
-58.8308
0
LINE
8
BLACK
6
CONTINUOUS
10
41.8836
20
-58.8308
11
41.8681
21
-58.674
0
LINE
8
BLACK
6
CONTINUOUS
10
41.8681
20
-58.674
11
41.8836
21
-58.5172
0
LINE
8
BLACK
6
CONTINUOUS
10
41.8836
20
-58.5172
11
41.9293
21
-58.3664
0
LINE
8
BLACK
6
CONTINUOUS
10
41.9293
20
-58.3664
11
42.0036
21
-58.2274
0
LINE
8
BLACK
6
CONTINUOUS
10
42.0036
20
-58.2274
11
42.1036
21
-58.1056
0
LINE
8
BLACK
6
CONTINUOUS
10
42.1036
20
-58.1056
11
42.2254
21
-58.0056
0
LINE
8
BLACK
6
CONTINUOUS
10
42.2254
20
-58.0056
11
42.3644
21
-57.9313
0
LINE
8
BLACK
6
CONTINUOUS
10
42.3644
20
-57.9313
11
42.4398
21
-57.9084
0
LINE
8
BLACK
6
CONTINUOUS
10
42.4398
20
-57.9084
11
42.5152
21
-57.8856
0
LINE
8
BLACK
6
CONTINUOUS
10
42.5152
20
-57.8856
11
42.5544
21
-57.8817
0
LINE
8
BLACK
6
CONTINUOUS
10
42.5544
20
-57.8817
11
42.6327
21
-57.874
0
LINE
8
BLACK
6
CONTINUOUS
10
42.6327
20
-57.874
11
42.7113
21
-57.874
0
LINE
8
BLACK
6
CONTINUOUS
10
42.7113
20
-57.874
11
42.7896
21
-57.8817
0
LINE
8
BLACK
6
CONTINUOUS
10
27.5496
20
-57.8817
11
27.5888
21
-57.8856
0
LINE
8
BLACK
6
CONTINUOUS
10
27.5888
20
-57.8856
11
27.6642
21
-57.9084
0
LINE
8
BLACK
6
CONTINUOUS
10
27.6642
20
-57.9084
11
27.7396
21
-57.9313
0
LINE
8
BLACK
6
CONTINUOUS
10
27.7396
20
-57.9313
11
27.8786
21
-58.0056
0
LINE
8
BLACK
6
CONTINUOUS
10
27.8786
20
-58.0056
11
28.0004
21
-58.1056
0
LINE
8
BLACK
6
CONTINUOUS
10
28.0004
20
-58.1056
11
28.1004
21
-58.2274
0
LINE
8
BLACK
6
CONTINUOUS
10
28.1004
20
-58.2274
11
28.1747
21
-58.3664
0
LINE
8
BLACK
6
CONTINUOUS
10
28.1747
20
-58.3664
11
28.2204
21
-58.5172
0
LINE
8
BLACK
6
CONTINUOUS
10
28.2204
20
-58.5172
11
28.2359
21
-58.674
0
LINE
8
BLACK
6
CONTINUOUS
10
28.2359
20
-58.674
11
28.2204
21
-58.8308
0
LINE
8
BLACK
6
CONTINUOUS
10
28.2204
20
-58.8308
11
28.1747
21
-58.9816
0
LINE
8
BLACK
6
CONTINUOUS
10
28.1747
20
-58.9816
11
28.1004
21
-59.1206
0
LINE
8
BLACK
6
CONTINUOUS
10
28.1004
20
-59.1206
11
28.0004
21
-59.2424
0
LINE
8
BLACK
6
CONTINUOUS
10
28.0004
20
-59.2424
11
27.8786
21
-59.3424
0
LINE
8
BLACK
6
CONTINUOUS
10
27.8786
20
-59.3424
11
27.7396
21
-59.4167
0
LINE
8
BLACK
6
CONTINUOUS
10
27.7396
20
-59.4167
11
27.6642
21
-59.4396
0
LINE
8
BLACK
6
CONTINUOUS
10
27.6642
20
-59.4396
11
27.5888
21
-59.4624
0
LINE
8
BLACK
6
CONTINUOUS
10
27.5888
20
-59.4624
11
27.5496
21
-59.4663
0
LINE
8
BLACK
6
CONTINUOUS
10
27.5496
20
-59.4663
11
27.4713
21
-59.474
0
LINE
8
BLACK
6
CONTINUOUS
10
27.4713
20
-59.474
11
27.3927
21
-59.474
0
LINE
8
BLACK
6
CONTINUOUS
10
27.3927
20
-59.474
11
27.3144
21
-59.4663
0
LINE
8
BLACK
6
CONTINUOUS
10
27.3144
20
-59.4663
11
27.2752
21
-59.4624
0
LINE
8
BLACK
6
CONTINUOUS
10
27.2752
20
-59.4624
11
27.1998
21
-59.4396
0
LINE
8
BLACK
6
CONTINUOUS
10
27.1998
20
-59.4396
11
27.1244
21
-59.4167
0
LINE
8
BLACK
6
CONTINUOUS
10
27.1244
20
-59.4167
11
26.9854
21
-59.3424
0
LINE
8
BLACK
6
CONTINUOUS
10
26.9854
20
-59.3424
11
26.8636
21
-59.2424
0
LINE
8
BLACK
6
CONTINUOUS
10
26.8636
20
-59.2424
11
26.7636
21
-59.1206
0
LINE
8
BLACK
6
CONTINUOUS
10
26.7636
20
-59.1206
11
26.6893
21
-58.9816
0
LINE
8
BLACK
6
CONTINUOUS
10
26.6893
20
-58.9816
11
26.6436
21
-58.8308
0
LINE
8
BLACK
6
CONTINUOUS
10
26.6436
20
-58.8308
11
26.6281
21
-58.674
0
LINE
8
BLACK
6
CONTINUOUS
10
26.6281
20
-58.674
11
26.6436
21
-58.5172
0
LINE
8
BLACK
6
CONTINUOUS
10
26.6436
20
-58.5172
11
26.6893
21
-58.3664
0
LINE
8
BLACK
6
CONTINUOUS
10
26.6893
20
-58.3664
11
26.7636
21
-58.2274
0
LINE
8
BLACK
6
CONTINUOUS
10
26.7636
20
-58.2274
11
26.8636
21
-58.1056
0
LINE
8
BLACK
6
CONTINUOUS
10
26.8636
20
-58.1056
11
26.9854
21
-58.0056
0
LINE
8
BLACK
6
CONTINUOUS
10
26.9854
20
-58.0056
11
27.1244
21
-57.9313
0
LINE
8
BLACK
6
CONTINUOUS
10
27.1244
20
-57.9313
11
27.1998
21
-57.9084
0
LINE
8
BLACK
6
CONTINUOUS
10
27.1998
20
-57.9084
11
27.2752
21
-57.8856
0
LINE
8
BLACK
6
CONTINUOUS
10
27.2752
20
-57.8856
11
27.3144
21
-57.8817
0
LINE
8
BLACK
6
CONTINUOUS
10
27.3144
20
-57.8817
11
27.3927
21
-57.874
0
LINE
8
BLACK
6
CONTINUOUS
10
27.3927
20
-57.874
11
27.4713
21
-57.874
0
LINE
8
BLACK
6
CONTINUOUS
10
27.4713
20
-57.874
11
27.5496
21
-57.8817
0
LINE
8
BLACK
6
CONTINUOUS
10
46.012
20
-59.474
11
44.412
21
-59.474
0
LINE
8
BLACK
6
CONTINUOUS
10
44.412
20
-59.474
11
44.412
21
-57.874
0
LINE
8
BLACK
6
CONTINUOUS
10
44.412
20
-57.874
11
46.012
21
-57.874
0
LINE
8
BLACK
6
CONTINUOUS
10
46.012
20
-57.874
11
46.012
21
-59.474
0
LINE
8
BLACK
6
CONTINUOUS
10
40.2496
20
-57.8817
11
40.2888
21
-57.8856
0
LINE
8
BLACK
6
CONTINUOUS
10
40.2888
20
-57.8856
11
40.3642
21
-57.9084
0
LINE
8
BLACK
6
CONTINUOUS
10
40.3642
20
-57.9084
11
40.4396
21
-57.9313
0
LINE
8
BLACK
6
CONTINUOUS
10
40.4396
20
-57.9313
11
40.5786
21
-58.0056
0
LINE
8
BLACK
6
CONTINUOUS
10
40.5786
20
-58.0056
11
40.7004
21
-58.1056
0
LINE
8
BLACK
6
CONTINUOUS
10
40.7004
20
-58.1056
11
40.8004
21
-58.2274
0
LINE
8
BLACK
6
CONTINUOUS
10
40.8004
20
-58.2274
11
40.8747
21
-58.3664
0
LINE
8
BLACK
6
CONTINUOUS
10
40.8747
20
-58.3664
11
40.9204
21
-58.5172
0
LINE
8
BLACK
6
CONTINUOUS
10
40.9204
20
-58.5172
11
40.9359
21
-58.674
0
LINE
8
BLACK
6
CONTINUOUS
10
40.9359
20
-58.674
11
40.9204
21
-58.8308
0
LINE
8
BLACK
6
CONTINUOUS
10
40.9204
20
-58.8308
11
40.8747
21
-58.9816
0
LINE
8
BLACK
6
CONTINUOUS
10
40.8747
20
-58.9816
11
40.8004
21
-59.1206
0
LINE
8
BLACK
6
CONTINUOUS
10
40.8004
20
-59.1206
11
40.7004
21
-59.2424
0
LINE
8
BLACK
6
CONTINUOUS
10
40.7004
20
-59.2424
11
40.5786
21
-59.3424
0
LINE
8
BLACK
6
CONTINUOUS
10
40.5786
20
-59.3424
11
40.4396
21
-59.4167
0
LINE
8
BLACK
6
CONTINUOUS
10
40.4396
20
-59.4167
11
40.3642
21
-59.4396
0
LINE
8
BLACK
6
CONTINUOUS
10
40.3642
20
-59.4396
11
40.2888
21
-59.4624
0
LINE
8
BLACK
6
CONTINUOUS
10
40.2888
20
-59.4624
11
40.2496
21
-59.4663
0
LINE
8
BLACK
6
CONTINUOUS
10
40.2496
20
-59.4663
11
40.1713
21
-59.474
0
LINE
8
BLACK
6
CONTINUOUS
10
40.1713
20
-59.474
11
40.0927
21
-59.474
0
LINE
8
BLACK
6
CONTINUOUS
10
40.0927
20
-59.474
11
40.0144
21
-59.4663
0
LINE
8
BLACK
6
CONTINUOUS
10
40.0144
20
-59.4663
11
39.9752
21
-59.4624
0
LINE
8
BLACK
6
CONTINUOUS
10
39.9752
20
-59.4624
11
39.8998
21
-59.4396
0
LINE
8
BLACK
6
CONTINUOUS
10
39.8998
20
-59.4396
11
39.8244
21
-59.4167
0
LINE
8
BLACK
6
CONTINUOUS
10
39.8244
20
-59.4167
11
39.6854
21
-59.3424
0
LINE
8
BLACK
6
CONTINUOUS
10
39.6854
20
-59.3424
11
39.5636
21
-59.2424
0
LINE
8
BLACK
6
CONTINUOUS
10
39.5636
20
-59.2424
11
39.4636
21
-59.1206
0
LINE
8
BLACK
6
CONTINUOUS
10
39.4636
20
-59.1206
11
39.3893
21
-58.9816
0
LINE
8
BLACK
6
CONTINUOUS
10
39.3893
20
-58.9816
11
39.3436
21
-58.8308
0
LINE
8
BLACK
6
CONTINUOUS
10
39.3436
20
-58.8308
11
39.3281
21
-58.674
0
LINE
8
BLACK
6
CONTINUOUS
10
39.3281
20
-58.674
11
39.3436
21
-58.5172
0
LINE
8
BLACK
6
CONTINUOUS
10
39.3436
20
-58.5172
11
39.3893
21
-58.3664
0
LINE
8
BLACK
6
CONTINUOUS
10
39.3893
20
-58.3664
11
39.4636
21
-58.2274
0
LINE
8
BLACK
6
CONTINUOUS
10
39.4636
20
-58.2274
11
39.5636
21
-58.1056
0
LINE
8
BLACK
6
CONTINUOUS
10
39.5636
20
-58.1056
11
39.6854
21
-58.0056
0
LINE
8
BLACK
6
CONTINUOUS
10
39.6854
20
-58.0056
11
39.8244
21
-57.9313
0
LINE
8
BLACK
6
CONTINUOUS
10
39.8244
20
-57.9313
11
39.8998
21
-57.9084
0
LINE
8
BLACK
6
CONTINUOUS
10
39.8998
20
-57.9084
11
39.9752
21
-57.8856
0
LINE
8
BLACK
6
CONTINUOUS
10
39.9752
20
-57.8856
11
40.0144
21
-57.8817
0
LINE
8
BLACK
6
CONTINUOUS
10
40.0144
20
-57.8817
11
40.0927
21
-57.874
0
LINE
8
BLACK
6
CONTINUOUS
10
40.0927
20
-57.874
11
40.1713
21
-57.874
0
LINE
8
BLACK
6
CONTINUOUS
10
40.1713
20
-57.874
11
40.2496
21
-57.8817
0
LINE
8
BLACK
6
CONTINUOUS
10
30.0896
20
-57.8817
11
30.1288
21
-57.8856
0
LINE
8
BLACK
6
CONTINUOUS
10
30.1288
20
-57.8856
11
30.2042
21
-57.9084
0
LINE
8
BLACK
6
CONTINUOUS
10
30.2042
20
-57.9084
11
30.2796
21
-57.9313
0
LINE
8
BLACK
6
CONTINUOUS
10
30.2796
20
-57.9313
11
30.4186
21
-58.0056
0
LINE
8
BLACK
6
CONTINUOUS
10
30.4186
20
-58.0056
11
30.5404
21
-58.1056
0
LINE
8
BLACK
6
CONTINUOUS
10
30.5404
20
-58.1056
11
30.6404
21
-58.2274
0
LINE
8
BLACK
6
CONTINUOUS
10
30.6404
20
-58.2274
11
30.7147
21
-58.3664
0
LINE
8
BLACK
6
CONTINUOUS
10
30.7147
20
-58.3664
11
30.7604
21
-58.5172
0
LINE
8
BLACK
6
CONTINUOUS
10
30.7604
20
-58.5172
11
30.7759
21
-58.674
0
LINE
8
BLACK
6
CONTINUOUS
10
30.7759
20
-58.674
11
30.7604
21
-58.8308
0
LINE
8
BLACK
6
CONTINUOUS
10
30.7604
20
-58.8308
11
30.7147
21
-58.9816
0
LINE
8
BLACK
6
CONTINUOUS
10
30.7147
20
-58.9816
11
30.6404
21
-59.1206
0
LINE
8
BLACK
6
CONTINUOUS
10
30.6404
20
-59.1206
11
30.5404
21
-59.2424
0
LINE
8
BLACK
6
CONTINUOUS
10
30.5404
20
-59.2424
11
30.4186
21
-59.3424
0
LINE
8
BLACK
6
CONTINUOUS
10
30.4186
20
-59.3424
11
30.2796
21
-59.4167
0
LINE
8
BLACK
6
CONTINUOUS
10
30.2796
20
-59.4167
11
30.2042
21
-59.4396
0
LINE
8
BLACK
6
CONTINUOUS
10
30.2042
20
-59.4396
11
30.1288
21
-59.4624
0
LINE
8
BLACK
6
CONTINUOUS
10
30.1288
20
-59.4624
11
30.0896
21
-59.4663
0
LINE
8
BLACK
6
CONTINUOUS
10
30.0896
20
-59.4663
11
30.0113
21
-59.474
0
LINE
8
BLACK
6
CONTINUOUS
10
30.0113
20
-59.474
11
29.9327
21
-59.474
0
LINE
8
BLACK
6
CONTINUOUS
10
29.9327
20
-59.474
11
29.8544
21
-59.4663
0
LINE
8
BLACK
6
CONTINUOUS
10
29.8544
20
-59.4663
11
29.8152
21
-59.4624
0
LINE
8
BLACK
6
CONTINUOUS
10
29.8152
20
-59.4624
11
29.7398
21
-59.4396
0
LINE
8
BLACK
6
CONTINUOUS
10
29.7398
20
-59.4396
11
29.6644
21
-59.4167
0
LINE
8
BLACK
6
CONTINUOUS
10
29.6644
20
-59.4167
11
29.5254
21
-59.3424
0
LINE
8
BLACK
6
CONTINUOUS
10
29.5254
20
-59.3424
11
29.4036
21
-59.2424
0
LINE
8
BLACK
6
CONTINUOUS
10
29.4036
20
-59.2424
11
29.3036
21
-59.1206
0
LINE
8
BLACK
6
CONTINUOUS
10
29.3036
20
-59.1206
11
29.2293
21
-58.9816
0
LINE
8
BLACK
6
CONTINUOUS
10
29.2293
20
-58.9816
11
29.1836
21
-58.8308
0
LINE
8
BLACK
6
CONTINUOUS
10
29.1836
20
-58.8308
11
29.1681
21
-58.674
0
LINE
8
BLACK
6
CONTINUOUS
10
29.1681
20
-58.674
11
29.1836
21
-58.5172
0
LINE
8
BLACK
6
CONTINUOUS
10
29.1836
20
-58.5172
11
29.2293
21
-58.3664
0
LINE
8
BLACK
6
CONTINUOUS
10
29.2293
20
-58.3664
11
29.3036
21
-58.2274
0
LINE
8
BLACK
6
CONTINUOUS
10
29.3036
20
-58.2274
11
29.4036
21
-58.1056
0
LINE
8
BLACK
6
CONTINUOUS
10
29.4036
20
-58.1056
11
29.5254
21
-58.0056
0
LINE
8
BLACK
6
CONTINUOUS
10
29.5254
20
-58.0056
11
29.6644
21
-57.9313
0
LINE
8
BLACK
6
CONTINUOUS
10
29.6644
20
-57.9313
11
29.7398
21
-57.9084
0
LINE
8
BLACK
6
CONTINUOUS
10
29.7398
20
-57.9084
11
29.8152
21
-57.8856
0
LINE
8
BLACK
6
CONTINUOUS
10
29.8152
20
-57.8856
11
29.8544
21
-57.8817
0
LINE
8
BLACK
6
CONTINUOUS
10
29.8544
20
-57.8817
11
29.9327
21
-57.874
0
LINE
8
BLACK
6
CONTINUOUS
10
29.9327
20
-57.874
11
30.0113
21
-57.874
0
LINE
8
BLACK
6
CONTINUOUS
10
30.0113
20
-57.874
11
30.0896
21
-57.8817
0
LINE
8
BLACK
6
CONTINUOUS
10
37.7096
20
-57.8817
11
37.7488
21
-57.8856
0
LINE
8
BLACK
6
CONTINUOUS
10
37.7488
20
-57.8856
11
37.8242
21
-57.9084
0
LINE
8
BLACK
6
CONTINUOUS
10
37.8242
20
-57.9084
11
37.8996
21
-57.9313
0
LINE
8
BLACK
6
CONTINUOUS
10
37.8996
20
-57.9313
11
38.0386
21
-58.0056
0
LINE
8
BLACK
6
CONTINUOUS
10
38.0386
20
-58.0056
11
38.1604
21
-58.1056
0
LINE
8
BLACK
6
CONTINUOUS
10
38.1604
20
-58.1056
11
38.2604
21
-58.2274
0
LINE
8
BLACK
6
CONTINUOUS
10
38.2604
20
-58.2274
11
38.3347
21
-58.3664
0
LINE
8
BLACK
6
CONTINUOUS
10
38.3347
20
-58.3664
11
38.3804
21
-58.5172
0
LINE
8
BLACK
6
CONTINUOUS
10
38.3804
20
-58.5172
11
38.3959
21
-58.674
0
LINE
8
BLACK
6
CONTINUOUS
10
38.3959
20
-58.674
11
38.3804
21
-58.8308
0
LINE
8
BLACK
6
CONTINUOUS
10
38.3804
20
-58.8308
11
38.3347
21
-58.9816
0
LINE
8
BLACK
6
CONTINUOUS
10
38.3347
20
-58.9816
11
38.2604
21
-59.1206
0
LINE
8
BLACK
6
CONTINUOUS
10
38.2604
20
-59.1206
11
38.1604
21
-59.2424
0
LINE
8
BLACK
6
CONTINUOUS
10
38.1604
20
-59.2424
11
38.0386
21
-59.3424
0
LINE
8
BLACK
6
CONTINUOUS
10
38.0386
20
-59.3424
11
37.8996
21
-59.4167
0
LINE
8
BLACK
6
CONTINUOUS
10
37.8996
20
-59.4167
11
37.8242
21
-59.4396
0
LINE
8
BLACK
6
CONTINUOUS
10
37.8242
20
-59.4396
11
37.7488
21
-59.4624
0
LINE
8
BLACK
6
CONTINUOUS
10
37.7488
20
-59.4624
11
37.7096
21
-59.4663
0
LINE
8
BLACK
6
CONTINUOUS
10
37.7096
20
-59.4663
11
37.6313
21
-59.474
0
LINE
8
BLACK
6
CONTINUOUS
10
37.6313
20
-59.474
11
37.5527
21
-59.474
0
LINE
8
BLACK
6
CONTINUOUS
10
37.5527
20
-59.474
11
37.4744
21
-59.4663
0
LINE
8
BLACK
6
CONTINUOUS
10
37.4744
20
-59.4663
11
37.4352
21
-59.4624
0
LINE
8
BLACK
6
CONTINUOUS
10
37.4352
20
-59.4624
11
37.3598
21
-59.4396
0
LINE
8
BLACK
6
CONTINUOUS
10
37.3598
20
-59.4396
11
37.2844
21
-59.4167
0
LINE
8
BLACK
6
CONTINUOUS
10
37.2844
20
-59.4167
11
37.1454
21
-59.3424
0
LINE
8
BLACK
6
CONTINUOUS
10
37.1454
20
-59.3424
11
37.0236
21
-59.2424
0
LINE
8
BLACK
6
CONTINUOUS
10
37.0236
20
-59.2424
11
36.9236
21
-59.1206
0
LINE
8
BLACK
6
CONTINUOUS
10
36.9236
20
-59.1206
11
36.8493
21
-58.9816
0
LINE
8
BLACK
6
CONTINUOUS
10
36.8493
20
-58.9816
11
36.8036
21
-58.8308
0
LINE
8
BLACK
6
CONTINUOUS
10
36.8036
20
-58.8308
11
36.7881
21
-58.674
0
LINE
8
BLACK
6
CONTINUOUS
10
36.7881
20
-58.674
11
36.8036
21
-58.5172
0
LINE
8
BLACK
6
CONTINUOUS
10
36.8036
20
-58.5172
11
36.8493
21
-58.3664
0
LINE
8
BLACK
6
CONTINUOUS
10
36.8493
20
-58.3664
11
36.9236
21
-58.2274
0
LINE
8
BLACK
6
CONTINUOUS
10
36.9236
20
-58.2274
11
37.0236
21
-58.1056
0
LINE
8
BLACK
6
CONTINUOUS
10
37.0236
20
-58.1056
11
37.1454
21
-58.0056
0
LINE
8
BLACK
6
CONTINUOUS
10
37.1454
20
-58.0056
11
37.2844
21
-57.9313
0
LINE
8
BLACK
6
CONTINUOUS
10
37.2844
20
-57.9313
11
37.3598
21
-57.9084
0
LINE
8
BLACK
6
CONTINUOUS
10
37.3598
20
-57.9084
11
37.4352
21
-57.8856
0
LINE
8
BLACK
6
CONTINUOUS
10
37.4352
20
-57.8856
11
37.4744
21
-57.8817
0
LINE
8
BLACK
6
CONTINUOUS
10
37.4744
20
-57.8817
11
37.5527
21
-57.874
0
LINE
8
BLACK
6
CONTINUOUS
10
37.5527
20
-57.874
11
37.6313
21
-57.874
0
LINE
8
BLACK
6
CONTINUOUS
10
37.6313
20
-57.874
11
37.7096
21
-57.8817
0
LINE
8
BLACK
6
CONTINUOUS
10
35.1696
20
-57.8817
11
35.2088
21
-57.8856
0
LINE
8
BLACK
6
CONTINUOUS
10
35.2088
20
-57.8856
11
35.2842
21
-57.9084
0
LINE
8
BLACK
6
CONTINUOUS
10
35.2842
20
-57.9084
11
35.3596
21
-57.9313
0
LINE
8
BLACK
6
CONTINUOUS
10
35.3596
20
-57.9313
11
35.4986
21
-58.0056
0
LINE
8
BLACK
6
CONTINUOUS
10
35.4986
20
-58.0056
11
35.6204
21
-58.1056
0
LINE
8
BLACK
6
CONTINUOUS
10
35.6204
20
-58.1056
11
35.7204
21
-58.2274
0
LINE
8
BLACK
6
CONTINUOUS
10
35.7204
20
-58.2274
11
35.7947
21
-58.3664
0
LINE
8
BLACK
6
CONTINUOUS
10
35.7947
20
-58.3664
11
35.8404
21
-58.5172
0
LINE
8
BLACK
6
CONTINUOUS
10
35.8404
20
-58.5172
11
35.8559
21
-58.674
0
LINE
8
BLACK
6
CONTINUOUS
10
35.8559
20
-58.674
11
35.8404
21
-58.8308
0
LINE
8
BLACK
6
CONTINUOUS
10
35.8404
20
-58.8308
11
35.7947
21
-58.9816
0
LINE
8
BLACK
6
CONTINUOUS
10
35.7947
20
-58.9816
11
35.7204
21
-59.1206
0
LINE
8
BLACK
6
CONTINUOUS
10
35.7204
20
-59.1206
11
35.6204
21
-59.2424
0
LINE
8
BLACK
6
CONTINUOUS
10
35.6204
20
-59.2424
11
35.4986
21
-59.3424
0
LINE
8
BLACK
6
CONTINUOUS
10
35.4986
20
-59.3424
11
35.3596
21
-59.4167
0
LINE
8
BLACK
6
CONTINUOUS
10
35.3596
20
-59.4167
11
35.2842
21
-59.4396
0
LINE
8
BLACK
6
CONTINUOUS
10
35.2842
20
-59.4396
11
35.2088
21
-59.4624
0
LINE
8
BLACK
6
CONTINUOUS
10
35.2088
20
-59.4624
11
35.1696
21
-59.4663
0
LINE
8
BLACK
6
CONTINUOUS
10
35.1696
20
-59.4663
11
35.0913
21
-59.474
0
LINE
8
BLACK
6
CONTINUOUS
10
35.0913
20
-59.474
11
35.0127
21
-59.474
0
LINE
8
BLACK
6
CONTINUOUS
10
35.0127
20
-59.474
11
34.9344
21
-59.4663
0
LINE
8
BLACK
6
CONTINUOUS
10
34.9344
20
-59.4663
11
34.8952
21
-59.4624
0
LINE
8
BLACK
6
CONTINUOUS
10
34.8952
20
-59.4624
11
34.8198
21
-59.4396
0
LINE
8
BLACK
6
CONTINUOUS
10
34.8198
20
-59.4396
11
34.7444
21
-59.4167
0
LINE
8
BLACK
6
CONTINUOUS
10
34.7444
20
-59.4167
11
34.6054
21
-59.3424
0
LINE
8
BLACK
6
CONTINUOUS
10
34.6054
20
-59.3424
11
34.4836
21
-59.2424
0
LINE
8
BLACK
6
CONTINUOUS
10
34.4836
20
-59.2424
11
34.3836
21
-59.1206
0
LINE
8
BLACK
6
CONTINUOUS
10
34.3836
20
-59.1206
11
34.3093
21
-58.9816
0
LINE
8
BLACK
6
CONTINUOUS
10
34.3093
20
-58.9816
11
34.2636
21
-58.8308
0
LINE
8
BLACK
6
CONTINUOUS
10
34.2636
20
-58.8308
11
34.2481
21
-58.674
0
LINE
8
BLACK
6
CONTINUOUS
10
34.2481
20
-58.674
11
34.2636
21
-58.5172
0
LINE
8
BLACK
6
CONTINUOUS
10
34.2636
20
-58.5172
11
34.3093
21
-58.3664
0
LINE
8
BLACK
6
CONTINUOUS
10
34.3093
20
-58.3664
11
34.3836
21
-58.2274
0
LINE
8
BLACK
6
CONTINUOUS
10
34.3836
20
-58.2274
11
34.4836
21
-58.1056
0
LINE
8
BLACK
6
CONTINUOUS
10
34.4836
20
-58.1056
11
34.6054
21
-58.0056
0
LINE
8
BLACK
6
CONTINUOUS
10
34.6054
20
-58.0056
11
34.7444
21
-57.9313
0
LINE
8
BLACK
6
CONTINUOUS
10
34.7444
20
-57.9313
11
34.8198
21
-57.9084
0
LINE
8
BLACK
6
CONTINUOUS
10
34.8198
20
-57.9084
11
34.8952
21
-57.8856
0
LINE
8
BLACK
6
CONTINUOUS
10
34.8952
20
-57.8856
11
34.9344
21
-57.8817
0
LINE
8
BLACK
6
CONTINUOUS
10
34.9344
20
-57.8817
11
35.0127
21
-57.874
0
LINE
8
BLACK
6
CONTINUOUS
10
35.0127
20
-57.874
11
35.0913
21
-57.874
0
LINE
8
BLACK
6
CONTINUOUS
10
35.0913
20
-57.874
11
35.1696
21
-57.8817
0
LINE
8
BLACK
6
CONTINUOUS
10
32.6296
20
-57.8817
11
32.6688
21
-57.8856
0
LINE
8
BLACK
6
CONTINUOUS
10
32.6688
20
-57.8856
11
32.7442
21
-57.9084
0
LINE
8
BLACK
6
CONTINUOUS
10
32.7442
20
-57.9084
11
32.8196
21
-57.9313
0
LINE
8
BLACK
6
CONTINUOUS
10
32.8196
20
-57.9313
11
32.9586
21
-58.0056
0
LINE
8
BLACK
6
CONTINUOUS
10
32.9586
20
-58.0056
11
33.0804
21
-58.1056
0
LINE
8
BLACK
6
CONTINUOUS
10
33.0804
20
-58.1056
11
33.1804
21
-58.2274
0
LINE
8
BLACK
6
CONTINUOUS
10
33.1804
20
-58.2274
11
33.2547
21
-58.3664
0
LINE
8
BLACK
6
CONTINUOUS
10
33.2547
20
-58.3664
11
33.3004
21
-58.5172
0
LINE
8
BLACK
6
CONTINUOUS
10
33.3004
20
-58.5172
11
33.3159
21
-58.674
0
LINE
8
BLACK
6
CONTINUOUS
10
33.3159
20
-58.674
11
33.3004
21
-58.8308
0
LINE
8
BLACK
6
CONTINUOUS
10
33.3004
20
-58.8308
11
33.2547
21
-58.9816
0
LINE
8
BLACK
6
CONTINUOUS
10
33.2547
20
-58.9816
11
33.1804
21
-59.1206
0
LINE
8
BLACK
6
CONTINUOUS
10
33.1804
20
-59.1206
11
33.0804
21
-59.2424
0
LINE
8
BLACK
6
CONTINUOUS
10
33.0804
20
-59.2424
11
32.9586
21
-59.3424
0
LINE
8
BLACK
6
CONTINUOUS
10
32.9586
20
-59.3424
11
32.8196
21
-59.4167
0
LINE
8
BLACK
6
CONTINUOUS
10
32.8196
20
-59.4167
11
32.7442
21
-59.4396
0
LINE
8
BLACK
6
CONTINUOUS
10
32.7442
20
-59.4396
11
32.6688
21
-59.4624
0
LINE
8
BLACK
6
CONTINUOUS
10
32.6688
20
-59.4624
11
32.6296
21
-59.4663
0
LINE
8
BLACK
6
CONTINUOUS
10
32.6296
20
-59.4663
11
32.5513
21
-59.474
0
LINE
8
BLACK
6
CONTINUOUS
10
32.5513
20
-59.474
11
32.4727
21
-59.474
0
LINE
8
BLACK
6
CONTINUOUS
10
32.4727
20
-59.474
11
32.3944
21
-59.4663
0
LINE
8
BLACK
6
CONTINUOUS
10
32.3944
20
-59.4663
11
32.3552
21
-59.4624
0
LINE
8
BLACK
6
CONTINUOUS
10
32.3552
20
-59.4624
11
32.2798
21
-59.4396
0
LINE
8
BLACK
6
CONTINUOUS
10
32.2798
20
-59.4396
11
32.2044
21
-59.4167
0
LINE
8
BLACK
6
CONTINUOUS
10
32.2044
20
-59.4167
11
32.0654
21
-59.3424
0
LINE
8
BLACK
6
CONTINUOUS
10
32.0654
20
-59.3424
11
31.9436
21
-59.2424
0
LINE
8
BLACK
6
CONTINUOUS
10
31.9436
20
-59.2424
11
31.8436
21
-59.1206
0
LINE
8
BLACK
6
CONTINUOUS
10
31.8436
20
-59.1206
11
31.7693
21
-58.9816
0
LINE
8
BLACK
6
CONTINUOUS
10
31.7693
20
-58.9816
11
31.7236
21
-58.8308
0
LINE
8
BLACK
6
CONTINUOUS
10
31.7236
20
-58.8308
11
31.7081
21
-58.674
0
LINE
8
BLACK
6
CONTINUOUS
10
31.7081
20
-58.674
11
31.7236
21
-58.5172
0
LINE
8
BLACK
6
CONTINUOUS
10
31.7236
20
-58.5172
11
31.7693
21
-58.3664
0
LINE
8
BLACK
6
CONTINUOUS
10
31.7693
20
-58.3664
11
31.8436
21
-58.2274
0
LINE
8
BLACK
6
CONTINUOUS
10
31.8436
20
-58.2274
11
31.9436
21
-58.1056
0
LINE
8
BLACK
6
CONTINUOUS
10
31.9436
20
-58.1056
11
32.0654
21
-58.0056
0
LINE
8
BLACK
6
CONTINUOUS
10
32.0654
20
-58.0056
11
32.2044
21
-57.9313
0
LINE
8
BLACK
6
CONTINUOUS
10
32.2044
20
-57.9313
11
32.2798
21
-57.9084
0
LINE
8
BLACK
6
CONTINUOUS
10
32.2798
20
-57.9084
11
32.3552
21
-57.8856
0
LINE
8
BLACK
6
CONTINUOUS
10
32.3552
20
-57.8856
11
32.3944
21
-57.8817
0
LINE
8
BLACK
6
CONTINUOUS
10
32.3944
20
-57.8817
11
32.4727
21
-57.874
0
LINE
8
BLACK
6
CONTINUOUS
10
32.4727
20
-57.874
11
32.5513
21
-57.874
0
LINE
8
BLACK
6
CONTINUOUS
10
32.5513
20
-57.874
11
32.6296
21
-57.8817
0
LINE
8
BLACK
6
CONTINUOUS
10
31.6136
20
-54.8337
11
31.6528
21
-54.8376
0
LINE
8
BLACK
6
CONTINUOUS
10
31.6528
20
-54.8376
11
31.7282
21
-54.8604
0
LINE
8
BLACK
6
CONTINUOUS
10
31.7282
20
-54.8604
11
31.8036
21
-54.8833
0
LINE
8
BLACK
6
CONTINUOUS
10
31.8036
20
-54.8833
11
31.9426
21
-54.9576
0
LINE
8
BLACK
6
CONTINUOUS
10
31.9426
20
-54.9576
11
32.0644
21
-55.0576
0
LINE
8
BLACK
6
CONTINUOUS
10
32.0644
20
-55.0576
11
32.1644
21
-55.1794
0
LINE
8
BLACK
6
CONTINUOUS
10
32.1644
20
-55.1794
11
32.2387
21
-55.3184
0
LINE
8
BLACK
6
CONTINUOUS
10
32.2387
20
-55.3184
11
32.2844
21
-55.4692
0
LINE
8
BLACK
6
CONTINUOUS
10
32.2844
20
-55.4692
11
32.2999
21
-55.626
0
LINE
8
BLACK
6
CONTINUOUS
10
32.2999
20
-55.626
11
32.2844
21
-55.7828
0
LINE
8
BLACK
6
CONTINUOUS
10
32.2844
20
-55.7828
11
32.2387
21
-55.9336
0
LINE
8
BLACK
6
CONTINUOUS
10
32.2387
20
-55.9336
11
32.1644
21
-56.0726
0
LINE
8
BLACK
6
CONTINUOUS
10
32.1644
20
-56.0726
11
32.0644
21
-56.1944
0
LINE
8
BLACK
6
CONTINUOUS
10
32.0644
20
-56.1944
11
31.9426
21
-56.2944
0
LINE
8
BLACK
6
CONTINUOUS
10
31.9426
20
-56.2944
11
31.8036
21
-56.3687
0
LINE
8
BLACK
6
CONTINUOUS
10
31.8036
20
-56.3687
11
31.7282
21
-56.3916
0
LINE
8
BLACK
6
CONTINUOUS
10
31.7282
20
-56.3916
11
31.6528
21
-56.4144
0
LINE
8
BLACK
6
CONTINUOUS
10
31.6528
20
-56.4144
11
31.6136
21
-56.4183
0
LINE
8
BLACK
6
CONTINUOUS
10
31.6136
20
-56.4183
11
31.5353
21
-56.426
0
LINE
8
BLACK
6
CONTINUOUS
10
31.5353
20
-56.426
11
31.4567
21
-56.426
0
LINE
8
BLACK
6
CONTINUOUS
10
31.4567
20
-56.426
11
31.3784
21
-56.4183
0
LINE
8
BLACK
6
CONTINUOUS
10
31.3784
20
-56.4183
11
31.3392
21
-56.4144
0
LINE
8
BLACK
6
CONTINUOUS
10
31.3392
20
-56.4144
11
31.2638
21
-56.3916
0
LINE
8
BLACK
6
CONTINUOUS
10
31.2638
20
-56.3916
11
31.1884
21
-56.3687
0
LINE
8
BLACK
6
CONTINUOUS
10
31.1884
20
-56.3687
11
31.0494
21
-56.2944
0
LINE
8
BLACK
6
CONTINUOUS
10
31.0494
20
-56.2944
11
30.9276
21
-56.1944
0
LINE
8
BLACK
6
CONTINUOUS
10
30.9276
20
-56.1944
11
30.8276
21
-56.0726
0
LINE
8
BLACK
6
CONTINUOUS
10
30.8276
20
-56.0726
11
30.7533
21
-55.9336
0
LINE
8
BLACK
6
CONTINUOUS
10
30.7533
20
-55.9336
11
30.7076
21
-55.7828
0
LINE
8
BLACK
6
CONTINUOUS
10
30.7076
20
-55.7828
11
30.6921
21
-55.626
0
LINE
8
BLACK
6
CONTINUOUS
10
30.6921
20
-55.626
11
30.7076
21
-55.4692
0
LINE
8
BLACK
6
CONTINUOUS
10
30.7076
20
-55.4692
11
30.7533
21
-55.3184
0
LINE
8
BLACK
6
CONTINUOUS
10
30.7533
20
-55.3184
11
30.8276
21
-55.1794
0
LINE
8
BLACK
6
CONTINUOUS
10
30.8276
20
-55.1794
11
30.9276
21
-55.0576
0
LINE
8
BLACK
6
CONTINUOUS
10
30.9276
20
-55.0576
11
31.0494
21
-54.9576
0
LINE
8
BLACK
6
CONTINUOUS
10
31.0494
20
-54.9576
11
31.1884
21
-54.8833
0
LINE
8
BLACK
6
CONTINUOUS
10
31.1884
20
-54.8833
11
31.2638
21
-54.8604
0
LINE
8
BLACK
6
CONTINUOUS
10
31.2638
20
-54.8604
11
31.3392
21
-54.8376
0
LINE
8
BLACK
6
CONTINUOUS
10
31.3392
20
-54.8376
11
31.3784
21
-54.8337
0
LINE
8
BLACK
6
CONTINUOUS
10
31.3784
20
-54.8337
11
31.4567
21
-54.826
0
LINE
8
BLACK
6
CONTINUOUS
10
31.4567
20
-54.826
11
31.5353
21
-54.826
0
LINE
8
BLACK
6
CONTINUOUS
10
31.5353
20
-54.826
11
31.6136
21
-54.8337
0
LINE
8
BLACK
6
CONTINUOUS
10
34.3354
20
-54.1439
11
34.3746
21
-54.1478
0
LINE
8
BLACK
6
CONTINUOUS
10
34.3746
20
-54.1478
11
34.45
21
-54.1707
0
LINE
8
BLACK
6
CONTINUOUS
10
34.45
20
-54.1707
11
34.5254
21
-54.1935
0
LINE
8
BLACK
6
CONTINUOUS
10
34.5254
20
-54.1935
11
34.6644
21
-54.2678
0
LINE
8
BLACK
6
CONTINUOUS
10
34.6644
20
-54.2678
11
34.7862
21
-54.3678
0
LINE
8
BLACK
6
CONTINUOUS
10
34.7862
20
-54.3678
11
34.8862
21
-54.4896
0
LINE
8
BLACK
6
CONTINUOUS
10
34.8862
20
-54.4896
11
34.9605
21
-54.6286
0
LINE
8
BLACK
6
CONTINUOUS
10
34.9605
20
-54.6286
11
34.9605
21
-54.6286
0
LINE
8
BLACK
6
CONTINUOUS
10
34.9605
20
-54.6286
11
35.0024
21
-54.7666
0
LINE
8
BLACK
6
CONTINUOUS
10
35.0024
20
-54.7666
11
35.0062
21
-54.7794
0
LINE
8
BLACK
6
CONTINUOUS
10
35.0062
20
-54.7794
11
35.0217
21
-54.9362
0
LINE
8
BLACK
6
CONTINUOUS
10
35.0217
20
-54.9362
11
35.0062
21
-55.093
0
LINE
8
BLACK
6
CONTINUOUS
10
35.0062
20
-55.093
11
34.9605
21
-55.2438
0
LINE
8
BLACK
6
CONTINUOUS
10
34.9605
20
-55.2438
11
34.8862
21
-55.3828
0
LINE
8
BLACK
6
CONTINUOUS
10
34.8862
20
-55.3828
11
34.7862
21
-55.5046
0
LINE
8
BLACK
6
CONTINUOUS
10
34.7862
20
-55.5046
11
34.6644
21
-55.6046
0
LINE
8
BLACK
6
CONTINUOUS
10
34.6644
20
-55.6046
11
34.5254
21
-55.6789
0
LINE
8
BLACK
6
CONTINUOUS
10
34.5254
20
-55.6789
11
34.45
21
-55.7018
0
LINE
8
BLACK
6
CONTINUOUS
10
34.45
20
-55.7018
11
34.3746
21
-55.7246
0
LINE
8
BLACK
6
CONTINUOUS
10
34.3746
20
-55.7246
11
34.3354
21
-55.7285
0
LINE
8
BLACK
6
CONTINUOUS
10
34.3354
20
-55.7285
11
34.2571
21
-55.7362
0
LINE
8
BLACK
6
CONTINUOUS
10
34.2571
20
-55.7362
11
34.1785
21
-55.7362
0
LINE
8
BLACK
6
CONTINUOUS
10
34.1785
20
-55.7362
11
34.1001
21
-55.7285
0
LINE
8
BLACK
6
CONTINUOUS
10
34.1001
20
-55.7285
11
34.061
21
-55.7246
0
LINE
8
BLACK
6
CONTINUOUS
10
34.061
20
-55.7246
11
33.9856
21
-55.7018
0
LINE
8
BLACK
6
CONTINUOUS
10
33.9856
20
-55.7018
11
33.9102
21
-55.6789
0
LINE
8
BLACK
6
CONTINUOUS
10
33.9102
20
-55.6789
11
33.7712
21
-55.6046
0
LINE
8
BLACK
6
CONTINUOUS
10
33.7712
20
-55.6046
11
33.6494
21
-55.5046
0
LINE
8
BLACK
6
CONTINUOUS
10
33.6494
20
-55.5046
11
33.5494
21
-55.3828
0
LINE
8
BLACK
6
CONTINUOUS
10
33.5494
20
-55.3828
11
33.4751
21
-55.2438
0
LINE
8
BLACK
6
CONTINUOUS
10
33.4751
20
-55.2438
11
33.4294
21
-55.093
0
LINE
8
BLACK
6
CONTINUOUS
10
33.4294
20
-55.093
11
33.4139
21
-54.9362
0
LINE
8
BLACK
6
CONTINUOUS
10
33.4139
20
-54.9362
11
33.4294
21
-54.7794
0
LINE
8
BLACK
6
CONTINUOUS
10
33.4294
20
-54.7794
11
33.4332
21
-54.7666
0
LINE
8
BLACK
6
CONTINUOUS
10
33.4332
20
-54.7666
11
33.4751
21
-54.6286
0
LINE
8
BLACK
6
CONTINUOUS
10
33.4751
20
-54.6286
11
33.4751
21
-54.6286
0
LINE
8
BLACK
6
CONTINUOUS
10
33.4751
20
-54.6286
11
33.5494
21
-54.4896
0
LINE
8
BLACK
6
CONTINUOUS
10
33.5494
20
-54.4896
11
33.6494
21
-54.3678
0
LINE
8
BLACK
6
CONTINUOUS
10
33.6494
20
-54.3678
11
33.7712
21
-54.2678
0
LINE
8
BLACK
6
CONTINUOUS
10
33.7712
20
-54.2678
11
33.9102
21
-54.1935
0
LINE
8
BLACK
6
CONTINUOUS
10
33.9102
20
-54.1935
11
33.9856
21
-54.1707
0
LINE
8
BLACK
6
CONTINUOUS
10
33.9856
20
-54.1707
11
34.061
21
-54.1478
0
LINE
8
BLACK
6
CONTINUOUS
10
34.061
20
-54.1478
11
34.1001
21
-54.1439
0
LINE
8
BLACK
6
CONTINUOUS
10
34.1001
20
-54.1439
11
34.1785
21
-54.1362
0
LINE
8
BLACK
6
CONTINUOUS
10
34.1785
20
-54.1362
11
34.2571
21
-54.1362
0
LINE
8
BLACK
6
CONTINUOUS
10
34.2571
20
-54.1362
11
34.3354
21
-54.1439
0
LINE
8
BLACK
6
CONTINUOUS
10
29.452
20
-54.852
11
27.952
21
-54.852
0
LINE
8
BLACK
6
CONTINUOUS
10
27.952
20
-54.852
11
27.952
21
-53.352
0
LINE
8
BLACK
6
CONTINUOUS
10
27.952
20
-53.352
11
29.452
21
-53.352
0
LINE
8
BLACK
6
CONTINUOUS
10
29.452
20
-53.352
11
29.452
21
-54.852
0
LINE
8
BLACK
6
CONTINUOUS
10
44.0883
20
-53.3664
11
44.1608
21
-53.3808
0
LINE
8
BLACK
6
CONTINUOUS
10
44.1608
20
-53.3808
11
44.2173
21
-53.4042
0
LINE
8
BLACK
6
CONTINUOUS
10
44.2173
20
-53.4042
11
44.2973
21
-53.4374
0
LINE
8
BLACK
6
CONTINUOUS
10
44.2973
20
-53.4374
11
44.4201
21
-53.5194
0
LINE
8
BLACK
6
CONTINUOUS
10
44.4201
20
-53.5194
11
44.5246
21
-53.6239
0
LINE
8
BLACK
6
CONTINUOUS
10
44.5246
20
-53.6239
11
44.6066
21
-53.7467
0
LINE
8
BLACK
6
CONTINUOUS
10
44.6066
20
-53.7467
11
44.6632
21
-53.8832
0
LINE
8
BLACK
6
CONTINUOUS
10
44.6632
20
-53.8832
11
44.692
21
-54.0281
0
LINE
8
BLACK
6
CONTINUOUS
10
44.692
20
-54.0281
11
44.692
21
-54.1759
0
LINE
8
BLACK
6
CONTINUOUS
10
44.692
20
-54.1759
11
44.6632
21
-54.3208
0
LINE
8
BLACK
6
CONTINUOUS
10
44.6632
20
-54.3208
11
44.6066
21
-54.4573
0
LINE
8
BLACK
6
CONTINUOUS
10
44.6066
20
-54.4573
11
44.5246
21
-54.5801
0
LINE
8
BLACK
6
CONTINUOUS
10
44.5246
20
-54.5801
11
44.4201
21
-54.6846
0
LINE
8
BLACK
6
CONTINUOUS
10
44.4201
20
-54.6846
11
44.2973
21
-54.7666
0
LINE
8
BLACK
6
CONTINUOUS
10
44.2973
20
-54.7666
11
44.2173
21
-54.7998
0
LINE
8
BLACK
6
CONTINUOUS
10
44.2173
20
-54.7998
11
44.1608
21
-54.8232
0
LINE
8
BLACK
6
CONTINUOUS
10
44.1608
20
-54.8232
11
44.0884
21
-54.8376
0
LINE
8
BLACK
6
CONTINUOUS
10
44.0884
20
-54.8376
11
44.0159
21
-54.852
0
LINE
8
BLACK
6
CONTINUOUS
10
44.0159
20
-54.852
11
43.8681
21
-54.852
0
LINE
8
BLACK
6
CONTINUOUS
10
43.8681
20
-54.852
11
43.7956
21
-54.8376
0
LINE
8
BLACK
6
CONTINUOUS
10
43.7956
20
-54.8376
11
43.7232
21
-54.8232
0
LINE
8
BLACK
6
CONTINUOUS
10
43.7232
20
-54.8232
11
43.6667
21
-54.7998
0
LINE
8
BLACK
6
CONTINUOUS
10
43.6667
20
-54.7998
11
43.5867
21
-54.7666
0
LINE
8
BLACK
6
CONTINUOUS
10
43.5867
20
-54.7666
11
43.4639
21
-54.6846
0
LINE
8
BLACK
6
CONTINUOUS
10
43.4639
20
-54.6846
11
43.3594
21
-54.5801
0
LINE
8
BLACK
6
CONTINUOUS
10
43.3594
20
-54.5801
11
43.2774
21
-54.4573
0
LINE
8
BLACK
6
CONTINUOUS
10
43.2774
20
-54.4573
11
43.2208
21
-54.3208
0
LINE
8
BLACK
6
CONTINUOUS
10
43.2208
20
-54.3208
11
43.192
21
-54.1759
0
LINE
8
BLACK
6
CONTINUOUS
10
43.192
20
-54.1759
11
43.192
21
-54.0281
0
LINE
8
BLACK
6
CONTINUOUS
10
43.192
20
-54.0281
11
43.2208
21
-53.8832
0
LINE
8
BLACK
6
CONTINUOUS
10
43.2208
20
-53.8832
11
43.2774
21
-53.7467
0
LINE
8
BLACK
6
CONTINUOUS
10
43.2774
20
-53.7467
11
43.3594
21
-53.6239
0
LINE
8
BLACK
6
CONTINUOUS
10
43.3594
20
-53.6239
11
43.4639
21
-53.5194
0
LINE
8
BLACK
6
CONTINUOUS
10
43.4639
20
-53.5194
11
43.5867
21
-53.4374
0
LINE
8
BLACK
6
CONTINUOUS
10
43.5867
20
-53.4374
11
43.6667
21
-53.4042
0
LINE
8
BLACK
6
CONTINUOUS
10
43.6667
20
-53.4042
11
43.7232
21
-53.3808
0
LINE
8
BLACK
6
CONTINUOUS
10
43.7232
20
-53.3808
11
43.7957
21
-53.3664
0
LINE
8
BLACK
6
CONTINUOUS
10
43.7957
20
-53.3664
11
43.8681
21
-53.352
0
LINE
8
BLACK
6
CONTINUOUS
10
43.8681
20
-53.352
11
44.0159
21
-53.352
0
LINE
8
BLACK
6
CONTINUOUS
10
44.0159
20
-53.352
11
44.0883
21
-53.3664
0
LINE
8
BLACK
6
CONTINUOUS
10
44.0883
20
-50.8264
11
44.1608
21
-50.8408
0
LINE
8
BLACK
6
CONTINUOUS
10
44.1608
20
-50.8408
11
44.2173
21
-50.8642
0
LINE
8
BLACK
6
CONTINUOUS
10
44.2173
20
-50.8642
11
44.2973
21
-50.8974
0
LINE
8
BLACK
6
CONTINUOUS
10
44.2973
20
-50.8974
11
44.4201
21
-50.9794
0
LINE
8
BLACK
6
CONTINUOUS
10
44.4201
20
-50.9794
11
44.5246
21
-51.0839
0
LINE
8
BLACK
6
CONTINUOUS
10
44.5246
20
-51.0839
11
44.6066
21
-51.2067
0
LINE
8
BLACK
6
CONTINUOUS
10
44.6066
20
-51.2067
11
44.6632
21
-51.3432
0
LINE
8
BLACK
6
CONTINUOUS
10
44.6632
20
-51.3432
11
44.692
21
-51.4881
0
LINE
8
BLACK
6
CONTINUOUS
10
44.692
20
-51.4881
11
44.692
21
-51.6359
0
LINE
8
BLACK
6
CONTINUOUS
10
44.692
20
-51.6359
11
44.6632
21
-51.7808
0
LINE
8
BLACK
6
CONTINUOUS
10
44.6632
20
-51.7808
11
44.6066
21
-51.9173
0
LINE
8
BLACK
6
CONTINUOUS
10
44.6066
20
-51.9173
11
44.5246
21
-52.0401
0
LINE
8
BLACK
6
CONTINUOUS
10
44.5246
20
-52.0401
11
44.4201
21
-52.1446
0
LINE
8
BLACK
6
CONTINUOUS
10
44.4201
20
-52.1446
11
44.2973
21
-52.2266
0
LINE
8
BLACK
6
CONTINUOUS
10
44.2973
20
-52.2266
11
44.2173
21
-52.2598
0
LINE
8
BLACK
6
CONTINUOUS
10
44.2173
20
-52.2598
11
44.1608
21
-52.2832
0
LINE
8
BLACK
6
CONTINUOUS
10
44.1608
20
-52.2832
11
44.0883
21
-52.2976
0
LINE
8
BLACK
6
CONTINUOUS
10
44.0883
20
-52.2976
11
44.0159
21
-52.312
0
LINE
8
BLACK
6
CONTINUOUS
10
44.0159
20
-52.312
11
43.8681
21
-52.312
0
LINE
8
BLACK
6
CONTINUOUS
10
43.8681
20
-52.312
11
43.7957
21
-52.2976
0
LINE
8
BLACK
6
CONTINUOUS
10
43.7957
20
-52.2976
11
43.7232
21
-52.2832
0
LINE
8
BLACK
6
CONTINUOUS
10
43.7232
20
-52.2832
11
43.6667
21
-52.2598
0
LINE
8
BLACK
6
CONTINUOUS
10
43.6667
20
-52.2598
11
43.5867
21
-52.2266
0
LINE
8
BLACK
6
CONTINUOUS
10
43.5867
20
-52.2266
11
43.4639
21
-52.1446
0
LINE
8
BLACK
6
CONTINUOUS
10
43.4639
20
-52.1446
11
43.3594
21
-52.0401
0
LINE
8
BLACK
6
CONTINUOUS
10
43.3594
20
-52.0401
11
43.2774
21
-51.9173
0
LINE
8
BLACK
6
CONTINUOUS
10
43.2774
20
-51.9173
11
43.2208
21
-51.7808
0
LINE
8
BLACK
6
CONTINUOUS
10
43.2208
20
-51.7808
11
43.192
21
-51.6359
0
LINE
8
BLACK
6
CONTINUOUS
10
43.192
20
-51.6359
11
43.192
21
-51.4881
0
LINE
8
BLACK
6
CONTINUOUS
10
43.192
20
-51.4881
11
43.2208
21
-51.3432
0
LINE
8
BLACK
6
CONTINUOUS
10
43.2208
20
-51.3432
11
43.2774
21
-51.2067
0
LINE
8
BLACK
6
CONTINUOUS
10
43.2774
20
-51.2067
11
43.3594
21
-51.0839
0
LINE
8
BLACK
6
CONTINUOUS
10
43.3594
20
-51.0839
11
43.4639
21
-50.9794
0
LINE
8
BLACK
6
CONTINUOUS
10
43.4639
20
-50.9794
11
43.5867
21
-50.8974
0
LINE
8
BLACK
6
CONTINUOUS
10
43.5867
20
-50.8974
11
43.6667
21
-50.8642
0
LINE
8
BLACK
6
CONTINUOUS
10
43.6667
20
-50.8642
11
43.7232
21
-50.8408
0
LINE
8
BLACK
6
CONTINUOUS
10
43.7232
20
-50.8408
11
43.7957
21
-50.8264
0
LINE
8
BLACK
6
CONTINUOUS
10
43.7957
20
-50.8264
11
43.8681
21
-50.812
0
LINE
8
BLACK
6
CONTINUOUS
10
43.8681
20
-50.812
11
44.0159
21
-50.812
0
LINE
8
BLACK
6
CONTINUOUS
10
44.0159
20
-50.812
11
44.0883
21
-50.8264
0
LINE
8
BLACK
6
CONTINUOUS
10
28.8483
20
-50.8264
11
28.9208
21
-50.8408
0
LINE
8
BLACK
6
CONTINUOUS
10
28.9208
20
-50.8408
11
28.9773
21
-50.8642
0
LINE
8
BLACK
6
CONTINUOUS
10
28.9773
20
-50.8642
11
29.0573
21
-50.8974
0
LINE
8
BLACK
6
CONTINUOUS
10
29.0573
20
-50.8974
11
29.1801
21
-50.9794
0
LINE
8
BLACK
6
CONTINUOUS
10
29.1801
20
-50.9794
11
29.2846
21
-51.0839
0
LINE
8
BLACK
6
CONTINUOUS
10
29.2846
20
-51.0839
11
29.3666
21
-51.2067
0
LINE
8
BLACK
6
CONTINUOUS
10
29.3666
20
-51.2067
11
29.4232
21
-51.3432
0
LINE
8
BLACK
6
CONTINUOUS
10
29.4232
20
-51.3432
11
29.452
21
-51.4881
0
LINE
8
BLACK
6
CONTINUOUS
10
29.452
20
-51.4881
11
29.452
21
-51.6359
0
LINE
8
BLACK
6
CONTINUOUS
10
29.452
20
-51.6359
11
29.4232
21
-51.7808
0
LINE
8
BLACK
6
CONTINUOUS
10
29.4232
20
-51.7808
11
29.3666
21
-51.9173
0
LINE
8
BLACK
6
CONTINUOUS
10
29.3666
20
-51.9173
11
29.2846
21
-52.0401
0
LINE
8
BLACK
6
CONTINUOUS
10
29.2846
20
-52.0401
11
29.1801
21
-52.1446
0
LINE
8
BLACK
6
CONTINUOUS
10
29.1801
20
-52.1446
11
29.0573
21
-52.2266
0
LINE
8
BLACK
6
CONTINUOUS
10
29.0573
20
-52.2266
11
28.9773
21
-52.2598
0
LINE
8
BLACK
6
CONTINUOUS
10
28.9773
20
-52.2598
11
28.9208
21
-52.2832
0
LINE
8
BLACK
6
CONTINUOUS
10
28.9208
20
-52.2832
11
28.8483
21
-52.2976
0
LINE
8
BLACK
6
CONTINUOUS
10
28.8483
20
-52.2976
11
28.7759
21
-52.312
0
LINE
8
BLACK
6
CONTINUOUS
10
28.7759
20
-52.312
11
28.6281
21
-52.312
0
LINE
8
BLACK
6
CONTINUOUS
10
28.6281
20
-52.312
11
28.5557
21
-52.2976
0
LINE
8
BLACK
6
CONTINUOUS
10
28.5557
20
-52.2976
11
28.4832
21
-52.2832
0
LINE
8
BLACK
6
CONTINUOUS
10
28.4832
20
-52.2832
11
28.4267
21
-52.2598
0
LINE
8
BLACK
6
CONTINUOUS
10
28.4267
20
-52.2598
11
28.3467
21
-52.2266
0
LINE
8
BLACK
6
CONTINUOUS
10
28.3467
20
-52.2266
11
28.2239
21
-52.1446
0
LINE
8
BLACK
6
CONTINUOUS
10
28.2239
20
-52.1446
11
28.1194
21
-52.0401
0
LINE
8
BLACK
6
CONTINUOUS
10
28.1194
20
-52.0401
11
28.0374
21
-51.9173
0
LINE
8
BLACK
6
CONTINUOUS
10
28.0374
20
-51.9173
11
27.9808
21
-51.7808
0
LINE
8
BLACK
6
CONTINUOUS
10
27.9808
20
-51.7808
11
27.952
21
-51.6359
0
LINE
8
BLACK
6
CONTINUOUS
10
27.952
20
-51.6359
11
27.952
21
-51.4881
0
LINE
8
BLACK
6
CONTINUOUS
10
27.952
20
-51.4881
11
27.9808
21
-51.3432
0
LINE
8
BLACK
6
CONTINUOUS
10
27.9808
20
-51.3432
11
28.0374
21
-51.2067
0
LINE
8
BLACK
6
CONTINUOUS
10
28.0374
20
-51.2067
11
28.1194
21
-51.0839
0
LINE
8
BLACK
6
CONTINUOUS
10
28.1194
20
-51.0839
11
28.2239
21
-50.9794
0
LINE
8
BLACK
6
CONTINUOUS
10
28.2239
20
-50.9794
11
28.3467
21
-50.8974
0
LINE
8
BLACK
6
CONTINUOUS
10
28.3467
20
-50.8974
11
28.4267
21
-50.8642
0
LINE
8
BLACK
6
CONTINUOUS
10
28.4267
20
-50.8642
11
28.4832
21
-50.8408
0
LINE
8
BLACK
6
CONTINUOUS
10
28.4832
20
-50.8408
11
28.5557
21
-50.8264
0
LINE
8
BLACK
6
CONTINUOUS
10
28.5557
20
-50.8264
11
28.6281
21
-50.812
0
LINE
8
BLACK
6
CONTINUOUS
10
28.6281
20
-50.812
11
28.7759
21
-50.812
0
LINE
8
BLACK
6
CONTINUOUS
10
28.7759
20
-50.812
11
28.8483
21
-50.8264
0
LINE
8
BLACK
6
CONTINUOUS
10
44.0883
20
-48.2864
11
44.1608
21
-48.3008
0
LINE
8
BLACK
6
CONTINUOUS
10
44.1608
20
-48.3008
11
44.2173
21
-48.3242
0
LINE
8
BLACK
6
CONTINUOUS
10
44.2173
20
-48.3242
11
44.2973
21
-48.3574
0
LINE
8
BLACK
6
CONTINUOUS
10
44.2973
20
-48.3574
11
44.4201
21
-48.4394
0
LINE
8
BLACK
6
CONTINUOUS
10
44.4201
20
-48.4394
11
44.5246
21
-48.5439
0
LINE
8
BLACK
6
CONTINUOUS
10
44.5246
20
-48.5439
11
44.6066
21
-48.6667
0
LINE
8
BLACK
6
CONTINUOUS
10
44.6066
20
-48.6667
11
44.6632
21
-48.8032
0
LINE
8
BLACK
6
CONTINUOUS
10
44.6632
20
-48.8032
11
44.692
21
-48.9481
0
LINE
8
BLACK
6
CONTINUOUS
10
44.692
20
-48.9481
11
44.692
21
-49.0959
0
LINE
8
BLACK
6
CONTINUOUS
10
44.692
20
-49.0959
11
44.6632
21
-49.2408
0
LINE
8
BLACK
6
CONTINUOUS
10
44.6632
20
-49.2408
11
44.6066
21
-49.3773
0
LINE
8
BLACK
6
CONTINUOUS
10
44.6066
20
-49.3773
11
44.5246
21
-49.5001
0
LINE
8
BLACK
6
CONTINUOUS
10
44.5246
20
-49.5001
11
44.4201
21
-49.6046
0
LINE
8
BLACK
6
CONTINUOUS
10
44.4201
20
-49.6046
11
44.2973
21
-49.6866
0
LINE
8
BLACK
6
CONTINUOUS
10
44.2973
20
-49.6866
11
44.2173
21
-49.7198
0
LINE
8
BLACK
6
CONTINUOUS
10
44.2173
20
-49.7198
11
44.1608
21
-49.7432
0
LINE
8
BLACK
6
CONTINUOUS
10
44.1608
20
-49.7432
11
44.0883
21
-49.7576
0
LINE
8
BLACK
6
CONTINUOUS
10
44.0883
20
-49.7576
11
44.0159
21
-49.772
0
LINE
8
BLACK
6
CONTINUOUS
10
44.0159
20
-49.772
11
43.8681
21
-49.772
0
LINE
8
BLACK
6
CONTINUOUS
10
43.8681
20
-49.772
11
43.7957
21
-49.7576
0
LINE
8
BLACK
6
CONTINUOUS
10
43.7957
20
-49.7576
11
43.7232
21
-49.7432
0
LINE
8
BLACK
6
CONTINUOUS
10
43.7232
20
-49.7432
11
43.6667
21
-49.7198
0
LINE
8
BLACK
6
CONTINUOUS
10
43.6667
20
-49.7198
11
43.5867
21
-49.6866
0
LINE
8
BLACK
6
CONTINUOUS
10
43.5867
20
-49.6866
11
43.4639
21
-49.6046
0
LINE
8
BLACK
6
CONTINUOUS
10
43.4639
20
-49.6046
11
43.3594
21
-49.5001
0
LINE
8
BLACK
6
CONTINUOUS
10
43.3594
20
-49.5001
11
43.2774
21
-49.3773
0
LINE
8
BLACK
6
CONTINUOUS
10
43.2774
20
-49.3773
11
43.2208
21
-49.2408
0
LINE
8
BLACK
6
CONTINUOUS
10
43.2208
20
-49.2408
11
43.192
21
-49.0959
0
LINE
8
BLACK
6
CONTINUOUS
10
43.192
20
-49.0959
11
43.192
21
-48.9481
0
LINE
8
BLACK
6
CONTINUOUS
10
43.192
20
-48.9481
11
43.2208
21
-48.8032
0
LINE
8
BLACK
6
CONTINUOUS
10
43.2208
20
-48.8032
11
43.2774
21
-48.6667
0
LINE
8
BLACK
6
CONTINUOUS
10
43.2774
20
-48.6667
11
43.3594
21
-48.5439
0
LINE
8
BLACK
6
CONTINUOUS
10
43.3594
20
-48.5439
11
43.4639
21
-48.4394
0
LINE
8
BLACK
6
CONTINUOUS
10
43.4639
20
-48.4394
11
43.5867
21
-48.3574
0
LINE
8
BLACK
6
CONTINUOUS
10
43.5867
20
-48.3574
11
43.6667
21
-48.3242
0
LINE
8
BLACK
6
CONTINUOUS
10
43.6667
20
-48.3242
11
43.7232
21
-48.3008
0
LINE
8
BLACK
6
CONTINUOUS
10
43.7232
20
-48.3008
11
43.7957
21
-48.2864
0
LINE
8
BLACK
6
CONTINUOUS
10
43.7957
20
-48.2864
11
43.8681
21
-48.272
0
LINE
8
BLACK
6
CONTINUOUS
10
43.8681
20
-48.272
11
44.0159
21
-48.272
0
LINE
8
BLACK
6
CONTINUOUS
10
44.0159
20
-48.272
11
44.0883
21
-48.2864
0
LINE
8
BLACK
6
CONTINUOUS
10
28.8483
20
-48.2864
11
28.9208
21
-48.3008
0
LINE
8
BLACK
6
CONTINUOUS
10
28.9208
20
-48.3008
11
28.9773
21
-48.3242
0
LINE
8
BLACK
6
CONTINUOUS
10
28.9773
20
-48.3242
11
29.0573
21
-48.3574
0
LINE
8
BLACK
6
CONTINUOUS
10
29.0573
20
-48.3574
11
29.1801
21
-48.4394
0
LINE
8
BLACK
6
CONTINUOUS
10
29.1801
20
-48.4394
11
29.2846
21
-48.5439
0
LINE
8
BLACK
6
CONTINUOUS
10
29.2846
20
-48.5439
11
29.3666
21
-48.6667
0
LINE
8
BLACK
6
CONTINUOUS
10
29.3666
20
-48.6667
11
29.4232
21
-48.8032
0
LINE
8
BLACK
6
CONTINUOUS
10
29.4232
20
-48.8032
11
29.452
21
-48.9481
0
LINE
8
BLACK
6
CONTINUOUS
10
29.452
20
-48.9481
11
29.452
21
-49.0959
0
LINE
8
BLACK
6
CONTINUOUS
10
29.452
20
-49.0959
11
29.4232
21
-49.2408
0
LINE
8
BLACK
6
CONTINUOUS
10
29.4232
20
-49.2408
11
29.3666
21
-49.3773
0
LINE
8
BLACK
6
CONTINUOUS
10
29.3666
20
-49.3773
11
29.2846
21
-49.5001
0
LINE
8
BLACK
6
CONTINUOUS
10
29.2846
20
-49.5001
11
29.1801
21
-49.6046
0
LINE
8
BLACK
6
CONTINUOUS
10
29.1801
20
-49.6046
11
29.0573
21
-49.6866
0
LINE
8
BLACK
6
CONTINUOUS
10
29.0573
20
-49.6866
11
28.9773
21
-49.7198
0
LINE
8
BLACK
6
CONTINUOUS
10
28.9773
20
-49.7198
11
28.9208
21
-49.7432
0
LINE
8
BLACK
6
CONTINUOUS
10
28.9208
20
-49.7432
11
28.8483
21
-49.7576
0
LINE
8
BLACK
6
CONTINUOUS
10
28.8483
20
-49.7576
11
28.7759
21
-49.772
0
LINE
8
BLACK
6
CONTINUOUS
10
28.7759
20
-49.772
11
28.6281
21
-49.772
0
LINE
8
BLACK
6
CONTINUOUS
10
28.6281
20
-49.772
11
28.5557
21
-49.7576
0
LINE
8
BLACK
6
CONTINUOUS
10
28.5557
20
-49.7576
11
28.4832
21
-49.7432
0
LINE
8
BLACK
6
CONTINUOUS
10
28.4832
20
-49.7432
11
28.4267
21
-49.7198
0
LINE
8
BLACK
6
CONTINUOUS
10
28.4267
20
-49.7198
11
28.3467
21
-49.6866
0
LINE
8
BLACK
6
CONTINUOUS
10
28.3467
20
-49.6866
11
28.2239
21
-49.6046
0
LINE
8
BLACK
6
CONTINUOUS
10
28.2239
20
-49.6046
11
28.1194
21
-49.5001
0
LINE
8
BLACK
6
CONTINUOUS
10
28.1194
20
-49.5001
11
28.0374
21
-49.3773
0
LINE
8
BLACK
6
CONTINUOUS
10
28.0374
20
-49.3773
11
27.9808
21
-49.2408
0
LINE
8
BLACK
6
CONTINUOUS
10
27.9808
20
-49.2408
11
27.952
21
-49.0959
0
LINE
8
BLACK
6
CONTINUOUS
10
27.952
20
-49.0959
11
27.952
21
-48.9481
0
LINE
8
BLACK
6
CONTINUOUS
10
27.952
20
-48.9481
11
27.9808
21
-48.8032
0
LINE
8
BLACK
6
CONTINUOUS
10
27.9808
20
-48.8032
11
28.0374
21
-48.6667
0
LINE
8
BLACK
6
CONTINUOUS
10
28.0374
20
-48.6667
11
28.1194
21
-48.5439
0
LINE
8
BLACK
6
CONTINUOUS
10
28.1194
20
-48.5439
11
28.2239
21
-48.4394
0
LINE
8
BLACK
6
CONTINUOUS
10
28.2239
20
-48.4394
11
28.3467
21
-48.3574
0
LINE
8
BLACK
6
CONTINUOUS
10
28.3467
20
-48.3574
11
28.4267
21
-48.3242
0
LINE
8
BLACK
6
CONTINUOUS
10
28.4267
20
-48.3242
11
28.4832
21
-48.3008
0
LINE
8
BLACK
6
CONTINUOUS
10
28.4832
20
-48.3008
11
28.5557
21
-48.2864
0
LINE
8
BLACK
6
CONTINUOUS
10
28.5557
20
-48.2864
11
28.6281
21
-48.272
0
LINE
8
BLACK
6
CONTINUOUS
10
28.6281
20
-48.272
11
28.7759
21
-48.272
0
LINE
8
BLACK
6
CONTINUOUS
10
28.7759
20
-48.272
11
28.8483
21
-48.2864
0
LINE
8
BLACK
6
CONTINUOUS
10
41.6354
20
-46.9827
11
41.7809
21
-47.043
0
LINE
8
BLACK
6
CONTINUOUS
10
41.7809
20
-47.043
11
41.912
21
-47.1306
0
LINE
8
BLACK
6
CONTINUOUS
10
41.912
20
-47.1306
11
42.0234
21
-47.242
0
LINE
8
BLACK
6
CONTINUOUS
10
42.0234
20
-47.242
11
42.111
21
-47.3731
0
LINE
8
BLACK
6
CONTINUOUS
10
42.111
20
-47.3731
11
42.1713
21
-47.5186
0
LINE
8
BLACK
6
CONTINUOUS
10
42.1713
20
-47.5186
11
42.202
21
-47.6732
0
LINE
8
BLACK
6
CONTINUOUS
10
42.202
20
-47.6732
11
42.202
21
-47.8308
0
LINE
8
BLACK
6
CONTINUOUS
10
42.202
20
-47.8308
11
42.1713
21
-47.9854
0
LINE
8
BLACK
6
CONTINUOUS
10
42.1713
20
-47.9854
11
42.111
21
-48.1309
0
LINE
8
BLACK
6
CONTINUOUS
10
42.111
20
-48.1309
11
42.0234
21
-48.262
0
LINE
8
BLACK
6
CONTINUOUS
10
42.0234
20
-48.262
11
41.912
21
-48.3734
0
LINE
8
BLACK
6
CONTINUOUS
10
41.912
20
-48.3734
11
41.7809
21
-48.461
0
LINE
8
BLACK
6
CONTINUOUS
10
41.7809
20
-48.461
11
41.6354
21
-48.5213
0
LINE
8
BLACK
6
CONTINUOUS
10
41.6354
20
-48.5213
11
41.4808
21
-48.552
0
LINE
8
BLACK
6
CONTINUOUS
10
41.4808
20
-48.552
11
41.3232
21
-48.552
0
LINE
8
BLACK
6
CONTINUOUS
10
41.3232
20
-48.552
11
41.1686
21
-48.5213
0
LINE
8
BLACK
6
CONTINUOUS
10
41.1686
20
-48.5213
11
41.0231
21
-48.461
0
LINE
8
BLACK
6
CONTINUOUS
10
41.0231
20
-48.461
11
40.892
21
-48.3734
0
LINE
8
BLACK
6
CONTINUOUS
10
40.892
20
-48.3734
11
40.7806
21
-48.262
0
LINE
8
BLACK
6
CONTINUOUS
10
40.7806
20
-48.262
11
40.693
21
-48.1309
0
LINE
8
BLACK
6
CONTINUOUS
10
40.693
20
-48.1309
11
40.6327
21
-47.9854
0
LINE
8
BLACK
6
CONTINUOUS
10
40.6327
20
-47.9854
11
40.602
21
-47.8308
0
LINE
8
BLACK
6
CONTINUOUS
10
40.602
20
-47.8308
11
40.602
21
-47.6732
0
LINE
8
BLACK
6
CONTINUOUS
10
40.602
20
-47.6732
11
40.6327
21
-47.5186
0
LINE
8
BLACK
6
CONTINUOUS
10
40.6327
20
-47.5186
11
40.693
21
-47.3731
0
LINE
8
BLACK
6
CONTINUOUS
10
40.693
20
-47.3731
11
40.7806
21
-47.242
0
LINE
8
BLACK
6
CONTINUOUS
10
40.7806
20
-47.242
11
40.892
21
-47.1306
0
LINE
8
BLACK
6
CONTINUOUS
10
40.892
20
-47.1306
11
41.0231
21
-47.043
0
LINE
8
BLACK
6
CONTINUOUS
10
41.0231
20
-47.043
11
41.1686
21
-46.9827
0
LINE
8
BLACK
6
CONTINUOUS
10
41.1686
20
-46.9827
11
41.3232
21
-46.952
0
LINE
8
BLACK
6
CONTINUOUS
10
41.3232
20
-46.952
11
41.4808
21
-46.952
0
LINE
8
BLACK
6
CONTINUOUS
10
41.4808
20
-46.952
11
41.6354
21
-46.9827
0
LINE
8
BLACK
6
CONTINUOUS
10
44.0883
20
-45.7464
11
44.1608
21
-45.7608
0
LINE
8
BLACK
6
CONTINUOUS
10
44.1608
20
-45.7608
11
44.2173
21
-45.7842
0
LINE
8
BLACK
6
CONTINUOUS
10
44.2173
20
-45.7842
11
44.2973
21
-45.8174
0
LINE
8
BLACK
6
CONTINUOUS
10
44.2973
20
-45.8174
11
44.4201
21
-45.8994
0
LINE
8
BLACK
6
CONTINUOUS
10
44.4201
20
-45.8994
11
44.5246
21
-46.0039
0
LINE
8
BLACK
6
CONTINUOUS
10
44.5246
20
-46.0039
11
44.6066
21
-46.1267
0
LINE
8
BLACK
6
CONTINUOUS
10
44.6066
20
-46.1267
11
44.6632
21
-46.2632
0
LINE
8
BLACK
6
CONTINUOUS
10
44.6632
20
-46.2632
11
44.692
21
-46.4081
0
LINE
8
BLACK
6
CONTINUOUS
10
44.692
20
-46.4081
11
44.692
21
-46.5559
0
LINE
8
BLACK
6
CONTINUOUS
10
44.692
20
-46.5559
11
44.6632
21
-46.7008
0
LINE
8
BLACK
6
CONTINUOUS
10
44.6632
20
-46.7008
11
44.6066
21
-46.8373
0
LINE
8
BLACK
6
CONTINUOUS
10
44.6066
20
-46.8373
11
44.5246
21
-46.9601
0
LINE
8
BLACK
6
CONTINUOUS
10
44.5246
20
-46.9601
11
44.4201
21
-47.0646
0
LINE
8
BLACK
6
CONTINUOUS
10
44.4201
20
-47.0646
11
44.2973
21
-47.1466
0
LINE
8
BLACK
6
CONTINUOUS
10
44.2973
20
-47.1466
11
44.2173
21
-47.1798
0
LINE
8
BLACK
6
CONTINUOUS
10
44.2173
20
-47.1798
11
44.1608
21
-47.2032
0
LINE
8
BLACK
6
CONTINUOUS
10
44.1608
20
-47.2032
11
44.0883
21
-47.2176
0
LINE
8
BLACK
6
CONTINUOUS
10
44.0883
20
-47.2176
11
44.0159
21
-47.232
0
LINE
8
BLACK
6
CONTINUOUS
10
44.0159
20
-47.232
11
43.8681
21
-47.232
0
LINE
8
BLACK
6
CONTINUOUS
10
43.8681
20
-47.232
11
43.7957
21
-47.2176
0
LINE
8
BLACK
6
CONTINUOUS
10
43.7957
20
-47.2176
11
43.7232
21
-47.2032
0
LINE
8
BLACK
6
CONTINUOUS
10
43.7232
20
-47.2032
11
43.6667
21
-47.1798
0
LINE
8
BLACK
6
CONTINUOUS
10
43.6667
20
-47.1798
11
43.5867
21
-47.1466
0
LINE
8
BLACK
6
CONTINUOUS
10
43.5867
20
-47.1466
11
43.4639
21
-47.0646
0
LINE
8
BLACK
6
CONTINUOUS
10
43.4639
20
-47.0646
11
43.3594
21
-46.9601
0
LINE
8
BLACK
6
CONTINUOUS
10
43.3594
20
-46.9601
11
43.2774
21
-46.8373
0
LINE
8
BLACK
6
CONTINUOUS
10
43.2774
20
-46.8373
11
43.2208
21
-46.7008
0
LINE
8
BLACK
6
CONTINUOUS
10
43.2208
20
-46.7008
11
43.192
21
-46.5559
0
LINE
8
BLACK
6
CONTINUOUS
10
43.192
20
-46.5559
11
43.192
21
-46.4081
0
LINE
8
BLACK
6
CONTINUOUS
10
43.192
20
-46.4081
11
43.2208
21
-46.2632
0
LINE
8
BLACK
6
CONTINUOUS
10
43.2208
20
-46.2632
11
43.2774
21
-46.1267
0
LINE
8
BLACK
6
CONTINUOUS
10
43.2774
20
-46.1267
11
43.3594
21
-46.0039
0
LINE
8
BLACK
6
CONTINUOUS
10
43.3594
20
-46.0039
11
43.4639
21
-45.8994
0
LINE
8
BLACK
6
CONTINUOUS
10
43.4639
20
-45.8994
11
43.5867
21
-45.8174
0
LINE
8
BLACK
6
CONTINUOUS
10
43.5867
20
-45.8174
11
43.6667
21
-45.7842
0
LINE
8
BLACK
6
CONTINUOUS
10
43.6667
20
-45.7842
11
43.7232
21
-45.7608
0
LINE
8
BLACK
6
CONTINUOUS
10
43.7232
20
-45.7608
11
43.7957
21
-45.7464
0
LINE
8
BLACK
6
CONTINUOUS
10
43.7957
20
-45.7464
11
43.8681
21
-45.732
0
LINE
8
BLACK
6
CONTINUOUS
10
43.8681
20
-45.732
11
44.0159
21
-45.732
0
LINE
8
BLACK
6
CONTINUOUS
10
44.0159
20
-45.732
11
44.0883
21
-45.7464
0
LINE
8
BLACK
6
CONTINUOUS
10
28.8483
20
-45.7464
11
28.9208
21
-45.7608
0
LINE
8
BLACK
6
CONTINUOUS
10
28.9208
20
-45.7608
11
28.9773
21
-45.7842
0
LINE
8
BLACK
6
CONTINUOUS
10
28.9773
20
-45.7842
11
29.0573
21
-45.8174
0
LINE
8
BLACK
6
CONTINUOUS
10
29.0573
20
-45.8174
11
29.1801
21
-45.8994
0
LINE
8
BLACK
6
CONTINUOUS
10
29.1801
20
-45.8994
11
29.2846
21
-46.0039
0
LINE
8
BLACK
6
CONTINUOUS
10
29.2846
20
-46.0039
11
29.3666
21
-46.1267
0
LINE
8
BLACK
6
CONTINUOUS
10
29.3666
20
-46.1267
11
29.4232
21
-46.2632
0
LINE
8
BLACK
6
CONTINUOUS
10
29.4232
20
-46.2632
11
29.452
21
-46.4081
0
LINE
8
BLACK
6
CONTINUOUS
10
29.452
20
-46.4081
11
29.452
21
-46.5559
0
LINE
8
BLACK
6
CONTINUOUS
10
29.452
20
-46.5559
11
29.4232
21
-46.7008
0
LINE
8
BLACK
6
CONTINUOUS
10
29.4232
20
-46.7008
11
29.3666
21
-46.8373
0
LINE
8
BLACK
6
CONTINUOUS
10
29.3666
20
-46.8373
11
29.2846
21
-46.9601
0
LINE
8
BLACK
6
CONTINUOUS
10
29.2846
20
-46.9601
11
29.1801
21
-47.0646
0
LINE
8
BLACK
6
CONTINUOUS
10
29.1801
20
-47.0646
11
29.0573
21
-47.1466
0
LINE
8
BLACK
6
CONTINUOUS
10
29.0573
20
-47.1466
11
28.9773
21
-47.1798
0
LINE
8
BLACK
6
CONTINUOUS
10
28.9773
20
-47.1798
11
28.9208
21
-47.2032
0
LINE
8
BLACK
6
CONTINUOUS
10
28.9208
20
-47.2032
11
28.8483
21
-47.2176
0
LINE
8
BLACK
6
CONTINUOUS
10
28.8483
20
-47.2176
11
28.7759
21
-47.232
0
LINE
8
BLACK
6
CONTINUOUS
10
28.7759
20
-47.232
11
28.6281
21
-47.232
0
LINE
8
BLACK
6
CONTINUOUS
10
28.6281
20
-47.232
11
28.5557
21
-47.2176
0
LINE
8
BLACK
6
CONTINUOUS
10
28.5557
20
-47.2176
11
28.4832
21
-47.2032
0
LINE
8
BLACK
6
CONTINUOUS
10
28.4832
20
-47.2032
11
28.4267
21
-47.1798
0
LINE
8
BLACK
6
CONTINUOUS
10
28.4267
20
-47.1798
11
28.3467
21
-47.1466
0
LINE
8
BLACK
6
CONTINUOUS
10
28.3467
20
-47.1466
11
28.2239
21
-47.0646
0
LINE
8
BLACK
6
CONTINUOUS
10
28.2239
20
-47.0646
11
28.1194
21
-46.9601
0
LINE
8
BLACK
6
CONTINUOUS
10
28.1194
20
-46.9601
11
28.0374
21
-46.8373
0
LINE
8
BLACK
6
CONTINUOUS
10
28.0374
20
-46.8373
11
27.9808
21
-46.7008
0
LINE
8
BLACK
6
CONTINUOUS
10
27.9808
20
-46.7008
11
27.952
21
-46.5559
0
LINE
8
BLACK
6
CONTINUOUS
10
27.952
20
-46.5559
11
27.952
21
-46.4081
0
LINE
8
BLACK
6
CONTINUOUS
10
27.952
20
-46.4081
11
27.9808
21
-46.2632
0
LINE
8
BLACK
6
CONTINUOUS
10
27.9808
20
-46.2632
11
28.0374
21
-46.1267
0
LINE
8
BLACK
6
CONTINUOUS
10
28.0374
20
-46.1267
11
28.1194
21
-46.0039
0
LINE
8
BLACK
6
CONTINUOUS
10
28.1194
20
-46.0039
11
28.2239
21
-45.8994
0
LINE
8
BLACK
6
CONTINUOUS
10
28.2239
20
-45.8994
11
28.3467
21
-45.8174
0
LINE
8
BLACK
6
CONTINUOUS
10
28.3467
20
-45.8174
11
28.4267
21
-45.7842
0
LINE
8
BLACK
6
CONTINUOUS
10
28.4267
20
-45.7842
11
28.4832
21
-45.7608
0
LINE
8
BLACK
6
CONTINUOUS
10
28.4832
20
-45.7608
11
28.5557
21
-45.7464
0
LINE
8
BLACK
6
CONTINUOUS
10
28.5557
20
-45.7464
11
28.6281
21
-45.732
0
LINE
8
BLACK
6
CONTINUOUS
10
28.6281
20
-45.732
11
28.7759
21
-45.732
0
LINE
8
BLACK
6
CONTINUOUS
10
28.7759
20
-45.732
11
28.8483
21
-45.7464
0
LINE
8
BLACK
6
CONTINUOUS
10
31.7294
20
-44.6967
11
31.8749
21
-44.757
0
LINE
8
BLACK
6
CONTINUOUS
10
31.8749
20
-44.757
11
32.006
21
-44.8446
0
LINE
8
BLACK
6
CONTINUOUS
10
32.006
20
-44.8446
11
32.1174
21
-44.956
0
LINE
8
BLACK
6
CONTINUOUS
10
32.1174
20
-44.956
11
32.205
21
-45.0871
0
LINE
8
BLACK
6
CONTINUOUS
10
32.205
20
-45.0871
11
32.2653
21
-45.2326
0
LINE
8
BLACK
6
CONTINUOUS
10
32.2653
20
-45.2326
11
32.296
21
-45.3872
0
LINE
8
BLACK
6
CONTINUOUS
10
32.296
20
-45.3872
11
32.296
21
-45.5448
0
LINE
8
BLACK
6
CONTINUOUS
10
32.296
20
-45.5448
11
32.2653
21
-45.6994
0
LINE
8
BLACK
6
CONTINUOUS
10
32.2653
20
-45.6994
11
32.205
21
-45.8449
0
LINE
8
BLACK
6
CONTINUOUS
10
32.205
20
-45.8449
11
32.1174
21
-45.976
0
LINE
8
BLACK
6
CONTINUOUS
10
32.1174
20
-45.976
11
32.006
21
-46.0874
0
LINE
8
BLACK
6
CONTINUOUS
10
32.006
20
-46.0874
11
31.8749
21
-46.175
0
LINE
8
BLACK
6
CONTINUOUS
10
31.8749
20
-46.175
11
31.7294
21
-46.2353
0
LINE
8
BLACK
6
CONTINUOUS
10
31.7294
20
-46.2353
11
31.5748
21
-46.266
0
LINE
8
BLACK
6
CONTINUOUS
10
31.5748
20
-46.266
11
31.4172
21
-46.266
0
LINE
8
BLACK
6
CONTINUOUS
10
31.4172
20
-46.266
11
31.2626
21
-46.2353
0
LINE
8
BLACK
6
CONTINUOUS
10
31.2626
20
-46.2353
11
31.1171
21
-46.175
0
LINE
8
BLACK
6
CONTINUOUS
10
31.1171
20
-46.175
11
30.986
21
-46.0874
0
LINE
8
BLACK
6
CONTINUOUS
10
30.986
20
-46.0874
11
30.8746
21
-45.976
0
LINE
8
BLACK
6
CONTINUOUS
10
30.8746
20
-45.976
11
30.787
21
-45.8449
0
LINE
8
BLACK
6
CONTINUOUS
10
30.787
20
-45.8449
11
30.7267
21
-45.6994
0
LINE
8
BLACK
6
CONTINUOUS
10
30.7267
20
-45.6994
11
30.696
21
-45.5448
0
LINE
8
BLACK
6
CONTINUOUS
10
30.696
20
-45.5448
11
30.696
21
-45.3872
0
LINE
8
BLACK
6
CONTINUOUS
10
30.696
20
-45.3872
11
30.7267
21
-45.2326
0
LINE
8
BLACK
6
CONTINUOUS
10
30.7267
20
-45.2326
11
30.787
21
-45.0871
0
LINE
8
BLACK
6
CONTINUOUS
10
30.787
20
-45.0871
11
30.8746
21
-44.956
0
LINE
8
BLACK
6
CONTINUOUS
10
30.8746
20
-44.956
11
30.986
21
-44.8446
0
LINE
8
BLACK
6
CONTINUOUS
10
30.986
20
-44.8446
11
31.1171
21
-44.757
0
LINE
8
BLACK
6
CONTINUOUS
10
31.1171
20
-44.757
11
31.2626
21
-44.6967
0
LINE
8
BLACK
6
CONTINUOUS
10
31.2626
20
-44.6967
11
31.4172
21
-44.666
0
LINE
8
BLACK
6
CONTINUOUS
10
31.4172
20
-44.666
11
31.5748
21
-44.666
0
LINE
8
BLACK
6
CONTINUOUS
10
31.5748
20
-44.666
11
31.7294
21
-44.6967
0
LINE
8
BLACK
6
CONTINUOUS
10
44.0883
20
-43.2064
11
44.1608
21
-43.2208
0
LINE
8
BLACK
6
CONTINUOUS
10
44.1608
20
-43.2208
11
44.2173
21
-43.2442
0
LINE
8
BLACK
6
CONTINUOUS
10
44.2173
20
-43.2442
11
44.2973
21
-43.2774
0
LINE
8
BLACK
6
CONTINUOUS
10
44.2973
20
-43.2774
11
44.4201
21
-43.3594
0
LINE
8
BLACK
6
CONTINUOUS
10
44.4201
20
-43.3594
11
44.5246
21
-43.4639
0
LINE
8
BLACK
6
CONTINUOUS
10
44.5246
20
-43.4639
11
44.6066
21
-43.5867
0
LINE
8
BLACK
6
CONTINUOUS
10
44.6066
20
-43.5867
11
44.6632
21
-43.7232
0
LINE
8
BLACK
6
CONTINUOUS
10
44.6632
20
-43.7232
11
44.692
21
-43.8681
0
LINE
8
BLACK
6
CONTINUOUS
10
44.692
20
-43.8681
11
44.692
21
-44.0159
0
LINE
8
BLACK
6
CONTINUOUS
10
44.692
20
-44.0159
11
44.6632
21
-44.1608
0
LINE
8
BLACK
6
CONTINUOUS
10
44.6632
20
-44.1608
11
44.6066
21
-44.2973
0
LINE
8
BLACK
6
CONTINUOUS
10
44.6066
20
-44.2973
11
44.5246
21
-44.4201
0
LINE
8
BLACK
6
CONTINUOUS
10
44.5246
20
-44.4201
11
44.4201
21
-44.5246
0
LINE
8
BLACK
6
CONTINUOUS
10
44.4201
20
-44.5246
11
44.2973
21
-44.6066
0
LINE
8
BLACK
6
CONTINUOUS
10
44.2973
20
-44.6066
11
44.2173
21
-44.6398
0
LINE
8
BLACK
6
CONTINUOUS
10
44.2173
20
-44.6398
11
44.1608
21
-44.6632
0
LINE
8
BLACK
6
CONTINUOUS
10
44.1608
20
-44.6632
11
44.0883
21
-44.6776
0
LINE
8
BLACK
6
CONTINUOUS
10
44.0883
20
-44.6776
11
44.0159
21
-44.692
0
LINE
8
BLACK
6
CONTINUOUS
10
44.0159
20
-44.692
11
43.8681
21
-44.692
0
LINE
8
BLACK
6
CONTINUOUS
10
43.8681
20
-44.692
11
43.7957
21
-44.6776
0
LINE
8
BLACK
6
CONTINUOUS
10
43.7957
20
-44.6776
11
43.7232
21
-44.6632
0
LINE
8
BLACK
6
CONTINUOUS
10
43.7232
20
-44.6632
11
43.6667
21
-44.6398
0
LINE
8
BLACK
6
CONTINUOUS
10
43.6667
20
-44.6398
11
43.5867
21
-44.6066
0
LINE
8
BLACK
6
CONTINUOUS
10
43.5867
20
-44.6066
11
43.4639
21
-44.5246
0
LINE
8
BLACK
6
CONTINUOUS
10
43.4639
20
-44.5246
11
43.3594
21
-44.4201
0
LINE
8
BLACK
6
CONTINUOUS
10
43.3594
20
-44.4201
11
43.2774
21
-44.2973
0
LINE
8
BLACK
6
CONTINUOUS
10
43.2774
20
-44.2973
11
43.2208
21
-44.1608
0
LINE
8
BLACK
6
CONTINUOUS
10
43.2208
20
-44.1608
11
43.192
21
-44.0159
0
LINE
8
BLACK
6
CONTINUOUS
10
43.192
20
-44.0159
11
43.192
21
-43.8681
0
LINE
8
BLACK
6
CONTINUOUS
10
43.192
20
-43.8681
11
43.2208
21
-43.7232
0
LINE
8
BLACK
6
CONTINUOUS
10
43.2208
20
-43.7232
11
43.2774
21
-43.5867
0
LINE
8
BLACK
6
CONTINUOUS
10
43.2774
20
-43.5867
11
43.3594
21
-43.4639
0
LINE
8
BLACK
6
CONTINUOUS
10
43.3594
20
-43.4639
11
43.4639
21
-43.3594
0
LINE
8
BLACK
6
CONTINUOUS
10
43.4639
20
-43.3594
11
43.5867
21
-43.2774
0
LINE
8
BLACK
6
CONTINUOUS
10
43.5867
20
-43.2774
11
43.6667
21
-43.2442
0
LINE
8
BLACK
6
CONTINUOUS
10
43.6667
20
-43.2442
11
43.7232
21
-43.2208
0
LINE
8
BLACK
6
CONTINUOUS
10
43.7232
20
-43.2208
11
43.7957
21
-43.2064
0
LINE
8
BLACK
6
CONTINUOUS
10
43.7957
20
-43.2064
11
43.8681
21
-43.192
0
LINE
8
BLACK
6
CONTINUOUS
10
43.8681
20
-43.192
11
44.0159
21
-43.192
0
LINE
8
BLACK
6
CONTINUOUS
10
44.0159
20
-43.192
11
44.0883
21
-43.2064
0
LINE
8
BLACK
6
CONTINUOUS
10
28.8483
20
-43.2064
11
28.9208
21
-43.2208
0
LINE
8
BLACK
6
CONTINUOUS
10
28.9208
20
-43.2208
11
28.9773
21
-43.2442
0
LINE
8
BLACK
6
CONTINUOUS
10
28.9773
20
-43.2442
11
29.0573
21
-43.2774
0
LINE
8
BLACK
6
CONTINUOUS
10
29.0573
20
-43.2774
11
29.1801
21
-43.3594
0
LINE
8
BLACK
6
CONTINUOUS
10
29.1801
20
-43.3594
11
29.2846
21
-43.4639
0
LINE
8
BLACK
6
CONTINUOUS
10
29.2846
20
-43.4639
11
29.3666
21
-43.5867
0
LINE
8
BLACK
6
CONTINUOUS
10
29.3666
20
-43.5867
11
29.4232
21
-43.7232
0
LINE
8
BLACK
6
CONTINUOUS
10
29.4232
20
-43.7232
11
29.452
21
-43.8681
0
LINE
8
BLACK
6
CONTINUOUS
10
29.452
20
-43.8681
11
29.452
21
-44.0159
0
LINE
8
BLACK
6
CONTINUOUS
10
29.452
20
-44.0159
11
29.4232
21
-44.1608
0
LINE
8
BLACK
6
CONTINUOUS
10
29.4232
20
-44.1608
11
29.3666
21
-44.2973
0
LINE
8
BLACK
6
CONTINUOUS
10
29.3666
20
-44.2973
11
29.2846
21
-44.4201
0
LINE
8
BLACK
6
CONTINUOUS
10
29.2846
20
-44.4201
11
29.1801
21
-44.5246
0
LINE
8
BLACK
6
CONTINUOUS
10
29.1801
20
-44.5246
11
29.0573
21
-44.6066
0
LINE
8
BLACK
6
CONTINUOUS
10
29.0573
20
-44.6066
11
28.9773
21
-44.6398
0
LINE
8
BLACK
6
CONTINUOUS
10
28.9773
20
-44.6398
11
28.9208
21
-44.6632
0
LINE
8
BLACK
6
CONTINUOUS
10
28.9208
20
-44.6632
11
28.8483
21
-44.6776
0
LINE
8
BLACK
6
CONTINUOUS
10
28.8483
20
-44.6776
11
28.7759
21
-44.692
0
LINE
8
BLACK
6
CONTINUOUS
10
28.7759
20
-44.692
11
28.6281
21
-44.692
0
LINE
8
BLACK
6
CONTINUOUS
10
28.6281
20
-44.692
11
28.5557
21
-44.6776
0
LINE
8
BLACK
6
CONTINUOUS
10
28.5557
20
-44.6776
11
28.4832
21
-44.6632
0
LINE
8
BLACK
6
CONTINUOUS
10
28.4832
20
-44.6632
11
28.4267
21
-44.6398
0
LINE
8
BLACK
6
CONTINUOUS
10
28.4267
20
-44.6398
11
28.3467
21
-44.6066
0
LINE
8
BLACK
6
CONTINUOUS
10
28.3467
20
-44.6066
11
28.2239
21
-44.5246
0
LINE
8
BLACK
6
CONTINUOUS
10
28.2239
20
-44.5246
11
28.1194
21
-44.4201
0
LINE
8
BLACK
6
CONTINUOUS
10
28.1194
20
-44.4201
11
28.0374
21
-44.2973
0
LINE
8
BLACK
6
CONTINUOUS
10
28.0374
20
-44.2973
11
27.9808
21
-44.1608
0
LINE
8
BLACK
6
CONTINUOUS
10
27.9808
20
-44.1608
11
27.952
21
-44.0159
0
LINE
8
BLACK
6
CONTINUOUS
10
27.952
20
-44.0159
11
27.952
21
-43.8681
0
LINE
8
BLACK
6
CONTINUOUS
10
27.952
20
-43.8681
11
27.9808
21
-43.7232
0
LINE
8
BLACK
6
CONTINUOUS
10
27.9808
20
-43.7232
11
28.0374
21
-43.5867
0
LINE
8
BLACK
6
CONTINUOUS
10
28.0374
20
-43.5867
11
28.1194
21
-43.4639
0
LINE
8
BLACK
6
CONTINUOUS
10
28.1194
20
-43.4639
11
28.2239
21
-43.3594
0
LINE
8
BLACK
6
CONTINUOUS
10
28.2239
20
-43.3594
11
28.3467
21
-43.2774
0
LINE
8
BLACK
6
CONTINUOUS
10
28.3467
20
-43.2774
11
28.4267
21
-43.2442
0
LINE
8
BLACK
6
CONTINUOUS
10
28.4267
20
-43.2442
11
28.4832
21
-43.2208
0
LINE
8
BLACK
6
CONTINUOUS
10
28.4832
20
-43.2208
11
28.5557
21
-43.2064
0
LINE
8
BLACK
6
CONTINUOUS
10
28.5557
20
-43.2064
11
28.6281
21
-43.192
0
LINE
8
BLACK
6
CONTINUOUS
10
28.6281
20
-43.192
11
28.7759
21
-43.192
0
LINE
8
BLACK
6
CONTINUOUS
10
28.7759
20
-43.192
11
28.8483
21
-43.2064
0
LINE
8
BLACK
6
CONTINUOUS
10
28.8483
20
-40.6664
11
28.9208
21
-40.6808
0
LINE
8
BLACK
6
CONTINUOUS
10
28.9208
20
-40.6808
11
28.9773
21
-40.7042
0
LINE
8
BLACK
6
CONTINUOUS
10
28.9773
20
-40.7042
11
29.0573
21
-40.7374
0
LINE
8
BLACK
6
CONTINUOUS
10
29.0573
20
-40.7374
11
29.1801
21
-40.8194
0
LINE
8
BLACK
6
CONTINUOUS
10
29.1801
20
-40.8194
11
29.2846
21
-40.9239
0
LINE
8
BLACK
6
CONTINUOUS
10
29.2846
20
-40.9239
11
29.3666
21
-41.0467
0
LINE
8
BLACK
6
CONTINUOUS
10
29.3666
20
-41.0467
11
29.4232
21
-41.1832
0
LINE
8
BLACK
6
CONTINUOUS
10
29.4232
20
-41.1832
11
29.452
21
-41.3281
0
LINE
8
BLACK
6
CONTINUOUS
10
29.452
20
-41.3281
11
29.452
21
-41.4759
0
LINE
8
BLACK
6
CONTINUOUS
10
29.452
20
-41.4759
11
29.4232
21
-41.6208
0
LINE
8
BLACK
6
CONTINUOUS
10
29.4232
20
-41.6208
11
29.3666
21
-41.7573
0
LINE
8
BLACK
6
CONTINUOUS
10
29.3666
20
-41.7573
11
29.2846
21
-41.8801
0
LINE
8
BLACK
6
CONTINUOUS
10
29.2846
20
-41.8801
11
29.1801
21
-41.9846
0
LINE
8
BLACK
6
CONTINUOUS
10
29.1801
20
-41.9846
11
29.0573
21
-42.0666
0
LINE
8
BLACK
6
CONTINUOUS
10
29.0573
20
-42.0666
11
28.9773
21
-42.0998
0
LINE
8
BLACK
6
CONTINUOUS
10
28.9773
20
-42.0998
11
28.9208
21
-42.1232
0
LINE
8
BLACK
6
CONTINUOUS
10
28.9208
20
-42.1232
11
28.8483
21
-42.1376
0
LINE
8
BLACK
6
CONTINUOUS
10
28.8483
20
-42.1376
11
28.7759
21
-42.152
0
LINE
8
BLACK
6
CONTINUOUS
10
28.7759
20
-42.152
11
28.6281
21
-42.152
0
LINE
8
BLACK
6
CONTINUOUS
10
28.6281
20
-42.152
11
28.5557
21
-42.1376
0
LINE
8
BLACK
6
CONTINUOUS
10
28.5557
20
-42.1376
11
28.4832
21
-42.1232
0
LINE
8
BLACK
6
CONTINUOUS
10
28.4832
20
-42.1232
11
28.4267
21
-42.0998
0
LINE
8
BLACK
6
CONTINUOUS
10
28.4267
20
-42.0998
11
28.3467
21
-42.0666
0
LINE
8
BLACK
6
CONTINUOUS
10
28.3467
20
-42.0666
11
28.2239
21
-41.9846
0
LINE
8
BLACK
6
CONTINUOUS
10
28.2239
20
-41.9846
11
28.1194
21
-41.8801
0
LINE
8
BLACK
6
CONTINUOUS
10
28.1194
20
-41.8801
11
28.0374
21
-41.7573
0
LINE
8
BLACK
6
CONTINUOUS
10
28.0374
20
-41.7573
11
27.9808
21
-41.6208
0
LINE
8
BLACK
6
CONTINUOUS
10
27.9808
20
-41.6208
11
27.952
21
-41.4759
0
LINE
8
BLACK
6
CONTINUOUS
10
27.952
20
-41.4759
11
27.952
21
-41.3281
0
LINE
8
BLACK
6
CONTINUOUS
10
27.952
20
-41.3281
11
27.9808
21
-41.1832
0
LINE
8
BLACK
6
CONTINUOUS
10
27.9808
20
-41.1832
11
28.0374
21
-41.0467
0
LINE
8
BLACK
6
CONTINUOUS
10
28.0374
20
-41.0467
11
28.1194
21
-40.9239
0
LINE
8
BLACK
6
CONTINUOUS
10
28.1194
20
-40.9239
11
28.2239
21
-40.8194
0
LINE
8
BLACK
6
CONTINUOUS
10
28.2239
20
-40.8194
11
28.3467
21
-40.7374
0
LINE
8
BLACK
6
CONTINUOUS
10
28.3467
20
-40.7374
11
28.4267
21
-40.7042
0
LINE
8
BLACK
6
CONTINUOUS
10
28.4267
20
-40.7042
11
28.4832
21
-40.6808
0
LINE
8
BLACK
6
CONTINUOUS
10
28.4832
20
-40.6808
11
28.5557
21
-40.6664
0
LINE
8
BLACK
6
CONTINUOUS
10
28.5557
20
-40.6664
11
28.6281
21
-40.652
0
LINE
8
BLACK
6
CONTINUOUS
10
28.6281
20
-40.652
11
28.7759
21
-40.652
0
LINE
8
BLACK
6
CONTINUOUS
10
28.7759
20
-40.652
11
28.8483
21
-40.6664
0
LINE
8
BLACK
6
CONTINUOUS
10
44.0883
20
-40.6664
11
44.1608
21
-40.6808
0
LINE
8
BLACK
6
CONTINUOUS
10
44.1608
20
-40.6808
11
44.2173
21
-40.7042
0
LINE
8
BLACK
6
CONTINUOUS
10
44.2173
20
-40.7042
11
44.2973
21
-40.7374
0
LINE
8
BLACK
6
CONTINUOUS
10
44.2973
20
-40.7374
11
44.4201
21
-40.8194
0
LINE
8
BLACK
6
CONTINUOUS
10
44.4201
20
-40.8194
11
44.5246
21
-40.9239
0
LINE
8
BLACK
6
CONTINUOUS
10
44.5246
20
-40.9239
11
44.6066
21
-41.0467
0
LINE
8
BLACK
6
CONTINUOUS
10
44.6066
20
-41.0467
11
44.6632
21
-41.1832
0
LINE
8
BLACK
6
CONTINUOUS
10
44.6632
20
-41.1832
11
44.692
21
-41.3281
0
LINE
8
BLACK
6
CONTINUOUS
10
44.692
20
-41.3281
11
44.692
21
-41.4759
0
LINE
8
BLACK
6
CONTINUOUS
10
44.692
20
-41.4759
11
44.6632
21
-41.6208
0
LINE
8
BLACK
6
CONTINUOUS
10
44.6632
20
-41.6208
11
44.6066
21
-41.7573
0
LINE
8
BLACK
6
CONTINUOUS
10
44.6066
20
-41.7573
11
44.5246
21
-41.8801
0
LINE
8
BLACK
6
CONTINUOUS
10
44.5246
20
-41.8801
11
44.4201
21
-41.9846
0
LINE
8
BLACK
6
CONTINUOUS
10
44.4201
20
-41.9846
11
44.2973
21
-42.0666
0
LINE
8
BLACK
6
CONTINUOUS
10
44.2973
20
-42.0666
11
44.2173
21
-42.0998
0
LINE
8
BLACK
6
CONTINUOUS
10
44.2173
20
-42.0998
11
44.1608
21
-42.1232
0
LINE
8
BLACK
6
CONTINUOUS
10
44.1608
20
-42.1232
11
44.0883
21
-42.1376
0
LINE
8
BLACK
6
CONTINUOUS
10
44.0883
20
-42.1376
11
44.0159
21
-42.152
0
LINE
8
BLACK
6
CONTINUOUS
10
44.0159
20
-42.152
11
43.8681
21
-42.152
0
LINE
8
BLACK
6
CONTINUOUS
10
43.8681
20
-42.152
11
43.7957
21
-42.1376
0
LINE
8
BLACK
6
CONTINUOUS
10
43.7957
20
-42.1376
11
43.7232
21
-42.1232
0
LINE
8
BLACK
6
CONTINUOUS
10
43.7232
20
-42.1232
11
43.6667
21
-42.0998
0
LINE
8
BLACK
6
CONTINUOUS
10
43.6667
20
-42.0998
11
43.5867
21
-42.0666
0
LINE
8
BLACK
6
CONTINUOUS
10
43.5867
20
-42.0666
11
43.4639
21
-41.9846
0
LINE
8
BLACK
6
CONTINUOUS
10
43.4639
20
-41.9846
11
43.3594
21
-41.8801
0
LINE
8
BLACK
6
CONTINUOUS
10
43.3594
20
-41.8801
11
43.2774
21
-41.7573
0
LINE
8
BLACK
6
CONTINUOUS
10
43.2774
20
-41.7573
11
43.2208
21
-41.6208
0
LINE
8
BLACK
6
CONTINUOUS
10
43.2208
20
-41.6208
11
43.192
21
-41.4759
0
LINE
8
BLACK
6
CONTINUOUS
10
43.192
20
-41.4759
11
43.192
21
-41.3281
0
LINE
8
BLACK
6
CONTINUOUS
10
43.192
20
-41.3281
11
43.2208
21
-41.1832
0
LINE
8
BLACK
6
CONTINUOUS
10
43.2208
20
-41.1832
11
43.2774
21
-41.0467
0
LINE
8
BLACK
6
CONTINUOUS
10
43.2774
20
-41.0467
11
43.3594
21
-40.9239
0
LINE
8
BLACK
6
CONTINUOUS
10
43.3594
20
-40.9239
11
43.4639
21
-40.8194
0
LINE
8
BLACK
6
CONTINUOUS
10
43.4639
20
-40.8194
11
43.5867
21
-40.7374
0
LINE
8
BLACK
6
CONTINUOUS
10
43.5867
20
-40.7374
11
43.6667
21
-40.7042
0
LINE
8
BLACK
6
CONTINUOUS
10
43.6667
20
-40.7042
11
43.7232
21
-40.6808
0
LINE
8
BLACK
6
CONTINUOUS
10
43.7232
20
-40.6808
11
43.7957
21
-40.6664
0
LINE
8
BLACK
6
CONTINUOUS
10
43.7957
20
-40.6664
11
43.8681
21
-40.652
0
LINE
8
BLACK
6
CONTINUOUS
10
43.8681
20
-40.652
11
44.0159
21
-40.652
0
LINE
8
BLACK
6
CONTINUOUS
10
44.0159
20
-40.652
11
44.0883
21
-40.6664
0
LINE
8
BLACK
6
CONTINUOUS
10
31.3792
20
-36.3941
11
31.5112
21
-36.4342
0
LINE
8
BLACK
6
CONTINUOUS
10
31.5112
20
-36.4342
11
31.6328
21
-36.4992
0
LINE
8
BLACK
6
CONTINUOUS
10
31.6328
20
-36.4992
11
31.7394
21
-36.5866
0
LINE
8
BLACK
6
CONTINUOUS
10
31.7394
20
-36.5866
11
31.8268
21
-36.6932
0
LINE
8
BLACK
6
CONTINUOUS
10
31.8268
20
-36.6932
11
31.8918
21
-36.8148
0
LINE
8
BLACK
6
CONTINUOUS
10
31.8918
20
-36.8148
11
31.9319
21
-36.9468
0
LINE
8
BLACK
6
CONTINUOUS
10
31.9319
20
-36.9468
11
31.9454
21
-37.084
0
LINE
8
BLACK
6
CONTINUOUS
10
31.9454
20
-37.084
11
31.9319
21
-37.2212
0
LINE
8
BLACK
6
CONTINUOUS
10
31.9319
20
-37.2212
11
31.8918
21
-37.3532
0
LINE
8
BLACK
6
CONTINUOUS
10
31.8918
20
-37.3532
11
31.8268
21
-37.4748
0
LINE
8
BLACK
6
CONTINUOUS
10
31.8268
20
-37.4748
11
31.7394
21
-37.5814
0
LINE
8
BLACK
6
CONTINUOUS
10
31.7394
20
-37.5814
11
31.6328
21
-37.6688
0
LINE
8
BLACK
6
CONTINUOUS
10
31.6328
20
-37.6688
11
31.5112
21
-37.7338
0
LINE
8
BLACK
6
CONTINUOUS
10
31.5112
20
-37.7338
11
31.3792
21
-37.7739
0
LINE
8
BLACK
6
CONTINUOUS
10
31.3792
20
-37.7739
11
31.2764
21
-37.784
0
LINE
8
BLACK
6
CONTINUOUS
10
31.2764
20
-37.784
11
31.2076
21
-37.784
0
LINE
8
BLACK
6
CONTINUOUS
10
31.2076
20
-37.784
11
31.1048
21
-37.7739
0
LINE
8
BLACK
6
CONTINUOUS
10
31.1048
20
-37.7739
11
30.9728
21
-37.7338
0
LINE
8
BLACK
6
CONTINUOUS
10
30.9728
20
-37.7338
11
30.8512
21
-37.6688
0
LINE
8
BLACK
6
CONTINUOUS
10
30.8512
20
-37.6688
11
30.7446
21
-37.5814
0
LINE
8
BLACK
6
CONTINUOUS
10
30.7446
20
-37.5814
11
30.6572
21
-37.4748
0
LINE
8
BLACK
6
CONTINUOUS
10
30.6572
20
-37.4748
11
30.5922
21
-37.3532
0
LINE
8
BLACK
6
CONTINUOUS
10
30.5922
20
-37.3532
11
30.5521
21
-37.2212
0
LINE
8
BLACK
6
CONTINUOUS
10
30.5521
20
-37.2212
11
30.5386
21
-37.084
0
LINE
8
BLACK
6
CONTINUOUS
10
30.5386
20
-37.084
11
30.5521
21
-36.9468
0
LINE
8
BLACK
6
CONTINUOUS
10
30.5521
20
-36.9468
11
30.5922
21
-36.8148
0
LINE
8
BLACK
6
CONTINUOUS
10
30.5922
20
-36.8148
11
30.6572
21
-36.6932
0
LINE
8
BLACK
6
CONTINUOUS
10
30.6572
20
-36.6932
11
30.7446
21
-36.5866
0
LINE
8
BLACK
6
CONTINUOUS
10
30.7446
20
-36.5866
11
30.8512
21
-36.4992
0
LINE
8
BLACK
6
CONTINUOUS
10
30.8512
20
-36.4992
11
30.9728
21
-36.4342
0
LINE
8
BLACK
6
CONTINUOUS
10
30.9728
20
-36.4342
11
31.1048
21
-36.3941
0
LINE
8
BLACK
6
CONTINUOUS
10
31.1048
20
-36.3941
11
31.2076
21
-36.384
0
LINE
8
BLACK
6
CONTINUOUS
10
31.2076
20
-36.384
11
31.2764
21
-36.384
0
LINE
8
BLACK
6
CONTINUOUS
10
31.2764
20
-36.384
11
31.3792
21
-36.3941
0
LINE
8
BLACK
6
CONTINUOUS
10
28.8392
20
-36.3941
11
28.9712
21
-36.4342
0
LINE
8
BLACK
6
CONTINUOUS
10
28.9712
20
-36.4342
11
29.0928
21
-36.4992
0
LINE
8
BLACK
6
CONTINUOUS
10
29.0928
20
-36.4992
11
29.1994
21
-36.5866
0
LINE
8
BLACK
6
CONTINUOUS
10
29.1994
20
-36.5866
11
29.2868
21
-36.6932
0
LINE
8
BLACK
6
CONTINUOUS
10
29.2868
20
-36.6932
11
29.3518
21
-36.8148
0
LINE
8
BLACK
6
CONTINUOUS
10
29.3518
20
-36.8148
11
29.3919
21
-36.9468
0
LINE
8
BLACK
6
CONTINUOUS
10
29.3919
20
-36.9468
11
29.4054
21
-37.084
0
LINE
8
BLACK
6
CONTINUOUS
10
29.4054
20
-37.084
11
29.3919
21
-37.2212
0
LINE
8
BLACK
6
CONTINUOUS
10
29.3919
20
-37.2212
11
29.3518
21
-37.3532
0
LINE
8
BLACK
6
CONTINUOUS
10
29.3518
20
-37.3532
11
29.2868
21
-37.4748
0
LINE
8
BLACK
6
CONTINUOUS
10
29.2868
20
-37.4748
11
29.1994
21
-37.5814
0
LINE
8
BLACK
6
CONTINUOUS
10
29.1994
20
-37.5814
11
29.0928
21
-37.6688
0
LINE
8
BLACK
6
CONTINUOUS
10
29.0928
20
-37.6688
11
28.9712
21
-37.7338
0
LINE
8
BLACK
6
CONTINUOUS
10
28.9712
20
-37.7338
11
28.8392
21
-37.7739
0
LINE
8
BLACK
6
CONTINUOUS
10
28.8392
20
-37.7739
11
28.7364
21
-37.784
0
LINE
8
BLACK
6
CONTINUOUS
10
28.7364
20
-37.784
11
28.6676
21
-37.784
0
LINE
8
BLACK
6
CONTINUOUS
10
28.6676
20
-37.784
11
28.5648
21
-37.7739
0
LINE
8
BLACK
6
CONTINUOUS
10
28.5648
20
-37.7739
11
28.4328
21
-37.7338
0
LINE
8
BLACK
6
CONTINUOUS
10
28.4328
20
-37.7338
11
28.3112
21
-37.6688
0
LINE
8
BLACK
6
CONTINUOUS
10
28.3112
20
-37.6688
11
28.2046
21
-37.5814
0
LINE
8
BLACK
6
CONTINUOUS
10
28.2046
20
-37.5814
11
28.1172
21
-37.4748
0
LINE
8
BLACK
6
CONTINUOUS
10
28.1172
20
-37.4748
11
28.0522
21
-37.3532
0
LINE
8
BLACK
6
CONTINUOUS
10
28.0522
20
-37.3532
11
28.0121
21
-37.2212
0
LINE
8
BLACK
6
CONTINUOUS
10
28.0121
20
-37.2212
11
27.9986
21
-37.084
0
LINE
8
BLACK
6
CONTINUOUS
10
27.9986
20
-37.084
11
28.0121
21
-36.9468
0
LINE
8
BLACK
6
CONTINUOUS
10
28.0121
20
-36.9468
11
28.0522
21
-36.8148
0
LINE
8
BLACK
6
CONTINUOUS
10
28.0522
20
-36.8148
11
28.1172
21
-36.6932
0
LINE
8
BLACK
6
CONTINUOUS
10
28.1172
20
-36.6932
11
28.2046
21
-36.5866
0
LINE
8
BLACK
6
CONTINUOUS
10
28.2046
20
-36.5866
11
28.3112
21
-36.4992
0
LINE
8
BLACK
6
CONTINUOUS
10
28.3112
20
-36.4992
11
28.4328
21
-36.4342
0
LINE
8
BLACK
6
CONTINUOUS
10
28.4328
20
-36.4342
11
28.5648
21
-36.3941
0
LINE
8
BLACK
6
CONTINUOUS
10
28.5648
20
-36.3941
11
28.6676
21
-36.384
0
LINE
8
BLACK
6
CONTINUOUS
10
28.6676
20
-36.384
11
28.7364
21
-36.384
0
LINE
8
BLACK
6
CONTINUOUS
10
28.7364
20
-36.384
11
28.8392
21
-36.3941
0
LINE
8
BLACK
6
CONTINUOUS
10
33.9192
20
-36.3941
11
34.0512
21
-36.4342
0
LINE
8
BLACK
6
CONTINUOUS
10
34.0512
20
-36.4342
11
34.1728
21
-36.4992
0
LINE
8
BLACK
6
CONTINUOUS
10
34.1728
20
-36.4992
11
34.2794
21
-36.5866
0
LINE
8
BLACK
6
CONTINUOUS
10
34.2794
20
-36.5866
11
34.3668
21
-36.6932
0
LINE
8
BLACK
6
CONTINUOUS
10
34.3668
20
-36.6932
11
34.4318
21
-36.8148
0
LINE
8
BLACK
6
CONTINUOUS
10
34.4318
20
-36.8148
11
34.4719
21
-36.9468
0
LINE
8
BLACK
6
CONTINUOUS
10
34.4719
20
-36.9468
11
34.4854
21
-37.084
0
LINE
8
BLACK
6
CONTINUOUS
10
34.4854
20
-37.084
11
34.4719
21
-37.2212
0
LINE
8
BLACK
6
CONTINUOUS
10
34.4719
20
-37.2212
11
34.4318
21
-37.3532
0
LINE
8
BLACK
6
CONTINUOUS
10
34.4318
20
-37.3532
11
34.3668
21
-37.4748
0
LINE
8
BLACK
6
CONTINUOUS
10
34.3668
20
-37.4748
11
34.2794
21
-37.5814
0
LINE
8
BLACK
6
CONTINUOUS
10
34.2794
20
-37.5814
11
34.1728
21
-37.6688
0
LINE
8
BLACK
6
CONTINUOUS
10
34.1728
20
-37.6688
11
34.0512
21
-37.7338
0
LINE
8
BLACK
6
CONTINUOUS
10
34.0512
20
-37.7338
11
33.9192
21
-37.7739
0
LINE
8
BLACK
6
CONTINUOUS
10
33.9192
20
-37.7739
11
33.8164
21
-37.784
0
LINE
8
BLACK
6
CONTINUOUS
10
33.8164
20
-37.784
11
33.7476
21
-37.784
0
LINE
8
BLACK
6
CONTINUOUS
10
33.7476
20
-37.784
11
33.6448
21
-37.7739
0
LINE
8
BLACK
6
CONTINUOUS
10
33.6448
20
-37.7739
11
33.5128
21
-37.7338
0
LINE
8
BLACK
6
CONTINUOUS
10
33.5128
20
-37.7338
11
33.3912
21
-37.6688
0
LINE
8
BLACK
6
CONTINUOUS
10
33.3912
20
-37.6688
11
33.2846
21
-37.5814
0
LINE
8
BLACK
6
CONTINUOUS
10
33.2846
20
-37.5814
11
33.1972
21
-37.4748
0
LINE
8
BLACK
6
CONTINUOUS
10
33.1972
20
-37.4748
11
33.1322
21
-37.3532
0
LINE
8
BLACK
6
CONTINUOUS
10
33.1322
20
-37.3532
11
33.0921
21
-37.2212
0
LINE
8
BLACK
6
CONTINUOUS
10
33.0921
20
-37.2212
11
33.0786
21
-37.084
0
LINE
8
BLACK
6
CONTINUOUS
10
33.0786
20
-37.084
11
33.0921
21
-36.9468
0
LINE
8
BLACK
6
CONTINUOUS
10
33.0921
20
-36.9468
11
33.1322
21
-36.8148
0
LINE
8
BLACK
6
CONTINUOUS
10
33.1322
20
-36.8148
11
33.1972
21
-36.6932
0
LINE
8
BLACK
6
CONTINUOUS
10
33.1972
20
-36.6932
11
33.2846
21
-36.5866
0
LINE
8
BLACK
6
CONTINUOUS
10
33.2846
20
-36.5866
11
33.3912
21
-36.4992
0
LINE
8
BLACK
6
CONTINUOUS
10
33.3912
20
-36.4992
11
33.5128
21
-36.4342
0
LINE
8
BLACK
6
CONTINUOUS
10
33.5128
20
-36.4342
11
33.6448
21
-36.3941
0
LINE
8
BLACK
6
CONTINUOUS
10
33.6448
20
-36.3941
11
33.7476
21
-36.384
0
LINE
8
BLACK
6
CONTINUOUS
10
33.7476
20
-36.384
11
33.8164
21
-36.384
0
LINE
8
BLACK
6
CONTINUOUS
10
33.8164
20
-36.384
11
33.9192
21
-36.3941
0
LINE
8
BLACK
6
CONTINUOUS
10
36.4592
20
-36.3941
11
36.5912
21
-36.4342
0
LINE
8
BLACK
6
CONTINUOUS
10
36.5912
20
-36.4342
11
36.7128
21
-36.4992
0
LINE
8
BLACK
6
CONTINUOUS
10
36.7128
20
-36.4992
11
36.8194
21
-36.5866
0
LINE
8
BLACK
6
CONTINUOUS
10
36.8194
20
-36.5866
11
36.9068
21
-36.6932
0
LINE
8
BLACK
6
CONTINUOUS
10
36.9068
20
-36.6932
11
36.9718
21
-36.8148
0
LINE
8
BLACK
6
CONTINUOUS
10
36.9718
20
-36.8148
11
37.0119
21
-36.9468
0
LINE
8
BLACK
6
CONTINUOUS
10
37.0119
20
-36.9468
11
37.0254
21
-37.084
0
LINE
8
BLACK
6
CONTINUOUS
10
37.0254
20
-37.084
11
37.0119
21
-37.2212
0
LINE
8
BLACK
6
CONTINUOUS
10
37.0119
20
-37.2212
11
36.9718
21
-37.3532
0
LINE
8
BLACK
6
CONTINUOUS
10
36.9718
20
-37.3532
11
36.9068
21
-37.4748
0
LINE
8
BLACK
6
CONTINUOUS
10
36.9068
20
-37.4748
11
36.8194
21
-37.5814
0
LINE
8
BLACK
6
CONTINUOUS
10
36.8194
20
-37.5814
11
36.7128
21
-37.6688
0
LINE
8
BLACK
6
CONTINUOUS
10
36.7128
20
-37.6688
11
36.5912
21
-37.7338
0
LINE
8
BLACK
6
CONTINUOUS
10
36.5912
20
-37.7338
11
36.4592
21
-37.7739
0
LINE
8
BLACK
6
CONTINUOUS
10
36.4592
20
-37.7739
11
36.3564
21
-37.784
0
LINE
8
BLACK
6
CONTINUOUS
10
36.3564
20
-37.784
11
36.2876
21
-37.784
0
LINE
8
BLACK
6
CONTINUOUS
10
36.2876
20
-37.784
11
36.1848
21
-37.7739
0
LINE
8
BLACK
6
CONTINUOUS
10
36.1848
20
-37.7739
11
36.0528
21
-37.7338
0
LINE
8
BLACK
6
CONTINUOUS
10
36.0528
20
-37.7338
11
35.9312
21
-37.6688
0
LINE
8
BLACK
6
CONTINUOUS
10
35.9312
20
-37.6688
11
35.8246
21
-37.5814
0
LINE
8
BLACK
6
CONTINUOUS
10
35.8246
20
-37.5814
11
35.7372
21
-37.4748
0
LINE
8
BLACK
6
CONTINUOUS
10
35.7372
20
-37.4748
11
35.6722
21
-37.3532
0
LINE
8
BLACK
6
CONTINUOUS
10
35.6722
20
-37.3532
11
35.6321
21
-37.2212
0
LINE
8
BLACK
6
CONTINUOUS
10
35.6321
20
-37.2212
11
35.6186
21
-37.084
0
LINE
8
BLACK
6
CONTINUOUS
10
35.6186
20
-37.084
11
35.6321
21
-36.9468
0
LINE
8
BLACK
6
CONTINUOUS
10
35.6321
20
-36.9468
11
35.6722
21
-36.8148
0
LINE
8
BLACK
6
CONTINUOUS
10
35.6722
20
-36.8148
11
35.7372
21
-36.6932
0
LINE
8
BLACK
6
CONTINUOUS
10
35.7372
20
-36.6932
11
35.8246
21
-36.5866
0
LINE
8
BLACK
6
CONTINUOUS
10
35.8246
20
-36.5866
11
35.9312
21
-36.4992
0
LINE
8
BLACK
6
CONTINUOUS
10
35.9312
20
-36.4992
11
36.0528
21
-36.4342
0
LINE
8
BLACK
6
CONTINUOUS
10
36.0528
20
-36.4342
11
36.1848
21
-36.3941
0
LINE
8
BLACK
6
CONTINUOUS
10
36.1848
20
-36.3941
11
36.2876
21
-36.384
0
LINE
8
BLACK
6
CONTINUOUS
10
36.2876
20
-36.384
11
36.3564
21
-36.384
0
LINE
8
BLACK
6
CONTINUOUS
10
36.3564
20
-36.384
11
36.4592
21
-36.3941
0
LINE
8
BLACK
6
CONTINUOUS
10
36.5262
20
-28.7909
11
36.6536
21
-28.8437
0
LINE
8
BLACK
6
CONTINUOUS
10
36.6536
20
-28.8437
11
36.7682
21
-28.9203
0
LINE
8
BLACK
6
CONTINUOUS
10
36.7682
20
-28.9203
11
36.8657
21
-29.0178
0
LINE
8
BLACK
6
CONTINUOUS
10
36.8657
20
-29.0178
11
36.9423
21
-29.1324
0
LINE
8
BLACK
6
CONTINUOUS
10
36.9423
20
-29.1324
11
36.9951
21
-29.2598
0
LINE
8
BLACK
6
CONTINUOUS
10
36.9951
20
-29.2598
11
37.022
21
-29.3951
0
LINE
8
BLACK
6
CONTINUOUS
10
37.022
20
-29.3951
11
37.022
21
-29.5329
0
LINE
8
BLACK
6
CONTINUOUS
10
37.022
20
-29.5329
11
36.9951
21
-29.6682
0
LINE
8
BLACK
6
CONTINUOUS
10
36.9951
20
-29.6682
11
36.9423
21
-29.7956
0
LINE
8
BLACK
6
CONTINUOUS
10
36.9423
20
-29.7956
11
36.8657
21
-29.9102
0
LINE
8
BLACK
6
CONTINUOUS
10
36.8657
20
-29.9102
11
36.7682
21
-30.0077
0
LINE
8
BLACK
6
CONTINUOUS
10
36.7682
20
-30.0077
11
36.6536
21
-30.0843
0
LINE
8
BLACK
6
CONTINUOUS
10
36.6536
20
-30.0843
11
36.5262
21
-30.1371
0
LINE
8
BLACK
6
CONTINUOUS
10
36.5262
20
-30.1371
11
36.3909
21
-30.164
0
LINE
8
BLACK
6
CONTINUOUS
10
36.3909
20
-30.164
11
36.2531
21
-30.164
0
LINE
8
BLACK
6
CONTINUOUS
10
36.2531
20
-30.164
11
36.1178
21
-30.1371
0
LINE
8
BLACK
6
CONTINUOUS
10
36.1178
20
-30.1371
11
35.9904
21
-30.0843
0
LINE
8
BLACK
6
CONTINUOUS
10
35.9904
20
-30.0843
11
35.8758
21
-30.0077
0
LINE
8
BLACK
6
CONTINUOUS
10
35.8758
20
-30.0077
11
35.7783
21
-29.9102
0
LINE
8
BLACK
6
CONTINUOUS
10
35.7783
20
-29.9102
11
35.7017
21
-29.7956
0
LINE
8
BLACK
6
CONTINUOUS
10
35.7017
20
-29.7956
11
35.6489
21
-29.6682
0
LINE
8
BLACK
6
CONTINUOUS
10
35.6489
20
-29.6682
11
35.622
21
-29.5329
0
LINE
8
BLACK
6
CONTINUOUS
10
35.622
20
-29.5329
11
35.622
21
-29.3951
0
LINE
8
BLACK
6
CONTINUOUS
10
35.622
20
-29.3951
11
35.6489
21
-29.2598
0
LINE
8
BLACK
6
CONTINUOUS
10
35.6489
20
-29.2598
11
35.7017
21
-29.1324
0
LINE
8
BLACK
6
CONTINUOUS
10
35.7017
20
-29.1324
11
35.7783
21
-29.0178
0
LINE
8
BLACK
6
CONTINUOUS
10
35.7783
20
-29.0178
11
35.8758
21
-28.9203
0
LINE
8
BLACK
6
CONTINUOUS
10
35.8758
20
-28.9203
11
35.9904
21
-28.8437
0
LINE
8
BLACK
6
CONTINUOUS
10
35.9904
20
-28.8437
11
36.1178
21
-28.7909
0
LINE
8
BLACK
6
CONTINUOUS
10
36.1178
20
-28.7909
11
36.2531
21
-28.764
0
LINE
8
BLACK
6
CONTINUOUS
10
36.2531
20
-28.764
11
36.3909
21
-28.764
0
LINE
8
BLACK
6
CONTINUOUS
10
36.3909
20
-28.764
11
36.5262
21
-28.7909
0
LINE
8
BLACK
6
CONTINUOUS
10
33.9862
20
-28.7909
11
34.1136
21
-28.8437
0
LINE
8
BLACK
6
CONTINUOUS
10
34.1136
20
-28.8437
11
34.2282
21
-28.9203
0
LINE
8
BLACK
6
CONTINUOUS
10
34.2282
20
-28.9203
11
34.3257
21
-29.0178
0
LINE
8
BLACK
6
CONTINUOUS
10
34.3257
20
-29.0178
11
34.4023
21
-29.1324
0
LINE
8
BLACK
6
CONTINUOUS
10
34.4023
20
-29.1324
11
34.4551
21
-29.2598
0
LINE
8
BLACK
6
CONTINUOUS
10
34.4551
20
-29.2598
11
34.482
21
-29.3951
0
LINE
8
BLACK
6
CONTINUOUS
10
34.482
20
-29.3951
11
34.482
21
-29.5329
0
LINE
8
BLACK
6
CONTINUOUS
10
34.482
20
-29.5329
11
34.4551
21
-29.6682
0
LINE
8
BLACK
6
CONTINUOUS
10
34.4551
20
-29.6682
11
34.4023
21
-29.7956
0
LINE
8
BLACK
6
CONTINUOUS
10
34.4023
20
-29.7956
11
34.3257
21
-29.9102
0
LINE
8
BLACK
6
CONTINUOUS
10
34.3257
20
-29.9102
11
34.2282
21
-30.0077
0
LINE
8
BLACK
6
CONTINUOUS
10
34.2282
20
-30.0077
11
34.1136
21
-30.0843
0
LINE
8
BLACK
6
CONTINUOUS
10
34.1136
20
-30.0843
11
33.9862
21
-30.1371
0
LINE
8
BLACK
6
CONTINUOUS
10
33.9862
20
-30.1371
11
33.8509
21
-30.164
0
LINE
8
BLACK
6
CONTINUOUS
10
33.8509
20
-30.164
11
33.7131
21
-30.164
0
LINE
8
BLACK
6
CONTINUOUS
10
33.7131
20
-30.164
11
33.5778
21
-30.1371
0
LINE
8
BLACK
6
CONTINUOUS
10
33.5778
20
-30.1371
11
33.4504
21
-30.0843
0
LINE
8
BLACK
6
CONTINUOUS
10
33.4504
20
-30.0843
11
33.3358
21
-30.0077
0
LINE
8
BLACK
6
CONTINUOUS
10
33.3358
20
-30.0077
11
33.2383
21
-29.9102
0
LINE
8
BLACK
6
CONTINUOUS
10
33.2383
20
-29.9102
11
33.1617
21
-29.7956
0
LINE
8
BLACK
6
CONTINUOUS
10
33.1617
20
-29.7956
11
33.1089
21
-29.6682
0
LINE
8
BLACK
6
CONTINUOUS
10
33.1089
20
-29.6682
11
33.082
21
-29.5329
0
LINE
8
BLACK
6
CONTINUOUS
10
33.082
20
-29.5329
11
33.082
21
-29.3951
0
LINE
8
BLACK
6
CONTINUOUS
10
33.082
20
-29.3951
11
33.1089
21
-29.2598
0
LINE
8
BLACK
6
CONTINUOUS
10
33.1089
20
-29.2598
11
33.1617
21
-29.1324
0
LINE
8
BLACK
6
CONTINUOUS
10
33.1617
20
-29.1324
11
33.2383
21
-29.0178
0
LINE
8
BLACK
6
CONTINUOUS
10
33.2383
20
-29.0178
11
33.3358
21
-28.9203
0
LINE
8
BLACK
6
CONTINUOUS
10
33.3358
20
-28.9203
11
33.4504
21
-28.8437
0
LINE
8
BLACK
6
CONTINUOUS
10
33.4504
20
-28.8437
11
33.5778
21
-28.7909
0
LINE
8
BLACK
6
CONTINUOUS
10
33.5778
20
-28.7909
11
33.7131
21
-28.764
0
LINE
8
BLACK
6
CONTINUOUS
10
33.7131
20
-28.764
11
33.8509
21
-28.764
0
LINE
8
BLACK
6
CONTINUOUS
10
33.8509
20
-28.764
11
33.9862
21
-28.7909
0
LINE
8
BLACK
6
CONTINUOUS
10
31.4462
20
-28.7909
11
31.5736
21
-28.8437
0
LINE
8
BLACK
6
CONTINUOUS
10
31.5736
20
-28.8437
11
31.6882
21
-28.9203
0
LINE
8
BLACK
6
CONTINUOUS
10
31.6882
20
-28.9203
11
31.7857
21
-29.0178
0
LINE
8
BLACK
6
CONTINUOUS
10
31.7857
20
-29.0178
11
31.8623
21
-29.1324
0
LINE
8
BLACK
6
CONTINUOUS
10
31.8623
20
-29.1324
11
31.9151
21
-29.2598
0
LINE
8
BLACK
6
CONTINUOUS
10
31.9151
20
-29.2598
11
31.942
21
-29.3951
0
LINE
8
BLACK
6
CONTINUOUS
10
31.942
20
-29.3951
11
31.942
21
-29.5329
0
LINE
8
BLACK
6
CONTINUOUS
10
31.942
20
-29.5329
11
31.9151
21
-29.6682
0
LINE
8
BLACK
6
CONTINUOUS
10
31.9151
20
-29.6682
11
31.8623
21
-29.7956
0
LINE
8
BLACK
6
CONTINUOUS
10
31.8623
20
-29.7956
11
31.7857
21
-29.9102
0
LINE
8
BLACK
6
CONTINUOUS
10
31.7857
20
-29.9102
11
31.6882
21
-30.0077
0
LINE
8
BLACK
6
CONTINUOUS
10
31.6882
20
-30.0077
11
31.5736
21
-30.0843
0
LINE
8
BLACK
6
CONTINUOUS
10
31.5736
20
-30.0843
11
31.4462
21
-30.1371
0
LINE
8
BLACK
6
CONTINUOUS
10
31.4462
20
-30.1371
11
31.3109
21
-30.164
0
LINE
8
BLACK
6
CONTINUOUS
10
31.3109
20
-30.164
11
31.1731
21
-30.164
0
LINE
8
BLACK
6
CONTINUOUS
10
31.1731
20
-30.164
11
31.0378
21
-30.1371
0
LINE
8
BLACK
6
CONTINUOUS
10
31.0378
20
-30.1371
11
30.9104
21
-30.0843
0
LINE
8
BLACK
6
CONTINUOUS
10
30.9104
20
-30.0843
11
30.7958
21
-30.0077
0
LINE
8
BLACK
6
CONTINUOUS
10
30.7958
20
-30.0077
11
30.6983
21
-29.9102
0
LINE
8
BLACK
6
CONTINUOUS
10
30.6983
20
-29.9102
11
30.6217
21
-29.7956
0
LINE
8
BLACK
6
CONTINUOUS
10
30.6217
20
-29.7956
11
30.5689
21
-29.6682
0
LINE
8
BLACK
6
CONTINUOUS
10
30.5689
20
-29.6682
11
30.542
21
-29.5329
0
LINE
8
BLACK
6
CONTINUOUS
10
30.542
20
-29.5329
11
30.542
21
-29.3951
0
LINE
8
BLACK
6
CONTINUOUS
10
30.542
20
-29.3951
11
30.5689
21
-29.2598
0
LINE
8
BLACK
6
CONTINUOUS
10
30.5689
20
-29.2598
11
30.6217
21
-29.1324
0
LINE
8
BLACK
6
CONTINUOUS
10
30.6217
20
-29.1324
11
30.6983
21
-29.0178
0
LINE
8
BLACK
6
CONTINUOUS
10
30.6983
20
-29.0178
11
30.7958
21
-28.9203
0
LINE
8
BLACK
6
CONTINUOUS
10
30.7958
20
-28.9203
11
30.9104
21
-28.8437
0
LINE
8
BLACK
6
CONTINUOUS
10
30.9104
20
-28.8437
11
31.0378
21
-28.7909
0
LINE
8
BLACK
6
CONTINUOUS
10
31.0378
20
-28.7909
11
31.1731
21
-28.764
0
LINE
8
BLACK
6
CONTINUOUS
10
31.1731
20
-28.764
11
31.3109
21
-28.764
0
LINE
8
BLACK
6
CONTINUOUS
10
31.3109
20
-28.764
11
31.4462
21
-28.7909
0
LINE
8
BLACK
6
CONTINUOUS
10
28.9062
20
-28.7909
11
29.0336
21
-28.8437
0
LINE
8
BLACK
6
CONTINUOUS
10
29.0336
20
-28.8437
11
29.1482
21
-28.9203
0
LINE
8
BLACK
6
CONTINUOUS
10
29.1482
20
-28.9203
11
29.2457
21
-29.0178
0
LINE
8
BLACK
6
CONTINUOUS
10
29.2457
20
-29.0178
11
29.3223
21
-29.1324
0
LINE
8
BLACK
6
CONTINUOUS
10
29.3223
20
-29.1324
11
29.3751
21
-29.2598
0
LINE
8
BLACK
6
CONTINUOUS
10
29.3751
20
-29.2598
11
29.402
21
-29.3951
0
LINE
8
BLACK
6
CONTINUOUS
10
29.402
20
-29.3951
11
29.402
21
-29.5329
0
LINE
8
BLACK
6
CONTINUOUS
10
29.402
20
-29.5329
11
29.3751
21
-29.6682
0
LINE
8
BLACK
6
CONTINUOUS
10
29.3751
20
-29.6682
11
29.3223
21
-29.7956
0
LINE
8
BLACK
6
CONTINUOUS
10
29.3223
20
-29.7956
11
29.2457
21
-29.9102
0
LINE
8
BLACK
6
CONTINUOUS
10
29.2457
20
-29.9102
11
29.1482
21
-30.0077
0
LINE
8
BLACK
6
CONTINUOUS
10
29.1482
20
-30.0077
11
29.0336
21
-30.0843
0
LINE
8
BLACK
6
CONTINUOUS
10
29.0336
20
-30.0843
11
28.9062
21
-30.1371
0
LINE
8
BLACK
6
CONTINUOUS
10
28.9062
20
-30.1371
11
28.7709
21
-30.164
0
LINE
8
BLACK
6
CONTINUOUS
10
28.7709
20
-30.164
11
28.6331
21
-30.164
0
LINE
8
BLACK
6
CONTINUOUS
10
28.6331
20
-30.164
11
28.4978
21
-30.1371
0
LINE
8
BLACK
6
CONTINUOUS
10
28.4978
20
-30.1371
11
28.3704
21
-30.0843
0
LINE
8
BLACK
6
CONTINUOUS
10
28.3704
20
-30.0843
11
28.2558
21
-30.0077
0
LINE
8
BLACK
6
CONTINUOUS
10
28.2558
20
-30.0077
11
28.1583
21
-29.9102
0
LINE
8
BLACK
6
CONTINUOUS
10
28.1583
20
-29.9102
11
28.0817
21
-29.7956
0
LINE
8
BLACK
6
CONTINUOUS
10
28.0817
20
-29.7956
11
28.0289
21
-29.6682
0
LINE
8
BLACK
6
CONTINUOUS
10
28.0289
20
-29.6682
11
28.002
21
-29.5329
0
LINE
8
BLACK
6
CONTINUOUS
10
28.002
20
-29.5329
11
28.002
21
-29.3951
0
LINE
8
BLACK
6
CONTINUOUS
10
28.002
20
-29.3951
11
28.0289
21
-29.2598
0
LINE
8
BLACK
6
CONTINUOUS
10
28.0289
20
-29.2598
11
28.0817
21
-29.1324
0
LINE
8
BLACK
6
CONTINUOUS
10
28.0817
20
-29.1324
11
28.1583
21
-29.0178
0
LINE
8
BLACK
6
CONTINUOUS
10
28.1583
20
-29.0178
11
28.2558
21
-28.9203
0
LINE
8
BLACK
6
CONTINUOUS
10
28.2558
20
-28.9203
11
28.3704
21
-28.8437
0
LINE
8
BLACK
6
CONTINUOUS
10
28.3704
20
-28.8437
11
28.4978
21
-28.7909
0
LINE
8
BLACK
6
CONTINUOUS
10
28.4978
20
-28.7909
11
28.6331
21
-28.764
0
LINE
8
BLACK
6
CONTINUOUS
10
28.6331
20
-28.764
11
28.7709
21
-28.764
0
LINE
8
BLACK
6
CONTINUOUS
10
28.7709
20
-28.764
11
28.9062
21
-28.7909
0
LINE
8
BLACK
6
CONTINUOUS
10
31.4086
20
-24.5623
11
31.5689
21
-24.6109
0
LINE
8
BLACK
6
CONTINUOUS
10
31.5689
20
-24.6109
11
31.7165
21
-24.6898
0
LINE
8
BLACK
6
CONTINUOUS
10
31.7165
20
-24.6898
11
31.8459
21
-24.7961
0
LINE
8
BLACK
6
CONTINUOUS
10
31.8459
20
-24.7961
11
31.9522
21
-24.9255
0
LINE
8
BLACK
6
CONTINUOUS
10
31.9522
20
-24.9255
11
32.0311
21
-25.0731
0
LINE
8
BLACK
6
CONTINUOUS
10
32.0311
20
-25.0731
11
32.0797
21
-25.2334
0
LINE
8
BLACK
6
CONTINUOUS
10
32.0797
20
-25.2334
11
32.0961
21
-25.4
0
LINE
8
BLACK
6
CONTINUOUS
10
32.0961
20
-25.4
11
32.0797
21
-25.5666
0
LINE
8
BLACK
6
CONTINUOUS
10
32.0797
20
-25.5666
11
32.0311
21
-25.7269
0
LINE
8
BLACK
6
CONTINUOUS
10
32.0311
20
-25.7269
11
31.9522
21
-25.8745
0
LINE
8
BLACK
6
CONTINUOUS
10
31.9522
20
-25.8745
11
31.8459
21
-26.0039
0
LINE
8
BLACK
6
CONTINUOUS
10
31.8459
20
-26.0039
11
31.7165
21
-26.1102
0
LINE
8
BLACK
6
CONTINUOUS
10
31.7165
20
-26.1102
11
31.5689
21
-26.1891
0
LINE
8
BLACK
6
CONTINUOUS
10
31.5689
20
-26.1891
11
31.4086
21
-26.2377
0
LINE
8
BLACK
6
CONTINUOUS
10
31.4086
20
-26.2377
11
31.2838
21
-26.25
0
LINE
8
BLACK
6
CONTINUOUS
10
31.2838
20
-26.25
11
31.2002
21
-26.25
0
LINE
8
BLACK
6
CONTINUOUS
10
31.2002
20
-26.25
11
31.0754
21
-26.2377
0
LINE
8
BLACK
6
CONTINUOUS
10
31.0754
20
-26.2377
11
30.9151
21
-26.1891
0
LINE
8
BLACK
6
CONTINUOUS
10
30.9151
20
-26.1891
11
30.7675
21
-26.1102
0
LINE
8
BLACK
6
CONTINUOUS
10
30.7675
20
-26.1102
11
30.6381
21
-26.0039
0
LINE
8
BLACK
6
CONTINUOUS
10
30.6381
20
-26.0039
11
30.5318
21
-25.8745
0
LINE
8
BLACK
6
CONTINUOUS
10
30.5318
20
-25.8745
11
30.4529
21
-25.7269
0
LINE
8
BLACK
6
CONTINUOUS
10
30.4529
20
-25.7269
11
30.4043
21
-25.5666
0
LINE
8
BLACK
6
CONTINUOUS
10
30.4043
20
-25.5666
11
30.3879
21
-25.4
0
LINE
8
BLACK
6
CONTINUOUS
10
30.3879
20
-25.4
11
30.4043
21
-25.2334
0
LINE
8
BLACK
6
CONTINUOUS
10
30.4043
20
-25.2334
11
30.4529
21
-25.0731
0
LINE
8
BLACK
6
CONTINUOUS
10
30.4529
20
-25.0731
11
30.5318
21
-24.9255
0
LINE
8
BLACK
6
CONTINUOUS
10
30.5318
20
-24.9255
11
30.6381
21
-24.7961
0
LINE
8
BLACK
6
CONTINUOUS
10
30.6381
20
-24.7961
11
30.7675
21
-24.6898
0
LINE
8
BLACK
6
CONTINUOUS
10
30.7675
20
-24.6898
11
30.9151
21
-24.6109
0
LINE
8
BLACK
6
CONTINUOUS
10
30.9151
20
-24.6109
11
31.0754
21
-24.5623
0
LINE
8
BLACK
6
CONTINUOUS
10
31.0754
20
-24.5623
11
31.2002
21
-24.55
0
LINE
8
BLACK
6
CONTINUOUS
10
31.2002
20
-24.55
11
31.2838
21
-24.55
0
LINE
8
BLACK
6
CONTINUOUS
10
31.2838
20
-24.55
11
31.4086
21
-24.5623
0
LINE
8
BLACK
6
CONTINUOUS
10
29.552
20
-26.25
11
27.852
21
-26.25
0
LINE
8
BLACK
6
CONTINUOUS
10
27.852
20
-26.25
11
27.852
21
-24.55
0
LINE
8
BLACK
6
CONTINUOUS
10
27.852
20
-24.55
11
29.552
21
-24.55
0
LINE
8
BLACK
6
CONTINUOUS
10
29.552
20
-24.55
11
29.552
21
-26.25
0
LINE
8
BLACK
6
CONTINUOUS
10
33.9486
20
-24.5623
11
34.1089
21
-24.6109
0
LINE
8
BLACK
6
CONTINUOUS
10
34.1089
20
-24.6109
11
34.2565
21
-24.6898
0
LINE
8
BLACK
6
CONTINUOUS
10
34.2565
20
-24.6898
11
34.3859
21
-24.7961
0
LINE
8
BLACK
6
CONTINUOUS
10
34.3859
20
-24.7961
11
34.4922
21
-24.9255
0
LINE
8
BLACK
6
CONTINUOUS
10
34.4922
20
-24.9255
11
34.5711
21
-25.0731
0
LINE
8
BLACK
6
CONTINUOUS
10
34.5711
20
-25.0731
11
34.6197
21
-25.2334
0
LINE
8
BLACK
6
CONTINUOUS
10
34.6197
20
-25.2334
11
34.6361
21
-25.4
0
LINE
8
BLACK
6
CONTINUOUS
10
34.6361
20
-25.4
11
34.6197
21
-25.5666
0
LINE
8
BLACK
6
CONTINUOUS
10
34.6197
20
-25.5666
11
34.5711
21
-25.7269
0
LINE
8
BLACK
6
CONTINUOUS
10
34.5711
20
-25.7269
11
34.4922
21
-25.8745
0
LINE
8
BLACK
6
CONTINUOUS
10
34.4922
20
-25.8745
11
34.3859
21
-26.0039
0
LINE
8
BLACK
6
CONTINUOUS
10
34.3859
20
-26.0039
11
34.2565
21
-26.1102
0
LINE
8
BLACK
6
CONTINUOUS
10
34.2565
20
-26.1102
11
34.1089
21
-26.1891
0
LINE
8
BLACK
6
CONTINUOUS
10
34.1089
20
-26.1891
11
33.9486
21
-26.2377
0
LINE
8
BLACK
6
CONTINUOUS
10
33.9486
20
-26.2377
11
33.8238
21
-26.25
0
LINE
8
BLACK
6
CONTINUOUS
10
33.8238
20
-26.25
11
33.7402
21
-26.25
0
LINE
8
BLACK
6
CONTINUOUS
10
33.7402
20
-26.25
11
33.6154
21
-26.2377
0
LINE
8
BLACK
6
CONTINUOUS
10
33.6154
20
-26.2377
11
33.4551
21
-26.1891
0
LINE
8
BLACK
6
CONTINUOUS
10
33.4551
20
-26.1891
11
33.3075
21
-26.1102
0
LINE
8
BLACK
6
CONTINUOUS
10
33.3075
20
-26.1102
11
33.1781
21
-26.0039
0
LINE
8
BLACK
6
CONTINUOUS
10
33.1781
20
-26.0039
11
33.0718
21
-25.8745
0
LINE
8
BLACK
6
CONTINUOUS
10
33.0718
20
-25.8745
11
32.9929
21
-25.7269
0
LINE
8
BLACK
6
CONTINUOUS
10
32.9929
20
-25.7269
11
32.9443
21
-25.5666
0
LINE
8
BLACK
6
CONTINUOUS
10
32.9443
20
-25.5666
11
32.9279
21
-25.4
0
LINE
8
BLACK
6
CONTINUOUS
10
32.9279
20
-25.4
11
32.9443
21
-25.2334
0
LINE
8
BLACK
6
CONTINUOUS
10
32.9443
20
-25.2334
11
32.9929
21
-25.0731
0
LINE
8
BLACK
6
CONTINUOUS
10
32.9929
20
-25.0731
11
33.0718
21
-24.9255
0
LINE
8
BLACK
6
CONTINUOUS
10
33.0718
20
-24.9255
11
33.1781
21
-24.7961
0
LINE
8
BLACK
6
CONTINUOUS
10
33.1781
20
-24.7961
11
33.3075
21
-24.6898
0
LINE
8
BLACK
6
CONTINUOUS
10
33.3075
20
-24.6898
11
33.4551
21
-24.6109
0
LINE
8
BLACK
6
CONTINUOUS
10
33.4551
20
-24.6109
11
33.6154
21
-24.5623
0
LINE
8
BLACK
6
CONTINUOUS
10
33.6154
20
-24.5623
11
33.7402
21
-24.55
0
LINE
8
BLACK
6
CONTINUOUS
10
33.7402
20
-24.55
11
33.8238
21
-24.55
0
LINE
8
BLACK
6
CONTINUOUS
10
33.8238
20
-24.55
11
33.9486
21
-24.5623
0
LINE
8
BLACK
6
CONTINUOUS
10
36.4886
20
-24.5623
11
36.6489
21
-24.6109
0
LINE
8
BLACK
6
CONTINUOUS
10
36.6489
20
-24.6109
11
36.7965
21
-24.6898
0
LINE
8
BLACK
6
CONTINUOUS
10
36.7965
20
-24.6898
11
36.9259
21
-24.7961
0
LINE
8
BLACK
6
CONTINUOUS
10
36.9259
20
-24.7961
11
37.0322
21
-24.9255
0
LINE
8
BLACK
6
CONTINUOUS
10
37.0322
20
-24.9255
11
37.1111
21
-25.0731
0
LINE
8
BLACK
6
CONTINUOUS
10
37.1111
20
-25.0731
11
37.1597
21
-25.2334
0
LINE
8
BLACK
6
CONTINUOUS
10
37.1597
20
-25.2334
11
37.1761
21
-25.4
0
LINE
8
BLACK
6
CONTINUOUS
10
37.1761
20
-25.4
11
37.1597
21
-25.5666
0
LINE
8
BLACK
6
CONTINUOUS
10
37.1597
20
-25.5666
11
37.1111
21
-25.7269
0
LINE
8
BLACK
6
CONTINUOUS
10
37.1111
20
-25.7269
11
37.0322
21
-25.8745
0
LINE
8
BLACK
6
CONTINUOUS
10
37.0322
20
-25.8745
11
36.9259
21
-26.0039
0
LINE
8
BLACK
6
CONTINUOUS
10
36.9259
20
-26.0039
11
36.7965
21
-26.1102
0
LINE
8
BLACK
6
CONTINUOUS
10
36.7965
20
-26.1102
11
36.6489
21
-26.1891
0
LINE
8
BLACK
6
CONTINUOUS
10
36.6489
20
-26.1891
11
36.4886
21
-26.2377
0
LINE
8
BLACK
6
CONTINUOUS
10
36.4886
20
-26.2377
11
36.3638
21
-26.25
0
LINE
8
BLACK
6
CONTINUOUS
10
36.3638
20
-26.25
11
36.2802
21
-26.25
0
LINE
8
BLACK
6
CONTINUOUS
10
36.2802
20
-26.25
11
36.1554
21
-26.2377
0
LINE
8
BLACK
6
CONTINUOUS
10
36.1554
20
-26.2377
11
35.9951
21
-26.1891
0
LINE
8
BLACK
6
CONTINUOUS
10
35.9951
20
-26.1891
11
35.8475
21
-26.1102
0
LINE
8
BLACK
6
CONTINUOUS
10
35.8475
20
-26.1102
11
35.7181
21
-26.0039
0
LINE
8
BLACK
6
CONTINUOUS
10
35.7181
20
-26.0039
11
35.6118
21
-25.8745
0
LINE
8
BLACK
6
CONTINUOUS
10
35.6118
20
-25.8745
11
35.5329
21
-25.7269
0
LINE
8
BLACK
6
CONTINUOUS
10
35.5329
20
-25.7269
11
35.4843
21
-25.5666
0
LINE
8
BLACK
6
CONTINUOUS
10
35.4843
20
-25.5666
11
35.4679
21
-25.4
0
LINE
8
BLACK
6
CONTINUOUS
10
35.4679
20
-25.4
11
35.4843
21
-25.2334
0
LINE
8
BLACK
6
CONTINUOUS
10
35.4843
20
-25.2334
11
35.5329
21
-25.0731
0
LINE
8
BLACK
6
CONTINUOUS
10
35.5329
20
-25.0731
11
35.6118
21
-24.9255
0
LINE
8
BLACK
6
CONTINUOUS
10
35.6118
20
-24.9255
11
35.7181
21
-24.7961
0
LINE
8
BLACK
6
CONTINUOUS
10
35.7181
20
-24.7961
11
35.8475
21
-24.6898
0
LINE
8
BLACK
6
CONTINUOUS
10
35.8475
20
-24.6898
11
35.9951
21
-24.6109
0
LINE
8
BLACK
6
CONTINUOUS
10
35.9951
20
-24.6109
11
36.1554
21
-24.5623
0
LINE
8
BLACK
6
CONTINUOUS
10
36.1554
20
-24.5623
11
36.2802
21
-24.55
0
LINE
8
BLACK
6
CONTINUOUS
10
36.2802
20
-24.55
11
36.3638
21
-24.55
0
LINE
8
BLACK
6
CONTINUOUS
10
36.3638
20
-24.55
11
36.4886
21
-24.5623
0
LINE
8
BLACK
6
CONTINUOUS
10
50.1049
20
-23.8343
11
50.305
21
-23.9172
0
LINE
8
BLACK
6
CONTINUOUS
10
50.305
20
-23.9172
11
50.4852
21
-24.0376
0
LINE
8
BLACK
6
CONTINUOUS
10
50.4852
20
-24.0376
11
50.6384
21
-24.1908
0
LINE
8
BLACK
6
CONTINUOUS
10
50.6384
20
-24.1908
11
50.7588
21
-24.371
0
LINE
8
BLACK
6
CONTINUOUS
10
50.7588
20
-24.371
11
50.8417
21
-24.5711
0
LINE
8
BLACK
6
CONTINUOUS
10
50.8417
20
-24.5711
11
50.884
21
-24.7837
0
LINE
8
BLACK
6
CONTINUOUS
10
50.884
20
-24.7837
11
50.884
21
-25.0003
0
LINE
8
BLACK
6
CONTINUOUS
10
50.884
20
-25.0003
11
50.8417
21
-25.2129
0
LINE
8
BLACK
6
CONTINUOUS
10
50.8417
20
-25.2129
11
50.7588
21
-25.413
0
LINE
8
BLACK
6
CONTINUOUS
10
50.7588
20
-25.413
11
50.7588
21
-25.413
0
LINE
8
BLACK
6
CONTINUOUS
10
50.7588
20
-25.413
11
50.6562
21
-25.5666
0
LINE
8
BLACK
6
CONTINUOUS
10
50.6562
20
-25.5666
11
50.6384
21
-25.5932
0
LINE
8
BLACK
6
CONTINUOUS
10
50.6384
20
-25.5932
11
50.4852
21
-25.7464
0
LINE
8
BLACK
6
CONTINUOUS
10
50.4852
20
-25.7464
11
50.305
21
-25.8668
0
LINE
8
BLACK
6
CONTINUOUS
10
50.305
20
-25.8668
11
50.1049
21
-25.9497
0
LINE
8
BLACK
6
CONTINUOUS
10
50.1049
20
-25.9497
11
49.8923
21
-25.992
0
LINE
8
BLACK
6
CONTINUOUS
10
49.8923
20
-25.992
11
49.6757
21
-25.992
0
LINE
8
BLACK
6
CONTINUOUS
10
49.6757
20
-25.992
11
49.4631
21
-25.9497
0
LINE
8
BLACK
6
CONTINUOUS
10
49.4631
20
-25.9497
11
49.263
21
-25.8668
0
LINE
8
BLACK
6
CONTINUOUS
10
49.263
20
-25.8668
11
49.0828
21
-25.7464
0
LINE
8
BLACK
6
CONTINUOUS
10
49.0828
20
-25.7464
11
48.9296
21
-25.5932
0
LINE
8
BLACK
6
CONTINUOUS
10
48.9296
20
-25.5932
11
48.9118
21
-25.5666
0
LINE
8
BLACK
6
CONTINUOUS
10
48.9118
20
-25.5666
11
48.8092
21
-25.413
0
LINE
8
BLACK
6
CONTINUOUS
10
48.8092
20
-25.413
11
48.8092
21
-25.413
0
LINE
8
BLACK
6
CONTINUOUS
10
48.8092
20
-25.413
11
48.7263
21
-25.2129
0
LINE
8
BLACK
6
CONTINUOUS
10
48.7263
20
-25.2129
11
48.684
21
-25.0003
0
LINE
8
BLACK
6
CONTINUOUS
10
48.684
20
-25.0003
11
48.684
21
-24.7837
0
LINE
8
BLACK
6
CONTINUOUS
10
48.684
20
-24.7837
11
48.7263
21
-24.5711
0
LINE
8
BLACK
6
CONTINUOUS
10
48.7263
20
-24.5711
11
48.8092
21
-24.371
0
LINE
8
BLACK
6
CONTINUOUS
10
48.8092
20
-24.371
11
48.9296
21
-24.1908
0
LINE
8
BLACK
6
CONTINUOUS
10
48.9296
20
-24.1908
11
49.0828
21
-24.0376
0
LINE
8
BLACK
6
CONTINUOUS
10
49.0828
20
-24.0376
11
49.263
21
-23.9172
0
LINE
8
BLACK
6
CONTINUOUS
10
49.263
20
-23.9172
11
49.4631
21
-23.8343
0
LINE
8
BLACK
6
CONTINUOUS
10
49.4631
20
-23.8343
11
49.6757
21
-23.792
0
LINE
8
BLACK
6
CONTINUOUS
10
49.6757
20
-23.792
11
49.8923
21
-23.792
0
LINE
8
BLACK
6
CONTINUOUS
10
49.8923
20
-23.792
11
50.1049
21
-23.8343
0
LINE
8
BLACK
6
CONTINUOUS
10
23.1809
20
-23.8343
11
23.381
21
-23.9172
0
LINE
8
BLACK
6
CONTINUOUS
10
23.381
20
-23.9172
11
23.5612
21
-24.0376
0
LINE
8
BLACK
6
CONTINUOUS
10
23.5612
20
-24.0376
11
23.7144
21
-24.1908
0
LINE
8
BLACK
6
CONTINUOUS
10
23.7144
20
-24.1908
11
23.8348
21
-24.371
0
LINE
8
BLACK
6
CONTINUOUS
10
23.8348
20
-24.371
11
23.9177
21
-24.5711
0
LINE
8
BLACK
6
CONTINUOUS
10
23.9177
20
-24.5711
11
23.96
21
-24.7837
0
LINE
8
BLACK
6
CONTINUOUS
10
23.96
20
-24.7837
11
23.96
21
-25.0003
0
LINE
8
BLACK
6
CONTINUOUS
10
23.96
20
-25.0003
11
23.9177
21
-25.2129
0
LINE
8
BLACK
6
CONTINUOUS
10
23.9177
20
-25.2129
11
23.8348
21
-25.413
0
LINE
8
BLACK
6
CONTINUOUS
10
23.8348
20
-25.413
11
23.8348
21
-25.413
0
LINE
8
BLACK
6
CONTINUOUS
10
23.8348
20
-25.413
11
23.7322
21
-25.5666
0
LINE
8
BLACK
6
CONTINUOUS
10
23.7322
20
-25.5666
11
23.7144
21
-25.5932
0
LINE
8
BLACK
6
CONTINUOUS
10
23.7144
20
-25.5932
11
23.5612
21
-25.7464
0
LINE
8
BLACK
6
CONTINUOUS
10
23.5612
20
-25.7464
11
23.381
21
-25.8668
0
LINE
8
BLACK
6
CONTINUOUS
10
23.381
20
-25.8668
11
23.1809
21
-25.9497
0
LINE
8
BLACK
6
CONTINUOUS
10
23.1809
20
-25.9497
11
22.9683
21
-25.992
0
LINE
8
BLACK
6
CONTINUOUS
10
22.9683
20
-25.992
11
22.7517
21
-25.992
0
LINE
8
BLACK
6
CONTINUOUS
10
22.7517
20
-25.992
11
22.5391
21
-25.9497
0
LINE
8
BLACK
6
CONTINUOUS
10
22.5391
20
-25.9497
11
22.339
21
-25.8668
0
LINE
8
BLACK
6
CONTINUOUS
10
22.339
20
-25.8668
11
22.1588
21
-25.7464
0
LINE
8
BLACK
6
CONTINUOUS
10
22.1588
20
-25.7464
11
22.0056
21
-25.5932
0
LINE
8
BLACK
6
CONTINUOUS
10
22.0056
20
-25.5932
11
21.9878
21
-25.5666
0
LINE
8
BLACK
6
CONTINUOUS
10
21.9878
20
-25.5666
11
21.8852
21
-25.413
0
LINE
8
BLACK
6
CONTINUOUS
10
21.8852
20
-25.413
11
21.8852
21
-25.413
0
LINE
8
BLACK
6
CONTINUOUS
10
21.8852
20
-25.413
11
21.8023
21
-25.2129
0
LINE
8
BLACK
6
CONTINUOUS
10
21.8023
20
-25.2129
11
21.76
21
-25.0003
0
LINE
8
BLACK
6
CONTINUOUS
10
21.76
20
-25.0003
11
21.76
21
-24.7837
0
LINE
8
BLACK
6
CONTINUOUS
10
21.76
20
-24.7837
11
21.8023
21
-24.5711
0
LINE
8
BLACK
6
CONTINUOUS
10
21.8023
20
-24.5711
11
21.8852
21
-24.371
0
LINE
8
BLACK
6
CONTINUOUS
10
21.8852
20
-24.371
11
22.0056
21
-24.1908
0
LINE
8
BLACK
6
CONTINUOUS
10
22.0056
20
-24.1908
11
22.1588
21
-24.0376
0
LINE
8
BLACK
6
CONTINUOUS
10
22.1588
20
-24.0376
11
22.339
21
-23.9172
0
LINE
8
BLACK
6
CONTINUOUS
10
22.339
20
-23.9172
11
22.5391
21
-23.8343
0
LINE
8
BLACK
6
CONTINUOUS
10
22.5391
20
-23.8343
11
22.7517
21
-23.792
0
LINE
8
BLACK
6
CONTINUOUS
10
22.7517
20
-23.792
11
22.9683
21
-23.792
0
LINE
8
BLACK
6
CONTINUOUS
10
22.9683
20
-23.792
11
23.1809
21
-23.8343
  0
ENDSEC
  0
EOF
