  0
SECTION
  2
HEADER
  9
$ANGBASE
  50
0.0
  9
$ANGDIR
  70
  1
  9
$MEASUREMENT
  70
0
  0
ENDSEC
  0
SECTION
  2
TABLES
  0
TABLE
  2
LTYPE
  70
4
  0
LTYPE
  5
40F
  2
CONTINUOUS
  70
0
  3
Solid line
  72
65
  73
0
  40
0.0
  0
LTYPE
  5
410
  2
DASHDOT
 70
0
  3
Dash Dot ____ _ ____ _
 72
65
 73
4
 40
2.0
 49
1.25
 49
-0.25
 49
0.25
 49
-0.25
  0
LTYPE
  5
411
  2
DASHED
 70
0
  3
Dashed __ __ __ __ __
 72
65
 73
2
 40
0.75
 49
0.5
 49
-0.25
  0
LTYPE
  5
43B
  2
DOTTED
 70
0
  3
Dotted .  .  .  .
 72
65
 73
2
 40
0.2
 49
0.0
 49
-0.2
  0
ENDTAB
  0
TABLE
  2
STYLE
  70
4
  0
STYLE
  2
KICAD
  70
0
  40
0
  41
1
  42
1
  50
0
  71
0
  3
isocp.shx
  0
STYLE
  2
KICADB
  70
0
  40
0
  41
1
  42
1
  50
0
  71
0
  3
isocp.shx
  0
STYLE
  2
KICADI
  70
0
  40
0
  41
1
  42
1
  50
15
  71
0
  3
isocp.shx
  0
STYLE
  2
KICADBI
  70
0
  40
0
  41
1
  42
1
  50
15
  71
0
  3
isocp.shx
  0
ENDTAB
  0
TABLE
  2
LAYER
  70
30
  0
LAYER
  2
BLACK
  70
0
  62
7
  6
CONTINUOUS
  0
LAYER
  2
GRAY1
  70
0
  62
251
  6
CONTINUOUS
  0
LAYER
  2
GRAY2
  70
0
  62
8
  6
CONTINUOUS
  0
LAYER
  2
GRAY3
  70
0
  62
9
  6
CONTINUOUS
  0
LAYER
  2
WHITE
  70
0
  62
7
  6
CONTINUOUS
  0
LAYER
  2
LYELLOW
  70
0
  62
51
  6
CONTINUOUS
  0
LAYER
  2
BLUE1
  70
0
  62
178
  6
CONTINUOUS
  0
LAYER
  2
GREEN1
  70
0
  62
98
  6
CONTINUOUS
  0
LAYER
  2
CYAN1
  70
0
  62
138
  6
CONTINUOUS
  0
LAYER
  2
RED1
  70
0
  62
18
  6
CONTINUOUS
  0
LAYER
  2
MAGENTA1
  70
0
  62
228
  6
CONTINUOUS
  0
LAYER
  2
BROWN1
  70
0
  62
58
  6
CONTINUOUS
  0
LAYER
  2
BLUE2
  70
0
  62
5
  6
CONTINUOUS
  0
LAYER
  2
GREEN2
  70
0
  62
3
  6
CONTINUOUS
  0
LAYER
  2
CYAN2
  70
0
  62
4
  6
CONTINUOUS
  0
LAYER
  2
RED2
  70
0
  62
1
  6
CONTINUOUS
  0
LAYER
  2
MAGENTA2
  70
0
  62
6
  6
CONTINUOUS
  0
LAYER
  2
BROWN2
  70
0
  62
54
  6
CONTINUOUS
  0
LAYER
  2
BLUE3
  70
0
  62
171
  6
CONTINUOUS
  0
LAYER
  2
GREEN3
  70
0
  62
91
  6
CONTINUOUS
  0
LAYER
  2
CYAN3
  70
0
  62
131
  6
CONTINUOUS
  0
LAYER
  2
RED3
  70
0
  62
11
  6
CONTINUOUS
  0
LAYER
  2
MAGENTA3
  70
0
  62
221
  6
CONTINUOUS
  0
LAYER
  2
YELLOW3
  70
0
  62
2
  6
CONTINUOUS
  0
LAYER
  2
BLUE4
  70
0
  62
5
  6
CONTINUOUS
  0
LAYER
  2
GREEN4
  70
0
  62
3
  6
CONTINUOUS
  0
LAYER
  2
CYAN4
  70
0
  62
4
  6
CONTINUOUS
  0
LAYER
  2
RED4
  70
0
  62
1
  6
CONTINUOUS
  0
LAYER
  2
MAGENTA4
  70
0
  62
6
  6
CONTINUOUS
  0
LAYER
  2
YELLOW4
  70
0
  62
2
  6
CONTINUOUS
  0
ENDTAB
  0
ENDSEC
  0
SECTION
  2
ENTITIES
0
LINE
8
BLACK
6
CONTINUOUS
10
41.4673
20
-68.46
11
41.4726
21
-68.46
0
LINE
8
BLACK
6
CONTINUOUS
10
41.4726
20
-68.46
11
41.4776
21
-68.4618
0
LINE
8
BLACK
6
CONTINUOUS
10
41.4776
20
-68.4618
11
41.4828
21
-68.4627
0
LINE
8
BLACK
6
CONTINUOUS
10
41.4828
20
-68.4627
11
41.4875
21
-68.4654
0
LINE
8
BLACK
6
CONTINUOUS
10
41.4875
20
-68.4654
11
41.4925
21
-68.4672
0
LINE
8
BLACK
6
CONTINUOUS
10
41.4925
20
-68.4672
11
41.4965
21
-68.4707
0
LINE
8
BLACK
6
CONTINUOUS
10
41.4965
20
-68.4707
11
41.5012
21
-68.4733
0
LINE
8
BLACK
6
CONTINUOUS
10
41.5012
20
-68.4733
11
41.5046
21
-68.4774
0
LINE
8
BLACK
6
CONTINUOUS
10
41.5046
20
-68.4774
11
41.5087
21
-68.4808
0
LINE
8
BLACK
6
CONTINUOUS
10
41.5087
20
-68.4808
11
41.5113
21
-68.4855
0
LINE
8
BLACK
6
CONTINUOUS
10
41.5113
20
-68.4855
11
41.5148
21
-68.4895
0
LINE
8
BLACK
6
CONTINUOUS
10
41.5148
20
-68.4895
11
41.5166
21
-68.4945
0
LINE
8
BLACK
6
CONTINUOUS
10
41.5166
20
-68.4945
11
41.5193
21
-68.4992
0
LINE
8
BLACK
6
CONTINUOUS
10
41.5193
20
-68.4992
11
41.5202
21
-68.5044
0
LINE
8
BLACK
6
CONTINUOUS
10
41.5202
20
-68.5044
11
41.522
21
-68.5094
0
LINE
8
BLACK
6
CONTINUOUS
10
41.522
20
-68.5094
11
41.522
21
-68.5147
0
LINE
8
BLACK
6
CONTINUOUS
10
41.522
20
-68.5147
11
41.522
21
-68.5148
0
LINE
8
BLACK
6
CONTINUOUS
10
41.522
20
-68.5148
11
41.522
21
-71.1852
0
LINE
8
BLACK
6
CONTINUOUS
10
41.522
20
-71.1852
11
41.522
21
-71.1853
0
LINE
8
BLACK
6
CONTINUOUS
10
41.522
20
-71.1853
11
41.522
21
-71.1906
0
LINE
8
BLACK
6
CONTINUOUS
10
41.522
20
-71.1906
11
41.5202
21
-71.1956
0
LINE
8
BLACK
6
CONTINUOUS
10
41.5202
20
-71.1956
11
41.5193
21
-71.2008
0
LINE
8
BLACK
6
CONTINUOUS
10
41.5193
20
-71.2008
11
41.5166
21
-71.2055
0
LINE
8
BLACK
6
CONTINUOUS
10
41.5166
20
-71.2055
11
41.5148
21
-71.2105
0
LINE
8
BLACK
6
CONTINUOUS
10
41.5148
20
-71.2105
11
41.5113
21
-71.2145
0
LINE
8
BLACK
6
CONTINUOUS
10
41.5113
20
-71.2145
11
41.5087
21
-71.2192
0
LINE
8
BLACK
6
CONTINUOUS
10
41.5087
20
-71.2192
11
41.5046
21
-71.2226
0
LINE
8
BLACK
6
CONTINUOUS
10
41.5046
20
-71.2226
11
41.5012
21
-71.2267
0
LINE
8
BLACK
6
CONTINUOUS
10
41.5012
20
-71.2267
11
41.4965
21
-71.2293
0
LINE
8
BLACK
6
CONTINUOUS
10
41.4965
20
-71.2293
11
41.4925
21
-71.2328
0
LINE
8
BLACK
6
CONTINUOUS
10
41.4925
20
-71.2328
11
41.4875
21
-71.2346
0
LINE
8
BLACK
6
CONTINUOUS
10
41.4875
20
-71.2346
11
41.4828
21
-71.2373
0
LINE
8
BLACK
6
CONTINUOUS
10
41.4828
20
-71.2373
11
41.4776
21
-71.2382
0
LINE
8
BLACK
6
CONTINUOUS
10
41.4776
20
-71.2382
11
41.4726
21
-71.24
0
LINE
8
BLACK
6
CONTINUOUS
10
41.4726
20
-71.24
11
41.4673
21
-71.24
0
LINE
8
BLACK
6
CONTINUOUS
10
41.4673
20
-71.24
11
41.4672
21
-71.24
0
LINE
8
BLACK
6
CONTINUOUS
10
41.4672
20
-71.24
11
31.2368
21
-71.24
0
LINE
8
BLACK
6
CONTINUOUS
10
31.2368
20
-71.24
11
31.2367
21
-71.24
0
LINE
8
BLACK
6
CONTINUOUS
10
31.2367
20
-71.24
11
31.2314
21
-71.24
0
LINE
8
BLACK
6
CONTINUOUS
10
31.2314
20
-71.24
11
31.2264
21
-71.2382
0
LINE
8
BLACK
6
CONTINUOUS
10
31.2264
20
-71.2382
11
31.2212
21
-71.2373
0
LINE
8
BLACK
6
CONTINUOUS
10
31.2212
20
-71.2373
11
31.2165
21
-71.2346
0
LINE
8
BLACK
6
CONTINUOUS
10
31.2165
20
-71.2346
11
31.2115
21
-71.2328
0
LINE
8
BLACK
6
CONTINUOUS
10
31.2115
20
-71.2328
11
31.2075
21
-71.2293
0
LINE
8
BLACK
6
CONTINUOUS
10
31.2075
20
-71.2293
11
31.2028
21
-71.2267
0
LINE
8
BLACK
6
CONTINUOUS
10
31.2028
20
-71.2267
11
31.1994
21
-71.2226
0
LINE
8
BLACK
6
CONTINUOUS
10
31.1994
20
-71.2226
11
31.1953
21
-71.2192
0
LINE
8
BLACK
6
CONTINUOUS
10
31.1953
20
-71.2192
11
31.1927
21
-71.2145
0
LINE
8
BLACK
6
CONTINUOUS
10
31.1927
20
-71.2145
11
31.1892
21
-71.2105
0
LINE
8
BLACK
6
CONTINUOUS
10
31.1892
20
-71.2105
11
31.1874
21
-71.2055
0
LINE
8
BLACK
6
CONTINUOUS
10
31.1874
20
-71.2055
11
31.1847
21
-71.2008
0
LINE
8
BLACK
6
CONTINUOUS
10
31.1847
20
-71.2008
11
31.1838
21
-71.1956
0
LINE
8
BLACK
6
CONTINUOUS
10
31.1838
20
-71.1956
11
31.182
21
-71.1906
0
LINE
8
BLACK
6
CONTINUOUS
10
31.182
20
-71.1906
11
31.182
21
-71.1853
0
LINE
8
BLACK
6
CONTINUOUS
10
31.182
20
-71.1853
11
31.182
21
-71.1852
0
LINE
8
BLACK
6
CONTINUOUS
10
31.182
20
-71.1852
11
31.182
21
-68.5148
0
LINE
8
BLACK
6
CONTINUOUS
10
31.182
20
-68.5148
11
31.182
21
-68.5094
0
LINE
8
BLACK
6
CONTINUOUS
10
31.182
20
-68.5094
11
31.1838
21
-68.5044
0
LINE
8
BLACK
6
CONTINUOUS
10
31.1838
20
-68.5044
11
31.1847
21
-68.4992
0
LINE
8
BLACK
6
CONTINUOUS
10
31.1847
20
-68.4992
11
31.1874
21
-68.4946
0
LINE
8
BLACK
6
CONTINUOUS
10
31.1874
20
-68.4946
11
31.1892
21
-68.4895
0
LINE
8
BLACK
6
CONTINUOUS
10
31.1892
20
-68.4895
11
31.1927
21
-68.4854
0
LINE
8
BLACK
6
CONTINUOUS
10
31.1927
20
-68.4854
11
31.1953
21
-68.4808
0
LINE
8
BLACK
6
CONTINUOUS
10
31.1953
20
-68.4808
11
31.1994
21
-68.4774
0
LINE
8
BLACK
6
CONTINUOUS
10
31.1994
20
-68.4774
11
31.2028
21
-68.4733
0
LINE
8
BLACK
6
CONTINUOUS
10
31.2028
20
-68.4733
11
31.2075
21
-68.4707
0
LINE
8
BLACK
6
CONTINUOUS
10
31.2075
20
-68.4707
11
31.2115
21
-68.4672
0
LINE
8
BLACK
6
CONTINUOUS
10
31.2115
20
-68.4672
11
31.2165
21
-68.4654
0
LINE
8
BLACK
6
CONTINUOUS
10
31.2165
20
-68.4654
11
31.2212
21
-68.4627
0
LINE
8
BLACK
6
CONTINUOUS
10
31.2212
20
-68.4627
11
31.2264
21
-68.4618
0
LINE
8
BLACK
6
CONTINUOUS
10
31.2264
20
-68.4618
11
31.2314
21
-68.46
0
LINE
8
BLACK
6
CONTINUOUS
10
31.2314
20
-68.46
11
31.2367
21
-68.46
0
LINE
8
BLACK
6
CONTINUOUS
10
31.2367
20
-68.46
11
31.2368
21
-68.46
0
LINE
8
BLACK
6
CONTINUOUS
10
31.2368
20
-68.46
11
41.4672
21
-68.46
0
LINE
8
BLACK
6
CONTINUOUS
10
41.4672
20
-68.46
11
41.4673
21
-68.46
0
LINE
8
BLACK
6
CONTINUOUS
10
31.302
20
-68.58
11
31.302
21
-71.12
0
LINE
8
BLACK
6
CONTINUOUS
10
31.302
20
-71.12
11
41.402
21
-71.12
0
LINE
8
BLACK
6
CONTINUOUS
10
41.402
20
-71.12
11
41.402
21
-68.58
0
LINE
8
BLACK
6
CONTINUOUS
10
41.402
20
-68.58
11
31.302
21
-68.58
0
LINE
8
BLACK
6
CONTINUOUS
10
28.6725
20
-69.7972
11
28.6887
21
-69.8108
0
LINE
8
BLACK
6
CONTINUOUS
10
28.6887
20
-69.8108
11
28.6993
21
-69.8292
0
LINE
8
BLACK
6
CONTINUOUS
10
28.6993
20
-69.8292
11
28.702
21
-69.8448
0
LINE
8
BLACK
6
CONTINUOUS
10
28.702
20
-69.8448
11
28.702
21
-71.12
0
LINE
8
BLACK
6
CONTINUOUS
10
28.702
20
-71.12
11
29.9772
21
-71.12
0
LINE
8
BLACK
6
CONTINUOUS
10
29.9772
20
-71.12
11
29.9928
21
-71.1227
0
LINE
8
BLACK
6
CONTINUOUS
10
29.9928
20
-71.1227
11
30.0112
21
-71.1333
0
LINE
8
BLACK
6
CONTINUOUS
10
30.0112
20
-71.1333
11
30.0248
21
-71.1495
0
LINE
8
BLACK
6
CONTINUOUS
10
30.0248
20
-71.1495
11
30.032
21
-71.1694
0
LINE
8
BLACK
6
CONTINUOUS
10
30.032
20
-71.1694
11
30.032
21
-71.1906
0
LINE
8
BLACK
6
CONTINUOUS
10
30.032
20
-71.1906
11
30.0248
21
-71.2105
0
LINE
8
BLACK
6
CONTINUOUS
10
30.0248
20
-71.2105
11
30.0112
21
-71.2267
0
LINE
8
BLACK
6
CONTINUOUS
10
30.0112
20
-71.2267
11
29.9928
21
-71.2373
0
LINE
8
BLACK
6
CONTINUOUS
10
29.9928
20
-71.2373
11
29.9772
21
-71.24
0
LINE
8
BLACK
6
CONTINUOUS
10
29.9772
20
-71.24
11
28.6368
21
-71.24
0
LINE
8
BLACK
6
CONTINUOUS
10
28.6368
20
-71.24
11
28.6367
21
-71.24
0
LINE
8
BLACK
6
CONTINUOUS
10
28.6367
20
-71.24
11
28.6314
21
-71.24
0
LINE
8
BLACK
6
CONTINUOUS
10
28.6314
20
-71.24
11
28.6264
21
-71.2382
0
LINE
8
BLACK
6
CONTINUOUS
10
28.6264
20
-71.2382
11
28.6212
21
-71.2373
0
LINE
8
BLACK
6
CONTINUOUS
10
28.6212
20
-71.2373
11
28.6165
21
-71.2346
0
LINE
8
BLACK
6
CONTINUOUS
10
28.6165
20
-71.2346
11
28.6115
21
-71.2328
0
LINE
8
BLACK
6
CONTINUOUS
10
28.6115
20
-71.2328
11
28.6075
21
-71.2293
0
LINE
8
BLACK
6
CONTINUOUS
10
28.6075
20
-71.2293
11
28.6028
21
-71.2267
0
LINE
8
BLACK
6
CONTINUOUS
10
28.6028
20
-71.2267
11
28.5994
21
-71.2226
0
LINE
8
BLACK
6
CONTINUOUS
10
28.5994
20
-71.2226
11
28.5953
21
-71.2192
0
LINE
8
BLACK
6
CONTINUOUS
10
28.5953
20
-71.2192
11
28.5927
21
-71.2145
0
LINE
8
BLACK
6
CONTINUOUS
10
28.5927
20
-71.2145
11
28.5892
21
-71.2105
0
LINE
8
BLACK
6
CONTINUOUS
10
28.5892
20
-71.2105
11
28.5874
21
-71.2055
0
LINE
8
BLACK
6
CONTINUOUS
10
28.5874
20
-71.2055
11
28.5847
21
-71.2008
0
LINE
8
BLACK
6
CONTINUOUS
10
28.5847
20
-71.2008
11
28.5838
21
-71.1956
0
LINE
8
BLACK
6
CONTINUOUS
10
28.5838
20
-71.1956
11
28.582
21
-71.1906
0
LINE
8
BLACK
6
CONTINUOUS
10
28.582
20
-71.1906
11
28.582
21
-71.1853
0
LINE
8
BLACK
6
CONTINUOUS
10
28.582
20
-71.1853
11
28.582
21
-71.1852
0
LINE
8
BLACK
6
CONTINUOUS
10
28.582
20
-71.1852
11
28.582
21
-69.8448
0
LINE
8
BLACK
6
CONTINUOUS
10
28.582
20
-69.8448
11
28.5847
21
-69.8292
0
LINE
8
BLACK
6
CONTINUOUS
10
28.5847
20
-69.8292
11
28.5953
21
-69.8108
0
LINE
8
BLACK
6
CONTINUOUS
10
28.5953
20
-69.8108
11
28.6115
21
-69.7972
0
LINE
8
BLACK
6
CONTINUOUS
10
28.6115
20
-69.7972
11
28.6314
21
-69.79
0
LINE
8
BLACK
6
CONTINUOUS
10
28.6314
20
-69.79
11
28.6526
21
-69.79
0
LINE
8
BLACK
6
CONTINUOUS
10
28.6526
20
-69.79
11
28.6725
21
-69.7972
0
LINE
8
BLACK
6
CONTINUOUS
10
27.8205
20
-70.1104
11
27.8324
21
-70.1122
0
LINE
8
BLACK
6
CONTINUOUS
10
27.8324
20
-70.1122
11
27.9752
21
-70.1598
0
LINE
8
BLACK
6
CONTINUOUS
10
27.9752
20
-70.1598
11
27.979
21
-70.1619
0
LINE
8
BLACK
6
CONTINUOUS
10
27.979
20
-70.1619
11
27.9832
21
-70.163
0
LINE
8
BLACK
6
CONTINUOUS
10
27.9832
20
-70.163
11
27.9904
21
-70.168
0
LINE
8
BLACK
6
CONTINUOUS
10
27.9904
20
-70.168
11
27.9981
21
-70.1722
0
LINE
8
BLACK
6
CONTINUOUS
10
27.9981
20
-70.1722
11
28.001
21
-70.1754
0
LINE
8
BLACK
6
CONTINUOUS
10
28.001
20
-70.1754
11
28.0046
21
-70.1779
0
LINE
8
BLACK
6
CONTINUOUS
10
28.0046
20
-70.1779
11
28.0998
21
-70.2732
0
LINE
8
BLACK
6
CONTINUOUS
10
28.0998
20
-70.2732
11
28.1023
21
-70.2767
0
LINE
8
BLACK
6
CONTINUOUS
10
28.1023
20
-70.2767
11
28.1055
21
-70.2796
0
LINE
8
BLACK
6
CONTINUOUS
10
28.1055
20
-70.2796
11
28.1097
21
-70.2873
0
LINE
8
BLACK
6
CONTINUOUS
10
28.1097
20
-70.2873
11
28.1147
21
-70.2945
0
LINE
8
BLACK
6
CONTINUOUS
10
28.1147
20
-70.2945
11
28.1159
21
-70.2987
0
LINE
8
BLACK
6
CONTINUOUS
10
28.1159
20
-70.2987
11
28.1179
21
-70.3025
0
LINE
8
BLACK
6
CONTINUOUS
10
28.1179
20
-70.3025
11
28.1655
21
-70.4453
0
LINE
8
BLACK
6
CONTINUOUS
10
28.1655
20
-70.4453
11
28.1673
21
-70.4572
0
LINE
8
BLACK
6
CONTINUOUS
10
28.1673
20
-70.4572
11
28.1694
21
-70.469
0
LINE
8
BLACK
6
CONTINUOUS
10
28.1694
20
-70.469
11
28.1694
21
-70.5643
0
LINE
8
BLACK
6
CONTINUOUS
10
28.1694
20
-70.5643
11
28.1649
21
-70.5899
0
LINE
8
BLACK
6
CONTINUOUS
10
28.1649
20
-70.5899
11
28.1518
21
-70.6125
0
LINE
8
BLACK
6
CONTINUOUS
10
28.1518
20
-70.6125
11
28.1319
21
-70.6292
0
LINE
8
BLACK
6
CONTINUOUS
10
28.1319
20
-70.6292
11
28.1074
21
-70.6381
0
LINE
8
BLACK
6
CONTINUOUS
10
28.1074
20
-70.6381
11
28.0814
21
-70.6381
0
LINE
8
BLACK
6
CONTINUOUS
10
28.0814
20
-70.6381
11
28.0569
21
-70.6292
0
LINE
8
BLACK
6
CONTINUOUS
10
28.0569
20
-70.6292
11
28.0369
21
-70.6125
0
LINE
8
BLACK
6
CONTINUOUS
10
28.0369
20
-70.6125
11
28.0239
21
-70.5899
0
LINE
8
BLACK
6
CONTINUOUS
10
28.0239
20
-70.5899
11
28.0194
21
-70.5643
0
LINE
8
BLACK
6
CONTINUOUS
10
28.0194
20
-70.5643
11
28.0194
21
-70.4812
0
LINE
8
BLACK
6
CONTINUOUS
10
28.0194
20
-70.4812
11
27.9812
21
-70.3667
0
LINE
8
BLACK
6
CONTINUOUS
10
27.9812
20
-70.3667
11
27.911
21
-70.2965
0
LINE
8
BLACK
6
CONTINUOUS
10
27.911
20
-70.2965
11
27.7965
21
-70.2583
0
LINE
8
BLACK
6
CONTINUOUS
10
27.7965
20
-70.2583
11
27.0944
21
-70.2583
0
LINE
8
BLACK
6
CONTINUOUS
10
27.0944
20
-70.2583
11
27.0687
21
-70.2538
0
LINE
8
BLACK
6
CONTINUOUS
10
27.0687
20
-70.2538
11
27.0462
21
-70.2408
0
LINE
8
BLACK
6
CONTINUOUS
10
27.0462
20
-70.2408
11
27.0294
21
-70.2208
0
LINE
8
BLACK
6
CONTINUOUS
10
27.0294
20
-70.2208
11
27.0205
21
-70.1964
0
LINE
8
BLACK
6
CONTINUOUS
10
27.0205
20
-70.1964
11
27.0205
21
-70.1703
0
LINE
8
BLACK
6
CONTINUOUS
10
27.0205
20
-70.1703
11
27.0294
21
-70.1458
0
LINE
8
BLACK
6
CONTINUOUS
10
27.0294
20
-70.1458
11
27.0462
21
-70.1259
0
LINE
8
BLACK
6
CONTINUOUS
10
27.0462
20
-70.1259
11
27.0687
21
-70.1129
0
LINE
8
BLACK
6
CONTINUOUS
10
27.0687
20
-70.1129
11
27.0944
21
-70.1083
0
LINE
8
BLACK
6
CONTINUOUS
10
27.0944
20
-70.1083
11
27.8087
21
-70.1083
0
LINE
8
BLACK
6
CONTINUOUS
10
27.8087
20
-70.1083
11
27.8205
21
-70.1104
0
LINE
8
BLACK
6
CONTINUOUS
10
28.1319
20
-69.1184
11
28.1518
21
-69.1351
0
LINE
8
BLACK
6
CONTINUOUS
10
28.1518
20
-69.1351
11
28.1649
21
-69.1577
0
LINE
8
BLACK
6
CONTINUOUS
10
28.1649
20
-69.1577
11
28.1694
21
-69.1833
0
LINE
8
BLACK
6
CONTINUOUS
10
28.1694
20
-69.1833
11
28.1694
21
-69.7548
0
LINE
8
BLACK
6
CONTINUOUS
10
28.1694
20
-69.7548
11
28.1649
21
-69.7804
0
LINE
8
BLACK
6
CONTINUOUS
10
28.1649
20
-69.7804
11
28.1518
21
-69.803
0
LINE
8
BLACK
6
CONTINUOUS
10
28.1518
20
-69.803
11
28.1319
21
-69.8197
0
LINE
8
BLACK
6
CONTINUOUS
10
28.1319
20
-69.8197
11
28.1074
21
-69.8286
0
LINE
8
BLACK
6
CONTINUOUS
10
28.1074
20
-69.8286
11
28.0814
21
-69.8286
0
LINE
8
BLACK
6
CONTINUOUS
10
28.0814
20
-69.8286
11
28.0569
21
-69.8197
0
LINE
8
BLACK
6
CONTINUOUS
10
28.0569
20
-69.8197
11
28.0369
21
-69.803
0
LINE
8
BLACK
6
CONTINUOUS
10
28.0369
20
-69.803
11
28.0239
21
-69.7804
0
LINE
8
BLACK
6
CONTINUOUS
10
28.0239
20
-69.7804
11
28.0194
21
-69.7548
0
LINE
8
BLACK
6
CONTINUOUS
10
28.0194
20
-69.7548
11
28.0194
21
-69.544
0
LINE
8
BLACK
6
CONTINUOUS
10
28.0194
20
-69.544
11
27.3231
21
-69.544
0
LINE
8
BLACK
6
CONTINUOUS
10
27.3231
20
-69.544
11
27.3855
21
-69.6065
0
LINE
8
BLACK
6
CONTINUOUS
10
27.3855
20
-69.6065
11
27.3924
21
-69.6163
0
LINE
8
BLACK
6
CONTINUOUS
10
27.3924
20
-69.6163
11
27.3996
21
-69.626
0
LINE
8
BLACK
6
CONTINUOUS
10
27.3996
20
-69.626
11
27.4472
21
-69.7212
0
LINE
8
BLACK
6
CONTINUOUS
10
27.4472
20
-69.7212
11
27.4546
21
-69.7462
0
LINE
8
BLACK
6
CONTINUOUS
10
27.4546
20
-69.7462
11
27.453
21
-69.7722
0
LINE
8
BLACK
6
CONTINUOUS
10
27.453
20
-69.7722
11
27.4427
21
-69.7961
0
LINE
8
BLACK
6
CONTINUOUS
10
27.4427
20
-69.7961
11
27.4248
21
-69.815
0
LINE
8
BLACK
6
CONTINUOUS
10
27.4248
20
-69.815
11
27.4015
21
-69.8266
0
LINE
8
BLACK
6
CONTINUOUS
10
27.4015
20
-69.8266
11
27.3756
21
-69.8296
0
LINE
8
BLACK
6
CONTINUOUS
10
27.3756
20
-69.8296
11
27.3503
21
-69.8236
0
LINE
8
BLACK
6
CONTINUOUS
10
27.3503
20
-69.8236
11
27.3285
21
-69.8092
0
LINE
8
BLACK
6
CONTINUOUS
10
27.3285
20
-69.8092
11
27.313
21
-69.7883
0
LINE
8
BLACK
6
CONTINUOUS
10
27.313
20
-69.7883
11
27.2708
21
-69.7039
0
LINE
8
BLACK
6
CONTINUOUS
10
27.2708
20
-69.7039
11
27.1895
21
-69.6226
0
LINE
8
BLACK
6
CONTINUOUS
10
27.1895
20
-69.6226
11
27.0528
21
-69.5315
0
LINE
8
BLACK
6
CONTINUOUS
10
27.0528
20
-69.5315
11
27.0498
21
-69.5286
0
LINE
8
BLACK
6
CONTINUOUS
10
27.0498
20
-69.5286
11
27.0462
21
-69.5265
0
LINE
8
BLACK
6
CONTINUOUS
10
27.0462
20
-69.5265
11
27.0404
21
-69.5196
0
LINE
8
BLACK
6
CONTINUOUS
10
27.0404
20
-69.5196
11
27.0339
21
-69.5135
0
LINE
8
BLACK
6
CONTINUOUS
10
27.0339
20
-69.5135
11
27.0321
21
-69.5097
0
LINE
8
BLACK
6
CONTINUOUS
10
27.0321
20
-69.5097
11
27.0294
21
-69.5065
0
LINE
8
BLACK
6
CONTINUOUS
10
27.0294
20
-69.5065
11
27.0264
21
-69.4981
0
LINE
8
BLACK
6
CONTINUOUS
10
27.0264
20
-69.4981
11
27.0224
21
-69.4901
0
LINE
8
BLACK
6
CONTINUOUS
10
27.0224
20
-69.4901
11
27.0219
21
-69.486
0
LINE
8
BLACK
6
CONTINUOUS
10
27.0219
20
-69.486
11
27.0205
21
-69.4821
0
LINE
8
BLACK
6
CONTINUOUS
10
27.0205
20
-69.4821
11
27.0205
21
-69.4731
0
LINE
8
BLACK
6
CONTINUOUS
10
27.0205
20
-69.4731
11
27.0195
21
-69.4642
0
LINE
8
BLACK
6
CONTINUOUS
10
27.0195
20
-69.4642
11
27.0205
21
-69.4602
0
LINE
8
BLACK
6
CONTINUOUS
10
27.0205
20
-69.4602
11
27.0205
21
-69.456
0
LINE
8
BLACK
6
CONTINUOUS
10
27.0205
20
-69.456
11
27.0236
21
-69.4476
0
LINE
8
BLACK
6
CONTINUOUS
10
27.0236
20
-69.4476
11
27.0257
21
-69.4389
0
LINE
8
BLACK
6
CONTINUOUS
10
27.0257
20
-69.4389
11
27.028
21
-69.4355
0
LINE
8
BLACK
6
CONTINUOUS
10
27.028
20
-69.4355
11
27.0294
21
-69.4315
0
LINE
8
BLACK
6
CONTINUOUS
10
27.0294
20
-69.4315
11
27.0352
21
-69.4247
0
LINE
8
BLACK
6
CONTINUOUS
10
27.0352
20
-69.4247
11
27.0401
21
-69.4172
0
LINE
8
BLACK
6
CONTINUOUS
10
27.0401
20
-69.4172
11
27.0435
21
-69.4148
0
LINE
8
BLACK
6
CONTINUOUS
10
27.0435
20
-69.4148
11
27.0462
21
-69.4116
0
LINE
8
BLACK
6
CONTINUOUS
10
27.0462
20
-69.4116
11
27.0539
21
-69.4071
0
LINE
8
BLACK
6
CONTINUOUS
10
27.0539
20
-69.4071
11
27.0611
21
-69.4018
0
LINE
8
BLACK
6
CONTINUOUS
10
27.0611
20
-69.4018
11
27.0651
21
-69.4006
0
LINE
8
BLACK
6
CONTINUOUS
10
27.0651
20
-69.4006
11
27.0687
21
-69.3986
0
LINE
8
BLACK
6
CONTINUOUS
10
27.0687
20
-69.3986
11
27.0775
21
-69.397
0
LINE
8
BLACK
6
CONTINUOUS
10
27.0775
20
-69.397
11
27.0861
21
-69.3945
0
LINE
8
BLACK
6
CONTINUOUS
10
27.0861
20
-69.3945
11
27.0903
21
-69.3948
0
LINE
8
BLACK
6
CONTINUOUS
10
27.0903
20
-69.3948
11
27.0944
21
-69.394
0
LINE
8
BLACK
6
CONTINUOUS
10
27.0944
20
-69.394
11
28.0194
21
-69.394
0
LINE
8
BLACK
6
CONTINUOUS
10
28.0194
20
-69.394
11
28.0194
21
-69.1833
0
LINE
8
BLACK
6
CONTINUOUS
10
28.0194
20
-69.1833
11
28.0239
21
-69.1577
0
LINE
8
BLACK
6
CONTINUOUS
10
28.0239
20
-69.1577
11
28.0369
21
-69.1351
0
LINE
8
BLACK
6
CONTINUOUS
10
28.0369
20
-69.1351
11
28.0569
21
-69.1184
0
LINE
8
BLACK
6
CONTINUOUS
10
28.0569
20
-69.1184
11
28.0814
21
-69.1095
0
LINE
8
BLACK
6
CONTINUOUS
10
28.0814
20
-69.1095
11
28.1074
21
-69.1095
0
LINE
8
BLACK
6
CONTINUOUS
10
28.1074
20
-69.1095
11
28.1319
21
-69.1184
0
LINE
8
BLACK
6
CONTINUOUS
10
46.6073
20
-57.284
11
46.6126
21
-57.284
0
LINE
8
BLACK
6
CONTINUOUS
10
46.6126
20
-57.284
11
46.6176
21
-57.2858
0
LINE
8
BLACK
6
CONTINUOUS
10
46.6176
20
-57.2858
11
46.6228
21
-57.2867
0
LINE
8
BLACK
6
CONTINUOUS
10
46.6228
20
-57.2867
11
46.6275
21
-57.2894
0
LINE
8
BLACK
6
CONTINUOUS
10
46.6275
20
-57.2894
11
46.6325
21
-57.2912
0
LINE
8
BLACK
6
CONTINUOUS
10
46.6325
20
-57.2912
11
46.6365
21
-57.2947
0
LINE
8
BLACK
6
CONTINUOUS
10
46.6365
20
-57.2947
11
46.6412
21
-57.2973
0
LINE
8
BLACK
6
CONTINUOUS
10
46.6412
20
-57.2973
11
46.6446
21
-57.3014
0
LINE
8
BLACK
6
CONTINUOUS
10
46.6446
20
-57.3014
11
46.6487
21
-57.3048
0
LINE
8
BLACK
6
CONTINUOUS
10
46.6487
20
-57.3048
11
46.6513
21
-57.3095
0
LINE
8
BLACK
6
CONTINUOUS
10
46.6513
20
-57.3095
11
46.6548
21
-57.3135
0
LINE
8
BLACK
6
CONTINUOUS
10
46.6548
20
-57.3135
11
46.6566
21
-57.3185
0
LINE
8
BLACK
6
CONTINUOUS
10
46.6566
20
-57.3185
11
46.6593
21
-57.3232
0
LINE
8
BLACK
6
CONTINUOUS
10
46.6593
20
-57.3232
11
46.6602
21
-57.3284
0
LINE
8
BLACK
6
CONTINUOUS
10
46.6602
20
-57.3284
11
46.662
21
-57.3334
0
LINE
8
BLACK
6
CONTINUOUS
10
46.662
20
-57.3334
11
46.662
21
-57.3387
0
LINE
8
BLACK
6
CONTINUOUS
10
46.662
20
-57.3387
11
46.662
21
-57.3388
0
LINE
8
BLACK
6
CONTINUOUS
10
46.662
20
-57.3388
11
46.662
21
-67.6292
0
LINE
8
BLACK
6
CONTINUOUS
10
46.662
20
-67.6292
11
46.662
21
-67.6293
0
LINE
8
BLACK
6
CONTINUOUS
10
46.662
20
-67.6293
11
46.662
21
-67.6346
0
LINE
8
BLACK
6
CONTINUOUS
10
46.662
20
-67.6346
11
46.6602
21
-67.6396
0
LINE
8
BLACK
6
CONTINUOUS
10
46.6602
20
-67.6396
11
46.6593
21
-67.6448
0
LINE
8
BLACK
6
CONTINUOUS
10
46.6593
20
-67.6448
11
46.6566
21
-67.6495
0
LINE
8
BLACK
6
CONTINUOUS
10
46.6566
20
-67.6495
11
46.6548
21
-67.6545
0
LINE
8
BLACK
6
CONTINUOUS
10
46.6548
20
-67.6545
11
46.6513
21
-67.6585
0
LINE
8
BLACK
6
CONTINUOUS
10
46.6513
20
-67.6585
11
46.6487
21
-67.6632
0
LINE
8
BLACK
6
CONTINUOUS
10
46.6487
20
-67.6632
11
46.6446
21
-67.6666
0
LINE
8
BLACK
6
CONTINUOUS
10
46.6446
20
-67.6666
11
46.6412
21
-67.6707
0
LINE
8
BLACK
6
CONTINUOUS
10
46.6412
20
-67.6707
11
46.6365
21
-67.6733
0
LINE
8
BLACK
6
CONTINUOUS
10
46.6365
20
-67.6733
11
46.6325
21
-67.6768
0
LINE
8
BLACK
6
CONTINUOUS
10
46.6325
20
-67.6768
11
46.6275
21
-67.6786
0
LINE
8
BLACK
6
CONTINUOUS
10
46.6275
20
-67.6786
11
46.6228
21
-67.6813
0
LINE
8
BLACK
6
CONTINUOUS
10
46.6228
20
-67.6813
11
46.6176
21
-67.6822
0
LINE
8
BLACK
6
CONTINUOUS
10
46.6176
20
-67.6822
11
46.6126
21
-67.684
0
LINE
8
BLACK
6
CONTINUOUS
10
46.6126
20
-67.684
11
46.6073
21
-67.684
0
LINE
8
BLACK
6
CONTINUOUS
10
46.6073
20
-67.684
11
46.6072
21
-67.684
0
LINE
8
BLACK
6
CONTINUOUS
10
46.6072
20
-67.684
11
26.0368
21
-67.684
0
LINE
8
BLACK
6
CONTINUOUS
10
26.0368
20
-67.684
11
26.0367
21
-67.684
0
LINE
8
BLACK
6
CONTINUOUS
10
26.0367
20
-67.684
11
26.0314
21
-67.684
0
LINE
8
BLACK
6
CONTINUOUS
10
26.0314
20
-67.684
11
26.0264
21
-67.6822
0
LINE
8
BLACK
6
CONTINUOUS
10
26.0264
20
-67.6822
11
26.0212
21
-67.6813
0
LINE
8
BLACK
6
CONTINUOUS
10
26.0212
20
-67.6813
11
26.0165
21
-67.6786
0
LINE
8
BLACK
6
CONTINUOUS
10
26.0165
20
-67.6786
11
26.0115
21
-67.6768
0
LINE
8
BLACK
6
CONTINUOUS
10
26.0115
20
-67.6768
11
26.0075
21
-67.6733
0
LINE
8
BLACK
6
CONTINUOUS
10
26.0075
20
-67.6733
11
26.0028
21
-67.6707
0
LINE
8
BLACK
6
CONTINUOUS
10
26.0028
20
-67.6707
11
25.9994
21
-67.6666
0
LINE
8
BLACK
6
CONTINUOUS
10
25.9994
20
-67.6666
11
25.9953
21
-67.6632
0
LINE
8
BLACK
6
CONTINUOUS
10
25.9953
20
-67.6632
11
25.9927
21
-67.6585
0
LINE
8
BLACK
6
CONTINUOUS
10
25.9927
20
-67.6585
11
25.9892
21
-67.6545
0
LINE
8
BLACK
6
CONTINUOUS
10
25.9892
20
-67.6545
11
25.9874
21
-67.6495
0
LINE
8
BLACK
6
CONTINUOUS
10
25.9874
20
-67.6495
11
25.9847
21
-67.6448
0
LINE
8
BLACK
6
CONTINUOUS
10
25.9847
20
-67.6448
11
25.9838
21
-67.6396
0
LINE
8
BLACK
6
CONTINUOUS
10
25.9838
20
-67.6396
11
25.982
21
-67.6346
0
LINE
8
BLACK
6
CONTINUOUS
10
25.982
20
-67.6346
11
25.982
21
-67.6134
0
LINE
8
BLACK
6
CONTINUOUS
10
25.982
20
-67.6134
11
25.982
21
-57.3388
0
LINE
8
BLACK
6
CONTINUOUS
10
25.982
20
-57.3388
11
25.982
21
-57.3387
0
LINE
8
BLACK
6
CONTINUOUS
10
25.982
20
-57.3387
11
25.982
21
-57.3334
0
LINE
8
BLACK
6
CONTINUOUS
10
25.982
20
-57.3334
11
25.9838
21
-57.3284
0
LINE
8
BLACK
6
CONTINUOUS
10
25.9838
20
-57.3284
11
25.9847
21
-57.3232
0
LINE
8
BLACK
6
CONTINUOUS
10
25.9847
20
-57.3232
11
25.9874
21
-57.3185
0
LINE
8
BLACK
6
CONTINUOUS
10
25.9874
20
-57.3185
11
25.9892
21
-57.3135
0
LINE
8
BLACK
6
CONTINUOUS
10
25.9892
20
-57.3135
11
25.9927
21
-57.3095
0
LINE
8
BLACK
6
CONTINUOUS
10
25.9927
20
-57.3095
11
25.9953
21
-57.3048
0
LINE
8
BLACK
6
CONTINUOUS
10
25.9953
20
-57.3048
11
25.9994
21
-57.3014
0
LINE
8
BLACK
6
CONTINUOUS
10
25.9994
20
-57.3014
11
26.0028
21
-57.2973
0
LINE
8
BLACK
6
CONTINUOUS
10
26.0028
20
-57.2973
11
26.0075
21
-57.2947
0
LINE
8
BLACK
6
CONTINUOUS
10
26.0075
20
-57.2947
11
26.0115
21
-57.2912
0
LINE
8
BLACK
6
CONTINUOUS
10
26.0115
20
-57.2912
11
26.0165
21
-57.2894
0
LINE
8
BLACK
6
CONTINUOUS
10
26.0165
20
-57.2894
11
26.0212
21
-57.2867
0
LINE
8
BLACK
6
CONTINUOUS
10
26.0212
20
-57.2867
11
26.0264
21
-57.2858
0
LINE
8
BLACK
6
CONTINUOUS
10
26.0264
20
-57.2858
11
26.0314
21
-57.284
0
LINE
8
BLACK
6
CONTINUOUS
10
26.0314
20
-57.284
11
26.0367
21
-57.284
0
LINE
8
BLACK
6
CONTINUOUS
10
26.0367
20
-57.284
11
26.0368
21
-57.284
0
LINE
8
BLACK
6
CONTINUOUS
10
26.0368
20
-57.284
11
46.6072
21
-57.284
0
LINE
8
BLACK
6
CONTINUOUS
10
46.6072
20
-57.284
11
46.6073
21
-57.284
0
LINE
8
BLACK
6
CONTINUOUS
10
26.102
20
-65.194
11
26.102
21
-67.564
0
LINE
8
BLACK
6
CONTINUOUS
10
26.102
20
-67.564
11
46.542
21
-67.564
0
LINE
8
BLACK
6
CONTINUOUS
10
46.542
20
-67.564
11
46.542
21
-65.194
0
LINE
8
BLACK
6
CONTINUOUS
10
46.542
20
-65.194
11
26.102
21
-65.194
0
LINE
8
BLACK
6
CONTINUOUS
10
26.162
20
-59.894
11
26.162
21
-65.074
0
LINE
8
BLACK
6
CONTINUOUS
10
26.162
20
-65.074
11
46.482
21
-65.074
0
LINE
8
BLACK
6
CONTINUOUS
10
46.482
20
-65.074
11
46.482
21
-63.5343
0
LINE
8
BLACK
6
CONTINUOUS
10
46.482
20
-63.5343
11
46.1896
21
-63.4828
0
LINE
8
BLACK
6
CONTINUOUS
10
46.1896
20
-63.4828
11
46.1896
21
-63.4828
0
LINE
8
BLACK
6
CONTINUOUS
10
46.1896
20
-63.4828
11
46.1783
21
-63.4787
0
LINE
8
BLACK
6
CONTINUOUS
10
46.1783
20
-63.4787
11
46.17
21
-63.4757
0
LINE
8
BLACK
6
CONTINUOUS
10
46.17
20
-63.4757
11
46.17
21
-63.4757
0
LINE
8
BLACK
6
CONTINUOUS
10
46.17
20
-63.4757
11
45.8692
21
-63.302
0
LINE
8
BLACK
6
CONTINUOUS
10
45.8692
20
-63.302
11
45.8692
21
-63.302
0
LINE
8
BLACK
6
CONTINUOUS
10
45.8692
20
-63.302
11
45.8556
21
-63.2906
0
LINE
8
BLACK
6
CONTINUOUS
10
45.8556
20
-63.2906
11
45.8532
21
-63.2886
0
LINE
8
BLACK
6
CONTINUOUS
10
45.8532
20
-63.2886
11
45.8532
21
-63.2886
0
LINE
8
BLACK
6
CONTINUOUS
10
45.8532
20
-63.2886
11
45.63
21
-63.0226
0
LINE
8
BLACK
6
CONTINUOUS
10
45.63
20
-63.0226
11
45.63
21
-63.0226
0
LINE
8
BLACK
6
CONTINUOUS
10
45.63
20
-63.0226
11
45.6251
21
-63.0141
0
LINE
8
BLACK
6
CONTINUOUS
10
45.6251
20
-63.0141
11
45.6196
21
-63.0045
0
LINE
8
BLACK
6
CONTINUOUS
10
45.6196
20
-63.0045
11
45.6196
21
-63.0045
0
LINE
8
BLACK
6
CONTINUOUS
10
45.6196
20
-63.0045
11
45.5008
21
-62.6782
0
LINE
8
BLACK
6
CONTINUOUS
10
45.5008
20
-62.6782
11
45.4972
21
-62.6576
0
LINE
8
BLACK
6
CONTINUOUS
10
45.4972
20
-62.6576
11
45.4972
21
-62.3104
0
LINE
8
BLACK
6
CONTINUOUS
10
45.4972
20
-62.3104
11
45.5008
21
-62.2898
0
LINE
8
BLACK
6
CONTINUOUS
10
45.5008
20
-62.2898
11
45.6196
21
-61.9635
0
LINE
8
BLACK
6
CONTINUOUS
10
45.6196
20
-61.9635
11
45.6196
21
-61.9635
0
LINE
8
BLACK
6
CONTINUOUS
10
45.6196
20
-61.9635
11
45.629
21
-61.9472
0
LINE
8
BLACK
6
CONTINUOUS
10
45.629
20
-61.9472
11
45.63
21
-61.9454
0
LINE
8
BLACK
6
CONTINUOUS
10
45.63
20
-61.9454
11
45.63
21
-61.9454
0
LINE
8
BLACK
6
CONTINUOUS
10
45.63
20
-61.9454
11
45.8532
21
-61.6794
0
LINE
8
BLACK
6
CONTINUOUS
10
45.8532
20
-61.6794
11
45.8532
21
-61.6794
0
LINE
8
BLACK
6
CONTINUOUS
10
45.8532
20
-61.6794
11
45.8605
21
-61.6733
0
LINE
8
BLACK
6
CONTINUOUS
10
45.8605
20
-61.6733
11
45.8692
21
-61.666
0
LINE
8
BLACK
6
CONTINUOUS
10
45.8692
20
-61.666
11
45.8692
21
-61.666
0
LINE
8
BLACK
6
CONTINUOUS
10
45.8692
20
-61.666
11
46.17
21
-61.4923
0
LINE
8
BLACK
6
CONTINUOUS
10
46.17
20
-61.4923
11
46.17
21
-61.4923
0
LINE
8
BLACK
6
CONTINUOUS
10
46.17
20
-61.4923
11
46.1783
21
-61.4893
0
LINE
8
BLACK
6
CONTINUOUS
10
46.1783
20
-61.4893
11
46.1896
21
-61.4852
0
LINE
8
BLACK
6
CONTINUOUS
10
46.1896
20
-61.4852
11
46.1896
21
-61.4852
0
LINE
8
BLACK
6
CONTINUOUS
10
46.1896
20
-61.4852
11
46.482
21
-61.4337
0
LINE
8
BLACK
6
CONTINUOUS
10
46.482
20
-61.4337
11
46.482
21
-59.894
0
LINE
8
BLACK
6
CONTINUOUS
10
46.482
20
-59.894
11
26.162
21
-59.894
0
LINE
8
BLACK
6
CONTINUOUS
10
46.2208
20
-61.6016
11
45.9384
21
-61.7646
0
LINE
8
BLACK
6
CONTINUOUS
10
45.9384
20
-61.7646
11
45.7287
21
-62.0145
0
LINE
8
BLACK
6
CONTINUOUS
10
45.7287
20
-62.0145
11
45.6172
21
-62.3209
0
LINE
8
BLACK
6
CONTINUOUS
10
45.6172
20
-62.3209
11
45.6172
21
-62.6471
0
LINE
8
BLACK
6
CONTINUOUS
10
45.6172
20
-62.6471
11
45.7287
21
-62.9535
0
LINE
8
BLACK
6
CONTINUOUS
10
45.7287
20
-62.9535
11
45.9384
21
-63.2034
0
LINE
8
BLACK
6
CONTINUOUS
10
45.9384
20
-63.2034
11
46.2208
21
-63.3664
0
LINE
8
BLACK
6
CONTINUOUS
10
46.2208
20
-63.3664
11
46.542
21
-63.4231
0
LINE
8
BLACK
6
CONTINUOUS
10
46.542
20
-63.4231
11
46.542
21
-61.5449
0
LINE
8
BLACK
6
CONTINUOUS
10
46.542
20
-61.5449
11
46.2208
21
-61.6016
0
LINE
8
BLACK
6
CONTINUOUS
10
26.102
20
-57.404
11
26.102
21
-59.774
0
LINE
8
BLACK
6
CONTINUOUS
10
26.102
20
-59.774
11
46.542
21
-59.774
0
LINE
8
BLACK
6
CONTINUOUS
10
46.542
20
-59.774
11
46.542
21
-57.404
0
LINE
8
BLACK
6
CONTINUOUS
10
46.542
20
-57.404
11
26.102
21
-57.404
0
LINE
8
BLACK
6
CONTINUOUS
10
47.8082
20
-62.6002
11
47.8125
21
-62.6
0
LINE
8
BLACK
6
CONTINUOUS
10
47.8125
20
-62.6
11
47.8209
21
-62.6025
0
LINE
8
BLACK
6
CONTINUOUS
10
47.8209
20
-62.6025
11
47.8296
21
-62.604
0
LINE
8
BLACK
6
CONTINUOUS
10
47.8296
20
-62.604
11
47.8333
21
-62.6062
0
LINE
8
BLACK
6
CONTINUOUS
10
47.8333
20
-62.6062
11
47.8374
21
-62.6074
0
LINE
8
BLACK
6
CONTINUOUS
10
47.8374
20
-62.6074
11
47.9327
21
-62.655
0
LINE
8
BLACK
6
CONTINUOUS
10
47.9327
20
-62.655
11
47.9423
21
-62.6622
0
LINE
8
BLACK
6
CONTINUOUS
10
47.9423
20
-62.6622
11
47.9522
21
-62.6691
0
LINE
8
BLACK
6
CONTINUOUS
10
47.9522
20
-62.6691
11
47.9998
21
-62.7167
0
LINE
8
BLACK
6
CONTINUOUS
10
47.9998
20
-62.7167
11
48.0067
21
-62.7265
0
LINE
8
BLACK
6
CONTINUOUS
10
48.0067
20
-62.7265
11
48.0138
21
-62.7362
0
LINE
8
BLACK
6
CONTINUOUS
10
48.0138
20
-62.7362
11
48.0615
21
-62.8314
0
LINE
8
BLACK
6
CONTINUOUS
10
48.0615
20
-62.8314
11
48.0627
21
-62.8356
0
LINE
8
BLACK
6
CONTINUOUS
10
48.0627
20
-62.8356
11
48.0649
21
-62.8393
0
LINE
8
BLACK
6
CONTINUOUS
10
48.0649
20
-62.8393
11
48.0664
21
-62.848
0
LINE
8
BLACK
6
CONTINUOUS
10
48.0664
20
-62.848
11
48.0689
21
-62.8564
0
LINE
8
BLACK
6
CONTINUOUS
10
48.0689
20
-62.8564
11
48.0686
21
-62.8607
0
LINE
8
BLACK
6
CONTINUOUS
10
48.0686
20
-62.8607
11
48.0694
21
-62.865
0
LINE
8
BLACK
6
CONTINUOUS
10
48.0694
20
-62.865
11
48.0694
21
-63.0554
0
LINE
8
BLACK
6
CONTINUOUS
10
48.0694
20
-63.0554
11
48.0686
21
-63.0597
0
LINE
8
BLACK
6
CONTINUOUS
10
48.0686
20
-63.0597
11
48.0689
21
-63.064
0
LINE
8
BLACK
6
CONTINUOUS
10
48.0689
20
-63.064
11
48.0664
21
-63.0724
0
LINE
8
BLACK
6
CONTINUOUS
10
48.0664
20
-63.0724
11
48.0649
21
-63.0811
0
LINE
8
BLACK
6
CONTINUOUS
10
48.0649
20
-63.0811
11
48.0627
21
-63.0848
0
LINE
8
BLACK
6
CONTINUOUS
10
48.0627
20
-63.0848
11
48.0615
21
-63.089
0
LINE
8
BLACK
6
CONTINUOUS
10
48.0615
20
-63.089
11
48.0138
21
-63.1842
0
LINE
8
BLACK
6
CONTINUOUS
10
48.0138
20
-63.1842
11
48.0067
21
-63.1939
0
LINE
8
BLACK
6
CONTINUOUS
10
48.0067
20
-63.1939
11
47.9998
21
-63.2037
0
LINE
8
BLACK
6
CONTINUOUS
10
47.9998
20
-63.2037
11
47.9522
21
-63.2513
0
LINE
8
BLACK
6
CONTINUOUS
10
47.9522
20
-63.2513
11
47.9423
21
-63.2582
0
LINE
8
BLACK
6
CONTINUOUS
10
47.9423
20
-63.2582
11
47.9327
21
-63.2654
0
LINE
8
BLACK
6
CONTINUOUS
10
47.9327
20
-63.2654
11
47.8374
21
-63.313
0
LINE
8
BLACK
6
CONTINUOUS
10
47.8374
20
-63.313
11
47.8333
21
-63.3142
0
LINE
8
BLACK
6
CONTINUOUS
10
47.8333
20
-63.3142
11
47.8296
21
-63.3164
0
LINE
8
BLACK
6
CONTINUOUS
10
47.8296
20
-63.3164
11
47.8209
21
-63.3179
0
LINE
8
BLACK
6
CONTINUOUS
10
47.8209
20
-63.3179
11
47.8125
21
-63.3204
0
LINE
8
BLACK
6
CONTINUOUS
10
47.8125
20
-63.3204
11
47.8082
21
-63.3202
0
LINE
8
BLACK
6
CONTINUOUS
10
47.8082
20
-63.3202
11
47.8039
21
-63.3209
0
LINE
8
BLACK
6
CONTINUOUS
10
47.8039
20
-63.3209
11
46.9944
21
-63.3209
0
LINE
8
BLACK
6
CONTINUOUS
10
46.9944
20
-63.3209
11
46.9687
21
-63.3164
0
LINE
8
BLACK
6
CONTINUOUS
10
46.9687
20
-63.3164
11
46.9462
21
-63.3034
0
LINE
8
BLACK
6
CONTINUOUS
10
46.9462
20
-63.3034
11
46.9294
21
-63.2834
0
LINE
8
BLACK
6
CONTINUOUS
10
46.9294
20
-63.2834
11
46.9205
21
-63.2589
0
LINE
8
BLACK
6
CONTINUOUS
10
46.9205
20
-63.2589
11
46.9205
21
-63.2329
0
LINE
8
BLACK
6
CONTINUOUS
10
46.9205
20
-63.2329
11
46.9294
21
-63.2084
0
LINE
8
BLACK
6
CONTINUOUS
10
46.9294
20
-63.2084
11
46.9462
21
-63.1885
0
LINE
8
BLACK
6
CONTINUOUS
10
46.9462
20
-63.1885
11
46.9687
21
-63.1754
0
LINE
8
BLACK
6
CONTINUOUS
10
46.9687
20
-63.1754
11
46.9944
21
-63.1709
0
LINE
8
BLACK
6
CONTINUOUS
10
46.9944
20
-63.1709
11
47.7862
21
-63.1709
0
LINE
8
BLACK
6
CONTINUOUS
10
47.7862
20
-63.1709
11
47.8547
21
-63.1366
0
LINE
8
BLACK
6
CONTINUOUS
10
47.8547
20
-63.1366
11
47.8851
21
-63.1062
0
LINE
8
BLACK
6
CONTINUOUS
10
47.8851
20
-63.1062
11
47.9194
21
-63.0377
0
LINE
8
BLACK
6
CONTINUOUS
10
47.9194
20
-63.0377
11
47.9194
21
-62.8827
0
LINE
8
BLACK
6
CONTINUOUS
10
47.9194
20
-62.8827
11
47.8851
21
-62.8141
0
LINE
8
BLACK
6
CONTINUOUS
10
47.8851
20
-62.8141
11
47.8547
21
-62.7837
0
LINE
8
BLACK
6
CONTINUOUS
10
47.8547
20
-62.7837
11
47.7862
21
-62.7495
0
LINE
8
BLACK
6
CONTINUOUS
10
47.7862
20
-62.7495
11
46.9944
21
-62.7495
0
LINE
8
BLACK
6
CONTINUOUS
10
46.9944
20
-62.7495
11
46.9687
21
-62.745
0
LINE
8
BLACK
6
CONTINUOUS
10
46.9687
20
-62.745
11
46.9462
21
-62.7319
0
LINE
8
BLACK
6
CONTINUOUS
10
46.9462
20
-62.7319
11
46.9294
21
-62.712
0
LINE
8
BLACK
6
CONTINUOUS
10
46.9294
20
-62.712
11
46.9205
21
-62.6875
0
LINE
8
BLACK
6
CONTINUOUS
10
46.9205
20
-62.6875
11
46.9205
21
-62.6615
0
LINE
8
BLACK
6
CONTINUOUS
10
46.9205
20
-62.6615
11
46.9294
21
-62.637
0
LINE
8
BLACK
6
CONTINUOUS
10
46.9294
20
-62.637
11
46.9462
21
-62.617
0
LINE
8
BLACK
6
CONTINUOUS
10
46.9462
20
-62.617
11
46.9687
21
-62.604
0
LINE
8
BLACK
6
CONTINUOUS
10
46.9687
20
-62.604
11
46.9944
21
-62.5995
0
LINE
8
BLACK
6
CONTINUOUS
10
46.9944
20
-62.5995
11
47.8039
21
-62.5995
0
LINE
8
BLACK
6
CONTINUOUS
10
47.8039
20
-62.5995
11
47.8082
21
-62.6002
0
LINE
8
BLACK
6
CONTINUOUS
10
48.0319
20
-61.6095
11
48.0518
21
-61.6263
0
LINE
8
BLACK
6
CONTINUOUS
10
48.0518
20
-61.6263
11
48.0649
21
-61.6488
0
LINE
8
BLACK
6
CONTINUOUS
10
48.0649
20
-61.6488
11
48.0694
21
-61.6745
0
LINE
8
BLACK
6
CONTINUOUS
10
48.0694
20
-61.6745
11
48.0694
21
-62.2459
0
LINE
8
BLACK
6
CONTINUOUS
10
48.0694
20
-62.2459
11
48.0649
21
-62.2716
0
LINE
8
BLACK
6
CONTINUOUS
10
48.0649
20
-62.2716
11
48.0518
21
-62.2941
0
LINE
8
BLACK
6
CONTINUOUS
10
48.0518
20
-62.2941
11
48.0319
21
-62.3109
0
LINE
8
BLACK
6
CONTINUOUS
10
48.0319
20
-62.3109
11
48.0074
21
-62.3198
0
LINE
8
BLACK
6
CONTINUOUS
10
48.0074
20
-62.3198
11
47.9814
21
-62.3198
0
LINE
8
BLACK
6
CONTINUOUS
10
47.9814
20
-62.3198
11
47.9569
21
-62.3109
0
LINE
8
BLACK
6
CONTINUOUS
10
47.9569
20
-62.3109
11
47.9369
21
-62.2941
0
LINE
8
BLACK
6
CONTINUOUS
10
47.9369
20
-62.2941
11
47.9239
21
-62.2716
0
LINE
8
BLACK
6
CONTINUOUS
10
47.9239
20
-62.2716
11
47.9194
21
-62.2459
0
LINE
8
BLACK
6
CONTINUOUS
10
47.9194
20
-62.2459
11
47.9194
21
-62.0352
0
LINE
8
BLACK
6
CONTINUOUS
10
47.9194
20
-62.0352
11
47.2231
21
-62.0352
0
LINE
8
BLACK
6
CONTINUOUS
10
47.2231
20
-62.0352
11
47.2855
21
-62.0976
0
LINE
8
BLACK
6
CONTINUOUS
10
47.2855
20
-62.0976
11
47.2924
21
-62.1075
0
LINE
8
BLACK
6
CONTINUOUS
10
47.2924
20
-62.1075
11
47.2996
21
-62.1171
0
LINE
8
BLACK
6
CONTINUOUS
10
47.2996
20
-62.1171
11
47.3472
21
-62.2124
0
LINE
8
BLACK
6
CONTINUOUS
10
47.3472
20
-62.2124
11
47.3546
21
-62.2373
0
LINE
8
BLACK
6
CONTINUOUS
10
47.3546
20
-62.2373
11
47.353
21
-62.2633
0
LINE
8
BLACK
6
CONTINUOUS
10
47.353
20
-62.2633
11
47.3427
21
-62.2872
0
LINE
8
BLACK
6
CONTINUOUS
10
47.3427
20
-62.2872
11
47.3248
21
-62.3061
0
LINE
8
BLACK
6
CONTINUOUS
10
47.3248
20
-62.3061
11
47.3015
21
-62.3178
0
LINE
8
BLACK
6
CONTINUOUS
10
47.3015
20
-62.3178
11
47.2756
21
-62.3208
0
LINE
8
BLACK
6
CONTINUOUS
10
47.2756
20
-62.3208
11
47.2503
21
-62.3147
0
LINE
8
BLACK
6
CONTINUOUS
10
47.2503
20
-62.3147
11
47.2285
21
-62.3004
0
LINE
8
BLACK
6
CONTINUOUS
10
47.2285
20
-62.3004
11
47.213
21
-62.2794
0
LINE
8
BLACK
6
CONTINUOUS
10
47.213
20
-62.2794
11
47.1708
21
-62.1951
0
LINE
8
BLACK
6
CONTINUOUS
10
47.1708
20
-62.1951
11
47.0895
21
-62.1137
0
LINE
8
BLACK
6
CONTINUOUS
10
47.0895
20
-62.1137
11
46.9528
21
-62.0226
0
LINE
8
BLACK
6
CONTINUOUS
10
46.9528
20
-62.0226
11
46.9498
21
-62.0197
0
LINE
8
BLACK
6
CONTINUOUS
10
46.9498
20
-62.0197
11
46.9462
21
-62.0176
0
LINE
8
BLACK
6
CONTINUOUS
10
46.9462
20
-62.0176
11
46.9404
21
-62.0108
0
LINE
8
BLACK
6
CONTINUOUS
10
46.9404
20
-62.0108
11
46.9339
21
-62.0046
0
LINE
8
BLACK
6
CONTINUOUS
10
46.9339
20
-62.0046
11
46.9321
21
-62.0009
0
LINE
8
BLACK
6
CONTINUOUS
10
46.9321
20
-62.0009
11
46.9294
21
-61.9977
0
LINE
8
BLACK
6
CONTINUOUS
10
46.9294
20
-61.9977
11
46.9264
21
-61.9893
0
LINE
8
BLACK
6
CONTINUOUS
10
46.9264
20
-61.9893
11
46.9224
21
-61.9813
0
LINE
8
BLACK
6
CONTINUOUS
10
46.9224
20
-61.9813
11
46.9219
21
-61.9771
0
LINE
8
BLACK
6
CONTINUOUS
10
46.9219
20
-61.9771
11
46.9205
21
-61.9732
0
LINE
8
BLACK
6
CONTINUOUS
10
46.9205
20
-61.9732
11
46.9205
21
-61.9643
0
LINE
8
BLACK
6
CONTINUOUS
10
46.9205
20
-61.9643
11
46.9195
21
-61.9554
0
LINE
8
BLACK
6
CONTINUOUS
10
46.9195
20
-61.9554
11
46.9205
21
-61.9513
0
LINE
8
BLACK
6
CONTINUOUS
10
46.9205
20
-61.9513
11
46.9205
21
-61.9472
0
LINE
8
BLACK
6
CONTINUOUS
10
46.9205
20
-61.9472
11
46.9236
21
-61.9388
0
LINE
8
BLACK
6
CONTINUOUS
10
46.9236
20
-61.9388
11
46.9257
21
-61.9301
0
LINE
8
BLACK
6
CONTINUOUS
10
46.9257
20
-61.9301
11
46.928
21
-61.9266
0
LINE
8
BLACK
6
CONTINUOUS
10
46.928
20
-61.9266
11
46.9294
21
-61.9227
0
LINE
8
BLACK
6
CONTINUOUS
10
46.9294
20
-61.9227
11
46.9352
21
-61.9158
0
LINE
8
BLACK
6
CONTINUOUS
10
46.9352
20
-61.9158
11
46.9401
21
-61.9084
0
LINE
8
BLACK
6
CONTINUOUS
10
46.9401
20
-61.9084
11
46.9435
21
-61.9059
0
LINE
8
BLACK
6
CONTINUOUS
10
46.9435
20
-61.9059
11
46.9462
21
-61.9027
0
LINE
8
BLACK
6
CONTINUOUS
10
46.9462
20
-61.9027
11
46.9539
21
-61.8983
0
LINE
8
BLACK
6
CONTINUOUS
10
46.9539
20
-61.8983
11
46.9611
21
-61.893
0
LINE
8
BLACK
6
CONTINUOUS
10
46.9611
20
-61.893
11
46.9651
21
-61.8918
0
LINE
8
BLACK
6
CONTINUOUS
10
46.9651
20
-61.8918
11
46.9687
21
-61.8897
0
LINE
8
BLACK
6
CONTINUOUS
10
46.9687
20
-61.8897
11
46.9775
21
-61.8882
0
LINE
8
BLACK
6
CONTINUOUS
10
46.9775
20
-61.8882
11
46.9861
21
-61.8856
0
LINE
8
BLACK
6
CONTINUOUS
10
46.9861
20
-61.8856
11
46.9903
21
-61.8859
0
LINE
8
BLACK
6
CONTINUOUS
10
46.9903
20
-61.8859
11
46.9944
21
-61.8852
0
LINE
8
BLACK
6
CONTINUOUS
10
46.9944
20
-61.8852
11
47.9194
21
-61.8852
0
LINE
8
BLACK
6
CONTINUOUS
10
47.9194
20
-61.8852
11
47.9194
21
-61.6745
0
LINE
8
BLACK
6
CONTINUOUS
10
47.9194
20
-61.6745
11
47.9239
21
-61.6488
0
LINE
8
BLACK
6
CONTINUOUS
10
47.9239
20
-61.6488
11
47.9369
21
-61.6263
0
LINE
8
BLACK
6
CONTINUOUS
10
47.9369
20
-61.6263
11
47.9569
21
-61.6095
0
LINE
8
BLACK
6
CONTINUOUS
10
47.9569
20
-61.6095
11
47.9814
21
-61.6006
0
LINE
8
BLACK
6
CONTINUOUS
10
47.9814
20
-61.6006
11
48.0074
21
-61.6006
0
LINE
8
BLACK
6
CONTINUOUS
10
48.0074
20
-61.6006
11
48.0319
21
-61.6095
0
LINE
8
BLACK
6
CONTINUOUS
10
33.8125
20
-30.3512
11
33.8287
21
-30.3648
0
LINE
8
BLACK
6
CONTINUOUS
10
33.8287
20
-30.3648
11
33.8393
21
-30.3832
0
LINE
8
BLACK
6
CONTINUOUS
10
33.8393
20
-30.3832
11
33.842
21
-30.3988
0
LINE
8
BLACK
6
CONTINUOUS
10
33.842
20
-30.3988
11
33.842
21
-31.294
0
LINE
8
BLACK
6
CONTINUOUS
10
33.842
20
-31.294
11
34.7072
21
-31.294
0
LINE
8
BLACK
6
CONTINUOUS
10
34.7072
20
-31.294
11
34.7073
21
-31.294
0
LINE
8
BLACK
6
CONTINUOUS
10
34.7073
20
-31.294
11
34.7126
21
-31.294
0
LINE
8
BLACK
6
CONTINUOUS
10
34.7126
20
-31.294
11
34.7176
21
-31.2958
0
LINE
8
BLACK
6
CONTINUOUS
10
34.7176
20
-31.2958
11
34.7228
21
-31.2967
0
LINE
8
BLACK
6
CONTINUOUS
10
34.7228
20
-31.2967
11
34.7275
21
-31.2994
0
LINE
8
BLACK
6
CONTINUOUS
10
34.7275
20
-31.2994
11
34.7325
21
-31.3012
0
LINE
8
BLACK
6
CONTINUOUS
10
34.7325
20
-31.3012
11
34.7365
21
-31.3047
0
LINE
8
BLACK
6
CONTINUOUS
10
34.7365
20
-31.3047
11
34.7412
21
-31.3073
0
LINE
8
BLACK
6
CONTINUOUS
10
34.7412
20
-31.3073
11
34.7446
21
-31.3114
0
LINE
8
BLACK
6
CONTINUOUS
10
34.7446
20
-31.3114
11
34.7487
21
-31.3148
0
LINE
8
BLACK
6
CONTINUOUS
10
34.7487
20
-31.3148
11
34.7513
21
-31.3195
0
LINE
8
BLACK
6
CONTINUOUS
10
34.7513
20
-31.3195
11
34.7548
21
-31.3235
0
LINE
8
BLACK
6
CONTINUOUS
10
34.7548
20
-31.3235
11
34.7566
21
-31.3285
0
LINE
8
BLACK
6
CONTINUOUS
10
34.7566
20
-31.3285
11
34.7593
21
-31.3332
0
LINE
8
BLACK
6
CONTINUOUS
10
34.7593
20
-31.3332
11
34.7602
21
-31.3384
0
LINE
8
BLACK
6
CONTINUOUS
10
34.7602
20
-31.3384
11
34.762
21
-31.3434
0
LINE
8
BLACK
6
CONTINUOUS
10
34.762
20
-31.3434
11
34.762
21
-31.3487
0
LINE
8
BLACK
6
CONTINUOUS
10
34.762
20
-31.3487
11
34.762
21
-31.3488
0
LINE
8
BLACK
6
CONTINUOUS
10
34.762
20
-31.3488
11
34.762
21
-35.1992
0
LINE
8
BLACK
6
CONTINUOUS
10
34.762
20
-35.1992
11
34.762
21
-35.1993
0
LINE
8
BLACK
6
CONTINUOUS
10
34.762
20
-35.1993
11
34.762
21
-35.2046
0
LINE
8
BLACK
6
CONTINUOUS
10
34.762
20
-35.2046
11
34.7602
21
-35.2096
0
LINE
8
BLACK
6
CONTINUOUS
10
34.7602
20
-35.2096
11
34.7593
21
-35.2148
0
LINE
8
BLACK
6
CONTINUOUS
10
34.7593
20
-35.2148
11
34.7566
21
-35.2195
0
LINE
8
BLACK
6
CONTINUOUS
10
34.7566
20
-35.2195
11
34.7548
21
-35.2245
0
LINE
8
BLACK
6
CONTINUOUS
10
34.7548
20
-35.2245
11
34.7513
21
-35.2285
0
LINE
8
BLACK
6
CONTINUOUS
10
34.7513
20
-35.2285
11
34.7487
21
-35.2332
0
LINE
8
BLACK
6
CONTINUOUS
10
34.7487
20
-35.2332
11
34.7446
21
-35.2366
0
LINE
8
BLACK
6
CONTINUOUS
10
34.7446
20
-35.2366
11
34.7412
21
-35.2407
0
LINE
8
BLACK
6
CONTINUOUS
10
34.7412
20
-35.2407
11
34.7365
21
-35.2433
0
LINE
8
BLACK
6
CONTINUOUS
10
34.7365
20
-35.2433
11
34.7325
21
-35.2468
0
LINE
8
BLACK
6
CONTINUOUS
10
34.7325
20
-35.2468
11
34.7275
21
-35.2486
0
LINE
8
BLACK
6
CONTINUOUS
10
34.7275
20
-35.2486
11
34.7228
21
-35.2513
0
LINE
8
BLACK
6
CONTINUOUS
10
34.7228
20
-35.2513
11
34.7176
21
-35.2522
0
LINE
8
BLACK
6
CONTINUOUS
10
34.7176
20
-35.2522
11
34.7126
21
-35.254
0
LINE
8
BLACK
6
CONTINUOUS
10
34.7126
20
-35.254
11
34.7073
21
-35.254
0
LINE
8
BLACK
6
CONTINUOUS
10
34.7073
20
-35.254
11
34.7072
21
-35.254
0
LINE
8
BLACK
6
CONTINUOUS
10
34.7072
20
-35.254
11
33.842
21
-35.254
0
LINE
8
BLACK
6
CONTINUOUS
10
33.842
20
-35.254
11
33.842
21
-36.1492
0
LINE
8
BLACK
6
CONTINUOUS
10
33.842
20
-36.1492
11
33.8393
21
-36.1648
0
LINE
8
BLACK
6
CONTINUOUS
10
33.8393
20
-36.1648
11
33.8287
21
-36.1832
0
LINE
8
BLACK
6
CONTINUOUS
10
33.8287
20
-36.1832
11
33.8125
21
-36.1968
0
LINE
8
BLACK
6
CONTINUOUS
10
33.8125
20
-36.1968
11
33.7926
21
-36.204
0
LINE
8
BLACK
6
CONTINUOUS
10
33.7926
20
-36.204
11
33.7714
21
-36.204
0
LINE
8
BLACK
6
CONTINUOUS
10
33.7714
20
-36.204
11
33.7515
21
-36.1968
0
LINE
8
BLACK
6
CONTINUOUS
10
33.7515
20
-36.1968
11
33.7353
21
-36.1832
0
LINE
8
BLACK
6
CONTINUOUS
10
33.7353
20
-36.1832
11
33.7247
21
-36.1648
0
LINE
8
BLACK
6
CONTINUOUS
10
33.7247
20
-36.1648
11
33.722
21
-36.1492
0
LINE
8
BLACK
6
CONTINUOUS
10
33.722
20
-36.1492
11
33.722
21
-35.254
0
LINE
8
BLACK
6
CONTINUOUS
10
33.722
20
-35.254
11
32.8568
21
-35.254
0
LINE
8
BLACK
6
CONTINUOUS
10
32.8568
20
-35.254
11
32.8567
21
-35.254
0
LINE
8
BLACK
6
CONTINUOUS
10
32.8567
20
-35.254
11
32.8514
21
-35.254
0
LINE
8
BLACK
6
CONTINUOUS
10
32.8514
20
-35.254
11
32.8464
21
-35.2522
0
LINE
8
BLACK
6
CONTINUOUS
10
32.8464
20
-35.2522
11
32.8412
21
-35.2513
0
LINE
8
BLACK
6
CONTINUOUS
10
32.8412
20
-35.2513
11
32.8365
21
-35.2486
0
LINE
8
BLACK
6
CONTINUOUS
10
32.8365
20
-35.2486
11
32.8315
21
-35.2468
0
LINE
8
BLACK
6
CONTINUOUS
10
32.8315
20
-35.2468
11
32.8275
21
-35.2433
0
LINE
8
BLACK
6
CONTINUOUS
10
32.8275
20
-35.2433
11
32.8228
21
-35.2407
0
LINE
8
BLACK
6
CONTINUOUS
10
32.8228
20
-35.2407
11
32.8194
21
-35.2366
0
LINE
8
BLACK
6
CONTINUOUS
10
32.8194
20
-35.2366
11
32.8153
21
-35.2332
0
LINE
8
BLACK
6
CONTINUOUS
10
32.8153
20
-35.2332
11
32.8127
21
-35.2285
0
LINE
8
BLACK
6
CONTINUOUS
10
32.8127
20
-35.2285
11
32.8092
21
-35.2245
0
LINE
8
BLACK
6
CONTINUOUS
10
32.8092
20
-35.2245
11
32.8074
21
-35.2195
0
LINE
8
BLACK
6
CONTINUOUS
10
32.8074
20
-35.2195
11
32.8047
21
-35.2148
0
LINE
8
BLACK
6
CONTINUOUS
10
32.8047
20
-35.2148
11
32.8038
21
-35.2096
0
LINE
8
BLACK
6
CONTINUOUS
10
32.8038
20
-35.2096
11
32.802
21
-35.2046
0
LINE
8
BLACK
6
CONTINUOUS
10
32.802
20
-35.2046
11
32.802
21
-35.1834
0
LINE
8
BLACK
6
CONTINUOUS
10
32.802
20
-35.1834
11
32.802
21
-31.3488
0
LINE
8
BLACK
6
CONTINUOUS
10
32.802
20
-31.3488
11
32.802
21
-31.3487
0
LINE
8
BLACK
6
CONTINUOUS
10
32.802
20
-31.3487
11
32.802
21
-31.3434
0
LINE
8
BLACK
6
CONTINUOUS
10
32.802
20
-31.3434
11
32.8038
21
-31.3384
0
LINE
8
BLACK
6
CONTINUOUS
10
32.8038
20
-31.3384
11
32.8047
21
-31.3332
0
LINE
8
BLACK
6
CONTINUOUS
10
32.8047
20
-31.3332
11
32.8074
21
-31.3285
0
LINE
8
BLACK
6
CONTINUOUS
10
32.8074
20
-31.3285
11
32.8092
21
-31.3235
0
LINE
8
BLACK
6
CONTINUOUS
10
32.8092
20
-31.3235
11
32.8127
21
-31.3195
0
LINE
8
BLACK
6
CONTINUOUS
10
32.8127
20
-31.3195
11
32.8153
21
-31.3148
0
LINE
8
BLACK
6
CONTINUOUS
10
32.8153
20
-31.3148
11
32.8194
21
-31.3114
0
LINE
8
BLACK
6
CONTINUOUS
10
32.8194
20
-31.3114
11
32.8228
21
-31.3073
0
LINE
8
BLACK
6
CONTINUOUS
10
32.8228
20
-31.3073
11
32.8275
21
-31.3047
0
LINE
8
BLACK
6
CONTINUOUS
10
32.8275
20
-31.3047
11
32.8315
21
-31.3012
0
LINE
8
BLACK
6
CONTINUOUS
10
32.8315
20
-31.3012
11
32.8365
21
-31.2994
0
LINE
8
BLACK
6
CONTINUOUS
10
32.8365
20
-31.2994
11
32.8412
21
-31.2967
0
LINE
8
BLACK
6
CONTINUOUS
10
32.8412
20
-31.2967
11
32.8464
21
-31.2958
0
LINE
8
BLACK
6
CONTINUOUS
10
32.8464
20
-31.2958
11
32.8514
21
-31.294
0
LINE
8
BLACK
6
CONTINUOUS
10
32.8514
20
-31.294
11
32.8567
21
-31.294
0
LINE
8
BLACK
6
CONTINUOUS
10
32.8567
20
-31.294
11
32.8568
21
-31.294
0
LINE
8
BLACK
6
CONTINUOUS
10
32.8568
20
-31.294
11
33.722
21
-31.294
0
LINE
8
BLACK
6
CONTINUOUS
10
33.722
20
-31.294
11
33.722
21
-30.3988
0
LINE
8
BLACK
6
CONTINUOUS
10
33.722
20
-30.3988
11
33.7247
21
-30.3832
0
LINE
8
BLACK
6
CONTINUOUS
10
33.7247
20
-30.3832
11
33.7353
21
-30.3648
0
LINE
8
BLACK
6
CONTINUOUS
10
33.7353
20
-30.3648
11
33.7515
21
-30.3512
0
LINE
8
BLACK
6
CONTINUOUS
10
33.7515
20
-30.3512
11
33.7714
21
-30.344
0
LINE
8
BLACK
6
CONTINUOUS
10
33.7714
20
-30.344
11
33.7926
21
-30.344
0
LINE
8
BLACK
6
CONTINUOUS
10
33.7926
20
-30.344
11
33.8125
21
-30.3512
0
LINE
8
BLACK
6
CONTINUOUS
10
32.922
20
-31.414
11
32.922
21
-35.134
0
LINE
8
BLACK
6
CONTINUOUS
10
32.922
20
-35.134
11
34.642
21
-35.134
0
LINE
8
BLACK
6
CONTINUOUS
10
34.642
20
-35.134
11
34.642
21
-31.414
0
LINE
8
BLACK
6
CONTINUOUS
10
34.642
20
-31.414
11
32.922
21
-31.414
0
LINE
8
BLACK
6
CONTINUOUS
10
33.572
20
-33.3664
11
33.5763
21
-33.3662
0
LINE
8
BLACK
6
CONTINUOUS
10
33.5763
20
-33.3662
11
33.5847
21
-33.3687
0
LINE
8
BLACK
6
CONTINUOUS
10
33.5847
20
-33.3687
11
33.5934
21
-33.3702
0
LINE
8
BLACK
6
CONTINUOUS
10
33.5934
20
-33.3702
11
33.5971
21
-33.3724
0
LINE
8
BLACK
6
CONTINUOUS
10
33.5971
20
-33.3724
11
33.6013
21
-33.3736
0
LINE
8
BLACK
6
CONTINUOUS
10
33.6013
20
-33.3736
11
33.6965
21
-33.4212
0
LINE
8
BLACK
6
CONTINUOUS
10
33.6965
20
-33.4212
11
33.7062
21
-33.4284
0
LINE
8
BLACK
6
CONTINUOUS
10
33.7062
20
-33.4284
11
33.716
21
-33.4353
0
LINE
8
BLACK
6
CONTINUOUS
10
33.716
20
-33.4353
11
33.7636
21
-33.4829
0
LINE
8
BLACK
6
CONTINUOUS
10
33.7636
20
-33.4829
11
33.7705
21
-33.4927
0
LINE
8
BLACK
6
CONTINUOUS
10
33.7705
20
-33.4927
11
33.7777
21
-33.5024
0
LINE
8
BLACK
6
CONTINUOUS
10
33.7777
20
-33.5024
11
33.8253
21
-33.5976
0
LINE
8
BLACK
6
CONTINUOUS
10
33.8253
20
-33.5976
11
33.8265
21
-33.6017
0
LINE
8
BLACK
6
CONTINUOUS
10
33.8265
20
-33.6017
11
33.8287
21
-33.6055
0
LINE
8
BLACK
6
CONTINUOUS
10
33.8287
20
-33.6055
11
33.8302
21
-33.6141
0
LINE
8
BLACK
6
CONTINUOUS
10
33.8302
20
-33.6141
11
33.8327
21
-33.6226
0
LINE
8
BLACK
6
CONTINUOUS
10
33.8327
20
-33.6226
11
33.8324
21
-33.6269
0
LINE
8
BLACK
6
CONTINUOUS
10
33.8324
20
-33.6269
11
33.833
21
-33.6301
0
LINE
8
BLACK
6
CONTINUOUS
10
33.833
20
-33.6301
11
34.1914
21
-33.3792
0
LINE
8
BLACK
6
CONTINUOUS
10
34.1914
20
-33.3792
11
34.215
21
-33.3682
0
LINE
8
BLACK
6
CONTINUOUS
10
34.215
20
-33.3682
11
34.2409
21
-33.366
0
LINE
8
BLACK
6
CONTINUOUS
10
34.2409
20
-33.366
11
34.2661
21
-33.3727
0
LINE
8
BLACK
6
CONTINUOUS
10
34.2661
20
-33.3727
11
34.2874
21
-33.3876
0
LINE
8
BLACK
6
CONTINUOUS
10
34.2874
20
-33.3876
11
34.3024
21
-33.409
0
LINE
8
BLACK
6
CONTINUOUS
10
34.3024
20
-33.409
11
34.3091
21
-33.4341
0
LINE
8
BLACK
6
CONTINUOUS
10
34.3091
20
-33.4341
11
34.3068
21
-33.4601
0
LINE
8
BLACK
6
CONTINUOUS
10
34.3068
20
-33.4601
11
34.2958
21
-33.4837
0
LINE
8
BLACK
6
CONTINUOUS
10
34.2958
20
-33.4837
11
34.2774
21
-33.5021
0
LINE
8
BLACK
6
CONTINUOUS
10
34.2774
20
-33.5021
11
33.8332
21
-33.813
0
LINE
8
BLACK
6
CONTINUOUS
10
33.8332
20
-33.813
11
33.8332
21
-33.9371
0
LINE
8
BLACK
6
CONTINUOUS
10
33.8332
20
-33.9371
11
34.2344
21
-33.9371
0
LINE
8
BLACK
6
CONTINUOUS
10
34.2344
20
-33.9371
11
34.26
21
-33.9416
0
LINE
8
BLACK
6
CONTINUOUS
10
34.26
20
-33.9416
11
34.2826
21
-33.9546
0
LINE
8
BLACK
6
CONTINUOUS
10
34.2826
20
-33.9546
11
34.2993
21
-33.9746
0
LINE
8
BLACK
6
CONTINUOUS
10
34.2993
20
-33.9746
11
34.3082
21
-33.9991
0
LINE
8
BLACK
6
CONTINUOUS
10
34.3082
20
-33.9991
11
34.3082
21
-34.0251
0
LINE
8
BLACK
6
CONTINUOUS
10
34.3082
20
-34.0251
11
34.2993
21
-34.0496
0
LINE
8
BLACK
6
CONTINUOUS
10
34.2993
20
-34.0496
11
34.2826
21
-34.0695
0
LINE
8
BLACK
6
CONTINUOUS
10
34.2826
20
-34.0695
11
34.26
21
-34.0826
0
LINE
8
BLACK
6
CONTINUOUS
10
34.26
20
-34.0826
11
34.2344
21
-34.0871
0
LINE
8
BLACK
6
CONTINUOUS
10
34.2344
20
-34.0871
11
33.2344
21
-34.0871
0
LINE
8
BLACK
6
CONTINUOUS
10
33.2344
20
-34.0871
11
33.2279
21
-34.086
0
LINE
8
BLACK
6
CONTINUOUS
10
33.2279
20
-34.086
11
33.2214
21
-34.086
0
LINE
8
BLACK
6
CONTINUOUS
10
33.2214
20
-34.086
11
33.2152
21
-34.0837
0
LINE
8
BLACK
6
CONTINUOUS
10
33.2152
20
-34.0837
11
33.2087
21
-34.0826
0
LINE
8
BLACK
6
CONTINUOUS
10
33.2087
20
-34.0826
11
33.203
21
-34.0793
0
LINE
8
BLACK
6
CONTINUOUS
10
33.203
20
-34.0793
11
33.1969
21
-34.077
0
LINE
8
BLACK
6
CONTINUOUS
10
33.1969
20
-34.077
11
33.1919
21
-34.0728
0
LINE
8
BLACK
6
CONTINUOUS
10
33.1919
20
-34.0728
11
33.1862
21
-34.0695
0
LINE
8
BLACK
6
CONTINUOUS
10
33.1862
20
-34.0695
11
33.182
21
-34.0645
0
LINE
8
BLACK
6
CONTINUOUS
10
33.182
20
-34.0645
11
33.1769
21
-34.0603
0
LINE
8
BLACK
6
CONTINUOUS
10
33.1769
20
-34.0603
11
33.1736
21
-34.0546
0
LINE
8
BLACK
6
CONTINUOUS
10
33.1736
20
-34.0546
11
33.1694
21
-34.0496
0
LINE
8
BLACK
6
CONTINUOUS
10
33.1694
20
-34.0496
11
33.1672
21
-34.0434
0
LINE
8
BLACK
6
CONTINUOUS
10
33.1672
20
-34.0434
11
33.1639
21
-34.0377
0
LINE
8
BLACK
6
CONTINUOUS
10
33.1639
20
-34.0377
11
33.1628
21
-34.0313
0
LINE
8
BLACK
6
CONTINUOUS
10
33.1628
20
-34.0313
11
33.1605
21
-34.0251
0
LINE
8
BLACK
6
CONTINUOUS
10
33.1605
20
-34.0251
11
33.1605
21
-34.0186
0
LINE
8
BLACK
6
CONTINUOUS
10
33.1605
20
-34.0186
11
33.1594
21
-34.0121
0
LINE
8
BLACK
6
CONTINUOUS
10
33.1594
20
-34.0121
11
33.1594
21
-33.6311
0
LINE
8
BLACK
6
CONTINUOUS
10
33.1594
20
-33.6311
11
33.1601
21
-33.6269
0
LINE
8
BLACK
6
CONTINUOUS
10
33.1601
20
-33.6269
11
33.1599
21
-33.6226
0
LINE
8
BLACK
6
CONTINUOUS
10
33.1599
20
-33.6226
11
33.1624
21
-33.6141
0
LINE
8
BLACK
6
CONTINUOUS
10
33.1624
20
-33.6141
11
33.1639
21
-33.6055
0
LINE
8
BLACK
6
CONTINUOUS
10
33.1639
20
-33.6055
11
33.1661
21
-33.6017
0
LINE
8
BLACK
6
CONTINUOUS
10
33.1661
20
-33.6017
11
33.1673
21
-33.5976
0
LINE
8
BLACK
6
CONTINUOUS
10
33.1673
20
-33.5976
11
33.2149
21
-33.5024
0
LINE
8
BLACK
6
CONTINUOUS
10
33.2149
20
-33.5024
11
33.2221
21
-33.4927
0
LINE
8
BLACK
6
CONTINUOUS
10
33.2221
20
-33.4927
11
33.229
21
-33.4829
0
LINE
8
BLACK
6
CONTINUOUS
10
33.229
20
-33.4829
11
33.2766
21
-33.4353
0
LINE
8
BLACK
6
CONTINUOUS
10
33.2766
20
-33.4353
11
33.2864
21
-33.4284
0
LINE
8
BLACK
6
CONTINUOUS
10
33.2864
20
-33.4284
11
33.2961
21
-33.4212
0
LINE
8
BLACK
6
CONTINUOUS
10
33.2961
20
-33.4212
11
33.3913
21
-33.3736
0
LINE
8
BLACK
6
CONTINUOUS
10
33.3913
20
-33.3736
11
33.3955
21
-33.3724
0
LINE
8
BLACK
6
CONTINUOUS
10
33.3955
20
-33.3724
11
33.3992
21
-33.3702
0
LINE
8
BLACK
6
CONTINUOUS
10
33.3992
20
-33.3702
11
33.4079
21
-33.3687
0
LINE
8
BLACK
6
CONTINUOUS
10
33.4079
20
-33.3687
11
33.4163
21
-33.3662
0
LINE
8
BLACK
6
CONTINUOUS
10
33.4163
20
-33.3662
11
33.4206
21
-33.3664
0
LINE
8
BLACK
6
CONTINUOUS
10
33.4206
20
-33.3664
11
33.4249
21
-33.3657
0
LINE
8
BLACK
6
CONTINUOUS
10
33.4249
20
-33.3657
11
33.5677
21
-33.3657
0
LINE
8
BLACK
6
CONTINUOUS
10
33.5677
20
-33.3657
11
33.572
21
-33.3664
0
LINE
8
BLACK
6
CONTINUOUS
10
33.4426
20
-33.5157
11
33.374
21
-33.5499
0
LINE
8
BLACK
6
CONTINUOUS
10
33.374
20
-33.5499
11
33.3436
21
-33.5803
0
LINE
8
BLACK
6
CONTINUOUS
10
33.3436
20
-33.5803
11
33.3094
21
-33.6488
0
LINE
8
BLACK
6
CONTINUOUS
10
33.3094
20
-33.6488
11
33.3094
21
-33.9371
0
LINE
8
BLACK
6
CONTINUOUS
10
33.3094
20
-33.9371
11
33.6832
21
-33.9371
0
LINE
8
BLACK
6
CONTINUOUS
10
33.6832
20
-33.9371
11
33.6832
21
-33.6488
0
LINE
8
BLACK
6
CONTINUOUS
10
33.6832
20
-33.6488
11
33.6489
21
-33.5803
0
LINE
8
BLACK
6
CONTINUOUS
10
33.6489
20
-33.5803
11
33.6185
21
-33.5499
0
LINE
8
BLACK
6
CONTINUOUS
10
33.6185
20
-33.5499
11
33.55
21
-33.5157
0
LINE
8
BLACK
6
CONTINUOUS
10
33.55
20
-33.5157
11
33.4426
21
-33.5157
0
LINE
8
BLACK
6
CONTINUOUS
10
34.0482
20
-32.414
11
34.0525
21
-32.4138
0
LINE
8
BLACK
6
CONTINUOUS
10
34.0525
20
-32.4138
11
34.0609
21
-32.4163
0
LINE
8
BLACK
6
CONTINUOUS
10
34.0609
20
-32.4163
11
34.0696
21
-32.4178
0
LINE
8
BLACK
6
CONTINUOUS
10
34.0696
20
-32.4178
11
34.0733
21
-32.42
0
LINE
8
BLACK
6
CONTINUOUS
10
34.0733
20
-32.42
11
34.0774
21
-32.4212
0
LINE
8
BLACK
6
CONTINUOUS
10
34.0774
20
-32.4212
11
34.1727
21
-32.4688
0
LINE
8
BLACK
6
CONTINUOUS
10
34.1727
20
-32.4688
11
34.1823
21
-32.476
0
LINE
8
BLACK
6
CONTINUOUS
10
34.1823
20
-32.476
11
34.1922
21
-32.4829
0
LINE
8
BLACK
6
CONTINUOUS
10
34.1922
20
-32.4829
11
34.2398
21
-32.5305
0
LINE
8
BLACK
6
CONTINUOUS
10
34.2398
20
-32.5305
11
34.2467
21
-32.5403
0
LINE
8
BLACK
6
CONTINUOUS
10
34.2467
20
-32.5403
11
34.2538
21
-32.55
0
LINE
8
BLACK
6
CONTINUOUS
10
34.2538
20
-32.55
11
34.3015
21
-32.6452
0
LINE
8
BLACK
6
CONTINUOUS
10
34.3015
20
-32.6452
11
34.3027
21
-32.6494
0
LINE
8
BLACK
6
CONTINUOUS
10
34.3027
20
-32.6494
11
34.3049
21
-32.6531
0
LINE
8
BLACK
6
CONTINUOUS
10
34.3049
20
-32.6531
11
34.3064
21
-32.6618
0
LINE
8
BLACK
6
CONTINUOUS
10
34.3064
20
-32.6618
11
34.3089
21
-32.6702
0
LINE
8
BLACK
6
CONTINUOUS
10
34.3089
20
-32.6702
11
34.3086
21
-32.6745
0
LINE
8
BLACK
6
CONTINUOUS
10
34.3086
20
-32.6745
11
34.3094
21
-32.6788
0
LINE
8
BLACK
6
CONTINUOUS
10
34.3094
20
-32.6788
11
34.3094
21
-32.9169
0
LINE
8
BLACK
6
CONTINUOUS
10
34.3094
20
-32.9169
11
34.3086
21
-32.9211
0
LINE
8
BLACK
6
CONTINUOUS
10
34.3086
20
-32.9211
11
34.3089
21
-32.9254
0
LINE
8
BLACK
6
CONTINUOUS
10
34.3089
20
-32.9254
11
34.3064
21
-32.9339
0
LINE
8
BLACK
6
CONTINUOUS
10
34.3064
20
-32.9339
11
34.3049
21
-32.9425
0
LINE
8
BLACK
6
CONTINUOUS
10
34.3049
20
-32.9425
11
34.3027
21
-32.9463
0
LINE
8
BLACK
6
CONTINUOUS
10
34.3027
20
-32.9463
11
34.3015
21
-32.9504
0
LINE
8
BLACK
6
CONTINUOUS
10
34.3015
20
-32.9504
11
34.2538
21
-33.0456
0
LINE
8
BLACK
6
CONTINUOUS
10
34.2538
20
-33.0456
11
34.2467
21
-33.0553
0
LINE
8
BLACK
6
CONTINUOUS
10
34.2467
20
-33.0553
11
34.2398
21
-33.0651
0
LINE
8
BLACK
6
CONTINUOUS
10
34.2398
20
-33.0651
11
34.1922
21
-33.1127
0
LINE
8
BLACK
6
CONTINUOUS
10
34.1922
20
-33.1127
11
34.1708
21
-33.1277
0
LINE
8
BLACK
6
CONTINUOUS
10
34.1708
20
-33.1277
11
34.1457
21
-33.1344
0
LINE
8
BLACK
6
CONTINUOUS
10
34.1457
20
-33.1344
11
34.1197
21
-33.1322
0
LINE
8
BLACK
6
CONTINUOUS
10
34.1197
20
-33.1322
11
34.0961
21
-33.1212
0
LINE
8
BLACK
6
CONTINUOUS
10
34.0961
20
-33.1212
11
34.0777
21
-33.1027
0
LINE
8
BLACK
6
CONTINUOUS
10
34.0777
20
-33.1027
11
34.0667
21
-33.0791
0
LINE
8
BLACK
6
CONTINUOUS
10
34.0667
20
-33.0791
11
34.0644
21
-33.0532
0
LINE
8
BLACK
6
CONTINUOUS
10
34.0644
20
-33.0532
11
34.0712
21
-33.028
0
LINE
8
BLACK
6
CONTINUOUS
10
34.0712
20
-33.028
11
34.0861
21
-33.0067
0
LINE
8
BLACK
6
CONTINUOUS
10
34.0861
20
-33.0067
11
34.1251
21
-32.9677
0
LINE
8
BLACK
6
CONTINUOUS
10
34.1251
20
-32.9677
11
34.1594
21
-32.8992
0
LINE
8
BLACK
6
CONTINUOUS
10
34.1594
20
-32.8992
11
34.1594
21
-32.6965
0
LINE
8
BLACK
6
CONTINUOUS
10
34.1594
20
-32.6965
11
34.1251
21
-32.6279
0
LINE
8
BLACK
6
CONTINUOUS
10
34.1251
20
-32.6279
11
34.0947
21
-32.5975
0
LINE
8
BLACK
6
CONTINUOUS
10
34.0947
20
-32.5975
11
34.0262
21
-32.5633
0
LINE
8
BLACK
6
CONTINUOUS
10
34.0262
20
-32.5633
11
33.8235
21
-32.5633
0
LINE
8
BLACK
6
CONTINUOUS
10
33.8235
20
-32.5633
11
33.755
21
-32.5975
0
LINE
8
BLACK
6
CONTINUOUS
10
33.755
20
-32.5975
11
33.7246
21
-32.6279
0
LINE
8
BLACK
6
CONTINUOUS
10
33.7246
20
-32.6279
11
33.6903
21
-32.6965
0
LINE
8
BLACK
6
CONTINUOUS
10
33.6903
20
-32.6965
11
33.6903
21
-32.8992
0
LINE
8
BLACK
6
CONTINUOUS
10
33.6903
20
-32.8992
11
33.7246
21
-32.9677
0
LINE
8
BLACK
6
CONTINUOUS
10
33.7246
20
-32.9677
11
33.7636
21
-33.0067
0
LINE
8
BLACK
6
CONTINUOUS
10
33.7636
20
-33.0067
11
33.7639
21
-33.0071
0
LINE
8
BLACK
6
CONTINUOUS
10
33.7639
20
-33.0071
11
33.7643
21
-33.0073
0
LINE
8
BLACK
6
CONTINUOUS
10
33.7643
20
-33.0073
11
33.7713
21
-33.0177
0
LINE
8
BLACK
6
CONTINUOUS
10
33.7713
20
-33.0177
11
33.7785
21
-33.028
0
LINE
8
BLACK
6
CONTINUOUS
10
33.7785
20
-33.028
11
33.7787
21
-33.0285
0
LINE
8
BLACK
6
CONTINUOUS
10
33.7787
20
-33.0285
11
33.7789
21
-33.0289
0
LINE
8
BLACK
6
CONTINUOUS
10
33.7789
20
-33.0289
11
33.782
21
-33.0411
0
LINE
8
BLACK
6
CONTINUOUS
10
33.782
20
-33.0411
11
33.7853
21
-33.0532
0
LINE
8
BLACK
6
CONTINUOUS
10
33.7853
20
-33.0532
11
33.7852
21
-33.0536
0
LINE
8
BLACK
6
CONTINUOUS
10
33.7852
20
-33.0536
11
33.7854
21
-33.0541
0
LINE
8
BLACK
6
CONTINUOUS
10
33.7854
20
-33.0541
11
33.7841
21
-33.0666
0
LINE
8
BLACK
6
CONTINUOUS
10
33.7841
20
-33.0666
11
33.783
21
-33.0791
0
LINE
8
BLACK
6
CONTINUOUS
10
33.783
20
-33.0791
11
33.7828
21
-33.0796
0
LINE
8
BLACK
6
CONTINUOUS
10
33.7828
20
-33.0796
11
33.7828
21
-33.08
0
LINE
8
BLACK
6
CONTINUOUS
10
33.7828
20
-33.08
11
33.7773
21
-33.0913
0
LINE
8
BLACK
6
CONTINUOUS
10
33.7773
20
-33.0913
11
33.772
21
-33.1027
0
LINE
8
BLACK
6
CONTINUOUS
10
33.772
20
-33.1027
11
33.7717
21
-33.1031
0
LINE
8
BLACK
6
CONTINUOUS
10
33.7717
20
-33.1031
11
33.7715
21
-33.1035
0
LINE
8
BLACK
6
CONTINUOUS
10
33.7715
20
-33.1035
11
33.7625
21
-33.1122
0
LINE
8
BLACK
6
CONTINUOUS
10
33.7625
20
-33.1122
11
33.7536
21
-33.1212
0
LINE
8
BLACK
6
CONTINUOUS
10
33.7536
20
-33.1212
11
33.7532
21
-33.1214
0
LINE
8
BLACK
6
CONTINUOUS
10
33.7532
20
-33.1214
11
33.7528
21
-33.1217
0
LINE
8
BLACK
6
CONTINUOUS
10
33.7528
20
-33.1217
11
33.7414
21
-33.1269
0
LINE
8
BLACK
6
CONTINUOUS
10
33.7414
20
-33.1269
11
33.73
21
-33.1322
0
LINE
8
BLACK
6
CONTINUOUS
10
33.73
20
-33.1322
11
33.7295
21
-33.1322
0
LINE
8
BLACK
6
CONTINUOUS
10
33.7295
20
-33.1322
11
33.7291
21
-33.1324
0
LINE
8
BLACK
6
CONTINUOUS
10
33.7291
20
-33.1324
11
33.7165
21
-33.1333
0
LINE
8
BLACK
6
CONTINUOUS
10
33.7165
20
-33.1333
11
33.704
21
-33.1344
0
LINE
8
BLACK
6
CONTINUOUS
10
33.704
20
-33.1344
11
33.7036
21
-33.1343
0
LINE
8
BLACK
6
CONTINUOUS
10
33.7036
20
-33.1343
11
33.7031
21
-33.1343
0
LINE
8
BLACK
6
CONTINUOUS
10
33.7031
20
-33.1343
11
33.2269
21
-33.0867
0
LINE
8
BLACK
6
CONTINUOUS
10
33.2269
20
-33.0867
11
33.2242
21
-33.086
0
LINE
8
BLACK
6
CONTINUOUS
10
33.2242
20
-33.086
11
33.2214
21
-33.086
0
LINE
8
BLACK
6
CONTINUOUS
10
33.2214
20
-33.086
11
33.2117
21
-33.0824
0
LINE
8
BLACK
6
CONTINUOUS
10
33.2117
20
-33.0824
11
33.2018
21
-33.0797
0
LINE
8
BLACK
6
CONTINUOUS
10
33.2018
20
-33.0797
11
33.1995
21
-33.078
0
LINE
8
BLACK
6
CONTINUOUS
10
33.1995
20
-33.078
11
33.1969
21
-33.077
0
LINE
8
BLACK
6
CONTINUOUS
10
33.1969
20
-33.077
11
33.189
21
-33.0705
0
LINE
8
BLACK
6
CONTINUOUS
10
33.189
20
-33.0705
11
33.1807
21
-33.0645
0
LINE
8
BLACK
6
CONTINUOUS
10
33.1807
20
-33.0645
11
33.1791
21
-33.0621
0
LINE
8
BLACK
6
CONTINUOUS
10
33.1791
20
-33.0621
11
33.1769
21
-33.0603
0
LINE
8
BLACK
6
CONTINUOUS
10
33.1769
20
-33.0603
11
33.1718
21
-33.0514
0
LINE
8
BLACK
6
CONTINUOUS
10
33.1718
20
-33.0514
11
33.166
21
-33.0429
0
LINE
8
BLACK
6
CONTINUOUS
10
33.166
20
-33.0429
11
33.1653
21
-33.0402
0
LINE
8
BLACK
6
CONTINUOUS
10
33.1653
20
-33.0402
11
33.1639
21
-33.0377
0
LINE
8
BLACK
6
CONTINUOUS
10
33.1639
20
-33.0377
11
33.1621
21
-33.0276
0
LINE
8
BLACK
6
CONTINUOUS
10
33.1621
20
-33.0276
11
33.1596
21
-33.0177
0
LINE
8
BLACK
6
CONTINUOUS
10
33.1596
20
-33.0177
11
33.1599
21
-33.0149
0
LINE
8
BLACK
6
CONTINUOUS
10
33.1599
20
-33.0149
11
33.1594
21
-33.0121
0
LINE
8
BLACK
6
CONTINUOUS
10
33.1594
20
-33.0121
11
33.1594
21
-32.5359
0
LINE
8
BLACK
6
CONTINUOUS
10
33.1594
20
-32.5359
11
33.1639
21
-32.5103
0
LINE
8
BLACK
6
CONTINUOUS
10
33.1639
20
-32.5103
11
33.1769
21
-32.4877
0
LINE
8
BLACK
6
CONTINUOUS
10
33.1769
20
-32.4877
11
33.1969
21
-32.471
0
LINE
8
BLACK
6
CONTINUOUS
10
33.1969
20
-32.471
11
33.2214
21
-32.462
0
LINE
8
BLACK
6
CONTINUOUS
10
33.2214
20
-32.462
11
33.2474
21
-32.462
0
LINE
8
BLACK
6
CONTINUOUS
10
33.2474
20
-32.462
11
33.2719
21
-32.471
0
LINE
8
BLACK
6
CONTINUOUS
10
33.2719
20
-32.471
11
33.2918
21
-32.4877
0
LINE
8
BLACK
6
CONTINUOUS
10
33.2918
20
-32.4877
11
33.3049
21
-32.5103
0
LINE
8
BLACK
6
CONTINUOUS
10
33.3049
20
-32.5103
11
33.3094
21
-32.5359
0
LINE
8
BLACK
6
CONTINUOUS
10
33.3094
20
-32.5359
11
33.3094
21
-32.9442
0
LINE
8
BLACK
6
CONTINUOUS
10
33.3094
20
-32.9442
11
33.5576
21
-32.969
0
LINE
8
BLACK
6
CONTINUOUS
10
33.5576
20
-32.969
11
33.5483
21
-32.9504
0
LINE
8
BLACK
6
CONTINUOUS
10
33.5483
20
-32.9504
11
33.547
21
-32.9463
0
LINE
8
BLACK
6
CONTINUOUS
10
33.547
20
-32.9463
11
33.5449
21
-32.9425
0
LINE
8
BLACK
6
CONTINUOUS
10
33.5449
20
-32.9425
11
33.5433
21
-32.9339
0
LINE
8
BLACK
6
CONTINUOUS
10
33.5433
20
-32.9339
11
33.5408
21
-32.9254
0
LINE
8
BLACK
6
CONTINUOUS
10
33.5408
20
-32.9254
11
33.5411
21
-32.9211
0
LINE
8
BLACK
6
CONTINUOUS
10
33.5411
20
-32.9211
11
33.5403
21
-32.9169
0
LINE
8
BLACK
6
CONTINUOUS
10
33.5403
20
-32.9169
11
33.5403
21
-32.6788
0
LINE
8
BLACK
6
CONTINUOUS
10
33.5403
20
-32.6788
11
33.5411
21
-32.6745
0
LINE
8
BLACK
6
CONTINUOUS
10
33.5411
20
-32.6745
11
33.5408
21
-32.6702
0
LINE
8
BLACK
6
CONTINUOUS
10
33.5408
20
-32.6702
11
33.5433
21
-32.6618
0
LINE
8
BLACK
6
CONTINUOUS
10
33.5433
20
-32.6618
11
33.5449
21
-32.6531
0
LINE
8
BLACK
6
CONTINUOUS
10
33.5449
20
-32.6531
11
33.547
21
-32.6494
0
LINE
8
BLACK
6
CONTINUOUS
10
33.547
20
-32.6494
11
33.5483
21
-32.6452
0
LINE
8
BLACK
6
CONTINUOUS
10
33.5483
20
-32.6452
11
33.5959
21
-32.55
0
LINE
8
BLACK
6
CONTINUOUS
10
33.5959
20
-32.55
11
33.603
21
-32.5403
0
LINE
8
BLACK
6
CONTINUOUS
10
33.603
20
-32.5403
11
33.6099
21
-32.5305
0
LINE
8
BLACK
6
CONTINUOUS
10
33.6099
20
-32.5305
11
33.6575
21
-32.4829
0
LINE
8
BLACK
6
CONTINUOUS
10
33.6575
20
-32.4829
11
33.6674
21
-32.476
0
LINE
8
BLACK
6
CONTINUOUS
10
33.6674
20
-32.476
11
33.677
21
-32.4688
0
LINE
8
BLACK
6
CONTINUOUS
10
33.677
20
-32.4688
11
33.7723
21
-32.4212
0
LINE
8
BLACK
6
CONTINUOUS
10
33.7723
20
-32.4212
11
33.7764
21
-32.42
0
LINE
8
BLACK
6
CONTINUOUS
10
33.7764
20
-32.42
11
33.7802
21
-32.4178
0
LINE
8
BLACK
6
CONTINUOUS
10
33.7802
20
-32.4178
11
33.7888
21
-32.4163
0
LINE
8
BLACK
6
CONTINUOUS
10
33.7888
20
-32.4163
11
33.7972
21
-32.4138
0
LINE
8
BLACK
6
CONTINUOUS
10
33.7972
20
-32.4138
11
33.8015
21
-32.414
0
LINE
8
BLACK
6
CONTINUOUS
10
33.8015
20
-32.414
11
33.8058
21
-32.4133
0
LINE
8
BLACK
6
CONTINUOUS
10
33.8058
20
-32.4133
11
34.0439
21
-32.4133
0
LINE
8
BLACK
6
CONTINUOUS
10
34.0439
20
-32.4133
11
34.0482
21
-32.414
0
LINE
8
BLACK
6
CONTINUOUS
10
36.3525
20
-30.3512
11
36.3687
21
-30.3648
0
LINE
8
BLACK
6
CONTINUOUS
10
36.3687
20
-30.3648
11
36.3793
21
-30.3832
0
LINE
8
BLACK
6
CONTINUOUS
10
36.3793
20
-30.3832
11
36.382
21
-30.3988
0
LINE
8
BLACK
6
CONTINUOUS
10
36.382
20
-30.3988
11
36.382
21
-31.294
0
LINE
8
BLACK
6
CONTINUOUS
10
36.382
20
-31.294
11
37.2472
21
-31.294
0
LINE
8
BLACK
6
CONTINUOUS
10
37.2472
20
-31.294
11
37.2473
21
-31.294
0
LINE
8
BLACK
6
CONTINUOUS
10
37.2473
20
-31.294
11
37.2526
21
-31.294
0
LINE
8
BLACK
6
CONTINUOUS
10
37.2526
20
-31.294
11
37.2576
21
-31.2958
0
LINE
8
BLACK
6
CONTINUOUS
10
37.2576
20
-31.2958
11
37.2628
21
-31.2967
0
LINE
8
BLACK
6
CONTINUOUS
10
37.2628
20
-31.2967
11
37.2675
21
-31.2994
0
LINE
8
BLACK
6
CONTINUOUS
10
37.2675
20
-31.2994
11
37.2725
21
-31.3012
0
LINE
8
BLACK
6
CONTINUOUS
10
37.2725
20
-31.3012
11
37.2765
21
-31.3047
0
LINE
8
BLACK
6
CONTINUOUS
10
37.2765
20
-31.3047
11
37.2812
21
-31.3073
0
LINE
8
BLACK
6
CONTINUOUS
10
37.2812
20
-31.3073
11
37.2846
21
-31.3114
0
LINE
8
BLACK
6
CONTINUOUS
10
37.2846
20
-31.3114
11
37.2887
21
-31.3148
0
LINE
8
BLACK
6
CONTINUOUS
10
37.2887
20
-31.3148
11
37.2913
21
-31.3195
0
LINE
8
BLACK
6
CONTINUOUS
10
37.2913
20
-31.3195
11
37.2948
21
-31.3235
0
LINE
8
BLACK
6
CONTINUOUS
10
37.2948
20
-31.3235
11
37.2966
21
-31.3285
0
LINE
8
BLACK
6
CONTINUOUS
10
37.2966
20
-31.3285
11
37.2993
21
-31.3332
0
LINE
8
BLACK
6
CONTINUOUS
10
37.2993
20
-31.3332
11
37.3002
21
-31.3384
0
LINE
8
BLACK
6
CONTINUOUS
10
37.3002
20
-31.3384
11
37.302
21
-31.3434
0
LINE
8
BLACK
6
CONTINUOUS
10
37.302
20
-31.3434
11
37.302
21
-31.3487
0
LINE
8
BLACK
6
CONTINUOUS
10
37.302
20
-31.3487
11
37.302
21
-31.3488
0
LINE
8
BLACK
6
CONTINUOUS
10
37.302
20
-31.3488
11
37.302
21
-35.1992
0
LINE
8
BLACK
6
CONTINUOUS
10
37.302
20
-35.1992
11
37.302
21
-35.1993
0
LINE
8
BLACK
6
CONTINUOUS
10
37.302
20
-35.1993
11
37.302
21
-35.2046
0
LINE
8
BLACK
6
CONTINUOUS
10
37.302
20
-35.2046
11
37.3002
21
-35.2096
0
LINE
8
BLACK
6
CONTINUOUS
10
37.3002
20
-35.2096
11
37.2993
21
-35.2148
0
LINE
8
BLACK
6
CONTINUOUS
10
37.2993
20
-35.2148
11
37.2966
21
-35.2195
0
LINE
8
BLACK
6
CONTINUOUS
10
37.2966
20
-35.2195
11
37.2948
21
-35.2245
0
LINE
8
BLACK
6
CONTINUOUS
10
37.2948
20
-35.2245
11
37.2913
21
-35.2285
0
LINE
8
BLACK
6
CONTINUOUS
10
37.2913
20
-35.2285
11
37.2887
21
-35.2332
0
LINE
8
BLACK
6
CONTINUOUS
10
37.2887
20
-35.2332
11
37.2846
21
-35.2366
0
LINE
8
BLACK
6
CONTINUOUS
10
37.2846
20
-35.2366
11
37.2812
21
-35.2407
0
LINE
8
BLACK
6
CONTINUOUS
10
37.2812
20
-35.2407
11
37.2765
21
-35.2433
0
LINE
8
BLACK
6
CONTINUOUS
10
37.2765
20
-35.2433
11
37.2725
21
-35.2468
0
LINE
8
BLACK
6
CONTINUOUS
10
37.2725
20
-35.2468
11
37.2675
21
-35.2486
0
LINE
8
BLACK
6
CONTINUOUS
10
37.2675
20
-35.2486
11
37.2628
21
-35.2513
0
LINE
8
BLACK
6
CONTINUOUS
10
37.2628
20
-35.2513
11
37.2576
21
-35.2522
0
LINE
8
BLACK
6
CONTINUOUS
10
37.2576
20
-35.2522
11
37.2526
21
-35.254
0
LINE
8
BLACK
6
CONTINUOUS
10
37.2526
20
-35.254
11
37.2473
21
-35.254
0
LINE
8
BLACK
6
CONTINUOUS
10
37.2473
20
-35.254
11
37.2472
21
-35.254
0
LINE
8
BLACK
6
CONTINUOUS
10
37.2472
20
-35.254
11
36.382
21
-35.254
0
LINE
8
BLACK
6
CONTINUOUS
10
36.382
20
-35.254
11
36.382
21
-36.1492
0
LINE
8
BLACK
6
CONTINUOUS
10
36.382
20
-36.1492
11
36.3793
21
-36.1648
0
LINE
8
BLACK
6
CONTINUOUS
10
36.3793
20
-36.1648
11
36.3687
21
-36.1832
0
LINE
8
BLACK
6
CONTINUOUS
10
36.3687
20
-36.1832
11
36.3525
21
-36.1968
0
LINE
8
BLACK
6
CONTINUOUS
10
36.3525
20
-36.1968
11
36.3326
21
-36.204
0
LINE
8
BLACK
6
CONTINUOUS
10
36.3326
20
-36.204
11
36.3114
21
-36.204
0
LINE
8
BLACK
6
CONTINUOUS
10
36.3114
20
-36.204
11
36.2915
21
-36.1968
0
LINE
8
BLACK
6
CONTINUOUS
10
36.2915
20
-36.1968
11
36.2753
21
-36.1832
0
LINE
8
BLACK
6
CONTINUOUS
10
36.2753
20
-36.1832
11
36.2647
21
-36.1648
0
LINE
8
BLACK
6
CONTINUOUS
10
36.2647
20
-36.1648
11
36.262
21
-36.1492
0
LINE
8
BLACK
6
CONTINUOUS
10
36.262
20
-36.1492
11
36.262
21
-35.254
0
LINE
8
BLACK
6
CONTINUOUS
10
36.262
20
-35.254
11
35.3968
21
-35.254
0
LINE
8
BLACK
6
CONTINUOUS
10
35.3968
20
-35.254
11
35.3967
21
-35.254
0
LINE
8
BLACK
6
CONTINUOUS
10
35.3967
20
-35.254
11
35.3914
21
-35.254
0
LINE
8
BLACK
6
CONTINUOUS
10
35.3914
20
-35.254
11
35.3864
21
-35.2522
0
LINE
8
BLACK
6
CONTINUOUS
10
35.3864
20
-35.2522
11
35.3812
21
-35.2513
0
LINE
8
BLACK
6
CONTINUOUS
10
35.3812
20
-35.2513
11
35.3765
21
-35.2486
0
LINE
8
BLACK
6
CONTINUOUS
10
35.3765
20
-35.2486
11
35.3715
21
-35.2468
0
LINE
8
BLACK
6
CONTINUOUS
10
35.3715
20
-35.2468
11
35.3675
21
-35.2433
0
LINE
8
BLACK
6
CONTINUOUS
10
35.3675
20
-35.2433
11
35.3628
21
-35.2407
0
LINE
8
BLACK
6
CONTINUOUS
10
35.3628
20
-35.2407
11
35.3594
21
-35.2366
0
LINE
8
BLACK
6
CONTINUOUS
10
35.3594
20
-35.2366
11
35.3553
21
-35.2332
0
LINE
8
BLACK
6
CONTINUOUS
10
35.3553
20
-35.2332
11
35.3527
21
-35.2285
0
LINE
8
BLACK
6
CONTINUOUS
10
35.3527
20
-35.2285
11
35.3492
21
-35.2245
0
LINE
8
BLACK
6
CONTINUOUS
10
35.3492
20
-35.2245
11
35.3474
21
-35.2195
0
LINE
8
BLACK
6
CONTINUOUS
10
35.3474
20
-35.2195
11
35.3447
21
-35.2148
0
LINE
8
BLACK
6
CONTINUOUS
10
35.3447
20
-35.2148
11
35.3438
21
-35.2096
0
LINE
8
BLACK
6
CONTINUOUS
10
35.3438
20
-35.2096
11
35.342
21
-35.2046
0
LINE
8
BLACK
6
CONTINUOUS
10
35.342
20
-35.2046
11
35.342
21
-35.1834
0
LINE
8
BLACK
6
CONTINUOUS
10
35.342
20
-35.1834
11
35.342
21
-31.3488
0
LINE
8
BLACK
6
CONTINUOUS
10
35.342
20
-31.3488
11
35.342
21
-31.3487
0
LINE
8
BLACK
6
CONTINUOUS
10
35.342
20
-31.3487
11
35.342
21
-31.3434
0
LINE
8
BLACK
6
CONTINUOUS
10
35.342
20
-31.3434
11
35.3438
21
-31.3384
0
LINE
8
BLACK
6
CONTINUOUS
10
35.3438
20
-31.3384
11
35.3447
21
-31.3332
0
LINE
8
BLACK
6
CONTINUOUS
10
35.3447
20
-31.3332
11
35.3474
21
-31.3285
0
LINE
8
BLACK
6
CONTINUOUS
10
35.3474
20
-31.3285
11
35.3492
21
-31.3235
0
LINE
8
BLACK
6
CONTINUOUS
10
35.3492
20
-31.3235
11
35.3527
21
-31.3195
0
LINE
8
BLACK
6
CONTINUOUS
10
35.3527
20
-31.3195
11
35.3553
21
-31.3148
0
LINE
8
BLACK
6
CONTINUOUS
10
35.3553
20
-31.3148
11
35.3594
21
-31.3114
0
LINE
8
BLACK
6
CONTINUOUS
10
35.3594
20
-31.3114
11
35.3628
21
-31.3073
0
LINE
8
BLACK
6
CONTINUOUS
10
35.3628
20
-31.3073
11
35.3675
21
-31.3047
0
LINE
8
BLACK
6
CONTINUOUS
10
35.3675
20
-31.3047
11
35.3715
21
-31.3012
0
LINE
8
BLACK
6
CONTINUOUS
10
35.3715
20
-31.3012
11
35.3765
21
-31.2994
0
LINE
8
BLACK
6
CONTINUOUS
10
35.3765
20
-31.2994
11
35.3812
21
-31.2967
0
LINE
8
BLACK
6
CONTINUOUS
10
35.3812
20
-31.2967
11
35.3864
21
-31.2958
0
LINE
8
BLACK
6
CONTINUOUS
10
35.3864
20
-31.2958
11
35.3914
21
-31.294
0
LINE
8
BLACK
6
CONTINUOUS
10
35.3914
20
-31.294
11
35.3967
21
-31.294
0
LINE
8
BLACK
6
CONTINUOUS
10
35.3967
20
-31.294
11
35.3968
21
-31.294
0
LINE
8
BLACK
6
CONTINUOUS
10
35.3968
20
-31.294
11
36.262
21
-31.294
0
LINE
8
BLACK
6
CONTINUOUS
10
36.262
20
-31.294
11
36.262
21
-30.3988
0
LINE
8
BLACK
6
CONTINUOUS
10
36.262
20
-30.3988
11
36.2647
21
-30.3832
0
LINE
8
BLACK
6
CONTINUOUS
10
36.2647
20
-30.3832
11
36.2753
21
-30.3648
0
LINE
8
BLACK
6
CONTINUOUS
10
36.2753
20
-30.3648
11
36.2915
21
-30.3512
0
LINE
8
BLACK
6
CONTINUOUS
10
36.2915
20
-30.3512
11
36.3114
21
-30.344
0
LINE
8
BLACK
6
CONTINUOUS
10
36.3114
20
-30.344
11
36.3326
21
-30.344
0
LINE
8
BLACK
6
CONTINUOUS
10
36.3326
20
-30.344
11
36.3525
21
-30.3512
0
LINE
8
BLACK
6
CONTINUOUS
10
35.462
20
-31.414
11
35.462
21
-35.134
0
LINE
8
BLACK
6
CONTINUOUS
10
35.462
20
-35.134
11
37.182
21
-35.134
0
LINE
8
BLACK
6
CONTINUOUS
10
37.182
20
-35.134
11
37.182
21
-31.414
0
LINE
8
BLACK
6
CONTINUOUS
10
37.182
20
-31.414
11
35.462
21
-31.414
0
LINE
8
BLACK
6
CONTINUOUS
10
36.112
20
-33.3664
11
36.1163
21
-33.3662
0
LINE
8
BLACK
6
CONTINUOUS
10
36.1163
20
-33.3662
11
36.1247
21
-33.3687
0
LINE
8
BLACK
6
CONTINUOUS
10
36.1247
20
-33.3687
11
36.1334
21
-33.3702
0
LINE
8
BLACK
6
CONTINUOUS
10
36.1334
20
-33.3702
11
36.1371
21
-33.3724
0
LINE
8
BLACK
6
CONTINUOUS
10
36.1371
20
-33.3724
11
36.1413
21
-33.3736
0
LINE
8
BLACK
6
CONTINUOUS
10
36.1413
20
-33.3736
11
36.2365
21
-33.4212
0
LINE
8
BLACK
6
CONTINUOUS
10
36.2365
20
-33.4212
11
36.2462
21
-33.4284
0
LINE
8
BLACK
6
CONTINUOUS
10
36.2462
20
-33.4284
11
36.256
21
-33.4353
0
LINE
8
BLACK
6
CONTINUOUS
10
36.256
20
-33.4353
11
36.3036
21
-33.4829
0
LINE
8
BLACK
6
CONTINUOUS
10
36.3036
20
-33.4829
11
36.3105
21
-33.4927
0
LINE
8
BLACK
6
CONTINUOUS
10
36.3105
20
-33.4927
11
36.3177
21
-33.5024
0
LINE
8
BLACK
6
CONTINUOUS
10
36.3177
20
-33.5024
11
36.3653
21
-33.5976
0
LINE
8
BLACK
6
CONTINUOUS
10
36.3653
20
-33.5976
11
36.3665
21
-33.6017
0
LINE
8
BLACK
6
CONTINUOUS
10
36.3665
20
-33.6017
11
36.3687
21
-33.6055
0
LINE
8
BLACK
6
CONTINUOUS
10
36.3687
20
-33.6055
11
36.3702
21
-33.6141
0
LINE
8
BLACK
6
CONTINUOUS
10
36.3702
20
-33.6141
11
36.3727
21
-33.6226
0
LINE
8
BLACK
6
CONTINUOUS
10
36.3727
20
-33.6226
11
36.3724
21
-33.6269
0
LINE
8
BLACK
6
CONTINUOUS
10
36.3724
20
-33.6269
11
36.373
21
-33.6301
0
LINE
8
BLACK
6
CONTINUOUS
10
36.373
20
-33.6301
11
36.7314
21
-33.3792
0
LINE
8
BLACK
6
CONTINUOUS
10
36.7314
20
-33.3792
11
36.755
21
-33.3682
0
LINE
8
BLACK
6
CONTINUOUS
10
36.755
20
-33.3682
11
36.7809
21
-33.366
0
LINE
8
BLACK
6
CONTINUOUS
10
36.7809
20
-33.366
11
36.8061
21
-33.3727
0
LINE
8
BLACK
6
CONTINUOUS
10
36.8061
20
-33.3727
11
36.8274
21
-33.3876
0
LINE
8
BLACK
6
CONTINUOUS
10
36.8274
20
-33.3876
11
36.8424
21
-33.409
0
LINE
8
BLACK
6
CONTINUOUS
10
36.8424
20
-33.409
11
36.8491
21
-33.4341
0
LINE
8
BLACK
6
CONTINUOUS
10
36.8491
20
-33.4341
11
36.8468
21
-33.4601
0
LINE
8
BLACK
6
CONTINUOUS
10
36.8468
20
-33.4601
11
36.8358
21
-33.4837
0
LINE
8
BLACK
6
CONTINUOUS
10
36.8358
20
-33.4837
11
36.8174
21
-33.5021
0
LINE
8
BLACK
6
CONTINUOUS
10
36.8174
20
-33.5021
11
36.3732
21
-33.813
0
LINE
8
BLACK
6
CONTINUOUS
10
36.3732
20
-33.813
11
36.3732
21
-33.9371
0
LINE
8
BLACK
6
CONTINUOUS
10
36.3732
20
-33.9371
11
36.7744
21
-33.9371
0
LINE
8
BLACK
6
CONTINUOUS
10
36.7744
20
-33.9371
11
36.8
21
-33.9416
0
LINE
8
BLACK
6
CONTINUOUS
10
36.8
20
-33.9416
11
36.8226
21
-33.9546
0
LINE
8
BLACK
6
CONTINUOUS
10
36.8226
20
-33.9546
11
36.8393
21
-33.9746
0
LINE
8
BLACK
6
CONTINUOUS
10
36.8393
20
-33.9746
11
36.8482
21
-33.9991
0
LINE
8
BLACK
6
CONTINUOUS
10
36.8482
20
-33.9991
11
36.8482
21
-34.0251
0
LINE
8
BLACK
6
CONTINUOUS
10
36.8482
20
-34.0251
11
36.8393
21
-34.0496
0
LINE
8
BLACK
6
CONTINUOUS
10
36.8393
20
-34.0496
11
36.8226
21
-34.0695
0
LINE
8
BLACK
6
CONTINUOUS
10
36.8226
20
-34.0695
11
36.8
21
-34.0826
0
LINE
8
BLACK
6
CONTINUOUS
10
36.8
20
-34.0826
11
36.7744
21
-34.0871
0
LINE
8
BLACK
6
CONTINUOUS
10
36.7744
20
-34.0871
11
35.7744
21
-34.0871
0
LINE
8
BLACK
6
CONTINUOUS
10
35.7744
20
-34.0871
11
35.7679
21
-34.086
0
LINE
8
BLACK
6
CONTINUOUS
10
35.7679
20
-34.086
11
35.7614
21
-34.086
0
LINE
8
BLACK
6
CONTINUOUS
10
35.7614
20
-34.086
11
35.7552
21
-34.0837
0
LINE
8
BLACK
6
CONTINUOUS
10
35.7552
20
-34.0837
11
35.7487
21
-34.0826
0
LINE
8
BLACK
6
CONTINUOUS
10
35.7487
20
-34.0826
11
35.743
21
-34.0793
0
LINE
8
BLACK
6
CONTINUOUS
10
35.743
20
-34.0793
11
35.7369
21
-34.077
0
LINE
8
BLACK
6
CONTINUOUS
10
35.7369
20
-34.077
11
35.7319
21
-34.0728
0
LINE
8
BLACK
6
CONTINUOUS
10
35.7319
20
-34.0728
11
35.7262
21
-34.0695
0
LINE
8
BLACK
6
CONTINUOUS
10
35.7262
20
-34.0695
11
35.722
21
-34.0645
0
LINE
8
BLACK
6
CONTINUOUS
10
35.722
20
-34.0645
11
35.7169
21
-34.0603
0
LINE
8
BLACK
6
CONTINUOUS
10
35.7169
20
-34.0603
11
35.7136
21
-34.0546
0
LINE
8
BLACK
6
CONTINUOUS
10
35.7136
20
-34.0546
11
35.7094
21
-34.0496
0
LINE
8
BLACK
6
CONTINUOUS
10
35.7094
20
-34.0496
11
35.7072
21
-34.0434
0
LINE
8
BLACK
6
CONTINUOUS
10
35.7072
20
-34.0434
11
35.7039
21
-34.0377
0
LINE
8
BLACK
6
CONTINUOUS
10
35.7039
20
-34.0377
11
35.7028
21
-34.0313
0
LINE
8
BLACK
6
CONTINUOUS
10
35.7028
20
-34.0313
11
35.7005
21
-34.0251
0
LINE
8
BLACK
6
CONTINUOUS
10
35.7005
20
-34.0251
11
35.7005
21
-34.0186
0
LINE
8
BLACK
6
CONTINUOUS
10
35.7005
20
-34.0186
11
35.6994
21
-34.0121
0
LINE
8
BLACK
6
CONTINUOUS
10
35.6994
20
-34.0121
11
35.6994
21
-33.6311
0
LINE
8
BLACK
6
CONTINUOUS
10
35.6994
20
-33.6311
11
35.7001
21
-33.6269
0
LINE
8
BLACK
6
CONTINUOUS
10
35.7001
20
-33.6269
11
35.6999
21
-33.6226
0
LINE
8
BLACK
6
CONTINUOUS
10
35.6999
20
-33.6226
11
35.7024
21
-33.6141
0
LINE
8
BLACK
6
CONTINUOUS
10
35.7024
20
-33.6141
11
35.7039
21
-33.6055
0
LINE
8
BLACK
6
CONTINUOUS
10
35.7039
20
-33.6055
11
35.7061
21
-33.6017
0
LINE
8
BLACK
6
CONTINUOUS
10
35.7061
20
-33.6017
11
35.7073
21
-33.5976
0
LINE
8
BLACK
6
CONTINUOUS
10
35.7073
20
-33.5976
11
35.7549
21
-33.5024
0
LINE
8
BLACK
6
CONTINUOUS
10
35.7549
20
-33.5024
11
35.7621
21
-33.4927
0
LINE
8
BLACK
6
CONTINUOUS
10
35.7621
20
-33.4927
11
35.769
21
-33.4829
0
LINE
8
BLACK
6
CONTINUOUS
10
35.769
20
-33.4829
11
35.8166
21
-33.4353
0
LINE
8
BLACK
6
CONTINUOUS
10
35.8166
20
-33.4353
11
35.8264
21
-33.4284
0
LINE
8
BLACK
6
CONTINUOUS
10
35.8264
20
-33.4284
11
35.8361
21
-33.4212
0
LINE
8
BLACK
6
CONTINUOUS
10
35.8361
20
-33.4212
11
35.9313
21
-33.3736
0
LINE
8
BLACK
6
CONTINUOUS
10
35.9313
20
-33.3736
11
35.9355
21
-33.3724
0
LINE
8
BLACK
6
CONTINUOUS
10
35.9355
20
-33.3724
11
35.9392
21
-33.3702
0
LINE
8
BLACK
6
CONTINUOUS
10
35.9392
20
-33.3702
11
35.9479
21
-33.3687
0
LINE
8
BLACK
6
CONTINUOUS
10
35.9479
20
-33.3687
11
35.9563
21
-33.3662
0
LINE
8
BLACK
6
CONTINUOUS
10
35.9563
20
-33.3662
11
35.9606
21
-33.3664
0
LINE
8
BLACK
6
CONTINUOUS
10
35.9606
20
-33.3664
11
35.9649
21
-33.3657
0
LINE
8
BLACK
6
CONTINUOUS
10
35.9649
20
-33.3657
11
36.1077
21
-33.3657
0
LINE
8
BLACK
6
CONTINUOUS
10
36.1077
20
-33.3657
11
36.112
21
-33.3664
0
LINE
8
BLACK
6
CONTINUOUS
10
35.9826
20
-33.5157
11
35.914
21
-33.5499
0
LINE
8
BLACK
6
CONTINUOUS
10
35.914
20
-33.5499
11
35.8836
21
-33.5803
0
LINE
8
BLACK
6
CONTINUOUS
10
35.8836
20
-33.5803
11
35.8494
21
-33.6488
0
LINE
8
BLACK
6
CONTINUOUS
10
35.8494
20
-33.6488
11
35.8494
21
-33.9371
0
LINE
8
BLACK
6
CONTINUOUS
10
35.8494
20
-33.9371
11
36.2232
21
-33.9371
0
LINE
8
BLACK
6
CONTINUOUS
10
36.2232
20
-33.9371
11
36.2232
21
-33.6488
0
LINE
8
BLACK
6
CONTINUOUS
10
36.2232
20
-33.6488
11
36.1889
21
-33.5803
0
LINE
8
BLACK
6
CONTINUOUS
10
36.1889
20
-33.5803
11
36.1585
21
-33.5499
0
LINE
8
BLACK
6
CONTINUOUS
10
36.1585
20
-33.5499
11
36.09
21
-33.5157
0
LINE
8
BLACK
6
CONTINUOUS
10
36.09
20
-33.5157
11
35.9826
21
-33.5157
0
LINE
8
BLACK
6
CONTINUOUS
10
36.5882
20
-32.414
11
36.5925
21
-32.4138
0
LINE
8
BLACK
6
CONTINUOUS
10
36.5925
20
-32.4138
11
36.6009
21
-32.4163
0
LINE
8
BLACK
6
CONTINUOUS
10
36.6009
20
-32.4163
11
36.6096
21
-32.4178
0
LINE
8
BLACK
6
CONTINUOUS
10
36.6096
20
-32.4178
11
36.6133
21
-32.42
0
LINE
8
BLACK
6
CONTINUOUS
10
36.6133
20
-32.42
11
36.6174
21
-32.4212
0
LINE
8
BLACK
6
CONTINUOUS
10
36.6174
20
-32.4212
11
36.7127
21
-32.4688
0
LINE
8
BLACK
6
CONTINUOUS
10
36.7127
20
-32.4688
11
36.7223
21
-32.476
0
LINE
8
BLACK
6
CONTINUOUS
10
36.7223
20
-32.476
11
36.7322
21
-32.4829
0
LINE
8
BLACK
6
CONTINUOUS
10
36.7322
20
-32.4829
11
36.7798
21
-32.5305
0
LINE
8
BLACK
6
CONTINUOUS
10
36.7798
20
-32.5305
11
36.7867
21
-32.5403
0
LINE
8
BLACK
6
CONTINUOUS
10
36.7867
20
-32.5403
11
36.7938
21
-32.55
0
LINE
8
BLACK
6
CONTINUOUS
10
36.7938
20
-32.55
11
36.8415
21
-32.6452
0
LINE
8
BLACK
6
CONTINUOUS
10
36.8415
20
-32.6452
11
36.8427
21
-32.6494
0
LINE
8
BLACK
6
CONTINUOUS
10
36.8427
20
-32.6494
11
36.8449
21
-32.6531
0
LINE
8
BLACK
6
CONTINUOUS
10
36.8449
20
-32.6531
11
36.8464
21
-32.6618
0
LINE
8
BLACK
6
CONTINUOUS
10
36.8464
20
-32.6618
11
36.8489
21
-32.6702
0
LINE
8
BLACK
6
CONTINUOUS
10
36.8489
20
-32.6702
11
36.8486
21
-32.6745
0
LINE
8
BLACK
6
CONTINUOUS
10
36.8486
20
-32.6745
11
36.8494
21
-32.6788
0
LINE
8
BLACK
6
CONTINUOUS
10
36.8494
20
-32.6788
11
36.8494
21
-32.8692
0
LINE
8
BLACK
6
CONTINUOUS
10
36.8494
20
-32.8692
11
36.8486
21
-32.8735
0
LINE
8
BLACK
6
CONTINUOUS
10
36.8486
20
-32.8735
11
36.8489
21
-32.8778
0
LINE
8
BLACK
6
CONTINUOUS
10
36.8489
20
-32.8778
11
36.8464
21
-32.8862
0
LINE
8
BLACK
6
CONTINUOUS
10
36.8464
20
-32.8862
11
36.8449
21
-32.8949
0
LINE
8
BLACK
6
CONTINUOUS
10
36.8449
20
-32.8949
11
36.8427
21
-32.8986
0
LINE
8
BLACK
6
CONTINUOUS
10
36.8427
20
-32.8986
11
36.8415
21
-32.9028
0
LINE
8
BLACK
6
CONTINUOUS
10
36.8415
20
-32.9028
11
36.7938
21
-32.998
0
LINE
8
BLACK
6
CONTINUOUS
10
36.7938
20
-32.998
11
36.7867
21
-33.0077
0
LINE
8
BLACK
6
CONTINUOUS
10
36.7867
20
-33.0077
11
36.7798
21
-33.0175
0
LINE
8
BLACK
6
CONTINUOUS
10
36.7798
20
-33.0175
11
36.7322
21
-33.0651
0
LINE
8
BLACK
6
CONTINUOUS
10
36.7322
20
-33.0651
11
36.7223
21
-33.072
0
LINE
8
BLACK
6
CONTINUOUS
10
36.7223
20
-33.072
11
36.7127
21
-33.0792
0
LINE
8
BLACK
6
CONTINUOUS
10
36.7127
20
-33.0792
11
36.6174
21
-33.1268
0
LINE
8
BLACK
6
CONTINUOUS
10
36.6174
20
-33.1268
11
36.6133
21
-33.128
0
LINE
8
BLACK
6
CONTINUOUS
10
36.6133
20
-33.128
11
36.6096
21
-33.1302
0
LINE
8
BLACK
6
CONTINUOUS
10
36.6096
20
-33.1302
11
36.6009
21
-33.1317
0
LINE
8
BLACK
6
CONTINUOUS
10
36.6009
20
-33.1317
11
36.5925
21
-33.1342
0
LINE
8
BLACK
6
CONTINUOUS
10
36.5925
20
-33.1342
11
36.5882
21
-33.134
0
LINE
8
BLACK
6
CONTINUOUS
10
36.5882
20
-33.134
11
36.5839
21
-33.1347
0
LINE
8
BLACK
6
CONTINUOUS
10
36.5839
20
-33.1347
11
36.203
21
-33.1347
0
LINE
8
BLACK
6
CONTINUOUS
10
36.203
20
-33.1347
11
36.1939
21
-33.1331
0
LINE
8
BLACK
6
CONTINUOUS
10
36.1939
20
-33.1331
11
36.1848
21
-33.1325
0
LINE
8
BLACK
6
CONTINUOUS
10
36.1848
20
-33.1325
11
35.9943
21
-33.0849
0
LINE
8
BLACK
6
CONTINUOUS
10
35.9943
20
-33.0849
11
35.9826
21
-33.0797
0
LINE
8
BLACK
6
CONTINUOUS
10
35.9826
20
-33.0797
11
35.9709
21
-33.0745
0
LINE
8
BLACK
6
CONTINUOUS
10
35.9709
20
-33.0745
11
35.828
21
-32.9793
0
LINE
8
BLACK
6
CONTINUOUS
10
35.828
20
-32.9793
11
35.8227
21
-32.9741
0
LINE
8
BLACK
6
CONTINUOUS
10
35.8227
20
-32.9741
11
35.8166
21
-32.9699
0
LINE
8
BLACK
6
CONTINUOUS
10
35.8166
20
-32.9699
11
35.769
21
-32.9223
0
LINE
8
BLACK
6
CONTINUOUS
10
35.769
20
-32.9223
11
35.7621
21
-32.9124
0
LINE
8
BLACK
6
CONTINUOUS
10
35.7621
20
-32.9124
11
35.7549
21
-32.9028
0
LINE
8
BLACK
6
CONTINUOUS
10
35.7549
20
-32.9028
11
35.7073
21
-32.8075
0
LINE
8
BLACK
6
CONTINUOUS
10
35.7073
20
-32.8075
11
35.7061
21
-32.8034
0
LINE
8
BLACK
6
CONTINUOUS
10
35.7061
20
-32.8034
11
35.7039
21
-32.7997
0
LINE
8
BLACK
6
CONTINUOUS
10
35.7039
20
-32.7997
11
35.7024
21
-32.791
0
LINE
8
BLACK
6
CONTINUOUS
10
35.7024
20
-32.791
11
35.6999
21
-32.7826
0
LINE
8
BLACK
6
CONTINUOUS
10
35.6999
20
-32.7826
11
35.7001
21
-32.7783
0
LINE
8
BLACK
6
CONTINUOUS
10
35.7001
20
-32.7783
11
35.6994
21
-32.774
0
LINE
8
BLACK
6
CONTINUOUS
10
35.6994
20
-32.774
11
35.6994
21
-32.5835
0
LINE
8
BLACK
6
CONTINUOUS
10
35.6994
20
-32.5835
11
35.7039
21
-32.5579
0
LINE
8
BLACK
6
CONTINUOUS
10
35.7039
20
-32.5579
11
35.7169
21
-32.5353
0
LINE
8
BLACK
6
CONTINUOUS
10
35.7169
20
-32.5353
11
35.7369
21
-32.5186
0
LINE
8
BLACK
6
CONTINUOUS
10
35.7369
20
-32.5186
11
35.7614
21
-32.5097
0
LINE
8
BLACK
6
CONTINUOUS
10
35.7614
20
-32.5097
11
35.7874
21
-32.5097
0
LINE
8
BLACK
6
CONTINUOUS
10
35.7874
20
-32.5097
11
35.8119
21
-32.5186
0
LINE
8
BLACK
6
CONTINUOUS
10
35.8119
20
-32.5186
11
35.8318
21
-32.5353
0
LINE
8
BLACK
6
CONTINUOUS
10
35.8318
20
-32.5353
11
35.8449
21
-32.5579
0
LINE
8
BLACK
6
CONTINUOUS
10
35.8449
20
-32.5579
11
35.8494
21
-32.5835
0
LINE
8
BLACK
6
CONTINUOUS
10
35.8494
20
-32.5835
11
35.8494
21
-32.7563
0
LINE
8
BLACK
6
CONTINUOUS
10
35.8494
20
-32.7563
11
35.8836
21
-32.8248
0
LINE
8
BLACK
6
CONTINUOUS
10
35.8836
20
-32.8248
11
35.9174
21
-32.8586
0
LINE
8
BLACK
6
CONTINUOUS
10
35.9174
20
-32.8586
11
36.0433
21
-32.9425
0
LINE
8
BLACK
6
CONTINUOUS
10
36.0433
20
-32.9425
11
36.1174
21
-32.961
0
LINE
8
BLACK
6
CONTINUOUS
10
36.1174
20
-32.961
11
36.0883
21
-32.9028
0
LINE
8
BLACK
6
CONTINUOUS
10
36.0883
20
-32.9028
11
36.087
21
-32.8986
0
LINE
8
BLACK
6
CONTINUOUS
10
36.087
20
-32.8986
11
36.0849
21
-32.8949
0
LINE
8
BLACK
6
CONTINUOUS
10
36.0849
20
-32.8949
11
36.0833
21
-32.8862
0
LINE
8
BLACK
6
CONTINUOUS
10
36.0833
20
-32.8862
11
36.0808
21
-32.8778
0
LINE
8
BLACK
6
CONTINUOUS
10
36.0808
20
-32.8778
11
36.0811
21
-32.8735
0
LINE
8
BLACK
6
CONTINUOUS
10
36.0811
20
-32.8735
11
36.0803
21
-32.8692
0
LINE
8
BLACK
6
CONTINUOUS
10
36.0803
20
-32.8692
11
36.0803
21
-32.6788
0
LINE
8
BLACK
6
CONTINUOUS
10
36.0803
20
-32.6788
11
36.0811
21
-32.6745
0
LINE
8
BLACK
6
CONTINUOUS
10
36.0811
20
-32.6745
11
36.0808
21
-32.6702
0
LINE
8
BLACK
6
CONTINUOUS
10
36.0808
20
-32.6702
11
36.0833
21
-32.6618
0
LINE
8
BLACK
6
CONTINUOUS
10
36.0833
20
-32.6618
11
36.0849
21
-32.6531
0
LINE
8
BLACK
6
CONTINUOUS
10
36.0849
20
-32.6531
11
36.087
21
-32.6494
0
LINE
8
BLACK
6
CONTINUOUS
10
36.087
20
-32.6494
11
36.0883
21
-32.6452
0
LINE
8
BLACK
6
CONTINUOUS
10
36.0883
20
-32.6452
11
36.1359
21
-32.55
0
LINE
8
BLACK
6
CONTINUOUS
10
36.1359
20
-32.55
11
36.143
21
-32.5403
0
LINE
8
BLACK
6
CONTINUOUS
10
36.143
20
-32.5403
11
36.1499
21
-32.5305
0
LINE
8
BLACK
6
CONTINUOUS
10
36.1499
20
-32.5305
11
36.1975
21
-32.4829
0
LINE
8
BLACK
6
CONTINUOUS
10
36.1975
20
-32.4829
11
36.2074
21
-32.476
0
LINE
8
BLACK
6
CONTINUOUS
10
36.2074
20
-32.476
11
36.217
21
-32.4688
0
LINE
8
BLACK
6
CONTINUOUS
10
36.217
20
-32.4688
11
36.3123
21
-32.4212
0
LINE
8
BLACK
6
CONTINUOUS
10
36.3123
20
-32.4212
11
36.3164
21
-32.42
0
LINE
8
BLACK
6
CONTINUOUS
10
36.3164
20
-32.42
11
36.3202
21
-32.4178
0
LINE
8
BLACK
6
CONTINUOUS
10
36.3202
20
-32.4178
11
36.3288
21
-32.4163
0
LINE
8
BLACK
6
CONTINUOUS
10
36.3288
20
-32.4163
11
36.3372
21
-32.4138
0
LINE
8
BLACK
6
CONTINUOUS
10
36.3372
20
-32.4138
11
36.3415
21
-32.414
0
LINE
8
BLACK
6
CONTINUOUS
10
36.3415
20
-32.414
11
36.3458
21
-32.4133
0
LINE
8
BLACK
6
CONTINUOUS
10
36.3458
20
-32.4133
11
36.5839
21
-32.4133
0
LINE
8
BLACK
6
CONTINUOUS
10
36.5839
20
-32.4133
11
36.5882
21
-32.414
0
LINE
8
BLACK
6
CONTINUOUS
10
36.3635
20
-32.5633
11
36.295
21
-32.5975
0
LINE
8
BLACK
6
CONTINUOUS
10
36.295
20
-32.5975
11
36.2646
21
-32.6279
0
LINE
8
BLACK
6
CONTINUOUS
10
36.2646
20
-32.6279
11
36.2303
21
-32.6965
0
LINE
8
BLACK
6
CONTINUOUS
10
36.2303
20
-32.6965
11
36.2303
21
-32.8515
0
LINE
8
BLACK
6
CONTINUOUS
10
36.2303
20
-32.8515
11
36.2646
21
-32.92
0
LINE
8
BLACK
6
CONTINUOUS
10
36.2646
20
-32.92
11
36.295
21
-32.9505
0
LINE
8
BLACK
6
CONTINUOUS
10
36.295
20
-32.9505
11
36.3635
21
-32.9847
0
LINE
8
BLACK
6
CONTINUOUS
10
36.3635
20
-32.9847
11
36.5662
21
-32.9847
0
LINE
8
BLACK
6
CONTINUOUS
10
36.5662
20
-32.9847
11
36.6347
21
-32.9505
0
LINE
8
BLACK
6
CONTINUOUS
10
36.6347
20
-32.9505
11
36.6651
21
-32.92
0
LINE
8
BLACK
6
CONTINUOUS
10
36.6651
20
-32.92
11
36.6994
21
-32.8515
0
LINE
8
BLACK
6
CONTINUOUS
10
36.6994
20
-32.8515
11
36.6994
21
-32.6965
0
LINE
8
BLACK
6
CONTINUOUS
10
36.6994
20
-32.6965
11
36.6651
21
-32.6279
0
LINE
8
BLACK
6
CONTINUOUS
10
36.6651
20
-32.6279
11
36.6347
21
-32.5975
0
LINE
8
BLACK
6
CONTINUOUS
10
36.6347
20
-32.5975
11
36.5662
21
-32.5633
0
LINE
8
BLACK
6
CONTINUOUS
10
36.5662
20
-32.5633
11
36.3635
21
-32.5633
0
LINE
8
BLACK
6
CONTINUOUS
10
31.2725
20
-30.3512
11
31.2887
21
-30.3648
0
LINE
8
BLACK
6
CONTINUOUS
10
31.2887
20
-30.3648
11
31.2993
21
-30.3832
0
LINE
8
BLACK
6
CONTINUOUS
10
31.2993
20
-30.3832
11
31.302
21
-30.3988
0
LINE
8
BLACK
6
CONTINUOUS
10
31.302
20
-30.3988
11
31.302
21
-31.294
0
LINE
8
BLACK
6
CONTINUOUS
10
31.302
20
-31.294
11
32.1672
21
-31.294
0
LINE
8
BLACK
6
CONTINUOUS
10
32.1672
20
-31.294
11
32.1673
21
-31.294
0
LINE
8
BLACK
6
CONTINUOUS
10
32.1673
20
-31.294
11
32.1726
21
-31.294
0
LINE
8
BLACK
6
CONTINUOUS
10
32.1726
20
-31.294
11
32.1776
21
-31.2958
0
LINE
8
BLACK
6
CONTINUOUS
10
32.1776
20
-31.2958
11
32.1828
21
-31.2967
0
LINE
8
BLACK
6
CONTINUOUS
10
32.1828
20
-31.2967
11
32.1875
21
-31.2994
0
LINE
8
BLACK
6
CONTINUOUS
10
32.1875
20
-31.2994
11
32.1925
21
-31.3012
0
LINE
8
BLACK
6
CONTINUOUS
10
32.1925
20
-31.3012
11
32.1965
21
-31.3047
0
LINE
8
BLACK
6
CONTINUOUS
10
32.1965
20
-31.3047
11
32.2012
21
-31.3073
0
LINE
8
BLACK
6
CONTINUOUS
10
32.2012
20
-31.3073
11
32.2046
21
-31.3114
0
LINE
8
BLACK
6
CONTINUOUS
10
32.2046
20
-31.3114
11
32.2087
21
-31.3148
0
LINE
8
BLACK
6
CONTINUOUS
10
32.2087
20
-31.3148
11
32.2113
21
-31.3195
0
LINE
8
BLACK
6
CONTINUOUS
10
32.2113
20
-31.3195
11
32.2148
21
-31.3235
0
LINE
8
BLACK
6
CONTINUOUS
10
32.2148
20
-31.3235
11
32.2166
21
-31.3285
0
LINE
8
BLACK
6
CONTINUOUS
10
32.2166
20
-31.3285
11
32.2193
21
-31.3332
0
LINE
8
BLACK
6
CONTINUOUS
10
32.2193
20
-31.3332
11
32.2202
21
-31.3384
0
LINE
8
BLACK
6
CONTINUOUS
10
32.2202
20
-31.3384
11
32.222
21
-31.3434
0
LINE
8
BLACK
6
CONTINUOUS
10
32.222
20
-31.3434
11
32.222
21
-31.3487
0
LINE
8
BLACK
6
CONTINUOUS
10
32.222
20
-31.3487
11
32.222
21
-31.3488
0
LINE
8
BLACK
6
CONTINUOUS
10
32.222
20
-31.3488
11
32.222
21
-35.1992
0
LINE
8
BLACK
6
CONTINUOUS
10
32.222
20
-35.1992
11
32.222
21
-35.1993
0
LINE
8
BLACK
6
CONTINUOUS
10
32.222
20
-35.1993
11
32.222
21
-35.2046
0
LINE
8
BLACK
6
CONTINUOUS
10
32.222
20
-35.2046
11
32.2202
21
-35.2096
0
LINE
8
BLACK
6
CONTINUOUS
10
32.2202
20
-35.2096
11
32.2193
21
-35.2148
0
LINE
8
BLACK
6
CONTINUOUS
10
32.2193
20
-35.2148
11
32.2166
21
-35.2195
0
LINE
8
BLACK
6
CONTINUOUS
10
32.2166
20
-35.2195
11
32.2148
21
-35.2245
0
LINE
8
BLACK
6
CONTINUOUS
10
32.2148
20
-35.2245
11
32.2113
21
-35.2285
0
LINE
8
BLACK
6
CONTINUOUS
10
32.2113
20
-35.2285
11
32.2087
21
-35.2332
0
LINE
8
BLACK
6
CONTINUOUS
10
32.2087
20
-35.2332
11
32.2046
21
-35.2366
0
LINE
8
BLACK
6
CONTINUOUS
10
32.2046
20
-35.2366
11
32.2012
21
-35.2407
0
LINE
8
BLACK
6
CONTINUOUS
10
32.2012
20
-35.2407
11
32.1965
21
-35.2433
0
LINE
8
BLACK
6
CONTINUOUS
10
32.1965
20
-35.2433
11
32.1925
21
-35.2468
0
LINE
8
BLACK
6
CONTINUOUS
10
32.1925
20
-35.2468
11
32.1875
21
-35.2486
0
LINE
8
BLACK
6
CONTINUOUS
10
32.1875
20
-35.2486
11
32.1828
21
-35.2513
0
LINE
8
BLACK
6
CONTINUOUS
10
32.1828
20
-35.2513
11
32.1776
21
-35.2522
0
LINE
8
BLACK
6
CONTINUOUS
10
32.1776
20
-35.2522
11
32.1726
21
-35.254
0
LINE
8
BLACK
6
CONTINUOUS
10
32.1726
20
-35.254
11
32.1673
21
-35.254
0
LINE
8
BLACK
6
CONTINUOUS
10
32.1673
20
-35.254
11
32.1672
21
-35.254
0
LINE
8
BLACK
6
CONTINUOUS
10
32.1672
20
-35.254
11
31.302
21
-35.254
0
LINE
8
BLACK
6
CONTINUOUS
10
31.302
20
-35.254
11
31.302
21
-36.1492
0
LINE
8
BLACK
6
CONTINUOUS
10
31.302
20
-36.1492
11
31.2993
21
-36.1648
0
LINE
8
BLACK
6
CONTINUOUS
10
31.2993
20
-36.1648
11
31.2887
21
-36.1832
0
LINE
8
BLACK
6
CONTINUOUS
10
31.2887
20
-36.1832
11
31.2725
21
-36.1968
0
LINE
8
BLACK
6
CONTINUOUS
10
31.2725
20
-36.1968
11
31.2526
21
-36.204
0
LINE
8
BLACK
6
CONTINUOUS
10
31.2526
20
-36.204
11
31.2314
21
-36.204
0
LINE
8
BLACK
6
CONTINUOUS
10
31.2314
20
-36.204
11
31.2115
21
-36.1968
0
LINE
8
BLACK
6
CONTINUOUS
10
31.2115
20
-36.1968
11
31.1953
21
-36.1832
0
LINE
8
BLACK
6
CONTINUOUS
10
31.1953
20
-36.1832
11
31.1847
21
-36.1648
0
LINE
8
BLACK
6
CONTINUOUS
10
31.1847
20
-36.1648
11
31.182
21
-36.1492
0
LINE
8
BLACK
6
CONTINUOUS
10
31.182
20
-36.1492
11
31.182
21
-35.254
0
LINE
8
BLACK
6
CONTINUOUS
10
31.182
20
-35.254
11
30.3168
21
-35.254
0
LINE
8
BLACK
6
CONTINUOUS
10
30.3168
20
-35.254
11
30.3167
21
-35.254
0
LINE
8
BLACK
6
CONTINUOUS
10
30.3167
20
-35.254
11
30.3114
21
-35.254
0
LINE
8
BLACK
6
CONTINUOUS
10
30.3114
20
-35.254
11
30.3064
21
-35.2522
0
LINE
8
BLACK
6
CONTINUOUS
10
30.3064
20
-35.2522
11
30.3012
21
-35.2513
0
LINE
8
BLACK
6
CONTINUOUS
10
30.3012
20
-35.2513
11
30.2965
21
-35.2486
0
LINE
8
BLACK
6
CONTINUOUS
10
30.2965
20
-35.2486
11
30.2915
21
-35.2468
0
LINE
8
BLACK
6
CONTINUOUS
10
30.2915
20
-35.2468
11
30.2875
21
-35.2433
0
LINE
8
BLACK
6
CONTINUOUS
10
30.2875
20
-35.2433
11
30.2828
21
-35.2407
0
LINE
8
BLACK
6
CONTINUOUS
10
30.2828
20
-35.2407
11
30.2794
21
-35.2366
0
LINE
8
BLACK
6
CONTINUOUS
10
30.2794
20
-35.2366
11
30.2753
21
-35.2332
0
LINE
8
BLACK
6
CONTINUOUS
10
30.2753
20
-35.2332
11
30.2727
21
-35.2285
0
LINE
8
BLACK
6
CONTINUOUS
10
30.2727
20
-35.2285
11
30.2692
21
-35.2245
0
LINE
8
BLACK
6
CONTINUOUS
10
30.2692
20
-35.2245
11
30.2674
21
-35.2195
0
LINE
8
BLACK
6
CONTINUOUS
10
30.2674
20
-35.2195
11
30.2647
21
-35.2148
0
LINE
8
BLACK
6
CONTINUOUS
10
30.2647
20
-35.2148
11
30.2638
21
-35.2096
0
LINE
8
BLACK
6
CONTINUOUS
10
30.2638
20
-35.2096
11
30.262
21
-35.2046
0
LINE
8
BLACK
6
CONTINUOUS
10
30.262
20
-35.2046
11
30.262
21
-35.1834
0
LINE
8
BLACK
6
CONTINUOUS
10
30.262
20
-35.1834
11
30.262
21
-31.3488
0
LINE
8
BLACK
6
CONTINUOUS
10
30.262
20
-31.3488
11
30.262
21
-31.3487
0
LINE
8
BLACK
6
CONTINUOUS
10
30.262
20
-31.3487
11
30.262
21
-31.3434
0
LINE
8
BLACK
6
CONTINUOUS
10
30.262
20
-31.3434
11
30.2638
21
-31.3384
0
LINE
8
BLACK
6
CONTINUOUS
10
30.2638
20
-31.3384
11
30.2647
21
-31.3332
0
LINE
8
BLACK
6
CONTINUOUS
10
30.2647
20
-31.3332
11
30.2674
21
-31.3285
0
LINE
8
BLACK
6
CONTINUOUS
10
30.2674
20
-31.3285
11
30.2692
21
-31.3235
0
LINE
8
BLACK
6
CONTINUOUS
10
30.2692
20
-31.3235
11
30.2727
21
-31.3195
0
LINE
8
BLACK
6
CONTINUOUS
10
30.2727
20
-31.3195
11
30.2753
21
-31.3148
0
LINE
8
BLACK
6
CONTINUOUS
10
30.2753
20
-31.3148
11
30.2794
21
-31.3114
0
LINE
8
BLACK
6
CONTINUOUS
10
30.2794
20
-31.3114
11
30.2828
21
-31.3073
0
LINE
8
BLACK
6
CONTINUOUS
10
30.2828
20
-31.3073
11
30.2875
21
-31.3047
0
LINE
8
BLACK
6
CONTINUOUS
10
30.2875
20
-31.3047
11
30.2915
21
-31.3012
0
LINE
8
BLACK
6
CONTINUOUS
10
30.2915
20
-31.3012
11
30.2965
21
-31.2994
0
LINE
8
BLACK
6
CONTINUOUS
10
30.2965
20
-31.2994
11
30.3012
21
-31.2967
0
LINE
8
BLACK
6
CONTINUOUS
10
30.3012
20
-31.2967
11
30.3064
21
-31.2958
0
LINE
8
BLACK
6
CONTINUOUS
10
30.3064
20
-31.2958
11
30.3114
21
-31.294
0
LINE
8
BLACK
6
CONTINUOUS
10
30.3114
20
-31.294
11
30.3167
21
-31.294
0
LINE
8
BLACK
6
CONTINUOUS
10
30.3167
20
-31.294
11
30.3168
21
-31.294
0
LINE
8
BLACK
6
CONTINUOUS
10
30.3168
20
-31.294
11
31.182
21
-31.294
0
LINE
8
BLACK
6
CONTINUOUS
10
31.182
20
-31.294
11
31.182
21
-30.3988
0
LINE
8
BLACK
6
CONTINUOUS
10
31.182
20
-30.3988
11
31.1847
21
-30.3832
0
LINE
8
BLACK
6
CONTINUOUS
10
31.1847
20
-30.3832
11
31.1953
21
-30.3648
0
LINE
8
BLACK
6
CONTINUOUS
10
31.1953
20
-30.3648
11
31.2115
21
-30.3512
0
LINE
8
BLACK
6
CONTINUOUS
10
31.2115
20
-30.3512
11
31.2314
21
-30.344
0
LINE
8
BLACK
6
CONTINUOUS
10
31.2314
20
-30.344
11
31.2526
21
-30.344
0
LINE
8
BLACK
6
CONTINUOUS
10
31.2526
20
-30.344
11
31.2725
21
-30.3512
0
LINE
8
BLACK
6
CONTINUOUS
10
30.382
20
-31.414
11
30.382
21
-35.134
0
LINE
8
BLACK
6
CONTINUOUS
10
30.382
20
-35.134
11
32.102
21
-35.134
0
LINE
8
BLACK
6
CONTINUOUS
10
32.102
20
-35.134
11
32.102
21
-31.414
0
LINE
8
BLACK
6
CONTINUOUS
10
32.102
20
-31.414
11
30.382
21
-31.414
0
LINE
8
BLACK
6
CONTINUOUS
10
31.032
20
-33.3664
11
31.0363
21
-33.3662
0
LINE
8
BLACK
6
CONTINUOUS
10
31.0363
20
-33.3662
11
31.0447
21
-33.3687
0
LINE
8
BLACK
6
CONTINUOUS
10
31.0447
20
-33.3687
11
31.0534
21
-33.3702
0
LINE
8
BLACK
6
CONTINUOUS
10
31.0534
20
-33.3702
11
31.0571
21
-33.3724
0
LINE
8
BLACK
6
CONTINUOUS
10
31.0571
20
-33.3724
11
31.0613
21
-33.3736
0
LINE
8
BLACK
6
CONTINUOUS
10
31.0613
20
-33.3736
11
31.1565
21
-33.4212
0
LINE
8
BLACK
6
CONTINUOUS
10
31.1565
20
-33.4212
11
31.1662
21
-33.4284
0
LINE
8
BLACK
6
CONTINUOUS
10
31.1662
20
-33.4284
11
31.176
21
-33.4353
0
LINE
8
BLACK
6
CONTINUOUS
10
31.176
20
-33.4353
11
31.2236
21
-33.4829
0
LINE
8
BLACK
6
CONTINUOUS
10
31.2236
20
-33.4829
11
31.2305
21
-33.4927
0
LINE
8
BLACK
6
CONTINUOUS
10
31.2305
20
-33.4927
11
31.2377
21
-33.5024
0
LINE
8
BLACK
6
CONTINUOUS
10
31.2377
20
-33.5024
11
31.2853
21
-33.5976
0
LINE
8
BLACK
6
CONTINUOUS
10
31.2853
20
-33.5976
11
31.2865
21
-33.6017
0
LINE
8
BLACK
6
CONTINUOUS
10
31.2865
20
-33.6017
11
31.2887
21
-33.6055
0
LINE
8
BLACK
6
CONTINUOUS
10
31.2887
20
-33.6055
11
31.2902
21
-33.6141
0
LINE
8
BLACK
6
CONTINUOUS
10
31.2902
20
-33.6141
11
31.2927
21
-33.6226
0
LINE
8
BLACK
6
CONTINUOUS
10
31.2927
20
-33.6226
11
31.2924
21
-33.6269
0
LINE
8
BLACK
6
CONTINUOUS
10
31.2924
20
-33.6269
11
31.293
21
-33.6301
0
LINE
8
BLACK
6
CONTINUOUS
10
31.293
20
-33.6301
11
31.6514
21
-33.3792
0
LINE
8
BLACK
6
CONTINUOUS
10
31.6514
20
-33.3792
11
31.675
21
-33.3682
0
LINE
8
BLACK
6
CONTINUOUS
10
31.675
20
-33.3682
11
31.7009
21
-33.366
0
LINE
8
BLACK
6
CONTINUOUS
10
31.7009
20
-33.366
11
31.7261
21
-33.3727
0
LINE
8
BLACK
6
CONTINUOUS
10
31.7261
20
-33.3727
11
31.7474
21
-33.3876
0
LINE
8
BLACK
6
CONTINUOUS
10
31.7474
20
-33.3876
11
31.7624
21
-33.409
0
LINE
8
BLACK
6
CONTINUOUS
10
31.7624
20
-33.409
11
31.7691
21
-33.4341
0
LINE
8
BLACK
6
CONTINUOUS
10
31.7691
20
-33.4341
11
31.7668
21
-33.4601
0
LINE
8
BLACK
6
CONTINUOUS
10
31.7668
20
-33.4601
11
31.7558
21
-33.4837
0
LINE
8
BLACK
6
CONTINUOUS
10
31.7558
20
-33.4837
11
31.7374
21
-33.5021
0
LINE
8
BLACK
6
CONTINUOUS
10
31.7374
20
-33.5021
11
31.2932
21
-33.813
0
LINE
8
BLACK
6
CONTINUOUS
10
31.2932
20
-33.813
11
31.2932
21
-33.9371
0
LINE
8
BLACK
6
CONTINUOUS
10
31.2932
20
-33.9371
11
31.6944
21
-33.9371
0
LINE
8
BLACK
6
CONTINUOUS
10
31.6944
20
-33.9371
11
31.72
21
-33.9416
0
LINE
8
BLACK
6
CONTINUOUS
10
31.72
20
-33.9416
11
31.7426
21
-33.9546
0
LINE
8
BLACK
6
CONTINUOUS
10
31.7426
20
-33.9546
11
31.7593
21
-33.9746
0
LINE
8
BLACK
6
CONTINUOUS
10
31.7593
20
-33.9746
11
31.7682
21
-33.9991
0
LINE
8
BLACK
6
CONTINUOUS
10
31.7682
20
-33.9991
11
31.7682
21
-34.0251
0
LINE
8
BLACK
6
CONTINUOUS
10
31.7682
20
-34.0251
11
31.7593
21
-34.0496
0
LINE
8
BLACK
6
CONTINUOUS
10
31.7593
20
-34.0496
11
31.7426
21
-34.0695
0
LINE
8
BLACK
6
CONTINUOUS
10
31.7426
20
-34.0695
11
31.72
21
-34.0826
0
LINE
8
BLACK
6
CONTINUOUS
10
31.72
20
-34.0826
11
31.6944
21
-34.0871
0
LINE
8
BLACK
6
CONTINUOUS
10
31.6944
20
-34.0871
11
30.6944
21
-34.0871
0
LINE
8
BLACK
6
CONTINUOUS
10
30.6944
20
-34.0871
11
30.6879
21
-34.086
0
LINE
8
BLACK
6
CONTINUOUS
10
30.6879
20
-34.086
11
30.6814
21
-34.086
0
LINE
8
BLACK
6
CONTINUOUS
10
30.6814
20
-34.086
11
30.6752
21
-34.0837
0
LINE
8
BLACK
6
CONTINUOUS
10
30.6752
20
-34.0837
11
30.6687
21
-34.0826
0
LINE
8
BLACK
6
CONTINUOUS
10
30.6687
20
-34.0826
11
30.663
21
-34.0793
0
LINE
8
BLACK
6
CONTINUOUS
10
30.663
20
-34.0793
11
30.6569
21
-34.077
0
LINE
8
BLACK
6
CONTINUOUS
10
30.6569
20
-34.077
11
30.6519
21
-34.0728
0
LINE
8
BLACK
6
CONTINUOUS
10
30.6519
20
-34.0728
11
30.6462
21
-34.0695
0
LINE
8
BLACK
6
CONTINUOUS
10
30.6462
20
-34.0695
11
30.642
21
-34.0645
0
LINE
8
BLACK
6
CONTINUOUS
10
30.642
20
-34.0645
11
30.6369
21
-34.0603
0
LINE
8
BLACK
6
CONTINUOUS
10
30.6369
20
-34.0603
11
30.6336
21
-34.0546
0
LINE
8
BLACK
6
CONTINUOUS
10
30.6336
20
-34.0546
11
30.6294
21
-34.0496
0
LINE
8
BLACK
6
CONTINUOUS
10
30.6294
20
-34.0496
11
30.6272
21
-34.0434
0
LINE
8
BLACK
6
CONTINUOUS
10
30.6272
20
-34.0434
11
30.6239
21
-34.0377
0
LINE
8
BLACK
6
CONTINUOUS
10
30.6239
20
-34.0377
11
30.6228
21
-34.0313
0
LINE
8
BLACK
6
CONTINUOUS
10
30.6228
20
-34.0313
11
30.6205
21
-34.0251
0
LINE
8
BLACK
6
CONTINUOUS
10
30.6205
20
-34.0251
11
30.6205
21
-34.0186
0
LINE
8
BLACK
6
CONTINUOUS
10
30.6205
20
-34.0186
11
30.6194
21
-34.0121
0
LINE
8
BLACK
6
CONTINUOUS
10
30.6194
20
-34.0121
11
30.6194
21
-33.6311
0
LINE
8
BLACK
6
CONTINUOUS
10
30.6194
20
-33.6311
11
30.6201
21
-33.6269
0
LINE
8
BLACK
6
CONTINUOUS
10
30.6201
20
-33.6269
11
30.6199
21
-33.6226
0
LINE
8
BLACK
6
CONTINUOUS
10
30.6199
20
-33.6226
11
30.6224
21
-33.6141
0
LINE
8
BLACK
6
CONTINUOUS
10
30.6224
20
-33.6141
11
30.6239
21
-33.6055
0
LINE
8
BLACK
6
CONTINUOUS
10
30.6239
20
-33.6055
11
30.6261
21
-33.6017
0
LINE
8
BLACK
6
CONTINUOUS
10
30.6261
20
-33.6017
11
30.6273
21
-33.5976
0
LINE
8
BLACK
6
CONTINUOUS
10
30.6273
20
-33.5976
11
30.6749
21
-33.5024
0
LINE
8
BLACK
6
CONTINUOUS
10
30.6749
20
-33.5024
11
30.6821
21
-33.4927
0
LINE
8
BLACK
6
CONTINUOUS
10
30.6821
20
-33.4927
11
30.689
21
-33.4829
0
LINE
8
BLACK
6
CONTINUOUS
10
30.689
20
-33.4829
11
30.7366
21
-33.4353
0
LINE
8
BLACK
6
CONTINUOUS
10
30.7366
20
-33.4353
11
30.7464
21
-33.4284
0
LINE
8
BLACK
6
CONTINUOUS
10
30.7464
20
-33.4284
11
30.7561
21
-33.4212
0
LINE
8
BLACK
6
CONTINUOUS
10
30.7561
20
-33.4212
11
30.8513
21
-33.3736
0
LINE
8
BLACK
6
CONTINUOUS
10
30.8513
20
-33.3736
11
30.8555
21
-33.3724
0
LINE
8
BLACK
6
CONTINUOUS
10
30.8555
20
-33.3724
11
30.8592
21
-33.3702
0
LINE
8
BLACK
6
CONTINUOUS
10
30.8592
20
-33.3702
11
30.8679
21
-33.3687
0
LINE
8
BLACK
6
CONTINUOUS
10
30.8679
20
-33.3687
11
30.8763
21
-33.3662
0
LINE
8
BLACK
6
CONTINUOUS
10
30.8763
20
-33.3662
11
30.8806
21
-33.3664
0
LINE
8
BLACK
6
CONTINUOUS
10
30.8806
20
-33.3664
11
30.8849
21
-33.3657
0
LINE
8
BLACK
6
CONTINUOUS
10
30.8849
20
-33.3657
11
31.0277
21
-33.3657
0
LINE
8
BLACK
6
CONTINUOUS
10
31.0277
20
-33.3657
11
31.032
21
-33.3664
0
LINE
8
BLACK
6
CONTINUOUS
10
30.9026
20
-33.5157
11
30.834
21
-33.5499
0
LINE
8
BLACK
6
CONTINUOUS
10
30.834
20
-33.5499
11
30.8036
21
-33.5803
0
LINE
8
BLACK
6
CONTINUOUS
10
30.8036
20
-33.5803
11
30.7694
21
-33.6488
0
LINE
8
BLACK
6
CONTINUOUS
10
30.7694
20
-33.6488
11
30.7694
21
-33.9371
0
LINE
8
BLACK
6
CONTINUOUS
10
30.7694
20
-33.9371
11
31.1432
21
-33.9371
0
LINE
8
BLACK
6
CONTINUOUS
10
31.1432
20
-33.9371
11
31.1432
21
-33.6488
0
LINE
8
BLACK
6
CONTINUOUS
10
31.1432
20
-33.6488
11
31.1089
21
-33.5803
0
LINE
8
BLACK
6
CONTINUOUS
10
31.1089
20
-33.5803
11
31.0785
21
-33.5499
0
LINE
8
BLACK
6
CONTINUOUS
10
31.0785
20
-33.5499
11
31.01
21
-33.5157
0
LINE
8
BLACK
6
CONTINUOUS
10
31.01
20
-33.5157
11
30.9026
21
-33.5157
0
LINE
8
BLACK
6
CONTINUOUS
10
31.3985
20
-32.3757
11
31.4185
21
-32.3925
0
LINE
8
BLACK
6
CONTINUOUS
10
31.4185
20
-32.3925
11
31.4315
21
-32.415
0
LINE
8
BLACK
6
CONTINUOUS
10
31.4315
20
-32.415
11
31.436
21
-32.4407
0
LINE
8
BLACK
6
CONTINUOUS
10
31.436
20
-32.4407
11
31.436
21
-32.5085
0
LINE
8
BLACK
6
CONTINUOUS
10
31.436
20
-32.5085
11
31.6944
21
-32.5085
0
LINE
8
BLACK
6
CONTINUOUS
10
31.6944
20
-32.5085
11
31.72
21
-32.513
0
LINE
8
BLACK
6
CONTINUOUS
10
31.72
20
-32.513
11
31.7426
21
-32.5261
0
LINE
8
BLACK
6
CONTINUOUS
10
31.7426
20
-32.5261
11
31.7593
21
-32.546
0
LINE
8
BLACK
6
CONTINUOUS
10
31.7593
20
-32.546
11
31.7682
21
-32.5705
0
LINE
8
BLACK
6
CONTINUOUS
10
31.7682
20
-32.5705
11
31.7682
21
-32.5965
0
LINE
8
BLACK
6
CONTINUOUS
10
31.7682
20
-32.5965
11
31.7593
21
-32.621
0
LINE
8
BLACK
6
CONTINUOUS
10
31.7593
20
-32.621
11
31.7426
21
-32.641
0
LINE
8
BLACK
6
CONTINUOUS
10
31.7426
20
-32.641
11
31.72
21
-32.654
0
LINE
8
BLACK
6
CONTINUOUS
10
31.72
20
-32.654
11
31.6944
21
-32.6585
0
LINE
8
BLACK
6
CONTINUOUS
10
31.6944
20
-32.6585
11
31.436
21
-32.6585
0
LINE
8
BLACK
6
CONTINUOUS
10
31.436
20
-32.6585
11
31.436
21
-33.0597
0
LINE
8
BLACK
6
CONTINUOUS
10
31.436
20
-33.0597
11
31.4351
21
-33.0652
0
LINE
8
BLACK
6
CONTINUOUS
10
31.4351
20
-33.0652
11
31.4352
21
-33.0707
0
LINE
8
BLACK
6
CONTINUOUS
10
31.4352
20
-33.0707
11
31.4328
21
-33.0779
0
LINE
8
BLACK
6
CONTINUOUS
10
31.4328
20
-33.0779
11
31.4315
21
-33.0854
0
LINE
8
BLACK
6
CONTINUOUS
10
31.4315
20
-33.0854
11
31.4288
21
-33.0902
0
LINE
8
BLACK
6
CONTINUOUS
10
31.4288
20
-33.0902
11
31.427
21
-33.0954
0
LINE
8
BLACK
6
CONTINUOUS
10
31.427
20
-33.0954
11
31.4223
21
-33.1014
0
LINE
8
BLACK
6
CONTINUOUS
10
31.4223
20
-33.1014
11
31.4185
21
-33.1079
0
LINE
8
BLACK
6
CONTINUOUS
10
31.4185
20
-33.1079
11
31.4143
21
-33.1115
0
LINE
8
BLACK
6
CONTINUOUS
10
31.4143
20
-33.1115
11
31.4108
21
-33.1158
0
LINE
8
BLACK
6
CONTINUOUS
10
31.4108
20
-33.1158
11
31.4044
21
-33.1198
0
LINE
8
BLACK
6
CONTINUOUS
10
31.4044
20
-33.1198
11
31.3985
21
-33.1247
0
LINE
8
BLACK
6
CONTINUOUS
10
31.3985
20
-33.1247
11
31.3933
21
-33.1266
0
LINE
8
BLACK
6
CONTINUOUS
10
31.3933
20
-33.1266
11
31.3886
21
-33.1295
0
LINE
8
BLACK
6
CONTINUOUS
10
31.3886
20
-33.1295
11
31.3812
21
-33.131
0
LINE
8
BLACK
6
CONTINUOUS
10
31.3812
20
-33.131
11
31.3741
21
-33.1336
0
LINE
8
BLACK
6
CONTINUOUS
10
31.3741
20
-33.1336
11
31.3685
21
-33.1336
0
LINE
8
BLACK
6
CONTINUOUS
10
31.3685
20
-33.1336
11
31.3631
21
-33.1347
0
LINE
8
BLACK
6
CONTINUOUS
10
31.3631
20
-33.1347
11
31.3556
21
-33.1336
0
LINE
8
BLACK
6
CONTINUOUS
10
31.3556
20
-33.1336
11
31.348
21
-33.1336
0
LINE
8
BLACK
6
CONTINUOUS
10
31.348
20
-33.1336
11
31.3428
21
-33.1317
0
LINE
8
BLACK
6
CONTINUOUS
10
31.3428
20
-33.1317
11
31.3373
21
-33.1309
0
LINE
8
BLACK
6
CONTINUOUS
10
31.3373
20
-33.1309
11
30.623
21
-32.8928
0
LINE
8
BLACK
6
CONTINUOUS
10
30.623
20
-32.8928
11
30.6001
21
-32.8804
0
LINE
8
BLACK
6
CONTINUOUS
10
30.6001
20
-32.8804
11
30.5829
21
-32.8609
0
LINE
8
BLACK
6
CONTINUOUS
10
30.5829
20
-32.8609
11
30.5733
21
-32.8367
0
LINE
8
BLACK
6
CONTINUOUS
10
30.5733
20
-32.8367
11
30.5726
21
-32.8106
0
LINE
8
BLACK
6
CONTINUOUS
10
30.5726
20
-32.8106
11
30.5808
21
-32.7859
0
LINE
8
BLACK
6
CONTINUOUS
10
30.5808
20
-32.7859
11
30.597
21
-32.7655
0
LINE
8
BLACK
6
CONTINUOUS
10
30.597
20
-32.7655
11
30.6192
21
-32.7519
0
LINE
8
BLACK
6
CONTINUOUS
10
30.6192
20
-32.7519
11
30.6447
21
-32.7466
0
LINE
8
BLACK
6
CONTINUOUS
10
30.6447
20
-32.7466
11
30.6705
21
-32.7505
0
LINE
8
BLACK
6
CONTINUOUS
10
30.6705
20
-32.7505
11
31.286
21
-32.9557
0
LINE
8
BLACK
6
CONTINUOUS
10
31.286
20
-32.9557
11
31.286
21
-32.6585
0
LINE
8
BLACK
6
CONTINUOUS
10
31.286
20
-32.6585
11
31.0277
21
-32.6585
0
LINE
8
BLACK
6
CONTINUOUS
10
31.0277
20
-32.6585
11
31.0021
21
-32.654
0
LINE
8
BLACK
6
CONTINUOUS
10
31.0021
20
-32.654
11
30.9795
21
-32.641
0
LINE
8
BLACK
6
CONTINUOUS
10
30.9795
20
-32.641
11
30.9628
21
-32.621
0
LINE
8
BLACK
6
CONTINUOUS
10
30.9628
20
-32.621
11
30.9539
21
-32.5965
0
LINE
8
BLACK
6
CONTINUOUS
10
30.9539
20
-32.5965
11
30.9539
21
-32.5705
0
LINE
8
BLACK
6
CONTINUOUS
10
30.9539
20
-32.5705
11
30.9628
21
-32.546
0
LINE
8
BLACK
6
CONTINUOUS
10
30.9628
20
-32.546
11
30.9795
21
-32.5261
0
LINE
8
BLACK
6
CONTINUOUS
10
30.9795
20
-32.5261
11
31.0021
21
-32.513
0
LINE
8
BLACK
6
CONTINUOUS
10
31.0021
20
-32.513
11
31.0277
21
-32.5085
0
LINE
8
BLACK
6
CONTINUOUS
10
31.0277
20
-32.5085
11
31.286
21
-32.5085
0
LINE
8
BLACK
6
CONTINUOUS
10
31.286
20
-32.5085
11
31.286
21
-32.4407
0
LINE
8
BLACK
6
CONTINUOUS
10
31.286
20
-32.4407
11
31.2906
21
-32.415
0
LINE
8
BLACK
6
CONTINUOUS
10
31.2906
20
-32.415
11
31.3036
21
-32.3925
0
LINE
8
BLACK
6
CONTINUOUS
10
31.3036
20
-32.3925
11
31.3235
21
-32.3757
0
LINE
8
BLACK
6
CONTINUOUS
10
31.3235
20
-32.3757
11
31.348
21
-32.3668
0
LINE
8
BLACK
6
CONTINUOUS
10
31.348
20
-32.3668
11
31.3741
21
-32.3668
0
LINE
8
BLACK
6
CONTINUOUS
10
31.3741
20
-32.3668
11
31.3985
21
-32.3757
0
LINE
8
BLACK
6
CONTINUOUS
10
28.7325
20
-30.3512
11
28.7487
21
-30.3648
0
LINE
8
BLACK
6
CONTINUOUS
10
28.7487
20
-30.3648
11
28.7593
21
-30.3832
0
LINE
8
BLACK
6
CONTINUOUS
10
28.7593
20
-30.3832
11
28.762
21
-30.3988
0
LINE
8
BLACK
6
CONTINUOUS
10
28.762
20
-30.3988
11
28.762
21
-31.294
0
LINE
8
BLACK
6
CONTINUOUS
10
28.762
20
-31.294
11
29.6272
21
-31.294
0
LINE
8
BLACK
6
CONTINUOUS
10
29.6272
20
-31.294
11
29.6273
21
-31.294
0
LINE
8
BLACK
6
CONTINUOUS
10
29.6273
20
-31.294
11
29.6326
21
-31.294
0
LINE
8
BLACK
6
CONTINUOUS
10
29.6326
20
-31.294
11
29.6376
21
-31.2958
0
LINE
8
BLACK
6
CONTINUOUS
10
29.6376
20
-31.2958
11
29.6428
21
-31.2967
0
LINE
8
BLACK
6
CONTINUOUS
10
29.6428
20
-31.2967
11
29.6475
21
-31.2994
0
LINE
8
BLACK
6
CONTINUOUS
10
29.6475
20
-31.2994
11
29.6525
21
-31.3012
0
LINE
8
BLACK
6
CONTINUOUS
10
29.6525
20
-31.3012
11
29.6565
21
-31.3047
0
LINE
8
BLACK
6
CONTINUOUS
10
29.6565
20
-31.3047
11
29.6612
21
-31.3073
0
LINE
8
BLACK
6
CONTINUOUS
10
29.6612
20
-31.3073
11
29.6646
21
-31.3114
0
LINE
8
BLACK
6
CONTINUOUS
10
29.6646
20
-31.3114
11
29.6687
21
-31.3148
0
LINE
8
BLACK
6
CONTINUOUS
10
29.6687
20
-31.3148
11
29.6713
21
-31.3195
0
LINE
8
BLACK
6
CONTINUOUS
10
29.6713
20
-31.3195
11
29.6748
21
-31.3235
0
LINE
8
BLACK
6
CONTINUOUS
10
29.6748
20
-31.3235
11
29.6766
21
-31.3285
0
LINE
8
BLACK
6
CONTINUOUS
10
29.6766
20
-31.3285
11
29.6793
21
-31.3332
0
LINE
8
BLACK
6
CONTINUOUS
10
29.6793
20
-31.3332
11
29.6802
21
-31.3384
0
LINE
8
BLACK
6
CONTINUOUS
10
29.6802
20
-31.3384
11
29.682
21
-31.3434
0
LINE
8
BLACK
6
CONTINUOUS
10
29.682
20
-31.3434
11
29.682
21
-31.3487
0
LINE
8
BLACK
6
CONTINUOUS
10
29.682
20
-31.3487
11
29.682
21
-31.3488
0
LINE
8
BLACK
6
CONTINUOUS
10
29.682
20
-31.3488
11
29.682
21
-35.1992
0
LINE
8
BLACK
6
CONTINUOUS
10
29.682
20
-35.1992
11
29.682
21
-35.1993
0
LINE
8
BLACK
6
CONTINUOUS
10
29.682
20
-35.1993
11
29.682
21
-35.2046
0
LINE
8
BLACK
6
CONTINUOUS
10
29.682
20
-35.2046
11
29.6802
21
-35.2096
0
LINE
8
BLACK
6
CONTINUOUS
10
29.6802
20
-35.2096
11
29.6793
21
-35.2148
0
LINE
8
BLACK
6
CONTINUOUS
10
29.6793
20
-35.2148
11
29.6766
21
-35.2195
0
LINE
8
BLACK
6
CONTINUOUS
10
29.6766
20
-35.2195
11
29.6748
21
-35.2245
0
LINE
8
BLACK
6
CONTINUOUS
10
29.6748
20
-35.2245
11
29.6713
21
-35.2285
0
LINE
8
BLACK
6
CONTINUOUS
10
29.6713
20
-35.2285
11
29.6687
21
-35.2332
0
LINE
8
BLACK
6
CONTINUOUS
10
29.6687
20
-35.2332
11
29.6646
21
-35.2366
0
LINE
8
BLACK
6
CONTINUOUS
10
29.6646
20
-35.2366
11
29.6612
21
-35.2407
0
LINE
8
BLACK
6
CONTINUOUS
10
29.6612
20
-35.2407
11
29.6565
21
-35.2433
0
LINE
8
BLACK
6
CONTINUOUS
10
29.6565
20
-35.2433
11
29.6525
21
-35.2468
0
LINE
8
BLACK
6
CONTINUOUS
10
29.6525
20
-35.2468
11
29.6475
21
-35.2486
0
LINE
8
BLACK
6
CONTINUOUS
10
29.6475
20
-35.2486
11
29.6428
21
-35.2513
0
LINE
8
BLACK
6
CONTINUOUS
10
29.6428
20
-35.2513
11
29.6376
21
-35.2522
0
LINE
8
BLACK
6
CONTINUOUS
10
29.6376
20
-35.2522
11
29.6326
21
-35.254
0
LINE
8
BLACK
6
CONTINUOUS
10
29.6326
20
-35.254
11
29.6273
21
-35.254
0
LINE
8
BLACK
6
CONTINUOUS
10
29.6273
20
-35.254
11
29.6272
21
-35.254
0
LINE
8
BLACK
6
CONTINUOUS
10
29.6272
20
-35.254
11
28.762
21
-35.254
0
LINE
8
BLACK
6
CONTINUOUS
10
28.762
20
-35.254
11
28.762
21
-36.1492
0
LINE
8
BLACK
6
CONTINUOUS
10
28.762
20
-36.1492
11
28.7593
21
-36.1648
0
LINE
8
BLACK
6
CONTINUOUS
10
28.7593
20
-36.1648
11
28.7487
21
-36.1832
0
LINE
8
BLACK
6
CONTINUOUS
10
28.7487
20
-36.1832
11
28.7325
21
-36.1968
0
LINE
8
BLACK
6
CONTINUOUS
10
28.7325
20
-36.1968
11
28.7126
21
-36.204
0
LINE
8
BLACK
6
CONTINUOUS
10
28.7126
20
-36.204
11
28.6914
21
-36.204
0
LINE
8
BLACK
6
CONTINUOUS
10
28.6914
20
-36.204
11
28.6715
21
-36.1968
0
LINE
8
BLACK
6
CONTINUOUS
10
28.6715
20
-36.1968
11
28.6553
21
-36.1832
0
LINE
8
BLACK
6
CONTINUOUS
10
28.6553
20
-36.1832
11
28.6447
21
-36.1648
0
LINE
8
BLACK
6
CONTINUOUS
10
28.6447
20
-36.1648
11
28.642
21
-36.1492
0
LINE
8
BLACK
6
CONTINUOUS
10
28.642
20
-36.1492
11
28.642
21
-35.254
0
LINE
8
BLACK
6
CONTINUOUS
10
28.642
20
-35.254
11
27.7768
21
-35.254
0
LINE
8
BLACK
6
CONTINUOUS
10
27.7768
20
-35.254
11
27.7767
21
-35.254
0
LINE
8
BLACK
6
CONTINUOUS
10
27.7767
20
-35.254
11
27.7714
21
-35.254
0
LINE
8
BLACK
6
CONTINUOUS
10
27.7714
20
-35.254
11
27.7664
21
-35.2522
0
LINE
8
BLACK
6
CONTINUOUS
10
27.7664
20
-35.2522
11
27.7612
21
-35.2513
0
LINE
8
BLACK
6
CONTINUOUS
10
27.7612
20
-35.2513
11
27.7565
21
-35.2486
0
LINE
8
BLACK
6
CONTINUOUS
10
27.7565
20
-35.2486
11
27.7515
21
-35.2468
0
LINE
8
BLACK
6
CONTINUOUS
10
27.7515
20
-35.2468
11
27.7475
21
-35.2433
0
LINE
8
BLACK
6
CONTINUOUS
10
27.7475
20
-35.2433
11
27.7428
21
-35.2407
0
LINE
8
BLACK
6
CONTINUOUS
10
27.7428
20
-35.2407
11
27.7394
21
-35.2366
0
LINE
8
BLACK
6
CONTINUOUS
10
27.7394
20
-35.2366
11
27.7353
21
-35.2332
0
LINE
8
BLACK
6
CONTINUOUS
10
27.7353
20
-35.2332
11
27.7327
21
-35.2285
0
LINE
8
BLACK
6
CONTINUOUS
10
27.7327
20
-35.2285
11
27.7292
21
-35.2245
0
LINE
8
BLACK
6
CONTINUOUS
10
27.7292
20
-35.2245
11
27.7274
21
-35.2195
0
LINE
8
BLACK
6
CONTINUOUS
10
27.7274
20
-35.2195
11
27.7248
21
-35.2148
0
LINE
8
BLACK
6
CONTINUOUS
10
27.7248
20
-35.2148
11
27.7238
21
-35.2096
0
LINE
8
BLACK
6
CONTINUOUS
10
27.7238
20
-35.2096
11
27.722
21
-35.2046
0
LINE
8
BLACK
6
CONTINUOUS
10
27.722
20
-35.2046
11
27.722
21
-35.1834
0
LINE
8
BLACK
6
CONTINUOUS
10
27.722
20
-35.1834
11
27.722
21
-31.3488
0
LINE
8
BLACK
6
CONTINUOUS
10
27.722
20
-31.3488
11
27.722
21
-31.3487
0
LINE
8
BLACK
6
CONTINUOUS
10
27.722
20
-31.3487
11
27.722
21
-31.3434
0
LINE
8
BLACK
6
CONTINUOUS
10
27.722
20
-31.3434
11
27.7238
21
-31.3384
0
LINE
8
BLACK
6
CONTINUOUS
10
27.7238
20
-31.3384
11
27.7247
21
-31.3332
0
LINE
8
BLACK
6
CONTINUOUS
10
27.7247
20
-31.3332
11
27.7274
21
-31.3285
0
LINE
8
BLACK
6
CONTINUOUS
10
27.7274
20
-31.3285
11
27.7292
21
-31.3235
0
LINE
8
BLACK
6
CONTINUOUS
10
27.7292
20
-31.3235
11
27.7327
21
-31.3195
0
LINE
8
BLACK
6
CONTINUOUS
10
27.7327
20
-31.3195
11
27.7353
21
-31.3148
0
LINE
8
BLACK
6
CONTINUOUS
10
27.7353
20
-31.3148
11
27.7394
21
-31.3114
0
LINE
8
BLACK
6
CONTINUOUS
10
27.7394
20
-31.3114
11
27.7428
21
-31.3073
0
LINE
8
BLACK
6
CONTINUOUS
10
27.7428
20
-31.3073
11
27.7475
21
-31.3047
0
LINE
8
BLACK
6
CONTINUOUS
10
27.7475
20
-31.3047
11
27.7515
21
-31.3012
0
LINE
8
BLACK
6
CONTINUOUS
10
27.7515
20
-31.3012
11
27.7565
21
-31.2994
0
LINE
8
BLACK
6
CONTINUOUS
10
27.7565
20
-31.2994
11
27.7612
21
-31.2967
0
LINE
8
BLACK
6
CONTINUOUS
10
27.7612
20
-31.2967
11
27.7664
21
-31.2958
0
LINE
8
BLACK
6
CONTINUOUS
10
27.7664
20
-31.2958
11
27.7714
21
-31.294
0
LINE
8
BLACK
6
CONTINUOUS
10
27.7714
20
-31.294
11
27.7767
21
-31.294
0
LINE
8
BLACK
6
CONTINUOUS
10
27.7767
20
-31.294
11
27.7768
21
-31.294
0
LINE
8
BLACK
6
CONTINUOUS
10
27.7768
20
-31.294
11
28.642
21
-31.294
0
LINE
8
BLACK
6
CONTINUOUS
10
28.642
20
-31.294
11
28.642
21
-30.3988
0
LINE
8
BLACK
6
CONTINUOUS
10
28.642
20
-30.3988
11
28.6447
21
-30.3832
0
LINE
8
BLACK
6
CONTINUOUS
10
28.6447
20
-30.3832
11
28.6553
21
-30.3648
0
LINE
8
BLACK
6
CONTINUOUS
10
28.6553
20
-30.3648
11
28.6715
21
-30.3512
0
LINE
8
BLACK
6
CONTINUOUS
10
28.6715
20
-30.3512
11
28.6914
21
-30.344
0
LINE
8
BLACK
6
CONTINUOUS
10
28.6914
20
-30.344
11
28.7126
21
-30.344
0
LINE
8
BLACK
6
CONTINUOUS
10
28.7126
20
-30.344
11
28.7325
21
-30.3512
0
LINE
8
BLACK
6
CONTINUOUS
10
27.842
20
-31.414
11
27.842
21
-35.134
0
LINE
8
BLACK
6
CONTINUOUS
10
27.842
20
-35.134
11
29.562
21
-35.134
0
LINE
8
BLACK
6
CONTINUOUS
10
29.562
20
-35.134
11
29.562
21
-31.414
0
LINE
8
BLACK
6
CONTINUOUS
10
29.562
20
-31.414
11
27.842
21
-31.414
0
LINE
8
BLACK
6
CONTINUOUS
10
28.492
20
-33.3664
11
28.4963
21
-33.3662
0
LINE
8
BLACK
6
CONTINUOUS
10
28.4963
20
-33.3662
11
28.5047
21
-33.3687
0
LINE
8
BLACK
6
CONTINUOUS
10
28.5047
20
-33.3687
11
28.5134
21
-33.3702
0
LINE
8
BLACK
6
CONTINUOUS
10
28.5134
20
-33.3702
11
28.5171
21
-33.3724
0
LINE
8
BLACK
6
CONTINUOUS
10
28.5171
20
-33.3724
11
28.5213
21
-33.3736
0
LINE
8
BLACK
6
CONTINUOUS
10
28.5213
20
-33.3736
11
28.6165
21
-33.4212
0
LINE
8
BLACK
6
CONTINUOUS
10
28.6165
20
-33.4212
11
28.6262
21
-33.4284
0
LINE
8
BLACK
6
CONTINUOUS
10
28.6262
20
-33.4284
11
28.636
21
-33.4353
0
LINE
8
BLACK
6
CONTINUOUS
10
28.636
20
-33.4353
11
28.6836
21
-33.4829
0
LINE
8
BLACK
6
CONTINUOUS
10
28.6836
20
-33.4829
11
28.6905
21
-33.4927
0
LINE
8
BLACK
6
CONTINUOUS
10
28.6905
20
-33.4927
11
28.6977
21
-33.5024
0
LINE
8
BLACK
6
CONTINUOUS
10
28.6977
20
-33.5024
11
28.7453
21
-33.5976
0
LINE
8
BLACK
6
CONTINUOUS
10
28.7453
20
-33.5976
11
28.7465
21
-33.6017
0
LINE
8
BLACK
6
CONTINUOUS
10
28.7465
20
-33.6017
11
28.7487
21
-33.6055
0
LINE
8
BLACK
6
CONTINUOUS
10
28.7487
20
-33.6055
11
28.7502
21
-33.6141
0
LINE
8
BLACK
6
CONTINUOUS
10
28.7502
20
-33.6141
11
28.7527
21
-33.6226
0
LINE
8
BLACK
6
CONTINUOUS
10
28.7527
20
-33.6226
11
28.7524
21
-33.6269
0
LINE
8
BLACK
6
CONTINUOUS
10
28.7524
20
-33.6269
11
28.753
21
-33.6301
0
LINE
8
BLACK
6
CONTINUOUS
10
28.753
20
-33.6301
11
29.1114
21
-33.3792
0
LINE
8
BLACK
6
CONTINUOUS
10
29.1114
20
-33.3792
11
29.135
21
-33.3682
0
LINE
8
BLACK
6
CONTINUOUS
10
29.135
20
-33.3682
11
29.1609
21
-33.366
0
LINE
8
BLACK
6
CONTINUOUS
10
29.1609
20
-33.366
11
29.1861
21
-33.3727
0
LINE
8
BLACK
6
CONTINUOUS
10
29.1861
20
-33.3727
11
29.2074
21
-33.3876
0
LINE
8
BLACK
6
CONTINUOUS
10
29.2074
20
-33.3876
11
29.2224
21
-33.409
0
LINE
8
BLACK
6
CONTINUOUS
10
29.2224
20
-33.409
11
29.2291
21
-33.4341
0
LINE
8
BLACK
6
CONTINUOUS
10
29.2291
20
-33.4341
11
29.2268
21
-33.4601
0
LINE
8
BLACK
6
CONTINUOUS
10
29.2268
20
-33.4601
11
29.2158
21
-33.4837
0
LINE
8
BLACK
6
CONTINUOUS
10
29.2158
20
-33.4837
11
29.1974
21
-33.5021
0
LINE
8
BLACK
6
CONTINUOUS
10
29.1974
20
-33.5021
11
28.7532
21
-33.813
0
LINE
8
BLACK
6
CONTINUOUS
10
28.7532
20
-33.813
11
28.7532
21
-33.9371
0
LINE
8
BLACK
6
CONTINUOUS
10
28.7532
20
-33.9371
11
29.1544
21
-33.9371
0
LINE
8
BLACK
6
CONTINUOUS
10
29.1544
20
-33.9371
11
29.18
21
-33.9416
0
LINE
8
BLACK
6
CONTINUOUS
10
29.18
20
-33.9416
11
29.2026
21
-33.9546
0
LINE
8
BLACK
6
CONTINUOUS
10
29.2026
20
-33.9546
11
29.2193
21
-33.9746
0
LINE
8
BLACK
6
CONTINUOUS
10
29.2193
20
-33.9746
11
29.2282
21
-33.9991
0
LINE
8
BLACK
6
CONTINUOUS
10
29.2282
20
-33.9991
11
29.2282
21
-34.0251
0
LINE
8
BLACK
6
CONTINUOUS
10
29.2282
20
-34.0251
11
29.2193
21
-34.0496
0
LINE
8
BLACK
6
CONTINUOUS
10
29.2193
20
-34.0496
11
29.2026
21
-34.0695
0
LINE
8
BLACK
6
CONTINUOUS
10
29.2026
20
-34.0695
11
29.18
21
-34.0826
0
LINE
8
BLACK
6
CONTINUOUS
10
29.18
20
-34.0826
11
29.1544
21
-34.0871
0
LINE
8
BLACK
6
CONTINUOUS
10
29.1544
20
-34.0871
11
28.1544
21
-34.0871
0
LINE
8
BLACK
6
CONTINUOUS
10
28.1544
20
-34.0871
11
28.1479
21
-34.086
0
LINE
8
BLACK
6
CONTINUOUS
10
28.1479
20
-34.086
11
28.1414
21
-34.086
0
LINE
8
BLACK
6
CONTINUOUS
10
28.1414
20
-34.086
11
28.1352
21
-34.0837
0
LINE
8
BLACK
6
CONTINUOUS
10
28.1352
20
-34.0837
11
28.1287
21
-34.0826
0
LINE
8
BLACK
6
CONTINUOUS
10
28.1287
20
-34.0826
11
28.123
21
-34.0793
0
LINE
8
BLACK
6
CONTINUOUS
10
28.123
20
-34.0793
11
28.1169
21
-34.077
0
LINE
8
BLACK
6
CONTINUOUS
10
28.1169
20
-34.077
11
28.1119
21
-34.0728
0
LINE
8
BLACK
6
CONTINUOUS
10
28.1119
20
-34.0728
11
28.1062
21
-34.0695
0
LINE
8
BLACK
6
CONTINUOUS
10
28.1062
20
-34.0695
11
28.102
21
-34.0645
0
LINE
8
BLACK
6
CONTINUOUS
10
28.102
20
-34.0645
11
28.0969
21
-34.0603
0
LINE
8
BLACK
6
CONTINUOUS
10
28.0969
20
-34.0603
11
28.0936
21
-34.0546
0
LINE
8
BLACK
6
CONTINUOUS
10
28.0936
20
-34.0546
11
28.0894
21
-34.0496
0
LINE
8
BLACK
6
CONTINUOUS
10
28.0894
20
-34.0496
11
28.0872
21
-34.0434
0
LINE
8
BLACK
6
CONTINUOUS
10
28.0872
20
-34.0434
11
28.0839
21
-34.0377
0
LINE
8
BLACK
6
CONTINUOUS
10
28.0839
20
-34.0377
11
28.0828
21
-34.0313
0
LINE
8
BLACK
6
CONTINUOUS
10
28.0828
20
-34.0313
11
28.0805
21
-34.0251
0
LINE
8
BLACK
6
CONTINUOUS
10
28.0805
20
-34.0251
11
28.0805
21
-34.0186
0
LINE
8
BLACK
6
CONTINUOUS
10
28.0805
20
-34.0186
11
28.0794
21
-34.0121
0
LINE
8
BLACK
6
CONTINUOUS
10
28.0794
20
-34.0121
11
28.0794
21
-33.6311
0
LINE
8
BLACK
6
CONTINUOUS
10
28.0794
20
-33.6311
11
28.0801
21
-33.6269
0
LINE
8
BLACK
6
CONTINUOUS
10
28.0801
20
-33.6269
11
28.0799
21
-33.6226
0
LINE
8
BLACK
6
CONTINUOUS
10
28.0799
20
-33.6226
11
28.0824
21
-33.6141
0
LINE
8
BLACK
6
CONTINUOUS
10
28.0824
20
-33.6141
11
28.0839
21
-33.6055
0
LINE
8
BLACK
6
CONTINUOUS
10
28.0839
20
-33.6055
11
28.0861
21
-33.6017
0
LINE
8
BLACK
6
CONTINUOUS
10
28.0861
20
-33.6017
11
28.0873
21
-33.5976
0
LINE
8
BLACK
6
CONTINUOUS
10
28.0873
20
-33.5976
11
28.1349
21
-33.5024
0
LINE
8
BLACK
6
CONTINUOUS
10
28.1349
20
-33.5024
11
28.1421
21
-33.4927
0
LINE
8
BLACK
6
CONTINUOUS
10
28.1421
20
-33.4927
11
28.149
21
-33.4829
0
LINE
8
BLACK
6
CONTINUOUS
10
28.149
20
-33.4829
11
28.1966
21
-33.4353
0
LINE
8
BLACK
6
CONTINUOUS
10
28.1966
20
-33.4353
11
28.2064
21
-33.4284
0
LINE
8
BLACK
6
CONTINUOUS
10
28.2064
20
-33.4284
11
28.2161
21
-33.4212
0
LINE
8
BLACK
6
CONTINUOUS
10
28.2161
20
-33.4212
11
28.3113
21
-33.3736
0
LINE
8
BLACK
6
CONTINUOUS
10
28.3113
20
-33.3736
11
28.3155
21
-33.3724
0
LINE
8
BLACK
6
CONTINUOUS
10
28.3155
20
-33.3724
11
28.3192
21
-33.3702
0
LINE
8
BLACK
6
CONTINUOUS
10
28.3192
20
-33.3702
11
28.3279
21
-33.3687
0
LINE
8
BLACK
6
CONTINUOUS
10
28.3279
20
-33.3687
11
28.3363
21
-33.3662
0
LINE
8
BLACK
6
CONTINUOUS
10
28.3363
20
-33.3662
11
28.3406
21
-33.3664
0
LINE
8
BLACK
6
CONTINUOUS
10
28.3406
20
-33.3664
11
28.3449
21
-33.3657
0
LINE
8
BLACK
6
CONTINUOUS
10
28.3449
20
-33.3657
11
28.4877
21
-33.3657
0
LINE
8
BLACK
6
CONTINUOUS
10
28.4877
20
-33.3657
11
28.492
21
-33.3664
0
LINE
8
BLACK
6
CONTINUOUS
10
28.3626
20
-33.5157
11
28.294
21
-33.5499
0
LINE
8
BLACK
6
CONTINUOUS
10
28.294
20
-33.5499
11
28.2636
21
-33.5803
0
LINE
8
BLACK
6
CONTINUOUS
10
28.2636
20
-33.5803
11
28.2294
21
-33.6488
0
LINE
8
BLACK
6
CONTINUOUS
10
28.2294
20
-33.6488
11
28.2294
21
-33.9371
0
LINE
8
BLACK
6
CONTINUOUS
10
28.2294
20
-33.9371
11
28.6032
21
-33.9371
0
LINE
8
BLACK
6
CONTINUOUS
10
28.6032
20
-33.9371
11
28.6032
21
-33.6488
0
LINE
8
BLACK
6
CONTINUOUS
10
28.6032
20
-33.6488
11
28.5689
21
-33.5803
0
LINE
8
BLACK
6
CONTINUOUS
10
28.5689
20
-33.5803
11
28.5385
21
-33.5499
0
LINE
8
BLACK
6
CONTINUOUS
10
28.5385
20
-33.5499
11
28.47
21
-33.5157
0
LINE
8
BLACK
6
CONTINUOUS
10
28.47
20
-33.5157
11
28.3626
21
-33.5157
0
LINE
8
BLACK
6
CONTINUOUS
10
28.1629
20
-32.3668
11
28.1674
21
-32.3668
0
LINE
8
BLACK
6
CONTINUOUS
10
28.1674
20
-32.3668
11
28.1755
21
-32.3698
0
LINE
8
BLACK
6
CONTINUOUS
10
28.1755
20
-32.3698
11
28.1839
21
-32.3717
0
LINE
8
BLACK
6
CONTINUOUS
10
28.1839
20
-32.3717
11
29.1839
21
-32.8003
0
LINE
8
BLACK
6
CONTINUOUS
10
29.1839
20
-32.8003
11
29.2057
21
-32.8146
0
LINE
8
BLACK
6
CONTINUOUS
10
29.2057
20
-32.8146
11
29.2213
21
-32.8354
0
LINE
8
BLACK
6
CONTINUOUS
10
29.2213
20
-32.8354
11
29.2289
21
-32.8604
0
LINE
8
BLACK
6
CONTINUOUS
10
29.2289
20
-32.8604
11
29.2274
21
-32.8864
0
LINE
8
BLACK
6
CONTINUOUS
10
29.2274
20
-32.8864
11
29.2171
21
-32.9103
0
LINE
8
BLACK
6
CONTINUOUS
10
29.2171
20
-32.9103
11
29.1993
21
-32.9293
0
LINE
8
BLACK
6
CONTINUOUS
10
29.1993
20
-32.9293
11
29.1761
21
-32.941
0
LINE
8
BLACK
6
CONTINUOUS
10
29.1761
20
-32.941
11
29.1502
21
-32.9441
0
LINE
8
BLACK
6
CONTINUOUS
10
29.1502
20
-32.9441
11
29.1248
21
-32.9382
0
LINE
8
BLACK
6
CONTINUOUS
10
29.1248
20
-32.9382
11
28.2294
21
-32.5544
0
LINE
8
BLACK
6
CONTINUOUS
10
28.2294
20
-32.5544
11
28.2294
21
-33.1073
0
LINE
8
BLACK
6
CONTINUOUS
10
28.2294
20
-33.1073
11
28.2249
21
-33.133
0
LINE
8
BLACK
6
CONTINUOUS
10
28.2249
20
-33.133
11
28.2118
21
-33.1555
0
LINE
8
BLACK
6
CONTINUOUS
10
28.2118
20
-33.1555
11
28.1919
21
-33.1723
0
LINE
8
BLACK
6
CONTINUOUS
10
28.1919
20
-33.1723
11
28.1674
21
-33.1812
0
LINE
8
BLACK
6
CONTINUOUS
10
28.1674
20
-33.1812
11
28.1414
21
-33.1812
0
LINE
8
BLACK
6
CONTINUOUS
10
28.1414
20
-33.1812
11
28.1169
21
-33.1723
0
LINE
8
BLACK
6
CONTINUOUS
10
28.1169
20
-33.1723
11
28.0969
21
-33.1555
0
LINE
8
BLACK
6
CONTINUOUS
10
28.0969
20
-33.1555
11
28.0839
21
-33.133
0
LINE
8
BLACK
6
CONTINUOUS
10
28.0839
20
-33.133
11
28.0794
21
-33.1073
0
LINE
8
BLACK
6
CONTINUOUS
10
28.0794
20
-33.1073
11
28.0794
21
-32.4407
0
LINE
8
BLACK
6
CONTINUOUS
10
28.0794
20
-32.4407
11
28.0809
21
-32.4322
0
LINE
8
BLACK
6
CONTINUOUS
10
28.0809
20
-32.4322
11
28.0814
21
-32.4235
0
LINE
8
BLACK
6
CONTINUOUS
10
28.0814
20
-32.4235
11
28.0831
21
-32.4194
0
LINE
8
BLACK
6
CONTINUOUS
10
28.0831
20
-32.4194
11
28.0839
21
-32.415
0
LINE
8
BLACK
6
CONTINUOUS
10
28.0839
20
-32.415
11
28.0882
21
-32.4075
0
LINE
8
BLACK
6
CONTINUOUS
10
28.0882
20
-32.4075
11
28.0916
21
-32.3996
0
LINE
8
BLACK
6
CONTINUOUS
10
28.0916
20
-32.3996
11
28.0947
21
-32.3963
0
LINE
8
BLACK
6
CONTINUOUS
10
28.0947
20
-32.3963
11
28.0969
21
-32.3925
0
LINE
8
BLACK
6
CONTINUOUS
10
28.0969
20
-32.3925
11
28.1035
21
-32.3869
0
LINE
8
BLACK
6
CONTINUOUS
10
28.1035
20
-32.3869
11
28.1095
21
-32.3806
0
LINE
8
BLACK
6
CONTINUOUS
10
28.1095
20
-32.3806
11
28.1134
21
-32.3786
0
LINE
8
BLACK
6
CONTINUOUS
10
28.1134
20
-32.3786
11
28.1169
21
-32.3757
0
LINE
8
BLACK
6
CONTINUOUS
10
28.1169
20
-32.3757
11
28.125
21
-32.3728
0
LINE
8
BLACK
6
CONTINUOUS
10
28.125
20
-32.3728
11
28.1327
21
-32.3689
0
LINE
8
BLACK
6
CONTINUOUS
10
28.1327
20
-32.3689
11
28.1371
21
-32.3683
0
LINE
8
BLACK
6
CONTINUOUS
10
28.1371
20
-32.3683
11
28.1414
21
-32.3668
0
LINE
8
BLACK
6
CONTINUOUS
10
28.1414
20
-32.3668
11
28.15
21
-32.3668
0
LINE
8
BLACK
6
CONTINUOUS
10
28.15
20
-32.3668
11
28.1586
21
-32.3658
0
LINE
8
BLACK
6
CONTINUOUS
10
28.1586
20
-32.3658
11
28.1629
21
-32.3668
0
LINE
8
BLACK
6
CONTINUOUS
10
37.6573
20
-24.01
11
37.6626
21
-24.01
0
LINE
8
BLACK
6
CONTINUOUS
10
37.6626
20
-24.01
11
37.6676
21
-24.0118
0
LINE
8
BLACK
6
CONTINUOUS
10
37.6676
20
-24.0118
11
37.6728
21
-24.0127
0
LINE
8
BLACK
6
CONTINUOUS
10
37.6728
20
-24.0127
11
37.6775
21
-24.0154
0
LINE
8
BLACK
6
CONTINUOUS
10
37.6775
20
-24.0154
11
37.6825
21
-24.0172
0
LINE
8
BLACK
6
CONTINUOUS
10
37.6825
20
-24.0172
11
37.6865
21
-24.0207
0
LINE
8
BLACK
6
CONTINUOUS
10
37.6865
20
-24.0207
11
37.6912
21
-24.0233
0
LINE
8
BLACK
6
CONTINUOUS
10
37.6912
20
-24.0233
11
37.6946
21
-24.0274
0
LINE
8
BLACK
6
CONTINUOUS
10
37.6946
20
-24.0274
11
37.6987
21
-24.0308
0
LINE
8
BLACK
6
CONTINUOUS
10
37.6987
20
-24.0308
11
37.7013
21
-24.0355
0
LINE
8
BLACK
6
CONTINUOUS
10
37.7013
20
-24.0355
11
37.7048
21
-24.0395
0
LINE
8
BLACK
6
CONTINUOUS
10
37.7048
20
-24.0395
11
37.7066
21
-24.0445
0
LINE
8
BLACK
6
CONTINUOUS
10
37.7066
20
-24.0445
11
37.7093
21
-24.0492
0
LINE
8
BLACK
6
CONTINUOUS
10
37.7093
20
-24.0492
11
37.7102
21
-24.0544
0
LINE
8
BLACK
6
CONTINUOUS
10
37.7102
20
-24.0544
11
37.712
21
-24.0594
0
LINE
8
BLACK
6
CONTINUOUS
10
37.712
20
-24.0594
11
37.712
21
-24.0647
0
LINE
8
BLACK
6
CONTINUOUS
10
37.712
20
-24.0647
11
37.712
21
-24.0648
0
LINE
8
BLACK
6
CONTINUOUS
10
37.712
20
-24.0648
11
37.712
21
-26.7352
0
LINE
8
BLACK
6
CONTINUOUS
10
37.712
20
-26.7352
11
37.712
21
-26.7353
0
LINE
8
BLACK
6
CONTINUOUS
10
37.712
20
-26.7353
11
37.712
21
-26.7406
0
LINE
8
BLACK
6
CONTINUOUS
10
37.712
20
-26.7406
11
37.7102
21
-26.7456
0
LINE
8
BLACK
6
CONTINUOUS
10
37.7102
20
-26.7456
11
37.7093
21
-26.7508
0
LINE
8
BLACK
6
CONTINUOUS
10
37.7093
20
-26.7508
11
37.7066
21
-26.7555
0
LINE
8
BLACK
6
CONTINUOUS
10
37.7066
20
-26.7555
11
37.7048
21
-26.7605
0
LINE
8
BLACK
6
CONTINUOUS
10
37.7048
20
-26.7605
11
37.7013
21
-26.7645
0
LINE
8
BLACK
6
CONTINUOUS
10
37.7013
20
-26.7645
11
37.6987
21
-26.7692
0
LINE
8
BLACK
6
CONTINUOUS
10
37.6987
20
-26.7692
11
37.6946
21
-26.7726
0
LINE
8
BLACK
6
CONTINUOUS
10
37.6946
20
-26.7726
11
37.6912
21
-26.7767
0
LINE
8
BLACK
6
CONTINUOUS
10
37.6912
20
-26.7767
11
37.6865
21
-26.7793
0
LINE
8
BLACK
6
CONTINUOUS
10
37.6865
20
-26.7793
11
37.6825
21
-26.7828
0
LINE
8
BLACK
6
CONTINUOUS
10
37.6825
20
-26.7828
11
37.6775
21
-26.7846
0
LINE
8
BLACK
6
CONTINUOUS
10
37.6775
20
-26.7846
11
37.6728
21
-26.7873
0
LINE
8
BLACK
6
CONTINUOUS
10
37.6728
20
-26.7873
11
37.6676
21
-26.7882
0
LINE
8
BLACK
6
CONTINUOUS
10
37.6676
20
-26.7882
11
37.6626
21
-26.79
0
LINE
8
BLACK
6
CONTINUOUS
10
37.6626
20
-26.79
11
37.6573
21
-26.79
0
LINE
8
BLACK
6
CONTINUOUS
10
37.6573
20
-26.79
11
37.6572
21
-26.79
0
LINE
8
BLACK
6
CONTINUOUS
10
37.6572
20
-26.79
11
29.9668
21
-26.79
0
LINE
8
BLACK
6
CONTINUOUS
10
29.9668
20
-26.79
11
29.9667
21
-26.79
0
LINE
8
BLACK
6
CONTINUOUS
10
29.9667
20
-26.79
11
29.9614
21
-26.79
0
LINE
8
BLACK
6
CONTINUOUS
10
29.9614
20
-26.79
11
29.9564
21
-26.7882
0
LINE
8
BLACK
6
CONTINUOUS
10
29.9564
20
-26.7882
11
29.9512
21
-26.7873
0
LINE
8
BLACK
6
CONTINUOUS
10
29.9512
20
-26.7873
11
29.9465
21
-26.7846
0
LINE
8
BLACK
6
CONTINUOUS
10
29.9465
20
-26.7846
11
29.9415
21
-26.7828
0
LINE
8
BLACK
6
CONTINUOUS
10
29.9415
20
-26.7828
11
29.9375
21
-26.7793
0
LINE
8
BLACK
6
CONTINUOUS
10
29.9375
20
-26.7793
11
29.9328
21
-26.7767
0
LINE
8
BLACK
6
CONTINUOUS
10
29.9328
20
-26.7767
11
29.9294
21
-26.7726
0
LINE
8
BLACK
6
CONTINUOUS
10
29.9294
20
-26.7726
11
29.9253
21
-26.7692
0
LINE
8
BLACK
6
CONTINUOUS
10
29.9253
20
-26.7692
11
29.9227
21
-26.7645
0
LINE
8
BLACK
6
CONTINUOUS
10
29.9227
20
-26.7645
11
29.9192
21
-26.7605
0
LINE
8
BLACK
6
CONTINUOUS
10
29.9192
20
-26.7605
11
29.9174
21
-26.7555
0
LINE
8
BLACK
6
CONTINUOUS
10
29.9174
20
-26.7555
11
29.9147
21
-26.7508
0
LINE
8
BLACK
6
CONTINUOUS
10
29.9147
20
-26.7508
11
29.9138
21
-26.7456
0
LINE
8
BLACK
6
CONTINUOUS
10
29.9138
20
-26.7456
11
29.912
21
-26.7406
0
LINE
8
BLACK
6
CONTINUOUS
10
29.912
20
-26.7406
11
29.912
21
-26.7353
0
LINE
8
BLACK
6
CONTINUOUS
10
29.912
20
-26.7353
11
29.912
21
-26.7352
0
LINE
8
BLACK
6
CONTINUOUS
10
29.912
20
-26.7352
11
29.912
21
-24.0648
0
LINE
8
BLACK
6
CONTINUOUS
10
29.912
20
-24.0648
11
29.912
21
-24.0594
0
LINE
8
BLACK
6
CONTINUOUS
10
29.912
20
-24.0594
11
29.9138
21
-24.0544
0
LINE
8
BLACK
6
CONTINUOUS
10
29.9138
20
-24.0544
11
29.9147
21
-24.0492
0
LINE
8
BLACK
6
CONTINUOUS
10
29.9147
20
-24.0492
11
29.9174
21
-24.0446
0
LINE
8
BLACK
6
CONTINUOUS
10
29.9174
20
-24.0446
11
29.9192
21
-24.0395
0
LINE
8
BLACK
6
CONTINUOUS
10
29.9192
20
-24.0395
11
29.9227
21
-24.0354
0
LINE
8
BLACK
6
CONTINUOUS
10
29.9227
20
-24.0354
11
29.9253
21
-24.0308
0
LINE
8
BLACK
6
CONTINUOUS
10
29.9253
20
-24.0308
11
29.9294
21
-24.0274
0
LINE
8
BLACK
6
CONTINUOUS
10
29.9294
20
-24.0274
11
29.9328
21
-24.0233
0
LINE
8
BLACK
6
CONTINUOUS
10
29.9328
20
-24.0233
11
29.9375
21
-24.0207
0
LINE
8
BLACK
6
CONTINUOUS
10
29.9375
20
-24.0207
11
29.9415
21
-24.0172
0
LINE
8
BLACK
6
CONTINUOUS
10
29.9415
20
-24.0172
11
29.9465
21
-24.0154
0
LINE
8
BLACK
6
CONTINUOUS
10
29.9465
20
-24.0154
11
29.9512
21
-24.0127
0
LINE
8
BLACK
6
CONTINUOUS
10
29.9512
20
-24.0127
11
29.9564
21
-24.0118
0
LINE
8
BLACK
6
CONTINUOUS
10
29.9564
20
-24.0118
11
29.9614
21
-24.01
0
LINE
8
BLACK
6
CONTINUOUS
10
29.9614
20
-24.01
11
29.9667
21
-24.01
0
LINE
8
BLACK
6
CONTINUOUS
10
29.9667
20
-24.01
11
29.9668
21
-24.01
0
LINE
8
BLACK
6
CONTINUOUS
10
29.9668
20
-24.01
11
37.6572
21
-24.01
0
LINE
8
BLACK
6
CONTINUOUS
10
37.6572
20
-24.01
11
37.6573
21
-24.01
0
LINE
8
BLACK
6
CONTINUOUS
10
30.032
20
-24.13
11
30.032
21
-26.67
0
LINE
8
BLACK
6
CONTINUOUS
10
30.032
20
-26.67
11
37.592
21
-26.67
0
LINE
8
BLACK
6
CONTINUOUS
10
37.592
20
-26.67
11
37.592
21
-24.13
0
LINE
8
BLACK
6
CONTINUOUS
10
37.592
20
-24.13
11
30.032
21
-24.13
0
LINE
8
BLACK
6
CONTINUOUS
10
27.4025
20
-25.3472
11
27.4187
21
-25.3608
0
LINE
8
BLACK
6
CONTINUOUS
10
27.4187
20
-25.3608
11
27.4293
21
-25.3792
0
LINE
8
BLACK
6
CONTINUOUS
10
27.4293
20
-25.3792
11
27.432
21
-25.3948
0
LINE
8
BLACK
6
CONTINUOUS
10
27.432
20
-25.3948
11
27.432
21
-26.67
0
LINE
8
BLACK
6
CONTINUOUS
10
27.432
20
-26.67
11
28.7072
21
-26.67
0
LINE
8
BLACK
6
CONTINUOUS
10
28.7072
20
-26.67
11
28.7228
21
-26.6727
0
LINE
8
BLACK
6
CONTINUOUS
10
28.7228
20
-26.6727
11
28.7412
21
-26.6833
0
LINE
8
BLACK
6
CONTINUOUS
10
28.7412
20
-26.6833
11
28.7548
21
-26.6995
0
LINE
8
BLACK
6
CONTINUOUS
10
28.7548
20
-26.6995
11
28.762
21
-26.7194
0
LINE
8
BLACK
6
CONTINUOUS
10
28.762
20
-26.7194
11
28.762
21
-26.7406
0
LINE
8
BLACK
6
CONTINUOUS
10
28.762
20
-26.7406
11
28.7548
21
-26.7605
0
LINE
8
BLACK
6
CONTINUOUS
10
28.7548
20
-26.7605
11
28.7412
21
-26.7767
0
LINE
8
BLACK
6
CONTINUOUS
10
28.7412
20
-26.7767
11
28.7228
21
-26.7873
0
LINE
8
BLACK
6
CONTINUOUS
10
28.7228
20
-26.7873
11
28.7072
21
-26.79
0
LINE
8
BLACK
6
CONTINUOUS
10
28.7072
20
-26.79
11
27.3668
21
-26.79
0
LINE
8
BLACK
6
CONTINUOUS
10
27.3668
20
-26.79
11
27.3667
21
-26.79
0
LINE
8
BLACK
6
CONTINUOUS
10
27.3667
20
-26.79
11
27.3614
21
-26.79
0
LINE
8
BLACK
6
CONTINUOUS
10
27.3614
20
-26.79
11
27.3564
21
-26.7882
0
LINE
8
BLACK
6
CONTINUOUS
10
27.3564
20
-26.7882
11
27.3512
21
-26.7873
0
LINE
8
BLACK
6
CONTINUOUS
10
27.3512
20
-26.7873
11
27.3465
21
-26.7846
0
LINE
8
BLACK
6
CONTINUOUS
10
27.3465
20
-26.7846
11
27.3415
21
-26.7828
0
LINE
8
BLACK
6
CONTINUOUS
10
27.3415
20
-26.7828
11
27.3375
21
-26.7793
0
LINE
8
BLACK
6
CONTINUOUS
10
27.3375
20
-26.7793
11
27.3328
21
-26.7767
0
LINE
8
BLACK
6
CONTINUOUS
10
27.3328
20
-26.7767
11
27.3294
21
-26.7726
0
LINE
8
BLACK
6
CONTINUOUS
10
27.3294
20
-26.7726
11
27.3253
21
-26.7692
0
LINE
8
BLACK
6
CONTINUOUS
10
27.3253
20
-26.7692
11
27.3227
21
-26.7645
0
LINE
8
BLACK
6
CONTINUOUS
10
27.3227
20
-26.7645
11
27.3192
21
-26.7605
0
LINE
8
BLACK
6
CONTINUOUS
10
27.3192
20
-26.7605
11
27.3174
21
-26.7555
0
LINE
8
BLACK
6
CONTINUOUS
10
27.3174
20
-26.7555
11
27.3147
21
-26.7508
0
LINE
8
BLACK
6
CONTINUOUS
10
27.3147
20
-26.7508
11
27.3138
21
-26.7456
0
LINE
8
BLACK
6
CONTINUOUS
10
27.3138
20
-26.7456
11
27.312
21
-26.7406
0
LINE
8
BLACK
6
CONTINUOUS
10
27.312
20
-26.7406
11
27.312
21
-26.7353
0
LINE
8
BLACK
6
CONTINUOUS
10
27.312
20
-26.7353
11
27.312
21
-26.7352
0
LINE
8
BLACK
6
CONTINUOUS
10
27.312
20
-26.7352
11
27.312
21
-25.3948
0
LINE
8
BLACK
6
CONTINUOUS
10
27.312
20
-25.3948
11
27.3148
21
-25.3792
0
LINE
8
BLACK
6
CONTINUOUS
10
27.3148
20
-25.3792
11
27.3253
21
-25.3608
0
LINE
8
BLACK
6
CONTINUOUS
10
27.3253
20
-25.3608
11
27.3415
21
-25.3472
0
LINE
8
BLACK
6
CONTINUOUS
10
27.3415
20
-25.3472
11
27.3614
21
-25.34
0
LINE
8
BLACK
6
CONTINUOUS
10
27.3614
20
-25.34
11
27.3826
21
-25.34
0
LINE
8
BLACK
6
CONTINUOUS
10
27.3826
20
-25.34
11
27.4025
21
-25.3472
0
LINE
8
BLACK
6
CONTINUOUS
10
26.5505
20
-25.6604
11
26.5624
21
-25.6622
0
LINE
8
BLACK
6
CONTINUOUS
10
26.5624
20
-25.6622
11
26.7052
21
-25.7098
0
LINE
8
BLACK
6
CONTINUOUS
10
26.7052
20
-25.7098
11
26.709
21
-25.7119
0
LINE
8
BLACK
6
CONTINUOUS
10
26.709
20
-25.7119
11
26.7132
21
-25.713
0
LINE
8
BLACK
6
CONTINUOUS
10
26.7132
20
-25.713
11
26.7204
21
-25.718
0
LINE
8
BLACK
6
CONTINUOUS
10
26.7204
20
-25.718
11
26.7281
21
-25.7222
0
LINE
8
BLACK
6
CONTINUOUS
10
26.7281
20
-25.7222
11
26.731
21
-25.7254
0
LINE
8
BLACK
6
CONTINUOUS
10
26.731
20
-25.7254
11
26.7346
21
-25.7279
0
LINE
8
BLACK
6
CONTINUOUS
10
26.7346
20
-25.7279
11
26.8298
21
-25.8232
0
LINE
8
BLACK
6
CONTINUOUS
10
26.8298
20
-25.8232
11
26.8323
21
-25.8267
0
LINE
8
BLACK
6
CONTINUOUS
10
26.8323
20
-25.8267
11
26.8355
21
-25.8296
0
LINE
8
BLACK
6
CONTINUOUS
10
26.8355
20
-25.8296
11
26.8397
21
-25.8373
0
LINE
8
BLACK
6
CONTINUOUS
10
26.8397
20
-25.8373
11
26.8447
21
-25.8445
0
LINE
8
BLACK
6
CONTINUOUS
10
26.8447
20
-25.8445
11
26.8459
21
-25.8487
0
LINE
8
BLACK
6
CONTINUOUS
10
26.8459
20
-25.8487
11
26.8479
21
-25.8525
0
LINE
8
BLACK
6
CONTINUOUS
10
26.8479
20
-25.8525
11
26.8955
21
-25.9953
0
LINE
8
BLACK
6
CONTINUOUS
10
26.8955
20
-25.9953
11
26.8973
21
-26.0072
0
LINE
8
BLACK
6
CONTINUOUS
10
26.8973
20
-26.0072
11
26.8994
21
-26.019
0
LINE
8
BLACK
6
CONTINUOUS
10
26.8994
20
-26.019
11
26.8994
21
-26.1143
0
LINE
8
BLACK
6
CONTINUOUS
10
26.8994
20
-26.1143
11
26.8949
21
-26.1399
0
LINE
8
BLACK
6
CONTINUOUS
10
26.8949
20
-26.1399
11
26.8818
21
-26.1625
0
LINE
8
BLACK
6
CONTINUOUS
10
26.8818
20
-26.1625
11
26.8619
21
-26.1792
0
LINE
8
BLACK
6
CONTINUOUS
10
26.8619
20
-26.1792
11
26.8374
21
-26.1881
0
LINE
8
BLACK
6
CONTINUOUS
10
26.8374
20
-26.1881
11
26.8114
21
-26.1881
0
LINE
8
BLACK
6
CONTINUOUS
10
26.8114
20
-26.1881
11
26.7869
21
-26.1792
0
LINE
8
BLACK
6
CONTINUOUS
10
26.7869
20
-26.1792
11
26.7669
21
-26.1625
0
LINE
8
BLACK
6
CONTINUOUS
10
26.7669
20
-26.1625
11
26.7539
21
-26.1399
0
LINE
8
BLACK
6
CONTINUOUS
10
26.7539
20
-26.1399
11
26.7494
21
-26.1143
0
LINE
8
BLACK
6
CONTINUOUS
10
26.7494
20
-26.1143
11
26.7494
21
-26.0312
0
LINE
8
BLACK
6
CONTINUOUS
10
26.7494
20
-26.0312
11
26.7112
21
-25.9167
0
LINE
8
BLACK
6
CONTINUOUS
10
26.7112
20
-25.9167
11
26.641
21
-25.8465
0
LINE
8
BLACK
6
CONTINUOUS
10
26.641
20
-25.8465
11
26.5265
21
-25.8083
0
LINE
8
BLACK
6
CONTINUOUS
10
26.5265
20
-25.8083
11
25.8244
21
-25.8083
0
LINE
8
BLACK
6
CONTINUOUS
10
25.8244
20
-25.8083
11
25.7987
21
-25.8038
0
LINE
8
BLACK
6
CONTINUOUS
10
25.7987
20
-25.8038
11
25.7762
21
-25.7908
0
LINE
8
BLACK
6
CONTINUOUS
10
25.7762
20
-25.7908
11
25.7594
21
-25.7708
0
LINE
8
BLACK
6
CONTINUOUS
10
25.7594
20
-25.7708
11
25.7505
21
-25.7464
0
LINE
8
BLACK
6
CONTINUOUS
10
25.7505
20
-25.7464
11
25.7505
21
-25.7203
0
LINE
8
BLACK
6
CONTINUOUS
10
25.7505
20
-25.7203
11
25.7594
21
-25.6958
0
LINE
8
BLACK
6
CONTINUOUS
10
25.7594
20
-25.6958
11
25.7762
21
-25.6759
0
LINE
8
BLACK
6
CONTINUOUS
10
25.7762
20
-25.6759
11
25.7987
21
-25.6629
0
LINE
8
BLACK
6
CONTINUOUS
10
25.7987
20
-25.6629
11
25.8244
21
-25.6583
0
LINE
8
BLACK
6
CONTINUOUS
10
25.8244
20
-25.6583
11
26.5387
21
-25.6583
0
LINE
8
BLACK
6
CONTINUOUS
10
26.5387
20
-25.6583
11
26.5505
21
-25.6604
0
LINE
8
BLACK
6
CONTINUOUS
10
26.1219
20
-24.6604
11
26.1338
21
-24.6622
0
LINE
8
BLACK
6
CONTINUOUS
10
26.1338
20
-24.6622
11
26.2767
21
-24.7098
0
LINE
8
BLACK
6
CONTINUOUS
10
26.2767
20
-24.7098
11
26.2805
21
-24.7119
0
LINE
8
BLACK
6
CONTINUOUS
10
26.2805
20
-24.7119
11
26.2846
21
-24.713
0
LINE
8
BLACK
6
CONTINUOUS
10
26.2846
20
-24.713
11
26.2918
21
-24.718
0
LINE
8
BLACK
6
CONTINUOUS
10
26.2918
20
-24.718
11
26.2996
21
-24.7222
0
LINE
8
BLACK
6
CONTINUOUS
10
26.2996
20
-24.7222
11
26.3024
21
-24.7254
0
LINE
8
BLACK
6
CONTINUOUS
10
26.3024
20
-24.7254
11
26.306
21
-24.7279
0
LINE
8
BLACK
6
CONTINUOUS
10
26.306
20
-24.7279
11
26.7494
21
-25.1713
0
LINE
8
BLACK
6
CONTINUOUS
10
26.7494
20
-25.1713
11
26.7494
21
-24.7333
0
LINE
8
BLACK
6
CONTINUOUS
10
26.7494
20
-24.7333
11
26.7539
21
-24.7077
0
LINE
8
BLACK
6
CONTINUOUS
10
26.7539
20
-24.7077
11
26.7669
21
-24.6851
0
LINE
8
BLACK
6
CONTINUOUS
10
26.7669
20
-24.6851
11
26.7869
21
-24.6684
0
LINE
8
BLACK
6
CONTINUOUS
10
26.7869
20
-24.6684
11
26.8114
21
-24.6595
0
LINE
8
BLACK
6
CONTINUOUS
10
26.8114
20
-24.6595
11
26.8374
21
-24.6595
0
LINE
8
BLACK
6
CONTINUOUS
10
26.8374
20
-24.6595
11
26.8619
21
-24.6684
0
LINE
8
BLACK
6
CONTINUOUS
10
26.8619
20
-24.6684
11
26.8818
21
-24.6851
0
LINE
8
BLACK
6
CONTINUOUS
10
26.8818
20
-24.6851
11
26.8949
21
-24.7077
0
LINE
8
BLACK
6
CONTINUOUS
10
26.8949
20
-24.7077
11
26.8994
21
-24.7333
0
LINE
8
BLACK
6
CONTINUOUS
10
26.8994
20
-24.7333
11
26.8994
21
-25.3524
0
LINE
8
BLACK
6
CONTINUOUS
10
26.8994
20
-25.3524
11
26.8977
21
-25.362
0
LINE
8
BLACK
6
CONTINUOUS
10
26.8977
20
-25.362
11
26.8968
21
-25.3718
0
LINE
8
BLACK
6
CONTINUOUS
10
26.8968
20
-25.3718
11
26.8954
21
-25.3748
0
LINE
8
BLACK
6
CONTINUOUS
10
26.8954
20
-25.3748
11
26.8949
21
-25.378
0
LINE
8
BLACK
6
CONTINUOUS
10
26.8949
20
-25.378
11
26.89
21
-25.3865
0
LINE
8
BLACK
6
CONTINUOUS
10
26.89
20
-25.3865
11
26.8858
21
-25.3954
0
LINE
8
BLACK
6
CONTINUOUS
10
26.8858
20
-25.3954
11
26.8835
21
-25.3977
0
LINE
8
BLACK
6
CONTINUOUS
10
26.8835
20
-25.3977
11
26.8818
21
-25.4006
0
LINE
8
BLACK
6
CONTINUOUS
10
26.8818
20
-25.4006
11
26.8743
21
-25.4069
0
LINE
8
BLACK
6
CONTINUOUS
10
26.8743
20
-25.4069
11
26.8674
21
-25.4138
0
LINE
8
BLACK
6
CONTINUOUS
10
26.8674
20
-25.4138
11
26.8644
21
-25.4152
0
LINE
8
BLACK
6
CONTINUOUS
10
26.8644
20
-25.4152
11
26.8619
21
-25.4173
0
LINE
8
BLACK
6
CONTINUOUS
10
26.8619
20
-25.4173
11
26.8527
21
-25.4207
0
LINE
8
BLACK
6
CONTINUOUS
10
26.8527
20
-25.4207
11
26.8438
21
-25.4248
0
LINE
8
BLACK
6
CONTINUOUS
10
26.8438
20
-25.4248
11
26.8405
21
-25.4251
0
LINE
8
BLACK
6
CONTINUOUS
10
26.8405
20
-25.4251
11
26.8374
21
-25.4262
0
LINE
8
BLACK
6
CONTINUOUS
10
26.8374
20
-25.4262
11
26.8276
21
-25.4262
0
LINE
8
BLACK
6
CONTINUOUS
10
26.8276
20
-25.4262
11
26.8178
21
-25.4271
0
LINE
8
BLACK
6
CONTINUOUS
10
26.8178
20
-25.4271
11
26.8147
21
-25.4262
0
LINE
8
BLACK
6
CONTINUOUS
10
26.8147
20
-25.4262
11
26.8114
21
-25.4262
0
LINE
8
BLACK
6
CONTINUOUS
10
26.8114
20
-25.4262
11
26.8021
21
-25.4229
0
LINE
8
BLACK
6
CONTINUOUS
10
26.8021
20
-25.4229
11
26.7927
21
-25.4204
0
LINE
8
BLACK
6
CONTINUOUS
10
26.7927
20
-25.4204
11
26.79
21
-25.4185
0
LINE
8
BLACK
6
CONTINUOUS
10
26.79
20
-25.4185
11
26.7869
21
-25.4173
0
LINE
8
BLACK
6
CONTINUOUS
10
26.7869
20
-25.4173
11
26.7794
21
-25.411
0
LINE
8
BLACK
6
CONTINUOUS
10
26.7794
20
-25.411
11
26.7713
21
-25.4054
0
LINE
8
BLACK
6
CONTINUOUS
10
26.7713
20
-25.4054
11
26.2124
21
-24.8465
0
LINE
8
BLACK
6
CONTINUOUS
10
26.2124
20
-24.8465
11
26.0979
21
-24.8083
0
LINE
8
BLACK
6
CONTINUOUS
10
26.0979
20
-24.8083
11
26.0326
21
-24.8083
0
LINE
8
BLACK
6
CONTINUOUS
10
26.0326
20
-24.8083
11
25.964
21
-24.8426
0
LINE
8
BLACK
6
CONTINUOUS
10
25.964
20
-24.8426
11
25.9336
21
-24.873
0
LINE
8
BLACK
6
CONTINUOUS
10
25.9336
20
-24.873
11
25.8994
21
-24.9415
0
LINE
8
BLACK
6
CONTINUOUS
10
25.8994
20
-24.9415
11
25.8994
21
-25.1442
0
LINE
8
BLACK
6
CONTINUOUS
10
25.8994
20
-25.1442
11
25.9336
21
-25.2127
0
LINE
8
BLACK
6
CONTINUOUS
10
25.9336
20
-25.2127
11
25.9727
21
-25.2517
0
LINE
8
BLACK
6
CONTINUOUS
10
25.9727
20
-25.2517
11
25.9876
21
-25.2731
0
LINE
8
BLACK
6
CONTINUOUS
10
25.9876
20
-25.2731
11
25.9943
21
-25.2982
0
LINE
8
BLACK
6
CONTINUOUS
10
25.9943
20
-25.2982
11
25.9921
21
-25.3242
0
LINE
8
BLACK
6
CONTINUOUS
10
25.9921
20
-25.3242
11
25.9811
21
-25.3478
0
LINE
8
BLACK
6
CONTINUOUS
10
25.9811
20
-25.3478
11
25.9626
21
-25.3662
0
LINE
8
BLACK
6
CONTINUOUS
10
25.9626
20
-25.3662
11
25.939
21
-25.3772
0
LINE
8
BLACK
6
CONTINUOUS
10
25.939
20
-25.3772
11
25.9131
21
-25.3795
0
LINE
8
BLACK
6
CONTINUOUS
10
25.9131
20
-25.3795
11
25.8879
21
-25.3727
0
LINE
8
BLACK
6
CONTINUOUS
10
25.8879
20
-25.3727
11
25.8666
21
-25.3578
0
LINE
8
BLACK
6
CONTINUOUS
10
25.8666
20
-25.3578
11
25.819
21
-25.3102
0
LINE
8
BLACK
6
CONTINUOUS
10
25.819
20
-25.3102
11
25.8121
21
-25.3003
0
LINE
8
BLACK
6
CONTINUOUS
10
25.8121
20
-25.3003
11
25.8049
21
-25.2907
0
LINE
8
BLACK
6
CONTINUOUS
10
25.8049
20
-25.2907
11
25.7573
21
-25.1954
0
LINE
8
BLACK
6
CONTINUOUS
10
25.7573
20
-25.1954
11
25.7561
21
-25.1913
0
LINE
8
BLACK
6
CONTINUOUS
10
25.7561
20
-25.1913
11
25.7539
21
-25.1876
0
LINE
8
BLACK
6
CONTINUOUS
10
25.7539
20
-25.1876
11
25.7524
21
-25.1789
0
LINE
8
BLACK
6
CONTINUOUS
10
25.7524
20
-25.1789
11
25.7499
21
-25.1705
0
LINE
8
BLACK
6
CONTINUOUS
10
25.7499
20
-25.1705
11
25.7501
21
-25.1662
0
LINE
8
BLACK
6
CONTINUOUS
10
25.7501
20
-25.1662
11
25.7494
21
-25.1619
0
LINE
8
BLACK
6
CONTINUOUS
10
25.7494
20
-25.1619
11
25.7494
21
-24.9238
0
LINE
8
BLACK
6
CONTINUOUS
10
25.7494
20
-24.9238
11
25.7501
21
-24.9195
0
LINE
8
BLACK
6
CONTINUOUS
10
25.7501
20
-24.9195
11
25.7499
21
-24.9152
0
LINE
8
BLACK
6
CONTINUOUS
10
25.7499
20
-24.9152
11
25.7524
21
-24.9068
0
LINE
8
BLACK
6
CONTINUOUS
10
25.7524
20
-24.9068
11
25.7539
21
-24.8982
0
LINE
8
BLACK
6
CONTINUOUS
10
25.7539
20
-24.8982
11
25.7561
21
-24.8944
0
LINE
8
BLACK
6
CONTINUOUS
10
25.7561
20
-24.8944
11
25.7573
21
-24.8903
0
LINE
8
BLACK
6
CONTINUOUS
10
25.7573
20
-24.8903
11
25.8049
21
-24.795
0
LINE
8
BLACK
6
CONTINUOUS
10
25.8049
20
-24.795
11
25.8121
21
-24.7854
0
LINE
8
BLACK
6
CONTINUOUS
10
25.8121
20
-24.7854
11
25.819
21
-24.7755
0
LINE
8
BLACK
6
CONTINUOUS
10
25.819
20
-24.7755
11
25.8666
21
-24.7279
0
LINE
8
BLACK
6
CONTINUOUS
10
25.8666
20
-24.7279
11
25.8764
21
-24.721
0
LINE
8
BLACK
6
CONTINUOUS
10
25.8764
20
-24.721
11
25.8861
21
-24.7139
0
LINE
8
BLACK
6
CONTINUOUS
10
25.8861
20
-24.7139
11
25.9813
21
-24.6663
0
LINE
8
BLACK
6
CONTINUOUS
10
25.9813
20
-24.6663
11
25.9855
21
-24.665
0
LINE
8
BLACK
6
CONTINUOUS
10
25.9855
20
-24.665
11
25.9892
21
-24.6629
0
LINE
8
BLACK
6
CONTINUOUS
10
25.9892
20
-24.6629
11
25.9979
21
-24.6613
0
LINE
8
BLACK
6
CONTINUOUS
10
25.9979
20
-24.6613
11
26.0063
21
-24.6588
0
LINE
8
BLACK
6
CONTINUOUS
10
26.0063
20
-24.6588
11
26.0106
21
-24.6591
0
LINE
8
BLACK
6
CONTINUOUS
10
26.0106
20
-24.6591
11
26.0149
21
-24.6583
0
LINE
8
BLACK
6
CONTINUOUS
10
26.0149
20
-24.6583
11
26.1101
21
-24.6583
0
LINE
8
BLACK
6
CONTINUOUS
10
26.1101
20
-24.6583
11
26.1219
21
-24.6604
  0
ENDSEC
  0
EOF
