  0
SECTION
  2
HEADER
  9
$ANGBASE
  50
0.0
  9
$ANGDIR
  70
  1
  9
$MEASUREMENT
  70
0
  0
ENDSEC
  0
SECTION
  2
TABLES
  0
TABLE
  2
LTYPE
  70
4
  0
LTYPE
  5
40F
  2
CONTINUOUS
  70
0
  3
Solid line
  72
65
  73
0
  40
0.0
  0
LTYPE
  5
410
  2
DASHDOT
 70
0
  3
Dash Dot ____ _ ____ _
 72
65
 73
4
 40
2.0
 49
1.25
 49
-0.25
 49
0.25
 49
-0.25
  0
LTYPE
  5
411
  2
DASHED
 70
0
  3
Dashed __ __ __ __ __
 72
65
 73
2
 40
0.75
 49
0.5
 49
-0.25
  0
LTYPE
  5
43B
  2
DOTTED
 70
0
  3
Dotted .  .  .  .
 72
65
 73
2
 40
0.2
 49
0.0
 49
-0.2
  0
ENDTAB
  0
TABLE
  2
STYLE
  70
4
  0
STYLE
  2
KICAD
  70
0
  40
0
  41
1
  42
1
  50
0
  71
0
  3
isocp.shx
  0
STYLE
  2
KICADB
  70
0
  40
0
  41
1
  42
1
  50
0
  71
0
  3
isocp.shx
  0
STYLE
  2
KICADI
  70
0
  40
0
  41
1
  42
1
  50
15
  71
0
  3
isocp.shx
  0
STYLE
  2
KICADBI
  70
0
  40
0
  41
1
  42
1
  50
15
  71
0
  3
isocp.shx
  0
ENDTAB
  0
TABLE
  2
LAYER
  70
30
  0
LAYER
  2
BLACK
  70
0
  62
7
  6
CONTINUOUS
  0
LAYER
  2
GRAY1
  70
0
  62
251
  6
CONTINUOUS
  0
LAYER
  2
GRAY2
  70
0
  62
8
  6
CONTINUOUS
  0
LAYER
  2
GRAY3
  70
0
  62
9
  6
CONTINUOUS
  0
LAYER
  2
WHITE
  70
0
  62
7
  6
CONTINUOUS
  0
LAYER
  2
LYELLOW
  70
0
  62
51
  6
CONTINUOUS
  0
LAYER
  2
BLUE1
  70
0
  62
178
  6
CONTINUOUS
  0
LAYER
  2
GREEN1
  70
0
  62
98
  6
CONTINUOUS
  0
LAYER
  2
CYAN1
  70
0
  62
138
  6
CONTINUOUS
  0
LAYER
  2
RED1
  70
0
  62
18
  6
CONTINUOUS
  0
LAYER
  2
MAGENTA1
  70
0
  62
228
  6
CONTINUOUS
  0
LAYER
  2
BROWN1
  70
0
  62
58
  6
CONTINUOUS
  0
LAYER
  2
BLUE2
  70
0
  62
5
  6
CONTINUOUS
  0
LAYER
  2
GREEN2
  70
0
  62
3
  6
CONTINUOUS
  0
LAYER
  2
CYAN2
  70
0
  62
4
  6
CONTINUOUS
  0
LAYER
  2
RED2
  70
0
  62
1
  6
CONTINUOUS
  0
LAYER
  2
MAGENTA2
  70
0
  62
6
  6
CONTINUOUS
  0
LAYER
  2
BROWN2
  70
0
  62
54
  6
CONTINUOUS
  0
LAYER
  2
BLUE3
  70
0
  62
171
  6
CONTINUOUS
  0
LAYER
  2
GREEN3
  70
0
  62
91
  6
CONTINUOUS
  0
LAYER
  2
CYAN3
  70
0
  62
131
  6
CONTINUOUS
  0
LAYER
  2
RED3
  70
0
  62
11
  6
CONTINUOUS
  0
LAYER
  2
MAGENTA3
  70
0
  62
221
  6
CONTINUOUS
  0
LAYER
  2
YELLOW3
  70
0
  62
2
  6
CONTINUOUS
  0
LAYER
  2
BLUE4
  70
0
  62
5
  6
CONTINUOUS
  0
LAYER
  2
GREEN4
  70
0
  62
3
  6
CONTINUOUS
  0
LAYER
  2
CYAN4
  70
0
  62
4
  6
CONTINUOUS
  0
LAYER
  2
RED4
  70
0
  62
1
  6
CONTINUOUS
  0
LAYER
  2
MAGENTA4
  70
0
  62
6
  6
CONTINUOUS
  0
LAYER
  2
YELLOW4
  70
0
  62
2
  6
CONTINUOUS
  0
ENDTAB
  0
ENDSEC
  0
SECTION
  2
ENTITIES
0
LINE
8
BLACK
6
CONTINUOUS
10
50.166
20
-69.5624
11
50.502
21
-69.7564
0
LINE
8
BLACK
6
CONTINUOUS
10
50.502
20
-69.7564
11
50.7513
21
-70.0535
0
LINE
8
BLACK
6
CONTINUOUS
10
50.7513
20
-70.0535
11
50.884
21
-70.418
0
LINE
8
BLACK
6
CONTINUOUS
10
50.884
20
-70.418
11
50.884
21
-70.806
0
LINE
8
BLACK
6
CONTINUOUS
10
50.884
20
-70.806
11
50.7513
21
-71.1705
0
LINE
8
BLACK
6
CONTINUOUS
10
50.7513
20
-71.1705
11
50.502
21
-71.4676
0
LINE
8
BLACK
6
CONTINUOUS
10
50.502
20
-71.4676
11
50.166
21
-71.6616
0
LINE
8
BLACK
6
CONTINUOUS
10
50.166
20
-71.6616
11
49.784
21
-71.729
0
LINE
8
BLACK
6
CONTINUOUS
10
49.784
20
-71.729
11
49.402
21
-71.6616
0
LINE
8
BLACK
6
CONTINUOUS
10
49.402
20
-71.6616
11
49.066
21
-71.4676
0
LINE
8
BLACK
6
CONTINUOUS
10
49.066
20
-71.4676
11
48.8167
21
-71.1705
0
LINE
8
BLACK
6
CONTINUOUS
10
48.8167
20
-71.1705
11
48.684
21
-70.806
0
LINE
8
BLACK
6
CONTINUOUS
10
48.684
20
-70.806
11
48.684
21
-70.418
0
LINE
8
BLACK
6
CONTINUOUS
10
48.684
20
-70.418
11
48.8167
21
-70.0535
0
LINE
8
BLACK
6
CONTINUOUS
10
48.8167
20
-70.0535
11
49.066
21
-69.7564
0
LINE
8
BLACK
6
CONTINUOUS
10
49.066
20
-69.7564
11
49.402
21
-69.5624
0
LINE
8
BLACK
6
CONTINUOUS
10
49.402
20
-69.5624
11
49.784
21
-69.495
0
LINE
8
BLACK
6
CONTINUOUS
10
49.784
20
-69.495
11
50.166
21
-69.5624
0
LINE
8
BLACK
6
CONTINUOUS
10
23.242
20
-69.5624
11
23.578
21
-69.7564
0
LINE
8
BLACK
6
CONTINUOUS
10
23.578
20
-69.7564
11
23.8273
21
-70.0535
0
LINE
8
BLACK
6
CONTINUOUS
10
23.8273
20
-70.0535
11
23.96
21
-70.418
0
LINE
8
BLACK
6
CONTINUOUS
10
23.96
20
-70.418
11
23.96
21
-70.806
0
LINE
8
BLACK
6
CONTINUOUS
10
23.96
20
-70.806
11
23.8273
21
-71.1705
0
LINE
8
BLACK
6
CONTINUOUS
10
23.8273
20
-71.1705
11
23.578
21
-71.4676
0
LINE
8
BLACK
6
CONTINUOUS
10
23.578
20
-71.4676
11
23.242
21
-71.6616
0
LINE
8
BLACK
6
CONTINUOUS
10
23.242
20
-71.6616
11
22.86
21
-71.729
0
LINE
8
BLACK
6
CONTINUOUS
10
22.86
20
-71.729
11
22.478
21
-71.6616
0
LINE
8
BLACK
6
CONTINUOUS
10
22.478
20
-71.6616
11
22.142
21
-71.4676
0
LINE
8
BLACK
6
CONTINUOUS
10
22.142
20
-71.4676
11
21.8927
21
-71.1705
0
LINE
8
BLACK
6
CONTINUOUS
10
21.8927
20
-71.1705
11
21.76
21
-70.806
0
LINE
8
BLACK
6
CONTINUOUS
10
21.76
20
-70.806
11
21.76
21
-70.418
0
LINE
8
BLACK
6
CONTINUOUS
10
21.76
20
-70.418
11
21.8927
21
-70.0535
0
LINE
8
BLACK
6
CONTINUOUS
10
21.8927
20
-70.0535
11
22.142
21
-69.7564
0
LINE
8
BLACK
6
CONTINUOUS
10
22.142
20
-69.7564
11
22.478
21
-69.5624
0
LINE
8
BLACK
6
CONTINUOUS
10
22.478
20
-69.5624
11
22.86
21
-69.495
0
LINE
8
BLACK
6
CONTINUOUS
10
22.86
20
-69.495
11
23.242
21
-69.5624
0
LINE
8
BLACK
6
CONTINUOUS
10
40.4272
20
-69.0389
11
40.6868
21
-69.1888
0
LINE
8
BLACK
6
CONTINUOUS
10
40.6868
20
-69.1888
11
40.8795
21
-69.4184
0
LINE
8
BLACK
6
CONTINUOUS
10
40.8795
20
-69.4184
11
40.982
21
-69.7001
0
LINE
8
BLACK
6
CONTINUOUS
10
40.982
20
-69.7001
11
40.982
21
-69.9999
0
LINE
8
BLACK
6
CONTINUOUS
10
40.982
20
-69.9999
11
40.8795
21
-70.2816
0
LINE
8
BLACK
6
CONTINUOUS
10
40.8795
20
-70.2816
11
40.6868
21
-70.5112
0
LINE
8
BLACK
6
CONTINUOUS
10
40.6868
20
-70.5112
11
40.4272
21
-70.6611
0
LINE
8
BLACK
6
CONTINUOUS
10
40.4272
20
-70.6611
11
40.2064
21
-70.7
0
LINE
8
BLACK
6
CONTINUOUS
10
40.2064
20
-70.7
11
40.0576
21
-70.7
0
LINE
8
BLACK
6
CONTINUOUS
10
40.0576
20
-70.7
11
39.8368
21
-70.6611
0
LINE
8
BLACK
6
CONTINUOUS
10
39.8368
20
-70.6611
11
39.5772
21
-70.5112
0
LINE
8
BLACK
6
CONTINUOUS
10
39.5772
20
-70.5112
11
39.3845
21
-70.2816
0
LINE
8
BLACK
6
CONTINUOUS
10
39.3845
20
-70.2816
11
39.282
21
-69.9999
0
LINE
8
BLACK
6
CONTINUOUS
10
39.282
20
-69.9999
11
39.282
21
-69.7001
0
LINE
8
BLACK
6
CONTINUOUS
10
39.282
20
-69.7001
11
39.3845
21
-69.4184
0
LINE
8
BLACK
6
CONTINUOUS
10
39.3845
20
-69.4184
11
39.5772
21
-69.1888
0
LINE
8
BLACK
6
CONTINUOUS
10
39.5772
20
-69.1888
11
39.8368
21
-69.0389
0
LINE
8
BLACK
6
CONTINUOUS
10
39.8368
20
-69.0389
11
40.0576
21
-69
0
LINE
8
BLACK
6
CONTINUOUS
10
40.0576
20
-69
11
40.2064
21
-69
0
LINE
8
BLACK
6
CONTINUOUS
10
40.2064
20
-69
11
40.4272
21
-69.0389
0
LINE
8
BLACK
6
CONTINUOUS
10
37.8872
20
-69.0389
11
38.1468
21
-69.1888
0
LINE
8
BLACK
6
CONTINUOUS
10
38.1468
20
-69.1888
11
38.3395
21
-69.4184
0
LINE
8
BLACK
6
CONTINUOUS
10
38.3395
20
-69.4184
11
38.442
21
-69.7001
0
LINE
8
BLACK
6
CONTINUOUS
10
38.442
20
-69.7001
11
38.442
21
-69.9999
0
LINE
8
BLACK
6
CONTINUOUS
10
38.442
20
-69.9999
11
38.3395
21
-70.2816
0
LINE
8
BLACK
6
CONTINUOUS
10
38.3395
20
-70.2816
11
38.1468
21
-70.5112
0
LINE
8
BLACK
6
CONTINUOUS
10
38.1468
20
-70.5112
11
37.8872
21
-70.6611
0
LINE
8
BLACK
6
CONTINUOUS
10
37.8872
20
-70.6611
11
37.6664
21
-70.7
0
LINE
8
BLACK
6
CONTINUOUS
10
37.6664
20
-70.7
11
37.5176
21
-70.7
0
LINE
8
BLACK
6
CONTINUOUS
10
37.5176
20
-70.7
11
37.2968
21
-70.6611
0
LINE
8
BLACK
6
CONTINUOUS
10
37.2968
20
-70.6611
11
37.0372
21
-70.5112
0
LINE
8
BLACK
6
CONTINUOUS
10
37.0372
20
-70.5112
11
36.8445
21
-70.2816
0
LINE
8
BLACK
6
CONTINUOUS
10
36.8445
20
-70.2816
11
36.742
21
-69.9999
0
LINE
8
BLACK
6
CONTINUOUS
10
36.742
20
-69.9999
11
36.742
21
-69.7001
0
LINE
8
BLACK
6
CONTINUOUS
10
36.742
20
-69.7001
11
36.8445
21
-69.4184
0
LINE
8
BLACK
6
CONTINUOUS
10
36.8445
20
-69.4184
11
37.0372
21
-69.1888
0
LINE
8
BLACK
6
CONTINUOUS
10
37.0372
20
-69.1888
11
37.2968
21
-69.0389
0
LINE
8
BLACK
6
CONTINUOUS
10
37.2968
20
-69.0389
11
37.5176
21
-69
0
LINE
8
BLACK
6
CONTINUOUS
10
37.5176
20
-69
11
37.6664
21
-69
0
LINE
8
BLACK
6
CONTINUOUS
10
37.6664
20
-69
11
37.8872
21
-69.0389
0
LINE
8
BLACK
6
CONTINUOUS
10
35.3472
20
-69.0389
11
35.6068
21
-69.1888
0
LINE
8
BLACK
6
CONTINUOUS
10
35.6068
20
-69.1888
11
35.7995
21
-69.4184
0
LINE
8
BLACK
6
CONTINUOUS
10
35.7995
20
-69.4184
11
35.902
21
-69.7001
0
LINE
8
BLACK
6
CONTINUOUS
10
35.902
20
-69.7001
11
35.902
21
-69.9999
0
LINE
8
BLACK
6
CONTINUOUS
10
35.902
20
-69.9999
11
35.7995
21
-70.2816
0
LINE
8
BLACK
6
CONTINUOUS
10
35.7995
20
-70.2816
11
35.6068
21
-70.5112
0
LINE
8
BLACK
6
CONTINUOUS
10
35.6068
20
-70.5112
11
35.3472
21
-70.6611
0
LINE
8
BLACK
6
CONTINUOUS
10
35.3472
20
-70.6611
11
35.1264
21
-70.7
0
LINE
8
BLACK
6
CONTINUOUS
10
35.1264
20
-70.7
11
34.9776
21
-70.7
0
LINE
8
BLACK
6
CONTINUOUS
10
34.9776
20
-70.7
11
34.7568
21
-70.6611
0
LINE
8
BLACK
6
CONTINUOUS
10
34.7568
20
-70.6611
11
34.4972
21
-70.5112
0
LINE
8
BLACK
6
CONTINUOUS
10
34.4972
20
-70.5112
11
34.3045
21
-70.2816
0
LINE
8
BLACK
6
CONTINUOUS
10
34.3045
20
-70.2816
11
34.202
21
-69.9999
0
LINE
8
BLACK
6
CONTINUOUS
10
34.202
20
-69.9999
11
34.202
21
-69.7001
0
LINE
8
BLACK
6
CONTINUOUS
10
34.202
20
-69.7001
11
34.3045
21
-69.4184
0
LINE
8
BLACK
6
CONTINUOUS
10
34.3045
20
-69.4184
11
34.4972
21
-69.1888
0
LINE
8
BLACK
6
CONTINUOUS
10
34.4972
20
-69.1888
11
34.7568
21
-69.0389
0
LINE
8
BLACK
6
CONTINUOUS
10
34.7568
20
-69.0389
11
34.9776
21
-69
0
LINE
8
BLACK
6
CONTINUOUS
10
34.9776
20
-69
11
35.1264
21
-69
0
LINE
8
BLACK
6
CONTINUOUS
10
35.1264
20
-69
11
35.3472
21
-69.0389
0
LINE
8
BLACK
6
CONTINUOUS
10
32.8072
20
-69.0389
11
33.0668
21
-69.1888
0
LINE
8
BLACK
6
CONTINUOUS
10
33.0668
20
-69.1888
11
33.2595
21
-69.4184
0
LINE
8
BLACK
6
CONTINUOUS
10
33.2595
20
-69.4184
11
33.362
21
-69.7001
0
LINE
8
BLACK
6
CONTINUOUS
10
33.362
20
-69.7001
11
33.362
21
-69.9999
0
LINE
8
BLACK
6
CONTINUOUS
10
33.362
20
-69.9999
11
33.2595
21
-70.2816
0
LINE
8
BLACK
6
CONTINUOUS
10
33.2595
20
-70.2816
11
33.0668
21
-70.5112
0
LINE
8
BLACK
6
CONTINUOUS
10
33.0668
20
-70.5112
11
32.8072
21
-70.6611
0
LINE
8
BLACK
6
CONTINUOUS
10
32.8072
20
-70.6611
11
32.5864
21
-70.7
0
LINE
8
BLACK
6
CONTINUOUS
10
32.5864
20
-70.7
11
32.4376
21
-70.7
0
LINE
8
BLACK
6
CONTINUOUS
10
32.4376
20
-70.7
11
32.2168
21
-70.6611
0
LINE
8
BLACK
6
CONTINUOUS
10
32.2168
20
-70.6611
11
31.9572
21
-70.5112
0
LINE
8
BLACK
6
CONTINUOUS
10
31.9572
20
-70.5112
11
31.7645
21
-70.2816
0
LINE
8
BLACK
6
CONTINUOUS
10
31.7645
20
-70.2816
11
31.662
21
-69.9999
0
LINE
8
BLACK
6
CONTINUOUS
10
31.662
20
-69.9999
11
31.662
21
-69.7001
0
LINE
8
BLACK
6
CONTINUOUS
10
31.662
20
-69.7001
11
31.7645
21
-69.4184
0
LINE
8
BLACK
6
CONTINUOUS
10
31.7645
20
-69.4184
11
31.9572
21
-69.1888
0
LINE
8
BLACK
6
CONTINUOUS
10
31.9572
20
-69.1888
11
32.2168
21
-69.0389
0
LINE
8
BLACK
6
CONTINUOUS
10
32.2168
20
-69.0389
11
32.4376
21
-69
0
LINE
8
BLACK
6
CONTINUOUS
10
32.4376
20
-69
11
32.5864
21
-69
0
LINE
8
BLACK
6
CONTINUOUS
10
32.5864
20
-69
11
32.8072
21
-69.0389
0
LINE
8
BLACK
6
CONTINUOUS
10
30.822
20
-70.7
11
29.122
21
-70.7
0
LINE
8
BLACK
6
CONTINUOUS
10
29.122
20
-70.7
11
29.122
21
-69
0
LINE
8
BLACK
6
CONTINUOUS
10
29.122
20
-69
11
30.822
21
-69
0
LINE
8
BLACK
6
CONTINUOUS
10
30.822
20
-69
11
30.822
21
-70.7
0
LINE
8
BLACK
6
CONTINUOUS
10
40.4098
20
-65.5306
11
40.6542
21
-65.6717
0
LINE
8
BLACK
6
CONTINUOUS
10
40.6542
20
-65.6717
11
40.8355
21
-65.8878
0
LINE
8
BLACK
6
CONTINUOUS
10
40.8355
20
-65.8878
11
40.932
21
-66.1529
0
LINE
8
BLACK
6
CONTINUOUS
10
40.932
20
-66.1529
11
40.932
21
-66.4351
0
LINE
8
BLACK
6
CONTINUOUS
10
40.932
20
-66.4351
11
40.8355
21
-66.7002
0
LINE
8
BLACK
6
CONTINUOUS
10
40.8355
20
-66.7002
11
40.6542
21
-66.9163
0
LINE
8
BLACK
6
CONTINUOUS
10
40.6542
20
-66.9163
11
40.4098
21
-67.0574
0
LINE
8
BLACK
6
CONTINUOUS
10
40.4098
20
-67.0574
11
40.202
21
-67.094
0
LINE
8
BLACK
6
CONTINUOUS
10
40.202
20
-67.094
11
40.062
21
-67.094
0
LINE
8
BLACK
6
CONTINUOUS
10
40.062
20
-67.094
11
39.8542
21
-67.0574
0
LINE
8
BLACK
6
CONTINUOUS
10
39.8542
20
-67.0574
11
39.6098
21
-66.9163
0
LINE
8
BLACK
6
CONTINUOUS
10
39.6098
20
-66.9163
11
39.4285
21
-66.7002
0
LINE
8
BLACK
6
CONTINUOUS
10
39.4285
20
-66.7002
11
39.332
21
-66.4351
0
LINE
8
BLACK
6
CONTINUOUS
10
39.332
20
-66.4351
11
39.332
21
-66.1529
0
LINE
8
BLACK
6
CONTINUOUS
10
39.332
20
-66.1529
11
39.4285
21
-65.8878
0
LINE
8
BLACK
6
CONTINUOUS
10
39.4285
20
-65.8878
11
39.6098
21
-65.6717
0
LINE
8
BLACK
6
CONTINUOUS
10
39.6098
20
-65.6717
11
39.8542
21
-65.5306
0
LINE
8
BLACK
6
CONTINUOUS
10
39.8542
20
-65.5306
11
40.062
21
-65.494
0
LINE
8
BLACK
6
CONTINUOUS
10
40.062
20
-65.494
11
40.202
21
-65.494
0
LINE
8
BLACK
6
CONTINUOUS
10
40.202
20
-65.494
11
40.4098
21
-65.5306
0
LINE
8
BLACK
6
CONTINUOUS
10
37.8698
20
-65.5306
11
38.1142
21
-65.6717
0
LINE
8
BLACK
6
CONTINUOUS
10
38.1142
20
-65.6717
11
38.2955
21
-65.8878
0
LINE
8
BLACK
6
CONTINUOUS
10
38.2955
20
-65.8878
11
38.392
21
-66.1529
0
LINE
8
BLACK
6
CONTINUOUS
10
38.392
20
-66.1529
11
38.392
21
-66.4351
0
LINE
8
BLACK
6
CONTINUOUS
10
38.392
20
-66.4351
11
38.2955
21
-66.7002
0
LINE
8
BLACK
6
CONTINUOUS
10
38.2955
20
-66.7002
11
38.1142
21
-66.9163
0
LINE
8
BLACK
6
CONTINUOUS
10
38.1142
20
-66.9163
11
37.8698
21
-67.0574
0
LINE
8
BLACK
6
CONTINUOUS
10
37.8698
20
-67.0574
11
37.662
21
-67.094
0
LINE
8
BLACK
6
CONTINUOUS
10
37.662
20
-67.094
11
37.522
21
-67.094
0
LINE
8
BLACK
6
CONTINUOUS
10
37.522
20
-67.094
11
37.3142
21
-67.0574
0
LINE
8
BLACK
6
CONTINUOUS
10
37.3142
20
-67.0574
11
37.0698
21
-66.9163
0
LINE
8
BLACK
6
CONTINUOUS
10
37.0698
20
-66.9163
11
36.8885
21
-66.7002
0
LINE
8
BLACK
6
CONTINUOUS
10
36.8885
20
-66.7002
11
36.792
21
-66.4351
0
LINE
8
BLACK
6
CONTINUOUS
10
36.792
20
-66.4351
11
36.792
21
-66.1529
0
LINE
8
BLACK
6
CONTINUOUS
10
36.792
20
-66.1529
11
36.8885
21
-65.8878
0
LINE
8
BLACK
6
CONTINUOUS
10
36.8885
20
-65.8878
11
37.0698
21
-65.6717
0
LINE
8
BLACK
6
CONTINUOUS
10
37.0698
20
-65.6717
11
37.3142
21
-65.5306
0
LINE
8
BLACK
6
CONTINUOUS
10
37.3142
20
-65.5306
11
37.522
21
-65.494
0
LINE
8
BLACK
6
CONTINUOUS
10
37.522
20
-65.494
11
37.662
21
-65.494
0
LINE
8
BLACK
6
CONTINUOUS
10
37.662
20
-65.494
11
37.8698
21
-65.5306
0
LINE
8
BLACK
6
CONTINUOUS
10
35.3298
20
-65.5306
11
35.5742
21
-65.6717
0
LINE
8
BLACK
6
CONTINUOUS
10
35.5742
20
-65.6717
11
35.7555
21
-65.8878
0
LINE
8
BLACK
6
CONTINUOUS
10
35.7555
20
-65.8878
11
35.852
21
-66.1529
0
LINE
8
BLACK
6
CONTINUOUS
10
35.852
20
-66.1529
11
35.852
21
-66.4351
0
LINE
8
BLACK
6
CONTINUOUS
10
35.852
20
-66.4351
11
35.7555
21
-66.7002
0
LINE
8
BLACK
6
CONTINUOUS
10
35.7555
20
-66.7002
11
35.5742
21
-66.9163
0
LINE
8
BLACK
6
CONTINUOUS
10
35.5742
20
-66.9163
11
35.3298
21
-67.0574
0
LINE
8
BLACK
6
CONTINUOUS
10
35.3298
20
-67.0574
11
35.122
21
-67.094
0
LINE
8
BLACK
6
CONTINUOUS
10
35.122
20
-67.094
11
34.982
21
-67.094
0
LINE
8
BLACK
6
CONTINUOUS
10
34.982
20
-67.094
11
34.7742
21
-67.0574
0
LINE
8
BLACK
6
CONTINUOUS
10
34.7742
20
-67.0574
11
34.5298
21
-66.9163
0
LINE
8
BLACK
6
CONTINUOUS
10
34.5298
20
-66.9163
11
34.3485
21
-66.7002
0
LINE
8
BLACK
6
CONTINUOUS
10
34.3485
20
-66.7002
11
34.252
21
-66.4351
0
LINE
8
BLACK
6
CONTINUOUS
10
34.252
20
-66.4351
11
34.252
21
-66.1529
0
LINE
8
BLACK
6
CONTINUOUS
10
34.252
20
-66.1529
11
34.3485
21
-65.8878
0
LINE
8
BLACK
6
CONTINUOUS
10
34.3485
20
-65.8878
11
34.5298
21
-65.6717
0
LINE
8
BLACK
6
CONTINUOUS
10
34.5298
20
-65.6717
11
34.7742
21
-65.5306
0
LINE
8
BLACK
6
CONTINUOUS
10
34.7742
20
-65.5306
11
34.982
21
-65.494
0
LINE
8
BLACK
6
CONTINUOUS
10
34.982
20
-65.494
11
35.122
21
-65.494
0
LINE
8
BLACK
6
CONTINUOUS
10
35.122
20
-65.494
11
35.3298
21
-65.5306
0
LINE
8
BLACK
6
CONTINUOUS
10
32.7898
20
-65.5306
11
33.0342
21
-65.6717
0
LINE
8
BLACK
6
CONTINUOUS
10
33.0342
20
-65.6717
11
33.2155
21
-65.8878
0
LINE
8
BLACK
6
CONTINUOUS
10
33.2155
20
-65.8878
11
33.312
21
-66.1529
0
LINE
8
BLACK
6
CONTINUOUS
10
33.312
20
-66.1529
11
33.312
21
-66.4351
0
LINE
8
BLACK
6
CONTINUOUS
10
33.312
20
-66.4351
11
33.2155
21
-66.7002
0
LINE
8
BLACK
6
CONTINUOUS
10
33.2155
20
-66.7002
11
33.0342
21
-66.9163
0
LINE
8
BLACK
6
CONTINUOUS
10
33.0342
20
-66.9163
11
32.7898
21
-67.0574
0
LINE
8
BLACK
6
CONTINUOUS
10
32.7898
20
-67.0574
11
32.582
21
-67.094
0
LINE
8
BLACK
6
CONTINUOUS
10
32.582
20
-67.094
11
32.442
21
-67.094
0
LINE
8
BLACK
6
CONTINUOUS
10
32.442
20
-67.094
11
32.2342
21
-67.0574
0
LINE
8
BLACK
6
CONTINUOUS
10
32.2342
20
-67.0574
11
31.9898
21
-66.9163
0
LINE
8
BLACK
6
CONTINUOUS
10
31.9898
20
-66.9163
11
31.8085
21
-66.7002
0
LINE
8
BLACK
6
CONTINUOUS
10
31.8085
20
-66.7002
11
31.712
21
-66.4351
0
LINE
8
BLACK
6
CONTINUOUS
10
31.712
20
-66.4351
11
31.712
21
-66.1529
0
LINE
8
BLACK
6
CONTINUOUS
10
31.712
20
-66.1529
11
31.8085
21
-65.8878
0
LINE
8
BLACK
6
CONTINUOUS
10
31.8085
20
-65.8878
11
31.9898
21
-65.6717
0
LINE
8
BLACK
6
CONTINUOUS
10
31.9898
20
-65.6717
11
32.2342
21
-65.5306
0
LINE
8
BLACK
6
CONTINUOUS
10
32.2342
20
-65.5306
11
32.442
21
-65.494
0
LINE
8
BLACK
6
CONTINUOUS
10
32.442
20
-65.494
11
32.582
21
-65.494
0
LINE
8
BLACK
6
CONTINUOUS
10
32.582
20
-65.494
11
32.7898
21
-65.5306
0
LINE
8
BLACK
6
CONTINUOUS
10
42.9498
20
-65.5306
11
43.1942
21
-65.6717
0
LINE
8
BLACK
6
CONTINUOUS
10
43.1942
20
-65.6717
11
43.3755
21
-65.8878
0
LINE
8
BLACK
6
CONTINUOUS
10
43.3755
20
-65.8878
11
43.472
21
-66.1529
0
LINE
8
BLACK
6
CONTINUOUS
10
43.472
20
-66.1529
11
43.472
21
-66.4351
0
LINE
8
BLACK
6
CONTINUOUS
10
43.472
20
-66.4351
11
43.3755
21
-66.7002
0
LINE
8
BLACK
6
CONTINUOUS
10
43.3755
20
-66.7002
11
43.1942
21
-66.9163
0
LINE
8
BLACK
6
CONTINUOUS
10
43.1942
20
-66.9163
11
42.9498
21
-67.0574
0
LINE
8
BLACK
6
CONTINUOUS
10
42.9498
20
-67.0574
11
42.742
21
-67.094
0
LINE
8
BLACK
6
CONTINUOUS
10
42.742
20
-67.094
11
42.602
21
-67.094
0
LINE
8
BLACK
6
CONTINUOUS
10
42.602
20
-67.094
11
42.3942
21
-67.0574
0
LINE
8
BLACK
6
CONTINUOUS
10
42.3942
20
-67.0574
11
42.1498
21
-66.9163
0
LINE
8
BLACK
6
CONTINUOUS
10
42.1498
20
-66.9163
11
41.9685
21
-66.7002
0
LINE
8
BLACK
6
CONTINUOUS
10
41.9685
20
-66.7002
11
41.872
21
-66.4351
0
LINE
8
BLACK
6
CONTINUOUS
10
41.872
20
-66.4351
11
41.872
21
-66.1529
0
LINE
8
BLACK
6
CONTINUOUS
10
41.872
20
-66.1529
11
41.9685
21
-65.8878
0
LINE
8
BLACK
6
CONTINUOUS
10
41.9685
20
-65.8878
11
42.1498
21
-65.6717
0
LINE
8
BLACK
6
CONTINUOUS
10
42.1498
20
-65.6717
11
42.3942
21
-65.5306
0
LINE
8
BLACK
6
CONTINUOUS
10
42.3942
20
-65.5306
11
42.602
21
-65.494
0
LINE
8
BLACK
6
CONTINUOUS
10
42.602
20
-65.494
11
42.742
21
-65.494
0
LINE
8
BLACK
6
CONTINUOUS
10
42.742
20
-65.494
11
42.9498
21
-65.5306
0
LINE
8
BLACK
6
CONTINUOUS
10
45.4898
20
-65.5306
11
45.7342
21
-65.6717
0
LINE
8
BLACK
6
CONTINUOUS
10
45.7342
20
-65.6717
11
45.9155
21
-65.8878
0
LINE
8
BLACK
6
CONTINUOUS
10
45.9155
20
-65.8878
11
46.012
21
-66.1529
0
LINE
8
BLACK
6
CONTINUOUS
10
46.012
20
-66.1529
11
46.012
21
-66.4351
0
LINE
8
BLACK
6
CONTINUOUS
10
46.012
20
-66.4351
11
45.9155
21
-66.7002
0
LINE
8
BLACK
6
CONTINUOUS
10
45.9155
20
-66.7002
11
45.7342
21
-66.9163
0
LINE
8
BLACK
6
CONTINUOUS
10
45.7342
20
-66.9163
11
45.4898
21
-67.0574
0
LINE
8
BLACK
6
CONTINUOUS
10
45.4898
20
-67.0574
11
45.282
21
-67.094
0
LINE
8
BLACK
6
CONTINUOUS
10
45.282
20
-67.094
11
45.142
21
-67.094
0
LINE
8
BLACK
6
CONTINUOUS
10
45.142
20
-67.094
11
44.9342
21
-67.0574
0
LINE
8
BLACK
6
CONTINUOUS
10
44.9342
20
-67.0574
11
44.6898
21
-66.9163
0
LINE
8
BLACK
6
CONTINUOUS
10
44.6898
20
-66.9163
11
44.5085
21
-66.7002
0
LINE
8
BLACK
6
CONTINUOUS
10
44.5085
20
-66.7002
11
44.412
21
-66.4351
0
LINE
8
BLACK
6
CONTINUOUS
10
44.412
20
-66.4351
11
44.412
21
-66.1529
0
LINE
8
BLACK
6
CONTINUOUS
10
44.412
20
-66.1529
11
44.5085
21
-65.8878
0
LINE
8
BLACK
6
CONTINUOUS
10
44.5085
20
-65.8878
11
44.6898
21
-65.6717
0
LINE
8
BLACK
6
CONTINUOUS
10
44.6898
20
-65.6717
11
44.9342
21
-65.5306
0
LINE
8
BLACK
6
CONTINUOUS
10
44.9342
20
-65.5306
11
45.142
21
-65.494
0
LINE
8
BLACK
6
CONTINUOUS
10
45.142
20
-65.494
11
45.282
21
-65.494
0
LINE
8
BLACK
6
CONTINUOUS
10
45.282
20
-65.494
11
45.4898
21
-65.5306
0
LINE
8
BLACK
6
CONTINUOUS
10
30.2498
20
-65.5306
11
30.4942
21
-65.6717
0
LINE
8
BLACK
6
CONTINUOUS
10
30.4942
20
-65.6717
11
30.6755
21
-65.8878
0
LINE
8
BLACK
6
CONTINUOUS
10
30.6755
20
-65.8878
11
30.772
21
-66.1529
0
LINE
8
BLACK
6
CONTINUOUS
10
30.772
20
-66.1529
11
30.772
21
-66.4351
0
LINE
8
BLACK
6
CONTINUOUS
10
30.772
20
-66.4351
11
30.6755
21
-66.7002
0
LINE
8
BLACK
6
CONTINUOUS
10
30.6755
20
-66.7002
11
30.4942
21
-66.9163
0
LINE
8
BLACK
6
CONTINUOUS
10
30.4942
20
-66.9163
11
30.2498
21
-67.0574
0
LINE
8
BLACK
6
CONTINUOUS
10
30.2498
20
-67.0574
11
30.042
21
-67.094
0
LINE
8
BLACK
6
CONTINUOUS
10
30.042
20
-67.094
11
29.902
21
-67.094
0
LINE
8
BLACK
6
CONTINUOUS
10
29.902
20
-67.094
11
29.6942
21
-67.0574
0
LINE
8
BLACK
6
CONTINUOUS
10
29.6942
20
-67.0574
11
29.4498
21
-66.9163
0
LINE
8
BLACK
6
CONTINUOUS
10
29.4498
20
-66.9163
11
29.2685
21
-66.7002
0
LINE
8
BLACK
6
CONTINUOUS
10
29.2685
20
-66.7002
11
29.172
21
-66.4351
0
LINE
8
BLACK
6
CONTINUOUS
10
29.172
20
-66.4351
11
29.172
21
-66.1529
0
LINE
8
BLACK
6
CONTINUOUS
10
29.172
20
-66.1529
11
29.2685
21
-65.8878
0
LINE
8
BLACK
6
CONTINUOUS
10
29.2685
20
-65.8878
11
29.4498
21
-65.6717
0
LINE
8
BLACK
6
CONTINUOUS
10
29.4498
20
-65.6717
11
29.6942
21
-65.5306
0
LINE
8
BLACK
6
CONTINUOUS
10
29.6942
20
-65.5306
11
29.902
21
-65.494
0
LINE
8
BLACK
6
CONTINUOUS
10
29.902
20
-65.494
11
30.042
21
-65.494
0
LINE
8
BLACK
6
CONTINUOUS
10
30.042
20
-65.494
11
30.2498
21
-65.5306
0
LINE
8
BLACK
6
CONTINUOUS
10
27.7098
20
-65.5306
11
27.9542
21
-65.6717
0
LINE
8
BLACK
6
CONTINUOUS
10
27.9542
20
-65.6717
11
28.1355
21
-65.8878
0
LINE
8
BLACK
6
CONTINUOUS
10
28.1355
20
-65.8878
11
28.232
21
-66.1529
0
LINE
8
BLACK
6
CONTINUOUS
10
28.232
20
-66.1529
11
28.232
21
-66.4351
0
LINE
8
BLACK
6
CONTINUOUS
10
28.232
20
-66.4351
11
28.1355
21
-66.7002
0
LINE
8
BLACK
6
CONTINUOUS
10
28.1355
20
-66.7002
11
27.9542
21
-66.9163
0
LINE
8
BLACK
6
CONTINUOUS
10
27.9542
20
-66.9163
11
27.7098
21
-67.0574
0
LINE
8
BLACK
6
CONTINUOUS
10
27.7098
20
-67.0574
11
27.502
21
-67.094
0
LINE
8
BLACK
6
CONTINUOUS
10
27.502
20
-67.094
11
27.362
21
-67.094
0
LINE
8
BLACK
6
CONTINUOUS
10
27.362
20
-67.094
11
27.1542
21
-67.0574
0
LINE
8
BLACK
6
CONTINUOUS
10
27.1542
20
-67.0574
11
26.9098
21
-66.9163
0
LINE
8
BLACK
6
CONTINUOUS
10
26.9098
20
-66.9163
11
26.7285
21
-66.7002
0
LINE
8
BLACK
6
CONTINUOUS
10
26.7285
20
-66.7002
11
26.632
21
-66.4351
0
LINE
8
BLACK
6
CONTINUOUS
10
26.632
20
-66.4351
11
26.632
21
-66.1529
0
LINE
8
BLACK
6
CONTINUOUS
10
26.632
20
-66.1529
11
26.7285
21
-65.8878
0
LINE
8
BLACK
6
CONTINUOUS
10
26.7285
20
-65.8878
11
26.9098
21
-65.6717
0
LINE
8
BLACK
6
CONTINUOUS
10
26.9098
20
-65.6717
11
27.1542
21
-65.5306
0
LINE
8
BLACK
6
CONTINUOUS
10
27.1542
20
-65.5306
11
27.362
21
-65.494
0
LINE
8
BLACK
6
CONTINUOUS
10
27.362
20
-65.494
11
27.502
21
-65.494
0
LINE
8
BLACK
6
CONTINUOUS
10
27.502
20
-65.494
11
27.7098
21
-65.5306
0
LINE
8
BLACK
6
CONTINUOUS
10
49.0111
20
-62.3241
11
49.2249
21
-62.4475
0
LINE
8
BLACK
6
CONTINUOUS
10
49.2249
20
-62.4475
11
49.3836
21
-62.6366
0
LINE
8
BLACK
6
CONTINUOUS
10
49.3836
20
-62.6366
11
49.468
21
-62.8686
0
LINE
8
BLACK
6
CONTINUOUS
10
49.468
20
-62.8686
11
49.468
21
-63.1154
0
LINE
8
BLACK
6
CONTINUOUS
10
49.468
20
-63.1154
11
49.3836
21
-63.3474
0
LINE
8
BLACK
6
CONTINUOUS
10
49.3836
20
-63.3474
11
49.2249
21
-63.5365
0
LINE
8
BLACK
6
CONTINUOUS
10
49.2249
20
-63.5365
11
49.0111
21
-63.6599
0
LINE
8
BLACK
6
CONTINUOUS
10
49.0111
20
-63.6599
11
48.768
21
-63.7028
0
LINE
8
BLACK
6
CONTINUOUS
10
48.768
20
-63.7028
11
48.5249
21
-63.6599
0
LINE
8
BLACK
6
CONTINUOUS
10
48.5249
20
-63.6599
11
48.3111
21
-63.5365
0
LINE
8
BLACK
6
CONTINUOUS
10
48.3111
20
-63.5365
11
48.1524
21
-63.3474
0
LINE
8
BLACK
6
CONTINUOUS
10
48.1524
20
-63.3474
11
48.068
21
-63.1154
0
LINE
8
BLACK
6
CONTINUOUS
10
48.068
20
-63.1154
11
48.068
21
-62.8686
0
LINE
8
BLACK
6
CONTINUOUS
10
48.068
20
-62.8686
11
48.1524
21
-62.6366
0
LINE
8
BLACK
6
CONTINUOUS
10
48.1524
20
-62.6366
11
48.3111
21
-62.4475
0
LINE
8
BLACK
6
CONTINUOUS
10
48.3111
20
-62.4475
11
48.5249
21
-62.3241
0
LINE
8
BLACK
6
CONTINUOUS
10
48.5249
20
-62.3241
11
48.768
21
-62.2812
0
LINE
8
BLACK
6
CONTINUOUS
10
48.768
20
-62.2812
11
49.0111
21
-62.3241
0
LINE
8
BLACK
6
CONTINUOUS
10
41.3911
20
-62.3241
11
41.6049
21
-62.4475
0
LINE
8
BLACK
6
CONTINUOUS
10
41.6049
20
-62.4475
11
41.7636
21
-62.6366
0
LINE
8
BLACK
6
CONTINUOUS
10
41.7636
20
-62.6366
11
41.848
21
-62.8686
0
LINE
8
BLACK
6
CONTINUOUS
10
41.848
20
-62.8686
11
41.848
21
-63.1154
0
LINE
8
BLACK
6
CONTINUOUS
10
41.848
20
-63.1154
11
41.7636
21
-63.3474
0
LINE
8
BLACK
6
CONTINUOUS
10
41.7636
20
-63.3474
11
41.6049
21
-63.5365
0
LINE
8
BLACK
6
CONTINUOUS
10
41.6049
20
-63.5365
11
41.3911
21
-63.6599
0
LINE
8
BLACK
6
CONTINUOUS
10
41.3911
20
-63.6599
11
41.2092
21
-63.692
0
LINE
8
BLACK
6
CONTINUOUS
10
41.2092
20
-63.692
11
41.0868
21
-63.692
0
LINE
8
BLACK
6
CONTINUOUS
10
41.0868
20
-63.692
11
40.9049
21
-63.6599
0
LINE
8
BLACK
6
CONTINUOUS
10
40.9049
20
-63.6599
11
40.6911
21
-63.5365
0
LINE
8
BLACK
6
CONTINUOUS
10
40.6911
20
-63.5365
11
40.5324
21
-63.3474
0
LINE
8
BLACK
6
CONTINUOUS
10
40.5324
20
-63.3474
11
40.448
21
-63.1154
0
LINE
8
BLACK
6
CONTINUOUS
10
40.448
20
-63.1154
11
40.448
21
-62.8686
0
LINE
8
BLACK
6
CONTINUOUS
10
40.448
20
-62.8686
11
40.5324
21
-62.6366
0
LINE
8
BLACK
6
CONTINUOUS
10
40.5324
20
-62.6366
11
40.6911
21
-62.4475
0
LINE
8
BLACK
6
CONTINUOUS
10
40.6911
20
-62.4475
11
40.9049
21
-62.3241
0
LINE
8
BLACK
6
CONTINUOUS
10
40.9049
20
-62.3241
11
41.0868
21
-62.292
0
LINE
8
BLACK
6
CONTINUOUS
10
41.0868
20
-62.292
11
41.2092
21
-62.292
0
LINE
8
BLACK
6
CONTINUOUS
10
41.2092
20
-62.292
11
41.3911
21
-62.3241
0
LINE
8
BLACK
6
CONTINUOUS
10
46.012
20
-59.474
11
44.412
21
-59.474
0
LINE
8
BLACK
6
CONTINUOUS
10
44.412
20
-59.474
11
44.412
21
-57.874
0
LINE
8
BLACK
6
CONTINUOUS
10
44.412
20
-57.874
11
46.012
21
-57.874
0
LINE
8
BLACK
6
CONTINUOUS
10
46.012
20
-57.874
11
46.012
21
-59.474
0
LINE
8
BLACK
6
CONTINUOUS
10
37.8698
20
-57.9106
11
38.1142
21
-58.0517
0
LINE
8
BLACK
6
CONTINUOUS
10
38.1142
20
-58.0517
11
38.2955
21
-58.2678
0
LINE
8
BLACK
6
CONTINUOUS
10
38.2955
20
-58.2678
11
38.392
21
-58.5329
0
LINE
8
BLACK
6
CONTINUOUS
10
38.392
20
-58.5329
11
38.392
21
-58.8151
0
LINE
8
BLACK
6
CONTINUOUS
10
38.392
20
-58.8151
11
38.2955
21
-59.0802
0
LINE
8
BLACK
6
CONTINUOUS
10
38.2955
20
-59.0802
11
38.1142
21
-59.2963
0
LINE
8
BLACK
6
CONTINUOUS
10
38.1142
20
-59.2963
11
37.8698
21
-59.4374
0
LINE
8
BLACK
6
CONTINUOUS
10
37.8698
20
-59.4374
11
37.662
21
-59.474
0
LINE
8
BLACK
6
CONTINUOUS
10
37.662
20
-59.474
11
37.522
21
-59.474
0
LINE
8
BLACK
6
CONTINUOUS
10
37.522
20
-59.474
11
37.3142
21
-59.4374
0
LINE
8
BLACK
6
CONTINUOUS
10
37.3142
20
-59.4374
11
37.0698
21
-59.2963
0
LINE
8
BLACK
6
CONTINUOUS
10
37.0698
20
-59.2963
11
36.8885
21
-59.0802
0
LINE
8
BLACK
6
CONTINUOUS
10
36.8885
20
-59.0802
11
36.792
21
-58.8151
0
LINE
8
BLACK
6
CONTINUOUS
10
36.792
20
-58.8151
11
36.792
21
-58.5329
0
LINE
8
BLACK
6
CONTINUOUS
10
36.792
20
-58.5329
11
36.8885
21
-58.2678
0
LINE
8
BLACK
6
CONTINUOUS
10
36.8885
20
-58.2678
11
37.0698
21
-58.0517
0
LINE
8
BLACK
6
CONTINUOUS
10
37.0698
20
-58.0517
11
37.3142
21
-57.9106
0
LINE
8
BLACK
6
CONTINUOUS
10
37.3142
20
-57.9106
11
37.522
21
-57.874
0
LINE
8
BLACK
6
CONTINUOUS
10
37.522
20
-57.874
11
37.662
21
-57.874
0
LINE
8
BLACK
6
CONTINUOUS
10
37.662
20
-57.874
11
37.8698
21
-57.9106
0
LINE
8
BLACK
6
CONTINUOUS
10
40.4098
20
-57.9106
11
40.6542
21
-58.0517
0
LINE
8
BLACK
6
CONTINUOUS
10
40.6542
20
-58.0517
11
40.8355
21
-58.2678
0
LINE
8
BLACK
6
CONTINUOUS
10
40.8355
20
-58.2678
11
40.932
21
-58.5329
0
LINE
8
BLACK
6
CONTINUOUS
10
40.932
20
-58.5329
11
40.932
21
-58.8151
0
LINE
8
BLACK
6
CONTINUOUS
10
40.932
20
-58.8151
11
40.8355
21
-59.0802
0
LINE
8
BLACK
6
CONTINUOUS
10
40.8355
20
-59.0802
11
40.6542
21
-59.2963
0
LINE
8
BLACK
6
CONTINUOUS
10
40.6542
20
-59.2963
11
40.4098
21
-59.4374
0
LINE
8
BLACK
6
CONTINUOUS
10
40.4098
20
-59.4374
11
40.202
21
-59.474
0
LINE
8
BLACK
6
CONTINUOUS
10
40.202
20
-59.474
11
40.062
21
-59.474
0
LINE
8
BLACK
6
CONTINUOUS
10
40.062
20
-59.474
11
39.8542
21
-59.4374
0
LINE
8
BLACK
6
CONTINUOUS
10
39.8542
20
-59.4374
11
39.6098
21
-59.2963
0
LINE
8
BLACK
6
CONTINUOUS
10
39.6098
20
-59.2963
11
39.4285
21
-59.0802
0
LINE
8
BLACK
6
CONTINUOUS
10
39.4285
20
-59.0802
11
39.332
21
-58.8151
0
LINE
8
BLACK
6
CONTINUOUS
10
39.332
20
-58.8151
11
39.332
21
-58.5329
0
LINE
8
BLACK
6
CONTINUOUS
10
39.332
20
-58.5329
11
39.4285
21
-58.2678
0
LINE
8
BLACK
6
CONTINUOUS
10
39.4285
20
-58.2678
11
39.6098
21
-58.0517
0
LINE
8
BLACK
6
CONTINUOUS
10
39.6098
20
-58.0517
11
39.8542
21
-57.9106
0
LINE
8
BLACK
6
CONTINUOUS
10
39.8542
20
-57.9106
11
40.062
21
-57.874
0
LINE
8
BLACK
6
CONTINUOUS
10
40.062
20
-57.874
11
40.202
21
-57.874
0
LINE
8
BLACK
6
CONTINUOUS
10
40.202
20
-57.874
11
40.4098
21
-57.9106
0
LINE
8
BLACK
6
CONTINUOUS
10
42.9498
20
-57.9106
11
43.1942
21
-58.0517
0
LINE
8
BLACK
6
CONTINUOUS
10
43.1942
20
-58.0517
11
43.3755
21
-58.2678
0
LINE
8
BLACK
6
CONTINUOUS
10
43.3755
20
-58.2678
11
43.472
21
-58.5329
0
LINE
8
BLACK
6
CONTINUOUS
10
43.472
20
-58.5329
11
43.472
21
-58.8151
0
LINE
8
BLACK
6
CONTINUOUS
10
43.472
20
-58.8151
11
43.3755
21
-59.0802
0
LINE
8
BLACK
6
CONTINUOUS
10
43.3755
20
-59.0802
11
43.1942
21
-59.2963
0
LINE
8
BLACK
6
CONTINUOUS
10
43.1942
20
-59.2963
11
42.9498
21
-59.4374
0
LINE
8
BLACK
6
CONTINUOUS
10
42.9498
20
-59.4374
11
42.742
21
-59.474
0
LINE
8
BLACK
6
CONTINUOUS
10
42.742
20
-59.474
11
42.602
21
-59.474
0
LINE
8
BLACK
6
CONTINUOUS
10
42.602
20
-59.474
11
42.3942
21
-59.4374
0
LINE
8
BLACK
6
CONTINUOUS
10
42.3942
20
-59.4374
11
42.1498
21
-59.2963
0
LINE
8
BLACK
6
CONTINUOUS
10
42.1498
20
-59.2963
11
41.9685
21
-59.0802
0
LINE
8
BLACK
6
CONTINUOUS
10
41.9685
20
-59.0802
11
41.872
21
-58.8151
0
LINE
8
BLACK
6
CONTINUOUS
10
41.872
20
-58.8151
11
41.872
21
-58.5329
0
LINE
8
BLACK
6
CONTINUOUS
10
41.872
20
-58.5329
11
41.9685
21
-58.2678
0
LINE
8
BLACK
6
CONTINUOUS
10
41.9685
20
-58.2678
11
42.1498
21
-58.0517
0
LINE
8
BLACK
6
CONTINUOUS
10
42.1498
20
-58.0517
11
42.3942
21
-57.9106
0
LINE
8
BLACK
6
CONTINUOUS
10
42.3942
20
-57.9106
11
42.602
21
-57.874
0
LINE
8
BLACK
6
CONTINUOUS
10
42.602
20
-57.874
11
42.742
21
-57.874
0
LINE
8
BLACK
6
CONTINUOUS
10
42.742
20
-57.874
11
42.9498
21
-57.9106
0
LINE
8
BLACK
6
CONTINUOUS
10
35.3298
20
-57.9106
11
35.5742
21
-58.0517
0
LINE
8
BLACK
6
CONTINUOUS
10
35.5742
20
-58.0517
11
35.7555
21
-58.2678
0
LINE
8
BLACK
6
CONTINUOUS
10
35.7555
20
-58.2678
11
35.852
21
-58.5329
0
LINE
8
BLACK
6
CONTINUOUS
10
35.852
20
-58.5329
11
35.852
21
-58.8151
0
LINE
8
BLACK
6
CONTINUOUS
10
35.852
20
-58.8151
11
35.7555
21
-59.0802
0
LINE
8
BLACK
6
CONTINUOUS
10
35.7555
20
-59.0802
11
35.5742
21
-59.2963
0
LINE
8
BLACK
6
CONTINUOUS
10
35.5742
20
-59.2963
11
35.3298
21
-59.4374
0
LINE
8
BLACK
6
CONTINUOUS
10
35.3298
20
-59.4374
11
35.122
21
-59.474
0
LINE
8
BLACK
6
CONTINUOUS
10
35.122
20
-59.474
11
34.982
21
-59.474
0
LINE
8
BLACK
6
CONTINUOUS
10
34.982
20
-59.474
11
34.7742
21
-59.4374
0
LINE
8
BLACK
6
CONTINUOUS
10
34.7742
20
-59.4374
11
34.5298
21
-59.2963
0
LINE
8
BLACK
6
CONTINUOUS
10
34.5298
20
-59.2963
11
34.3485
21
-59.0802
0
LINE
8
BLACK
6
CONTINUOUS
10
34.3485
20
-59.0802
11
34.252
21
-58.8151
0
LINE
8
BLACK
6
CONTINUOUS
10
34.252
20
-58.8151
11
34.252
21
-58.5329
0
LINE
8
BLACK
6
CONTINUOUS
10
34.252
20
-58.5329
11
34.3485
21
-58.2678
0
LINE
8
BLACK
6
CONTINUOUS
10
34.3485
20
-58.2678
11
34.5298
21
-58.0517
0
LINE
8
BLACK
6
CONTINUOUS
10
34.5298
20
-58.0517
11
34.7742
21
-57.9106
0
LINE
8
BLACK
6
CONTINUOUS
10
34.7742
20
-57.9106
11
34.982
21
-57.874
0
LINE
8
BLACK
6
CONTINUOUS
10
34.982
20
-57.874
11
35.122
21
-57.874
0
LINE
8
BLACK
6
CONTINUOUS
10
35.122
20
-57.874
11
35.3298
21
-57.9106
0
LINE
8
BLACK
6
CONTINUOUS
10
32.7898
20
-57.9106
11
33.0342
21
-58.0517
0
LINE
8
BLACK
6
CONTINUOUS
10
33.0342
20
-58.0517
11
33.2155
21
-58.2678
0
LINE
8
BLACK
6
CONTINUOUS
10
33.2155
20
-58.2678
11
33.312
21
-58.5329
0
LINE
8
BLACK
6
CONTINUOUS
10
33.312
20
-58.5329
11
33.312
21
-58.8151
0
LINE
8
BLACK
6
CONTINUOUS
10
33.312
20
-58.8151
11
33.2155
21
-59.0802
0
LINE
8
BLACK
6
CONTINUOUS
10
33.2155
20
-59.0802
11
33.0342
21
-59.2963
0
LINE
8
BLACK
6
CONTINUOUS
10
33.0342
20
-59.2963
11
32.7898
21
-59.4374
0
LINE
8
BLACK
6
CONTINUOUS
10
32.7898
20
-59.4374
11
32.582
21
-59.474
0
LINE
8
BLACK
6
CONTINUOUS
10
32.582
20
-59.474
11
32.442
21
-59.474
0
LINE
8
BLACK
6
CONTINUOUS
10
32.442
20
-59.474
11
32.2342
21
-59.4374
0
LINE
8
BLACK
6
CONTINUOUS
10
32.2342
20
-59.4374
11
31.9898
21
-59.2963
0
LINE
8
BLACK
6
CONTINUOUS
10
31.9898
20
-59.2963
11
31.8085
21
-59.0802
0
LINE
8
BLACK
6
CONTINUOUS
10
31.8085
20
-59.0802
11
31.712
21
-58.8151
0
LINE
8
BLACK
6
CONTINUOUS
10
31.712
20
-58.8151
11
31.712
21
-58.5329
0
LINE
8
BLACK
6
CONTINUOUS
10
31.712
20
-58.5329
11
31.8085
21
-58.2678
0
LINE
8
BLACK
6
CONTINUOUS
10
31.8085
20
-58.2678
11
31.9898
21
-58.0517
0
LINE
8
BLACK
6
CONTINUOUS
10
31.9898
20
-58.0517
11
32.2342
21
-57.9106
0
LINE
8
BLACK
6
CONTINUOUS
10
32.2342
20
-57.9106
11
32.442
21
-57.874
0
LINE
8
BLACK
6
CONTINUOUS
10
32.442
20
-57.874
11
32.582
21
-57.874
0
LINE
8
BLACK
6
CONTINUOUS
10
32.582
20
-57.874
11
32.7898
21
-57.9106
0
LINE
8
BLACK
6
CONTINUOUS
10
30.2498
20
-57.9106
11
30.4942
21
-58.0517
0
LINE
8
BLACK
6
CONTINUOUS
10
30.4942
20
-58.0517
11
30.6755
21
-58.2678
0
LINE
8
BLACK
6
CONTINUOUS
10
30.6755
20
-58.2678
11
30.772
21
-58.5329
0
LINE
8
BLACK
6
CONTINUOUS
10
30.772
20
-58.5329
11
30.772
21
-58.8151
0
LINE
8
BLACK
6
CONTINUOUS
10
30.772
20
-58.8151
11
30.6755
21
-59.0802
0
LINE
8
BLACK
6
CONTINUOUS
10
30.6755
20
-59.0802
11
30.4942
21
-59.2963
0
LINE
8
BLACK
6
CONTINUOUS
10
30.4942
20
-59.2963
11
30.2498
21
-59.4374
0
LINE
8
BLACK
6
CONTINUOUS
10
30.2498
20
-59.4374
11
30.042
21
-59.474
0
LINE
8
BLACK
6
CONTINUOUS
10
30.042
20
-59.474
11
29.902
21
-59.474
0
LINE
8
BLACK
6
CONTINUOUS
10
29.902
20
-59.474
11
29.6942
21
-59.4374
0
LINE
8
BLACK
6
CONTINUOUS
10
29.6942
20
-59.4374
11
29.4498
21
-59.2963
0
LINE
8
BLACK
6
CONTINUOUS
10
29.4498
20
-59.2963
11
29.2685
21
-59.0802
0
LINE
8
BLACK
6
CONTINUOUS
10
29.2685
20
-59.0802
11
29.172
21
-58.8151
0
LINE
8
BLACK
6
CONTINUOUS
10
29.172
20
-58.8151
11
29.172
21
-58.5329
0
LINE
8
BLACK
6
CONTINUOUS
10
29.172
20
-58.5329
11
29.2685
21
-58.2678
0
LINE
8
BLACK
6
CONTINUOUS
10
29.2685
20
-58.2678
11
29.4498
21
-58.0517
0
LINE
8
BLACK
6
CONTINUOUS
10
29.4498
20
-58.0517
11
29.6942
21
-57.9106
0
LINE
8
BLACK
6
CONTINUOUS
10
29.6942
20
-57.9106
11
29.902
21
-57.874
0
LINE
8
BLACK
6
CONTINUOUS
10
29.902
20
-57.874
11
30.042
21
-57.874
0
LINE
8
BLACK
6
CONTINUOUS
10
30.042
20
-57.874
11
30.2498
21
-57.9106
0
LINE
8
BLACK
6
CONTINUOUS
10
27.7098
20
-57.9106
11
27.9542
21
-58.0517
0
LINE
8
BLACK
6
CONTINUOUS
10
27.9542
20
-58.0517
11
28.1355
21
-58.2678
0
LINE
8
BLACK
6
CONTINUOUS
10
28.1355
20
-58.2678
11
28.232
21
-58.5329
0
LINE
8
BLACK
6
CONTINUOUS
10
28.232
20
-58.5329
11
28.232
21
-58.8151
0
LINE
8
BLACK
6
CONTINUOUS
10
28.232
20
-58.8151
11
28.1355
21
-59.0802
0
LINE
8
BLACK
6
CONTINUOUS
10
28.1355
20
-59.0802
11
27.9542
21
-59.2963
0
LINE
8
BLACK
6
CONTINUOUS
10
27.9542
20
-59.2963
11
27.7098
21
-59.4374
0
LINE
8
BLACK
6
CONTINUOUS
10
27.7098
20
-59.4374
11
27.502
21
-59.474
0
LINE
8
BLACK
6
CONTINUOUS
10
27.502
20
-59.474
11
27.362
21
-59.474
0
LINE
8
BLACK
6
CONTINUOUS
10
27.362
20
-59.474
11
27.1542
21
-59.4374
0
LINE
8
BLACK
6
CONTINUOUS
10
27.1542
20
-59.4374
11
26.9098
21
-59.2963
0
LINE
8
BLACK
6
CONTINUOUS
10
26.9098
20
-59.2963
11
26.7285
21
-59.0802
0
LINE
8
BLACK
6
CONTINUOUS
10
26.7285
20
-59.0802
11
26.632
21
-58.8151
0
LINE
8
BLACK
6
CONTINUOUS
10
26.632
20
-58.8151
11
26.632
21
-58.5329
0
LINE
8
BLACK
6
CONTINUOUS
10
26.632
20
-58.5329
11
26.7285
21
-58.2678
0
LINE
8
BLACK
6
CONTINUOUS
10
26.7285
20
-58.2678
11
26.9098
21
-58.0517
0
LINE
8
BLACK
6
CONTINUOUS
10
26.9098
20
-58.0517
11
27.1542
21
-57.9106
0
LINE
8
BLACK
6
CONTINUOUS
10
27.1542
20
-57.9106
11
27.362
21
-57.874
0
LINE
8
BLACK
6
CONTINUOUS
10
27.362
20
-57.874
11
27.502
21
-57.874
0
LINE
8
BLACK
6
CONTINUOUS
10
27.502
20
-57.874
11
27.7098
21
-57.9106
0
LINE
8
BLACK
6
CONTINUOUS
10
31.7738
20
-54.8626
11
32.0182
21
-55.0037
0
LINE
8
BLACK
6
CONTINUOUS
10
32.0182
20
-55.0037
11
32.1995
21
-55.2198
0
LINE
8
BLACK
6
CONTINUOUS
10
32.1995
20
-55.2198
11
32.296
21
-55.4849
0
LINE
8
BLACK
6
CONTINUOUS
10
32.296
20
-55.4849
11
32.296
21
-55.7671
0
LINE
8
BLACK
6
CONTINUOUS
10
32.296
20
-55.7671
11
32.1995
21
-56.0322
0
LINE
8
BLACK
6
CONTINUOUS
10
32.1995
20
-56.0322
11
32.0182
21
-56.2483
0
LINE
8
BLACK
6
CONTINUOUS
10
32.0182
20
-56.2483
11
31.7738
21
-56.3894
0
LINE
8
BLACK
6
CONTINUOUS
10
31.7738
20
-56.3894
11
31.566
21
-56.426
0
LINE
8
BLACK
6
CONTINUOUS
10
31.566
20
-56.426
11
31.426
21
-56.426
0
LINE
8
BLACK
6
CONTINUOUS
10
31.426
20
-56.426
11
31.2182
21
-56.3894
0
LINE
8
BLACK
6
CONTINUOUS
10
31.2182
20
-56.3894
11
30.9738
21
-56.2483
0
LINE
8
BLACK
6
CONTINUOUS
10
30.9738
20
-56.2483
11
30.7925
21
-56.0322
0
LINE
8
BLACK
6
CONTINUOUS
10
30.7925
20
-56.0322
11
30.696
21
-55.7671
0
LINE
8
BLACK
6
CONTINUOUS
10
30.696
20
-55.7671
11
30.696
21
-55.4849
0
LINE
8
BLACK
6
CONTINUOUS
10
30.696
20
-55.4849
11
30.7925
21
-55.2198
0
LINE
8
BLACK
6
CONTINUOUS
10
30.7925
20
-55.2198
11
30.9738
21
-55.0037
0
LINE
8
BLACK
6
CONTINUOUS
10
30.9738
20
-55.0037
11
31.2182
21
-54.8626
0
LINE
8
BLACK
6
CONTINUOUS
10
31.2182
20
-54.8626
11
31.426
21
-54.826
0
LINE
8
BLACK
6
CONTINUOUS
10
31.426
20
-54.826
11
31.566
21
-54.826
0
LINE
8
BLACK
6
CONTINUOUS
10
31.566
20
-54.826
11
31.7738
21
-54.8626
0
LINE
8
BLACK
6
CONTINUOUS
10
34.4956
20
-54.1729
11
34.74
21
-54.3139
0
LINE
8
BLACK
6
CONTINUOUS
10
34.74
20
-54.3139
11
34.9213
21
-54.53
0
LINE
8
BLACK
6
CONTINUOUS
10
34.9213
20
-54.53
11
35.0178
21
-54.7951
0
LINE
8
BLACK
6
CONTINUOUS
10
35.0178
20
-54.7951
11
35.0178
21
-55.0773
0
LINE
8
BLACK
6
CONTINUOUS
10
35.0178
20
-55.0773
11
34.9213
21
-55.3424
0
LINE
8
BLACK
6
CONTINUOUS
10
34.9213
20
-55.3424
11
34.74
21
-55.5585
0
LINE
8
BLACK
6
CONTINUOUS
10
34.74
20
-55.5585
11
34.4956
21
-55.6996
0
LINE
8
BLACK
6
CONTINUOUS
10
34.4956
20
-55.6996
11
34.2878
21
-55.7362
0
LINE
8
BLACK
6
CONTINUOUS
10
34.2878
20
-55.7362
11
34.1478
21
-55.7362
0
LINE
8
BLACK
6
CONTINUOUS
10
34.1478
20
-55.7362
11
33.94
21
-55.6996
0
LINE
8
BLACK
6
CONTINUOUS
10
33.94
20
-55.6996
11
33.6956
21
-55.5585
0
LINE
8
BLACK
6
CONTINUOUS
10
33.6956
20
-55.5585
11
33.5143
21
-55.3424
0
LINE
8
BLACK
6
CONTINUOUS
10
33.5143
20
-55.3424
11
33.4178
21
-55.0773
0
LINE
8
BLACK
6
CONTINUOUS
10
33.4178
20
-55.0773
11
33.4178
21
-54.7951
0
LINE
8
BLACK
6
CONTINUOUS
10
33.4178
20
-54.7951
11
33.5143
21
-54.53
0
LINE
8
BLACK
6
CONTINUOUS
10
33.5143
20
-54.53
11
33.6956
21
-54.3139
0
LINE
8
BLACK
6
CONTINUOUS
10
33.6956
20
-54.3139
11
33.94
21
-54.1729
0
LINE
8
BLACK
6
CONTINUOUS
10
33.94
20
-54.1729
11
34.1478
21
-54.1362
0
LINE
8
BLACK
6
CONTINUOUS
10
34.1478
20
-54.1362
11
34.2878
21
-54.1362
0
LINE
8
BLACK
6
CONTINUOUS
10
34.2878
20
-54.1362
11
34.4956
21
-54.1729
0
LINE
8
BLACK
6
CONTINUOUS
10
44.2025
20
-53.3864
11
44.4315
21
-53.5186
0
LINE
8
BLACK
6
CONTINUOUS
10
44.4315
20
-53.5186
11
44.6015
21
-53.7212
0
LINE
8
BLACK
6
CONTINUOUS
10
44.6015
20
-53.7212
11
44.692
21
-53.9698
0
LINE
8
BLACK
6
CONTINUOUS
10
44.692
20
-53.9698
11
44.692
21
-54.2342
0
LINE
8
BLACK
6
CONTINUOUS
10
44.692
20
-54.2342
11
44.6015
21
-54.4828
0
LINE
8
BLACK
6
CONTINUOUS
10
44.6015
20
-54.4828
11
44.4315
21
-54.6854
0
LINE
8
BLACK
6
CONTINUOUS
10
44.4315
20
-54.6854
11
44.2025
21
-54.8176
0
LINE
8
BLACK
6
CONTINUOUS
10
44.2025
20
-54.8176
11
43.942
21
-54.8636
0
LINE
8
BLACK
6
CONTINUOUS
10
43.942
20
-54.8636
11
43.6815
21
-54.8176
0
LINE
8
BLACK
6
CONTINUOUS
10
43.6815
20
-54.8176
11
43.4525
21
-54.6854
0
LINE
8
BLACK
6
CONTINUOUS
10
43.4525
20
-54.6854
11
43.2825
21
-54.4828
0
LINE
8
BLACK
6
CONTINUOUS
10
43.2825
20
-54.4828
11
43.192
21
-54.2342
0
LINE
8
BLACK
6
CONTINUOUS
10
43.192
20
-54.2342
11
43.192
21
-53.9698
0
LINE
8
BLACK
6
CONTINUOUS
10
43.192
20
-53.9698
11
43.2825
21
-53.7212
0
LINE
8
BLACK
6
CONTINUOUS
10
43.2825
20
-53.7212
11
43.4525
21
-53.5186
0
LINE
8
BLACK
6
CONTINUOUS
10
43.4525
20
-53.5186
11
43.6815
21
-53.3864
0
LINE
8
BLACK
6
CONTINUOUS
10
43.6815
20
-53.3864
11
43.942
21
-53.3404
0
LINE
8
BLACK
6
CONTINUOUS
10
43.942
20
-53.3404
11
44.2025
21
-53.3864
0
LINE
8
BLACK
6
CONTINUOUS
10
29.452
20
-54.852
11
27.952
21
-54.852
0
LINE
8
BLACK
6
CONTINUOUS
10
27.952
20
-54.852
11
27.952
21
-53.352
0
LINE
8
BLACK
6
CONTINUOUS
10
27.952
20
-53.352
11
29.452
21
-53.352
0
LINE
8
BLACK
6
CONTINUOUS
10
29.452
20
-53.352
11
29.452
21
-54.852
0
LINE
8
BLACK
6
CONTINUOUS
10
28.9625
20
-50.8464
11
29.1915
21
-50.9786
0
LINE
8
BLACK
6
CONTINUOUS
10
29.1915
20
-50.9786
11
29.3615
21
-51.1812
0
LINE
8
BLACK
6
CONTINUOUS
10
29.3615
20
-51.1812
11
29.452
21
-51.4298
0
LINE
8
BLACK
6
CONTINUOUS
10
29.452
20
-51.4298
11
29.452
21
-51.6942
0
LINE
8
BLACK
6
CONTINUOUS
10
29.452
20
-51.6942
11
29.3615
21
-51.9428
0
LINE
8
BLACK
6
CONTINUOUS
10
29.3615
20
-51.9428
11
29.1915
21
-52.1454
0
LINE
8
BLACK
6
CONTINUOUS
10
29.1915
20
-52.1454
11
28.9625
21
-52.2776
0
LINE
8
BLACK
6
CONTINUOUS
10
28.9625
20
-52.2776
11
28.702
21
-52.3236
0
LINE
8
BLACK
6
CONTINUOUS
10
28.702
20
-52.3236
11
28.4415
21
-52.2776
0
LINE
8
BLACK
6
CONTINUOUS
10
28.4415
20
-52.2776
11
28.2125
21
-52.1454
0
LINE
8
BLACK
6
CONTINUOUS
10
28.2125
20
-52.1454
11
28.0425
21
-51.9428
0
LINE
8
BLACK
6
CONTINUOUS
10
28.0425
20
-51.9428
11
27.952
21
-51.6942
0
LINE
8
BLACK
6
CONTINUOUS
10
27.952
20
-51.6942
11
27.952
21
-51.4298
0
LINE
8
BLACK
6
CONTINUOUS
10
27.952
20
-51.4298
11
28.0425
21
-51.1812
0
LINE
8
BLACK
6
CONTINUOUS
10
28.0425
20
-51.1812
11
28.2125
21
-50.9786
0
LINE
8
BLACK
6
CONTINUOUS
10
28.2125
20
-50.9786
11
28.4415
21
-50.8464
0
LINE
8
BLACK
6
CONTINUOUS
10
28.4415
20
-50.8464
11
28.702
21
-50.8004
0
LINE
8
BLACK
6
CONTINUOUS
10
28.702
20
-50.8004
11
28.9625
21
-50.8464
0
LINE
8
BLACK
6
CONTINUOUS
10
44.2025
20
-50.8464
11
44.4315
21
-50.9786
0
LINE
8
BLACK
6
CONTINUOUS
10
44.4315
20
-50.9786
11
44.6015
21
-51.1812
0
LINE
8
BLACK
6
CONTINUOUS
10
44.6015
20
-51.1812
11
44.692
21
-51.4298
0
LINE
8
BLACK
6
CONTINUOUS
10
44.692
20
-51.4298
11
44.692
21
-51.6942
0
LINE
8
BLACK
6
CONTINUOUS
10
44.692
20
-51.6942
11
44.6015
21
-51.9428
0
LINE
8
BLACK
6
CONTINUOUS
10
44.6015
20
-51.9428
11
44.4315
21
-52.1454
0
LINE
8
BLACK
6
CONTINUOUS
10
44.4315
20
-52.1454
11
44.2025
21
-52.2776
0
LINE
8
BLACK
6
CONTINUOUS
10
44.2025
20
-52.2776
11
43.942
21
-52.3236
0
LINE
8
BLACK
6
CONTINUOUS
10
43.942
20
-52.3236
11
43.6815
21
-52.2776
0
LINE
8
BLACK
6
CONTINUOUS
10
43.6815
20
-52.2776
11
43.4525
21
-52.1454
0
LINE
8
BLACK
6
CONTINUOUS
10
43.4525
20
-52.1454
11
43.2825
21
-51.9428
0
LINE
8
BLACK
6
CONTINUOUS
10
43.2825
20
-51.9428
11
43.192
21
-51.6942
0
LINE
8
BLACK
6
CONTINUOUS
10
43.192
20
-51.6942
11
43.192
21
-51.4298
0
LINE
8
BLACK
6
CONTINUOUS
10
43.192
20
-51.4298
11
43.2825
21
-51.1812
0
LINE
8
BLACK
6
CONTINUOUS
10
43.2825
20
-51.1812
11
43.4525
21
-50.9786
0
LINE
8
BLACK
6
CONTINUOUS
10
43.4525
20
-50.9786
11
43.6815
21
-50.8464
0
LINE
8
BLACK
6
CONTINUOUS
10
43.6815
20
-50.8464
11
43.942
21
-50.8004
0
LINE
8
BLACK
6
CONTINUOUS
10
43.942
20
-50.8004
11
44.2025
21
-50.8464
0
LINE
8
BLACK
6
CONTINUOUS
10
28.9625
20
-48.3064
11
29.1915
21
-48.4386
0
LINE
8
BLACK
6
CONTINUOUS
10
29.1915
20
-48.4386
11
29.3615
21
-48.6412
0
LINE
8
BLACK
6
CONTINUOUS
10
29.3615
20
-48.6412
11
29.452
21
-48.8898
0
LINE
8
BLACK
6
CONTINUOUS
10
29.452
20
-48.8898
11
29.452
21
-49.1542
0
LINE
8
BLACK
6
CONTINUOUS
10
29.452
20
-49.1542
11
29.3615
21
-49.4028
0
LINE
8
BLACK
6
CONTINUOUS
10
29.3615
20
-49.4028
11
29.1915
21
-49.6054
0
LINE
8
BLACK
6
CONTINUOUS
10
29.1915
20
-49.6054
11
28.9625
21
-49.7376
0
LINE
8
BLACK
6
CONTINUOUS
10
28.9625
20
-49.7376
11
28.702
21
-49.7836
0
LINE
8
BLACK
6
CONTINUOUS
10
28.702
20
-49.7836
11
28.4415
21
-49.7376
0
LINE
8
BLACK
6
CONTINUOUS
10
28.4415
20
-49.7376
11
28.2125
21
-49.6054
0
LINE
8
BLACK
6
CONTINUOUS
10
28.2125
20
-49.6054
11
28.0425
21
-49.4028
0
LINE
8
BLACK
6
CONTINUOUS
10
28.0425
20
-49.4028
11
27.952
21
-49.1542
0
LINE
8
BLACK
6
CONTINUOUS
10
27.952
20
-49.1542
11
27.952
21
-48.8898
0
LINE
8
BLACK
6
CONTINUOUS
10
27.952
20
-48.8898
11
28.0425
21
-48.6412
0
LINE
8
BLACK
6
CONTINUOUS
10
28.0425
20
-48.6412
11
28.2125
21
-48.4386
0
LINE
8
BLACK
6
CONTINUOUS
10
28.2125
20
-48.4386
11
28.4415
21
-48.3064
0
LINE
8
BLACK
6
CONTINUOUS
10
28.4415
20
-48.3064
11
28.702
21
-48.2604
0
LINE
8
BLACK
6
CONTINUOUS
10
28.702
20
-48.2604
11
28.9625
21
-48.3064
0
LINE
8
BLACK
6
CONTINUOUS
10
44.2025
20
-48.3064
11
44.4315
21
-48.4386
0
LINE
8
BLACK
6
CONTINUOUS
10
44.4315
20
-48.4386
11
44.6015
21
-48.6412
0
LINE
8
BLACK
6
CONTINUOUS
10
44.6015
20
-48.6412
11
44.692
21
-48.8898
0
LINE
8
BLACK
6
CONTINUOUS
10
44.692
20
-48.8898
11
44.692
21
-49.1542
0
LINE
8
BLACK
6
CONTINUOUS
10
44.692
20
-49.1542
11
44.6015
21
-49.4028
0
LINE
8
BLACK
6
CONTINUOUS
10
44.6015
20
-49.4028
11
44.4315
21
-49.6054
0
LINE
8
BLACK
6
CONTINUOUS
10
44.4315
20
-49.6054
11
44.2025
21
-49.7376
0
LINE
8
BLACK
6
CONTINUOUS
10
44.2025
20
-49.7376
11
43.942
21
-49.7836
0
LINE
8
BLACK
6
CONTINUOUS
10
43.942
20
-49.7836
11
43.6815
21
-49.7376
0
LINE
8
BLACK
6
CONTINUOUS
10
43.6815
20
-49.7376
11
43.4525
21
-49.6054
0
LINE
8
BLACK
6
CONTINUOUS
10
43.4525
20
-49.6054
11
43.2825
21
-49.4028
0
LINE
8
BLACK
6
CONTINUOUS
10
43.2825
20
-49.4028
11
43.192
21
-49.1542
0
LINE
8
BLACK
6
CONTINUOUS
10
43.192
20
-49.1542
11
43.192
21
-48.8898
0
LINE
8
BLACK
6
CONTINUOUS
10
43.192
20
-48.8898
11
43.2825
21
-48.6412
0
LINE
8
BLACK
6
CONTINUOUS
10
43.2825
20
-48.6412
11
43.4525
21
-48.4386
0
LINE
8
BLACK
6
CONTINUOUS
10
43.4525
20
-48.4386
11
43.6815
21
-48.3064
0
LINE
8
BLACK
6
CONTINUOUS
10
43.6815
20
-48.3064
11
43.942
21
-48.2604
0
LINE
8
BLACK
6
CONTINUOUS
10
43.942
20
-48.2604
11
44.2025
21
-48.3064
0
LINE
8
BLACK
6
CONTINUOUS
10
41.6798
20
-46.9886
11
41.9242
21
-47.1297
0
LINE
8
BLACK
6
CONTINUOUS
10
41.9242
20
-47.1297
11
42.1055
21
-47.3458
0
LINE
8
BLACK
6
CONTINUOUS
10
42.1055
20
-47.3458
11
42.202
21
-47.6109
0
LINE
8
BLACK
6
CONTINUOUS
10
42.202
20
-47.6109
11
42.202
21
-47.8931
0
LINE
8
BLACK
6
CONTINUOUS
10
42.202
20
-47.8931
11
42.1055
21
-48.1582
0
LINE
8
BLACK
6
CONTINUOUS
10
42.1055
20
-48.1582
11
41.9242
21
-48.3743
0
LINE
8
BLACK
6
CONTINUOUS
10
41.9242
20
-48.3743
11
41.6798
21
-48.5154
0
LINE
8
BLACK
6
CONTINUOUS
10
41.6798
20
-48.5154
11
41.402
21
-48.5643
0
LINE
8
BLACK
6
CONTINUOUS
10
41.402
20
-48.5643
11
41.1242
21
-48.5154
0
LINE
8
BLACK
6
CONTINUOUS
10
41.1242
20
-48.5154
11
40.8798
21
-48.3743
0
LINE
8
BLACK
6
CONTINUOUS
10
40.8798
20
-48.3743
11
40.6985
21
-48.1582
0
LINE
8
BLACK
6
CONTINUOUS
10
40.6985
20
-48.1582
11
40.602
21
-47.8931
0
LINE
8
BLACK
6
CONTINUOUS
10
40.602
20
-47.8931
11
40.602
21
-47.6109
0
LINE
8
BLACK
6
CONTINUOUS
10
40.602
20
-47.6109
11
40.6985
21
-47.3458
0
LINE
8
BLACK
6
CONTINUOUS
10
40.6985
20
-47.3458
11
40.8798
21
-47.1297
0
LINE
8
BLACK
6
CONTINUOUS
10
40.8798
20
-47.1297
11
41.1242
21
-46.9886
0
LINE
8
BLACK
6
CONTINUOUS
10
41.1242
20
-46.9886
11
41.402
21
-46.9397
0
LINE
8
BLACK
6
CONTINUOUS
10
41.402
20
-46.9397
11
41.6798
21
-46.9886
0
LINE
8
BLACK
6
CONTINUOUS
10
28.9625
20
-45.7664
11
29.1915
21
-45.8986
0
LINE
8
BLACK
6
CONTINUOUS
10
29.1915
20
-45.8986
11
29.3615
21
-46.1012
0
LINE
8
BLACK
6
CONTINUOUS
10
29.3615
20
-46.1012
11
29.452
21
-46.3498
0
LINE
8
BLACK
6
CONTINUOUS
10
29.452
20
-46.3498
11
29.452
21
-46.6142
0
LINE
8
BLACK
6
CONTINUOUS
10
29.452
20
-46.6142
11
29.3615
21
-46.8628
0
LINE
8
BLACK
6
CONTINUOUS
10
29.3615
20
-46.8628
11
29.1915
21
-47.0654
0
LINE
8
BLACK
6
CONTINUOUS
10
29.1915
20
-47.0654
11
28.9625
21
-47.1976
0
LINE
8
BLACK
6
CONTINUOUS
10
28.9625
20
-47.1976
11
28.702
21
-47.2436
0
LINE
8
BLACK
6
CONTINUOUS
10
28.702
20
-47.2436
11
28.4415
21
-47.1976
0
LINE
8
BLACK
6
CONTINUOUS
10
28.4415
20
-47.1976
11
28.2125
21
-47.0654
0
LINE
8
BLACK
6
CONTINUOUS
10
28.2125
20
-47.0654
11
28.0425
21
-46.8628
0
LINE
8
BLACK
6
CONTINUOUS
10
28.0425
20
-46.8628
11
27.952
21
-46.6142
0
LINE
8
BLACK
6
CONTINUOUS
10
27.952
20
-46.6142
11
27.952
21
-46.3498
0
LINE
8
BLACK
6
CONTINUOUS
10
27.952
20
-46.3498
11
28.0425
21
-46.1012
0
LINE
8
BLACK
6
CONTINUOUS
10
28.0425
20
-46.1012
11
28.2125
21
-45.8986
0
LINE
8
BLACK
6
CONTINUOUS
10
28.2125
20
-45.8986
11
28.4415
21
-45.7664
0
LINE
8
BLACK
6
CONTINUOUS
10
28.4415
20
-45.7664
11
28.702
21
-45.7204
0
LINE
8
BLACK
6
CONTINUOUS
10
28.702
20
-45.7204
11
28.9625
21
-45.7664
0
LINE
8
BLACK
6
CONTINUOUS
10
44.2025
20
-45.7664
11
44.4315
21
-45.8986
0
LINE
8
BLACK
6
CONTINUOUS
10
44.4315
20
-45.8986
11
44.6015
21
-46.1012
0
LINE
8
BLACK
6
CONTINUOUS
10
44.6015
20
-46.1012
11
44.692
21
-46.3498
0
LINE
8
BLACK
6
CONTINUOUS
10
44.692
20
-46.3498
11
44.692
21
-46.6142
0
LINE
8
BLACK
6
CONTINUOUS
10
44.692
20
-46.6142
11
44.6015
21
-46.8628
0
LINE
8
BLACK
6
CONTINUOUS
10
44.6015
20
-46.8628
11
44.4315
21
-47.0654
0
LINE
8
BLACK
6
CONTINUOUS
10
44.4315
20
-47.0654
11
44.2025
21
-47.1976
0
LINE
8
BLACK
6
CONTINUOUS
10
44.2025
20
-47.1976
11
43.942
21
-47.2436
0
LINE
8
BLACK
6
CONTINUOUS
10
43.942
20
-47.2436
11
43.6815
21
-47.1976
0
LINE
8
BLACK
6
CONTINUOUS
10
43.6815
20
-47.1976
11
43.4525
21
-47.0654
0
LINE
8
BLACK
6
CONTINUOUS
10
43.4525
20
-47.0654
11
43.2825
21
-46.8628
0
LINE
8
BLACK
6
CONTINUOUS
10
43.2825
20
-46.8628
11
43.192
21
-46.6142
0
LINE
8
BLACK
6
CONTINUOUS
10
43.192
20
-46.6142
11
43.192
21
-46.3498
0
LINE
8
BLACK
6
CONTINUOUS
10
43.192
20
-46.3498
11
43.2825
21
-46.1012
0
LINE
8
BLACK
6
CONTINUOUS
10
43.2825
20
-46.1012
11
43.4525
21
-45.8986
0
LINE
8
BLACK
6
CONTINUOUS
10
43.4525
20
-45.8986
11
43.6815
21
-45.7664
0
LINE
8
BLACK
6
CONTINUOUS
10
43.6815
20
-45.7664
11
43.942
21
-45.7204
0
LINE
8
BLACK
6
CONTINUOUS
10
43.942
20
-45.7204
11
44.2025
21
-45.7664
0
LINE
8
BLACK
6
CONTINUOUS
10
31.7738
20
-44.7026
11
32.0182
21
-44.8437
0
LINE
8
BLACK
6
CONTINUOUS
10
32.0182
20
-44.8437
11
32.1995
21
-45.0598
0
LINE
8
BLACK
6
CONTINUOUS
10
32.1995
20
-45.0598
11
32.296
21
-45.3249
0
LINE
8
BLACK
6
CONTINUOUS
10
32.296
20
-45.3249
11
32.296
21
-45.6071
0
LINE
8
BLACK
6
CONTINUOUS
10
32.296
20
-45.6071
11
32.1995
21
-45.8722
0
LINE
8
BLACK
6
CONTINUOUS
10
32.1995
20
-45.8722
11
32.0182
21
-46.0883
0
LINE
8
BLACK
6
CONTINUOUS
10
32.0182
20
-46.0883
11
31.7738
21
-46.2294
0
LINE
8
BLACK
6
CONTINUOUS
10
31.7738
20
-46.2294
11
31.496
21
-46.2783
0
LINE
8
BLACK
6
CONTINUOUS
10
31.496
20
-46.2783
11
31.2182
21
-46.2294
0
LINE
8
BLACK
6
CONTINUOUS
10
31.2182
20
-46.2294
11
30.9738
21
-46.0883
0
LINE
8
BLACK
6
CONTINUOUS
10
30.9738
20
-46.0883
11
30.7925
21
-45.8722
0
LINE
8
BLACK
6
CONTINUOUS
10
30.7925
20
-45.8722
11
30.696
21
-45.6071
0
LINE
8
BLACK
6
CONTINUOUS
10
30.696
20
-45.6071
11
30.696
21
-45.3249
0
LINE
8
BLACK
6
CONTINUOUS
10
30.696
20
-45.3249
11
30.7925
21
-45.0598
0
LINE
8
BLACK
6
CONTINUOUS
10
30.7925
20
-45.0598
11
30.9738
21
-44.8437
0
LINE
8
BLACK
6
CONTINUOUS
10
30.9738
20
-44.8437
11
31.2182
21
-44.7026
0
LINE
8
BLACK
6
CONTINUOUS
10
31.2182
20
-44.7026
11
31.496
21
-44.6537
0
LINE
8
BLACK
6
CONTINUOUS
10
31.496
20
-44.6537
11
31.7738
21
-44.7026
0
LINE
8
BLACK
6
CONTINUOUS
10
28.9625
20
-43.2264
11
29.1915
21
-43.3586
0
LINE
8
BLACK
6
CONTINUOUS
10
29.1915
20
-43.3586
11
29.3615
21
-43.5612
0
LINE
8
BLACK
6
CONTINUOUS
10
29.3615
20
-43.5612
11
29.452
21
-43.8098
0
LINE
8
BLACK
6
CONTINUOUS
10
29.452
20
-43.8098
11
29.452
21
-44.0742
0
LINE
8
BLACK
6
CONTINUOUS
10
29.452
20
-44.0742
11
29.3615
21
-44.3228
0
LINE
8
BLACK
6
CONTINUOUS
10
29.3615
20
-44.3228
11
29.1915
21
-44.5254
0
LINE
8
BLACK
6
CONTINUOUS
10
29.1915
20
-44.5254
11
28.9625
21
-44.6576
0
LINE
8
BLACK
6
CONTINUOUS
10
28.9625
20
-44.6576
11
28.702
21
-44.7036
0
LINE
8
BLACK
6
CONTINUOUS
10
28.702
20
-44.7036
11
28.4415
21
-44.6576
0
LINE
8
BLACK
6
CONTINUOUS
10
28.4415
20
-44.6576
11
28.2125
21
-44.5254
0
LINE
8
BLACK
6
CONTINUOUS
10
28.2125
20
-44.5254
11
28.0425
21
-44.3228
0
LINE
8
BLACK
6
CONTINUOUS
10
28.0425
20
-44.3228
11
27.952
21
-44.0742
0
LINE
8
BLACK
6
CONTINUOUS
10
27.952
20
-44.0742
11
27.952
21
-43.8098
0
LINE
8
BLACK
6
CONTINUOUS
10
27.952
20
-43.8098
11
28.0425
21
-43.5612
0
LINE
8
BLACK
6
CONTINUOUS
10
28.0425
20
-43.5612
11
28.2125
21
-43.3586
0
LINE
8
BLACK
6
CONTINUOUS
10
28.2125
20
-43.3586
11
28.4415
21
-43.2264
0
LINE
8
BLACK
6
CONTINUOUS
10
28.4415
20
-43.2264
11
28.702
21
-43.1804
0
LINE
8
BLACK
6
CONTINUOUS
10
28.702
20
-43.1804
11
28.9625
21
-43.2264
0
LINE
8
BLACK
6
CONTINUOUS
10
44.2025
20
-43.2264
11
44.4315
21
-43.3586
0
LINE
8
BLACK
6
CONTINUOUS
10
44.4315
20
-43.3586
11
44.6015
21
-43.5612
0
LINE
8
BLACK
6
CONTINUOUS
10
44.6015
20
-43.5612
11
44.692
21
-43.8098
0
LINE
8
BLACK
6
CONTINUOUS
10
44.692
20
-43.8098
11
44.692
21
-44.0742
0
LINE
8
BLACK
6
CONTINUOUS
10
44.692
20
-44.0742
11
44.6015
21
-44.3228
0
LINE
8
BLACK
6
CONTINUOUS
10
44.6015
20
-44.3228
11
44.4315
21
-44.5254
0
LINE
8
BLACK
6
CONTINUOUS
10
44.4315
20
-44.5254
11
44.2025
21
-44.6576
0
LINE
8
BLACK
6
CONTINUOUS
10
44.2025
20
-44.6576
11
43.942
21
-44.7036
0
LINE
8
BLACK
6
CONTINUOUS
10
43.942
20
-44.7036
11
43.6815
21
-44.6576
0
LINE
8
BLACK
6
CONTINUOUS
10
43.6815
20
-44.6576
11
43.4525
21
-44.5254
0
LINE
8
BLACK
6
CONTINUOUS
10
43.4525
20
-44.5254
11
43.2825
21
-44.3228
0
LINE
8
BLACK
6
CONTINUOUS
10
43.2825
20
-44.3228
11
43.192
21
-44.0742
0
LINE
8
BLACK
6
CONTINUOUS
10
43.192
20
-44.0742
11
43.192
21
-43.8098
0
LINE
8
BLACK
6
CONTINUOUS
10
43.192
20
-43.8098
11
43.2825
21
-43.5612
0
LINE
8
BLACK
6
CONTINUOUS
10
43.2825
20
-43.5612
11
43.4525
21
-43.3586
0
LINE
8
BLACK
6
CONTINUOUS
10
43.4525
20
-43.3586
11
43.6815
21
-43.2264
0
LINE
8
BLACK
6
CONTINUOUS
10
43.6815
20
-43.2264
11
43.942
21
-43.1804
0
LINE
8
BLACK
6
CONTINUOUS
10
43.942
20
-43.1804
11
44.2025
21
-43.2264
0
LINE
8
BLACK
6
CONTINUOUS
10
28.9625
20
-40.6864
11
29.1915
21
-40.8186
0
LINE
8
BLACK
6
CONTINUOUS
10
29.1915
20
-40.8186
11
29.3615
21
-41.0212
0
LINE
8
BLACK
6
CONTINUOUS
10
29.3615
20
-41.0212
11
29.452
21
-41.2698
0
LINE
8
BLACK
6
CONTINUOUS
10
29.452
20
-41.2698
11
29.452
21
-41.5342
0
LINE
8
BLACK
6
CONTINUOUS
10
29.452
20
-41.5342
11
29.3615
21
-41.7828
0
LINE
8
BLACK
6
CONTINUOUS
10
29.3615
20
-41.7828
11
29.1915
21
-41.9854
0
LINE
8
BLACK
6
CONTINUOUS
10
29.1915
20
-41.9854
11
28.9625
21
-42.1176
0
LINE
8
BLACK
6
CONTINUOUS
10
28.9625
20
-42.1176
11
28.702
21
-42.1636
0
LINE
8
BLACK
6
CONTINUOUS
10
28.702
20
-42.1636
11
28.4415
21
-42.1176
0
LINE
8
BLACK
6
CONTINUOUS
10
28.4415
20
-42.1176
11
28.2125
21
-41.9854
0
LINE
8
BLACK
6
CONTINUOUS
10
28.2125
20
-41.9854
11
28.0425
21
-41.7828
0
LINE
8
BLACK
6
CONTINUOUS
10
28.0425
20
-41.7828
11
27.952
21
-41.5342
0
LINE
8
BLACK
6
CONTINUOUS
10
27.952
20
-41.5342
11
27.952
21
-41.2698
0
LINE
8
BLACK
6
CONTINUOUS
10
27.952
20
-41.2698
11
28.0425
21
-41.0212
0
LINE
8
BLACK
6
CONTINUOUS
10
28.0425
20
-41.0212
11
28.2125
21
-40.8186
0
LINE
8
BLACK
6
CONTINUOUS
10
28.2125
20
-40.8186
11
28.4415
21
-40.6864
0
LINE
8
BLACK
6
CONTINUOUS
10
28.4415
20
-40.6864
11
28.702
21
-40.6404
0
LINE
8
BLACK
6
CONTINUOUS
10
28.702
20
-40.6404
11
28.9625
21
-40.6864
0
LINE
8
BLACK
6
CONTINUOUS
10
44.2025
20
-40.6864
11
44.4315
21
-40.8186
0
LINE
8
BLACK
6
CONTINUOUS
10
44.4315
20
-40.8186
11
44.6015
21
-41.0212
0
LINE
8
BLACK
6
CONTINUOUS
10
44.6015
20
-41.0212
11
44.692
21
-41.2698
0
LINE
8
BLACK
6
CONTINUOUS
10
44.692
20
-41.2698
11
44.692
21
-41.5342
0
LINE
8
BLACK
6
CONTINUOUS
10
44.692
20
-41.5342
11
44.6015
21
-41.7828
0
LINE
8
BLACK
6
CONTINUOUS
10
44.6015
20
-41.7828
11
44.4315
21
-41.9854
0
LINE
8
BLACK
6
CONTINUOUS
10
44.4315
20
-41.9854
11
44.2025
21
-42.1176
0
LINE
8
BLACK
6
CONTINUOUS
10
44.2025
20
-42.1176
11
43.942
21
-42.1636
0
LINE
8
BLACK
6
CONTINUOUS
10
43.942
20
-42.1636
11
43.6815
21
-42.1176
0
LINE
8
BLACK
6
CONTINUOUS
10
43.6815
20
-42.1176
11
43.4525
21
-41.9854
0
LINE
8
BLACK
6
CONTINUOUS
10
43.4525
20
-41.9854
11
43.2825
21
-41.7828
0
LINE
8
BLACK
6
CONTINUOUS
10
43.2825
20
-41.7828
11
43.192
21
-41.5342
0
LINE
8
BLACK
6
CONTINUOUS
10
43.192
20
-41.5342
11
43.192
21
-41.2698
0
LINE
8
BLACK
6
CONTINUOUS
10
43.192
20
-41.2698
11
43.2825
21
-41.0212
0
LINE
8
BLACK
6
CONTINUOUS
10
43.2825
20
-41.0212
11
43.4525
21
-40.8186
0
LINE
8
BLACK
6
CONTINUOUS
10
43.4525
20
-40.8186
11
43.6815
21
-40.6864
0
LINE
8
BLACK
6
CONTINUOUS
10
43.6815
20
-40.6864
11
43.942
21
-40.6404
0
LINE
8
BLACK
6
CONTINUOUS
10
43.942
20
-40.6404
11
44.2025
21
-40.6864
0
LINE
8
BLACK
6
CONTINUOUS
10
28.9451
20
-36.4161
11
29.1589
21
-36.5395
0
LINE
8
BLACK
6
CONTINUOUS
10
29.1589
20
-36.5395
11
29.3176
21
-36.7286
0
LINE
8
BLACK
6
CONTINUOUS
10
29.3176
20
-36.7286
11
29.402
21
-36.9606
0
LINE
8
BLACK
6
CONTINUOUS
10
29.402
20
-36.9606
11
29.402
21
-37.2074
0
LINE
8
BLACK
6
CONTINUOUS
10
29.402
20
-37.2074
11
29.3176
21
-37.4394
0
LINE
8
BLACK
6
CONTINUOUS
10
29.3176
20
-37.4394
11
29.1589
21
-37.6285
0
LINE
8
BLACK
6
CONTINUOUS
10
29.1589
20
-37.6285
11
28.9451
21
-37.7519
0
LINE
8
BLACK
6
CONTINUOUS
10
28.9451
20
-37.7519
11
28.7632
21
-37.784
0
LINE
8
BLACK
6
CONTINUOUS
10
28.7632
20
-37.784
11
28.6408
21
-37.784
0
LINE
8
BLACK
6
CONTINUOUS
10
28.6408
20
-37.784
11
28.4589
21
-37.7519
0
LINE
8
BLACK
6
CONTINUOUS
10
28.4589
20
-37.7519
11
28.2451
21
-37.6285
0
LINE
8
BLACK
6
CONTINUOUS
10
28.2451
20
-37.6285
11
28.0864
21
-37.4394
0
LINE
8
BLACK
6
CONTINUOUS
10
28.0864
20
-37.4394
11
28.002
21
-37.2074
0
LINE
8
BLACK
6
CONTINUOUS
10
28.002
20
-37.2074
11
28.002
21
-36.9606
0
LINE
8
BLACK
6
CONTINUOUS
10
28.002
20
-36.9606
11
28.0864
21
-36.7286
0
LINE
8
BLACK
6
CONTINUOUS
10
28.0864
20
-36.7286
11
28.2451
21
-36.5395
0
LINE
8
BLACK
6
CONTINUOUS
10
28.2451
20
-36.5395
11
28.4589
21
-36.4161
0
LINE
8
BLACK
6
CONTINUOUS
10
28.4589
20
-36.4161
11
28.6408
21
-36.384
0
LINE
8
BLACK
6
CONTINUOUS
10
28.6408
20
-36.384
11
28.7632
21
-36.384
0
LINE
8
BLACK
6
CONTINUOUS
10
28.7632
20
-36.384
11
28.9451
21
-36.4161
0
LINE
8
BLACK
6
CONTINUOUS
10
31.4851
20
-36.4161
11
31.6989
21
-36.5395
0
LINE
8
BLACK
6
CONTINUOUS
10
31.6989
20
-36.5395
11
31.8576
21
-36.7286
0
LINE
8
BLACK
6
CONTINUOUS
10
31.8576
20
-36.7286
11
31.942
21
-36.9606
0
LINE
8
BLACK
6
CONTINUOUS
10
31.942
20
-36.9606
11
31.942
21
-37.2074
0
LINE
8
BLACK
6
CONTINUOUS
10
31.942
20
-37.2074
11
31.8576
21
-37.4394
0
LINE
8
BLACK
6
CONTINUOUS
10
31.8576
20
-37.4394
11
31.6989
21
-37.6285
0
LINE
8
BLACK
6
CONTINUOUS
10
31.6989
20
-37.6285
11
31.4851
21
-37.7519
0
LINE
8
BLACK
6
CONTINUOUS
10
31.4851
20
-37.7519
11
31.3032
21
-37.784
0
LINE
8
BLACK
6
CONTINUOUS
10
31.3032
20
-37.784
11
31.1808
21
-37.784
0
LINE
8
BLACK
6
CONTINUOUS
10
31.1808
20
-37.784
11
30.9989
21
-37.7519
0
LINE
8
BLACK
6
CONTINUOUS
10
30.9989
20
-37.7519
11
30.7851
21
-37.6285
0
LINE
8
BLACK
6
CONTINUOUS
10
30.7851
20
-37.6285
11
30.6264
21
-37.4394
0
LINE
8
BLACK
6
CONTINUOUS
10
30.6264
20
-37.4394
11
30.542
21
-37.2074
0
LINE
8
BLACK
6
CONTINUOUS
10
30.542
20
-37.2074
11
30.542
21
-36.9606
0
LINE
8
BLACK
6
CONTINUOUS
10
30.542
20
-36.9606
11
30.6264
21
-36.7286
0
LINE
8
BLACK
6
CONTINUOUS
10
30.6264
20
-36.7286
11
30.7851
21
-36.5395
0
LINE
8
BLACK
6
CONTINUOUS
10
30.7851
20
-36.5395
11
30.9989
21
-36.4161
0
LINE
8
BLACK
6
CONTINUOUS
10
30.9989
20
-36.4161
11
31.1808
21
-36.384
0
LINE
8
BLACK
6
CONTINUOUS
10
31.1808
20
-36.384
11
31.3032
21
-36.384
0
LINE
8
BLACK
6
CONTINUOUS
10
31.3032
20
-36.384
11
31.4851
21
-36.4161
0
LINE
8
BLACK
6
CONTINUOUS
10
34.0251
20
-36.4161
11
34.2389
21
-36.5395
0
LINE
8
BLACK
6
CONTINUOUS
10
34.2389
20
-36.5395
11
34.3976
21
-36.7286
0
LINE
8
BLACK
6
CONTINUOUS
10
34.3976
20
-36.7286
11
34.482
21
-36.9606
0
LINE
8
BLACK
6
CONTINUOUS
10
34.482
20
-36.9606
11
34.482
21
-37.2074
0
LINE
8
BLACK
6
CONTINUOUS
10
34.482
20
-37.2074
11
34.3976
21
-37.4394
0
LINE
8
BLACK
6
CONTINUOUS
10
34.3976
20
-37.4394
11
34.2389
21
-37.6285
0
LINE
8
BLACK
6
CONTINUOUS
10
34.2389
20
-37.6285
11
34.0251
21
-37.7519
0
LINE
8
BLACK
6
CONTINUOUS
10
34.0251
20
-37.7519
11
33.8432
21
-37.784
0
LINE
8
BLACK
6
CONTINUOUS
10
33.8432
20
-37.784
11
33.7208
21
-37.784
0
LINE
8
BLACK
6
CONTINUOUS
10
33.7208
20
-37.784
11
33.5389
21
-37.7519
0
LINE
8
BLACK
6
CONTINUOUS
10
33.5389
20
-37.7519
11
33.3251
21
-37.6285
0
LINE
8
BLACK
6
CONTINUOUS
10
33.3251
20
-37.6285
11
33.1664
21
-37.4394
0
LINE
8
BLACK
6
CONTINUOUS
10
33.1664
20
-37.4394
11
33.082
21
-37.2074
0
LINE
8
BLACK
6
CONTINUOUS
10
33.082
20
-37.2074
11
33.082
21
-36.9606
0
LINE
8
BLACK
6
CONTINUOUS
10
33.082
20
-36.9606
11
33.1664
21
-36.7286
0
LINE
8
BLACK
6
CONTINUOUS
10
33.1664
20
-36.7286
11
33.3251
21
-36.5395
0
LINE
8
BLACK
6
CONTINUOUS
10
33.3251
20
-36.5395
11
33.5389
21
-36.4161
0
LINE
8
BLACK
6
CONTINUOUS
10
33.5389
20
-36.4161
11
33.7208
21
-36.384
0
LINE
8
BLACK
6
CONTINUOUS
10
33.7208
20
-36.384
11
33.8432
21
-36.384
0
LINE
8
BLACK
6
CONTINUOUS
10
33.8432
20
-36.384
11
34.0251
21
-36.4161
0
LINE
8
BLACK
6
CONTINUOUS
10
36.5651
20
-36.4161
11
36.7789
21
-36.5395
0
LINE
8
BLACK
6
CONTINUOUS
10
36.7789
20
-36.5395
11
36.9376
21
-36.7286
0
LINE
8
BLACK
6
CONTINUOUS
10
36.9376
20
-36.7286
11
37.022
21
-36.9606
0
LINE
8
BLACK
6
CONTINUOUS
10
37.022
20
-36.9606
11
37.022
21
-37.2074
0
LINE
8
BLACK
6
CONTINUOUS
10
37.022
20
-37.2074
11
36.9376
21
-37.4394
0
LINE
8
BLACK
6
CONTINUOUS
10
36.9376
20
-37.4394
11
36.7789
21
-37.6285
0
LINE
8
BLACK
6
CONTINUOUS
10
36.7789
20
-37.6285
11
36.5651
21
-37.7519
0
LINE
8
BLACK
6
CONTINUOUS
10
36.5651
20
-37.7519
11
36.3832
21
-37.784
0
LINE
8
BLACK
6
CONTINUOUS
10
36.3832
20
-37.784
11
36.2608
21
-37.784
0
LINE
8
BLACK
6
CONTINUOUS
10
36.2608
20
-37.784
11
36.0789
21
-37.7519
0
LINE
8
BLACK
6
CONTINUOUS
10
36.0789
20
-37.7519
11
35.8651
21
-37.6285
0
LINE
8
BLACK
6
CONTINUOUS
10
35.8651
20
-37.6285
11
35.7064
21
-37.4394
0
LINE
8
BLACK
6
CONTINUOUS
10
35.7064
20
-37.4394
11
35.622
21
-37.2074
0
LINE
8
BLACK
6
CONTINUOUS
10
35.622
20
-37.2074
11
35.622
21
-36.9606
0
LINE
8
BLACK
6
CONTINUOUS
10
35.622
20
-36.9606
11
35.7064
21
-36.7286
0
LINE
8
BLACK
6
CONTINUOUS
10
35.7064
20
-36.7286
11
35.8651
21
-36.5395
0
LINE
8
BLACK
6
CONTINUOUS
10
35.8651
20
-36.5395
11
36.0789
21
-36.4161
0
LINE
8
BLACK
6
CONTINUOUS
10
36.0789
20
-36.4161
11
36.2608
21
-36.384
0
LINE
8
BLACK
6
CONTINUOUS
10
36.2608
20
-36.384
11
36.3832
21
-36.384
0
LINE
8
BLACK
6
CONTINUOUS
10
36.3832
20
-36.384
11
36.5651
21
-36.4161
0
LINE
8
BLACK
6
CONTINUOUS
10
31.4851
20
-28.7961
11
31.6989
21
-28.9195
0
LINE
8
BLACK
6
CONTINUOUS
10
31.6989
20
-28.9195
11
31.8576
21
-29.1086
0
LINE
8
BLACK
6
CONTINUOUS
10
31.8576
20
-29.1086
11
31.942
21
-29.3406
0
LINE
8
BLACK
6
CONTINUOUS
10
31.942
20
-29.3406
11
31.942
21
-29.5874
0
LINE
8
BLACK
6
CONTINUOUS
10
31.942
20
-29.5874
11
31.8576
21
-29.8194
0
LINE
8
BLACK
6
CONTINUOUS
10
31.8576
20
-29.8194
11
31.6989
21
-30.0085
0
LINE
8
BLACK
6
CONTINUOUS
10
31.6989
20
-30.0085
11
31.4851
21
-30.1319
0
LINE
8
BLACK
6
CONTINUOUS
10
31.4851
20
-30.1319
11
31.242
21
-30.1748
0
LINE
8
BLACK
6
CONTINUOUS
10
31.242
20
-30.1748
11
30.9989
21
-30.1319
0
LINE
8
BLACK
6
CONTINUOUS
10
30.9989
20
-30.1319
11
30.7851
21
-30.0085
0
LINE
8
BLACK
6
CONTINUOUS
10
30.7851
20
-30.0085
11
30.6264
21
-29.8194
0
LINE
8
BLACK
6
CONTINUOUS
10
30.6264
20
-29.8194
11
30.542
21
-29.5874
0
LINE
8
BLACK
6
CONTINUOUS
10
30.542
20
-29.5874
11
30.542
21
-29.3406
0
LINE
8
BLACK
6
CONTINUOUS
10
30.542
20
-29.3406
11
30.6264
21
-29.1086
0
LINE
8
BLACK
6
CONTINUOUS
10
30.6264
20
-29.1086
11
30.7851
21
-28.9195
0
LINE
8
BLACK
6
CONTINUOUS
10
30.7851
20
-28.9195
11
30.9989
21
-28.7961
0
LINE
8
BLACK
6
CONTINUOUS
10
30.9989
20
-28.7961
11
31.242
21
-28.7532
0
LINE
8
BLACK
6
CONTINUOUS
10
31.242
20
-28.7532
11
31.4851
21
-28.7961
0
LINE
8
BLACK
6
CONTINUOUS
10
34.0251
20
-28.7961
11
34.2389
21
-28.9195
0
LINE
8
BLACK
6
CONTINUOUS
10
34.2389
20
-28.9195
11
34.3976
21
-29.1086
0
LINE
8
BLACK
6
CONTINUOUS
10
34.3976
20
-29.1086
11
34.482
21
-29.3406
0
LINE
8
BLACK
6
CONTINUOUS
10
34.482
20
-29.3406
11
34.482
21
-29.5874
0
LINE
8
BLACK
6
CONTINUOUS
10
34.482
20
-29.5874
11
34.3976
21
-29.8194
0
LINE
8
BLACK
6
CONTINUOUS
10
34.3976
20
-29.8194
11
34.2389
21
-30.0085
0
LINE
8
BLACK
6
CONTINUOUS
10
34.2389
20
-30.0085
11
34.0251
21
-30.1319
0
LINE
8
BLACK
6
CONTINUOUS
10
34.0251
20
-30.1319
11
33.782
21
-30.1748
0
LINE
8
BLACK
6
CONTINUOUS
10
33.782
20
-30.1748
11
33.5389
21
-30.1319
0
LINE
8
BLACK
6
CONTINUOUS
10
33.5389
20
-30.1319
11
33.3251
21
-30.0085
0
LINE
8
BLACK
6
CONTINUOUS
10
33.3251
20
-30.0085
11
33.1664
21
-29.8194
0
LINE
8
BLACK
6
CONTINUOUS
10
33.1664
20
-29.8194
11
33.082
21
-29.5874
0
LINE
8
BLACK
6
CONTINUOUS
10
33.082
20
-29.5874
11
33.082
21
-29.3406
0
LINE
8
BLACK
6
CONTINUOUS
10
33.082
20
-29.3406
11
33.1664
21
-29.1086
0
LINE
8
BLACK
6
CONTINUOUS
10
33.1664
20
-29.1086
11
33.3251
21
-28.9195
0
LINE
8
BLACK
6
CONTINUOUS
10
33.3251
20
-28.9195
11
33.5389
21
-28.7961
0
LINE
8
BLACK
6
CONTINUOUS
10
33.5389
20
-28.7961
11
33.782
21
-28.7532
0
LINE
8
BLACK
6
CONTINUOUS
10
33.782
20
-28.7532
11
34.0251
21
-28.7961
0
LINE
8
BLACK
6
CONTINUOUS
10
36.5651
20
-28.7961
11
36.7789
21
-28.9195
0
LINE
8
BLACK
6
CONTINUOUS
10
36.7789
20
-28.9195
11
36.9376
21
-29.1086
0
LINE
8
BLACK
6
CONTINUOUS
10
36.9376
20
-29.1086
11
37.022
21
-29.3406
0
LINE
8
BLACK
6
CONTINUOUS
10
37.022
20
-29.3406
11
37.022
21
-29.5874
0
LINE
8
BLACK
6
CONTINUOUS
10
37.022
20
-29.5874
11
36.9376
21
-29.8194
0
LINE
8
BLACK
6
CONTINUOUS
10
36.9376
20
-29.8194
11
36.7789
21
-30.0085
0
LINE
8
BLACK
6
CONTINUOUS
10
36.7789
20
-30.0085
11
36.5651
21
-30.1319
0
LINE
8
BLACK
6
CONTINUOUS
10
36.5651
20
-30.1319
11
36.322
21
-30.1748
0
LINE
8
BLACK
6
CONTINUOUS
10
36.322
20
-30.1748
11
36.0789
21
-30.1319
0
LINE
8
BLACK
6
CONTINUOUS
10
36.0789
20
-30.1319
11
35.8651
21
-30.0085
0
LINE
8
BLACK
6
CONTINUOUS
10
35.8651
20
-30.0085
11
35.7064
21
-29.8194
0
LINE
8
BLACK
6
CONTINUOUS
10
35.7064
20
-29.8194
11
35.622
21
-29.5874
0
LINE
8
BLACK
6
CONTINUOUS
10
35.622
20
-29.5874
11
35.622
21
-29.3406
0
LINE
8
BLACK
6
CONTINUOUS
10
35.622
20
-29.3406
11
35.7064
21
-29.1086
0
LINE
8
BLACK
6
CONTINUOUS
10
35.7064
20
-29.1086
11
35.8651
21
-28.9195
0
LINE
8
BLACK
6
CONTINUOUS
10
35.8651
20
-28.9195
11
36.0789
21
-28.7961
0
LINE
8
BLACK
6
CONTINUOUS
10
36.0789
20
-28.7961
11
36.322
21
-28.7532
0
LINE
8
BLACK
6
CONTINUOUS
10
36.322
20
-28.7532
11
36.5651
21
-28.7961
0
LINE
8
BLACK
6
CONTINUOUS
10
28.9451
20
-28.7961
11
29.1589
21
-28.9195
0
LINE
8
BLACK
6
CONTINUOUS
10
29.1589
20
-28.9195
11
29.3176
21
-29.1086
0
LINE
8
BLACK
6
CONTINUOUS
10
29.3176
20
-29.1086
11
29.402
21
-29.3406
0
LINE
8
BLACK
6
CONTINUOUS
10
29.402
20
-29.3406
11
29.402
21
-29.5874
0
LINE
8
BLACK
6
CONTINUOUS
10
29.402
20
-29.5874
11
29.3176
21
-29.8194
0
LINE
8
BLACK
6
CONTINUOUS
10
29.3176
20
-29.8194
11
29.1589
21
-30.0085
0
LINE
8
BLACK
6
CONTINUOUS
10
29.1589
20
-30.0085
11
28.9451
21
-30.1319
0
LINE
8
BLACK
6
CONTINUOUS
10
28.9451
20
-30.1319
11
28.702
21
-30.1748
0
LINE
8
BLACK
6
CONTINUOUS
10
28.702
20
-30.1748
11
28.4589
21
-30.1319
0
LINE
8
BLACK
6
CONTINUOUS
10
28.4589
20
-30.1319
11
28.2451
21
-30.0085
0
LINE
8
BLACK
6
CONTINUOUS
10
28.2451
20
-30.0085
11
28.0864
21
-29.8194
0
LINE
8
BLACK
6
CONTINUOUS
10
28.0864
20
-29.8194
11
28.002
21
-29.5874
0
LINE
8
BLACK
6
CONTINUOUS
10
28.002
20
-29.5874
11
28.002
21
-29.3406
0
LINE
8
BLACK
6
CONTINUOUS
10
28.002
20
-29.3406
11
28.0864
21
-29.1086
0
LINE
8
BLACK
6
CONTINUOUS
10
28.0864
20
-29.1086
11
28.2451
21
-28.9195
0
LINE
8
BLACK
6
CONTINUOUS
10
28.2451
20
-28.9195
11
28.4589
21
-28.7961
0
LINE
8
BLACK
6
CONTINUOUS
10
28.4589
20
-28.7961
11
28.702
21
-28.7532
0
LINE
8
BLACK
6
CONTINUOUS
10
28.702
20
-28.7532
11
28.9451
21
-28.7961
0
LINE
8
BLACK
6
CONTINUOUS
10
29.552
20
-26.25
11
27.852
21
-26.25
0
LINE
8
BLACK
6
CONTINUOUS
10
27.852
20
-26.25
11
27.852
21
-24.55
0
LINE
8
BLACK
6
CONTINUOUS
10
27.852
20
-24.55
11
29.552
21
-24.55
0
LINE
8
BLACK
6
CONTINUOUS
10
29.552
20
-24.55
11
29.552
21
-26.25
0
LINE
8
BLACK
6
CONTINUOUS
10
31.5372
20
-24.5889
11
31.7968
21
-24.7388
0
LINE
8
BLACK
6
CONTINUOUS
10
31.7968
20
-24.7388
11
31.9895
21
-24.9684
0
LINE
8
BLACK
6
CONTINUOUS
10
31.9895
20
-24.9684
11
32.092
21
-25.2501
0
LINE
8
BLACK
6
CONTINUOUS
10
32.092
20
-25.2501
11
32.092
21
-25.5499
0
LINE
8
BLACK
6
CONTINUOUS
10
32.092
20
-25.5499
11
31.9895
21
-25.8316
0
LINE
8
BLACK
6
CONTINUOUS
10
31.9895
20
-25.8316
11
31.7968
21
-26.0612
0
LINE
8
BLACK
6
CONTINUOUS
10
31.7968
20
-26.0612
11
31.5372
21
-26.2111
0
LINE
8
BLACK
6
CONTINUOUS
10
31.5372
20
-26.2111
11
31.3164
21
-26.25
0
LINE
8
BLACK
6
CONTINUOUS
10
31.3164
20
-26.25
11
31.1676
21
-26.25
0
LINE
8
BLACK
6
CONTINUOUS
10
31.1676
20
-26.25
11
30.9468
21
-26.2111
0
LINE
8
BLACK
6
CONTINUOUS
10
30.9468
20
-26.2111
11
30.6872
21
-26.0612
0
LINE
8
BLACK
6
CONTINUOUS
10
30.6872
20
-26.0612
11
30.4945
21
-25.8316
0
LINE
8
BLACK
6
CONTINUOUS
10
30.4945
20
-25.8316
11
30.392
21
-25.5499
0
LINE
8
BLACK
6
CONTINUOUS
10
30.392
20
-25.5499
11
30.392
21
-25.2501
0
LINE
8
BLACK
6
CONTINUOUS
10
30.392
20
-25.2501
11
30.4945
21
-24.9684
0
LINE
8
BLACK
6
CONTINUOUS
10
30.4945
20
-24.9684
11
30.6872
21
-24.7388
0
LINE
8
BLACK
6
CONTINUOUS
10
30.6872
20
-24.7388
11
30.9468
21
-24.5889
0
LINE
8
BLACK
6
CONTINUOUS
10
30.9468
20
-24.5889
11
31.1676
21
-24.55
0
LINE
8
BLACK
6
CONTINUOUS
10
31.1676
20
-24.55
11
31.3164
21
-24.55
0
LINE
8
BLACK
6
CONTINUOUS
10
31.3164
20
-24.55
11
31.5372
21
-24.5889
0
LINE
8
BLACK
6
CONTINUOUS
10
34.0772
20
-24.5889
11
34.3368
21
-24.7388
0
LINE
8
BLACK
6
CONTINUOUS
10
34.3368
20
-24.7388
11
34.5295
21
-24.9684
0
LINE
8
BLACK
6
CONTINUOUS
10
34.5295
20
-24.9684
11
34.632
21
-25.2501
0
LINE
8
BLACK
6
CONTINUOUS
10
34.632
20
-25.2501
11
34.632
21
-25.5499
0
LINE
8
BLACK
6
CONTINUOUS
10
34.632
20
-25.5499
11
34.5295
21
-25.8316
0
LINE
8
BLACK
6
CONTINUOUS
10
34.5295
20
-25.8316
11
34.3368
21
-26.0612
0
LINE
8
BLACK
6
CONTINUOUS
10
34.3368
20
-26.0612
11
34.0772
21
-26.2111
0
LINE
8
BLACK
6
CONTINUOUS
10
34.0772
20
-26.2111
11
33.8564
21
-26.25
0
LINE
8
BLACK
6
CONTINUOUS
10
33.8564
20
-26.25
11
33.7076
21
-26.25
0
LINE
8
BLACK
6
CONTINUOUS
10
33.7076
20
-26.25
11
33.4868
21
-26.2111
0
LINE
8
BLACK
6
CONTINUOUS
10
33.4868
20
-26.2111
11
33.2272
21
-26.0612
0
LINE
8
BLACK
6
CONTINUOUS
10
33.2272
20
-26.0612
11
33.0345
21
-25.8316
0
LINE
8
BLACK
6
CONTINUOUS
10
33.0345
20
-25.8316
11
32.932
21
-25.5499
0
LINE
8
BLACK
6
CONTINUOUS
10
32.932
20
-25.5499
11
32.932
21
-25.2501
0
LINE
8
BLACK
6
CONTINUOUS
10
32.932
20
-25.2501
11
33.0345
21
-24.9684
0
LINE
8
BLACK
6
CONTINUOUS
10
33.0345
20
-24.9684
11
33.2272
21
-24.7388
0
LINE
8
BLACK
6
CONTINUOUS
10
33.2272
20
-24.7388
11
33.4868
21
-24.5889
0
LINE
8
BLACK
6
CONTINUOUS
10
33.4868
20
-24.5889
11
33.7076
21
-24.55
0
LINE
8
BLACK
6
CONTINUOUS
10
33.7076
20
-24.55
11
33.8564
21
-24.55
0
LINE
8
BLACK
6
CONTINUOUS
10
33.8564
20
-24.55
11
34.0772
21
-24.5889
0
LINE
8
BLACK
6
CONTINUOUS
10
36.6172
20
-24.5889
11
36.8768
21
-24.7388
0
LINE
8
BLACK
6
CONTINUOUS
10
36.8768
20
-24.7388
11
37.0695
21
-24.9684
0
LINE
8
BLACK
6
CONTINUOUS
10
37.0695
20
-24.9684
11
37.172
21
-25.2501
0
LINE
8
BLACK
6
CONTINUOUS
10
37.172
20
-25.2501
11
37.172
21
-25.5499
0
LINE
8
BLACK
6
CONTINUOUS
10
37.172
20
-25.5499
11
37.0695
21
-25.8316
0
LINE
8
BLACK
6
CONTINUOUS
10
37.0695
20
-25.8316
11
36.8768
21
-26.0612
0
LINE
8
BLACK
6
CONTINUOUS
10
36.8768
20
-26.0612
11
36.6172
21
-26.2111
0
LINE
8
BLACK
6
CONTINUOUS
10
36.6172
20
-26.2111
11
36.3964
21
-26.25
0
LINE
8
BLACK
6
CONTINUOUS
10
36.3964
20
-26.25
11
36.2476
21
-26.25
0
LINE
8
BLACK
6
CONTINUOUS
10
36.2476
20
-26.25
11
36.0268
21
-26.2111
0
LINE
8
BLACK
6
CONTINUOUS
10
36.0268
20
-26.2111
11
35.7672
21
-26.0612
0
LINE
8
BLACK
6
CONTINUOUS
10
35.7672
20
-26.0612
11
35.5745
21
-25.8316
0
LINE
8
BLACK
6
CONTINUOUS
10
35.5745
20
-25.8316
11
35.472
21
-25.5499
0
LINE
8
BLACK
6
CONTINUOUS
10
35.472
20
-25.5499
11
35.472
21
-25.2501
0
LINE
8
BLACK
6
CONTINUOUS
10
35.472
20
-25.2501
11
35.5745
21
-24.9684
0
LINE
8
BLACK
6
CONTINUOUS
10
35.5745
20
-24.9684
11
35.7672
21
-24.7388
0
LINE
8
BLACK
6
CONTINUOUS
10
35.7672
20
-24.7388
11
36.0268
21
-24.5889
0
LINE
8
BLACK
6
CONTINUOUS
10
36.0268
20
-24.5889
11
36.2476
21
-24.55
0
LINE
8
BLACK
6
CONTINUOUS
10
36.2476
20
-24.55
11
36.3964
21
-24.55
0
LINE
8
BLACK
6
CONTINUOUS
10
36.3964
20
-24.55
11
36.6172
21
-24.5889
0
LINE
8
BLACK
6
CONTINUOUS
10
50.166
20
-23.8424
11
50.502
21
-24.0364
0
LINE
8
BLACK
6
CONTINUOUS
10
50.502
20
-24.0364
11
50.7513
21
-24.3335
0
LINE
8
BLACK
6
CONTINUOUS
10
50.7513
20
-24.3335
11
50.884
21
-24.698
0
LINE
8
BLACK
6
CONTINUOUS
10
50.884
20
-24.698
11
50.884
21
-25.086
0
LINE
8
BLACK
6
CONTINUOUS
10
50.884
20
-25.086
11
50.7513
21
-25.4505
0
LINE
8
BLACK
6
CONTINUOUS
10
50.7513
20
-25.4505
11
50.502
21
-25.7476
0
LINE
8
BLACK
6
CONTINUOUS
10
50.502
20
-25.7476
11
50.166
21
-25.9416
0
LINE
8
BLACK
6
CONTINUOUS
10
50.166
20
-25.9416
11
49.784
21
-26.009
0
LINE
8
BLACK
6
CONTINUOUS
10
49.784
20
-26.009
11
49.402
21
-25.9416
0
LINE
8
BLACK
6
CONTINUOUS
10
49.402
20
-25.9416
11
49.066
21
-25.7476
0
LINE
8
BLACK
6
CONTINUOUS
10
49.066
20
-25.7476
11
48.8167
21
-25.4505
0
LINE
8
BLACK
6
CONTINUOUS
10
48.8167
20
-25.4505
11
48.684
21
-25.086
0
LINE
8
BLACK
6
CONTINUOUS
10
48.684
20
-25.086
11
48.684
21
-24.698
0
LINE
8
BLACK
6
CONTINUOUS
10
48.684
20
-24.698
11
48.8167
21
-24.3335
0
LINE
8
BLACK
6
CONTINUOUS
10
48.8167
20
-24.3335
11
49.066
21
-24.0364
0
LINE
8
BLACK
6
CONTINUOUS
10
49.066
20
-24.0364
11
49.402
21
-23.8424
0
LINE
8
BLACK
6
CONTINUOUS
10
49.402
20
-23.8424
11
49.784
21
-23.775
0
LINE
8
BLACK
6
CONTINUOUS
10
49.784
20
-23.775
11
50.166
21
-23.8424
0
LINE
8
BLACK
6
CONTINUOUS
10
23.242
20
-23.8424
11
23.578
21
-24.0364
0
LINE
8
BLACK
6
CONTINUOUS
10
23.578
20
-24.0364
11
23.8273
21
-24.3335
0
LINE
8
BLACK
6
CONTINUOUS
10
23.8273
20
-24.3335
11
23.96
21
-24.698
0
LINE
8
BLACK
6
CONTINUOUS
10
23.96
20
-24.698
11
23.96
21
-25.086
0
LINE
8
BLACK
6
CONTINUOUS
10
23.96
20
-25.086
11
23.8273
21
-25.4505
0
LINE
8
BLACK
6
CONTINUOUS
10
23.8273
20
-25.4505
11
23.578
21
-25.7476
0
LINE
8
BLACK
6
CONTINUOUS
10
23.578
20
-25.7476
11
23.242
21
-25.9416
0
LINE
8
BLACK
6
CONTINUOUS
10
23.242
20
-25.9416
11
22.86
21
-26.009
0
LINE
8
BLACK
6
CONTINUOUS
10
22.86
20
-26.009
11
22.478
21
-25.9416
0
LINE
8
BLACK
6
CONTINUOUS
10
22.478
20
-25.9416
11
22.142
21
-25.7476
0
LINE
8
BLACK
6
CONTINUOUS
10
22.142
20
-25.7476
11
21.8927
21
-25.4505
0
LINE
8
BLACK
6
CONTINUOUS
10
21.8927
20
-25.4505
11
21.76
21
-25.086
0
LINE
8
BLACK
6
CONTINUOUS
10
21.76
20
-25.086
11
21.76
21
-24.698
0
LINE
8
BLACK
6
CONTINUOUS
10
21.76
20
-24.698
11
21.8927
21
-24.3335
0
LINE
8
BLACK
6
CONTINUOUS
10
21.8927
20
-24.3335
11
22.142
21
-24.0364
0
LINE
8
BLACK
6
CONTINUOUS
10
22.142
20
-24.0364
11
22.478
21
-23.8424
0
LINE
8
BLACK
6
CONTINUOUS
10
22.478
20
-23.8424
11
22.86
21
-23.775
0
LINE
8
BLACK
6
CONTINUOUS
10
22.86
20
-23.775
11
23.242
21
-23.8424
  0
ENDSEC
  0
EOF
