  0
SECTION
  2
HEADER
  9
$ANGBASE
  50
0.0
  9
$ANGDIR
  70
  1
  9
$MEASUREMENT
  70
0
  0
ENDSEC
  0
SECTION
  2
TABLES
  0
TABLE
  2
LTYPE
  70
4
  0
LTYPE
  5
40F
  2
CONTINUOUS
  70
0
  3
Solid line
  72
65
  73
0
  40
0.0
  0
LTYPE
  5
410
  2
DASHDOT
 70
0
  3
Dash Dot ____ _ ____ _
 72
65
 73
4
 40
2.0
 49
1.25
 49
-0.25
 49
0.25
 49
-0.25
  0
LTYPE
  5
411
  2
DASHED
 70
0
  3
Dashed __ __ __ __ __
 72
65
 73
2
 40
0.75
 49
0.5
 49
-0.25
  0
LTYPE
  5
43B
  2
DOTTED
 70
0
  3
Dotted .  .  .  .
 72
65
 73
2
 40
0.2
 49
0.0
 49
-0.2
  0
ENDTAB
  0
TABLE
  2
STYLE
  70
4
  0
STYLE
  2
KICAD
  70
0
  40
0
  41
1
  42
1
  50
0
  71
0
  3
isocp.shx
  0
STYLE
  2
KICADB
  70
0
  40
0
  41
1
  42
1
  50
0
  71
0
  3
isocp.shx
  0
STYLE
  2
KICADI
  70
0
  40
0
  41
1
  42
1
  50
15
  71
0
  3
isocp.shx
  0
STYLE
  2
KICADBI
  70
0
  40
0
  41
1
  42
1
  50
15
  71
0
  3
isocp.shx
  0
ENDTAB
  0
TABLE
  2
LAYER
  70
30
  0
LAYER
  2
BLACK
  70
0
  62
7
  6
CONTINUOUS
  0
LAYER
  2
GRAY1
  70
0
  62
251
  6
CONTINUOUS
  0
LAYER
  2
GRAY2
  70
0
  62
8
  6
CONTINUOUS
  0
LAYER
  2
GRAY3
  70
0
  62
9
  6
CONTINUOUS
  0
LAYER
  2
WHITE
  70
0
  62
7
  6
CONTINUOUS
  0
LAYER
  2
LYELLOW
  70
0
  62
51
  6
CONTINUOUS
  0
LAYER
  2
BLUE1
  70
0
  62
178
  6
CONTINUOUS
  0
LAYER
  2
GREEN1
  70
0
  62
98
  6
CONTINUOUS
  0
LAYER
  2
CYAN1
  70
0
  62
138
  6
CONTINUOUS
  0
LAYER
  2
RED1
  70
0
  62
18
  6
CONTINUOUS
  0
LAYER
  2
MAGENTA1
  70
0
  62
228
  6
CONTINUOUS
  0
LAYER
  2
BROWN1
  70
0
  62
58
  6
CONTINUOUS
  0
LAYER
  2
BLUE2
  70
0
  62
5
  6
CONTINUOUS
  0
LAYER
  2
GREEN2
  70
0
  62
3
  6
CONTINUOUS
  0
LAYER
  2
CYAN2
  70
0
  62
4
  6
CONTINUOUS
  0
LAYER
  2
RED2
  70
0
  62
1
  6
CONTINUOUS
  0
LAYER
  2
MAGENTA2
  70
0
  62
6
  6
CONTINUOUS
  0
LAYER
  2
BROWN2
  70
0
  62
54
  6
CONTINUOUS
  0
LAYER
  2
BLUE3
  70
0
  62
171
  6
CONTINUOUS
  0
LAYER
  2
GREEN3
  70
0
  62
91
  6
CONTINUOUS
  0
LAYER
  2
CYAN3
  70
0
  62
131
  6
CONTINUOUS
  0
LAYER
  2
RED3
  70
0
  62
11
  6
CONTINUOUS
  0
LAYER
  2
MAGENTA3
  70
0
  62
221
  6
CONTINUOUS
  0
LAYER
  2
YELLOW3
  70
0
  62
2
  6
CONTINUOUS
  0
LAYER
  2
BLUE4
  70
0
  62
5
  6
CONTINUOUS
  0
LAYER
  2
GREEN4
  70
0
  62
3
  6
CONTINUOUS
  0
LAYER
  2
CYAN4
  70
0
  62
4
  6
CONTINUOUS
  0
LAYER
  2
RED4
  70
0
  62
1
  6
CONTINUOUS
  0
LAYER
  2
MAGENTA4
  70
0
  62
6
  6
CONTINUOUS
  0
LAYER
  2
YELLOW4
  70
0
  62
2
  6
CONTINUOUS
  0
ENDTAB
  0
ENDSEC
  0
SECTION
  2
ENTITIES
0
LINE
8
BLACK
6
CONTINUOUS
10
52.8805
20
-73.673
11
52.8797
21
-73.6774
0
LINE
8
BLACK
6
CONTINUOUS
10
52.8797
20
-73.6774
11
52.8775
21
-73.6812
0
LINE
8
BLACK
6
CONTINUOUS
10
52.8775
20
-73.6812
11
52.876
21
-73.6854
0
LINE
8
BLACK
6
CONTINUOUS
10
52.876
20
-73.6854
11
52.8731
21
-73.6888
0
LINE
8
BLACK
6
CONTINUOUS
10
52.8731
20
-73.6888
11
52.8709
21
-73.6926
0
LINE
8
BLACK
6
CONTINUOUS
10
52.8709
20
-73.6926
11
52.8675
21
-73.6955
0
LINE
8
BLACK
6
CONTINUOUS
10
52.8675
20
-73.6955
11
52.8646
21
-73.6989
0
LINE
8
BLACK
6
CONTINUOUS
10
52.8646
20
-73.6989
11
52.8608
21
-73.7011
0
LINE
8
BLACK
6
CONTINUOUS
10
52.8608
20
-73.7011
11
52.8574
21
-73.704
0
LINE
8
BLACK
6
CONTINUOUS
10
52.8574
20
-73.704
11
52.8532
21
-73.7055
0
LINE
8
BLACK
6
CONTINUOUS
10
52.8532
20
-73.7055
11
52.8494
21
-73.7077
0
LINE
8
BLACK
6
CONTINUOUS
10
52.8494
20
-73.7077
11
52.845
21
-73.7085
0
LINE
8
BLACK
6
CONTINUOUS
10
52.845
20
-73.7085
11
52.8408
21
-73.71
0
LINE
8
BLACK
6
CONTINUOUS
10
52.8408
20
-73.71
11
19.8032
21
-73.71
0
LINE
8
BLACK
6
CONTINUOUS
10
19.8032
20
-73.71
11
19.799
21
-73.7085
0
LINE
8
BLACK
6
CONTINUOUS
10
19.799
20
-73.7085
11
19.7946
21
-73.7077
0
LINE
8
BLACK
6
CONTINUOUS
10
19.7946
20
-73.7077
11
19.7908
21
-73.7055
0
LINE
8
BLACK
6
CONTINUOUS
10
19.7908
20
-73.7055
11
19.7866
21
-73.704
0
LINE
8
BLACK
6
CONTINUOUS
10
19.7866
20
-73.704
11
19.7832
21
-73.7011
0
LINE
8
BLACK
6
CONTINUOUS
10
19.7832
20
-73.7011
11
19.7794
21
-73.6989
0
LINE
8
BLACK
6
CONTINUOUS
10
19.7794
20
-73.6989
11
19.7765
21
-73.6955
0
LINE
8
BLACK
6
CONTINUOUS
10
19.7765
20
-73.6955
11
19.7731
21
-73.6926
0
LINE
8
BLACK
6
CONTINUOUS
10
19.7731
20
-73.6926
11
19.7709
21
-73.6888
0
LINE
8
BLACK
6
CONTINUOUS
10
19.7709
20
-73.6888
11
19.768
21
-73.6854
0
LINE
8
BLACK
6
CONTINUOUS
10
19.768
20
-73.6854
11
19.7665
21
-73.6812
0
LINE
8
BLACK
6
CONTINUOUS
10
19.7665
20
-73.6812
11
19.7643
21
-73.6774
0
LINE
8
BLACK
6
CONTINUOUS
10
19.7643
20
-73.6774
11
19.7635
21
-73.673
0
LINE
8
BLACK
6
CONTINUOUS
10
19.7635
20
-73.673
11
19.762
21
-73.6688
0
LINE
8
BLACK
6
CONTINUOUS
10
19.762
20
-73.6688
11
19.762
21
-73.6512
0
LINE
8
BLACK
6
CONTINUOUS
10
19.762
20
-73.6512
11
19.762
21
-73.6512
0
LINE
8
BLACK
6
CONTINUOUS
10
19.762
20
-73.6512
11
19.762
21
-21.8396
0
LINE
8
BLACK
6
CONTINUOUS
10
19.762
20
-21.8396
11
19.762
21
-21.8352
0
LINE
8
BLACK
6
CONTINUOUS
10
19.762
20
-21.8352
11
19.7635
21
-21.831
0
LINE
8
BLACK
6
CONTINUOUS
10
19.7635
20
-21.831
11
19.7643
21
-21.8266
0
LINE
8
BLACK
6
CONTINUOUS
10
19.7643
20
-21.8266
11
19.7665
21
-21.8228
0
LINE
8
BLACK
6
CONTINUOUS
10
19.7665
20
-21.8228
11
19.768
21
-21.8186
0
LINE
8
BLACK
6
CONTINUOUS
10
19.768
20
-21.8186
11
19.7709
21
-21.8152
0
LINE
8
BLACK
6
CONTINUOUS
10
19.7709
20
-21.8152
11
19.7731
21
-21.8114
0
LINE
8
BLACK
6
CONTINUOUS
10
19.7731
20
-21.8114
11
19.7765
21
-21.8085
0
LINE
8
BLACK
6
CONTINUOUS
10
19.7765
20
-21.8085
11
19.7794
21
-21.8051
0
LINE
8
BLACK
6
CONTINUOUS
10
19.7794
20
-21.8051
11
19.7832
21
-21.8029
0
LINE
8
BLACK
6
CONTINUOUS
10
19.7832
20
-21.8029
11
19.7866
21
-21.8
0
LINE
8
BLACK
6
CONTINUOUS
10
19.7866
20
-21.8
11
19.7908
21
-21.7985
0
LINE
8
BLACK
6
CONTINUOUS
10
19.7908
20
-21.7985
11
19.7946
21
-21.7963
0
LINE
8
BLACK
6
CONTINUOUS
10
19.7946
20
-21.7963
11
19.799
21
-21.7955
0
LINE
8
BLACK
6
CONTINUOUS
10
19.799
20
-21.7955
11
19.8032
21
-21.794
0
LINE
8
BLACK
6
CONTINUOUS
10
19.8032
20
-21.794
11
52.8408
21
-21.794
0
LINE
8
BLACK
6
CONTINUOUS
10
52.8408
20
-21.794
11
52.845
21
-21.7955
0
LINE
8
BLACK
6
CONTINUOUS
10
52.845
20
-21.7955
11
52.8494
21
-21.7963
0
LINE
8
BLACK
6
CONTINUOUS
10
52.8494
20
-21.7963
11
52.8532
21
-21.7985
0
LINE
8
BLACK
6
CONTINUOUS
10
52.8532
20
-21.7985
11
52.8574
21
-21.8
0
LINE
8
BLACK
6
CONTINUOUS
10
52.8574
20
-21.8
11
52.8608
21
-21.8029
0
LINE
8
BLACK
6
CONTINUOUS
10
52.8608
20
-21.8029
11
52.8646
21
-21.8051
0
LINE
8
BLACK
6
CONTINUOUS
10
52.8646
20
-21.8051
11
52.8675
21
-21.8085
0
LINE
8
BLACK
6
CONTINUOUS
10
52.8675
20
-21.8085
11
52.8709
21
-21.8114
0
LINE
8
BLACK
6
CONTINUOUS
10
52.8709
20
-21.8114
11
52.8731
21
-21.8152
0
LINE
8
BLACK
6
CONTINUOUS
10
52.8731
20
-21.8152
11
52.876
21
-21.8186
0
LINE
8
BLACK
6
CONTINUOUS
10
52.876
20
-21.8186
11
52.8775
21
-21.8228
0
LINE
8
BLACK
6
CONTINUOUS
10
52.8775
20
-21.8228
11
52.8797
21
-21.8266
0
LINE
8
BLACK
6
CONTINUOUS
10
52.8797
20
-21.8266
11
52.8805
21
-21.831
0
LINE
8
BLACK
6
CONTINUOUS
10
52.8805
20
-21.831
11
52.882
21
-21.8352
0
LINE
8
BLACK
6
CONTINUOUS
10
52.882
20
-21.8352
11
52.882
21
-73.6688
0
LINE
8
BLACK
6
CONTINUOUS
10
52.882
20
-73.6688
11
52.8805
21
-73.673
0
LINE
8
BLACK
6
CONTINUOUS
10
19.862
20
-73.61
11
52.782
21
-73.61
0
LINE
8
BLACK
6
CONTINUOUS
10
52.782
20
-73.61
11
52.782
21
-21.894
0
LINE
8
BLACK
6
CONTINUOUS
10
52.782
20
-21.894
11
19.862
21
-21.894
0
LINE
8
BLACK
6
CONTINUOUS
10
19.862
20
-21.894
11
19.862
21
-73.61
  0
ENDSEC
  0
EOF
