  0
SECTION
  2
HEADER
  9
$ANGBASE
  50
0.0
  9
$ANGDIR
  70
  1
  9
$MEASUREMENT
  70
0
  0
ENDSEC
  0
SECTION
  2
TABLES
  0
TABLE
  2
LTYPE
  70
4
  0
LTYPE
  5
40F
  2
CONTINUOUS
  70
0
  3
Solid line
  72
65
  73
0
  40
0.0
  0
LTYPE
  5
410
  2
DASHDOT
 70
0
  3
Dash Dot ____ _ ____ _
 72
65
 73
4
 40
2.0
 49
1.25
 49
-0.25
 49
0.25
 49
-0.25
  0
LTYPE
  5
411
  2
DASHED
 70
0
  3
Dashed __ __ __ __ __
 72
65
 73
2
 40
0.75
 49
0.5
 49
-0.25
  0
LTYPE
  5
43B
  2
DOTTED
 70
0
  3
Dotted .  .  .  .
 72
65
 73
2
 40
0.2
 49
0.0
 49
-0.2
  0
ENDTAB
  0
TABLE
  2
STYLE
  70
4
  0
STYLE
  2
KICAD
  70
0
  40
0
  41
1
  42
1
  50
0
  71
0
  3
isocp.shx
  0
STYLE
  2
KICADB
  70
0
  40
0
  41
1
  42
1
  50
0
  71
0
  3
isocp.shx
  0
STYLE
  2
KICADI
  70
0
  40
0
  41
1
  42
1
  50
15
  71
0
  3
isocp.shx
  0
STYLE
  2
KICADBI
  70
0
  40
0
  41
1
  42
1
  50
15
  71
0
  3
isocp.shx
  0
ENDTAB
  0
TABLE
  2
LAYER
  70
30
  0
LAYER
  2
BLACK
  70
0
  62
7
  6
CONTINUOUS
  0
LAYER
  2
GRAY1
  70
0
  62
251
  6
CONTINUOUS
  0
LAYER
  2
GRAY2
  70
0
  62
8
  6
CONTINUOUS
  0
LAYER
  2
GRAY3
  70
0
  62
9
  6
CONTINUOUS
  0
LAYER
  2
WHITE
  70
0
  62
7
  6
CONTINUOUS
  0
LAYER
  2
LYELLOW
  70
0
  62
51
  6
CONTINUOUS
  0
LAYER
  2
BLUE1
  70
0
  62
178
  6
CONTINUOUS
  0
LAYER
  2
GREEN1
  70
0
  62
98
  6
CONTINUOUS
  0
LAYER
  2
CYAN1
  70
0
  62
138
  6
CONTINUOUS
  0
LAYER
  2
RED1
  70
0
  62
18
  6
CONTINUOUS
  0
LAYER
  2
MAGENTA1
  70
0
  62
228
  6
CONTINUOUS
  0
LAYER
  2
BROWN1
  70
0
  62
58
  6
CONTINUOUS
  0
LAYER
  2
BLUE2
  70
0
  62
5
  6
CONTINUOUS
  0
LAYER
  2
GREEN2
  70
0
  62
3
  6
CONTINUOUS
  0
LAYER
  2
CYAN2
  70
0
  62
4
  6
CONTINUOUS
  0
LAYER
  2
RED2
  70
0
  62
1
  6
CONTINUOUS
  0
LAYER
  2
MAGENTA2
  70
0
  62
6
  6
CONTINUOUS
  0
LAYER
  2
BROWN2
  70
0
  62
54
  6
CONTINUOUS
  0
LAYER
  2
BLUE3
  70
0
  62
171
  6
CONTINUOUS
  0
LAYER
  2
GREEN3
  70
0
  62
91
  6
CONTINUOUS
  0
LAYER
  2
CYAN3
  70
0
  62
131
  6
CONTINUOUS
  0
LAYER
  2
RED3
  70
0
  62
11
  6
CONTINUOUS
  0
LAYER
  2
MAGENTA3
  70
0
  62
221
  6
CONTINUOUS
  0
LAYER
  2
YELLOW3
  70
0
  62
2
  6
CONTINUOUS
  0
LAYER
  2
BLUE4
  70
0
  62
5
  6
CONTINUOUS
  0
LAYER
  2
GREEN4
  70
0
  62
3
  6
CONTINUOUS
  0
LAYER
  2
CYAN4
  70
0
  62
4
  6
CONTINUOUS
  0
LAYER
  2
RED4
  70
0
  62
1
  6
CONTINUOUS
  0
LAYER
  2
MAGENTA4
  70
0
  62
6
  6
CONTINUOUS
  0
LAYER
  2
YELLOW4
  70
0
  62
2
  6
CONTINUOUS
  0
ENDTAB
  0
ENDSEC
  0
SECTION
  2
ENTITIES
0
LINE
8
BLACK
6
CONTINUOUS
10
45.9473
20
-22.422
11
45.9526
21
-22.422
0
LINE
8
BLACK
6
CONTINUOUS
10
45.9526
20
-22.422
11
45.9576
21
-22.4238
0
LINE
8
BLACK
6
CONTINUOUS
10
45.9576
20
-22.4238
11
45.9628
21
-22.4247
0
LINE
8
BLACK
6
CONTINUOUS
10
45.9628
20
-22.4247
11
45.9675
21
-22.4274
0
LINE
8
BLACK
6
CONTINUOUS
10
45.9675
20
-22.4274
11
45.9725
21
-22.4292
0
LINE
8
BLACK
6
CONTINUOUS
10
45.9725
20
-22.4292
11
45.9765
21
-22.4327
0
LINE
8
BLACK
6
CONTINUOUS
10
45.9765
20
-22.4327
11
45.9812
21
-22.4353
0
LINE
8
BLACK
6
CONTINUOUS
10
45.9812
20
-22.4353
11
45.9846
21
-22.4394
0
LINE
8
BLACK
6
CONTINUOUS
10
45.9846
20
-22.4394
11
45.9887
21
-22.4428
0
LINE
8
BLACK
6
CONTINUOUS
10
45.9887
20
-22.4428
11
45.9913
21
-22.4475
0
LINE
8
BLACK
6
CONTINUOUS
10
45.9913
20
-22.4475
11
45.9948
21
-22.4515
0
LINE
8
BLACK
6
CONTINUOUS
10
45.9948
20
-22.4515
11
45.9966
21
-22.4565
0
LINE
8
BLACK
6
CONTINUOUS
10
45.9966
20
-22.4565
11
45.9993
21
-22.4612
0
LINE
8
BLACK
6
CONTINUOUS
10
45.9993
20
-22.4612
11
46.0002
21
-22.4664
0
LINE
8
BLACK
6
CONTINUOUS
10
46.0002
20
-22.4664
11
46.002
21
-22.4714
0
LINE
8
BLACK
6
CONTINUOUS
10
46.002
20
-22.4714
11
46.002
21
-22.4767
0
LINE
8
BLACK
6
CONTINUOUS
10
46.002
20
-22.4767
11
46.002
21
-22.4768
0
LINE
8
BLACK
6
CONTINUOUS
10
46.002
20
-22.4768
11
46.002
21
-62.012
0
LINE
8
BLACK
6
CONTINUOUS
10
46.002
20
-62.012
11
46.8832
21
-62.012
0
LINE
8
BLACK
6
CONTINUOUS
10
46.8832
20
-62.012
11
46.8833
21
-62.012
0
LINE
8
BLACK
6
CONTINUOUS
10
46.8833
20
-62.012
11
46.8886
21
-62.012
0
LINE
8
BLACK
6
CONTINUOUS
10
46.8886
20
-62.012
11
46.8936
21
-62.0138
0
LINE
8
BLACK
6
CONTINUOUS
10
46.8936
20
-62.0138
11
46.8988
21
-62.0147
0
LINE
8
BLACK
6
CONTINUOUS
10
46.8988
20
-62.0147
11
46.9035
21
-62.0174
0
LINE
8
BLACK
6
CONTINUOUS
10
46.9035
20
-62.0174
11
46.9085
21
-62.0192
0
LINE
8
BLACK
6
CONTINUOUS
10
46.9085
20
-62.0192
11
46.9125
21
-62.0227
0
LINE
8
BLACK
6
CONTINUOUS
10
46.9125
20
-62.0227
11
46.9172
21
-62.0253
0
LINE
8
BLACK
6
CONTINUOUS
10
46.9172
20
-62.0253
11
46.9206
21
-62.0294
0
LINE
8
BLACK
6
CONTINUOUS
10
46.9206
20
-62.0294
11
46.9247
21
-62.0328
0
LINE
8
BLACK
6
CONTINUOUS
10
46.9247
20
-62.0328
11
46.9273
21
-62.0375
0
LINE
8
BLACK
6
CONTINUOUS
10
46.9273
20
-62.0375
11
46.9308
21
-62.0415
0
LINE
8
BLACK
6
CONTINUOUS
10
46.9308
20
-62.0415
11
46.9326
21
-62.0465
0
LINE
8
BLACK
6
CONTINUOUS
10
46.9326
20
-62.0465
11
46.9353
21
-62.0512
0
LINE
8
BLACK
6
CONTINUOUS
10
46.9353
20
-62.0512
11
46.9362
21
-62.0564
0
LINE
8
BLACK
6
CONTINUOUS
10
46.9362
20
-62.0564
11
46.938
21
-62.0614
0
LINE
8
BLACK
6
CONTINUOUS
10
46.938
20
-62.0614
11
46.938
21
-62.0667
0
LINE
8
BLACK
6
CONTINUOUS
10
46.938
20
-62.0667
11
46.938
21
-62.0668
0
LINE
8
BLACK
6
CONTINUOUS
10
46.938
20
-62.0668
11
46.938
21
-62.932
0
LINE
8
BLACK
6
CONTINUOUS
10
46.938
20
-62.932
11
47.8332
21
-62.932
0
LINE
8
BLACK
6
CONTINUOUS
10
47.8332
20
-62.932
11
47.8488
21
-62.9347
0
LINE
8
BLACK
6
CONTINUOUS
10
47.8488
20
-62.9347
11
47.8672
21
-62.9453
0
LINE
8
BLACK
6
CONTINUOUS
10
47.8672
20
-62.9453
11
47.8808
21
-62.9615
0
LINE
8
BLACK
6
CONTINUOUS
10
47.8808
20
-62.9615
11
47.888
21
-62.9814
0
LINE
8
BLACK
6
CONTINUOUS
10
47.888
20
-62.9814
11
47.888
21
-63.0026
0
LINE
8
BLACK
6
CONTINUOUS
10
47.888
20
-63.0026
11
47.8808
21
-63.0225
0
LINE
8
BLACK
6
CONTINUOUS
10
47.8808
20
-63.0225
11
47.8672
21
-63.0387
0
LINE
8
BLACK
6
CONTINUOUS
10
47.8672
20
-63.0387
11
47.8488
21
-63.0493
0
LINE
8
BLACK
6
CONTINUOUS
10
47.8488
20
-63.0493
11
47.8332
21
-63.052
0
LINE
8
BLACK
6
CONTINUOUS
10
47.8332
20
-63.052
11
46.938
21
-63.052
0
LINE
8
BLACK
6
CONTINUOUS
10
46.938
20
-63.052
11
46.938
21
-63.9172
0
LINE
8
BLACK
6
CONTINUOUS
10
46.938
20
-63.9172
11
46.938
21
-63.9173
0
LINE
8
BLACK
6
CONTINUOUS
10
46.938
20
-63.9173
11
46.938
21
-63.9226
0
LINE
8
BLACK
6
CONTINUOUS
10
46.938
20
-63.9226
11
46.9362
21
-63.9276
0
LINE
8
BLACK
6
CONTINUOUS
10
46.9362
20
-63.9276
11
46.9353
21
-63.9328
0
LINE
8
BLACK
6
CONTINUOUS
10
46.9353
20
-63.9328
11
46.9326
21
-63.9375
0
LINE
8
BLACK
6
CONTINUOUS
10
46.9326
20
-63.9375
11
46.9308
21
-63.9425
0
LINE
8
BLACK
6
CONTINUOUS
10
46.9308
20
-63.9425
11
46.9273
21
-63.9465
0
LINE
8
BLACK
6
CONTINUOUS
10
46.9273
20
-63.9465
11
46.9247
21
-63.9512
0
LINE
8
BLACK
6
CONTINUOUS
10
46.9247
20
-63.9512
11
46.9206
21
-63.9546
0
LINE
8
BLACK
6
CONTINUOUS
10
46.9206
20
-63.9546
11
46.9172
21
-63.9587
0
LINE
8
BLACK
6
CONTINUOUS
10
46.9172
20
-63.9587
11
46.9125
21
-63.9613
0
LINE
8
BLACK
6
CONTINUOUS
10
46.9125
20
-63.9613
11
46.9085
21
-63.9648
0
LINE
8
BLACK
6
CONTINUOUS
10
46.9085
20
-63.9648
11
46.9035
21
-63.9666
0
LINE
8
BLACK
6
CONTINUOUS
10
46.9035
20
-63.9666
11
46.8988
21
-63.9693
0
LINE
8
BLACK
6
CONTINUOUS
10
46.8988
20
-63.9693
11
46.8936
21
-63.9702
0
LINE
8
BLACK
6
CONTINUOUS
10
46.8936
20
-63.9702
11
46.8886
21
-63.972
0
LINE
8
BLACK
6
CONTINUOUS
10
46.8886
20
-63.972
11
46.8833
21
-63.972
0
LINE
8
BLACK
6
CONTINUOUS
10
46.8833
20
-63.972
11
46.8832
21
-63.972
0
LINE
8
BLACK
6
CONTINUOUS
10
46.8832
20
-63.972
11
46.002
21
-63.972
0
LINE
8
BLACK
6
CONTINUOUS
10
46.002
20
-63.972
11
46.002
21
-73.0272
0
LINE
8
BLACK
6
CONTINUOUS
10
46.002
20
-73.0272
11
46.002
21
-73.0273
0
LINE
8
BLACK
6
CONTINUOUS
10
46.002
20
-73.0273
11
46.002
21
-73.0326
0
LINE
8
BLACK
6
CONTINUOUS
10
46.002
20
-73.0326
11
46.0002
21
-73.0376
0
LINE
8
BLACK
6
CONTINUOUS
10
46.0002
20
-73.0376
11
45.9993
21
-73.0428
0
LINE
8
BLACK
6
CONTINUOUS
10
45.9993
20
-73.0428
11
45.9966
21
-73.0475
0
LINE
8
BLACK
6
CONTINUOUS
10
45.9966
20
-73.0475
11
45.9948
21
-73.0525
0
LINE
8
BLACK
6
CONTINUOUS
10
45.9948
20
-73.0525
11
45.9913
21
-73.0565
0
LINE
8
BLACK
6
CONTINUOUS
10
45.9913
20
-73.0565
11
45.9887
21
-73.0612
0
LINE
8
BLACK
6
CONTINUOUS
10
45.9887
20
-73.0612
11
45.9846
21
-73.0646
0
LINE
8
BLACK
6
CONTINUOUS
10
45.9846
20
-73.0646
11
45.9812
21
-73.0687
0
LINE
8
BLACK
6
CONTINUOUS
10
45.9812
20
-73.0687
11
45.9765
21
-73.0713
0
LINE
8
BLACK
6
CONTINUOUS
10
45.9765
20
-73.0713
11
45.9725
21
-73.0748
0
LINE
8
BLACK
6
CONTINUOUS
10
45.9725
20
-73.0748
11
45.9675
21
-73.0766
0
LINE
8
BLACK
6
CONTINUOUS
10
45.9675
20
-73.0766
11
45.9628
21
-73.0793
0
LINE
8
BLACK
6
CONTINUOUS
10
45.9628
20
-73.0793
11
45.9576
21
-73.0802
0
LINE
8
BLACK
6
CONTINUOUS
10
45.9576
20
-73.0802
11
45.9526
21
-73.082
0
LINE
8
BLACK
6
CONTINUOUS
10
45.9526
20
-73.082
11
45.9473
21
-73.082
0
LINE
8
BLACK
6
CONTINUOUS
10
45.9473
20
-73.082
11
45.9472
21
-73.082
0
LINE
8
BLACK
6
CONTINUOUS
10
45.9472
20
-73.082
11
26.6968
21
-73.082
0
LINE
8
BLACK
6
CONTINUOUS
10
26.6968
20
-73.082
11
26.6967
21
-73.082
0
LINE
8
BLACK
6
CONTINUOUS
10
26.6967
20
-73.082
11
26.6914
21
-73.082
0
LINE
8
BLACK
6
CONTINUOUS
10
26.6914
20
-73.082
11
26.6864
21
-73.0802
0
LINE
8
BLACK
6
CONTINUOUS
10
26.6864
20
-73.0802
11
26.6812
21
-73.0793
0
LINE
8
BLACK
6
CONTINUOUS
10
26.6812
20
-73.0793
11
26.6765
21
-73.0766
0
LINE
8
BLACK
6
CONTINUOUS
10
26.6765
20
-73.0766
11
26.6715
21
-73.0748
0
LINE
8
BLACK
6
CONTINUOUS
10
26.6715
20
-73.0748
11
26.6675
21
-73.0713
0
LINE
8
BLACK
6
CONTINUOUS
10
26.6675
20
-73.0713
11
26.6628
21
-73.0687
0
LINE
8
BLACK
6
CONTINUOUS
10
26.6628
20
-73.0687
11
26.6594
21
-73.0646
0
LINE
8
BLACK
6
CONTINUOUS
10
26.6594
20
-73.0646
11
26.6553
21
-73.0612
0
LINE
8
BLACK
6
CONTINUOUS
10
26.6553
20
-73.0612
11
26.6527
21
-73.0565
0
LINE
8
BLACK
6
CONTINUOUS
10
26.6527
20
-73.0565
11
26.6492
21
-73.0525
0
LINE
8
BLACK
6
CONTINUOUS
10
26.6492
20
-73.0525
11
26.6474
21
-73.0475
0
LINE
8
BLACK
6
CONTINUOUS
10
26.6474
20
-73.0475
11
26.6447
21
-73.0428
0
LINE
8
BLACK
6
CONTINUOUS
10
26.6447
20
-73.0428
11
26.6438
21
-73.0376
0
LINE
8
BLACK
6
CONTINUOUS
10
26.6438
20
-73.0376
11
26.642
21
-73.0326
0
LINE
8
BLACK
6
CONTINUOUS
10
26.642
20
-73.0326
11
26.642
21
-73.0273
0
LINE
8
BLACK
6
CONTINUOUS
10
26.642
20
-73.0273
11
26.642
21
-73.0272
0
LINE
8
BLACK
6
CONTINUOUS
10
26.642
20
-73.0272
11
26.642
21
-22.4768
0
LINE
8
BLACK
6
CONTINUOUS
10
26.642
20
-22.4768
11
26.642
21
-22.4714
0
LINE
8
BLACK
6
CONTINUOUS
10
26.642
20
-22.4714
11
26.6438
21
-22.4664
0
LINE
8
BLACK
6
CONTINUOUS
10
26.6438
20
-22.4664
11
26.6447
21
-22.4612
0
LINE
8
BLACK
6
CONTINUOUS
10
26.6447
20
-22.4612
11
26.6474
21
-22.4566
0
LINE
8
BLACK
6
CONTINUOUS
10
26.6474
20
-22.4566
11
26.6492
21
-22.4515
0
LINE
8
BLACK
6
CONTINUOUS
10
26.6492
20
-22.4515
11
26.6527
21
-22.4474
0
LINE
8
BLACK
6
CONTINUOUS
10
26.6527
20
-22.4474
11
26.6553
21
-22.4428
0
LINE
8
BLACK
6
CONTINUOUS
10
26.6553
20
-22.4428
11
26.6594
21
-22.4394
0
LINE
8
BLACK
6
CONTINUOUS
10
26.6594
20
-22.4394
11
26.6628
21
-22.4353
0
LINE
8
BLACK
6
CONTINUOUS
10
26.6628
20
-22.4353
11
26.6675
21
-22.4327
0
LINE
8
BLACK
6
CONTINUOUS
10
26.6675
20
-22.4327
11
26.6715
21
-22.4292
0
LINE
8
BLACK
6
CONTINUOUS
10
26.6715
20
-22.4292
11
26.6765
21
-22.4274
0
LINE
8
BLACK
6
CONTINUOUS
10
26.6765
20
-22.4274
11
26.6812
21
-22.4247
0
LINE
8
BLACK
6
CONTINUOUS
10
26.6812
20
-22.4247
11
26.6864
21
-22.4238
0
LINE
8
BLACK
6
CONTINUOUS
10
26.6864
20
-22.4238
11
26.6914
21
-22.422
0
LINE
8
BLACK
6
CONTINUOUS
10
26.6914
20
-22.422
11
26.6967
21
-22.422
0
LINE
8
BLACK
6
CONTINUOUS
10
26.6967
20
-22.422
11
26.6968
21
-22.422
0
LINE
8
BLACK
6
CONTINUOUS
10
26.6968
20
-22.422
11
45.9472
21
-22.422
0
LINE
8
BLACK
6
CONTINUOUS
10
45.9472
20
-22.422
11
45.9473
21
-22.422
0
LINE
8
BLACK
6
CONTINUOUS
10
42.9798
20
-62.0564
11
42.9808
21
-62.0512
0
LINE
8
BLACK
6
CONTINUOUS
10
42.9808
20
-62.0512
11
42.9834
21
-62.0466
0
LINE
8
BLACK
6
CONTINUOUS
10
42.9834
20
-62.0466
11
42.9852
21
-62.0415
0
LINE
8
BLACK
6
CONTINUOUS
10
42.9852
20
-62.0415
11
42.9887
21
-62.0374
0
LINE
8
BLACK
6
CONTINUOUS
10
42.9887
20
-62.0374
11
42.9913
21
-62.0328
0
LINE
8
BLACK
6
CONTINUOUS
10
42.9913
20
-62.0328
11
42.9954
21
-62.0294
0
LINE
8
BLACK
6
CONTINUOUS
10
42.9954
20
-62.0294
11
42.9988
21
-62.0253
0
LINE
8
BLACK
6
CONTINUOUS
10
42.9988
20
-62.0253
11
43.0035
21
-62.0227
0
LINE
8
BLACK
6
CONTINUOUS
10
43.0035
20
-62.0227
11
43.0075
21
-62.0192
0
LINE
8
BLACK
6
CONTINUOUS
10
43.0075
20
-62.0192
11
43.0125
21
-62.0174
0
LINE
8
BLACK
6
CONTINUOUS
10
43.0125
20
-62.0174
11
43.0172
21
-62.0147
0
LINE
8
BLACK
6
CONTINUOUS
10
43.0172
20
-62.0147
11
43.0224
21
-62.0138
0
LINE
8
BLACK
6
CONTINUOUS
10
43.0224
20
-62.0138
11
43.0274
21
-62.012
0
LINE
8
BLACK
6
CONTINUOUS
10
43.0274
20
-62.012
11
43.0327
21
-62.012
0
LINE
8
BLACK
6
CONTINUOUS
10
43.0327
20
-62.012
11
43.0328
21
-62.012
0
LINE
8
BLACK
6
CONTINUOUS
10
43.0328
20
-62.012
11
45.882
21
-62.012
0
LINE
8
BLACK
6
CONTINUOUS
10
45.882
20
-62.012
11
45.882
21
-22.542
0
LINE
8
BLACK
6
CONTINUOUS
10
45.882
20
-22.542
11
26.762
21
-22.542
0
LINE
8
BLACK
6
CONTINUOUS
10
26.762
20
-22.542
11
26.762
21
-72.962
0
LINE
8
BLACK
6
CONTINUOUS
10
26.762
20
-72.962
11
45.882
21
-72.962
0
LINE
8
BLACK
6
CONTINUOUS
10
45.882
20
-72.962
11
45.882
21
-63.972
0
LINE
8
BLACK
6
CONTINUOUS
10
45.882
20
-63.972
11
43.0328
21
-63.972
0
LINE
8
BLACK
6
CONTINUOUS
10
43.0328
20
-63.972
11
43.0327
21
-63.972
0
LINE
8
BLACK
6
CONTINUOUS
10
43.0327
20
-63.972
11
43.0274
21
-63.972
0
LINE
8
BLACK
6
CONTINUOUS
10
43.0274
20
-63.972
11
43.0224
21
-63.9702
0
LINE
8
BLACK
6
CONTINUOUS
10
43.0224
20
-63.9702
11
43.0172
21
-63.9693
0
LINE
8
BLACK
6
CONTINUOUS
10
43.0172
20
-63.9693
11
43.0125
21
-63.9666
0
LINE
8
BLACK
6
CONTINUOUS
10
43.0125
20
-63.9666
11
43.0075
21
-63.9648
0
LINE
8
BLACK
6
CONTINUOUS
10
43.0075
20
-63.9648
11
43.0035
21
-63.9613
0
LINE
8
BLACK
6
CONTINUOUS
10
43.0035
20
-63.9613
11
42.9988
21
-63.9587
0
LINE
8
BLACK
6
CONTINUOUS
10
42.9988
20
-63.9587
11
42.9954
21
-63.9546
0
LINE
8
BLACK
6
CONTINUOUS
10
42.9954
20
-63.9546
11
42.9913
21
-63.9512
0
LINE
8
BLACK
6
CONTINUOUS
10
42.9913
20
-63.9512
11
42.9887
21
-63.9465
0
LINE
8
BLACK
6
CONTINUOUS
10
42.9887
20
-63.9465
11
42.9852
21
-63.9425
0
LINE
8
BLACK
6
CONTINUOUS
10
42.9852
20
-63.9425
11
42.9834
21
-63.9375
0
LINE
8
BLACK
6
CONTINUOUS
10
42.9834
20
-63.9375
11
42.9807
21
-63.9328
0
LINE
8
BLACK
6
CONTINUOUS
10
42.9807
20
-63.9328
11
42.9798
21
-63.9276
0
LINE
8
BLACK
6
CONTINUOUS
10
42.9798
20
-63.9276
11
42.978
21
-63.9226
0
LINE
8
BLACK
6
CONTINUOUS
10
42.978
20
-63.9226
11
42.978
21
-63.9173
0
LINE
8
BLACK
6
CONTINUOUS
10
42.978
20
-63.9173
11
42.978
21
-63.9172
0
LINE
8
BLACK
6
CONTINUOUS
10
42.978
20
-63.9172
11
42.978
21
-63.052
0
LINE
8
BLACK
6
CONTINUOUS
10
42.978
20
-63.052
11
42.0828
21
-63.052
0
LINE
8
BLACK
6
CONTINUOUS
10
42.0828
20
-63.052
11
42.0672
21
-63.0493
0
LINE
8
BLACK
6
CONTINUOUS
10
42.0672
20
-63.0493
11
42.0488
21
-63.0387
0
LINE
8
BLACK
6
CONTINUOUS
10
42.0488
20
-63.0387
11
42.0352
21
-63.0225
0
LINE
8
BLACK
6
CONTINUOUS
10
42.0352
20
-63.0225
11
42.028
21
-63.0026
0
LINE
8
BLACK
6
CONTINUOUS
10
42.028
20
-63.0026
11
42.028
21
-62.9814
0
LINE
8
BLACK
6
CONTINUOUS
10
42.028
20
-62.9814
11
42.0352
21
-62.9615
0
LINE
8
BLACK
6
CONTINUOUS
10
42.0352
20
-62.9615
11
42.0488
21
-62.9453
0
LINE
8
BLACK
6
CONTINUOUS
10
42.0488
20
-62.9453
11
42.0672
21
-62.9347
0
LINE
8
BLACK
6
CONTINUOUS
10
42.0672
20
-62.9347
11
42.0828
21
-62.932
0
LINE
8
BLACK
6
CONTINUOUS
10
42.0828
20
-62.932
11
42.978
21
-62.932
0
LINE
8
BLACK
6
CONTINUOUS
10
42.978
20
-62.932
11
42.978
21
-62.0614
0
LINE
8
BLACK
6
CONTINUOUS
10
42.978
20
-62.0614
11
42.9798
21
-62.0564
0
LINE
8
BLACK
6
CONTINUOUS
10
43.098
20
-62.132
11
43.098
21
-63.852
0
LINE
8
BLACK
6
CONTINUOUS
10
43.098
20
-63.852
11
45.882
21
-63.852
0
LINE
8
BLACK
6
CONTINUOUS
10
45.882
20
-63.852
11
45.882
21
-62.132
0
LINE
8
BLACK
6
CONTINUOUS
10
45.882
20
-62.132
11
43.098
21
-62.132
0
LINE
8
BLACK
6
CONTINUOUS
10
46.002
20
-62.132
11
46.002
21
-63.852
0
LINE
8
BLACK
6
CONTINUOUS
10
46.002
20
-63.852
11
46.818
21
-63.852
0
LINE
8
BLACK
6
CONTINUOUS
10
46.818
20
-63.852
11
46.818
21
-62.132
0
LINE
8
BLACK
6
CONTINUOUS
10
46.818
20
-62.132
11
46.002
21
-62.132
0
LINE
8
BLACK
6
CONTINUOUS
10
44.4621
20
-60.4505
11
44.471
21
-60.4505
0
LINE
8
BLACK
6
CONTINUOUS
10
44.471
20
-60.4505
11
44.4749
21
-60.4519
0
LINE
8
BLACK
6
CONTINUOUS
10
44.4749
20
-60.4519
11
44.4791
21
-60.4524
0
LINE
8
BLACK
6
CONTINUOUS
10
44.4791
20
-60.4524
11
44.4871
21
-60.4564
0
LINE
8
BLACK
6
CONTINUOUS
10
44.4871
20
-60.4564
11
44.4955
21
-60.4594
0
LINE
8
BLACK
6
CONTINUOUS
10
44.4955
20
-60.4594
11
44.4987
21
-60.4621
0
LINE
8
BLACK
6
CONTINUOUS
10
44.4987
20
-60.4621
11
44.5024
21
-60.4639
0
LINE
8
BLACK
6
CONTINUOUS
10
44.5024
20
-60.4639
11
44.5086
21
-60.4704
0
LINE
8
BLACK
6
CONTINUOUS
10
44.5086
20
-60.4704
11
44.5155
21
-60.4762
0
LINE
8
BLACK
6
CONTINUOUS
10
44.5155
20
-60.4762
11
44.5175
21
-60.4798
0
LINE
8
BLACK
6
CONTINUOUS
10
44.5175
20
-60.4798
11
44.5204
21
-60.4828
0
LINE
8
BLACK
6
CONTINUOUS
10
44.5204
20
-60.4828
11
44.6115
21
-60.6195
0
LINE
8
BLACK
6
CONTINUOUS
10
44.6115
20
-60.6195
11
44.6929
21
-60.7008
0
LINE
8
BLACK
6
CONTINUOUS
10
44.6929
20
-60.7008
11
44.7773
21
-60.743
0
LINE
8
BLACK
6
CONTINUOUS
10
44.7773
20
-60.743
11
44.7982
21
-60.7585
0
LINE
8
BLACK
6
CONTINUOUS
10
44.7982
20
-60.7585
11
44.8125
21
-60.7803
0
LINE
8
BLACK
6
CONTINUOUS
10
44.8125
20
-60.7803
11
44.8186
21
-60.8056
0
LINE
8
BLACK
6
CONTINUOUS
10
44.8186
20
-60.8056
11
44.8156
21
-60.8315
0
LINE
8
BLACK
6
CONTINUOUS
10
44.8156
20
-60.8315
11
44.804
21
-60.8548
0
LINE
8
BLACK
6
CONTINUOUS
10
44.804
20
-60.8548
11
44.785
21
-60.8727
0
LINE
8
BLACK
6
CONTINUOUS
10
44.785
20
-60.8727
11
44.7611
21
-60.883
0
LINE
8
BLACK
6
CONTINUOUS
10
44.7611
20
-60.883
11
44.7351
21
-60.8846
0
LINE
8
BLACK
6
CONTINUOUS
10
44.7351
20
-60.8846
11
44.7102
21
-60.8772
0
LINE
8
BLACK
6
CONTINUOUS
10
44.7102
20
-60.8772
11
44.6149
21
-60.8296
0
LINE
8
BLACK
6
CONTINUOUS
10
44.6149
20
-60.8296
11
44.6053
21
-60.8224
0
LINE
8
BLACK
6
CONTINUOUS
10
44.6053
20
-60.8224
11
44.5954
21
-60.8155
0
LINE
8
BLACK
6
CONTINUOUS
10
44.5954
20
-60.8155
11
44.533
21
-60.7531
0
LINE
8
BLACK
6
CONTINUOUS
10
44.533
20
-60.7531
11
44.533
21
-61.4494
0
LINE
8
BLACK
6
CONTINUOUS
10
44.533
20
-61.4494
11
44.7437
21
-61.4494
0
LINE
8
BLACK
6
CONTINUOUS
10
44.7437
20
-61.4494
11
44.7694
21
-61.4539
0
LINE
8
BLACK
6
CONTINUOUS
10
44.7694
20
-61.4539
11
44.7919
21
-61.4669
0
LINE
8
BLACK
6
CONTINUOUS
10
44.7919
20
-61.4669
11
44.8087
21
-61.4869
0
LINE
8
BLACK
6
CONTINUOUS
10
44.8087
20
-61.4869
11
44.8176
21
-61.5114
0
LINE
8
BLACK
6
CONTINUOUS
10
44.8176
20
-61.5114
11
44.8176
21
-61.5374
0
LINE
8
BLACK
6
CONTINUOUS
10
44.8176
20
-61.5374
11
44.8087
21
-61.5619
0
LINE
8
BLACK
6
CONTINUOUS
10
44.8087
20
-61.5619
11
44.7919
21
-61.5818
0
LINE
8
BLACK
6
CONTINUOUS
10
44.7919
20
-61.5818
11
44.7694
21
-61.5949
0
LINE
8
BLACK
6
CONTINUOUS
10
44.7694
20
-61.5949
11
44.7437
21
-61.5994
0
LINE
8
BLACK
6
CONTINUOUS
10
44.7437
20
-61.5994
11
44.1723
21
-61.5994
0
LINE
8
BLACK
6
CONTINUOUS
10
44.1723
20
-61.5994
11
44.1466
21
-61.5949
0
LINE
8
BLACK
6
CONTINUOUS
10
44.1466
20
-61.5949
11
44.1241
21
-61.5818
0
LINE
8
BLACK
6
CONTINUOUS
10
44.1241
20
-61.5818
11
44.1073
21
-61.5619
0
LINE
8
BLACK
6
CONTINUOUS
10
44.1073
20
-61.5619
11
44.0984
21
-61.5374
0
LINE
8
BLACK
6
CONTINUOUS
10
44.0984
20
-61.5374
11
44.0984
21
-61.5114
0
LINE
8
BLACK
6
CONTINUOUS
10
44.0984
20
-61.5114
11
44.1073
21
-61.4869
0
LINE
8
BLACK
6
CONTINUOUS
10
44.1073
20
-61.4869
11
44.1241
21
-61.4669
0
LINE
8
BLACK
6
CONTINUOUS
10
44.1241
20
-61.4669
11
44.1466
21
-61.4539
0
LINE
8
BLACK
6
CONTINUOUS
10
44.1466
20
-61.4539
11
44.1723
21
-61.4494
0
LINE
8
BLACK
6
CONTINUOUS
10
44.1723
20
-61.4494
11
44.383
21
-61.4494
0
LINE
8
BLACK
6
CONTINUOUS
10
44.383
20
-61.4494
11
44.383
21
-60.5244
0
LINE
8
BLACK
6
CONTINUOUS
10
44.383
20
-60.5244
11
44.3837
21
-60.5203
0
LINE
8
BLACK
6
CONTINUOUS
10
44.3837
20
-60.5203
11
44.3835
21
-60.5161
0
LINE
8
BLACK
6
CONTINUOUS
10
44.3835
20
-60.5161
11
44.386
21
-60.5075
0
LINE
8
BLACK
6
CONTINUOUS
10
44.386
20
-60.5075
11
44.3875
21
-60.4987
0
LINE
8
BLACK
6
CONTINUOUS
10
44.3875
20
-60.4987
11
44.3896
21
-60.4951
0
LINE
8
BLACK
6
CONTINUOUS
10
44.3896
20
-60.4951
11
44.3908
21
-60.4911
0
LINE
8
BLACK
6
CONTINUOUS
10
44.3908
20
-60.4911
11
44.3961
21
-60.4839
0
LINE
8
BLACK
6
CONTINUOUS
10
44.3961
20
-60.4839
11
44.4005
21
-60.4762
0
LINE
8
BLACK
6
CONTINUOUS
10
44.4005
20
-60.4762
11
44.4037
21
-60.4735
0
LINE
8
BLACK
6
CONTINUOUS
10
44.4037
20
-60.4735
11
44.4062
21
-60.4701
0
LINE
8
BLACK
6
CONTINUOUS
10
44.4062
20
-60.4701
11
44.4136
21
-60.4652
0
LINE
8
BLACK
6
CONTINUOUS
10
44.4136
20
-60.4652
11
44.4205
21
-60.4594
0
LINE
8
BLACK
6
CONTINUOUS
10
44.4205
20
-60.4594
11
44.4244
21
-60.458
0
LINE
8
BLACK
6
CONTINUOUS
10
44.4244
20
-60.458
11
44.4279
21
-60.4557
0
LINE
8
BLACK
6
CONTINUOUS
10
44.4279
20
-60.4557
11
44.4366
21
-60.4536
0
LINE
8
BLACK
6
CONTINUOUS
10
44.4366
20
-60.4536
11
44.445
21
-60.4505
0
LINE
8
BLACK
6
CONTINUOUS
10
44.445
20
-60.4505
11
44.4491
21
-60.4505
0
LINE
8
BLACK
6
CONTINUOUS
10
44.4491
20
-60.4505
11
44.4532
21
-60.4495
0
LINE
8
BLACK
6
CONTINUOUS
10
44.4532
20
-60.4495
11
44.4621
21
-60.4505
0
LINE
8
BLACK
6
CONTINUOUS
10
45.7026
20
-60.4505
11
45.7091
21
-60.4505
0
LINE
8
BLACK
6
CONTINUOUS
10
45.7091
20
-60.4505
11
45.7153
21
-60.4528
0
LINE
8
BLACK
6
CONTINUOUS
10
45.7153
20
-60.4528
11
45.7217
21
-60.4539
0
LINE
8
BLACK
6
CONTINUOUS
10
45.7217
20
-60.4539
11
45.7274
21
-60.4572
0
LINE
8
BLACK
6
CONTINUOUS
10
45.7274
20
-60.4572
11
45.7336
21
-60.4594
0
LINE
8
BLACK
6
CONTINUOUS
10
45.7336
20
-60.4594
11
45.7386
21
-60.4636
0
LINE
8
BLACK
6
CONTINUOUS
10
45.7386
20
-60.4636
11
45.7443
21
-60.4669
0
LINE
8
BLACK
6
CONTINUOUS
10
45.7443
20
-60.4669
11
45.7485
21
-60.472
0
LINE
8
BLACK
6
CONTINUOUS
10
45.7485
20
-60.472
11
45.7535
21
-60.4762
0
LINE
8
BLACK
6
CONTINUOUS
10
45.7535
20
-60.4762
11
45.7568
21
-60.4819
0
LINE
8
BLACK
6
CONTINUOUS
10
45.7568
20
-60.4819
11
45.761
21
-60.4869
0
LINE
8
BLACK
6
CONTINUOUS
10
45.761
20
-60.4869
11
45.7633
21
-60.493
0
LINE
8
BLACK
6
CONTINUOUS
10
45.7633
20
-60.493
11
45.7666
21
-60.4987
0
LINE
8
BLACK
6
CONTINUOUS
10
45.7666
20
-60.4987
11
45.7677
21
-60.5052
0
LINE
8
BLACK
6
CONTINUOUS
10
45.7677
20
-60.5052
11
45.77
21
-60.5114
0
LINE
8
BLACK
6
CONTINUOUS
10
45.77
20
-60.5114
11
45.77
21
-60.5179
0
LINE
8
BLACK
6
CONTINUOUS
10
45.77
20
-60.5179
11
45.7711
21
-60.5244
0
LINE
8
BLACK
6
CONTINUOUS
10
45.7711
20
-60.5244
11
45.7711
21
-61.5244
0
LINE
8
BLACK
6
CONTINUOUS
10
45.7711
20
-61.5244
11
45.7666
21
-61.55
0
LINE
8
BLACK
6
CONTINUOUS
10
45.7666
20
-61.55
11
45.7535
21
-61.5726
0
LINE
8
BLACK
6
CONTINUOUS
10
45.7535
20
-61.5726
11
45.7336
21
-61.5893
0
LINE
8
BLACK
6
CONTINUOUS
10
45.7336
20
-61.5893
11
45.7091
21
-61.5982
0
LINE
8
BLACK
6
CONTINUOUS
10
45.7091
20
-61.5982
11
45.6831
21
-61.5982
0
LINE
8
BLACK
6
CONTINUOUS
10
45.6831
20
-61.5982
11
45.6586
21
-61.5893
0
LINE
8
BLACK
6
CONTINUOUS
10
45.6586
20
-61.5893
11
45.6386
21
-61.5726
0
LINE
8
BLACK
6
CONTINUOUS
10
45.6386
20
-61.5726
11
45.6256
21
-61.55
0
LINE
8
BLACK
6
CONTINUOUS
10
45.6256
20
-61.55
11
45.6211
21
-61.5244
0
LINE
8
BLACK
6
CONTINUOUS
10
45.6211
20
-61.5244
11
45.6211
21
-61.1232
0
LINE
8
BLACK
6
CONTINUOUS
10
45.6211
20
-61.1232
11
45.497
21
-61.1232
0
LINE
8
BLACK
6
CONTINUOUS
10
45.497
20
-61.1232
11
45.1861
21
-61.5674
0
LINE
8
BLACK
6
CONTINUOUS
10
45.1861
20
-61.5674
11
45.1677
21
-61.5858
0
LINE
8
BLACK
6
CONTINUOUS
10
45.1677
20
-61.5858
11
45.1441
21
-61.5968
0
LINE
8
BLACK
6
CONTINUOUS
10
45.1441
20
-61.5968
11
45.1181
21
-61.5991
0
LINE
8
BLACK
6
CONTINUOUS
10
45.1181
20
-61.5991
11
45.093
21
-61.5924
0
LINE
8
BLACK
6
CONTINUOUS
10
45.093
20
-61.5924
11
45.0716
21
-61.5774
0
LINE
8
BLACK
6
CONTINUOUS
10
45.0716
20
-61.5774
11
45.0567
21
-61.5561
0
LINE
8
BLACK
6
CONTINUOUS
10
45.0567
20
-61.5561
11
45.05
21
-61.5309
0
LINE
8
BLACK
6
CONTINUOUS
10
45.05
20
-61.5309
11
45.0522
21
-61.505
0
LINE
8
BLACK
6
CONTINUOUS
10
45.0522
20
-61.505
11
45.0632
21
-61.4814
0
LINE
8
BLACK
6
CONTINUOUS
10
45.0632
20
-61.4814
11
45.3141
21
-61.123
0
LINE
8
BLACK
6
CONTINUOUS
10
45.3141
20
-61.123
11
45.3109
21
-61.1224
0
LINE
8
BLACK
6
CONTINUOUS
10
45.3109
20
-61.1224
11
45.3066
21
-61.1227
0
LINE
8
BLACK
6
CONTINUOUS
10
45.3066
20
-61.1227
11
45.2981
21
-61.1202
0
LINE
8
BLACK
6
CONTINUOUS
10
45.2981
20
-61.1202
11
45.2895
21
-61.1187
0
LINE
8
BLACK
6
CONTINUOUS
10
45.2895
20
-61.1187
11
45.2857
21
-61.1165
0
LINE
8
BLACK
6
CONTINUOUS
10
45.2857
20
-61.1165
11
45.2816
21
-61.1153
0
LINE
8
BLACK
6
CONTINUOUS
10
45.2816
20
-61.1153
11
45.1864
21
-61.0677
0
LINE
8
BLACK
6
CONTINUOUS
10
45.1864
20
-61.0677
11
45.1767
21
-61.0605
0
LINE
8
BLACK
6
CONTINUOUS
10
45.1767
20
-61.0605
11
45.1669
21
-61.0536
0
LINE
8
BLACK
6
CONTINUOUS
10
45.1669
20
-61.0536
11
45.1193
21
-61.006
0
LINE
8
BLACK
6
CONTINUOUS
10
45.1193
20
-61.006
11
45.1124
21
-60.9962
0
LINE
8
BLACK
6
CONTINUOUS
10
45.1124
20
-60.9962
11
45.1052
21
-60.9865
0
LINE
8
BLACK
6
CONTINUOUS
10
45.1052
20
-60.9865
11
45.0576
21
-60.8913
0
LINE
8
BLACK
6
CONTINUOUS
10
45.0576
20
-60.8913
11
45.0564
21
-60.8871
0
LINE
8
BLACK
6
CONTINUOUS
10
45.0564
20
-60.8871
11
45.0542
21
-60.8834
0
LINE
8
BLACK
6
CONTINUOUS
10
45.0542
20
-60.8834
11
45.0527
21
-60.8747
0
LINE
8
BLACK
6
CONTINUOUS
10
45.0527
20
-60.8747
11
45.0502
21
-60.8663
0
LINE
8
BLACK
6
CONTINUOUS
10
45.0502
20
-60.8663
11
45.0504
21
-60.862
0
LINE
8
BLACK
6
CONTINUOUS
10
45.0504
20
-60.862
11
45.0497
21
-60.8577
0
LINE
8
BLACK
6
CONTINUOUS
10
45.0497
20
-60.8577
11
45.0497
21
-60.7149
0
LINE
8
BLACK
6
CONTINUOUS
10
45.0497
20
-60.7149
11
45.0504
21
-60.7106
0
LINE
8
BLACK
6
CONTINUOUS
10
45.0504
20
-60.7106
11
45.0502
21
-60.7063
0
LINE
8
BLACK
6
CONTINUOUS
10
45.0502
20
-60.7063
11
45.0527
21
-60.6979
0
LINE
8
BLACK
6
CONTINUOUS
10
45.0527
20
-60.6979
11
45.0542
21
-60.6892
0
LINE
8
BLACK
6
CONTINUOUS
10
45.0542
20
-60.6892
11
45.0564
21
-60.6855
0
LINE
8
BLACK
6
CONTINUOUS
10
45.0564
20
-60.6855
11
45.0576
21
-60.6813
0
LINE
8
BLACK
6
CONTINUOUS
10
45.0576
20
-60.6813
11
45.1052
21
-60.5861
0
LINE
8
BLACK
6
CONTINUOUS
10
45.1052
20
-60.5861
11
45.1124
21
-60.5764
0
LINE
8
BLACK
6
CONTINUOUS
10
45.1124
20
-60.5764
11
45.1193
21
-60.5666
0
LINE
8
BLACK
6
CONTINUOUS
10
45.1193
20
-60.5666
11
45.1669
21
-60.519
0
LINE
8
BLACK
6
CONTINUOUS
10
45.1669
20
-60.519
11
45.1767
21
-60.5121
0
LINE
8
BLACK
6
CONTINUOUS
10
45.1767
20
-60.5121
11
45.1864
21
-60.5049
0
LINE
8
BLACK
6
CONTINUOUS
10
45.1864
20
-60.5049
11
45.2816
21
-60.4573
0
LINE
8
BLACK
6
CONTINUOUS
10
45.2816
20
-60.4573
11
45.2857
21
-60.4561
0
LINE
8
BLACK
6
CONTINUOUS
10
45.2857
20
-60.4561
11
45.2895
21
-60.4539
0
LINE
8
BLACK
6
CONTINUOUS
10
45.2895
20
-60.4539
11
45.2981
21
-60.4524
0
LINE
8
BLACK
6
CONTINUOUS
10
45.2981
20
-60.4524
11
45.3066
21
-60.4499
0
LINE
8
BLACK
6
CONTINUOUS
10
45.3066
20
-60.4499
11
45.3109
21
-60.4501
0
LINE
8
BLACK
6
CONTINUOUS
10
45.3109
20
-60.4501
11
45.3151
21
-60.4494
0
LINE
8
BLACK
6
CONTINUOUS
10
45.3151
20
-60.4494
11
45.6961
21
-60.4494
0
LINE
8
BLACK
6
CONTINUOUS
10
45.6961
20
-60.4494
11
45.7026
21
-60.4505
0
LINE
8
BLACK
6
CONTINUOUS
10
45.3328
20
-60.5994
11
45.2643
21
-60.6336
0
LINE
8
BLACK
6
CONTINUOUS
10
45.2643
20
-60.6336
11
45.2339
21
-60.664
0
LINE
8
BLACK
6
CONTINUOUS
10
45.2339
20
-60.664
11
45.1997
21
-60.7326
0
LINE
8
BLACK
6
CONTINUOUS
10
45.1997
20
-60.7326
11
45.1997
21
-60.84
0
LINE
8
BLACK
6
CONTINUOUS
10
45.1997
20
-60.84
11
45.2339
21
-60.9085
0
LINE
8
BLACK
6
CONTINUOUS
10
45.2339
20
-60.9085
11
45.2643
21
-60.9389
0
LINE
8
BLACK
6
CONTINUOUS
10
45.2643
20
-60.9389
11
45.3328
21
-60.9732
0
LINE
8
BLACK
6
CONTINUOUS
10
45.3328
20
-60.9732
11
45.6211
21
-60.9732
0
LINE
8
BLACK
6
CONTINUOUS
10
45.6211
20
-60.9732
11
45.6211
21
-60.5994
0
LINE
8
BLACK
6
CONTINUOUS
10
45.6211
20
-60.5994
11
45.3328
21
-60.5994
0
LINE
8
BLACK
6
CONTINUOUS
10
40.1221
20
-48.947
11
40.6279
21
-48.4413
0
LINE
8
BLACK
6
CONTINUOUS
10
40.6279
20
-48.4413
11
40.6409
21
-48.4322
0
LINE
8
BLACK
6
CONTINUOUS
10
40.6409
20
-48.4322
11
40.6613
21
-48.4267
0
LINE
8
BLACK
6
CONTINUOUS
10
40.6613
20
-48.4267
11
40.6824
21
-48.4285
0
LINE
8
BLACK
6
CONTINUOUS
10
40.6824
20
-48.4285
11
40.7016
21
-48.4375
0
LINE
8
BLACK
6
CONTINUOUS
10
40.7016
20
-48.4375
11
40.7165
21
-48.4524
0
LINE
8
BLACK
6
CONTINUOUS
10
40.7165
20
-48.4524
11
40.7255
21
-48.4716
0
LINE
8
BLACK
6
CONTINUOUS
10
40.7255
20
-48.4716
11
40.7273
21
-48.4927
0
LINE
8
BLACK
6
CONTINUOUS
10
40.7273
20
-48.4927
11
40.7218
21
-48.5131
0
LINE
8
BLACK
6
CONTINUOUS
10
40.7218
20
-48.5131
11
40.7127
21
-48.5261
0
LINE
8
BLACK
6
CONTINUOUS
10
40.7127
20
-48.5261
11
40.207
21
-49.0319
0
LINE
8
BLACK
6
CONTINUOUS
10
40.207
20
-49.0319
11
41.137
21
-49.9619
0
LINE
8
BLACK
6
CONTINUOUS
10
41.137
20
-49.9619
11
41.137
21
-49.9619
0
LINE
8
BLACK
6
CONTINUOUS
10
41.137
20
-49.9619
11
41.1408
21
-49.9657
0
LINE
8
BLACK
6
CONTINUOUS
10
41.1408
20
-49.9657
11
41.143
21
-49.9705
0
LINE
8
BLACK
6
CONTINUOUS
10
41.143
20
-49.9705
11
41.1461
21
-49.9749
0
LINE
8
BLACK
6
CONTINUOUS
10
41.1461
20
-49.9749
11
41.1475
21
-49.98
0
LINE
8
BLACK
6
CONTINUOUS
10
41.1475
20
-49.98
11
41.1497
21
-49.9848
0
LINE
8
BLACK
6
CONTINUOUS
10
41.1497
20
-49.9848
11
41.1502
21
-49.9901
0
LINE
8
BLACK
6
CONTINUOUS
10
41.1502
20
-49.9901
11
41.1516
21
-49.9953
0
LINE
8
BLACK
6
CONTINUOUS
10
41.1516
20
-49.9953
11
41.1511
21
-50.0006
0
LINE
8
BLACK
6
CONTINUOUS
10
41.1511
20
-50.0006
11
41.1516
21
-50.0059
0
LINE
8
BLACK
6
CONTINUOUS
10
41.1516
20
-50.0059
11
41.1502
21
-50.0111
0
LINE
8
BLACK
6
CONTINUOUS
10
41.1502
20
-50.0111
11
41.1497
21
-50.0164
0
LINE
8
BLACK
6
CONTINUOUS
10
41.1497
20
-50.0164
11
41.1475
21
-50.0212
0
LINE
8
BLACK
6
CONTINUOUS
10
41.1475
20
-50.0212
11
41.1461
21
-50.0263
0
LINE
8
BLACK
6
CONTINUOUS
10
41.1461
20
-50.0263
11
41.143
21
-50.0307
0
LINE
8
BLACK
6
CONTINUOUS
10
41.143
20
-50.0307
11
41.1408
21
-50.0355
0
LINE
8
BLACK
6
CONTINUOUS
10
41.1408
20
-50.0355
11
41.137
21
-50.0393
0
LINE
8
BLACK
6
CONTINUOUS
10
41.137
20
-50.0393
11
41.137
21
-50.0393
0
LINE
8
BLACK
6
CONTINUOUS
10
41.137
20
-50.0393
11
36.5163
21
-54.66
0
LINE
8
BLACK
6
CONTINUOUS
10
36.5163
20
-54.66
11
36.5013
21
-54.675
0
LINE
8
BLACK
6
CONTINUOUS
10
36.5013
20
-54.675
11
36.4965
21
-54.6772
0
LINE
8
BLACK
6
CONTINUOUS
10
36.4965
20
-54.6772
11
36.4921
21
-54.6803
0
LINE
8
BLACK
6
CONTINUOUS
10
36.4921
20
-54.6803
11
36.487
21
-54.6817
0
LINE
8
BLACK
6
CONTINUOUS
10
36.487
20
-54.6817
11
36.4822
21
-54.6839
0
LINE
8
BLACK
6
CONTINUOUS
10
36.4822
20
-54.6839
11
36.4769
21
-54.6844
0
LINE
8
BLACK
6
CONTINUOUS
10
36.4769
20
-54.6844
11
36.4717
21
-54.6858
0
LINE
8
BLACK
6
CONTINUOUS
10
36.4717
20
-54.6858
11
36.4664
21
-54.6853
0
LINE
8
BLACK
6
CONTINUOUS
10
36.4664
20
-54.6853
11
36.4611
21
-54.6858
0
LINE
8
BLACK
6
CONTINUOUS
10
36.4611
20
-54.6858
11
36.4559
21
-54.6844
0
LINE
8
BLACK
6
CONTINUOUS
10
36.4559
20
-54.6844
11
36.4506
21
-54.6839
0
LINE
8
BLACK
6
CONTINUOUS
10
36.4506
20
-54.6839
11
36.4458
21
-54.6817
0
LINE
8
BLACK
6
CONTINUOUS
10
36.4458
20
-54.6817
11
36.4406
21
-54.6803
0
LINE
8
BLACK
6
CONTINUOUS
10
36.4406
20
-54.6803
11
36.4363
21
-54.6772
0
LINE
8
BLACK
6
CONTINUOUS
10
36.4363
20
-54.6772
11
36.4315
21
-54.675
0
LINE
8
BLACK
6
CONTINUOUS
10
36.4315
20
-54.675
11
36.4277
21
-54.6712
0
LINE
8
BLACK
6
CONTINUOUS
10
36.4277
20
-54.6712
11
36.4277
21
-54.6712
0
LINE
8
BLACK
6
CONTINUOUS
10
36.4277
20
-54.6712
11
35.4977
21
-53.7412
0
LINE
8
BLACK
6
CONTINUOUS
10
35.4977
20
-53.7412
11
34.9919
21
-54.2469
0
LINE
8
BLACK
6
CONTINUOUS
10
34.9919
20
-54.2469
11
34.9789
21
-54.256
0
LINE
8
BLACK
6
CONTINUOUS
10
34.9789
20
-54.256
11
34.9585
21
-54.2615
0
LINE
8
BLACK
6
CONTINUOUS
10
34.9585
20
-54.2615
11
34.9374
21
-54.2597
0
LINE
8
BLACK
6
CONTINUOUS
10
34.9374
20
-54.2597
11
34.9182
21
-54.2507
0
LINE
8
BLACK
6
CONTINUOUS
10
34.9182
20
-54.2507
11
34.9033
21
-54.2358
0
LINE
8
BLACK
6
CONTINUOUS
10
34.9033
20
-54.2358
11
34.8943
21
-54.2166
0
LINE
8
BLACK
6
CONTINUOUS
10
34.8943
20
-54.2166
11
34.8925
21
-54.1955
0
LINE
8
BLACK
6
CONTINUOUS
10
34.8925
20
-54.1955
11
34.898
21
-54.1751
0
LINE
8
BLACK
6
CONTINUOUS
10
34.898
20
-54.1751
11
34.9071
21
-54.1621
0
LINE
8
BLACK
6
CONTINUOUS
10
34.9071
20
-54.1621
11
35.4128
21
-53.6563
0
LINE
8
BLACK
6
CONTINUOUS
10
35.4128
20
-53.6563
11
34.4828
21
-52.7263
0
LINE
8
BLACK
6
CONTINUOUS
10
34.4828
20
-52.7263
11
34.4828
21
-52.7263
0
LINE
8
BLACK
6
CONTINUOUS
10
34.4828
20
-52.7263
11
34.479
21
-52.7225
0
LINE
8
BLACK
6
CONTINUOUS
10
34.479
20
-52.7225
11
34.4768
21
-52.7177
0
LINE
8
BLACK
6
CONTINUOUS
10
34.4768
20
-52.7177
11
34.4737
21
-52.7134
0
LINE
8
BLACK
6
CONTINUOUS
10
34.4737
20
-52.7134
11
34.4723
21
-52.7082
0
LINE
8
BLACK
6
CONTINUOUS
10
34.4723
20
-52.7082
11
34.4701
21
-52.7034
0
LINE
8
BLACK
6
CONTINUOUS
10
34.4701
20
-52.7034
11
34.4696
21
-52.6981
0
LINE
8
BLACK
6
CONTINUOUS
10
34.4696
20
-52.6981
11
34.4682
21
-52.6929
0
LINE
8
BLACK
6
CONTINUOUS
10
34.4682
20
-52.6929
11
34.4687
21
-52.6876
0
LINE
8
BLACK
6
CONTINUOUS
10
34.4687
20
-52.6876
11
34.4682
21
-52.6823
0
LINE
8
BLACK
6
CONTINUOUS
10
34.4682
20
-52.6823
11
34.4696
21
-52.6771
0
LINE
8
BLACK
6
CONTINUOUS
10
34.4696
20
-52.6771
11
34.4701
21
-52.6718
0
LINE
8
BLACK
6
CONTINUOUS
10
34.4701
20
-52.6718
11
34.4723
21
-52.667
0
LINE
8
BLACK
6
CONTINUOUS
10
34.4723
20
-52.667
11
34.4737
21
-52.6619
0
LINE
8
BLACK
6
CONTINUOUS
10
34.4737
20
-52.6619
11
34.4768
21
-52.6575
0
LINE
8
BLACK
6
CONTINUOUS
10
34.4768
20
-52.6575
11
34.479
21
-52.6527
0
LINE
8
BLACK
6
CONTINUOUS
10
34.479
20
-52.6527
11
34.4828
21
-52.6489
0
LINE
8
BLACK
6
CONTINUOUS
10
34.4828
20
-52.6489
11
34.4828
21
-52.6489
0
LINE
8
BLACK
6
CONTINUOUS
10
34.4828
20
-52.6489
11
39.1147
21
-48.017
0
LINE
8
BLACK
6
CONTINUOUS
10
39.1147
20
-48.017
11
39.1147
21
-48.017
0
LINE
8
BLACK
6
CONTINUOUS
10
39.1147
20
-48.017
11
39.1185
21
-48.0132
0
LINE
8
BLACK
6
CONTINUOUS
10
39.1185
20
-48.0132
11
39.1233
21
-48.011
0
LINE
8
BLACK
6
CONTINUOUS
10
39.1233
20
-48.011
11
39.1277
21
-48.0079
0
LINE
8
BLACK
6
CONTINUOUS
10
39.1277
20
-48.0079
11
39.1328
21
-48.0065
0
LINE
8
BLACK
6
CONTINUOUS
10
39.1328
20
-48.0065
11
39.1376
21
-48.0043
0
LINE
8
BLACK
6
CONTINUOUS
10
39.1376
20
-48.0043
11
39.1429
21
-48.0038
0
LINE
8
BLACK
6
CONTINUOUS
10
39.1429
20
-48.0038
11
39.1481
21
-48.0024
0
LINE
8
BLACK
6
CONTINUOUS
10
39.1481
20
-48.0024
11
39.1534
21
-48.0029
0
LINE
8
BLACK
6
CONTINUOUS
10
39.1534
20
-48.0029
11
39.1587
21
-48.0024
0
LINE
8
BLACK
6
CONTINUOUS
10
39.1587
20
-48.0024
11
39.1639
21
-48.0038
0
LINE
8
BLACK
6
CONTINUOUS
10
39.1639
20
-48.0038
11
39.1692
21
-48.0043
0
LINE
8
BLACK
6
CONTINUOUS
10
39.1692
20
-48.0043
11
39.174
21
-48.0065
0
LINE
8
BLACK
6
CONTINUOUS
10
39.174
20
-48.0065
11
39.1791
21
-48.0079
0
LINE
8
BLACK
6
CONTINUOUS
10
39.1791
20
-48.0079
11
39.1835
21
-48.011
0
LINE
8
BLACK
6
CONTINUOUS
10
39.1835
20
-48.011
11
39.1883
21
-48.0132
0
LINE
8
BLACK
6
CONTINUOUS
10
39.1883
20
-48.0132
11
39.1921
21
-48.017
0
LINE
8
BLACK
6
CONTINUOUS
10
39.1921
20
-48.017
11
40.1221
21
-48.947
0
LINE
8
BLACK
6
CONTINUOUS
10
34.6138
20
-52.6876
11
36.4664
21
-54.5402
0
LINE
8
BLACK
6
CONTINUOUS
10
36.4664
20
-54.5402
11
41.006
21
-50.0006
0
LINE
8
BLACK
6
CONTINUOUS
10
41.006
20
-50.0006
11
39.1534
21
-48.148
0
LINE
8
BLACK
6
CONTINUOUS
10
39.1534
20
-48.148
11
34.6138
21
-52.6876
0
LINE
8
BLACK
6
CONTINUOUS
10
31.5265
20
-46.4532
11
31.5427
21
-46.4668
0
LINE
8
BLACK
6
CONTINUOUS
10
31.5427
20
-46.4668
11
31.5533
21
-46.4852
0
LINE
8
BLACK
6
CONTINUOUS
10
31.5533
20
-46.4852
11
31.556
21
-46.5008
0
LINE
8
BLACK
6
CONTINUOUS
10
31.556
20
-46.5008
11
31.556
21
-47.216
0
LINE
8
BLACK
6
CONTINUOUS
10
31.556
20
-47.216
11
32.8712
21
-47.216
0
LINE
8
BLACK
6
CONTINUOUS
10
32.8712
20
-47.216
11
32.8713
21
-47.216
0
LINE
8
BLACK
6
CONTINUOUS
10
32.8713
20
-47.216
11
32.8766
21
-47.216
0
LINE
8
BLACK
6
CONTINUOUS
10
32.8766
20
-47.216
11
32.8816
21
-47.2178
0
LINE
8
BLACK
6
CONTINUOUS
10
32.8816
20
-47.2178
11
32.8868
21
-47.2187
0
LINE
8
BLACK
6
CONTINUOUS
10
32.8868
20
-47.2187
11
32.8915
21
-47.2214
0
LINE
8
BLACK
6
CONTINUOUS
10
32.8915
20
-47.2214
11
32.8965
21
-47.2232
0
LINE
8
BLACK
6
CONTINUOUS
10
32.8965
20
-47.2232
11
32.9005
21
-47.2267
0
LINE
8
BLACK
6
CONTINUOUS
10
32.9005
20
-47.2267
11
32.9052
21
-47.2293
0
LINE
8
BLACK
6
CONTINUOUS
10
32.9052
20
-47.2293
11
32.9086
21
-47.2334
0
LINE
8
BLACK
6
CONTINUOUS
10
32.9086
20
-47.2334
11
32.9127
21
-47.2368
0
LINE
8
BLACK
6
CONTINUOUS
10
32.9127
20
-47.2368
11
32.9153
21
-47.2415
0
LINE
8
BLACK
6
CONTINUOUS
10
32.9153
20
-47.2415
11
32.9188
21
-47.2455
0
LINE
8
BLACK
6
CONTINUOUS
10
32.9188
20
-47.2455
11
32.9206
21
-47.2505
0
LINE
8
BLACK
6
CONTINUOUS
10
32.9206
20
-47.2505
11
32.9233
21
-47.2552
0
LINE
8
BLACK
6
CONTINUOUS
10
32.9233
20
-47.2552
11
32.9242
21
-47.2604
0
LINE
8
BLACK
6
CONTINUOUS
10
32.9242
20
-47.2604
11
32.926
21
-47.2654
0
LINE
8
BLACK
6
CONTINUOUS
10
32.926
20
-47.2654
11
32.926
21
-47.2707
0
LINE
8
BLACK
6
CONTINUOUS
10
32.926
20
-47.2707
11
32.926
21
-47.2708
0
LINE
8
BLACK
6
CONTINUOUS
10
32.926
20
-47.2708
11
32.926
21
-53.8212
0
LINE
8
BLACK
6
CONTINUOUS
10
32.926
20
-53.8212
11
32.926
21
-53.8213
0
LINE
8
BLACK
6
CONTINUOUS
10
32.926
20
-53.8213
11
32.926
21
-53.8266
0
LINE
8
BLACK
6
CONTINUOUS
10
32.926
20
-53.8266
11
32.9242
21
-53.8316
0
LINE
8
BLACK
6
CONTINUOUS
10
32.9242
20
-53.8316
11
32.9233
21
-53.8368
0
LINE
8
BLACK
6
CONTINUOUS
10
32.9233
20
-53.8368
11
32.9206
21
-53.8415
0
LINE
8
BLACK
6
CONTINUOUS
10
32.9206
20
-53.8415
11
32.9188
21
-53.8465
0
LINE
8
BLACK
6
CONTINUOUS
10
32.9188
20
-53.8465
11
32.9153
21
-53.8505
0
LINE
8
BLACK
6
CONTINUOUS
10
32.9153
20
-53.8505
11
32.9127
21
-53.8552
0
LINE
8
BLACK
6
CONTINUOUS
10
32.9127
20
-53.8552
11
32.9086
21
-53.8586
0
LINE
8
BLACK
6
CONTINUOUS
10
32.9086
20
-53.8586
11
32.9052
21
-53.8627
0
LINE
8
BLACK
6
CONTINUOUS
10
32.9052
20
-53.8627
11
32.9005
21
-53.8653
0
LINE
8
BLACK
6
CONTINUOUS
10
32.9005
20
-53.8653
11
32.8965
21
-53.8688
0
LINE
8
BLACK
6
CONTINUOUS
10
32.8965
20
-53.8688
11
32.8915
21
-53.8706
0
LINE
8
BLACK
6
CONTINUOUS
10
32.8915
20
-53.8706
11
32.8868
21
-53.8733
0
LINE
8
BLACK
6
CONTINUOUS
10
32.8868
20
-53.8733
11
32.8816
21
-53.8742
0
LINE
8
BLACK
6
CONTINUOUS
10
32.8816
20
-53.8742
11
32.8766
21
-53.876
0
LINE
8
BLACK
6
CONTINUOUS
10
32.8766
20
-53.876
11
32.8713
21
-53.876
0
LINE
8
BLACK
6
CONTINUOUS
10
32.8713
20
-53.876
11
32.8712
21
-53.876
0
LINE
8
BLACK
6
CONTINUOUS
10
32.8712
20
-53.876
11
31.556
21
-53.876
0
LINE
8
BLACK
6
CONTINUOUS
10
31.556
20
-53.876
11
31.556
21
-54.5912
0
LINE
8
BLACK
6
CONTINUOUS
10
31.556
20
-54.5912
11
31.5533
21
-54.6068
0
LINE
8
BLACK
6
CONTINUOUS
10
31.5533
20
-54.6068
11
31.5427
21
-54.6252
0
LINE
8
BLACK
6
CONTINUOUS
10
31.5427
20
-54.6252
11
31.5265
21
-54.6388
0
LINE
8
BLACK
6
CONTINUOUS
10
31.5265
20
-54.6388
11
31.5066
21
-54.646
0
LINE
8
BLACK
6
CONTINUOUS
10
31.5066
20
-54.646
11
31.4854
21
-54.646
0
LINE
8
BLACK
6
CONTINUOUS
10
31.4854
20
-54.646
11
31.4655
21
-54.6388
0
LINE
8
BLACK
6
CONTINUOUS
10
31.4655
20
-54.6388
11
31.4493
21
-54.6252
0
LINE
8
BLACK
6
CONTINUOUS
10
31.4493
20
-54.6252
11
31.4387
21
-54.6068
0
LINE
8
BLACK
6
CONTINUOUS
10
31.4387
20
-54.6068
11
31.436
21
-54.5912
0
LINE
8
BLACK
6
CONTINUOUS
10
31.436
20
-54.5912
11
31.436
21
-53.876
0
LINE
8
BLACK
6
CONTINUOUS
10
31.436
20
-53.876
11
30.1208
21
-53.876
0
LINE
8
BLACK
6
CONTINUOUS
10
30.1208
20
-53.876
11
30.1207
21
-53.876
0
LINE
8
BLACK
6
CONTINUOUS
10
30.1207
20
-53.876
11
30.1154
21
-53.876
0
LINE
8
BLACK
6
CONTINUOUS
10
30.1154
20
-53.876
11
30.1104
21
-53.8742
0
LINE
8
BLACK
6
CONTINUOUS
10
30.1104
20
-53.8742
11
30.1052
21
-53.8733
0
LINE
8
BLACK
6
CONTINUOUS
10
30.1052
20
-53.8733
11
30.1005
21
-53.8706
0
LINE
8
BLACK
6
CONTINUOUS
10
30.1005
20
-53.8706
11
30.0955
21
-53.8688
0
LINE
8
BLACK
6
CONTINUOUS
10
30.0955
20
-53.8688
11
30.0915
21
-53.8653
0
LINE
8
BLACK
6
CONTINUOUS
10
30.0915
20
-53.8653
11
30.0868
21
-53.8627
0
LINE
8
BLACK
6
CONTINUOUS
10
30.0868
20
-53.8627
11
30.0834
21
-53.8586
0
LINE
8
BLACK
6
CONTINUOUS
10
30.0834
20
-53.8586
11
30.0793
21
-53.8552
0
LINE
8
BLACK
6
CONTINUOUS
10
30.0793
20
-53.8552
11
30.0767
21
-53.8505
0
LINE
8
BLACK
6
CONTINUOUS
10
30.0767
20
-53.8505
11
30.0732
21
-53.8465
0
LINE
8
BLACK
6
CONTINUOUS
10
30.0732
20
-53.8465
11
30.0714
21
-53.8415
0
LINE
8
BLACK
6
CONTINUOUS
10
30.0714
20
-53.8415
11
30.0687
21
-53.8368
0
LINE
8
BLACK
6
CONTINUOUS
10
30.0687
20
-53.8368
11
30.0678
21
-53.8316
0
LINE
8
BLACK
6
CONTINUOUS
10
30.0678
20
-53.8316
11
30.066
21
-53.8266
0
LINE
8
BLACK
6
CONTINUOUS
10
30.066
20
-53.8266
11
30.066
21
-53.8213
0
LINE
8
BLACK
6
CONTINUOUS
10
30.066
20
-53.8213
11
30.066
21
-53.8212
0
LINE
8
BLACK
6
CONTINUOUS
10
30.066
20
-53.8212
11
30.066
21
-47.2708
0
LINE
8
BLACK
6
CONTINUOUS
10
30.066
20
-47.2708
11
30.066
21
-47.2654
0
LINE
8
BLACK
6
CONTINUOUS
10
30.066
20
-47.2654
11
30.0678
21
-47.2604
0
LINE
8
BLACK
6
CONTINUOUS
10
30.0678
20
-47.2604
11
30.0687
21
-47.2552
0
LINE
8
BLACK
6
CONTINUOUS
10
30.0687
20
-47.2552
11
30.0714
21
-47.2506
0
LINE
8
BLACK
6
CONTINUOUS
10
30.0714
20
-47.2506
11
30.0732
21
-47.2455
0
LINE
8
BLACK
6
CONTINUOUS
10
30.0732
20
-47.2455
11
30.0767
21
-47.2414
0
LINE
8
BLACK
6
CONTINUOUS
10
30.0767
20
-47.2414
11
30.0793
21
-47.2368
0
LINE
8
BLACK
6
CONTINUOUS
10
30.0793
20
-47.2368
11
30.0834
21
-47.2334
0
LINE
8
BLACK
6
CONTINUOUS
10
30.0834
20
-47.2334
11
30.0868
21
-47.2293
0
LINE
8
BLACK
6
CONTINUOUS
10
30.0868
20
-47.2293
11
30.0915
21
-47.2267
0
LINE
8
BLACK
6
CONTINUOUS
10
30.0915
20
-47.2267
11
30.0955
21
-47.2232
0
LINE
8
BLACK
6
CONTINUOUS
10
30.0955
20
-47.2232
11
30.1005
21
-47.2214
0
LINE
8
BLACK
6
CONTINUOUS
10
30.1005
20
-47.2214
11
30.1052
21
-47.2187
0
LINE
8
BLACK
6
CONTINUOUS
10
30.1052
20
-47.2187
11
30.1104
21
-47.2178
0
LINE
8
BLACK
6
CONTINUOUS
10
30.1104
20
-47.2178
11
30.1154
21
-47.216
0
LINE
8
BLACK
6
CONTINUOUS
10
30.1154
20
-47.216
11
30.1207
21
-47.216
0
LINE
8
BLACK
6
CONTINUOUS
10
30.1207
20
-47.216
11
30.1208
21
-47.216
0
LINE
8
BLACK
6
CONTINUOUS
10
30.1208
20
-47.216
11
31.436
21
-47.216
0
LINE
8
BLACK
6
CONTINUOUS
10
31.436
20
-47.216
11
31.436
21
-46.5008
0
LINE
8
BLACK
6
CONTINUOUS
10
31.436
20
-46.5008
11
31.4387
21
-46.4852
0
LINE
8
BLACK
6
CONTINUOUS
10
31.4387
20
-46.4852
11
31.4493
21
-46.4668
0
LINE
8
BLACK
6
CONTINUOUS
10
31.4493
20
-46.4668
11
31.4655
21
-46.4532
0
LINE
8
BLACK
6
CONTINUOUS
10
31.4655
20
-46.4532
11
31.4854
21
-46.446
0
LINE
8
BLACK
6
CONTINUOUS
10
31.4854
20
-46.446
11
31.5066
21
-46.446
0
LINE
8
BLACK
6
CONTINUOUS
10
31.5066
20
-46.446
11
31.5265
21
-46.4532
0
LINE
8
BLACK
6
CONTINUOUS
10
30.186
20
-47.336
11
30.186
21
-53.756
0
LINE
8
BLACK
6
CONTINUOUS
10
30.186
20
-53.756
11
32.806
21
-53.756
0
LINE
8
BLACK
6
CONTINUOUS
10
32.806
20
-53.756
11
32.806
21
-47.336
0
LINE
8
BLACK
6
CONTINUOUS
10
32.806
20
-47.336
11
30.186
21
-47.336
0
LINE
8
BLACK
6
CONTINUOUS
10
29.5148
20
-50.6447
11
29.5362
21
-50.6596
0
LINE
8
BLACK
6
CONTINUOUS
10
29.5362
20
-50.6596
11
29.5838
21
-50.7073
0
LINE
8
BLACK
6
CONTINUOUS
10
29.5838
20
-50.7073
11
29.5907
21
-50.7171
0
LINE
8
BLACK
6
CONTINUOUS
10
29.5907
20
-50.7171
11
29.5978
21
-50.7267
0
LINE
8
BLACK
6
CONTINUOUS
10
29.5978
20
-50.7267
11
29.6455
21
-50.822
0
LINE
8
BLACK
6
CONTINUOUS
10
29.6455
20
-50.822
11
29.6467
21
-50.8261
0
LINE
8
BLACK
6
CONTINUOUS
10
29.6467
20
-50.8261
11
29.6489
21
-50.8299
0
LINE
8
BLACK
6
CONTINUOUS
10
29.6489
20
-50.8299
11
29.6504
21
-50.8385
0
LINE
8
BLACK
6
CONTINUOUS
10
29.6504
20
-50.8385
11
29.6529
21
-50.8469
0
LINE
8
BLACK
6
CONTINUOUS
10
29.6529
20
-50.8469
11
29.6526
21
-50.8513
0
LINE
8
BLACK
6
CONTINUOUS
10
29.6526
20
-50.8513
11
29.6534
21
-50.8555
0
LINE
8
BLACK
6
CONTINUOUS
10
29.6534
20
-50.8555
11
29.6534
21
-51.1412
0
LINE
8
BLACK
6
CONTINUOUS
10
29.6534
20
-51.1412
11
29.6526
21
-51.1455
0
LINE
8
BLACK
6
CONTINUOUS
10
29.6526
20
-51.1455
11
29.6529
21
-51.1498
0
LINE
8
BLACK
6
CONTINUOUS
10
29.6529
20
-51.1498
11
29.6504
21
-51.1582
0
LINE
8
BLACK
6
CONTINUOUS
10
29.6504
20
-51.1582
11
29.6489
21
-51.1669
0
LINE
8
BLACK
6
CONTINUOUS
10
29.6489
20
-51.1669
11
29.6467
21
-51.1706
0
LINE
8
BLACK
6
CONTINUOUS
10
29.6467
20
-51.1706
11
29.6455
21
-51.1748
0
LINE
8
BLACK
6
CONTINUOUS
10
29.6455
20
-51.1748
11
29.5978
21
-51.27
0
LINE
8
BLACK
6
CONTINUOUS
10
29.5978
20
-51.27
11
29.5907
21
-51.2797
0
LINE
8
BLACK
6
CONTINUOUS
10
29.5907
20
-51.2797
11
29.5838
21
-51.2895
0
LINE
8
BLACK
6
CONTINUOUS
10
29.5838
20
-51.2895
11
29.5362
21
-51.3371
0
LINE
8
BLACK
6
CONTINUOUS
10
29.5362
20
-51.3371
11
29.5263
21
-51.344
0
LINE
8
BLACK
6
CONTINUOUS
10
29.5263
20
-51.344
11
29.5167
21
-51.3512
0
LINE
8
BLACK
6
CONTINUOUS
10
29.5167
20
-51.3512
11
29.4214
21
-51.3988
0
LINE
8
BLACK
6
CONTINUOUS
10
29.4214
20
-51.3988
11
29.4173
21
-51.4
0
LINE
8
BLACK
6
CONTINUOUS
10
29.4173
20
-51.4
11
29.4136
21
-51.4022
0
LINE
8
BLACK
6
CONTINUOUS
10
29.4136
20
-51.4022
11
29.4049
21
-51.4037
0
LINE
8
BLACK
6
CONTINUOUS
10
29.4049
20
-51.4037
11
29.3965
21
-51.4062
0
LINE
8
BLACK
6
CONTINUOUS
10
29.3965
20
-51.4062
11
29.3922
21
-51.406
0
LINE
8
BLACK
6
CONTINUOUS
10
29.3922
20
-51.406
11
29.3879
21
-51.4067
0
LINE
8
BLACK
6
CONTINUOUS
10
29.3879
20
-51.4067
11
29.1498
21
-51.4067
0
LINE
8
BLACK
6
CONTINUOUS
10
29.1498
20
-51.4067
11
29.1455
21
-51.406
0
LINE
8
BLACK
6
CONTINUOUS
10
29.1455
20
-51.406
11
29.1412
21
-51.4062
0
LINE
8
BLACK
6
CONTINUOUS
10
29.1412
20
-51.4062
11
29.1328
21
-51.4037
0
LINE
8
BLACK
6
CONTINUOUS
10
29.1328
20
-51.4037
11
29.1242
21
-51.4022
0
LINE
8
BLACK
6
CONTINUOUS
10
29.1242
20
-51.4022
11
29.1204
21
-51.4
0
LINE
8
BLACK
6
CONTINUOUS
10
29.1204
20
-51.4
11
29.1163
21
-51.3988
0
LINE
8
BLACK
6
CONTINUOUS
10
29.1163
20
-51.3988
11
29.021
21
-51.3512
0
LINE
8
BLACK
6
CONTINUOUS
10
29.021
20
-51.3512
11
29.0114
21
-51.344
0
LINE
8
BLACK
6
CONTINUOUS
10
29.0114
20
-51.344
11
29.0015
21
-51.3371
0
LINE
8
BLACK
6
CONTINUOUS
10
29.0015
20
-51.3371
11
28.9539
21
-51.2895
0
LINE
8
BLACK
6
CONTINUOUS
10
28.9539
20
-51.2895
11
28.947
21
-51.2797
0
LINE
8
BLACK
6
CONTINUOUS
10
28.947
20
-51.2797
11
28.9399
21
-51.27
0
LINE
8
BLACK
6
CONTINUOUS
10
28.9399
20
-51.27
11
28.8923
21
-51.1748
0
LINE
8
BLACK
6
CONTINUOUS
10
28.8923
20
-51.1748
11
28.891
21
-51.1706
0
LINE
8
BLACK
6
CONTINUOUS
10
28.891
20
-51.1706
11
28.8889
21
-51.1669
0
LINE
8
BLACK
6
CONTINUOUS
10
28.8889
20
-51.1669
11
28.8878
21
-51.1607
0
LINE
8
BLACK
6
CONTINUOUS
10
28.8878
20
-51.1607
11
28.6278
21
-51.3882
0
LINE
8
BLACK
6
CONTINUOUS
10
28.6278
20
-51.3882
11
28.6215
21
-51.392
0
LINE
8
BLACK
6
CONTINUOUS
10
28.6215
20
-51.392
11
28.6159
21
-51.3967
0
LINE
8
BLACK
6
CONTINUOUS
10
28.6159
20
-51.3967
11
28.6104
21
-51.3986
0
LINE
8
BLACK
6
CONTINUOUS
10
28.6104
20
-51.3986
11
28.6055
21
-51.4016
0
LINE
8
BLACK
6
CONTINUOUS
10
28.6055
20
-51.4016
11
28.5983
21
-51.4031
0
LINE
8
BLACK
6
CONTINUOUS
10
28.5983
20
-51.4031
11
28.5914
21
-51.4056
0
LINE
8
BLACK
6
CONTINUOUS
10
28.5914
20
-51.4056
11
28.5856
21
-51.4056
0
LINE
8
BLACK
6
CONTINUOUS
10
28.5856
20
-51.4056
11
28.5799
21
-51.4067
0
LINE
8
BLACK
6
CONTINUOUS
10
28.5799
20
-51.4067
11
28.5727
21
-51.4056
0
LINE
8
BLACK
6
CONTINUOUS
10
28.5727
20
-51.4056
11
28.5654
21
-51.4056
0
LINE
8
BLACK
6
CONTINUOUS
10
28.5654
20
-51.4056
11
28.5599
21
-51.4036
0
LINE
8
BLACK
6
CONTINUOUS
10
28.5599
20
-51.4036
11
28.5542
21
-51.4027
0
LINE
8
BLACK
6
CONTINUOUS
10
28.5542
20
-51.4027
11
28.5478
21
-51.3992
0
LINE
8
BLACK
6
CONTINUOUS
10
28.5478
20
-51.3992
11
28.5409
21
-51.3967
0
LINE
8
BLACK
6
CONTINUOUS
10
28.5409
20
-51.3967
11
28.5364
21
-51.3929
0
LINE
8
BLACK
6
CONTINUOUS
10
28.5364
20
-51.3929
11
28.5314
21
-51.3902
0
LINE
8
BLACK
6
CONTINUOUS
10
28.5314
20
-51.3902
11
28.5265
21
-51.3846
0
LINE
8
BLACK
6
CONTINUOUS
10
28.5265
20
-51.3846
11
28.5209
21
-51.3799
0
LINE
8
BLACK
6
CONTINUOUS
10
28.5209
20
-51.3799
11
28.518
21
-51.3749
0
LINE
8
BLACK
6
CONTINUOUS
10
28.518
20
-51.3749
11
28.5142
21
-51.3705
0
LINE
8
BLACK
6
CONTINUOUS
10
28.5142
20
-51.3705
11
28.5116
21
-51.3637
0
LINE
8
BLACK
6
CONTINUOUS
10
28.5116
20
-51.3637
11
28.5079
21
-51.3574
0
LINE
8
BLACK
6
CONTINUOUS
10
28.5079
20
-51.3574
11
28.5069
21
-51.3517
0
LINE
8
BLACK
6
CONTINUOUS
10
28.5069
20
-51.3517
11
28.5048
21
-51.3463
0
LINE
8
BLACK
6
CONTINUOUS
10
28.5048
20
-51.3463
11
28.5047
21
-51.3389
0
LINE
8
BLACK
6
CONTINUOUS
10
28.5047
20
-51.3389
11
28.5034
21
-51.3317
0
LINE
8
BLACK
6
CONTINUOUS
10
28.5034
20
-51.3317
11
28.5034
21
-50.7127
0
LINE
8
BLACK
6
CONTINUOUS
10
28.5034
20
-50.7127
11
28.5079
21
-50.687
0
LINE
8
BLACK
6
CONTINUOUS
10
28.5079
20
-50.687
11
28.5209
21
-50.6645
0
LINE
8
BLACK
6
CONTINUOUS
10
28.5209
20
-50.6645
11
28.5409
21
-50.6477
0
LINE
8
BLACK
6
CONTINUOUS
10
28.5409
20
-50.6477
11
28.5654
21
-50.6388
0
LINE
8
BLACK
6
CONTINUOUS
10
28.5654
20
-50.6388
11
28.5914
21
-50.6388
0
LINE
8
BLACK
6
CONTINUOUS
10
28.5914
20
-50.6388
11
28.6159
21
-50.6477
0
LINE
8
BLACK
6
CONTINUOUS
10
28.6159
20
-50.6477
11
28.6358
21
-50.6645
0
LINE
8
BLACK
6
CONTINUOUS
10
28.6358
20
-50.6645
11
28.6489
21
-50.687
0
LINE
8
BLACK
6
CONTINUOUS
10
28.6489
20
-50.687
11
28.6534
21
-50.7127
0
LINE
8
BLACK
6
CONTINUOUS
10
28.6534
20
-50.7127
11
28.6534
21
-51.1664
0
LINE
8
BLACK
6
CONTINUOUS
10
28.6534
20
-51.1664
11
28.9099
21
-50.9419
0
LINE
8
BLACK
6
CONTINUOUS
10
28.9099
20
-50.9419
11
28.9162
21
-50.9381
0
LINE
8
BLACK
6
CONTINUOUS
10
28.9162
20
-50.9381
11
28.9218
21
-50.9334
0
LINE
8
BLACK
6
CONTINUOUS
10
28.9218
20
-50.9334
11
28.9273
21
-50.9314
0
LINE
8
BLACK
6
CONTINUOUS
10
28.9273
20
-50.9314
11
28.9322
21
-50.9284
0
LINE
8
BLACK
6
CONTINUOUS
10
28.9322
20
-50.9284
11
28.9394
21
-50.927
0
LINE
8
BLACK
6
CONTINUOUS
10
28.9394
20
-50.927
11
28.9463
21
-50.9245
0
LINE
8
BLACK
6
CONTINUOUS
10
28.9463
20
-50.9245
11
28.9521
21
-50.9245
0
LINE
8
BLACK
6
CONTINUOUS
10
28.9521
20
-50.9245
11
28.9578
21
-50.9234
0
LINE
8
BLACK
6
CONTINUOUS
10
28.9578
20
-50.9234
11
28.965
21
-50.9245
0
LINE
8
BLACK
6
CONTINUOUS
10
28.965
20
-50.9245
11
28.9724
21
-50.9245
0
LINE
8
BLACK
6
CONTINUOUS
10
28.9724
20
-50.9245
11
28.9778
21
-50.9265
0
LINE
8
BLACK
6
CONTINUOUS
10
28.9778
20
-50.9265
11
28.9835
21
-50.9274
0
LINE
8
BLACK
6
CONTINUOUS
10
28.9835
20
-50.9274
11
28.9899
21
-50.9309
0
LINE
8
BLACK
6
CONTINUOUS
10
28.9899
20
-50.9309
11
28.9968
21
-50.9334
0
LINE
8
BLACK
6
CONTINUOUS
10
28.9968
20
-50.9334
11
29.0013
21
-50.9372
0
LINE
8
BLACK
6
CONTINUOUS
10
29.0013
20
-50.9372
11
29.0063
21
-50.9399
0
LINE
8
BLACK
6
CONTINUOUS
10
29.0063
20
-50.9399
11
29.0112
21
-50.9455
0
LINE
8
BLACK
6
CONTINUOUS
10
29.0112
20
-50.9455
11
29.0168
21
-50.9502
0
LINE
8
BLACK
6
CONTINUOUS
10
29.0168
20
-50.9502
11
29.0197
21
-50.9552
0
LINE
8
BLACK
6
CONTINUOUS
10
29.0197
20
-50.9552
11
29.0235
21
-50.9595
0
LINE
8
BLACK
6
CONTINUOUS
10
29.0235
20
-50.9595
11
29.0261
21
-50.9664
0
LINE
8
BLACK
6
CONTINUOUS
10
29.0261
20
-50.9664
11
29.0298
21
-50.9727
0
LINE
8
BLACK
6
CONTINUOUS
10
29.0298
20
-50.9727
11
29.0308
21
-50.9784
0
LINE
8
BLACK
6
CONTINUOUS
10
29.0308
20
-50.9784
11
29.0329
21
-50.9838
0
LINE
8
BLACK
6
CONTINUOUS
10
29.0329
20
-50.9838
11
29.0331
21
-50.9912
0
LINE
8
BLACK
6
CONTINUOUS
10
29.0331
20
-50.9912
11
29.0343
21
-50.9984
0
LINE
8
BLACK
6
CONTINUOUS
10
29.0343
20
-50.9984
11
29.0343
21
-51.1235
0
LINE
8
BLACK
6
CONTINUOUS
10
29.0343
20
-51.1235
11
29.0686
21
-51.192
0
LINE
8
BLACK
6
CONTINUOUS
10
29.0686
20
-51.192
11
29.099
21
-51.2225
0
LINE
8
BLACK
6
CONTINUOUS
10
29.099
20
-51.2225
11
29.1675
21
-51.2567
0
LINE
8
BLACK
6
CONTINUOUS
10
29.1675
20
-51.2567
11
29.3702
21
-51.2567
0
LINE
8
BLACK
6
CONTINUOUS
10
29.3702
20
-51.2567
11
29.4387
21
-51.2225
0
LINE
8
BLACK
6
CONTINUOUS
10
29.4387
20
-51.2225
11
29.4691
21
-51.192
0
LINE
8
BLACK
6
CONTINUOUS
10
29.4691
20
-51.192
11
29.5034
21
-51.1235
0
LINE
8
BLACK
6
CONTINUOUS
10
29.5034
20
-51.1235
11
29.5034
21
-50.8732
0
LINE
8
BLACK
6
CONTINUOUS
10
29.5034
20
-50.8732
11
29.4691
21
-50.8047
0
LINE
8
BLACK
6
CONTINUOUS
10
29.4691
20
-50.8047
11
29.4301
21
-50.7657
0
LINE
8
BLACK
6
CONTINUOUS
10
29.4301
20
-50.7657
11
29.4152
21
-50.7444
0
LINE
8
BLACK
6
CONTINUOUS
10
29.4152
20
-50.7444
11
29.4084
21
-50.7192
0
LINE
8
BLACK
6
CONTINUOUS
10
29.4084
20
-50.7192
11
29.4107
21
-50.6933
0
LINE
8
BLACK
6
CONTINUOUS
10
29.4107
20
-50.6933
11
29.4217
21
-50.6696
0
LINE
8
BLACK
6
CONTINUOUS
10
29.4217
20
-50.6696
11
29.4401
21
-50.6512
0
LINE
8
BLACK
6
CONTINUOUS
10
29.4401
20
-50.6512
11
29.4637
21
-50.6402
0
LINE
8
BLACK
6
CONTINUOUS
10
29.4637
20
-50.6402
11
29.4897
21
-50.638
0
LINE
8
BLACK
6
CONTINUOUS
10
29.4897
20
-50.638
11
29.5148
21
-50.6447
0
LINE
8
BLACK
6
CONTINUOUS
10
35.6883
20
-49.4294
11
35.7109
21
-49.4424
0
LINE
8
BLACK
6
CONTINUOUS
10
35.7109
20
-49.4424
11
35.7276
21
-49.4624
0
LINE
8
BLACK
6
CONTINUOUS
10
35.7276
20
-49.4624
11
35.7365
21
-49.4869
0
LINE
8
BLACK
6
CONTINUOUS
10
35.7365
20
-49.4869
11
35.7365
21
-49.5129
0
LINE
8
BLACK
6
CONTINUOUS
10
35.7365
20
-49.5129
11
35.7276
21
-49.5374
0
LINE
8
BLACK
6
CONTINUOUS
10
35.7276
20
-49.5374
11
35.7109
21
-49.5574
0
LINE
8
BLACK
6
CONTINUOUS
10
35.7109
20
-49.5574
11
35.6883
21
-49.5704
0
LINE
8
BLACK
6
CONTINUOUS
10
35.6883
20
-49.5704
11
35.6626
21
-49.5749
0
LINE
8
BLACK
6
CONTINUOUS
10
35.6626
20
-49.5749
11
35.6075
21
-49.5749
0
LINE
8
BLACK
6
CONTINUOUS
10
35.6075
20
-49.5749
11
35.5348
21
-49.5991
0
LINE
8
BLACK
6
CONTINUOUS
10
35.5348
20
-49.5991
11
35.3915
21
-49.7424
0
LINE
8
BLACK
6
CONTINUOUS
10
35.3915
20
-49.7424
11
35.3673
21
-49.8151
0
LINE
8
BLACK
6
CONTINUOUS
10
35.3673
20
-49.8151
11
35.3673
21
-49.8581
0
LINE
8
BLACK
6
CONTINUOUS
10
35.3673
20
-49.8581
11
35.3915
21
-49.9308
0
LINE
8
BLACK
6
CONTINUOUS
10
35.3915
20
-49.9308
11
35.4377
21
-49.977
0
LINE
8
BLACK
6
CONTINUOUS
10
35.4377
20
-49.977
11
35.5457
21
-50.031
0
LINE
8
BLACK
6
CONTINUOUS
10
35.5457
20
-50.031
11
36.3361
21
-50.031
0
LINE
8
BLACK
6
CONTINUOUS
10
36.3361
20
-50.031
11
36.3457
21
-50.0327
0
LINE
8
BLACK
6
CONTINUOUS
10
36.3457
20
-50.0327
11
36.3555
21
-50.0335
0
LINE
8
BLACK
6
CONTINUOUS
10
36.3555
20
-50.0335
11
36.3585
21
-50.0349
0
LINE
8
BLACK
6
CONTINUOUS
10
36.3585
20
-50.0349
11
36.3617
21
-50.0355
0
LINE
8
BLACK
6
CONTINUOUS
10
36.3617
20
-50.0355
11
36.3702
21
-50.0404
0
LINE
8
BLACK
6
CONTINUOUS
10
36.3702
20
-50.0404
11
36.3791
21
-50.0446
0
LINE
8
BLACK
6
CONTINUOUS
10
36.3791
20
-50.0446
11
36.3814
21
-50.0469
0
LINE
8
BLACK
6
CONTINUOUS
10
36.3814
20
-50.0469
11
36.3843
21
-50.0485
0
LINE
8
BLACK
6
CONTINUOUS
10
36.3843
20
-50.0485
11
36.3906
21
-50.056
0
LINE
8
BLACK
6
CONTINUOUS
10
36.3906
20
-50.056
11
36.3975
21
-50.063
0
LINE
8
BLACK
6
CONTINUOUS
10
36.3975
20
-50.063
11
36.3989
21
-50.066
0
LINE
8
BLACK
6
CONTINUOUS
10
36.3989
20
-50.066
11
36.401
21
-50.0685
0
LINE
8
BLACK
6
CONTINUOUS
10
36.401
20
-50.0685
11
36.4044
21
-50.0777
0
LINE
8
BLACK
6
CONTINUOUS
10
36.4044
20
-50.0777
11
36.4085
21
-50.0866
0
LINE
8
BLACK
6
CONTINUOUS
10
36.4085
20
-50.0866
11
36.4088
21
-50.0899
0
LINE
8
BLACK
6
CONTINUOUS
10
36.4088
20
-50.0899
11
36.4099
21
-50.093
0
LINE
8
BLACK
6
CONTINUOUS
10
36.4099
20
-50.093
11
36.4099
21
-50.1028
0
LINE
8
BLACK
6
CONTINUOUS
10
36.4099
20
-50.1028
11
36.4108
21
-50.1125
0
LINE
8
BLACK
6
CONTINUOUS
10
36.4108
20
-50.1125
11
36.4099
21
-50.1157
0
LINE
8
BLACK
6
CONTINUOUS
10
36.4099
20
-50.1157
11
36.4099
21
-50.119
0
LINE
8
BLACK
6
CONTINUOUS
10
36.4099
20
-50.119
11
36.4066
21
-50.1282
0
LINE
8
BLACK
6
CONTINUOUS
10
36.4066
20
-50.1282
11
36.4041
21
-50.1377
0
LINE
8
BLACK
6
CONTINUOUS
10
36.4041
20
-50.1377
11
36.4022
21
-50.1404
0
LINE
8
BLACK
6
CONTINUOUS
10
36.4022
20
-50.1404
11
36.401
21
-50.1435
0
LINE
8
BLACK
6
CONTINUOUS
10
36.401
20
-50.1435
11
36.3947
21
-50.151
0
LINE
8
BLACK
6
CONTINUOUS
10
36.3947
20
-50.151
11
36.3891
21
-50.159
0
LINE
8
BLACK
6
CONTINUOUS
10
36.3891
20
-50.159
11
35.9514
21
-50.5968
0
LINE
8
BLACK
6
CONTINUOUS
10
35.9514
20
-50.5968
11
35.93
21
-50.6117
0
LINE
8
BLACK
6
CONTINUOUS
10
35.93
20
-50.6117
11
35.9049
21
-50.6184
0
LINE
8
BLACK
6
CONTINUOUS
10
35.9049
20
-50.6184
11
35.8789
21
-50.6162
0
LINE
8
BLACK
6
CONTINUOUS
10
35.8789
20
-50.6162
11
35.8553
21
-50.6052
0
LINE
8
BLACK
6
CONTINUOUS
10
35.8553
20
-50.6052
11
35.8369
21
-50.5867
0
LINE
8
BLACK
6
CONTINUOUS
10
35.8369
20
-50.5867
11
35.8259
21
-50.5631
0
LINE
8
BLACK
6
CONTINUOUS
10
35.8259
20
-50.5631
11
35.8236
21
-50.5372
0
LINE
8
BLACK
6
CONTINUOUS
10
35.8236
20
-50.5372
11
35.8304
21
-50.512
0
LINE
8
BLACK
6
CONTINUOUS
10
35.8304
20
-50.512
11
35.8453
21
-50.4907
0
LINE
8
BLACK
6
CONTINUOUS
10
35.8453
20
-50.4907
11
36.155
21
-50.181
0
LINE
8
BLACK
6
CONTINUOUS
10
36.155
20
-50.181
11
35.528
21
-50.181
0
LINE
8
BLACK
6
CONTINUOUS
10
35.528
20
-50.181
11
35.5237
21
-50.1802
0
LINE
8
BLACK
6
CONTINUOUS
10
35.5237
20
-50.1802
11
35.5194
21
-50.1805
0
LINE
8
BLACK
6
CONTINUOUS
10
35.5194
20
-50.1805
11
35.511
21
-50.178
0
LINE
8
BLACK
6
CONTINUOUS
10
35.511
20
-50.178
11
35.5023
21
-50.1765
0
LINE
8
BLACK
6
CONTINUOUS
10
35.5023
20
-50.1765
11
35.4986
21
-50.1743
0
LINE
8
BLACK
6
CONTINUOUS
10
35.4986
20
-50.1743
11
35.4944
21
-50.1731
0
LINE
8
BLACK
6
CONTINUOUS
10
35.4944
20
-50.1731
11
35.3597
21
-50.1057
0
LINE
8
BLACK
6
CONTINUOUS
10
35.3597
20
-50.1057
11
35.3501
21
-50.0986
0
LINE
8
BLACK
6
CONTINUOUS
10
35.3501
20
-50.0986
11
35.3402
21
-50.0917
0
LINE
8
BLACK
6
CONTINUOUS
10
35.3402
20
-50.0917
11
35.2729
21
-50.0243
0
LINE
8
BLACK
6
CONTINUOUS
10
35.2729
20
-50.0243
11
35.2704
21
-50.0208
0
LINE
8
BLACK
6
CONTINUOUS
10
35.2704
20
-50.0208
11
35.2672
21
-50.0179
0
LINE
8
BLACK
6
CONTINUOUS
10
35.2672
20
-50.0179
11
35.263
21
-50.0102
0
LINE
8
BLACK
6
CONTINUOUS
10
35.263
20
-50.0102
11
35.258
21
-50.003
0
LINE
8
BLACK
6
CONTINUOUS
10
35.258
20
-50.003
11
35.2568
21
-49.9988
0
LINE
8
BLACK
6
CONTINUOUS
10
35.2568
20
-49.9988
11
35.2548
21
-49.995
0
LINE
8
BLACK
6
CONTINUOUS
10
35.2548
20
-49.995
11
35.2211
21
-49.894
0
LINE
8
BLACK
6
CONTINUOUS
10
35.2211
20
-49.894
11
35.2193
21
-49.8821
0
LINE
8
BLACK
6
CONTINUOUS
10
35.2193
20
-49.8821
11
35.2173
21
-49.8703
0
LINE
8
BLACK
6
CONTINUOUS
10
35.2173
20
-49.8703
11
35.2173
21
-49.8029
0
LINE
8
BLACK
6
CONTINUOUS
10
35.2173
20
-49.8029
11
35.2193
21
-49.7911
0
LINE
8
BLACK
6
CONTINUOUS
10
35.2193
20
-49.7911
11
35.2211
21
-49.7792
0
LINE
8
BLACK
6
CONTINUOUS
10
35.2211
20
-49.7792
11
35.2548
21
-49.6782
0
LINE
8
BLACK
6
CONTINUOUS
10
35.2548
20
-49.6782
11
35.2568
21
-49.6744
0
LINE
8
BLACK
6
CONTINUOUS
10
35.2568
20
-49.6744
11
35.258
21
-49.6702
0
LINE
8
BLACK
6
CONTINUOUS
10
35.258
20
-49.6702
11
35.263
21
-49.663
0
LINE
8
BLACK
6
CONTINUOUS
10
35.263
20
-49.663
11
35.2672
21
-49.6553
0
LINE
8
BLACK
6
CONTINUOUS
10
35.2672
20
-49.6553
11
35.2704
21
-49.6524
0
LINE
8
BLACK
6
CONTINUOUS
10
35.2704
20
-49.6524
11
35.2729
21
-49.6489
0
LINE
8
BLACK
6
CONTINUOUS
10
35.2729
20
-49.6489
11
35.4413
21
-49.4805
0
LINE
8
BLACK
6
CONTINUOUS
10
35.4413
20
-49.4805
11
35.4448
21
-49.4781
0
LINE
8
BLACK
6
CONTINUOUS
10
35.4448
20
-49.4781
11
35.4477
21
-49.4748
0
LINE
8
BLACK
6
CONTINUOUS
10
35.4477
20
-49.4748
11
35.4554
21
-49.4706
0
LINE
8
BLACK
6
CONTINUOUS
10
35.4554
20
-49.4706
11
35.4626
21
-49.4656
0
LINE
8
BLACK
6
CONTINUOUS
10
35.4626
20
-49.4656
11
35.4668
21
-49.4645
0
LINE
8
BLACK
6
CONTINUOUS
10
35.4668
20
-49.4645
11
35.4706
21
-49.4624
0
LINE
8
BLACK
6
CONTINUOUS
10
35.4706
20
-49.4624
11
35.5716
21
-49.4287
0
LINE
8
BLACK
6
CONTINUOUS
10
35.5716
20
-49.4287
11
35.5835
21
-49.427
0
LINE
8
BLACK
6
CONTINUOUS
10
35.5835
20
-49.427
11
35.5953
21
-49.4249
0
LINE
8
BLACK
6
CONTINUOUS
10
35.5953
20
-49.4249
11
35.6626
21
-49.4249
0
LINE
8
BLACK
6
CONTINUOUS
10
35.6626
20
-49.4249
11
35.6883
21
-49.4294
0
LINE
8
BLACK
6
CONTINUOUS
10
29.604
20
-49.7374
11
29.6266
21
-49.7505
0
LINE
8
BLACK
6
CONTINUOUS
10
29.6266
20
-49.7505
11
29.6433
21
-49.7704
0
LINE
8
BLACK
6
CONTINUOUS
10
29.6433
20
-49.7704
11
29.6522
21
-49.7949
0
LINE
8
BLACK
6
CONTINUOUS
10
29.6522
20
-49.7949
11
29.6522
21
-49.8209
0
LINE
8
BLACK
6
CONTINUOUS
10
29.6522
20
-49.8209
11
29.6433
21
-49.8454
0
LINE
8
BLACK
6
CONTINUOUS
10
29.6433
20
-49.8454
11
29.6266
21
-49.8654
0
LINE
8
BLACK
6
CONTINUOUS
10
29.6266
20
-49.8654
11
29.604
21
-49.8784
0
LINE
8
BLACK
6
CONTINUOUS
10
29.604
20
-49.8784
11
29.5784
21
-49.8829
0
LINE
8
BLACK
6
CONTINUOUS
10
29.5784
20
-49.8829
11
29.1772
21
-49.8829
0
LINE
8
BLACK
6
CONTINUOUS
10
29.1772
20
-49.8829
11
29.1772
21
-50.007
0
LINE
8
BLACK
6
CONTINUOUS
10
29.1772
20
-50.007
11
29.6214
21
-50.3179
0
LINE
8
BLACK
6
CONTINUOUS
10
29.6214
20
-50.3179
11
29.6398
21
-50.3363
0
LINE
8
BLACK
6
CONTINUOUS
10
29.6398
20
-50.3363
11
29.6508
21
-50.3599
0
LINE
8
BLACK
6
CONTINUOUS
10
29.6508
20
-50.3599
11
29.6531
21
-50.3859
0
LINE
8
BLACK
6
CONTINUOUS
10
29.6531
20
-50.3859
11
29.6464
21
-50.411
0
LINE
8
BLACK
6
CONTINUOUS
10
29.6464
20
-50.411
11
29.6314
21
-50.4324
0
LINE
8
BLACK
6
CONTINUOUS
10
29.6314
20
-50.4324
11
29.6101
21
-50.4473
0
LINE
8
BLACK
6
CONTINUOUS
10
29.6101
20
-50.4473
11
29.5849
21
-50.454
0
LINE
8
BLACK
6
CONTINUOUS
10
29.5849
20
-50.454
11
29.559
21
-50.4518
0
LINE
8
BLACK
6
CONTINUOUS
10
29.559
20
-50.4518
11
29.5354
21
-50.4408
0
LINE
8
BLACK
6
CONTINUOUS
10
29.5354
20
-50.4408
11
29.177
21
-50.1899
0
LINE
8
BLACK
6
CONTINUOUS
10
29.177
20
-50.1899
11
29.1764
21
-50.1931
0
LINE
8
BLACK
6
CONTINUOUS
10
29.1764
20
-50.1931
11
29.1767
21
-50.1974
0
LINE
8
BLACK
6
CONTINUOUS
10
29.1767
20
-50.1974
11
29.1742
21
-50.2059
0
LINE
8
BLACK
6
CONTINUOUS
10
29.1742
20
-50.2059
11
29.1727
21
-50.2145
0
LINE
8
BLACK
6
CONTINUOUS
10
29.1727
20
-50.2145
11
29.1705
21
-50.2183
0
LINE
8
BLACK
6
CONTINUOUS
10
29.1705
20
-50.2183
11
29.1693
21
-50.2224
0
LINE
8
BLACK
6
CONTINUOUS
10
29.1693
20
-50.2224
11
29.1217
21
-50.3176
0
LINE
8
BLACK
6
CONTINUOUS
10
29.1217
20
-50.3176
11
29.1145
21
-50.3273
0
LINE
8
BLACK
6
CONTINUOUS
10
29.1145
20
-50.3273
11
29.1076
21
-50.3371
0
LINE
8
BLACK
6
CONTINUOUS
10
29.1076
20
-50.3371
11
29.06
21
-50.3847
0
LINE
8
BLACK
6
CONTINUOUS
10
29.06
20
-50.3847
11
29.0502
21
-50.3916
0
LINE
8
BLACK
6
CONTINUOUS
10
29.0502
20
-50.3916
11
29.0405
21
-50.3988
0
LINE
8
BLACK
6
CONTINUOUS
10
29.0405
20
-50.3988
11
28.9453
21
-50.4464
0
LINE
8
BLACK
6
CONTINUOUS
10
28.9453
20
-50.4464
11
28.9411
21
-50.4476
0
LINE
8
BLACK
6
CONTINUOUS
10
28.9411
20
-50.4476
11
28.9374
21
-50.4498
0
LINE
8
BLACK
6
CONTINUOUS
10
28.9374
20
-50.4498
11
28.9287
21
-50.4513
0
LINE
8
BLACK
6
CONTINUOUS
10
28.9287
20
-50.4513
11
28.9203
21
-50.4538
0
LINE
8
BLACK
6
CONTINUOUS
10
28.9203
20
-50.4538
11
28.916
21
-50.4536
0
LINE
8
BLACK
6
CONTINUOUS
10
28.916
20
-50.4536
11
28.9117
21
-50.4543
0
LINE
8
BLACK
6
CONTINUOUS
10
28.9117
20
-50.4543
11
28.7689
21
-50.4543
0
LINE
8
BLACK
6
CONTINUOUS
10
28.7689
20
-50.4543
11
28.7646
21
-50.4536
0
LINE
8
BLACK
6
CONTINUOUS
10
28.7646
20
-50.4536
11
28.7603
21
-50.4538
0
LINE
8
BLACK
6
CONTINUOUS
10
28.7603
20
-50.4538
11
28.7519
21
-50.4513
0
LINE
8
BLACK
6
CONTINUOUS
10
28.7519
20
-50.4513
11
28.7432
21
-50.4498
0
LINE
8
BLACK
6
CONTINUOUS
10
28.7432
20
-50.4498
11
28.7395
21
-50.4476
0
LINE
8
BLACK
6
CONTINUOUS
10
28.7395
20
-50.4476
11
28.7353
21
-50.4464
0
LINE
8
BLACK
6
CONTINUOUS
10
28.7353
20
-50.4464
11
28.6401
21
-50.3988
0
LINE
8
BLACK
6
CONTINUOUS
10
28.6401
20
-50.3988
11
28.6304
21
-50.3916
0
LINE
8
BLACK
6
CONTINUOUS
10
28.6304
20
-50.3916
11
28.6206
21
-50.3847
0
LINE
8
BLACK
6
CONTINUOUS
10
28.6206
20
-50.3847
11
28.573
21
-50.3371
0
LINE
8
BLACK
6
CONTINUOUS
10
28.573
20
-50.3371
11
28.5661
21
-50.3273
0
LINE
8
BLACK
6
CONTINUOUS
10
28.5661
20
-50.3273
11
28.5589
21
-50.3176
0
LINE
8
BLACK
6
CONTINUOUS
10
28.5589
20
-50.3176
11
28.5113
21
-50.2224
0
LINE
8
BLACK
6
CONTINUOUS
10
28.5113
20
-50.2224
11
28.5101
21
-50.2183
0
LINE
8
BLACK
6
CONTINUOUS
10
28.5101
20
-50.2183
11
28.5079
21
-50.2145
0
LINE
8
BLACK
6
CONTINUOUS
10
28.5079
20
-50.2145
11
28.5064
21
-50.2059
0
LINE
8
BLACK
6
CONTINUOUS
10
28.5064
20
-50.2059
11
28.5039
21
-50.1974
0
LINE
8
BLACK
6
CONTINUOUS
10
28.5039
20
-50.1974
11
28.5041
21
-50.1931
0
LINE
8
BLACK
6
CONTINUOUS
10
28.5041
20
-50.1931
11
28.5034
21
-50.1889
0
LINE
8
BLACK
6
CONTINUOUS
10
28.5034
20
-50.1889
11
28.5034
21
-49.8079
0
LINE
8
BLACK
6
CONTINUOUS
10
28.5034
20
-49.8079
11
28.5045
21
-49.8014
0
LINE
8
BLACK
6
CONTINUOUS
10
28.5045
20
-49.8014
11
28.5045
21
-49.7949
0
LINE
8
BLACK
6
CONTINUOUS
10
28.5045
20
-49.7949
11
28.5068
21
-49.7887
0
LINE
8
BLACK
6
CONTINUOUS
10
28.5068
20
-49.7887
11
28.5079
21
-49.7823
0
LINE
8
BLACK
6
CONTINUOUS
10
28.5079
20
-49.7823
11
28.5112
21
-49.7766
0
LINE
8
BLACK
6
CONTINUOUS
10
28.5112
20
-49.7766
11
28.5134
21
-49.7704
0
LINE
8
BLACK
6
CONTINUOUS
10
28.5134
20
-49.7704
11
28.5176
21
-49.7654
0
LINE
8
BLACK
6
CONTINUOUS
10
28.5176
20
-49.7654
11
28.5209
21
-49.7597
0
LINE
8
BLACK
6
CONTINUOUS
10
28.5209
20
-49.7597
11
28.526
21
-49.7555
0
LINE
8
BLACK
6
CONTINUOUS
10
28.526
20
-49.7555
11
28.5302
21
-49.7505
0
LINE
8
BLACK
6
CONTINUOUS
10
28.5302
20
-49.7505
11
28.5359
21
-49.7472
0
LINE
8
BLACK
6
CONTINUOUS
10
28.5359
20
-49.7472
11
28.5409
21
-49.743
0
LINE
8
BLACK
6
CONTINUOUS
10
28.5409
20
-49.743
11
28.547
21
-49.7407
0
LINE
8
BLACK
6
CONTINUOUS
10
28.547
20
-49.7407
11
28.5527
21
-49.7374
0
LINE
8
BLACK
6
CONTINUOUS
10
28.5527
20
-49.7374
11
28.5592
21
-49.7363
0
LINE
8
BLACK
6
CONTINUOUS
10
28.5592
20
-49.7363
11
28.5654
21
-49.734
0
LINE
8
BLACK
6
CONTINUOUS
10
28.5654
20
-49.734
11
28.5719
21
-49.734
0
LINE
8
BLACK
6
CONTINUOUS
10
28.5719
20
-49.734
11
28.5784
21
-49.7329
0
LINE
8
BLACK
6
CONTINUOUS
10
28.5784
20
-49.7329
11
29.5784
21
-49.7329
0
LINE
8
BLACK
6
CONTINUOUS
10
29.5784
20
-49.7329
11
29.604
21
-49.7374
0
LINE
8
BLACK
6
CONTINUOUS
10
28.6534
20
-49.8829
11
28.6534
21
-50.1712
0
LINE
8
BLACK
6
CONTINUOUS
10
28.6534
20
-50.1712
11
28.6876
21
-50.2397
0
LINE
8
BLACK
6
CONTINUOUS
10
28.6876
20
-50.2397
11
28.718
21
-50.2701
0
LINE
8
BLACK
6
CONTINUOUS
10
28.718
20
-50.2701
11
28.7866
21
-50.3043
0
LINE
8
BLACK
6
CONTINUOUS
10
28.7866
20
-50.3043
11
28.894
21
-50.3043
0
LINE
8
BLACK
6
CONTINUOUS
10
28.894
20
-50.3043
11
28.9625
21
-50.2701
0
LINE
8
BLACK
6
CONTINUOUS
10
28.9625
20
-50.2701
11
28.9929
21
-50.2397
0
LINE
8
BLACK
6
CONTINUOUS
10
28.9929
20
-50.2397
11
29.0272
21
-50.1712
0
LINE
8
BLACK
6
CONTINUOUS
10
29.0272
20
-50.1712
11
29.0272
21
-49.8829
0
LINE
8
BLACK
6
CONTINUOUS
10
29.0272
20
-49.8829
11
28.6534
21
-49.8829
0
LINE
8
BLACK
6
CONTINUOUS
10
36.2816
20
-48.6861
11
36.2882
21
-48.6867
0
LINE
8
BLACK
6
CONTINUOUS
10
36.2882
20
-48.6867
11
36.2941
21
-48.6895
0
LINE
8
BLACK
6
CONTINUOUS
10
36.2941
20
-48.6895
11
36.3004
21
-48.6911
0
LINE
8
BLACK
6
CONTINUOUS
10
36.3004
20
-48.6911
11
36.3058
21
-48.6949
0
LINE
8
BLACK
6
CONTINUOUS
10
36.3058
20
-48.6949
11
36.3118
21
-48.6977
0
LINE
8
BLACK
6
CONTINUOUS
10
36.3118
20
-48.6977
11
36.3164
21
-48.7023
0
LINE
8
BLACK
6
CONTINUOUS
10
36.3164
20
-48.7023
11
36.3218
21
-48.7061
0
LINE
8
BLACK
6
CONTINUOUS
10
36.3218
20
-48.7061
11
37.0289
21
-49.4132
0
LINE
8
BLACK
6
CONTINUOUS
10
37.0289
20
-49.4132
11
37.0438
21
-49.4345
0
LINE
8
BLACK
6
CONTINUOUS
10
37.0438
20
-49.4345
11
37.0506
21
-49.4597
0
LINE
8
BLACK
6
CONTINUOUS
10
37.0506
20
-49.4597
11
37.0483
21
-49.4856
0
LINE
8
BLACK
6
CONTINUOUS
10
37.0483
20
-49.4856
11
37.0373
21
-49.5092
0
LINE
8
BLACK
6
CONTINUOUS
10
37.0373
20
-49.5092
11
37.0189
21
-49.5277
0
LINE
8
BLACK
6
CONTINUOUS
10
37.0189
20
-49.5277
11
36.9953
21
-49.5387
0
LINE
8
BLACK
6
CONTINUOUS
10
36.9953
20
-49.5387
11
36.9693
21
-49.5409
0
LINE
8
BLACK
6
CONTINUOUS
10
36.9693
20
-49.5409
11
36.9442
21
-49.5342
0
LINE
8
BLACK
6
CONTINUOUS
10
36.9442
20
-49.5342
11
36.9228
21
-49.5193
0
LINE
8
BLACK
6
CONTINUOUS
10
36.9228
20
-49.5193
11
36.6391
21
-49.2356
0
LINE
8
BLACK
6
CONTINUOUS
10
36.6391
20
-49.2356
11
36.5514
21
-49.3233
0
LINE
8
BLACK
6
CONTINUOUS
10
36.5514
20
-49.3233
11
36.6456
21
-49.8573
0
LINE
8
BLACK
6
CONTINUOUS
10
36.6456
20
-49.8573
11
36.6456
21
-49.8833
0
LINE
8
BLACK
6
CONTINUOUS
10
36.6456
20
-49.8833
11
36.6367
21
-49.9078
0
LINE
8
BLACK
6
CONTINUOUS
10
36.6367
20
-49.9078
11
36.62
21
-49.9277
0
LINE
8
BLACK
6
CONTINUOUS
10
36.62
20
-49.9277
11
36.5974
21
-49.9408
0
LINE
8
BLACK
6
CONTINUOUS
10
36.5974
20
-49.9408
11
36.5718
21
-49.9453
0
LINE
8
BLACK
6
CONTINUOUS
10
36.5718
20
-49.9453
11
36.5461
21
-49.9408
0
LINE
8
BLACK
6
CONTINUOUS
10
36.5461
20
-49.9408
11
36.5236
21
-49.9277
0
LINE
8
BLACK
6
CONTINUOUS
10
36.5236
20
-49.9277
11
36.5068
21
-49.9078
0
LINE
8
BLACK
6
CONTINUOUS
10
36.5068
20
-49.9078
11
36.4979
21
-49.8833
0
LINE
8
BLACK
6
CONTINUOUS
10
36.4979
20
-49.8833
11
36.4219
21
-49.4525
0
LINE
8
BLACK
6
CONTINUOUS
10
36.4219
20
-49.4525
11
36.4192
21
-49.4544
0
LINE
8
BLACK
6
CONTINUOUS
10
36.4192
20
-49.4544
11
36.4164
21
-49.4576
0
LINE
8
BLACK
6
CONTINUOUS
10
36.4164
20
-49.4576
11
36.4087
21
-49.4618
0
LINE
8
BLACK
6
CONTINUOUS
10
36.4087
20
-49.4618
11
36.4015
21
-49.4669
0
LINE
8
BLACK
6
CONTINUOUS
10
36.4015
20
-49.4669
11
36.3973
21
-49.468
0
LINE
8
BLACK
6
CONTINUOUS
10
36.3973
20
-49.468
11
36.3935
21
-49.47
0
LINE
8
BLACK
6
CONTINUOUS
10
36.3935
20
-49.47
11
36.2925
21
-49.5037
0
LINE
8
BLACK
6
CONTINUOUS
10
36.2925
20
-49.5037
11
36.2806
21
-49.5055
0
LINE
8
BLACK
6
CONTINUOUS
10
36.2806
20
-49.5055
11
36.2687
21
-49.5076
0
LINE
8
BLACK
6
CONTINUOUS
10
36.2687
20
-49.5076
11
36.2014
21
-49.5076
0
LINE
8
BLACK
6
CONTINUOUS
10
36.2014
20
-49.5076
11
36.1896
21
-49.5055
0
LINE
8
BLACK
6
CONTINUOUS
10
36.1896
20
-49.5055
11
36.1777
21
-49.5037
0
LINE
8
BLACK
6
CONTINUOUS
10
36.1777
20
-49.5037
11
36.0767
21
-49.47
0
LINE
8
BLACK
6
CONTINUOUS
10
36.0767
20
-49.47
11
36.0729
21
-49.468
0
LINE
8
BLACK
6
CONTINUOUS
10
36.0729
20
-49.468
11
36.0687
21
-49.4669
0
LINE
8
BLACK
6
CONTINUOUS
10
36.0687
20
-49.4669
11
36.0615
21
-49.4618
0
LINE
8
BLACK
6
CONTINUOUS
10
36.0615
20
-49.4618
11
36.0538
21
-49.4576
0
LINE
8
BLACK
6
CONTINUOUS
10
36.0538
20
-49.4576
11
36.0509
21
-49.4544
0
LINE
8
BLACK
6
CONTINUOUS
10
36.0509
20
-49.4544
11
36.0473
21
-49.4519
0
LINE
8
BLACK
6
CONTINUOUS
10
36.0473
20
-49.4519
11
35.9463
21
-49.3509
0
LINE
8
BLACK
6
CONTINUOUS
10
35.9463
20
-49.3509
11
35.9439
21
-49.3474
0
LINE
8
BLACK
6
CONTINUOUS
10
35.9439
20
-49.3474
11
35.9406
21
-49.3445
0
LINE
8
BLACK
6
CONTINUOUS
10
35.9406
20
-49.3445
11
35.9364
21
-49.3368
0
LINE
8
BLACK
6
CONTINUOUS
10
35.9364
20
-49.3368
11
35.9314
21
-49.3296
0
LINE
8
BLACK
6
CONTINUOUS
10
35.9314
20
-49.3296
11
35.9303
21
-49.3254
0
LINE
8
BLACK
6
CONTINUOUS
10
35.9303
20
-49.3254
11
35.9282
21
-49.3216
0
LINE
8
BLACK
6
CONTINUOUS
10
35.9282
20
-49.3216
11
35.8945
21
-49.2206
0
LINE
8
BLACK
6
CONTINUOUS
10
35.8945
20
-49.2206
11
35.8928
21
-49.2087
0
LINE
8
BLACK
6
CONTINUOUS
10
35.8928
20
-49.2087
11
35.8907
21
-49.1969
0
LINE
8
BLACK
6
CONTINUOUS
10
35.8907
20
-49.1969
11
35.8907
21
-49.1295
0
LINE
8
BLACK
6
CONTINUOUS
10
35.8907
20
-49.1295
11
35.8928
21
-49.1177
0
LINE
8
BLACK
6
CONTINUOUS
10
35.8928
20
-49.1177
11
35.8945
21
-49.1058
0
LINE
8
BLACK
6
CONTINUOUS
10
35.8945
20
-49.1058
11
35.9282
21
-49.0048
0
LINE
8
BLACK
6
CONTINUOUS
10
35.9282
20
-49.0048
11
35.9303
21
-49.001
0
LINE
8
BLACK
6
CONTINUOUS
10
35.9303
20
-49.001
11
35.9314
21
-48.9968
0
LINE
8
BLACK
6
CONTINUOUS
10
35.9314
20
-48.9968
11
35.9364
21
-48.9896
0
LINE
8
BLACK
6
CONTINUOUS
10
35.9364
20
-48.9896
11
35.9406
21
-48.9819
0
LINE
8
BLACK
6
CONTINUOUS
10
35.9406
20
-48.9819
11
35.9439
21
-48.979
0
LINE
8
BLACK
6
CONTINUOUS
10
35.9439
20
-48.979
11
35.9463
21
-48.9755
0
LINE
8
BLACK
6
CONTINUOUS
10
35.9463
20
-48.9755
11
36.2157
21
-48.7061
0
LINE
8
BLACK
6
CONTINUOUS
10
36.2157
20
-48.7061
11
36.2211
21
-48.7023
0
LINE
8
BLACK
6
CONTINUOUS
10
36.2211
20
-48.7023
11
36.2257
21
-48.6977
0
LINE
8
BLACK
6
CONTINUOUS
10
36.2257
20
-48.6977
11
36.2317
21
-48.6949
0
LINE
8
BLACK
6
CONTINUOUS
10
36.2317
20
-48.6949
11
36.237
21
-48.6911
0
LINE
8
BLACK
6
CONTINUOUS
10
36.237
20
-48.6911
11
36.2434
21
-48.6895
0
LINE
8
BLACK
6
CONTINUOUS
10
36.2434
20
-48.6895
11
36.2493
21
-48.6867
0
LINE
8
BLACK
6
CONTINUOUS
10
36.2493
20
-48.6867
11
36.2559
21
-48.6861
0
LINE
8
BLACK
6
CONTINUOUS
10
36.2559
20
-48.6861
11
36.2622
21
-48.6844
0
LINE
8
BLACK
6
CONTINUOUS
10
36.2622
20
-48.6844
11
36.2687
21
-48.685
0
LINE
8
BLACK
6
CONTINUOUS
10
36.2687
20
-48.685
11
36.2753
21
-48.6844
0
LINE
8
BLACK
6
CONTINUOUS
10
36.2753
20
-48.6844
11
36.2816
21
-48.6861
0
LINE
8
BLACK
6
CONTINUOUS
10
36.0649
20
-49.069
11
36.0407
21
-49.1417
0
LINE
8
BLACK
6
CONTINUOUS
10
36.0407
20
-49.1417
11
36.0407
21
-49.1847
0
LINE
8
BLACK
6
CONTINUOUS
10
36.0407
20
-49.1847
11
36.0649
21
-49.2574
0
LINE
8
BLACK
6
CONTINUOUS
10
36.0649
20
-49.2574
11
36.1409
21
-49.3333
0
LINE
8
BLACK
6
CONTINUOUS
10
36.1409
20
-49.3333
11
36.2136
21
-49.3576
0
LINE
8
BLACK
6
CONTINUOUS
10
36.2136
20
-49.3576
11
36.2566
21
-49.3576
0
LINE
8
BLACK
6
CONTINUOUS
10
36.2566
20
-49.3576
11
36.3292
21
-49.3333
0
LINE
8
BLACK
6
CONTINUOUS
10
36.3292
20
-49.3333
11
36.5331
21
-49.1295
0
LINE
8
BLACK
6
CONTINUOUS
10
36.5331
20
-49.1295
11
36.2687
21
-48.8652
0
LINE
8
BLACK
6
CONTINUOUS
10
36.2687
20
-48.8652
11
36.0649
21
-49.069
0
LINE
8
BLACK
6
CONTINUOUS
10
36.55
20
-45.8694
11
36.5699
21
-45.8862
0
LINE
8
BLACK
6
CONTINUOUS
10
36.5699
20
-45.8862
11
36.583
21
-45.9087
0
LINE
8
BLACK
6
CONTINUOUS
10
36.583
20
-45.9087
11
36.5875
21
-45.9344
0
LINE
8
BLACK
6
CONTINUOUS
10
36.5875
20
-45.9344
11
36.5875
21
-46.7262
0
LINE
8
BLACK
6
CONTINUOUS
10
36.5875
20
-46.7262
11
36.6217
21
-46.7947
0
LINE
8
BLACK
6
CONTINUOUS
10
36.6217
20
-46.7947
11
36.6521
21
-46.8251
0
LINE
8
BLACK
6
CONTINUOUS
10
36.6521
20
-46.8251
11
36.7207
21
-46.8594
0
LINE
8
BLACK
6
CONTINUOUS
10
36.7207
20
-46.8594
11
36.8757
21
-46.8594
0
LINE
8
BLACK
6
CONTINUOUS
10
36.8757
20
-46.8594
11
36.9442
21
-46.8251
0
LINE
8
BLACK
6
CONTINUOUS
10
36.9442
20
-46.8251
11
36.9746
21
-46.7947
0
LINE
8
BLACK
6
CONTINUOUS
10
36.9746
20
-46.7947
11
37.0089
21
-46.7262
0
LINE
8
BLACK
6
CONTINUOUS
10
37.0089
20
-46.7262
11
37.0089
21
-45.9344
0
LINE
8
BLACK
6
CONTINUOUS
10
37.0089
20
-45.9344
11
37.0134
21
-45.9087
0
LINE
8
BLACK
6
CONTINUOUS
10
37.0134
20
-45.9087
11
37.0265
21
-45.8862
0
LINE
8
BLACK
6
CONTINUOUS
10
37.0265
20
-45.8862
11
37.0464
21
-45.8694
0
LINE
8
BLACK
6
CONTINUOUS
10
37.0464
20
-45.8694
11
37.0709
21
-45.8605
0
LINE
8
BLACK
6
CONTINUOUS
10
37.0709
20
-45.8605
11
37.0969
21
-45.8605
0
LINE
8
BLACK
6
CONTINUOUS
10
37.0969
20
-45.8605
11
37.1214
21
-45.8694
0
LINE
8
BLACK
6
CONTINUOUS
10
37.1214
20
-45.8694
11
37.1414
21
-45.8862
0
LINE
8
BLACK
6
CONTINUOUS
10
37.1414
20
-45.8862
11
37.1544
21
-45.9087
0
LINE
8
BLACK
6
CONTINUOUS
10
37.1544
20
-45.9087
11
37.1589
21
-45.9344
0
LINE
8
BLACK
6
CONTINUOUS
10
37.1589
20
-45.9344
11
37.1589
21
-46.7439
0
LINE
8
BLACK
6
CONTINUOUS
10
37.1589
20
-46.7439
11
37.1582
21
-46.7482
0
LINE
8
BLACK
6
CONTINUOUS
10
37.1582
20
-46.7482
11
37.1584
21
-46.7525
0
LINE
8
BLACK
6
CONTINUOUS
10
37.1584
20
-46.7525
11
37.1559
21
-46.7609
0
LINE
8
BLACK
6
CONTINUOUS
10
37.1559
20
-46.7609
11
37.1544
21
-46.7696
0
LINE
8
BLACK
6
CONTINUOUS
10
37.1544
20
-46.7696
11
37.1522
21
-46.7733
0
LINE
8
BLACK
6
CONTINUOUS
10
37.1522
20
-46.7733
11
37.151
21
-46.7774
0
LINE
8
BLACK
6
CONTINUOUS
10
37.151
20
-46.7774
11
37.1034
21
-46.8727
0
LINE
8
BLACK
6
CONTINUOUS
10
37.1034
20
-46.8727
11
37.0962
21
-46.8823
0
LINE
8
BLACK
6
CONTINUOUS
10
37.0962
20
-46.8823
11
37.0893
21
-46.8922
0
LINE
8
BLACK
6
CONTINUOUS
10
37.0893
20
-46.8922
11
37.0417
21
-46.9398
0
LINE
8
BLACK
6
CONTINUOUS
10
37.0417
20
-46.9398
11
37.0319
21
-46.9467
0
LINE
8
BLACK
6
CONTINUOUS
10
37.0319
20
-46.9467
11
37.0222
21
-46.9538
0
LINE
8
BLACK
6
CONTINUOUS
10
37.0222
20
-46.9538
11
36.927
21
-47.0015
0
LINE
8
BLACK
6
CONTINUOUS
10
36.927
20
-47.0015
11
36.9228
21
-47.0027
0
LINE
8
BLACK
6
CONTINUOUS
10
36.9228
20
-47.0027
11
36.9191
21
-47.0049
0
LINE
8
BLACK
6
CONTINUOUS
10
36.9191
20
-47.0049
11
36.9104
21
-47.0064
0
LINE
8
BLACK
6
CONTINUOUS
10
36.9104
20
-47.0064
11
36.902
21
-47.0089
0
LINE
8
BLACK
6
CONTINUOUS
10
36.902
20
-47.0089
11
36.8977
21
-47.0086
0
LINE
8
BLACK
6
CONTINUOUS
10
36.8977
20
-47.0086
11
36.8934
21
-47.0094
0
LINE
8
BLACK
6
CONTINUOUS
10
36.8934
20
-47.0094
11
36.703
21
-47.0094
0
LINE
8
BLACK
6
CONTINUOUS
10
36.703
20
-47.0094
11
36.6987
21
-47.0086
0
LINE
8
BLACK
6
CONTINUOUS
10
36.6987
20
-47.0086
11
36.6944
21
-47.0089
0
LINE
8
BLACK
6
CONTINUOUS
10
36.6944
20
-47.0089
11
36.686
21
-47.0064
0
LINE
8
BLACK
6
CONTINUOUS
10
36.686
20
-47.0064
11
36.6773
21
-47.0049
0
LINE
8
BLACK
6
CONTINUOUS
10
36.6773
20
-47.0049
11
36.6736
21
-47.0027
0
LINE
8
BLACK
6
CONTINUOUS
10
36.6736
20
-47.0027
11
36.6694
21
-47.0015
0
LINE
8
BLACK
6
CONTINUOUS
10
36.6694
20
-47.0015
11
36.5742
21
-46.9538
0
LINE
8
BLACK
6
CONTINUOUS
10
36.5742
20
-46.9538
11
36.5645
21
-46.9467
0
LINE
8
BLACK
6
CONTINUOUS
10
36.5645
20
-46.9467
11
36.5547
21
-46.9398
0
LINE
8
BLACK
6
CONTINUOUS
10
36.5547
20
-46.9398
11
36.5071
21
-46.8922
0
LINE
8
BLACK
6
CONTINUOUS
10
36.5071
20
-46.8922
11
36.5002
21
-46.8823
0
LINE
8
BLACK
6
CONTINUOUS
10
36.5002
20
-46.8823
11
36.493
21
-46.8727
0
LINE
8
BLACK
6
CONTINUOUS
10
36.493
20
-46.8727
11
36.4454
21
-46.7774
0
LINE
8
BLACK
6
CONTINUOUS
10
36.4454
20
-46.7774
11
36.4442
21
-46.7733
0
LINE
8
BLACK
6
CONTINUOUS
10
36.4442
20
-46.7733
11
36.442
21
-46.7696
0
LINE
8
BLACK
6
CONTINUOUS
10
36.442
20
-46.7696
11
36.4405
21
-46.7609
0
LINE
8
BLACK
6
CONTINUOUS
10
36.4405
20
-46.7609
11
36.438
21
-46.7525
0
LINE
8
BLACK
6
CONTINUOUS
10
36.438
20
-46.7525
11
36.4382
21
-46.7482
0
LINE
8
BLACK
6
CONTINUOUS
10
36.4382
20
-46.7482
11
36.4375
21
-46.7439
0
LINE
8
BLACK
6
CONTINUOUS
10
36.4375
20
-46.7439
11
36.4375
21
-45.9344
0
LINE
8
BLACK
6
CONTINUOUS
10
36.4375
20
-45.9344
11
36.442
21
-45.9087
0
LINE
8
BLACK
6
CONTINUOUS
10
36.442
20
-45.9087
11
36.455
21
-45.8862
0
LINE
8
BLACK
6
CONTINUOUS
10
36.455
20
-45.8862
11
36.475
21
-45.8694
0
LINE
8
BLACK
6
CONTINUOUS
10
36.475
20
-45.8694
11
36.4995
21
-45.8605
0
LINE
8
BLACK
6
CONTINUOUS
10
36.4995
20
-45.8605
11
36.5255
21
-45.8605
0
LINE
8
BLACK
6
CONTINUOUS
10
36.5255
20
-45.8605
11
36.55
21
-45.8694
0
LINE
8
BLACK
6
CONTINUOUS
10
35.9453
20
-45.8601
11
35.9496
21
-45.8599
0
LINE
8
BLACK
6
CONTINUOUS
10
35.9496
20
-45.8599
11
35.958
21
-45.8624
0
LINE
8
BLACK
6
CONTINUOUS
10
35.958
20
-45.8624
11
35.9667
21
-45.8639
0
LINE
8
BLACK
6
CONTINUOUS
10
35.9667
20
-45.8639
11
35.9704
21
-45.8661
0
LINE
8
BLACK
6
CONTINUOUS
10
35.9704
20
-45.8661
11
35.9746
21
-45.8673
0
LINE
8
BLACK
6
CONTINUOUS
10
35.9746
20
-45.8673
11
36.0698
21
-45.9149
0
LINE
8
BLACK
6
CONTINUOUS
10
36.0698
20
-45.9149
11
36.0795
21
-45.9221
0
LINE
8
BLACK
6
CONTINUOUS
10
36.0795
20
-45.9221
11
36.0893
21
-45.929
0
LINE
8
BLACK
6
CONTINUOUS
10
36.0893
20
-45.929
11
36.1369
21
-45.9766
0
LINE
8
BLACK
6
CONTINUOUS
10
36.1369
20
-45.9766
11
36.1519
21
-45.9979
0
LINE
8
BLACK
6
CONTINUOUS
10
36.1519
20
-45.9979
11
36.1586
21
-46.0231
0
LINE
8
BLACK
6
CONTINUOUS
10
36.1586
20
-46.0231
11
36.1563
21
-46.049
0
LINE
8
BLACK
6
CONTINUOUS
10
36.1563
20
-46.049
11
36.1453
21
-46.0726
0
LINE
8
BLACK
6
CONTINUOUS
10
36.1453
20
-46.0726
11
36.1269
21
-46.0911
0
LINE
8
BLACK
6
CONTINUOUS
10
36.1269
20
-46.0911
11
36.1033
21
-46.1021
0
LINE
8
BLACK
6
CONTINUOUS
10
36.1033
20
-46.1021
11
36.0774
21
-46.1043
0
LINE
8
BLACK
6
CONTINUOUS
10
36.0774
20
-46.1043
11
36.0522
21
-46.0976
0
LINE
8
BLACK
6
CONTINUOUS
10
36.0522
20
-46.0976
11
36.0309
21
-46.0827
0
LINE
8
BLACK
6
CONTINUOUS
10
36.0309
20
-46.0827
11
35.9919
21
-46.0436
0
LINE
8
BLACK
6
CONTINUOUS
10
35.9919
20
-46.0436
11
35.9233
21
-46.0094
0
LINE
8
BLACK
6
CONTINUOUS
10
35.9233
20
-46.0094
11
35.7207
21
-46.0094
0
LINE
8
BLACK
6
CONTINUOUS
10
35.7207
20
-46.0094
11
35.6521
21
-46.0436
0
LINE
8
BLACK
6
CONTINUOUS
10
35.6521
20
-46.0436
11
35.6217
21
-46.074
0
LINE
8
BLACK
6
CONTINUOUS
10
35.6217
20
-46.074
11
35.5875
21
-46.1426
0
LINE
8
BLACK
6
CONTINUOUS
10
35.5875
20
-46.1426
11
35.5875
21
-46.2079
0
LINE
8
BLACK
6
CONTINUOUS
10
35.5875
20
-46.2079
11
35.6256
21
-46.3224
0
LINE
8
BLACK
6
CONTINUOUS
10
35.6256
20
-46.3224
11
36.1846
21
-46.8813
0
LINE
8
BLACK
6
CONTINUOUS
10
36.1846
20
-46.8813
11
36.1902
21
-46.8894
0
LINE
8
BLACK
6
CONTINUOUS
10
36.1902
20
-46.8894
11
36.1965
21
-46.8969
0
LINE
8
BLACK
6
CONTINUOUS
10
36.1965
20
-46.8969
11
36.1976
21
-46.9
0
LINE
8
BLACK
6
CONTINUOUS
10
36.1976
20
-46.9
11
36.1995
21
-46.9027
0
LINE
8
BLACK
6
CONTINUOUS
10
36.1995
20
-46.9027
11
36.202
21
-46.9121
0
LINE
8
BLACK
6
CONTINUOUS
10
36.202
20
-46.9121
11
36.2054
21
-46.9214
0
LINE
8
BLACK
6
CONTINUOUS
10
36.2054
20
-46.9214
11
36.2054
21
-46.9247
0
LINE
8
BLACK
6
CONTINUOUS
10
36.2054
20
-46.9247
11
36.2062
21
-46.9278
0
LINE
8
BLACK
6
CONTINUOUS
10
36.2062
20
-46.9278
11
36.2054
21
-46.9376
0
LINE
8
BLACK
6
CONTINUOUS
10
36.2054
20
-46.9376
11
36.2054
21
-46.9474
0
LINE
8
BLACK
6
CONTINUOUS
10
36.2054
20
-46.9474
11
36.2043
21
-46.9505
0
LINE
8
BLACK
6
CONTINUOUS
10
36.2043
20
-46.9505
11
36.204
21
-46.9538
0
LINE
8
BLACK
6
CONTINUOUS
10
36.204
20
-46.9538
11
36.1998
21
-46.9627
0
LINE
8
BLACK
6
CONTINUOUS
10
36.1998
20
-46.9627
11
36.1965
21
-46.9719
0
LINE
8
BLACK
6
CONTINUOUS
10
36.1965
20
-46.9719
11
36.1944
21
-46.9744
0
LINE
8
BLACK
6
CONTINUOUS
10
36.1944
20
-46.9744
11
36.193
21
-46.9774
0
LINE
8
BLACK
6
CONTINUOUS
10
36.193
20
-46.9774
11
36.186
21
-46.9843
0
LINE
8
BLACK
6
CONTINUOUS
10
36.186
20
-46.9843
11
36.1797
21
-46.9918
0
LINE
8
BLACK
6
CONTINUOUS
10
36.1797
20
-46.9918
11
36.1769
21
-46.9935
0
LINE
8
BLACK
6
CONTINUOUS
10
36.1769
20
-46.9935
11
36.1745
21
-46.9958
0
LINE
8
BLACK
6
CONTINUOUS
10
36.1745
20
-46.9958
11
36.1657
21
-47
0
LINE
8
BLACK
6
CONTINUOUS
10
36.1657
20
-47
11
36.1572
21
-47.0049
0
LINE
8
BLACK
6
CONTINUOUS
10
36.1572
20
-47.0049
11
36.1539
21
-47.0054
0
LINE
8
BLACK
6
CONTINUOUS
10
36.1539
20
-47.0054
11
36.1509
21
-47.0068
0
LINE
8
BLACK
6
CONTINUOUS
10
36.1509
20
-47.0068
11
36.1412
21
-47.0077
0
LINE
8
BLACK
6
CONTINUOUS
10
36.1412
20
-47.0077
11
36.1315
21
-47.0094
0
LINE
8
BLACK
6
CONTINUOUS
10
36.1315
20
-47.0094
11
35.5125
21
-47.0094
0
LINE
8
BLACK
6
CONTINUOUS
10
35.5125
20
-47.0094
11
35.4868
21
-47.0049
0
LINE
8
BLACK
6
CONTINUOUS
10
35.4868
20
-47.0049
11
35.4643
21
-46.9918
0
LINE
8
BLACK
6
CONTINUOUS
10
35.4643
20
-46.9918
11
35.4475
21
-46.9719
0
LINE
8
BLACK
6
CONTINUOUS
10
35.4475
20
-46.9719
11
35.4386
21
-46.9474
0
LINE
8
BLACK
6
CONTINUOUS
10
35.4386
20
-46.9474
11
35.4386
21
-46.9214
0
LINE
8
BLACK
6
CONTINUOUS
10
35.4386
20
-46.9214
11
35.4475
21
-46.8969
0
LINE
8
BLACK
6
CONTINUOUS
10
35.4475
20
-46.8969
11
35.4643
21
-46.8769
0
LINE
8
BLACK
6
CONTINUOUS
10
35.4643
20
-46.8769
11
35.4868
21
-46.8639
0
LINE
8
BLACK
6
CONTINUOUS
10
35.4868
20
-46.8639
11
35.5125
21
-46.8594
0
LINE
8
BLACK
6
CONTINUOUS
10
35.5125
20
-46.8594
11
35.9505
21
-46.8594
0
LINE
8
BLACK
6
CONTINUOUS
10
35.9505
20
-46.8594
11
35.5071
21
-46.416
0
LINE
8
BLACK
6
CONTINUOUS
10
35.5071
20
-46.416
11
35.5046
21
-46.4124
0
LINE
8
BLACK
6
CONTINUOUS
10
35.5046
20
-46.4124
11
35.5013
21
-46.4096
0
LINE
8
BLACK
6
CONTINUOUS
10
35.5013
20
-46.4096
11
35.4972
21
-46.4018
0
LINE
8
BLACK
6
CONTINUOUS
10
35.4972
20
-46.4018
11
35.4921
21
-46.3946
0
LINE
8
BLACK
6
CONTINUOUS
10
35.4921
20
-46.3946
11
35.491
21
-46.3905
0
LINE
8
BLACK
6
CONTINUOUS
10
35.491
20
-46.3905
11
35.4889
21
-46.3867
0
LINE
8
BLACK
6
CONTINUOUS
10
35.4889
20
-46.3867
11
35.4413
21
-46.2438
0
LINE
8
BLACK
6
CONTINUOUS
10
35.4413
20
-46.2438
11
35.4396
21
-46.2319
0
LINE
8
BLACK
6
CONTINUOUS
10
35.4396
20
-46.2319
11
35.4375
21
-46.2201
0
LINE
8
BLACK
6
CONTINUOUS
10
35.4375
20
-46.2201
11
35.4375
21
-46.1249
0
LINE
8
BLACK
6
CONTINUOUS
10
35.4375
20
-46.1249
11
35.4382
21
-46.1206
0
LINE
8
BLACK
6
CONTINUOUS
10
35.4382
20
-46.1206
11
35.438
21
-46.1163
0
LINE
8
BLACK
6
CONTINUOUS
10
35.438
20
-46.1163
11
35.4405
21
-46.1079
0
LINE
8
BLACK
6
CONTINUOUS
10
35.4405
20
-46.1079
11
35.442
21
-46.0992
0
LINE
8
BLACK
6
CONTINUOUS
10
35.442
20
-46.0992
11
35.4442
21
-46.0955
0
LINE
8
BLACK
6
CONTINUOUS
10
35.4442
20
-46.0955
11
35.4454
21
-46.0913
0
LINE
8
BLACK
6
CONTINUOUS
10
35.4454
20
-46.0913
11
35.493
21
-45.9961
0
LINE
8
BLACK
6
CONTINUOUS
10
35.493
20
-45.9961
11
35.5002
21
-45.9864
0
LINE
8
BLACK
6
CONTINUOUS
10
35.5002
20
-45.9864
11
35.5071
21
-45.9766
0
LINE
8
BLACK
6
CONTINUOUS
10
35.5071
20
-45.9766
11
35.5547
21
-45.929
0
LINE
8
BLACK
6
CONTINUOUS
10
35.5547
20
-45.929
11
35.5645
21
-45.9221
0
LINE
8
BLACK
6
CONTINUOUS
10
35.5645
20
-45.9221
11
35.5742
21
-45.9149
0
LINE
8
BLACK
6
CONTINUOUS
10
35.5742
20
-45.9149
11
35.6694
21
-45.8673
0
LINE
8
BLACK
6
CONTINUOUS
10
35.6694
20
-45.8673
11
35.6736
21
-45.8661
0
LINE
8
BLACK
6
CONTINUOUS
10
35.6736
20
-45.8661
11
35.6773
21
-45.8639
0
LINE
8
BLACK
6
CONTINUOUS
10
35.6773
20
-45.8639
11
35.686
21
-45.8624
0
LINE
8
BLACK
6
CONTINUOUS
10
35.686
20
-45.8624
11
35.6944
21
-45.8599
0
LINE
8
BLACK
6
CONTINUOUS
10
35.6944
20
-45.8599
11
35.6987
21
-45.8601
0
LINE
8
BLACK
6
CONTINUOUS
10
35.6987
20
-45.8601
11
35.703
21
-45.8594
0
LINE
8
BLACK
6
CONTINUOUS
10
35.703
20
-45.8594
11
35.941
21
-45.8594
0
LINE
8
BLACK
6
CONTINUOUS
10
35.941
20
-45.8594
11
35.9453
21
-45.8601
0
LINE
8
BLACK
6
CONTINUOUS
10
26.3525
20
-53.0492
11
26.3687
21
-53.0628
0
LINE
8
BLACK
6
CONTINUOUS
10
26.3687
20
-53.0628
11
26.3793
21
-53.0812
0
LINE
8
BLACK
6
CONTINUOUS
10
26.3793
20
-53.0812
11
26.382
21
-53.0968
0
LINE
8
BLACK
6
CONTINUOUS
10
26.382
20
-53.0968
11
26.382
21
-55.1072
0
LINE
8
BLACK
6
CONTINUOUS
10
26.382
20
-55.1072
11
26.3793
21
-55.1228
0
LINE
8
BLACK
6
CONTINUOUS
10
26.3793
20
-55.1228
11
26.3687
21
-55.1412
0
LINE
8
BLACK
6
CONTINUOUS
10
26.3687
20
-55.1412
11
26.3525
21
-55.1548
0
LINE
8
BLACK
6
CONTINUOUS
10
26.3525
20
-55.1548
11
26.3326
21
-55.162
0
LINE
8
BLACK
6
CONTINUOUS
10
26.3326
20
-55.162
11
26.3114
21
-55.162
0
LINE
8
BLACK
6
CONTINUOUS
10
26.3114
20
-55.162
11
26.2915
21
-55.1548
0
LINE
8
BLACK
6
CONTINUOUS
10
26.2915
20
-55.1548
11
26.2753
21
-55.1412
0
LINE
8
BLACK
6
CONTINUOUS
10
26.2753
20
-55.1412
11
26.2647
21
-55.1228
0
LINE
8
BLACK
6
CONTINUOUS
10
26.2647
20
-55.1228
11
26.262
21
-55.1072
0
LINE
8
BLACK
6
CONTINUOUS
10
26.262
20
-55.1072
11
26.262
21
-53.0968
0
LINE
8
BLACK
6
CONTINUOUS
10
26.262
20
-53.0968
11
26.2647
21
-53.0812
0
LINE
8
BLACK
6
CONTINUOUS
10
26.2647
20
-53.0812
11
26.2753
21
-53.0628
0
LINE
8
BLACK
6
CONTINUOUS
10
26.2753
20
-53.0628
11
26.2915
21
-53.0492
0
LINE
8
BLACK
6
CONTINUOUS
10
26.2915
20
-53.0492
11
26.3114
21
-53.042
0
LINE
8
BLACK
6
CONTINUOUS
10
26.3114
20
-53.042
11
26.3326
21
-53.042
0
LINE
8
BLACK
6
CONTINUOUS
10
26.3326
20
-53.042
11
26.3525
21
-53.0492
  0
ENDSEC
  0
EOF
