  0
SECTION
  2
HEADER
  9
$ANGBASE
  50
0.0
  9
$ANGDIR
  70
  1
  9
$MEASUREMENT
  70
0
  0
ENDSEC
  0
SECTION
  2
TABLES
  0
TABLE
  2
LTYPE
  70
4
  0
LTYPE
  5
40F
  2
CONTINUOUS
  70
0
  3
Solid line
  72
65
  73
0
  40
0.0
  0
LTYPE
  5
410
  2
DASHDOT
 70
0
  3
Dash Dot ____ _ ____ _
 72
65
 73
4
 40
2.0
 49
1.25
 49
-0.25
 49
0.25
 49
-0.25
  0
LTYPE
  5
411
  2
DASHED
 70
0
  3
Dashed __ __ __ __ __
 72
65
 73
2
 40
0.75
 49
0.5
 49
-0.25
  0
LTYPE
  5
43B
  2
DOTTED
 70
0
  3
Dotted .  .  .  .
 72
65
 73
2
 40
0.2
 49
0.0
 49
-0.2
  0
ENDTAB
  0
TABLE
  2
STYLE
  70
4
  0
STYLE
  2
KICAD
  70
0
  40
0
  41
1
  42
1
  50
0
  71
0
  3
isocp.shx
  0
STYLE
  2
KICADB
  70
0
  40
0
  41
1
  42
1
  50
0
  71
0
  3
isocp.shx
  0
STYLE
  2
KICADI
  70
0
  40
0
  41
1
  42
1
  50
15
  71
0
  3
isocp.shx
  0
STYLE
  2
KICADBI
  70
0
  40
0
  41
1
  42
1
  50
15
  71
0
  3
isocp.shx
  0
ENDTAB
  0
TABLE
  2
LAYER
  70
30
  0
LAYER
  2
BLACK
  70
0
  62
7
  6
CONTINUOUS
  0
LAYER
  2
GRAY1
  70
0
  62
251
  6
CONTINUOUS
  0
LAYER
  2
GRAY2
  70
0
  62
8
  6
CONTINUOUS
  0
LAYER
  2
GRAY3
  70
0
  62
9
  6
CONTINUOUS
  0
LAYER
  2
WHITE
  70
0
  62
7
  6
CONTINUOUS
  0
LAYER
  2
LYELLOW
  70
0
  62
51
  6
CONTINUOUS
  0
LAYER
  2
BLUE1
  70
0
  62
178
  6
CONTINUOUS
  0
LAYER
  2
GREEN1
  70
0
  62
98
  6
CONTINUOUS
  0
LAYER
  2
CYAN1
  70
0
  62
138
  6
CONTINUOUS
  0
LAYER
  2
RED1
  70
0
  62
18
  6
CONTINUOUS
  0
LAYER
  2
MAGENTA1
  70
0
  62
228
  6
CONTINUOUS
  0
LAYER
  2
BROWN1
  70
0
  62
58
  6
CONTINUOUS
  0
LAYER
  2
BLUE2
  70
0
  62
5
  6
CONTINUOUS
  0
LAYER
  2
GREEN2
  70
0
  62
3
  6
CONTINUOUS
  0
LAYER
  2
CYAN2
  70
0
  62
4
  6
CONTINUOUS
  0
LAYER
  2
RED2
  70
0
  62
1
  6
CONTINUOUS
  0
LAYER
  2
MAGENTA2
  70
0
  62
6
  6
CONTINUOUS
  0
LAYER
  2
BROWN2
  70
0
  62
54
  6
CONTINUOUS
  0
LAYER
  2
BLUE3
  70
0
  62
171
  6
CONTINUOUS
  0
LAYER
  2
GREEN3
  70
0
  62
91
  6
CONTINUOUS
  0
LAYER
  2
CYAN3
  70
0
  62
131
  6
CONTINUOUS
  0
LAYER
  2
RED3
  70
0
  62
11
  6
CONTINUOUS
  0
LAYER
  2
MAGENTA3
  70
0
  62
221
  6
CONTINUOUS
  0
LAYER
  2
YELLOW3
  70
0
  62
2
  6
CONTINUOUS
  0
LAYER
  2
BLUE4
  70
0
  62
5
  6
CONTINUOUS
  0
LAYER
  2
GREEN4
  70
0
  62
3
  6
CONTINUOUS
  0
LAYER
  2
CYAN4
  70
0
  62
4
  6
CONTINUOUS
  0
LAYER
  2
RED4
  70
0
  62
1
  6
CONTINUOUS
  0
LAYER
  2
MAGENTA4
  70
0
  62
6
  6
CONTINUOUS
  0
LAYER
  2
YELLOW4
  70
0
  62
2
  6
CONTINUOUS
  0
ENDTAB
  0
ENDSEC
  0
SECTION
  2
ENTITIES
0
LINE
8
BLACK
6
CONTINUOUS
10
118.666
20
-85.103
11
118.666
21
-85.1074
0
LINE
8
BLACK
6
CONTINUOUS
10
118.666
20
-85.1074
11
118.663
21
-85.1112
0
LINE
8
BLACK
6
CONTINUOUS
10
118.663
20
-85.1112
11
118.662
21
-85.1154
0
LINE
8
BLACK
6
CONTINUOUS
10
118.662
20
-85.1154
11
118.659
21
-85.1188
0
LINE
8
BLACK
6
CONTINUOUS
10
118.659
20
-85.1188
11
118.657
21
-85.1226
0
LINE
8
BLACK
6
CONTINUOUS
10
118.657
20
-85.1226
11
118.653
21
-85.1255
0
LINE
8
BLACK
6
CONTINUOUS
10
118.653
20
-85.1255
11
118.651
21
-85.1289
0
LINE
8
BLACK
6
CONTINUOUS
10
118.651
20
-85.1289
11
118.647
21
-85.1311
0
LINE
8
BLACK
6
CONTINUOUS
10
118.647
20
-85.1311
11
118.643
21
-85.134
0
LINE
8
BLACK
6
CONTINUOUS
10
118.643
20
-85.134
11
118.639
21
-85.1355
0
LINE
8
BLACK
6
CONTINUOUS
10
118.639
20
-85.1355
11
118.635
21
-85.1377
0
LINE
8
BLACK
6
CONTINUOUS
10
118.635
20
-85.1377
11
118.631
21
-85.1385
0
LINE
8
BLACK
6
CONTINUOUS
10
118.631
20
-85.1385
11
118.627
21
-85.14
0
LINE
8
BLACK
6
CONTINUOUS
10
118.627
20
-85.14
11
18.0252
21
-85.14
0
LINE
8
BLACK
6
CONTINUOUS
10
18.0252
20
-85.14
11
18.021
21
-85.1385
0
LINE
8
BLACK
6
CONTINUOUS
10
18.021
20
-85.1385
11
18.0166
21
-85.1377
0
LINE
8
BLACK
6
CONTINUOUS
10
18.0166
20
-85.1377
11
18.0128
21
-85.1355
0
LINE
8
BLACK
6
CONTINUOUS
10
18.0128
20
-85.1355
11
18.0086
21
-85.134
0
LINE
8
BLACK
6
CONTINUOUS
10
18.0086
20
-85.134
11
18.0052
21
-85.1311
0
LINE
8
BLACK
6
CONTINUOUS
10
18.0052
20
-85.1311
11
18.0014
21
-85.1289
0
LINE
8
BLACK
6
CONTINUOUS
10
18.0014
20
-85.1289
11
17.9985
21
-85.1255
0
LINE
8
BLACK
6
CONTINUOUS
10
17.9985
20
-85.1255
11
17.9951
21
-85.1226
0
LINE
8
BLACK
6
CONTINUOUS
10
17.9951
20
-85.1226
11
17.9929
21
-85.1188
0
LINE
8
BLACK
6
CONTINUOUS
10
17.9929
20
-85.1188
11
17.99
21
-85.1154
0
LINE
8
BLACK
6
CONTINUOUS
10
17.99
20
-85.1154
11
17.9885
21
-85.1112
0
LINE
8
BLACK
6
CONTINUOUS
10
17.9885
20
-85.1112
11
17.9863
21
-85.1074
0
LINE
8
BLACK
6
CONTINUOUS
10
17.9863
20
-85.1074
11
17.9855
21
-85.103
0
LINE
8
BLACK
6
CONTINUOUS
10
17.9855
20
-85.103
11
17.984
21
-85.0988
0
LINE
8
BLACK
6
CONTINUOUS
10
17.984
20
-85.0988
11
17.984
21
-85.0812
0
LINE
8
BLACK
6
CONTINUOUS
10
17.984
20
-85.0812
11
17.984
21
-84.3236
0
LINE
8
BLACK
6
CONTINUOUS
10
17.984
20
-84.3236
11
17.984
21
-15.9976
0
LINE
8
BLACK
6
CONTINUOUS
10
17.984
20
-15.9976
11
17.984
21
-15.9976
0
LINE
8
BLACK
6
CONTINUOUS
10
17.984
20
-15.9976
11
17.984
21
-15.2488
0
LINE
8
BLACK
6
CONTINUOUS
10
17.984
20
-15.2488
11
17.984
21
-15.2488
0
LINE
8
BLACK
6
CONTINUOUS
10
17.984
20
-15.2488
11
17.984
21
-15.2312
0
LINE
8
BLACK
6
CONTINUOUS
10
17.984
20
-15.2312
11
17.9855
21
-15.227
0
LINE
8
BLACK
6
CONTINUOUS
10
17.9855
20
-15.227
11
17.9863
21
-15.2226
0
LINE
8
BLACK
6
CONTINUOUS
10
17.9863
20
-15.2226
11
17.9885
21
-15.2188
0
LINE
8
BLACK
6
CONTINUOUS
10
17.9885
20
-15.2188
11
17.99
21
-15.2146
0
LINE
8
BLACK
6
CONTINUOUS
10
17.99
20
-15.2146
11
17.9929
21
-15.2112
0
LINE
8
BLACK
6
CONTINUOUS
10
17.9929
20
-15.2112
11
17.9951
21
-15.2074
0
LINE
8
BLACK
6
CONTINUOUS
10
17.9951
20
-15.2074
11
17.9985
21
-15.2045
0
LINE
8
BLACK
6
CONTINUOUS
10
17.9985
20
-15.2045
11
18.0014
21
-15.2011
0
LINE
8
BLACK
6
CONTINUOUS
10
18.0014
20
-15.2011
11
18.0052
21
-15.1989
0
LINE
8
BLACK
6
CONTINUOUS
10
18.0052
20
-15.1989
11
18.0086
21
-15.196
0
LINE
8
BLACK
6
CONTINUOUS
10
18.0086
20
-15.196
11
18.0128
21
-15.1945
0
LINE
8
BLACK
6
CONTINUOUS
10
18.0128
20
-15.1945
11
18.0166
21
-15.1923
0
LINE
8
BLACK
6
CONTINUOUS
10
18.0166
20
-15.1923
11
18.021
21
-15.1915
0
LINE
8
BLACK
6
CONTINUOUS
10
18.021
20
-15.1915
11
18.0252
21
-15.19
0
LINE
8
BLACK
6
CONTINUOUS
10
18.0252
20
-15.19
11
118.627
21
-15.19
0
LINE
8
BLACK
6
CONTINUOUS
10
118.627
20
-15.19
11
118.631
21
-15.1915
0
LINE
8
BLACK
6
CONTINUOUS
10
118.631
20
-15.1915
11
118.635
21
-15.1923
0
LINE
8
BLACK
6
CONTINUOUS
10
118.635
20
-15.1923
11
118.639
21
-15.1945
0
LINE
8
BLACK
6
CONTINUOUS
10
118.639
20
-15.1945
11
118.643
21
-15.196
0
LINE
8
BLACK
6
CONTINUOUS
10
118.643
20
-15.196
11
118.647
21
-15.1989
0
LINE
8
BLACK
6
CONTINUOUS
10
118.647
20
-15.1989
11
118.651
21
-15.2011
0
LINE
8
BLACK
6
CONTINUOUS
10
118.651
20
-15.2011
11
118.653
21
-15.2045
0
LINE
8
BLACK
6
CONTINUOUS
10
118.653
20
-15.2045
11
118.657
21
-15.2074
0
LINE
8
BLACK
6
CONTINUOUS
10
118.657
20
-15.2074
11
118.659
21
-15.2112
0
LINE
8
BLACK
6
CONTINUOUS
10
118.659
20
-15.2112
11
118.662
21
-15.2146
0
LINE
8
BLACK
6
CONTINUOUS
10
118.662
20
-15.2146
11
118.663
21
-15.2188
0
LINE
8
BLACK
6
CONTINUOUS
10
118.663
20
-15.2188
11
118.666
21
-15.2226
0
LINE
8
BLACK
6
CONTINUOUS
10
118.666
20
-15.2226
11
118.666
21
-15.227
0
LINE
8
BLACK
6
CONTINUOUS
10
118.666
20
-15.227
11
118.668
21
-15.2312
0
LINE
8
BLACK
6
CONTINUOUS
10
118.668
20
-15.2312
11
118.668
21
-85.0988
0
LINE
8
BLACK
6
CONTINUOUS
10
118.668
20
-85.0988
11
118.666
21
-85.103
0
LINE
8
BLACK
6
CONTINUOUS
10
118.568
20
-85.04
11
118.568
21
-84.3236
0
LINE
8
BLACK
6
CONTINUOUS
10
118.568
20
-84.3236
11
118.568
21
-15.9976
0
LINE
8
BLACK
6
CONTINUOUS
10
118.568
20
-15.9976
11
118.568
21
-15.9976
0
LINE
8
BLACK
6
CONTINUOUS
10
118.568
20
-15.9976
11
118.568
21
-15.29
0
LINE
8
BLACK
6
CONTINUOUS
10
118.568
20
-15.29
11
18.084
21
-15.29
0
LINE
8
BLACK
6
CONTINUOUS
10
18.084
20
-15.29
11
18.084
21
-85.04
0
LINE
8
BLACK
6
CONTINUOUS
10
18.084
20
-85.04
11
118.568
21
-85.04
  0
ENDSEC
  0
EOF
